<svg width="152" height="43" viewBox="0 0 152 43" fill="none" xmlns="http://www.w3.org/2000/svg">
<rect x="0.5" y="0.5" width="151" height="42" rx="3.5" fill="white"/>
<path d="M6.71289 19.6128H8.46484V11.1577H6.70703L4.52148 12.6753V14.269L6.67773 12.7808H6.71289V19.6128ZM10.4336 11.1577V19.6128H12.2031V16.9468H13.7852C15.5664 16.9468 16.8027 15.7866 16.8027 14.0522C16.8027 12.312 15.6074 11.1577 13.873 11.1577H10.4336ZM12.2031 12.5581H13.4043C14.418 12.5581 15.0039 13.0972 15.0039 14.0581C15.0039 15.0249 14.4121 15.564 13.3984 15.564H12.2031V12.5581ZM19.7207 18.4761C19.1406 18.4761 18.7539 18.1831 18.7539 17.7144C18.7539 17.269 19.1172 16.9819 19.7559 16.9351L21.0801 16.853V17.3101C21.0801 17.9897 20.4648 18.4761 19.7207 18.4761ZM19.1582 19.7124C19.9434 19.7124 20.7227 19.3198 21.0742 18.6519H21.1094V19.6128H22.7617V15.2944C22.7617 14.0288 21.7129 13.1968 20.1016 13.1968C18.4375 13.1968 17.4004 14.0347 17.3359 15.2534H18.9004C18.9824 14.7905 19.3867 14.4741 20.0254 14.4741C20.6699 14.4741 21.0801 14.814 21.0801 15.3999V15.8159L19.498 15.9097C17.9336 16.0034 17.0547 16.6655 17.0547 17.8081C17.0547 18.939 17.9629 19.7124 19.1582 19.7124ZM23.7637 15.1772C23.7637 16.103 24.373 16.7241 25.5625 16.9937L26.7227 17.2515C27.2852 17.3862 27.4961 17.562 27.4961 17.8784C27.4961 18.2886 27.1035 18.5464 26.4531 18.5464C25.7734 18.5464 25.3574 18.2417 25.2754 17.7144H23.6055C23.6992 18.939 24.7305 19.7476 26.4062 19.7476C28.0645 19.7476 29.2012 18.9331 29.2012 17.6968C29.2012 16.7593 28.6914 16.2612 27.4316 15.98L26.2305 15.7222C25.6797 15.5933 25.4102 15.3823 25.4102 15.0718C25.4102 14.6675 25.7969 14.3979 26.3887 14.3979C27.0215 14.3979 27.4258 14.7085 27.4609 15.2124H29.0371C29.0137 13.9937 27.9883 13.1968 26.4121 13.1968C24.8008 13.1968 23.7637 13.9819 23.7637 15.1772ZM29.9512 15.1772C29.9512 16.103 30.5605 16.7241 31.75 16.9937L32.9102 17.2515C33.4727 17.3862 33.6836 17.562 33.6836 17.8784C33.6836 18.2886 33.291 18.5464 32.6406 18.5464C31.9609 18.5464 31.5449 18.2417 31.4629 17.7144H29.793C29.8867 18.939 30.918 19.7476 32.5938 19.7476C34.252 19.7476 35.3887 18.9331 35.3887 17.6968C35.3887 16.7593 34.8789 16.2612 33.6191 15.98L32.418 15.7222C31.8672 15.5933 31.5977 15.3823 31.5977 15.0718C31.5977 14.6675 31.9844 14.3979 32.5762 14.3979C33.209 14.3979 33.6133 14.7085 33.6484 15.2124H35.2246C35.2012 13.9937 34.1758 13.1968 32.5996 13.1968C30.9883 13.1968 29.9512 13.9819 29.9512 15.1772ZM45.0215 13.3315H43.334L42.3789 17.9897H42.3438L41.2246 13.3315H39.584L38.4707 17.9897H38.4355L37.4863 13.3315H35.7637L37.4336 19.6128H39.2324L40.3633 15.1714H40.3984L41.5352 19.6128H43.3574L45.0215 13.3315ZM48.4785 19.7476C50.377 19.7476 51.5898 18.5347 51.5898 16.4663C51.5898 14.4272 50.3594 13.1968 48.4785 13.1968C46.5977 13.1968 45.3672 14.4331 45.3672 16.4663C45.3672 18.5288 46.5801 19.7476 48.4785 19.7476ZM48.4785 18.4409C47.6348 18.4409 47.1016 17.7319 47.1016 16.4722C47.1016 15.2241 47.6465 14.5034 48.4785 14.5034C49.3105 14.5034 49.8496 15.2241 49.8496 16.4722C49.8496 17.7319 49.3164 18.4409 48.4785 18.4409ZM52.4746 19.6128H54.1855V16.103C54.1855 15.2183 54.6777 14.7026 55.5215 14.7026C55.7676 14.7026 56.002 14.7437 56.1426 14.8022V13.2964C56.0254 13.2612 55.8555 13.2319 55.6562 13.2319C54.918 13.2319 54.3848 13.6655 54.1621 14.4624H54.127V13.3315H52.4746V19.6128ZM58.9668 19.7124C59.8926 19.7124 60.6191 19.2261 60.9238 18.5347H60.9531V19.6128H62.6406V11.1577H60.9297V14.4097H60.8945C60.5898 13.7124 59.8867 13.2319 58.9785 13.2319C57.4023 13.2319 56.4062 14.4683 56.4062 16.4604C56.4062 18.4702 57.3965 19.7124 58.9668 19.7124ZM59.5469 14.603C60.3965 14.603 60.9414 15.3296 60.9414 16.4722C60.9414 17.6206 60.3965 18.3354 59.5469 18.3354C58.6855 18.3354 58.1582 17.6265 58.1582 16.4722C58.1582 15.3237 58.6855 14.603 59.5469 14.603Z" fill="#1B283C"/>
<g filter="url(#filter0_ddd_1319_140161)">
<rect x="124.75" y="4.75" width="22.5" height="21.7258" rx="3.25" stroke="#D32D27" stroke-width="1.5"/>
</g>
<g clip-path="url(#clip0_1319_140161)">
<path d="M129.6 17.2C130.484 17.2 131.2 16.4837 131.2 15.6C131.2 14.7163 130.484 14 129.6 14C128.716 14 128 14.7163 128 15.6C128 16.4837 128.716 17.2 129.6 17.2Z" fill="#768498"/>
<path d="M136 17.2C136.884 17.2 137.6 16.4837 137.6 15.6C137.6 14.7163 136.884 14 136 14C135.117 14 134.4 14.7163 134.4 15.6C134.4 16.4837 135.117 17.2 136 17.2Z" fill="#768498"/>
<path d="M142.4 17.2C143.283 17.2 144 16.4837 144 15.6C144 14.7163 143.283 14 142.4 14C141.516 14 140.8 14.7163 140.8 15.6C140.8 16.4837 141.516 17.2 142.4 17.2Z" fill="#768498"/>
</g>
<path d="M141.6 29.8904V28.6761C141.6 28.3541 141.474 28.0452 141.249 27.8175C141.023 27.5898 140.718 27.4619 140.4 27.4619C140.082 27.4619 139.777 27.5898 139.551 27.8175C139.326 28.0452 139.2 28.3541 139.2 28.6761V28.0714C139.2 27.7494 139.074 27.4405 138.849 27.2128C138.623 26.9851 138.318 26.8571 138 26.8571C137.682 26.8571 137.377 26.9851 137.151 27.2128C136.926 27.4405 136.8 27.7494 136.8 28.0714V23.2143C136.8 22.8922 136.674 22.5834 136.449 22.3557C136.223 22.1279 135.918 22 135.6 22C135.282 22 134.977 22.1279 134.751 22.3557C134.526 22.5834 134.4 22.8922 134.4 23.2143V30.5C133.763 30.5 133.153 30.7559 132.703 31.2113C132.253 31.6668 132 32.2845 132 32.9286C132 34.1133 132.366 35.2684 133.046 36.2322L133.926 37.4749C134.259 37.9462 134.698 38.3305 135.207 38.5957C135.716 38.861 136.28 38.9996 136.853 39H139.903C140.441 39 140.974 38.8927 141.472 38.6842C141.969 38.4757 142.42 38.1701 142.801 37.7849C143.181 37.3997 143.483 36.9424 143.689 36.4392C143.895 35.9359 144 35.3966 144 34.852V29.8904C144 29.5684 143.874 29.2595 143.649 29.0318C143.423 28.8041 143.118 28.6761 142.8 28.6761C142.482 28.6761 142.177 28.8041 141.951 29.0318C141.726 29.2595 141.6 29.5684 141.6 29.8904Z" fill="white" stroke="#1B283C" stroke-width="1.25" stroke-linecap="round" stroke-linejoin="round"/>
<rect x="0.5" y="0.5" width="151" height="42" rx="3.5" stroke="#EBEEEF"/>
<defs>
<filter id="filter0_ddd_1319_140161" x="122" y="2" width="28" height="29.2256" filterUnits="userSpaceOnUse" color-interpolation-filters="sRGB">
<feFlood flood-opacity="0" result="BackgroundImageFix"/>
<feColorMatrix in="SourceAlpha" type="matrix" values="0 0 0 0 0 0 0 0 0 0 0 0 0 0 0 0 0 0 127 0" result="hardAlpha"/>
<feOffset dy="1"/>
<feGaussianBlur stdDeviation="1"/>
<feColorMatrix type="matrix" values="0 0 0 0 0.113958 0 0 0 0 0.188601 0 0 0 0 0.28457 0 0 0 0.04 0"/>
<feBlend mode="normal" in2="BackgroundImageFix" result="effect1_dropShadow_1319_140161"/>
<feColorMatrix in="SourceAlpha" type="matrix" values="0 0 0 0 0 0 0 0 0 0 0 0 0 0 0 0 0 0 127 0" result="hardAlpha"/>
<feOffset dy="2"/>
<feGaussianBlur stdDeviation="1"/>
<feColorMatrix type="matrix" values="0 0 0 0 0.113958 0 0 0 0 0.188601 0 0 0 0 0.28457 0 0 0 0.04 0"/>
<feBlend mode="normal" in2="effect1_dropShadow_1319_140161" result="effect2_dropShadow_1319_140161"/>
<feColorMatrix in="SourceAlpha" type="matrix" values="0 0 0 0 0 0 0 0 0 0 0 0 0 0 0 0 0 0 127 0" result="hardAlpha"/>
<feOffset/>
<feGaussianBlur stdDeviation="1"/>
<feColorMatrix type="matrix" values="0 0 0 0 0.113958 0 0 0 0 0.188601 0 0 0 0 0.28457 0 0 0 0.16 0"/>
<feBlend mode="normal" in2="effect2_dropShadow_1319_140161" result="effect3_dropShadow_1319_140161"/>
<feBlend mode="normal" in="SourceGraphic" in2="effect3_dropShadow_1319_140161" result="shape"/>
</filter>
<clipPath id="clip0_1319_140161">
<rect width="16" height="3.2" fill="white" transform="translate(128 14)"/>
</clipPath>
</defs>
</svg>
