<svg width="48" height="48" viewBox="0 0 48 48" fill="none" xmlns="http://www.w3.org/2000/svg">
<path d="M24 48C37.2548 48 48 37.2548 48 24C48 10.7452 37.2548 0 24 0C10.7452 0 0 10.7452 0 24C0 37.2548 10.7452 48 24 48Z" fill="#808080"/>
<path d="M24.0003 0.827637C11.6175 0.827637 1.50544 10.5363 0.858887 22.7587C0.864059 35.7828 11.2244 46.3449 24.0003 46.3449C36.7762 46.3449 47.1365 35.7828 47.1417 22.7587C46.4951 10.5363 36.3831 0.827637 24.0003 0.827637Z" fill="white"/>
<path d="M24 47.1726C11.188 47.1726 0.827637 36.8123 0.827637 24.0002C0.827637 23.5709 0.827637 23.1726 0.858671 22.7743C1.48971 34.9916 11.6173 44.6899 24 44.6899C36.2794 44.6899 46.3449 35.1209 47.1414 23.0381V22.7743C47.1725 23.1726 47.1725 23.5709 47.1725 24.0002C47.1725 36.8123 36.8121 47.1726 24 47.1726ZM24 3.31055C12.8018 3.31055 3.72419 12.3881 3.72419 23.5864C3.72419 29.845 6.55867 35.4364 11.0121 39.1554C9.10153 37.3767 7.57842 35.223 6.53803 32.829C5.49763 30.4349 4.96232 27.8519 4.96557 25.2416C4.96557 14.7312 13.4897 6.2071 24 6.2071C34.5104 6.2071 43.0345 14.7312 43.0345 25.2416C43.0378 27.8519 42.5025 30.4349 41.4621 32.829C40.4217 35.223 38.8986 37.3767 36.988 39.1554C41.4414 35.4364 44.2759 29.845 44.2759 23.5864C44.2759 12.3881 35.1983 3.31055 24 3.31055Z" fill="#F2F2F2"/>
<path d="M23.9999 42.2068C34.0553 42.2068 42.2068 34.0553 42.2068 23.9999C42.2068 13.9445 34.0553 5.79297 23.9999 5.79297C13.9445 5.79297 5.79297 13.9445 5.79297 23.9999C5.79297 34.0553 13.9445 42.2068 23.9999 42.2068Z" fill="#1369BF"/>
<path d="M23.9999 41.3792C33.5982 41.3792 41.3792 33.5982 41.3792 23.9999C41.3792 14.4016 33.5982 6.62061 23.9999 6.62061C14.4016 6.62061 6.62061 14.4016 6.62061 23.9999C6.62061 33.5982 14.4016 41.3792 23.9999 41.3792Z" fill="#198CFF"/>
<path d="M23.9998 38.4826C31.9985 38.4826 38.4826 31.9985 38.4826 23.9998C38.4826 16.0012 31.9985 9.51709 23.9998 9.51709C16.0012 9.51709 9.51709 16.0012 9.51709 23.9998C9.51709 31.9985 16.0012 38.4826 23.9998 38.4826Z" fill="#1369BF"/>
<path d="M23.9999 37.6551C31.5414 37.6551 37.6551 31.5414 37.6551 23.9999C37.6551 16.4584 31.5414 10.3447 23.9999 10.3447C16.4584 10.3447 10.3447 16.4584 10.3447 23.9999C10.3447 31.5414 16.4584 37.6551 23.9999 37.6551Z" fill="#F2F2F2"/>
<path d="M23.9998 31.0343C27.8849 31.0343 31.0343 27.8849 31.0343 23.9998C31.0343 20.1148 27.8849 16.9653 23.9998 16.9653C20.1148 16.9653 16.9653 20.1148 16.9653 23.9998C16.9653 27.8849 20.1148 31.0343 23.9998 31.0343Z" fill="white"/>
<path d="M23.9999 30.2068C27.4278 30.2068 30.2068 27.4278 30.2068 23.9999C30.2068 20.5719 27.4278 17.793 23.9999 17.793C20.5719 17.793 17.793 20.5719 17.793 23.9999C17.793 27.4278 20.5719 30.2068 23.9999 30.2068Z" fill="#BFBFBF"/>
<path d="M23.9999 29.3792C26.9708 29.3792 29.3792 26.9708 29.3792 23.9999C29.3792 21.029 26.9708 18.6206 23.9999 18.6206C21.029 18.6206 18.6206 21.029 18.6206 23.9999C18.6206 26.9708 21.029 29.3792 23.9999 29.3792Z" fill="#E5E5E5"/>
<path d="M21.7244 34.7585C21.2309 34.7571 20.7581 34.5605 20.4092 34.2116C20.0603 33.8626 19.8637 33.3898 19.8623 32.8964V23.5498C19.8626 23.1114 20.0163 22.6868 20.2968 22.3498L20.8451 21.7033C20.8753 21.665 20.8917 21.6176 20.8917 21.5688C20.8917 21.52 20.8753 21.4726 20.8451 21.4343L20.2968 20.7878C20.0163 20.4508 19.8626 20.0262 19.8623 19.5878V15.1033C19.8637 14.6098 20.0603 14.137 20.4092 13.7881C20.7581 13.4392 21.2309 13.2426 21.7244 13.2412H26.2761C26.7695 13.2426 27.2424 13.4392 27.5913 13.7881C27.9402 14.137 28.1368 14.6098 28.1382 15.1033V24.4498C28.1379 24.8883 27.9842 25.3128 27.7037 25.6498L27.1554 26.2964C27.1252 26.3347 27.1088 26.3821 27.1088 26.4309C27.1088 26.4797 27.1252 26.527 27.1554 26.5653L27.7037 27.2119C27.9842 27.5489 28.1379 27.9734 28.1382 28.4119V32.8964C28.1368 33.3898 27.9402 33.8626 27.5913 34.2116C27.2424 34.5605 26.7695 34.7571 26.2761 34.7585H21.7244Z" fill="white"/>
<path d="M21.7239 14.0688H26.2757C26.5496 14.0702 26.8119 14.1796 27.0056 14.3733C27.1994 14.5671 27.3088 14.8294 27.3101 15.1033V24.4499C27.3091 24.6938 27.2231 24.9297 27.067 25.1171L26.5239 25.7637C26.3664 25.9503 26.28 26.1867 26.28 26.4309C26.28 26.6752 26.3664 26.9115 26.5239 27.0982L27.067 27.7447C27.2231 27.9321 27.3091 28.1681 27.3101 28.4119V32.8964C27.3088 33.1704 27.1994 33.4327 27.0056 33.6264C26.8119 33.8201 26.5496 33.9296 26.2757 33.9309H21.7239C21.45 33.9296 21.1877 33.8201 20.9939 33.6264C20.8002 33.4327 20.6908 33.1704 20.6895 32.8964V23.5499C20.6905 23.306 20.7765 23.0701 20.9326 22.8826L21.4757 22.2361C21.6332 22.0494 21.7196 21.8131 21.7196 21.5688C21.7196 21.3246 21.6332 21.0882 21.4757 20.9016L20.9326 20.2551C20.7765 20.0676 20.6905 19.8317 20.6895 19.5878V15.1033C20.6908 14.8294 20.8002 14.5671 20.9939 14.3733C21.1877 14.1796 21.45 14.0702 21.7239 14.0688Z" fill="#061A2E"/>
<path d="M21.7241 33.1034C21.6692 33.1034 21.6166 33.0816 21.5778 33.0428C21.539 33.004 21.5172 32.9514 21.5172 32.8965V23.5499C21.5158 23.5009 21.5324 23.4531 21.5637 23.4154L22.112 22.7637C22.3923 22.4287 22.5459 22.0057 22.5459 21.5689C22.5459 21.1321 22.3923 20.7091 22.112 20.3741L21.5637 19.7223C21.5324 19.6847 21.5158 19.6369 21.5172 19.5879V15.1034C21.5172 15.0485 21.539 14.9959 21.5778 14.9571C21.6166 14.9183 21.6692 14.8965 21.7241 14.8965H26.2758C26.3307 14.8965 26.3833 14.9183 26.4221 14.9571C26.4609 14.9959 26.4827 15.0485 26.4827 15.1034V24.4499C26.484 24.4989 26.4675 24.5467 26.4361 24.5844L25.8879 25.2361C25.6075 25.5712 25.454 25.9941 25.454 26.431C25.454 26.8678 25.6075 27.2907 25.8879 27.6258L26.4361 28.2775C26.4675 28.3152 26.484 28.363 26.4827 28.412V32.8965C26.4827 32.9514 26.4609 33.004 26.4221 33.0428C26.3833 33.0816 26.3307 33.1034 26.2758 33.1034H21.7241Z" fill="#0A2B4C"/>
</svg>
