<svg width="22" height="22" viewBox="0 0 22 22" fill="none" xmlns="http://www.w3.org/2000/svg">
<circle cx="11" cy="11" r="11" fill="#D32D27"/>
<path d="M5.5 11C5.5 11.1823 5.57243 11.3572 5.70136 11.4861C5.8303 11.6151 6.00516 11.6875 6.1875 11.6875H10.1979C10.2283 11.6875 10.2575 11.6996 10.2789 11.7211C10.3004 11.7425 10.3125 11.7717 10.3125 11.8021V15.8125C10.3125 15.9948 10.3849 16.1697 10.5139 16.2986C10.6428 16.4276 10.8177 16.5 11 16.5C11.1823 16.5 11.3572 16.4276 11.4861 16.2986C11.6151 16.1697 11.6875 15.9948 11.6875 15.8125V11.8021C11.6875 11.7717 11.6996 11.7425 11.7211 11.7211C11.7425 11.6996 11.7717 11.6875 11.8021 11.6875H15.8125C15.9948 11.6875 16.1697 11.6151 16.2986 11.4861C16.4276 11.3572 16.5 11.1823 16.5 11C16.5 10.8177 16.4276 10.6428 16.2986 10.5139C16.1697 10.3849 15.9948 10.3125 15.8125 10.3125H11.8021C11.7717 10.3125 11.7425 10.3004 11.7211 10.2789C11.6996 10.2575 11.6875 10.2283 11.6875 10.1979V6.1875C11.6875 6.00516 11.6151 5.8303 11.4861 5.70136C11.3572 5.57243 11.1823 5.5 11 5.5C10.8177 5.5 10.6428 5.57243 10.5139 5.70136C10.3849 5.8303 10.3125 6.00516 10.3125 6.1875V10.1979C10.3125 10.2283 10.3004 10.2575 10.2789 10.2789C10.2575 10.3004 10.2283 10.3125 10.1979 10.3125H6.1875C6.00516 10.3125 5.8303 10.3849 5.70136 10.5139C5.57243 10.6428 5.5 10.8177 5.5 11Z" fill="white"/>
</svg>
