<svg width="103" height="68" viewBox="0 0 103 68" fill="none" xmlns="http://www.w3.org/2000/svg">
<g clip-path="url(#clip0_4041_39308)">
<path d="M37.3501 6.38429C37.3501 5.63352 37.9587 5.0249 38.7095 5.0249H81.5375C82.2883 5.0249 82.8969 5.63352 82.8969 6.38429V46.6117C82.8969 47.3624 82.2883 47.9711 81.5375 47.9711H38.7095C37.9587 47.9711 37.3501 47.3624 37.3501 46.6117V6.38429Z" fill="#B5D9F1" stroke="#264887" stroke-width="2.09375" stroke-linecap="round" stroke-linejoin="round"/>
<path d="M32.3252 11.4092C32.3252 10.6584 32.9338 10.0498 33.6846 10.0498H76.5126C77.2634 10.0498 77.872 10.6584 77.872 11.4092V51.6366C77.872 52.3873 77.2634 52.996 76.5126 52.996H33.6846C32.9338 52.996 32.3252 52.3873 32.3252 51.6366V11.4092Z" fill="#B5D9F1" stroke="#264887" stroke-width="2.09375" stroke-linecap="round" stroke-linejoin="round"/>
<path d="M27.3003 16.4346C27.3003 15.6838 27.9089 15.0752 28.6597 15.0752H71.4877C72.2385 15.0752 72.8471 15.6838 72.8471 16.4346V56.662C72.8471 57.4127 72.2385 58.0214 71.4877 58.0214H28.6597C27.9089 58.0214 27.3003 57.4127 27.3003 56.662V16.4346Z" fill="#B5D9F1" stroke="#264887" stroke-width="2.09375" stroke-linecap="round" stroke-linejoin="round"/>
<path d="M22.3647 21.3203C22.3647 20.5696 22.9734 19.9609 23.7241 19.9609H66.5522C67.3029 19.9609 67.9116 20.5696 67.9116 21.3203V61.5477C67.9116 62.2985 67.3029 62.9071 66.5522 62.9071H23.7241C22.9734 62.9071 22.3647 62.2985 22.3647 61.5477V21.3203Z" fill="white" stroke="#264887" stroke-width="2.09375" stroke-linecap="round" stroke-linejoin="round"/>
<path d="M22.3643 29.8721H67.9111" stroke="#264887" stroke-width="2.09375" stroke-linecap="round" stroke-linejoin="round"/>
<path d="M28.8706 36.4785H41.884V49.6927H28.8706V36.4785Z" fill="#E78C89" stroke="#E78C89" stroke-width="2.97366" stroke-linecap="round" stroke-linejoin="round"/>
<path d="M28.7803 56.1582H61.4996" stroke="#90C6EB" stroke-width="2.97366" stroke-linecap="round" stroke-linejoin="round"/>
<path d="M48.4858 43.3208H61.5014" stroke="#90C6EB" stroke-width="2.97366" stroke-linecap="round" stroke-linejoin="round"/>
<path d="M48.4858 50.1177H61.5014" stroke="#90C6EB" stroke-width="2.97366" stroke-linecap="round" stroke-linejoin="round"/>
<path d="M48.4858 36.5259H61.5014" stroke="#90C6EB" stroke-width="2.97366" stroke-linecap="round" stroke-linejoin="round"/>
<path d="M11.3308 3.71176L7.81299 5.9834L10.13 9.54651L13.6478 7.27487L11.3308 3.71176Z" stroke="#E78C89" stroke-width="1.675" stroke-linecap="round" stroke-linejoin="round"/>
<path d="M21.2627 4.12474L20.4082 8.22412L24.5604 9.13149L25.415 5.0321L21.2627 4.12474Z" stroke="#E78C89" stroke-width="1.675" stroke-linecap="round" stroke-linejoin="round"/>
<path d="M5.78564 18.3105L11.3262 19.5369Z" fill="#E78C89"/>
<path d="M5.78564 18.3105L11.3262 19.5369" stroke="#E78C89" stroke-width="1.675" stroke-linecap="round"/>
<path d="M9.00693 16.2301L7.86667 21.7706Z" fill="#E78C89"/>
<path d="M9.00693 16.2301L7.86667 21.7706" stroke="#E78C89" stroke-width="1.675" stroke-linecap="round"/>
<path d="M98.2638 23.0084L95.1548 20.2031L92.3617 23.3L95.4706 26.1052L98.2638 23.0084Z" stroke="#E78C89" stroke-width="1.675" stroke-linecap="round" stroke-linejoin="round"/>
</g>
<defs>
<clipPath id="clip0_4041_39308">
<rect width="102" height="68" fill="white" transform="translate(0.5)"/>
</clipPath>
</defs>
</svg>
