<svg width="418" height="202" viewBox="0 0 418 202" fill="none" xmlns="http://www.w3.org/2000/svg">
    <g filter="url(#filter0_d)">
        <rect x="9" y="6" width="400" height="184" rx="4" fill="#F7F9FC"/>
        <rect x="9.5" y="6.5" width="399" height="183" rx="3.5" stroke="#D5D9DE"/>
    </g>
    <path d="M25.5 66C25.5 64.067 27.067 62.5 29 62.5H389C390.933 62.5 392.5 64.067 392.5 66V118C392.5 119.933 390.933 121.5 389 121.5H29C27.067 121.5 25.5 119.933 25.5 118V66Z" fill="white" stroke="#C0C6CE"/>
    <path d="M88.3701 89.1709C90.3936 89.1709 91.5693 87.9951 91.5693 85.9922V79.1357H89.8125V85.9785C89.8125 87.0518 89.3066 87.626 88.3496 87.626C87.4814 87.626 87.0166 87.0586 86.9688 86.2998L86.9619 86.2451H85.2393L85.2461 86.3203C85.3145 88.0156 86.4492 89.1709 88.3701 89.1709ZM95.1924 89.123C96.1494 89.123 96.9561 88.6445 97.373 87.8857H97.4141V89H99.1162V84.0166C99.1162 82.5605 97.9473 81.6035 96.1357 81.6035C94.2969 81.6035 93.1826 82.5674 93.0801 83.8525L93.0732 83.9346H94.6523L94.666 83.873C94.7754 83.3398 95.2676 82.9639 96.0742 82.9639C96.9355 82.9639 97.4141 83.4082 97.4141 84.1396V84.6387L95.5205 84.7549C93.7637 84.8643 92.7656 85.6367 92.7656 86.9219V86.9355C92.7656 88.2275 93.7432 89.123 95.1924 89.123ZM94.4609 86.8672V86.8604C94.4609 86.2861 94.9189 85.9238 95.7598 85.8691L97.4141 85.7666V86.3135C97.4141 87.1748 96.6758 87.8242 95.6982 87.8242C94.9531 87.8242 94.4609 87.4619 94.4609 86.8672ZM100.49 89H102.192V84.7959C102.192 83.75 102.814 83.0391 103.792 83.0391C104.763 83.0391 105.241 83.6201 105.241 84.6523V89H106.943V84.3105C106.943 82.6289 106.034 81.6035 104.441 81.6035C103.341 81.6035 102.603 82.1094 102.227 82.8887H102.192V81.7539H100.49V89ZM111.496 89.1436C113.39 89.1436 114.456 88.0225 114.682 86.9082L114.702 86.833H113.109L113.096 86.8809C112.932 87.3662 112.378 87.8174 111.53 87.8174C110.423 87.8174 109.726 87.0654 109.698 85.7939H114.771V85.2471C114.771 83.0596 113.485 81.6035 111.414 81.6035C109.343 81.6035 108.01 83.1074 108.01 85.3906V85.3975C108.01 87.7012 109.322 89.1436 111.496 89.1436ZM111.435 82.9365C112.337 82.9365 112.993 83.5107 113.116 84.6592H109.719C109.855 83.5449 110.532 82.9365 111.435 82.9365ZM118.845 89H122.447C125.4 89 127.137 87.168 127.137 84.0439V84.0303C127.137 80.9131 125.387 79.1357 122.447 79.1357H118.845V89ZM120.608 87.5098V80.626H122.263C124.225 80.626 125.339 81.8359 125.339 84.0371V84.0508C125.339 86.2998 124.245 87.5098 122.263 87.5098H120.608ZM131.573 89.1436C133.699 89.1436 135.08 87.7285 135.08 85.377V85.3633C135.08 83.0254 133.679 81.6035 131.566 81.6035C129.461 81.6035 128.066 83.0391 128.066 85.3633V85.377C128.066 87.7217 129.44 89.1436 131.573 89.1436ZM131.58 87.7695C130.493 87.7695 129.803 86.9014 129.803 85.377V85.3633C129.803 83.8594 130.507 82.9844 131.566 82.9844C132.646 82.9844 133.344 83.8525 133.344 85.3633V85.377C133.344 86.8945 132.653 87.7695 131.58 87.7695ZM139.359 89.1436C141.253 89.1436 142.319 88.0225 142.545 86.9082L142.565 86.833H140.973L140.959 86.8809C140.795 87.3662 140.241 87.8174 139.394 87.8174C138.286 87.8174 137.589 87.0654 137.562 85.7939H142.634V85.2471C142.634 83.0596 141.349 81.6035 139.277 81.6035C137.206 81.6035 135.873 83.1074 135.873 85.3906V85.3975C135.873 87.7012 137.186 89.1436 139.359 89.1436ZM139.298 82.9365C140.2 82.9365 140.856 83.5107 140.979 84.6592H137.582C137.719 83.5449 138.396 82.9365 139.298 82.9365ZM143.311 91.0166H144.5L145.498 87.3936H143.851L143.311 91.0166ZM149.169 89H150.762V81.9863H150.81L153.653 89H154.85L157.693 81.9863H157.748V89H159.334V79.1357H157.297L154.275 86.6689H154.228L151.206 79.1357H149.169V89ZM162.868 89.123C163.825 89.123 164.632 88.6445 165.049 87.8857H165.09V89H166.792V84.0166C166.792 82.5605 165.623 81.6035 163.812 81.6035C161.973 81.6035 160.858 82.5674 160.756 83.8525L160.749 83.9346H162.328L162.342 83.873C162.451 83.3398 162.943 82.9639 163.75 82.9639C164.611 82.9639 165.09 83.4082 165.09 84.1396V84.6387L163.196 84.7549C161.439 84.8643 160.441 85.6367 160.441 86.9219V86.9355C160.441 88.2275 161.419 89.123 162.868 89.123ZM162.137 86.8672V86.8604C162.137 86.2861 162.595 85.9238 163.436 85.8691L165.09 85.7666V86.3135C165.09 87.1748 164.352 87.8242 163.374 87.8242C162.629 87.8242 162.137 87.4619 162.137 86.8672ZM170.996 89.1436C172.773 89.1436 174.038 88.2275 174.038 86.8604V86.8535C174.038 85.8008 173.457 85.2129 171.96 84.8779L170.75 84.6113C169.998 84.4404 169.718 84.167 169.718 83.75V83.7432C169.718 83.21 170.189 82.8613 170.941 82.8613C171.734 82.8613 172.199 83.2852 172.274 83.8662L172.281 83.9209H173.867L173.86 83.8457C173.799 82.5947 172.746 81.6035 170.941 81.6035C169.191 81.6035 168.036 82.499 168.036 83.8252V83.832C168.036 84.9053 168.733 85.582 170.121 85.8896L171.324 86.1562C172.076 86.3271 172.329 86.5732 172.329 87.0107V87.0176C172.329 87.5508 171.83 87.8857 171.003 87.8857C170.142 87.8857 169.67 87.5166 169.54 86.8945L169.526 86.833H167.852L167.858 86.8945C168.009 88.2412 169.096 89.1436 170.996 89.1436ZM177.818 89.1436C178.16 89.1436 178.461 89.1094 178.659 89.082V87.8037C178.543 87.8105 178.413 87.8311 178.249 87.8311C177.627 87.8311 177.312 87.6055 177.312 86.8945V83.0664H178.659V81.7539H177.312V79.915H175.583V81.7539H174.558V83.0664H175.583V87.0381C175.583 88.5283 176.301 89.1436 177.818 89.1436ZM182.877 89.1436C184.771 89.1436 185.837 88.0225 186.062 86.9082L186.083 86.833H184.49L184.477 86.8809C184.312 87.3662 183.759 87.8174 182.911 87.8174C181.804 87.8174 181.106 87.0654 181.079 85.7939H186.151V85.2471C186.151 83.0596 184.866 81.6035 182.795 81.6035C180.724 81.6035 179.391 83.1074 179.391 85.3906V85.3975C179.391 87.7012 180.703 89.1436 182.877 89.1436ZM182.815 82.9365C183.718 82.9365 184.374 83.5107 184.497 84.6592H181.1C181.236 83.5449 181.913 82.9365 182.815 82.9365ZM187.252 89H188.954V84.7959C188.954 83.7227 189.535 83.1143 190.499 83.1143C190.786 83.1143 191.046 83.1553 191.189 83.21V81.6719C191.06 81.6377 190.861 81.6035 190.649 81.6035C189.815 81.6035 189.214 82.1299 188.988 83.0049H188.954V81.7539H187.252V89ZM194.99 89.1436C196.822 89.1436 198.046 87.9951 198.176 86.4844L198.183 86.4365H196.576L196.562 86.498C196.405 87.2568 195.858 87.7695 194.997 87.7695C193.924 87.7695 193.227 86.8945 193.227 85.3838V85.377C193.227 83.8936 193.917 82.9844 194.99 82.9844C195.893 82.9844 196.412 83.5518 196.556 84.2559L196.569 84.3174H198.176L198.169 84.2627C198.066 82.8135 196.877 81.6035 194.97 81.6035C192.857 81.6035 191.49 83.0527 191.49 85.3633V85.3701C191.49 87.6943 192.837 89.1436 194.99 89.1436ZM201.341 89.123C202.298 89.123 203.104 88.6445 203.521 87.8857H203.562V89H205.265V84.0166C205.265 82.5605 204.096 81.6035 202.284 81.6035C200.445 81.6035 199.331 82.5674 199.229 83.8525L199.222 83.9346H200.801L200.814 83.873C200.924 83.3398 201.416 82.9639 202.223 82.9639C203.084 82.9639 203.562 83.4082 203.562 84.1396V84.6387L201.669 84.7549C199.912 84.8643 198.914 85.6367 198.914 86.9219V86.9355C198.914 88.2275 199.892 89.123 201.341 89.123ZM200.609 86.8672V86.8604C200.609 86.2861 201.067 85.9238 201.908 85.8691L203.562 85.7666V86.3135C203.562 87.1748 202.824 87.8242 201.847 87.8242C201.102 87.8242 200.609 87.4619 200.609 86.8672ZM206.639 89H208.341V84.7959C208.341 83.7227 208.922 83.1143 209.886 83.1143C210.173 83.1143 210.433 83.1553 210.576 83.21V81.6719C210.446 81.6377 210.248 81.6035 210.036 81.6035C209.202 81.6035 208.601 82.1299 208.375 83.0049H208.341V81.7539H206.639V89ZM213.871 89.1436C214.917 89.1436 215.717 88.624 216.127 87.7695H216.168V89H217.87V79.1357H216.168V82.998H216.127C215.717 82.1299 214.89 81.6035 213.864 81.6035C212.046 81.6035 210.877 83.0322 210.877 85.3701V85.377C210.877 87.708 212.039 89.1436 213.871 89.1436ZM214.384 87.708C213.29 87.708 212.613 86.8193 212.613 85.377V85.3701C212.613 83.9277 213.297 83.0391 214.384 83.0391C215.43 83.0391 216.168 83.9551 216.168 85.3701V85.377C216.168 86.7988 215.437 87.708 214.384 87.708Z" fill="#213044"/>
    <path d="M85.957 107H92.0684V105.893H87.1875V102.502H91.8154V101.408H87.1875V98.2432H92.0684V97.1357H85.957V107ZM93.5107 107H94.7002V102.816C94.7002 101.606 95.4316 100.807 96.5527 100.807C97.6465 100.807 98.1865 101.442 98.1865 102.598V107H99.376V102.386C99.376 100.766 98.4736 99.7539 96.915 99.7539C95.835 99.7539 95.1104 100.239 94.7275 100.902H94.7002V99.8906H93.5107V107ZM103.566 107.137C104.585 107.137 105.378 106.624 105.822 105.797H105.85V107H107.039V97.1357H105.85V101.08H105.822C105.378 100.26 104.551 99.7539 103.546 99.7539C101.762 99.7539 100.545 101.196 100.545 103.438V103.445C100.545 105.688 101.748 107.137 103.566 107.137ZM103.799 106.084C102.541 106.084 101.762 105.079 101.762 103.445V103.438C101.762 101.818 102.541 100.807 103.799 100.807C104.995 100.807 105.856 101.853 105.856 103.438V103.445C105.856 105.038 105.002 106.084 103.799 106.084ZM109.315 98.6875C109.732 98.6875 110.061 98.3525 110.061 97.9424C110.061 97.5254 109.732 97.1973 109.315 97.1973C108.905 97.1973 108.57 97.5254 108.57 97.9424C108.57 98.3525 108.905 98.6875 109.315 98.6875ZM108.721 107H109.91V99.8906H108.721V107ZM111.53 107H112.72V102.816C112.72 101.606 113.451 100.807 114.572 100.807C115.666 100.807 116.206 101.442 116.206 102.598V107H117.396V102.386C117.396 100.766 116.493 99.7539 114.935 99.7539C113.854 99.7539 113.13 100.239 112.747 100.902H112.72V99.8906H111.53V107ZM121.921 109.529C123.849 109.529 125.059 108.449 125.059 106.802V99.8906H123.869V101.094H123.842C123.404 100.301 122.611 99.7539 121.606 99.7539C119.802 99.7539 118.564 101.189 118.564 103.397V103.404C118.564 105.626 119.788 107.068 121.579 107.068C122.598 107.068 123.418 106.562 123.842 105.776H123.869V106.686C123.869 107.786 123.158 108.477 121.907 108.477C120.937 108.477 120.26 108.162 120.034 107.649L120.007 107.588H118.811L118.824 107.649C119.057 108.702 120.164 109.529 121.921 109.529ZM121.839 106.016C120.574 106.016 119.781 105.018 119.781 103.404V103.397C119.781 101.818 120.574 100.807 121.839 100.807C123.042 100.807 123.869 101.832 123.869 103.397V103.404C123.869 104.983 123.049 106.016 121.839 106.016ZM130.138 98.6875C130.555 98.6875 130.883 98.3525 130.883 97.9424C130.883 97.5254 130.555 97.1973 130.138 97.1973C129.728 97.1973 129.393 97.5254 129.393 97.9424C129.393 98.3525 129.728 98.6875 130.138 98.6875ZM129.543 107H130.732V99.8906H129.543V107ZM132.353 107H133.542V102.816C133.542 101.606 134.273 100.807 135.395 100.807C136.488 100.807 137.028 101.442 137.028 102.598V107H138.218V102.386C138.218 100.766 137.315 99.7539 135.757 99.7539C134.677 99.7539 133.952 100.239 133.569 100.902H133.542V99.8906H132.353V107ZM145.149 107H146.339V97.1357H145.136L142.511 99.0225V100.26L145.122 98.4414H145.149V107ZM148.841 107H155.349V105.906H150.529V105.879L152.874 103.473C154.686 101.62 155.185 100.807 155.185 99.7266V99.7129C155.185 98.168 153.879 96.9717 152.095 96.9717C150.256 96.9717 148.779 98.2363 148.779 99.9453V99.9863H149.969V99.9521C149.969 98.8926 150.885 98.0449 152.115 98.0449C153.188 98.0449 153.947 98.7695 153.954 99.7744V99.7881C153.954 100.608 153.646 101.142 152.313 102.529L148.841 106.152V107ZM160.093 107.164C162.068 107.164 163.518 105.947 163.518 104.3V104.286C163.518 102.885 162.54 101.989 161.104 101.866V101.839C162.335 101.579 163.196 100.745 163.196 99.5283V99.5146C163.196 98.0176 161.959 96.9717 160.079 96.9717C158.233 96.9717 156.962 98.0449 156.805 99.6514L156.798 99.7197H157.98L157.987 99.6514C158.09 98.6533 158.917 98.0381 160.079 98.0381C161.282 98.0381 161.959 98.6328 161.959 99.665V99.6787C161.959 100.663 161.139 101.388 159.963 101.388H158.78V102.427H160.018C161.398 102.427 162.267 103.104 162.267 104.313V104.327C162.267 105.373 161.385 106.098 160.093 106.098C158.78 106.098 157.892 105.428 157.789 104.457L157.782 104.389H156.6L156.606 104.471C156.736 106.029 158.056 107.164 160.093 107.164ZM169.745 107H170.935V104.949H172.329V103.869H170.935V97.1357H169.116L164.789 103.835V104.949H169.745V107ZM166.006 103.869V103.842L169.704 98.1885H169.745V103.869H166.006Z" fill="#2C405A"/>
    <path d="M59.7495 84.1814H50.2529V99.8159H59.7495V84.1814Z" fill="#FF5F00"/>
    <path d="M51.2313 92C51.2301 90.4945 51.5687 89.0085 52.2214 87.6544C52.8741 86.3003 53.8238 85.1136 54.9987 84.1841C53.5436 83.0314 51.796 82.3146 49.9558 82.1156C48.1157 81.9167 46.2571 82.2436 44.5925 83.059C42.9279 83.8743 41.5245 85.1453 40.5426 86.7267C39.5607 88.308 39.04 90.1359 39.04 92.0014C39.04 93.8669 39.5607 95.6948 40.5426 97.2761C41.5245 98.8575 42.9279 100.128 44.5925 100.944C46.2571 101.759 48.1157 102.086 49.9558 101.887C51.796 101.688 53.5436 100.971 54.9987 99.8187C53.8235 98.8889 52.8735 97.7017 52.2208 96.3471C51.5681 94.9925 51.2297 93.5059 51.2313 92Z" fill="#EB001B"/>
    <path d="M70.0162 98.1616V97.8412H70.1532V97.7749H69.8271V97.8412H69.9559V98.1616H70.0162ZM70.6491 98.1616V97.7749H70.5505L70.4354 98.0511L70.3203 97.7749H70.2217V98.1616H70.2929V97.8688L70.3998 98.1201H70.4738L70.5806 97.8688V98.1616H70.6491Z" fill="#F79E1B"/>
    <path d="M70.9587 92C70.9586 93.8656 70.4378 95.6936 69.4558 97.275C68.4737 98.8564 67.0701 100.127 65.4053 100.943C63.7405 101.758 61.8817 102.085 60.0414 101.885C58.2011 101.686 56.4536 100.969 54.9985 99.8159C56.173 98.8855 57.1224 97.6985 57.7753 96.3443C58.4282 94.9902 58.7674 93.5042 58.7674 91.9986C58.7674 90.493 58.4282 89.0071 57.7753 87.6529C57.1224 86.2987 56.173 85.1117 54.9985 84.1814C56.4536 83.0283 58.2011 82.3111 60.0414 82.1119C61.8817 81.9126 63.7405 82.2393 65.4053 83.0546C67.0701 83.8698 68.4737 85.1408 69.4558 86.7222C70.4378 88.3036 70.9586 90.1316 70.9587 91.9972V92Z" fill="#F79E1B"/>
    <path d="M339.298 97H345.683V95.5166H341.062V92.6934H345.43V91.292H341.062V88.6191H345.683V87.1357H339.298V97ZM350.386 97.123C351.438 97.123 352.245 96.6445 352.655 95.8311H352.771V97H354.48V86.6367H352.771V90.7178H352.655C352.266 89.9111 351.411 89.4053 350.386 89.4053C348.492 89.4053 347.323 90.8818 347.323 93.2607V93.2744C347.323 95.6396 348.513 97.123 350.386 97.123ZM350.919 95.6875C349.757 95.6875 349.053 94.7783 349.053 93.2744V93.2607C349.053 91.7568 349.764 90.8408 350.919 90.8408C352.074 90.8408 352.799 91.7637 352.799 93.2607V93.2744C352.799 94.7715 352.081 95.6875 350.919 95.6875ZM357.495 88.2773C358.049 88.2773 358.507 87.833 358.507 87.2725C358.507 86.7188 358.049 86.2676 357.495 86.2676C356.935 86.2676 356.477 86.7188 356.477 87.2725C356.477 87.833 356.935 88.2773 357.495 88.2773ZM356.641 97H358.343V89.5283H356.641V97ZM363.374 97.0342C363.702 97.0342 364.017 97.0068 364.263 96.959V95.6465C364.058 95.667 363.928 95.6738 363.688 95.6738C362.978 95.6738 362.684 95.3594 362.684 94.6143V90.8477H364.263V89.5283H362.684V87.6963H360.954V89.5283H359.792V90.8477H360.954V95.0176C360.954 96.46 361.658 97.0342 363.374 97.0342Z" fill="#3B70D4"/>
    <path d="M25.2373 40H27.6104L28.6826 36.7217H33.4023L34.4746 40H36.8564L32.3213 27.3174H29.7725L25.2373 40ZM31.0205 29.5762H31.0732L32.8311 34.9727H29.2539L31.0205 29.5762ZM41.3943 40.1846C42.739 40.1846 43.7673 39.5166 44.2947 38.418H44.3474V40H46.5359V27.3174H44.3474V32.2832H44.2947C43.7673 31.167 42.7039 30.4902 41.3855 30.4902C39.0476 30.4902 37.5447 32.3271 37.5447 35.333V35.3418C37.5447 38.3389 39.0388 40.1846 41.3943 40.1846ZM42.0535 38.3389C40.6472 38.3389 39.7771 37.1963 39.7771 35.3418V35.333C39.7771 33.4785 40.656 32.3359 42.0535 32.3359C43.3982 32.3359 44.3474 33.5137 44.3474 35.333V35.3418C44.3474 37.1699 43.407 38.3389 42.0535 38.3389ZM52.0757 40.1846C53.4204 40.1846 54.4487 39.5166 54.9761 38.418H55.0288V40H57.2173V27.3174H55.0288V32.2832H54.9761C54.4487 31.167 53.3853 30.4902 52.0669 30.4902C49.729 30.4902 48.2261 32.3271 48.2261 35.333V35.3418C48.2261 38.3389 49.7202 40.1846 52.0757 40.1846ZM52.7349 38.3389C51.3286 38.3389 50.4585 37.1963 50.4585 35.3418V35.333C50.4585 33.4785 51.3374 32.3359 52.7349 32.3359C54.0796 32.3359 55.0288 33.5137 55.0288 35.333V35.3418C55.0288 37.1699 54.0884 38.3389 52.7349 38.3389ZM66.6006 40.1846C67.0401 40.1846 67.4268 40.1406 67.6817 40.1055V38.4619C67.5323 38.4707 67.3653 38.4971 67.1543 38.4971C66.3545 38.4971 65.9502 38.207 65.9502 37.293V32.3711H67.6817V30.6836H65.9502V28.3193H63.7266V30.6836H62.4082V32.3711H63.7266V37.4775C63.7266 39.3936 64.6495 40.1846 66.6006 40.1846ZM73.3709 40.1846C76.1043 40.1846 77.8797 38.3652 77.8797 35.3418V35.3242C77.8797 32.3184 76.0779 30.4902 73.3621 30.4902C70.6551 30.4902 68.8621 32.3359 68.8621 35.3242V35.3418C68.8621 38.3564 70.6287 40.1846 73.3709 40.1846ZM73.3797 38.418C71.9822 38.418 71.0945 37.3018 71.0945 35.3418V35.3242C71.0945 33.3906 71.9998 32.2656 73.3621 32.2656C74.7508 32.2656 75.6473 33.3818 75.6473 35.3242V35.3418C75.6473 37.293 74.7596 38.418 73.3797 38.418ZM83.5892 40H91.6136V38.0928H85.8568V27.3174H83.5892V40ZM96.0108 40.1582C97.2413 40.1582 98.2784 39.543 98.8145 38.5674H98.8673V40H101.056V33.5928C101.056 31.7207 99.5528 30.4902 97.2237 30.4902C94.8595 30.4902 93.4268 31.7295 93.295 33.3818L93.2862 33.4873H95.3165L95.3341 33.4082C95.4747 32.7227 96.1075 32.2393 97.1446 32.2393C98.252 32.2393 98.8673 32.8105 98.8673 33.751V34.3926L96.4327 34.542C94.1739 34.6826 92.8907 35.6758 92.8907 37.3281V37.3457C92.8907 39.0068 94.1475 40.1582 96.0108 40.1582ZM95.0704 37.2578V37.249C95.0704 36.5107 95.6593 36.0449 96.7403 35.9746L98.8673 35.8428V36.5459C98.8673 37.6533 97.918 38.4883 96.6612 38.4883C95.7032 38.4883 95.0704 38.0225 95.0704 37.2578ZM106.701 40.1846C108.986 40.1846 110.612 39.0068 110.612 37.249V37.2402C110.612 35.8867 109.865 35.1309 107.94 34.7002L106.385 34.3574C105.418 34.1377 105.057 33.7861 105.057 33.25V33.2412C105.057 32.5557 105.664 32.1074 106.631 32.1074C107.65 32.1074 108.248 32.6523 108.345 33.3994L108.353 33.4697H110.392L110.384 33.373C110.305 31.7646 108.951 30.4902 106.631 30.4902C104.381 30.4902 102.895 31.6416 102.895 33.3467V33.3555C102.895 34.7354 103.792 35.6055 105.576 36.001L107.123 36.3438C108.09 36.5635 108.415 36.8799 108.415 37.4424V37.4512C108.415 38.1367 107.773 38.5674 106.71 38.5674C105.602 38.5674 104.996 38.0928 104.829 37.293L104.811 37.2139H102.658L102.667 37.293C102.86 39.0244 104.258 40.1846 106.701 40.1846ZM115.713 40.1846C116.152 40.1846 116.539 40.1406 116.794 40.1055V38.4619C116.644 38.4707 116.477 38.4971 116.266 38.4971C115.466 38.4971 115.062 38.207 115.062 37.293V32.3711H116.794V30.6836H115.062V28.3193H112.838V30.6836H111.52V32.3711H112.838V37.4775C112.838 39.3936 113.761 40.1846 115.713 40.1846ZM118.756 40H121.024V35.8076H123.643C126.209 35.8076 127.958 34.1025 127.958 31.5713V31.5537C127.958 29.0137 126.209 27.3174 123.643 27.3174H118.756V40ZM123.08 29.1719C124.706 29.1719 125.656 30.042 125.656 31.5625V31.5801C125.656 33.1006 124.706 33.9795 123.08 33.9795H121.024V29.1719H123.08ZM131.705 40.1582C132.936 40.1582 133.973 39.543 134.509 38.5674H134.562V40H136.75V33.5928C136.75 31.7207 135.247 30.4902 132.918 30.4902C130.554 30.4902 129.121 31.7295 128.989 33.3818L128.981 33.4873H131.011L131.028 33.4082C131.169 32.7227 131.802 32.2393 132.839 32.2393C133.946 32.2393 134.562 32.8105 134.562 33.751V34.3926L132.127 34.542C129.868 34.6826 128.585 35.6758 128.585 37.3281V37.3457C128.585 39.0068 129.842 40.1582 131.705 40.1582ZM130.765 37.2578V37.249C130.765 36.5107 131.354 36.0449 132.435 35.9746L134.562 35.8428V36.5459C134.562 37.6533 133.612 38.4883 132.356 38.4883C131.398 38.4883 130.765 38.0225 130.765 37.2578ZM142.395 40.1846C144.681 40.1846 146.307 39.0068 146.307 37.249V37.2402C146.307 35.8867 145.559 35.1309 143.635 34.7002L142.079 34.3574C141.112 34.1377 140.752 33.7861 140.752 33.25V33.2412C140.752 32.5557 141.358 32.1074 142.325 32.1074C143.345 32.1074 143.942 32.6523 144.039 33.3994L144.048 33.4697H146.087L146.078 33.373C145.999 31.7646 144.645 30.4902 142.325 30.4902C140.075 30.4902 138.59 31.6416 138.59 33.3467V33.3555C138.59 34.7354 139.486 35.6055 141.27 36.001L142.817 36.3438C143.784 36.5635 144.109 36.8799 144.109 37.4424V37.4512C144.109 38.1367 143.468 38.5674 142.404 38.5674C141.297 38.5674 140.69 38.0928 140.523 37.293L140.506 37.2139H138.352L138.361 37.293C138.555 39.0244 139.952 40.1846 142.395 40.1846ZM151.583 40.1846C153.868 40.1846 155.494 39.0068 155.494 37.249V37.2402C155.494 35.8867 154.747 35.1309 152.822 34.7002L151.266 34.3574C150.299 34.1377 149.939 33.7861 149.939 33.25V33.2412C149.939 32.5557 150.546 32.1074 151.512 32.1074C152.532 32.1074 153.13 32.6523 153.226 33.3994L153.235 33.4697H155.274L155.265 33.373C155.186 31.7646 153.833 30.4902 151.512 30.4902C149.262 30.4902 147.777 31.6416 147.777 33.3467V33.3555C147.777 34.7354 148.673 35.6055 150.458 36.001L152.005 36.3438C152.971 36.5635 153.297 36.8799 153.297 37.4424V37.4512C153.297 38.1367 152.655 38.5674 151.591 38.5674C150.484 38.5674 149.878 38.0928 149.711 37.293L149.693 37.2139H147.54L147.548 37.293C147.742 39.0244 149.139 40.1846 151.583 40.1846ZM159.452 35.9658H161.499V35.5264C161.499 34.665 161.825 34.1992 162.976 33.5312C164.171 32.8193 164.839 31.8789 164.839 30.543V30.5342C164.839 28.5918 163.222 27.2119 160.823 27.2119C158.212 27.2119 156.815 28.7236 156.718 30.6924L156.709 30.7891H158.775L158.784 30.71C158.863 29.708 159.575 29.0049 160.708 29.0049C161.807 29.0049 162.554 29.6729 162.554 30.6133V30.6221C162.554 31.4834 162.185 31.958 161.095 32.6172C159.882 33.3291 159.39 34.1289 159.452 35.3506V35.9658ZM160.506 40.0967C161.218 40.0967 161.781 39.5518 161.781 38.8574C161.781 38.1543 161.218 37.6182 160.506 37.6182C159.794 37.6182 159.223 38.1543 159.223 38.8574C159.223 39.5518 159.794 40.0967 160.506 40.0967Z" fill="#40526D"/>
    <path fill-rule="evenodd" clip-rule="evenodd" d="M121.729 150.576C121.729 150.225 122.014 149.94 122.365 149.94C122.716 149.94 123 150.225 123 150.576V160.809C123 161.16 122.716 161.444 122.365 161.444C122.014 161.444 121.729 161.16 121.729 160.809V150.576Z" fill="#D32D27"/>
    <path fill-rule="evenodd" clip-rule="evenodd" d="M101.392 158.121C102.585 158.121 103.553 157.148 103.553 155.948C103.553 154.748 102.585 153.775 101.392 153.775C100.198 153.775 99.231 154.748 99.231 155.948C99.231 157.148 100.198 158.121 101.392 158.121Z" fill="#D32D27"/>
    <path fill-rule="evenodd" clip-rule="evenodd" d="M108.637 158.121C109.83 158.121 110.798 157.148 110.798 155.948C110.798 154.748 109.83 153.775 108.637 153.775C107.444 153.775 106.476 154.748 106.476 155.948C106.476 157.148 107.444 158.121 108.637 158.121Z" fill="#D32D27"/>
    <path fill-rule="evenodd" clip-rule="evenodd" d="M115.882 158.121C117.075 158.121 118.043 157.148 118.043 155.948C118.043 154.748 117.075 153.775 115.882 153.775C114.689 153.775 113.721 154.748 113.721 155.948C113.721 157.148 114.689 158.121 115.882 158.121Z" fill="#D32D27"/>
    <path fill-rule="evenodd" clip-rule="evenodd" d="M95.7841 158.046C95.7931 158.561 95.703 159.013 95.514 159.403C95.3246 159.793 95.0594 160.116 94.7177 160.373C94.3758 160.63 93.9711 160.824 93.503 160.955C93.0351 161.085 92.5267 161.155 91.9783 161.165C91.6647 161.17 91.3314 161.16 90.9782 161.134C90.625 161.108 90.2715 161.066 89.9179 161.008C89.564 160.95 89.223 160.869 88.8947 160.765C88.5662 160.661 88.2638 160.534 87.9875 160.384C87.7903 160.285 87.7418 160.131 87.8426 159.923L88.2926 158.833C88.3557 158.716 88.4194 158.641 88.4841 158.608C88.5487 158.575 88.653 158.589 88.7976 158.651C89.2704 158.862 89.7942 159.023 90.3697 159.135C90.9448 159.248 91.4541 159.3 91.8969 159.292C92.444 159.283 92.8525 159.169 93.1223 158.952C93.3921 158.735 93.5241 158.459 93.5183 158.124C93.5117 157.751 93.3307 157.458 92.9752 157.245C92.6197 157.032 92.0881 156.803 91.38 156.558C90.8424 156.374 90.3734 156.189 89.9728 156.002C89.5721 155.816 89.2395 155.606 88.9748 155.372C88.7099 155.139 88.5069 154.875 88.3647 154.581C88.2228 154.288 88.1485 153.948 88.1418 153.561C88.1343 153.136 88.2064 152.745 88.3575 152.389C88.5089 152.032 88.7369 151.722 89.0413 151.459C89.3457 151.196 89.7257 150.987 90.1818 150.83C90.6373 150.674 91.1647 150.591 91.7641 150.581C92.3112 150.571 92.8591 150.61 93.4081 150.697C93.9567 150.784 94.4869 150.926 94.9985 151.123C95.1036 151.173 95.1667 151.236 95.1874 151.313C95.2085 151.39 95.2065 151.48 95.1824 151.584L94.7523 152.693C94.715 152.796 94.6673 152.855 94.6089 152.869C94.5503 152.883 94.4688 152.871 94.3639 152.835C93.8529 152.663 93.4042 152.549 93.0192 152.491C92.6336 152.433 92.2193 152.408 91.7766 152.416C91.2947 152.424 90.9445 152.53 90.7268 152.734C90.5086 152.937 90.402 153.161 90.4063 153.406C90.4094 153.586 90.4479 153.74 90.5219 153.868C90.5956 153.995 90.7118 154.112 90.87 154.219C91.0284 154.326 91.2355 154.435 91.4913 154.546C91.7475 154.658 92.059 154.775 92.4261 154.897C92.8455 155.044 93.2551 155.202 93.6558 155.368C94.056 155.535 94.4114 155.739 94.7219 155.978C95.0321 156.217 95.2847 156.502 95.4794 156.834C95.6742 157.166 95.7758 157.57 95.7841 158.046Z" fill="#D32D27"/>
    <path fill-rule="evenodd" clip-rule="evenodd" d="M86.7439 159.403C86.5546 159.793 86.2894 160.116 85.9475 160.373C85.6056 160.63 85.2011 160.824 84.733 160.955C84.2651 161.085 83.7567 161.155 83.2083 161.165C82.8947 161.17 82.5613 161.16 82.2081 161.134C81.8549 161.108 81.5015 161.066 81.1477 161.008C80.7941 160.95 80.453 160.869 80.1247 160.765C79.7962 160.661 79.4937 160.534 79.2175 160.384C79.0203 160.285 78.9718 160.131 79.0726 159.923L79.5226 158.833C79.5857 158.716 79.6494 158.641 79.7141 158.608C79.7787 158.575 79.883 158.589 80.0276 158.651C80.5004 158.862 81.0242 159.023 81.5997 159.135C82.1748 159.248 82.6839 159.3 83.1269 159.292C83.674 159.283 84.0825 159.169 84.3523 158.952C84.6221 158.735 84.7541 158.459 84.7483 158.124C84.7417 157.751 84.5607 157.458 84.2052 157.245C83.8496 157.032 83.3179 156.803 82.61 156.558C82.0724 156.374 81.6034 156.189 81.2027 156.002C80.8021 155.816 80.4695 155.606 80.2048 155.372C79.9399 155.139 79.7369 154.875 79.5949 154.581C79.453 154.288 79.3785 153.948 79.3718 153.561C79.3643 153.136 79.4362 152.745 79.5876 152.389C79.7391 152.032 79.9669 151.722 80.2713 151.459C80.5757 151.196 80.9556 150.987 81.4116 150.83C81.8673 150.674 82.3947 150.591 82.9941 150.581C83.5412 150.571 84.0891 150.61 84.6379 150.697C85.1867 150.784 85.7169 150.926 86.2285 151.123C86.3334 151.173 86.3967 151.236 86.4174 151.313C86.4383 151.39 86.4365 151.48 86.4126 151.584L85.9823 152.693C85.9452 152.796 85.8971 152.855 85.8389 152.869C85.7805 152.883 85.6988 152.871 85.5939 152.835C85.0827 152.663 84.6343 152.549 84.2491 152.491C83.8636 152.433 83.4493 152.408 83.0066 152.416C82.5245 152.424 82.1747 152.53 81.9568 152.734C81.7386 152.937 81.632 153.161 81.6363 153.406C81.6394 153.586 81.6778 153.74 81.7519 153.868C81.8256 153.995 81.9418 154.112 82.1 154.219C82.2582 154.326 82.4655 154.435 82.7215 154.546C82.9773 154.658 83.2889 154.775 83.6559 154.897C84.0753 155.044 84.4851 155.202 84.8858 155.368C85.286 155.535 85.6415 155.739 85.9517 155.978C86.2621 156.217 86.5147 156.502 86.7094 156.834C86.904 157.166 87.006 157.57 87.0143 158.046C87.0233 158.561 86.9329 159.013 86.7439 159.403Z" fill="#D32D27"/>
    <path fill-rule="evenodd" clip-rule="evenodd" d="M77.7239 160.528C77.9714 160.41 78.0952 160.194 78.0952 159.879V153.987C78.0952 152.835 77.7793 151.957 77.1474 151.355C76.5156 150.753 75.5223 150.451 74.1674 150.451C73.5942 150.451 72.4393 150.641 71.8922 150.85C71.7228 150.916 71.6642 151.053 71.7163 151.263L71.9899 152.382C72.0159 152.5 72.0615 152.572 72.1267 152.598C72.1918 152.624 72.296 152.618 72.4393 152.579C72.765 152.474 73.3532 152.357 73.7962 152.357C74.213 152.357 74.5517 152.399 74.8123 152.484C75.0728 152.569 75.278 152.691 75.4278 152.848C75.5777 153.005 75.6786 153.188 75.7307 153.398C75.7828 153.607 75.8089 153.836 75.8089 154.085V154.419H73.6203C72.8386 154.419 72.1775 154.517 71.6369 154.714C71.0962 154.91 70.6566 155.169 70.3179 155.49C69.9791 155.81 69.7349 156.184 69.5851 156.609C69.4353 157.035 69.3604 157.477 69.3604 157.935C69.3604 158.38 69.4255 158.802 69.5558 159.202C69.686 159.601 69.9173 159.948 70.2495 160.243C70.5817 160.537 71.0311 160.773 71.5978 160.95C72.1645 161.127 72.8777 161.215 73.7375 161.215C74.0502 161.215 74.3791 161.205 74.7244 161.186C75.0696 161.166 75.4181 161.13 75.7698 161.078C76.1215 161.025 76.4635 160.953 76.7957 160.862C77.1279 160.77 77.4373 160.659 77.7239 160.528ZM73.9134 156.167H75.7894V159.055C75.62 159.12 75.4344 159.172 75.2324 159.212C75.0305 159.251 74.8384 159.284 74.656 159.31C74.4736 159.336 74.301 159.352 74.1381 159.359C73.9753 159.366 73.8483 159.369 73.7571 159.369C73.1318 159.369 72.6302 159.257 72.2524 159.035C71.8746 158.812 71.6857 158.419 71.6857 157.856C71.6857 157.464 71.7606 157.156 71.9105 156.933C72.0603 156.711 72.2492 156.54 72.4771 156.422C72.7051 156.305 72.9461 156.233 73.2002 156.206C73.4542 156.18 73.6919 156.167 73.9134 156.167Z" fill="#D32D27"/>
    <path fill-rule="evenodd" clip-rule="evenodd" d="M63.4666 160.771C63.4666 160.965 63.4355 161.086 63.3737 161.134C63.3118 161.183 63.0574 161.207 62.8652 161.207H61.5729C61.4215 161.207 61.3046 161.179 61.2222 161.124C61.1399 161.069 61.0986 160.951 61.0986 160.771L61.0986 148.45C61.0986 148.293 61.134 148.024 61.1613 147.897C61.201 147.712 61.1987 147.647 61.2964 147.528C61.4013 147.401 61.5613 147.314 61.7768 147.268C61.9008 147.241 61.9654 147.268 62.1261 147.268H66.0519C66.7391 147.268 67.3679 147.375 67.9386 147.589C68.5089 147.804 68.9971 148.108 69.4026 148.502C69.8079 148.896 70.1243 149.366 70.3511 149.913C70.5779 150.459 70.6914 151.057 70.6914 151.707C70.6914 152.08 70.6327 152.526 70.5161 153.045C70.3992 153.564 70.1655 154.065 69.815 154.549C69.4645 155.033 68.9729 155.445 68.3408 155.783C67.7082 156.122 66.8765 156.292 65.8455 156.292H63.4666L63.4666 160.771ZM68.2213 151.105C68.1455 150.829 68.0151 150.576 67.8295 150.348C67.6439 150.12 67.3863 149.93 67.0561 149.778C66.7264 149.626 66.3069 149.549 65.7985 149.549H63.3359V154.155H65.8397C66.7058 154.155 67.3379 153.94 67.7368 153.512C68.1353 153.083 68.3348 152.537 68.3348 151.873C68.3348 151.638 68.2967 151.382 68.2213 151.105Z" fill="#D32D27"/>
    <path fill-rule="evenodd" clip-rule="evenodd" d="M58.9523 160.773C58.5091 160.917 58.066 161.003 57.6234 161.029C57.1803 161.055 56.835 161.068 56.5877 161.068C55.5192 161.068 54.7634 160.839 54.3208 160.38C53.8777 159.922 53.6564 159.22 53.6564 158.277L53.7073 152.696H52.2689C52.1365 152.696 52.0683 152.662 52.0136 152.603C51.9589 152.545 51.9308 152.488 51.9563 152.392C51.9817 152.296 52.3379 151.351 52.3379 151.351C52.3593 151.317 52.4552 151.096 52.4788 151.065C52.5179 151.012 52.5749 150.976 52.7293 150.976H53.6912V149.073C53.6912 148.813 53.8104 148.767 53.8691 148.714C53.9277 148.662 54.0284 148.61 54.1721 148.557L55.5715 148.165C55.6756 148.139 55.76 148.148 55.8256 148.194C55.8905 148.24 55.9233 148.335 55.9233 148.479V150.976H57.8872C58.0303 150.976 58.1183 151.006 58.1509 151.065C58.1833 151.123 58.1998 151.199 58.1998 151.291L58.1998 152.362C58.1998 152.48 58.1833 152.565 58.1509 152.617C58.1183 152.67 58.0303 152.696 57.8872 152.696H55.9233V157.982C55.9233 158.401 56.021 158.689 56.2164 158.847C56.4118 159.004 56.7113 159.083 57.1153 159.083C57.1935 159.083 57.2975 159.079 57.428 159.073C57.5581 159.066 57.6917 159.056 57.8285 159.043C57.9653 159.03 58.1021 159.014 58.2389 158.994C58.3757 158.975 58.4896 158.958 58.581 158.945C58.7111 158.919 58.7959 158.922 58.835 158.955C58.8741 158.988 58.9 159.05 58.9132 159.142L59.1282 160.4C59.1408 160.479 59.1442 160.547 59.1378 160.606C59.1311 160.665 59.0695 160.721 58.9523 160.773Z" fill="#1B283C"/>
    <path fill-rule="evenodd" clip-rule="evenodd" d="M51.6782 157.918C51.6872 158.433 51.597 158.886 51.4078 159.275C51.2186 159.665 50.9534 159.988 50.6115 160.246C50.2698 160.503 49.8652 160.697 49.3971 160.827C48.929 160.958 48.4207 161.028 47.8723 161.037C47.5588 161.043 47.2254 161.032 46.8722 161.006C46.519 160.98 46.1655 160.938 45.8118 160.88C45.4582 160.822 45.1171 160.741 44.7888 160.637C44.4603 160.533 44.1578 160.406 43.8816 160.257C43.6844 160.157 43.6359 160.003 43.7367 159.795L44.1867 158.706C44.2496 158.588 44.3134 158.513 44.3782 158.48C44.4428 158.447 44.5471 158.461 44.6917 158.523C45.1644 158.734 45.6883 158.895 46.2637 159.008C46.8388 159.12 47.3479 159.172 47.791 159.164C48.3381 159.155 48.7465 159.041 49.0164 158.824C49.2862 158.607 49.4182 158.331 49.4123 157.996C49.4058 157.623 49.2248 157.33 48.8692 157.117C48.5137 156.904 47.982 156.675 47.2741 156.43C46.7364 156.246 46.2675 156.061 45.8668 155.875C45.4661 155.688 45.1335 155.479 44.8688 155.245C44.604 155.011 44.4009 154.748 44.2588 154.454C44.117 154.16 44.0426 153.82 44.0358 153.433C44.0284 153.008 44.1003 152.618 44.2517 152.261C44.4031 151.904 44.6309 151.594 44.9353 151.331C45.2397 151.068 45.6197 150.859 46.0756 150.702C46.5314 150.547 47.0587 150.463 47.6581 150.453C48.2052 150.443 48.7531 150.482 49.3019 150.569C49.8507 150.656 50.3809 150.798 50.8925 150.995C50.9975 151.045 51.0605 151.108 51.0814 151.185C51.1023 151.262 51.1006 151.352 51.0765 151.456L50.6464 152.565C50.6091 152.669 50.5612 152.727 50.5029 152.741C50.4446 152.755 50.3628 152.744 50.2579 152.707C49.7468 152.535 49.2984 152.421 48.9132 152.363C48.5276 152.305 48.1134 152.28 47.6707 152.288C47.1885 152.296 46.8388 152.403 46.6208 152.606C46.4027 152.81 46.296 153.034 46.3003 153.278C46.3035 153.458 46.3419 153.612 46.416 153.74C46.4897 153.867 46.6058 153.984 46.7641 154.091C46.9223 154.198 47.1295 154.307 47.3856 154.418C47.6414 154.53 47.953 154.647 48.32 154.769C48.7393 154.917 49.1492 155.074 49.5499 155.24C49.95 155.407 50.3054 155.611 50.6158 155.85C50.926 156.089 51.1787 156.375 51.3737 156.706C51.568 157.038 51.6698 157.442 51.6782 157.918Z" fill="#1B283C"/>
    <path fill-rule="evenodd" clip-rule="evenodd" d="M42.7597 159.76C42.7597 160.075 42.6357 160.291 42.3884 160.409C42.1018 160.54 41.7924 160.652 41.4602 160.743C41.128 160.835 40.7859 160.907 40.4342 160.96C40.0824 161.012 39.7338 161.048 39.3886 161.068C39.0434 161.087 38.7145 161.097 38.4018 161.097C37.542 161.097 36.8288 161.009 36.2621 160.832C35.6953 160.655 35.2459 160.419 34.9137 160.124C34.5813 159.829 34.3499 159.482 34.2198 159.082C34.0894 158.682 34.0244 158.26 34.0244 157.814C34.0244 157.355 34.0992 156.913 34.2492 156.487C34.3987 156.061 34.6431 155.688 34.982 155.366C35.3207 155.045 35.7603 154.786 36.3011 154.59C36.8414 154.393 37.5029 154.295 38.2846 154.295H40.4733V153.961C40.4733 153.712 40.447 153.482 40.3951 153.273C40.3428 153.063 40.2417 152.879 40.0923 152.722C39.9423 152.565 39.7372 152.444 39.4766 152.358C39.2159 152.273 38.8772 152.231 38.4604 152.231C38.0175 152.231 37.5353 152.27 37.0143 152.348C36.493 152.427 36.0696 152.519 35.7441 152.624C35.6006 152.663 35.4964 152.67 35.4314 152.643C35.3661 152.617 35.3207 152.545 35.2946 152.427L35.0211 151.307C34.9688 151.097 35.0274 150.959 35.1969 150.894C35.7441 150.684 36.3432 150.537 36.9948 150.451C37.6462 150.366 38.2583 150.324 38.8317 150.324C40.1866 150.324 41.1799 150.625 41.812 151.228C42.4437 151.831 42.7597 152.709 42.7597 153.862V159.76ZM40.4537 156.045H38.5777C38.356 156.045 38.1185 156.058 37.8645 156.084C37.6105 156.11 37.3691 156.182 37.1415 156.3C36.9133 156.418 36.7244 156.589 36.5747 156.811C36.4247 157.034 36.3499 157.342 36.3499 157.735C36.3499 158.299 36.5386 158.692 36.9166 158.915C37.2944 159.138 37.796 159.249 38.4214 159.249C38.5124 159.249 38.6395 159.246 38.8025 159.239C38.9652 159.233 39.1377 159.217 39.3203 159.19C39.5027 159.164 39.6947 159.131 39.8967 159.092C40.0986 159.053 40.2844 159 40.4537 158.935V156.045Z" fill="#1B283C"/>
    <path fill-rule="evenodd" clip-rule="evenodd" d="M25.116 147.085C25.1931 147.028 25.3161 147 25.4847 147H27.0654C27.2622 147 27.3954 147.025 27.4659 147.074C27.5359 147.124 27.5713 147.247 27.5713 147.445V157.26C27.5713 157.812 27.7084 158.201 27.9824 158.427C28.2563 158.653 28.6319 158.766 29.1098 158.766L32.8044 158.766C32.9587 158.766 33.1361 158.779 33.2419 158.869C33.3477 158.958 33.3236 159.013 33.3937 159.242C33.4637 159.47 33.6041 160.564 33.6041 160.564C33.6041 160.676 33.6041 160.759 33.5316 160.834C33.4591 160.909 33.3084 160.97 33.1875 161.003C33.0666 161.037 32.8339 161.056 32.4903 161.056C32.1466 161.056 28.7094 161.056 28.7094 161.056C27.9787 161.056 27.3744 160.95 26.8968 160.738C26.4191 160.526 26.0397 160.243 25.7587 159.889C25.4775 159.536 25.281 159.134 25.1686 158.681C25.056 158.229 25 157.755 25 157.26V147.445C25 147.262 25.0385 147.142 25.116 147.085Z" fill="#1B283C"/>
    <path d="M219.368 161H221.07V154.205H221.18L226.026 161H227.551V151.136H225.855V157.931H225.746L220.899 151.136H219.368V161ZM233.04 161.15C235.275 161.15 236.636 159.688 236.636 157.268V157.254C236.636 154.848 235.269 153.385 233.04 153.385C230.818 153.385 229.444 154.854 229.444 157.254V157.268C229.444 159.688 230.798 161.15 233.04 161.15ZM233.04 159.77C231.857 159.77 231.181 158.847 231.181 157.274V157.261C231.181 155.688 231.857 154.759 233.04 154.759C234.216 154.759 234.893 155.688 234.893 157.261V157.274C234.893 158.847 234.223 159.77 233.04 159.77ZM241.284 161.034C241.612 161.034 241.927 161.007 242.173 160.959V159.646C241.968 159.667 241.838 159.674 241.599 159.674C240.888 159.674 240.594 159.359 240.594 158.614V154.848H242.173V153.528H240.594V151.696H238.864V153.528H237.702V154.848H238.864V159.018C238.864 160.46 239.568 161.034 241.284 161.034ZM247.601 161H249.303V156.646C249.303 155.524 249.932 154.813 250.943 154.813C251.976 154.813 252.447 155.401 252.447 156.563V161H254.149V156.167C254.149 154.39 253.24 153.385 251.572 153.385C250.492 153.385 249.774 153.87 249.419 154.67H249.303V153.528H247.601V161ZM259.386 161.15C261.621 161.15 262.981 159.688 262.981 157.268V157.254C262.981 154.848 261.614 153.385 259.386 153.385C257.164 153.385 255.79 154.854 255.79 157.254V157.268C255.79 159.688 257.144 161.15 259.386 161.15ZM259.386 159.77C258.203 159.77 257.526 158.847 257.526 157.274V157.261C257.526 155.688 258.203 154.759 259.386 154.759C260.562 154.759 261.238 155.688 261.238 157.261V157.274C261.238 158.847 260.568 159.77 259.386 159.77ZM265.812 161H267.575L269.024 155.586H269.141L270.597 161H272.381L274.404 153.528H272.716L271.479 159.141H271.362L269.913 153.528H268.293L266.857 159.141H266.741L265.497 153.528H263.788L265.812 161Z" fill="#40526D"/>
    <path d="M299 142C299 139.791 300.791 138 303 138H389C391.209 138 393 139.791 393 142V170C393 172.209 391.209 174 389 174H303C300.791 174 299 172.209 299 170V142Z" fill="#D32D27"/>
    <path d="M315.566 161H317.412L318.232 158.45H321.883L322.71 161H324.556L321.056 151.136H319.066L315.566 161ZM320.003 152.968H320.119L321.445 157.09H318.677L320.003 152.968ZM328.356 161.123C329.409 161.123 330.216 160.645 330.626 159.831H330.742V161H332.451V150.637H330.742V154.718H330.626C330.236 153.911 329.382 153.405 328.356 153.405C326.463 153.405 325.294 154.882 325.294 157.261V157.274C325.294 159.64 326.483 161.123 328.356 161.123ZM328.89 159.688C327.728 159.688 327.023 158.778 327.023 157.274V157.261C327.023 155.757 327.734 154.841 328.89 154.841C330.045 154.841 330.77 155.764 330.77 157.261V157.274C330.77 158.771 330.052 159.688 328.89 159.688ZM337.284 161.123C338.337 161.123 339.144 160.645 339.554 159.831H339.67V161H341.379V150.637H339.67V154.718H339.554C339.164 153.911 338.31 153.405 337.284 153.405C335.391 153.405 334.222 154.882 334.222 157.261V157.274C334.222 159.64 335.411 161.123 337.284 161.123ZM337.817 159.688C336.655 159.688 335.951 158.778 335.951 157.274V157.261C335.951 155.757 336.662 154.841 337.817 154.841C338.973 154.841 339.697 155.764 339.697 157.261V157.274C339.697 158.771 338.979 159.688 337.817 159.688ZM350.457 161.15C352.351 161.15 353.451 160.132 353.697 158.601L353.711 158.546L352.104 158.553L352.091 158.58C351.879 159.366 351.339 159.77 350.457 159.77C349.302 159.77 348.611 158.84 348.611 157.254V157.24C348.611 155.675 349.295 154.759 350.457 154.759C351.387 154.759 351.94 155.278 352.098 156.003L352.104 156.023H353.711V155.996C353.52 154.451 352.371 153.385 350.45 153.385C348.201 153.385 346.882 154.827 346.882 157.24V157.254C346.882 159.694 348.208 161.15 350.457 161.15ZM357.368 161.123C358.353 161.123 359.146 160.699 359.556 159.975H359.672V161H361.354V155.894C361.354 154.314 360.273 153.385 358.353 153.385C356.575 153.385 355.372 154.219 355.208 155.477L355.201 155.538H356.808L356.814 155.511C356.985 155.019 357.491 154.738 358.271 154.738C359.187 154.738 359.672 155.148 359.672 155.894V156.536L357.751 156.652C355.933 156.762 354.914 157.541 354.914 158.874V158.888C354.914 160.248 355.946 161.123 357.368 161.123ZM356.596 158.806V158.792C356.596 158.177 357.04 157.828 357.99 157.767L359.672 157.657V158.259C359.672 159.147 358.913 159.817 357.888 159.817C357.136 159.817 356.596 159.441 356.596 158.806ZM363.397 161H365.1V156.659C365.1 155.593 365.845 154.916 366.979 154.916C367.273 154.916 367.554 154.957 367.827 155.012V153.487C367.663 153.439 367.396 153.405 367.137 153.405C366.152 153.405 365.469 153.877 365.216 154.677H365.1V153.528H363.397V161ZM371.724 161.123C372.776 161.123 373.583 160.645 373.993 159.831H374.109V161H375.818V150.637H374.109V154.718H373.993C373.604 153.911 372.749 153.405 371.724 153.405C369.83 153.405 368.661 154.882 368.661 157.261V157.274C368.661 159.64 369.851 161.123 371.724 161.123ZM372.257 159.688C371.095 159.688 370.391 158.778 370.391 157.274V157.261C370.391 155.757 371.102 154.841 372.257 154.841C373.412 154.841 374.137 155.764 374.137 157.261V157.274C374.137 158.771 373.419 159.688 372.257 159.688Z" fill="white"/>
    <defs>
        <filter id="filter0_d" x="0" y="0" width="418" height="202" filterUnits="userSpaceOnUse" color-interpolation-filters="sRGB">
            <feFlood flood-opacity="0" result="BackgroundImageFix"/>
            <feColorMatrix in="SourceAlpha" type="matrix" values="0 0 0 0 0 0 0 0 0 0 0 0 0 0 0 0 0 0 127 0"/>
            <feOffset dy="3"/>
            <feGaussianBlur stdDeviation="4.5"/>
            <feColorMatrix type="matrix" values="0 0 0 0 0 0 0 0 0 0 0 0 0 0 0 0 0 0 0.3 0"/>
            <feBlend mode="normal" in2="BackgroundImageFix" result="effect1_dropShadow"/>
            <feBlend mode="normal" in="SourceGraphic" in2="effect1_dropShadow" result="shape"/>
        </filter>
    </defs>
</svg>
