<svg width="60" height="40" viewBox="0 0 60 40" fill="none" xmlns="http://www.w3.org/2000/svg">
<path d="M48.1042 2.10416L50.4795 4.47948" stroke="#CACCEE" stroke-linecap="round"/>
<path d="M50.3958 2.10416L48.0205 4.47948" stroke="#CACCEE" stroke-linecap="round"/>
<path d="M2 5H4.5V7.5H2V5Z" stroke="#CACCEE" stroke-linecap="round" stroke-linejoin="round"/>
<path fill-rule="evenodd" clip-rule="evenodd" d="M54 5.76758L55.7678 3.99981L57.5355 5.76758L55.7678 7.53534L54 5.76758Z" stroke="#CACCEE" stroke-linecap="round" stroke-linejoin="round"/>
<path fill-rule="evenodd" clip-rule="evenodd" d="M53.25 13.5C53.9404 13.5 54.5 12.9404 54.5 12.25C54.5 11.5596 53.9404 11 53.25 11C52.5596 11 52 11.5596 52 12.25C52 12.9404 52.5596 13.5 53.25 13.5Z" stroke="#CACCEE"/>
<path d="M43.9876 32.4806C44.0032 32.5542 44.0041 32.6302 43.9902 32.7041C43.9764 32.7781 43.9482 32.8486 43.9071 32.9116C43.866 32.9747 43.813 33.029 43.7509 33.0715C43.6888 33.114 43.619 33.1439 43.5454 33.1594L26.879 36.6786L20.5139 6.53147L37.1803 3.01235C37.2539 2.99681 37.3298 2.99593 37.4038 3.00974C37.4777 3.02356 37.5482 3.05181 37.6113 3.09287C37.6743 3.13394 37.7287 3.18702 37.7712 3.24909C37.8137 3.31116 37.8436 3.38099 37.8591 3.45461L43.9876 32.4806Z" fill="white"/>
<path d="M26.879 36.6783L23.6956 37.3509C23.3983 37.4137 23.0883 37.3558 22.8337 37.1901C22.5791 37.0243 22.4008 36.7642 22.3379 36.467L16.4437 8.56206C16.4126 8.41484 16.4108 8.26293 16.4385 8.11502C16.4661 7.96711 16.5226 7.82609 16.6047 7.70001C16.6869 7.57394 16.793 7.46528 16.9172 7.38023C17.0413 7.29519 17.181 7.23543 17.3282 7.20437L20.5139 6.53125L26.879 36.6783Z" fill="white"/>
<path d="M16.9833 11.1159C17.1703 10.9485 17.3975 10.8325 17.6427 10.7791L21.2517 10.0177L20.5156 6.53125L17.3299 7.20437C17.1827 7.23543 17.043 7.29519 16.9189 7.38023C16.7947 7.46528 16.6886 7.57394 16.6064 7.70001C16.5243 7.82609 16.4678 7.96711 16.4402 8.11502C16.4125 8.26293 16.4143 8.41484 16.4454 8.56206L16.9833 11.1159Z" fill="#B5D9F1"/>
<path d="M26.879 36.6783L23.6956 37.3509C23.3983 37.4137 23.0883 37.3558 22.8337 37.1901C22.5791 37.0243 22.4008 36.7642 22.3379 36.467L16.4437 8.56206C16.4126 8.41484 16.4108 8.26293 16.4385 8.11502C16.4661 7.96711 16.5226 7.82609 16.6047 7.70001C16.6869 7.57394 16.793 7.46528 16.9172 7.38023C17.0413 7.29519 17.181 7.23543 17.3282 7.20437L20.5139 6.53125L26.879 36.6783Z" stroke="#264887" stroke-width="1.25" stroke-linecap="round" stroke-linejoin="round"/>
<path d="M30.7292 16.0778C30.9017 15.9561 31.0485 15.8015 31.1611 15.6229C31.2738 15.4444 31.35 15.2453 31.3856 15.0373C31.4211 14.8292 31.4153 14.6161 31.3683 14.4103C31.3213 14.2044 31.2342 14.0099 31.1119 13.8379L29.717 11.8701C29.47 11.523 29.0955 11.2879 28.6756 11.2163C28.2557 11.1447 27.8245 11.2424 27.4765 11.488L26.3972 12.2533C25.9429 12.5742 25.6137 13.0426 25.4658 13.5788C25.318 14.1151 25.3604 14.686 25.586 15.1944C27.6042 19.7418 30.5114 23.8396 34.1366 27.2469C34.5418 27.6271 35.0659 27.8556 35.6202 27.8938C36.1745 27.932 36.725 27.7776 37.1785 27.4566L38.2567 26.6924C38.429 26.5703 38.5755 26.4155 38.6879 26.2367C38.8003 26.058 38.8764 25.8588 38.9119 25.6506C38.9473 25.4425 38.9414 25.2294 38.8944 25.0235C38.8475 24.8176 38.7604 24.623 38.6382 24.4508L37.2433 22.487C37.1212 22.3146 36.9664 22.1681 36.7876 22.0556C36.6089 21.9431 36.4097 21.867 36.2015 21.8316C35.9934 21.7961 35.7802 21.8021 35.5743 21.8491C35.3684 21.8961 35.1738 21.9832 35.0017 22.1055L34.3474 22.5701C32.7315 20.7047 31.3001 18.6872 30.0733 16.5458L30.7292 16.0778Z" fill="#264887"/>
<path d="M15.322 12.1266C15.0371 12.1851 14.7407 12.1285 14.4974 11.9691C14.2541 11.8098 14.0839 11.5606 14.0238 11.2761C13.9637 10.9915 14.0186 10.6948 14.1767 10.4506C14.3347 10.2065 14.5829 10.0348 14.8671 9.97318L17.7378 9.36823C18.0226 9.30969 18.3191 9.3663 18.5623 9.52567C18.8056 9.68504 18.9759 9.93422 19.036 10.2188C19.0961 10.5033 19.0411 10.8 18.8831 11.0442C18.7251 11.2883 18.4768 11.46 18.1926 11.5216L15.322 12.1266Z" fill="white" stroke="#264887" stroke-width="1.25" stroke-linecap="round" stroke-linejoin="round"/>
<path d="M16.5347 17.8689C16.3926 17.9007 16.2457 17.9039 16.1023 17.8784C15.9589 17.8529 15.8221 17.7992 15.6996 17.7204C15.5772 17.6417 15.4716 17.5394 15.3889 17.4195C15.3063 17.2996 15.2482 17.1645 15.2182 17.0221C15.1881 16.8796 15.1866 16.7326 15.2138 16.5895C15.241 16.4465 15.2963 16.3103 15.3765 16.1887C15.4567 16.0672 15.5602 15.9628 15.6811 15.8816C15.8019 15.8004 15.9377 15.7439 16.0805 15.7155L18.9517 15.1094C19.0938 15.0777 19.2408 15.0745 19.3841 15.1C19.5275 15.1255 19.6643 15.1792 19.7868 15.258C19.9093 15.3367 20.0149 15.439 20.0975 15.5589C20.1801 15.6788 20.2382 15.8139 20.2682 15.9563C20.2983 16.0988 20.2998 16.2458 20.2726 16.3889C20.2454 16.5319 20.1901 16.6681 20.1099 16.7897C20.0297 16.9112 19.9262 17.0156 19.8054 17.0968C19.6845 17.178 19.5488 17.2345 19.406 17.2629L16.5347 17.8689Z" fill="white" stroke="#264887" stroke-width="1.25" stroke-linecap="round" stroke-linejoin="round"/>
<path d="M17.7469 23.6117C17.4621 23.6702 17.1656 23.6136 16.9224 23.4543C16.6791 23.2949 16.5088 23.0457 16.4487 22.7612C16.3886 22.4766 16.4436 22.1799 16.6016 21.9357C16.7596 21.6916 17.0079 21.52 17.2921 21.4583L20.1633 20.8516C20.4482 20.7931 20.7446 20.8497 20.9879 21.0091C21.2311 21.1684 21.4014 21.4176 21.4615 21.7021C21.5216 21.9867 21.4666 22.2834 21.3086 22.5276C21.1506 22.7717 20.9023 22.9434 20.6181 23.005L17.7469 23.6117Z" fill="white" stroke="#264887" stroke-width="1.25" stroke-linecap="round" stroke-linejoin="round"/>
<path d="M18.9591 29.3534C18.817 29.3851 18.67 29.3883 18.5267 29.3628C18.3833 29.3373 18.2464 29.2836 18.124 29.2049C18.0015 29.1261 17.8959 29.0238 17.8133 28.9039C17.7306 28.784 17.6726 28.649 17.6426 28.5065C17.6125 28.364 17.611 28.217 17.6382 28.074C17.6654 27.9309 17.7207 27.7947 17.8009 27.6732C17.8811 27.5516 17.9846 27.4472 18.1054 27.366C18.2263 27.2848 18.362 27.2283 18.5048 27.2L21.376 26.5939C21.6601 26.5374 21.955 26.5952 22.1967 26.7548C22.4385 26.9143 22.6075 27.1627 22.6673 27.4461C22.7271 27.7295 22.6728 28.025 22.5161 28.2686C22.3594 28.5122 22.113 28.6842 21.8303 28.7473L18.9591 29.3534Z" fill="white" stroke="#264887" stroke-width="1.25" stroke-linecap="round" stroke-linejoin="round"/>
<path d="M20.1719 35.0955C19.887 35.154 19.5906 35.0974 19.3473 34.9381C19.104 34.7787 18.9337 34.5295 18.8736 34.245C18.8135 33.9604 18.8685 33.6637 19.0265 33.4196C19.1846 33.1754 19.4328 33.0038 19.717 32.9421L22.5882 32.336C22.8731 32.2775 23.1695 32.3341 23.4128 32.4934C23.6561 32.6528 23.8263 32.902 23.8864 33.1865C23.9465 33.4711 23.8916 33.7678 23.7335 34.012C23.5755 34.2561 23.3273 34.4277 23.0431 34.4894L20.1719 35.0955Z" fill="white" stroke="#264887" stroke-width="1.25" stroke-linecap="round" stroke-linejoin="round"/>
<path d="M38.44 6.20666L21.25 10.0179L20.5139 6.53147L37.1803 3.01235C37.2539 2.99681 37.3298 2.99593 37.4038 3.00974C37.4777 3.02356 37.5482 3.05181 37.6113 3.09287C37.6743 3.13394 37.7287 3.18702 37.7712 3.24909C37.8137 3.31116 37.8436 3.38099 37.8591 3.45461L38.44 6.20666Z" fill="#B5D9F1"/>
<path d="M43.9876 32.4806C44.0032 32.5542 44.0041 32.6302 43.9902 32.7041C43.9764 32.7781 43.9482 32.8486 43.9071 32.9116C43.866 32.9747 43.813 33.029 43.7509 33.0715C43.6888 33.114 43.619 33.1439 43.5454 33.1594L26.879 36.6786L20.5139 6.53147L37.1803 3.01235C37.2539 2.99681 37.3298 2.99593 37.4038 3.00974C37.4777 3.02356 37.5482 3.05181 37.6113 3.09287C37.6743 3.13394 37.7287 3.18702 37.7712 3.24909C37.8137 3.31116 37.8436 3.38099 37.8591 3.45461L43.9876 32.4806Z" stroke="#264887" stroke-width="1.25" stroke-linecap="round" stroke-linejoin="round"/>
</svg>
