<svg width="418" height="202" viewBox="0 0 418 202" fill="none" xmlns="http://www.w3.org/2000/svg">
    <g filter="url(#filter0_d)">
        <rect x="9" y="6" width="400" height="184" rx="4" fill="#F7F9FC"/>
        <rect x="9.5" y="6.5" width="399" height="183" rx="3.5" stroke="#D5D9DE"/>
    </g>
    <path d="M25.5 66C25.5 64.067 27.067 62.5 29 62.5H389C390.933 62.5 392.5 64.067 392.5 66V118C392.5 119.933 390.933 121.5 389 121.5H29C27.067 121.5 25.5 119.933 25.5 118V66Z" fill="white" stroke="#C0C6CE"/>
    <path d="M88.2197 89H89.9492V79.1357H88.2061L85.6289 80.9473V82.5674L88.1787 80.8174H88.2197V89ZM98.6719 89.1709C101.078 89.1709 102.527 88.002 102.527 86.1631V86.1562C102.527 84.6182 101.632 83.7842 99.5811 83.3604L98.5146 83.1416C97.3252 82.8955 96.7852 82.4854 96.7852 81.7881V81.7812C96.7852 80.9951 97.5029 80.4551 98.6582 80.4482C99.7656 80.4482 100.524 80.9609 100.641 81.8223L100.654 81.9043H102.343L102.336 81.7881C102.233 80.0996 100.825 78.9648 98.6719 78.9648C96.5459 78.9648 95.0215 80.1406 95.0146 81.877V81.8838C95.0146 83.3535 95.9717 84.2559 97.9131 84.6592L98.9727 84.8779C100.244 85.1445 100.757 85.541 100.757 86.2793V86.2861C100.757 87.1338 99.9775 87.6875 98.7334 87.6875C97.4961 87.6875 96.6279 87.1611 96.498 86.3135L96.4844 86.2314H94.7959L94.8027 86.334C94.9189 88.1045 96.4092 89.1709 98.6719 89.1709ZM106.144 89.1436C107.237 89.1436 107.982 88.6377 108.358 87.8652H108.393V89H110.095V81.7539H108.393V85.9512C108.393 87.0039 107.771 87.708 106.793 87.708C105.822 87.708 105.344 87.127 105.344 86.1016V81.7539H103.642V86.4365C103.642 88.1182 104.551 89.1436 106.144 89.1436ZM111.496 89H113.198V84.5635C113.198 83.6816 113.772 83.0391 114.593 83.0391C115.386 83.0391 115.878 83.5449 115.878 84.3584V89H117.532V84.5225C117.532 83.6475 118.093 83.0391 118.913 83.0391C119.747 83.0391 120.212 83.5518 120.212 84.4473V89H121.914V84.0234C121.914 82.5742 120.978 81.6035 119.549 81.6035C118.503 81.6035 117.642 82.1641 117.293 83.0664H117.252C116.985 82.1367 116.254 81.6035 115.242 81.6035C114.285 81.6035 113.54 82.123 113.232 82.916H113.198V81.7539H111.496V89ZM123.281 89H124.983V84.5635C124.983 83.6816 125.558 83.0391 126.378 83.0391C127.171 83.0391 127.663 83.5449 127.663 84.3584V89H129.317V84.5225C129.317 83.6475 129.878 83.0391 130.698 83.0391C131.532 83.0391 131.997 83.5518 131.997 84.4473V89H133.699V84.0234C133.699 82.5742 132.763 81.6035 131.334 81.6035C130.288 81.6035 129.427 82.1641 129.078 83.0664H129.037C128.771 82.1367 128.039 81.6035 127.027 81.6035C126.07 81.6035 125.325 82.123 125.018 82.916H124.983V81.7539H123.281V89ZM138.252 89.1436C140.146 89.1436 141.212 88.0225 141.438 86.9082L141.458 86.833H139.865L139.852 86.8809C139.688 87.3662 139.134 87.8174 138.286 87.8174C137.179 87.8174 136.481 87.0654 136.454 85.7939H141.526V85.2471C141.526 83.0596 140.241 81.6035 138.17 81.6035C136.099 81.6035 134.766 83.1074 134.766 85.3906V85.3975C134.766 87.7012 136.078 89.1436 138.252 89.1436ZM138.19 82.9365C139.093 82.9365 139.749 83.5107 139.872 84.6592H136.475C136.611 83.5449 137.288 82.9365 138.19 82.9365ZM142.627 89H144.329V84.7959C144.329 83.7227 144.91 83.1143 145.874 83.1143C146.161 83.1143 146.421 83.1553 146.564 83.21V81.6719C146.435 81.6377 146.236 81.6035 146.024 81.6035C145.19 81.6035 144.589 82.1299 144.363 83.0049H144.329V81.7539H142.627V89ZM153.879 89.1709C156.285 89.1709 157.734 88.002 157.734 86.1631V86.1562C157.734 84.6182 156.839 83.7842 154.788 83.3604L153.722 83.1416C152.532 82.8955 151.992 82.4854 151.992 81.7881V81.7812C151.992 80.9951 152.71 80.4551 153.865 80.4482C154.973 80.4482 155.731 80.9609 155.848 81.8223L155.861 81.9043H157.55L157.543 81.7881C157.44 80.0996 156.032 78.9648 153.879 78.9648C151.753 78.9648 150.229 80.1406 150.222 81.877V81.8838C150.222 83.3535 151.179 84.2559 153.12 84.6592L154.18 84.8779C155.451 85.1445 155.964 85.541 155.964 86.2793V86.2861C155.964 87.1338 155.185 87.6875 153.94 87.6875C152.703 87.6875 151.835 87.1611 151.705 86.3135L151.691 86.2314H150.003L150.01 86.334C150.126 88.1045 151.616 89.1709 153.879 89.1709ZM161.576 89.1436C161.918 89.1436 162.219 89.1094 162.417 89.082V87.8037C162.301 87.8105 162.171 87.8311 162.007 87.8311C161.385 87.8311 161.07 87.6055 161.07 86.8945V83.0664H162.417V81.7539H161.07V79.915H159.341V81.7539H158.315V83.0664H159.341V87.0381C159.341 88.5283 160.059 89.1436 161.576 89.1436ZM163.586 89H165.288V84.7959C165.288 83.7227 165.869 83.1143 166.833 83.1143C167.12 83.1143 167.38 83.1553 167.523 83.21V81.6719C167.394 81.6377 167.195 81.6035 166.983 81.6035C166.149 81.6035 165.548 82.1299 165.322 83.0049H165.288V81.7539H163.586V89ZM171.311 89.1436C173.204 89.1436 174.271 88.0225 174.496 86.9082L174.517 86.833H172.924L172.91 86.8809C172.746 87.3662 172.192 87.8174 171.345 87.8174C170.237 87.8174 169.54 87.0654 169.513 85.7939H174.585V85.2471C174.585 83.0596 173.3 81.6035 171.229 81.6035C169.157 81.6035 167.824 83.1074 167.824 85.3906V85.3975C167.824 87.7012 169.137 89.1436 171.311 89.1436ZM171.249 82.9365C172.151 82.9365 172.808 83.5107 172.931 84.6592H169.533C169.67 83.5449 170.347 82.9365 171.249 82.9365ZM178.871 89.1436C180.765 89.1436 181.831 88.0225 182.057 86.9082L182.077 86.833H180.484L180.471 86.8809C180.307 87.3662 179.753 87.8174 178.905 87.8174C177.798 87.8174 177.101 87.0654 177.073 85.7939H182.146V85.2471C182.146 83.0596 180.86 81.6035 178.789 81.6035C176.718 81.6035 175.385 83.1074 175.385 85.3906V85.3975C175.385 87.7012 176.697 89.1436 178.871 89.1436ZM178.81 82.9365C179.712 82.9365 180.368 83.5107 180.491 84.6592H177.094C177.23 83.5449 177.907 82.9365 178.81 82.9365ZM185.939 89.1436C186.281 89.1436 186.582 89.1094 186.78 89.082V87.8037C186.664 87.8105 186.534 87.8311 186.37 87.8311C185.748 87.8311 185.434 87.6055 185.434 86.8945V83.0664H186.78V81.7539H185.434V79.915H183.704V81.7539H182.679V83.0664H183.704V87.0381C183.704 88.5283 184.422 89.1436 185.939 89.1436ZM187.525 91.0166H188.715L189.713 87.3936H188.065L187.525 91.0166ZM193.384 89H197.52C199.625 89 200.903 87.9336 200.903 86.2109V86.1973C200.903 84.8984 199.96 83.9277 198.572 83.8047V83.7705C199.632 83.627 200.432 82.6768 200.432 81.6172V81.6035C200.432 80.1064 199.276 79.1357 197.479 79.1357H193.384V89ZM197.034 80.5098C198.08 80.5098 198.688 80.9883 198.688 81.8428V81.8564C198.688 82.7861 198.005 83.3057 196.733 83.3057H195.147V80.5098H197.034ZM197.014 84.584C198.395 84.584 199.105 85.1035 199.105 86.0947V86.1084C199.105 87.0996 198.408 87.626 197.116 87.626H195.147V84.584H197.014ZM205.196 89.1436C207.322 89.1436 208.703 87.7285 208.703 85.377V85.3633C208.703 83.0254 207.302 81.6035 205.189 81.6035C203.084 81.6035 201.689 83.0391 201.689 85.3633V85.377C201.689 87.7217 203.063 89.1436 205.196 89.1436ZM205.203 87.7695C204.116 87.7695 203.426 86.9014 203.426 85.377V85.3633C203.426 83.8594 204.13 82.9844 205.189 82.9844C206.27 82.9844 206.967 83.8525 206.967 85.3633V85.377C206.967 86.8945 206.276 87.7695 205.203 87.7695ZM212.627 89.1436C214.404 89.1436 215.669 88.2275 215.669 86.8604V86.8535C215.669 85.8008 215.088 85.2129 213.591 84.8779L212.381 84.6113C211.629 84.4404 211.349 84.167 211.349 83.75V83.7432C211.349 83.21 211.82 82.8613 212.572 82.8613C213.365 82.8613 213.83 83.2852 213.905 83.8662L213.912 83.9209H215.498L215.491 83.8457C215.43 82.5947 214.377 81.6035 212.572 81.6035C210.822 81.6035 209.667 82.499 209.667 83.8252V83.832C209.667 84.9053 210.364 85.582 211.752 85.8896L212.955 86.1562C213.707 86.3271 213.96 86.5732 213.96 87.0107V87.0176C213.96 87.5508 213.461 87.8857 212.634 87.8857C211.772 87.8857 211.301 87.5166 211.171 86.8945L211.157 86.833H209.482L209.489 86.8945C209.64 88.2412 210.727 89.1436 212.627 89.1436ZM219.449 89.1436C219.791 89.1436 220.092 89.1094 220.29 89.082V87.8037C220.174 87.8105 220.044 87.8311 219.88 87.8311C219.258 87.8311 218.943 87.6055 218.943 86.8945V83.0664H220.29V81.7539H218.943V79.915H217.214V81.7539H216.188V83.0664H217.214V87.0381C217.214 88.5283 217.932 89.1436 219.449 89.1436ZM224.528 89.1436C226.654 89.1436 228.035 87.7285 228.035 85.377V85.3633C228.035 83.0254 226.634 81.6035 224.521 81.6035C222.416 81.6035 221.021 83.0391 221.021 85.3633V85.377C221.021 87.7217 222.396 89.1436 224.528 89.1436ZM224.535 87.7695C223.448 87.7695 222.758 86.9014 222.758 85.377V85.3633C222.758 83.8594 223.462 82.9844 224.521 82.9844C225.602 82.9844 226.299 83.8525 226.299 85.3633V85.377C226.299 86.8945 225.608 87.7695 224.535 87.7695ZM229.129 89H230.831V84.7959C230.831 83.75 231.453 83.0391 232.431 83.0391C233.401 83.0391 233.88 83.6201 233.88 84.6523V89H235.582V84.3105C235.582 82.6289 234.673 81.6035 233.08 81.6035C231.979 81.6035 231.241 82.1094 230.865 82.8887H230.831V81.7539H229.129V89ZM236.525 91.0166H237.715L238.713 87.3936H237.065L236.525 91.0166ZM242.384 89H243.977V81.9863H244.024L246.868 89H248.064L250.908 81.9863H250.963V89H252.549V79.1357H250.512L247.49 86.6689H247.442L244.421 79.1357H242.384V89ZM253.608 89H255.454L256.288 86.4502H259.959L260.793 89H262.646L259.118 79.1357H257.136L253.608 89ZM258.106 80.8926H258.147L259.515 85.0898H256.732L258.106 80.8926Z" fill="#213044"/>
    <path d="M88.0693 107.164C89.8945 107.164 90.9746 106.057 90.9746 104.19V97.1357H89.7441V104.177C89.7441 105.38 89.1562 106.029 88.0625 106.029C87.085 106.029 86.5996 105.407 86.5244 104.662L86.5176 104.594H85.2871L85.2939 104.689C85.3965 106.104 86.3604 107.164 88.0693 107.164ZM94.6455 107.137C95.5957 107.137 96.4502 106.624 96.8672 105.845H96.8945V107H98.084V102.085C98.084 100.663 97.0312 99.7539 95.3496 99.7539C93.6748 99.7539 92.6562 100.697 92.5537 101.866L92.5469 101.941H93.6953L93.709 101.88C93.8457 101.244 94.4199 100.807 95.3359 100.807C96.3271 100.807 96.8945 101.333 96.8945 102.201V102.796L94.8574 102.912C93.2236 103.008 92.2803 103.767 92.2803 104.977V104.99C92.2803 106.282 93.2305 107.137 94.6455 107.137ZM93.4971 104.99V104.977C93.4971 104.313 94.0439 103.89 94.9941 103.835L96.8945 103.719V104.3C96.8945 105.332 96.0332 106.104 94.9121 106.104C94.0576 106.104 93.4971 105.674 93.4971 104.99ZM99.5947 107H100.784V102.816C100.784 101.606 101.516 100.807 102.637 100.807C103.73 100.807 104.271 101.442 104.271 102.598V107H105.46V102.386C105.46 100.766 104.558 99.7539 102.999 99.7539C101.919 99.7539 101.194 100.239 100.812 100.902H100.784V99.8906H99.5947V107ZM109.903 107.137C111.455 107.137 112.617 106.207 112.85 105.031L112.863 104.963H111.694L111.674 105.024C111.469 105.633 110.833 106.084 109.931 106.084C108.666 106.084 107.859 105.229 107.832 103.767H112.952V103.329C112.952 101.196 111.77 99.7539 109.828 99.7539C107.887 99.7539 106.629 101.265 106.629 103.466V103.473C106.629 105.708 107.859 107.137 109.903 107.137ZM109.821 100.807C110.86 100.807 111.626 101.456 111.742 102.837H107.853C107.982 101.511 108.789 100.807 109.821 100.807ZM117.211 107H120.526C123.459 107 125.182 105.175 125.182 102.064V102.051C125.182 98.9541 123.445 97.1357 120.526 97.1357H117.211V107ZM118.441 105.893V98.2432H120.444C122.68 98.2432 123.924 99.6035 123.924 102.064V102.078C123.924 104.525 122.68 105.893 120.444 105.893H118.441ZM129.475 107.137C131.437 107.137 132.763 105.715 132.763 103.445V103.432C132.763 101.162 131.43 99.7539 129.468 99.7539C127.506 99.7539 126.18 101.169 126.18 103.432V103.445C126.18 105.708 127.499 107.137 129.475 107.137ZM129.481 106.084C128.224 106.084 127.396 105.12 127.396 103.445V103.432C127.396 101.771 128.23 100.807 129.468 100.807C130.726 100.807 131.546 101.764 131.546 103.432V103.445C131.546 105.113 130.732 106.084 129.481 106.084ZM136.892 107.137C138.443 107.137 139.605 106.207 139.838 105.031L139.852 104.963H138.683L138.662 105.024C138.457 105.633 137.821 106.084 136.919 106.084C135.654 106.084 134.848 105.229 134.82 103.767H139.94V103.329C139.94 101.196 138.758 99.7539 136.816 99.7539C134.875 99.7539 133.617 101.265 133.617 103.466V103.473C133.617 105.708 134.848 107.137 136.892 107.137ZM136.81 100.807C137.849 100.807 138.614 101.456 138.73 102.837H134.841C134.971 101.511 135.777 100.807 136.81 100.807Z" fill="#2C405A"/>
    <g clip-path="url(#clip0)">
        <rect x="37" y="74.2" width="36" height="36" rx="4" fill="#E7F7F2"/>
        <g clip-path="url(#clip1)">
            <path d="M63.15 84.04C63.0372 84.017 62.9359 83.9558 62.863 83.8667C62.7901 83.7776 62.7502 83.6661 62.75 83.551V82C62.75 81.4696 62.5393 80.9609 62.1642 80.5858C61.7891 80.2107 61.2804 80 60.75 80H48.25C47.4544 80 46.6913 80.3161 46.1287 80.8787C45.5661 81.4413 45.25 82.2044 45.25 83V101C45.25 101.796 45.5661 102.559 46.1287 103.121C46.6913 103.684 47.4544 104 48.25 104H62.75C63.2804 104 63.7891 103.789 64.1642 103.414C64.5393 103.039 64.75 102.53 64.75 102V86C64.7501 85.5389 64.5909 85.092 64.2993 84.7348C64.0078 84.3777 63.6017 84.1322 63.15 84.04ZM47.25 83C47.25 82.7348 47.3554 82.4804 47.5429 82.2929C47.7304 82.1054 47.9848 82 48.25 82H60.5C60.5663 82 60.6299 82.0263 60.6768 82.0732C60.7237 82.1201 60.75 82.1837 60.75 82.25V83.75C60.75 83.8163 60.7237 83.8799 60.6768 83.9268C60.6299 83.9737 60.5663 84 60.5 84H48.25C47.9848 84 47.7304 83.8946 47.5429 83.7071C47.3554 83.5196 47.25 83.2652 47.25 83ZM60.824 99.984C60.7771 100.04 60.7184 100.086 60.652 100.117C60.5857 100.148 60.5133 100.164 60.44 100.164H49.56C49.4868 100.164 49.4145 100.148 49.3482 100.117C49.2818 100.086 49.2231 100.041 49.176 99.9852C49.129 99.9292 49.0949 99.8635 49.0761 99.7927C49.0572 99.722 49.0541 99.648 49.067 99.576C49.1568 99.0554 49.3204 98.5503 49.553 98.076C50 97.18 51.125 96.63 53.181 95.868C53.2674 95.6253 53.2646 95.3598 53.173 95.119C52.3683 94.1082 51.9705 92.8331 52.058 91.544C52.0372 91.1447 52.0978 90.7454 52.2363 90.3704C52.3747 89.9953 52.5881 89.6524 52.8633 89.3624C53.1385 89.0724 53.4699 88.8415 53.8372 88.6837C54.2046 88.5259 54.6002 88.4445 55 88.4445C55.3998 88.4445 55.7954 88.5259 56.1628 88.6837C56.5301 88.8415 56.8615 89.0724 57.1367 89.3624C57.4119 89.6524 57.6253 89.9953 57.7637 90.3704C57.9022 90.7454 57.9628 91.1447 57.942 91.544C58.0288 92.8434 57.6248 94.1281 56.81 95.144C56.7285 95.3846 56.7378 95.6467 56.836 95.881C58.875 96.632 60 97.181 60.447 98.081C60.6796 98.5553 60.8432 99.0604 60.933 99.581C60.9449 99.6521 60.9414 99.7249 60.9226 99.7944C60.9038 99.864 60.8701 99.9286 60.824 99.984Z" fill="#008A63"/>
        </g>
    </g>
    <path d="M339.298 97H345.683V95.5166H341.062V92.6934H345.43V91.292H341.062V88.6191H345.683V87.1357H339.298V97ZM350.386 97.123C351.438 97.123 352.245 96.6445 352.655 95.8311H352.771V97H354.48V86.6367H352.771V90.7178H352.655C352.266 89.9111 351.411 89.4053 350.386 89.4053C348.492 89.4053 347.323 90.8818 347.323 93.2607V93.2744C347.323 95.6396 348.513 97.123 350.386 97.123ZM350.919 95.6875C349.757 95.6875 349.053 94.7783 349.053 93.2744V93.2607C349.053 91.7568 349.764 90.8408 350.919 90.8408C352.074 90.8408 352.799 91.7637 352.799 93.2607V93.2744C352.799 94.7715 352.081 95.6875 350.919 95.6875ZM357.495 88.2773C358.049 88.2773 358.507 87.833 358.507 87.2725C358.507 86.7188 358.049 86.2676 357.495 86.2676C356.935 86.2676 356.477 86.7188 356.477 87.2725C356.477 87.833 356.935 88.2773 357.495 88.2773ZM356.641 97H358.343V89.5283H356.641V97ZM363.374 97.0342C363.702 97.0342 364.017 97.0068 364.263 96.959V95.6465C364.058 95.667 363.928 95.6738 363.688 95.6738C362.978 95.6738 362.684 95.3594 362.684 94.6143V90.8477H364.263V89.5283H362.684V87.6963H360.954V89.5283H359.792V90.8477H360.954V95.0176C360.954 96.46 361.658 97.0342 363.374 97.0342Z" fill="#3B70D4"/>
    <path d="M25.2373 40H27.6104L28.6826 36.7217H33.4023L34.4746 40H36.8564L32.3213 27.3174H29.7725L25.2373 40ZM31.0205 29.5762H31.0732L32.8311 34.9727H29.2539L31.0205 29.5762ZM41.3943 40.1846C42.739 40.1846 43.7673 39.5166 44.2947 38.418H44.3474V40H46.5359V27.3174H44.3474V32.2832H44.2947C43.7673 31.167 42.7039 30.4902 41.3855 30.4902C39.0476 30.4902 37.5447 32.3271 37.5447 35.333V35.3418C37.5447 38.3389 39.0388 40.1846 41.3943 40.1846ZM42.0535 38.3389C40.6472 38.3389 39.7771 37.1963 39.7771 35.3418V35.333C39.7771 33.4785 40.656 32.3359 42.0535 32.3359C43.3982 32.3359 44.3474 33.5137 44.3474 35.333V35.3418C44.3474 37.1699 43.407 38.3389 42.0535 38.3389ZM52.0757 40.1846C53.4204 40.1846 54.4487 39.5166 54.9761 38.418H55.0288V40H57.2173V27.3174H55.0288V32.2832H54.9761C54.4487 31.167 53.3853 30.4902 52.0669 30.4902C49.729 30.4902 48.2261 32.3271 48.2261 35.333V35.3418C48.2261 38.3389 49.7202 40.1846 52.0757 40.1846ZM52.7349 38.3389C51.3286 38.3389 50.4585 37.1963 50.4585 35.3418V35.333C50.4585 33.4785 51.3374 32.3359 52.7349 32.3359C54.0796 32.3359 55.0288 33.5137 55.0288 35.333V35.3418C55.0288 37.1699 54.0884 38.3389 52.7349 38.3389ZM66.6006 40.1846C67.0401 40.1846 67.4268 40.1406 67.6817 40.1055V38.4619C67.5323 38.4707 67.3653 38.4971 67.1543 38.4971C66.3545 38.4971 65.9502 38.207 65.9502 37.293V32.3711H67.6817V30.6836H65.9502V28.3193H63.7266V30.6836H62.4082V32.3711H63.7266V37.4775C63.7266 39.3936 64.6495 40.1846 66.6006 40.1846ZM73.3709 40.1846C76.1043 40.1846 77.8797 38.3652 77.8797 35.3418V35.3242C77.8797 32.3184 76.0779 30.4902 73.3621 30.4902C70.6551 30.4902 68.8621 32.3359 68.8621 35.3242V35.3418C68.8621 38.3564 70.6287 40.1846 73.3709 40.1846ZM73.3797 38.418C71.9822 38.418 71.0945 37.3018 71.0945 35.3418V35.3242C71.0945 33.3906 71.9998 32.2656 73.3621 32.2656C74.7508 32.2656 75.6473 33.3818 75.6473 35.3242V35.3418C75.6473 37.293 74.7596 38.418 73.3797 38.418ZM83.5892 40H91.6136V38.0928H85.8568V27.3174H83.5892V40ZM96.0108 40.1582C97.2413 40.1582 98.2784 39.543 98.8145 38.5674H98.8673V40H101.056V33.5928C101.056 31.7207 99.5528 30.4902 97.2237 30.4902C94.8595 30.4902 93.4268 31.7295 93.295 33.3818L93.2862 33.4873H95.3165L95.3341 33.4082C95.4747 32.7227 96.1075 32.2393 97.1446 32.2393C98.252 32.2393 98.8673 32.8105 98.8673 33.751V34.3926L96.4327 34.542C94.1739 34.6826 92.8907 35.6758 92.8907 37.3281V37.3457C92.8907 39.0068 94.1475 40.1582 96.0108 40.1582ZM95.0704 37.2578V37.249C95.0704 36.5107 95.6593 36.0449 96.7403 35.9746L98.8673 35.8428V36.5459C98.8673 37.6533 97.918 38.4883 96.6612 38.4883C95.7032 38.4883 95.0704 38.0225 95.0704 37.2578ZM106.701 40.1846C108.986 40.1846 110.612 39.0068 110.612 37.249V37.2402C110.612 35.8867 109.865 35.1309 107.94 34.7002L106.385 34.3574C105.418 34.1377 105.057 33.7861 105.057 33.25V33.2412C105.057 32.5557 105.664 32.1074 106.631 32.1074C107.65 32.1074 108.248 32.6523 108.345 33.3994L108.353 33.4697H110.392L110.384 33.373C110.305 31.7646 108.951 30.4902 106.631 30.4902C104.381 30.4902 102.895 31.6416 102.895 33.3467V33.3555C102.895 34.7354 103.792 35.6055 105.576 36.001L107.123 36.3438C108.09 36.5635 108.415 36.8799 108.415 37.4424V37.4512C108.415 38.1367 107.773 38.5674 106.71 38.5674C105.602 38.5674 104.996 38.0928 104.829 37.293L104.811 37.2139H102.658L102.667 37.293C102.86 39.0244 104.258 40.1846 106.701 40.1846ZM115.713 40.1846C116.152 40.1846 116.539 40.1406 116.794 40.1055V38.4619C116.644 38.4707 116.477 38.4971 116.266 38.4971C115.466 38.4971 115.062 38.207 115.062 37.293V32.3711H116.794V30.6836H115.062V28.3193H112.838V30.6836H111.52V32.3711H112.838V37.4775C112.838 39.3936 113.761 40.1846 115.713 40.1846ZM118.756 40H121.024V35.8076H123.643C126.209 35.8076 127.958 34.1025 127.958 31.5713V31.5537C127.958 29.0137 126.209 27.3174 123.643 27.3174H118.756V40ZM123.08 29.1719C124.706 29.1719 125.656 30.042 125.656 31.5625V31.5801C125.656 33.1006 124.706 33.9795 123.08 33.9795H121.024V29.1719H123.08ZM131.705 40.1582C132.936 40.1582 133.973 39.543 134.509 38.5674H134.562V40H136.75V33.5928C136.75 31.7207 135.247 30.4902 132.918 30.4902C130.554 30.4902 129.121 31.7295 128.989 33.3818L128.981 33.4873H131.011L131.028 33.4082C131.169 32.7227 131.802 32.2393 132.839 32.2393C133.946 32.2393 134.562 32.8105 134.562 33.751V34.3926L132.127 34.542C129.868 34.6826 128.585 35.6758 128.585 37.3281V37.3457C128.585 39.0068 129.842 40.1582 131.705 40.1582ZM130.765 37.2578V37.249C130.765 36.5107 131.354 36.0449 132.435 35.9746L134.562 35.8428V36.5459C134.562 37.6533 133.612 38.4883 132.356 38.4883C131.398 38.4883 130.765 38.0225 130.765 37.2578ZM142.395 40.1846C144.681 40.1846 146.307 39.0068 146.307 37.249V37.2402C146.307 35.8867 145.559 35.1309 143.635 34.7002L142.079 34.3574C141.112 34.1377 140.752 33.7861 140.752 33.25V33.2412C140.752 32.5557 141.358 32.1074 142.325 32.1074C143.345 32.1074 143.942 32.6523 144.039 33.3994L144.048 33.4697H146.087L146.078 33.373C145.999 31.7646 144.645 30.4902 142.325 30.4902C140.075 30.4902 138.59 31.6416 138.59 33.3467V33.3555C138.59 34.7354 139.486 35.6055 141.27 36.001L142.817 36.3438C143.784 36.5635 144.109 36.8799 144.109 37.4424V37.4512C144.109 38.1367 143.468 38.5674 142.404 38.5674C141.297 38.5674 140.69 38.0928 140.523 37.293L140.506 37.2139H138.352L138.361 37.293C138.555 39.0244 139.952 40.1846 142.395 40.1846ZM151.583 40.1846C153.868 40.1846 155.494 39.0068 155.494 37.249V37.2402C155.494 35.8867 154.747 35.1309 152.822 34.7002L151.266 34.3574C150.299 34.1377 149.939 33.7861 149.939 33.25V33.2412C149.939 32.5557 150.546 32.1074 151.512 32.1074C152.532 32.1074 153.13 32.6523 153.226 33.3994L153.235 33.4697H155.274L155.265 33.373C155.186 31.7646 153.833 30.4902 151.512 30.4902C149.262 30.4902 147.777 31.6416 147.777 33.3467V33.3555C147.777 34.7354 148.673 35.6055 150.458 36.001L152.005 36.3438C152.971 36.5635 153.297 36.8799 153.297 37.4424V37.4512C153.297 38.1367 152.655 38.5674 151.591 38.5674C150.484 38.5674 149.878 38.0928 149.711 37.293L149.693 37.2139H147.54L147.548 37.293C147.742 39.0244 149.139 40.1846 151.583 40.1846ZM159.452 35.9658H161.499V35.5264C161.499 34.665 161.825 34.1992 162.976 33.5312C164.171 32.8193 164.839 31.8789 164.839 30.543V30.5342C164.839 28.5918 163.222 27.2119 160.823 27.2119C158.212 27.2119 156.815 28.7236 156.718 30.6924L156.709 30.7891H158.775L158.784 30.71C158.863 29.708 159.575 29.0049 160.708 29.0049C161.807 29.0049 162.554 29.6729 162.554 30.6133V30.6221C162.554 31.4834 162.185 31.958 161.095 32.6172C159.882 33.3291 159.39 34.1289 159.452 35.3506V35.9658ZM160.506 40.0967C161.218 40.0967 161.781 39.5518 161.781 38.8574C161.781 38.1543 161.218 37.6182 160.506 37.6182C159.794 37.6182 159.223 38.1543 159.223 38.8574C159.223 39.5518 159.794 40.0967 160.506 40.0967Z" fill="#40526D"/>
    <path fill-rule="evenodd" clip-rule="evenodd" d="M121.729 150.576C121.729 150.225 122.014 149.94 122.365 149.94C122.716 149.94 123 150.225 123 150.576V160.809C123 161.16 122.716 161.444 122.365 161.444C122.014 161.444 121.729 161.16 121.729 160.809V150.576Z" fill="#D32D27"/>
    <path fill-rule="evenodd" clip-rule="evenodd" d="M101.392 158.121C102.585 158.121 103.553 157.148 103.553 155.948C103.553 154.748 102.585 153.775 101.392 153.775C100.198 153.775 99.231 154.748 99.231 155.948C99.231 157.148 100.198 158.121 101.392 158.121Z" fill="#D32D27"/>
    <path fill-rule="evenodd" clip-rule="evenodd" d="M108.637 158.121C109.83 158.121 110.798 157.148 110.798 155.948C110.798 154.748 109.83 153.775 108.637 153.775C107.444 153.775 106.476 154.748 106.476 155.948C106.476 157.148 107.444 158.121 108.637 158.121Z" fill="#D32D27"/>
    <path fill-rule="evenodd" clip-rule="evenodd" d="M115.882 158.121C117.075 158.121 118.043 157.148 118.043 155.948C118.043 154.748 117.075 153.775 115.882 153.775C114.689 153.775 113.721 154.748 113.721 155.948C113.721 157.148 114.689 158.121 115.882 158.121Z" fill="#D32D27"/>
    <path fill-rule="evenodd" clip-rule="evenodd" d="M95.7841 158.046C95.7931 158.561 95.703 159.013 95.514 159.403C95.3246 159.793 95.0594 160.116 94.7177 160.373C94.3758 160.63 93.9711 160.824 93.503 160.955C93.0351 161.085 92.5267 161.155 91.9783 161.165C91.6647 161.17 91.3314 161.16 90.9782 161.134C90.625 161.108 90.2715 161.066 89.9179 161.008C89.564 160.95 89.223 160.869 88.8947 160.765C88.5662 160.661 88.2638 160.534 87.9875 160.384C87.7903 160.285 87.7418 160.131 87.8426 159.923L88.2926 158.833C88.3557 158.716 88.4194 158.641 88.4841 158.608C88.5487 158.575 88.653 158.589 88.7976 158.651C89.2704 158.862 89.7942 159.023 90.3697 159.135C90.9448 159.248 91.4541 159.3 91.8969 159.292C92.444 159.283 92.8525 159.169 93.1223 158.952C93.3921 158.735 93.5241 158.459 93.5183 158.124C93.5117 157.751 93.3307 157.458 92.9752 157.245C92.6197 157.032 92.0881 156.803 91.38 156.558C90.8424 156.374 90.3734 156.189 89.9728 156.002C89.5721 155.816 89.2395 155.606 88.9748 155.373C88.7099 155.139 88.5069 154.875 88.3647 154.581C88.2228 154.288 88.1485 153.948 88.1418 153.561C88.1343 153.136 88.2064 152.745 88.3575 152.389C88.5089 152.032 88.7369 151.722 89.0413 151.459C89.3457 151.196 89.7257 150.987 90.1818 150.83C90.6373 150.674 91.1647 150.591 91.7641 150.581C92.3112 150.571 92.8591 150.61 93.4081 150.697C93.9567 150.784 94.4869 150.926 94.9985 151.123C95.1036 151.173 95.1667 151.236 95.1874 151.313C95.2085 151.39 95.2065 151.48 95.1824 151.584L94.7523 152.693C94.715 152.796 94.6673 152.855 94.6089 152.869C94.5503 152.883 94.4688 152.871 94.3639 152.835C93.8529 152.663 93.4042 152.549 93.0192 152.491C92.6336 152.433 92.2193 152.408 91.7766 152.416C91.2947 152.424 90.9445 152.53 90.7268 152.734C90.5086 152.937 90.402 153.161 90.4063 153.406C90.4094 153.586 90.4479 153.74 90.5219 153.868C90.5956 153.995 90.7118 154.112 90.87 154.219C91.0284 154.326 91.2355 154.435 91.4913 154.546C91.7475 154.658 92.059 154.775 92.4261 154.897C92.8455 155.044 93.2551 155.202 93.6558 155.368C94.056 155.535 94.4114 155.739 94.7219 155.978C95.0321 156.217 95.2847 156.502 95.4794 156.834C95.6742 157.166 95.7758 157.57 95.7841 158.046Z" fill="#D32D27"/>
    <path fill-rule="evenodd" clip-rule="evenodd" d="M86.7439 159.403C86.5546 159.793 86.2894 160.116 85.9475 160.373C85.6056 160.63 85.2011 160.824 84.733 160.955C84.2651 161.085 83.7567 161.155 83.2083 161.165C82.8947 161.17 82.5613 161.16 82.2081 161.134C81.8549 161.108 81.5015 161.066 81.1477 161.008C80.7941 160.95 80.453 160.869 80.1247 160.765C79.7962 160.661 79.4937 160.534 79.2175 160.384C79.0203 160.285 78.9718 160.131 79.0726 159.923L79.5226 158.833C79.5857 158.716 79.6494 158.641 79.7141 158.608C79.7787 158.575 79.883 158.589 80.0276 158.651C80.5004 158.862 81.0242 159.023 81.5997 159.135C82.1748 159.248 82.6839 159.3 83.1269 159.292C83.674 159.283 84.0825 159.169 84.3523 158.952C84.6221 158.735 84.7541 158.459 84.7483 158.124C84.7417 157.751 84.5607 157.458 84.2052 157.245C83.8496 157.032 83.3179 156.803 82.61 156.558C82.0724 156.374 81.6034 156.189 81.2027 156.002C80.8021 155.816 80.4695 155.606 80.2048 155.373C79.9399 155.139 79.7369 154.875 79.5949 154.581C79.453 154.288 79.3785 153.948 79.3718 153.561C79.3643 153.136 79.4362 152.745 79.5876 152.389C79.7391 152.032 79.9669 151.722 80.2713 151.459C80.5757 151.196 80.9556 150.987 81.4116 150.83C81.8673 150.674 82.3947 150.591 82.9941 150.581C83.5412 150.571 84.0891 150.61 84.6379 150.697C85.1867 150.784 85.7169 150.926 86.2285 151.123C86.3334 151.173 86.3967 151.236 86.4174 151.313C86.4383 151.39 86.4365 151.48 86.4126 151.584L85.9823 152.693C85.9452 152.796 85.8971 152.855 85.8389 152.869C85.7805 152.883 85.6988 152.871 85.5939 152.835C85.0827 152.663 84.6343 152.549 84.2491 152.491C83.8636 152.433 83.4493 152.408 83.0066 152.416C82.5245 152.424 82.1747 152.53 81.9568 152.734C81.7386 152.937 81.632 153.161 81.6363 153.406C81.6394 153.586 81.6778 153.74 81.7519 153.868C81.8256 153.995 81.9418 154.112 82.1 154.219C82.2582 154.326 82.4655 154.435 82.7215 154.546C82.9773 154.658 83.2889 154.775 83.6559 154.897C84.0753 155.044 84.4851 155.202 84.8858 155.368C85.286 155.535 85.6415 155.739 85.9517 155.978C86.2621 156.217 86.5147 156.502 86.7094 156.834C86.904 157.166 87.006 157.57 87.0143 158.046C87.0233 158.561 86.9329 159.013 86.7439 159.403Z" fill="#D32D27"/>
    <path fill-rule="evenodd" clip-rule="evenodd" d="M77.7239 160.528C77.9714 160.41 78.0952 160.194 78.0952 159.879V153.987C78.0952 152.835 77.7793 151.957 77.1474 151.355C76.5156 150.752 75.5223 150.451 74.1674 150.451C73.5942 150.451 72.4393 150.641 71.8922 150.85C71.7228 150.916 71.6642 151.053 71.7163 151.263L71.9899 152.382C72.0159 152.5 72.0615 152.572 72.1267 152.598C72.1918 152.624 72.296 152.618 72.4393 152.579C72.765 152.474 73.3532 152.357 73.7962 152.357C74.213 152.357 74.5517 152.399 74.8123 152.484C75.0728 152.569 75.278 152.691 75.4278 152.848C75.5777 153.005 75.6786 153.188 75.7307 153.398C75.7828 153.607 75.8089 153.836 75.8089 154.085V154.419H73.6203C72.8386 154.419 72.1775 154.517 71.6369 154.714C71.0962 154.91 70.6566 155.169 70.3179 155.489C69.9791 155.81 69.7349 156.184 69.5851 156.609C69.4353 157.035 69.3604 157.477 69.3604 157.935C69.3604 158.38 69.4255 158.802 69.5558 159.202C69.686 159.601 69.9173 159.948 70.2495 160.243C70.5817 160.537 71.0311 160.773 71.5978 160.95C72.1645 161.127 72.8777 161.215 73.7375 161.215C74.0502 161.215 74.3791 161.205 74.7244 161.186C75.0696 161.166 75.4181 161.13 75.7698 161.078C76.1215 161.025 76.4635 160.953 76.7957 160.862C77.1279 160.77 77.4373 160.659 77.7239 160.528ZM73.9134 156.167H75.7894V159.055C75.62 159.12 75.4344 159.172 75.2324 159.212C75.0305 159.251 74.8384 159.284 74.656 159.31C74.4736 159.336 74.301 159.352 74.1381 159.359C73.9753 159.366 73.8483 159.369 73.7571 159.369C73.1318 159.369 72.6302 159.257 72.2524 159.035C71.8746 158.812 71.6857 158.419 71.6857 157.856C71.6857 157.464 71.7606 157.156 71.9105 156.933C72.0603 156.711 72.2492 156.54 72.4771 156.422C72.7051 156.305 72.9461 156.233 73.2002 156.206C73.4542 156.18 73.6919 156.167 73.9134 156.167Z" fill="#D32D27"/>
    <path fill-rule="evenodd" clip-rule="evenodd" d="M63.4666 160.771C63.4666 160.965 63.4355 161.086 63.3737 161.134C63.3118 161.183 63.0574 161.207 62.8652 161.207H61.5729C61.4215 161.207 61.3046 161.179 61.2222 161.124C61.1399 161.069 61.0986 160.951 61.0986 160.771L61.0986 148.45C61.0986 148.293 61.134 148.024 61.1613 147.897C61.201 147.712 61.1987 147.647 61.2964 147.528C61.4013 147.401 61.5613 147.314 61.7768 147.268C61.9008 147.241 61.9654 147.268 62.1261 147.268H66.0519C66.7391 147.268 67.3679 147.375 67.9386 147.589C68.5089 147.804 68.9971 148.108 69.4026 148.502C69.8079 148.896 70.1243 149.366 70.3511 149.913C70.5779 150.459 70.6914 151.057 70.6914 151.707C70.6914 152.08 70.6327 152.526 70.5161 153.045C70.3992 153.564 70.1655 154.065 69.815 154.549C69.4645 155.033 68.9729 155.445 68.3408 155.783C67.7082 156.122 66.8765 156.292 65.8455 156.292H63.4666L63.4666 160.771ZM68.2213 151.105C68.1455 150.829 68.0151 150.576 67.8295 150.348C67.6439 150.12 67.3863 149.93 67.0561 149.778C66.7264 149.626 66.3069 149.549 65.7985 149.549H63.3359V154.155H65.8397C66.7058 154.155 67.3379 153.94 67.7368 153.512C68.1353 153.083 68.3348 152.537 68.3348 151.873C68.3348 151.638 68.2967 151.382 68.2213 151.105Z" fill="#D32D27"/>
    <path fill-rule="evenodd" clip-rule="evenodd" d="M58.9523 160.773C58.5091 160.917 58.066 161.003 57.6234 161.029C57.1803 161.055 56.835 161.068 56.5877 161.068C55.5192 161.068 54.7634 160.839 54.3208 160.38C53.8777 159.922 53.6564 159.22 53.6564 158.277L53.7073 152.696H52.2689C52.1365 152.696 52.0683 152.662 52.0136 152.603C51.9589 152.545 51.9308 152.488 51.9563 152.392C51.9817 152.296 52.3379 151.351 52.3379 151.351C52.3593 151.317 52.4552 151.096 52.4788 151.065C52.5179 151.012 52.5749 150.976 52.7293 150.976H53.6912V149.073C53.6912 148.813 53.8104 148.767 53.8691 148.714C53.9277 148.662 54.0284 148.61 54.1721 148.557L55.5715 148.165C55.6756 148.139 55.76 148.148 55.8256 148.194C55.8905 148.24 55.9233 148.335 55.9233 148.479V150.976H57.8872C58.0303 150.976 58.1183 151.006 58.1509 151.065C58.1833 151.123 58.1998 151.199 58.1998 151.291L58.1998 152.362C58.1998 152.48 58.1833 152.565 58.1509 152.617C58.1183 152.67 58.0303 152.696 57.8872 152.696H55.9233V157.982C55.9233 158.401 56.021 158.689 56.2164 158.847C56.4118 159.004 56.7113 159.083 57.1153 159.083C57.1935 159.083 57.2975 159.08 57.428 159.073C57.5581 159.066 57.6917 159.056 57.8285 159.043C57.9653 159.03 58.1021 159.014 58.2389 158.994C58.3757 158.975 58.4896 158.958 58.581 158.945C58.7111 158.919 58.7959 158.922 58.835 158.955C58.8741 158.988 58.9 159.05 58.9132 159.142L59.1282 160.4C59.1408 160.479 59.1442 160.547 59.1378 160.606C59.1311 160.665 59.0695 160.721 58.9523 160.773Z" fill="#1B283C"/>
    <path fill-rule="evenodd" clip-rule="evenodd" d="M51.6782 157.918C51.6872 158.433 51.597 158.886 51.4078 159.275C51.2186 159.665 50.9534 159.988 50.6115 160.246C50.2698 160.503 49.8652 160.697 49.3971 160.827C48.929 160.957 48.4207 161.028 47.8723 161.037C47.5588 161.043 47.2254 161.032 46.8722 161.006C46.519 160.98 46.1655 160.938 45.8118 160.88C45.4582 160.822 45.1171 160.741 44.7888 160.637C44.4603 160.533 44.1578 160.406 43.8816 160.257C43.6844 160.157 43.6359 160.003 43.7367 159.795L44.1867 158.706C44.2496 158.588 44.3134 158.513 44.3782 158.48C44.4428 158.447 44.5471 158.461 44.6917 158.523C45.1644 158.734 45.6883 158.895 46.2637 159.008C46.8388 159.12 47.3479 159.172 47.791 159.164C48.3381 159.155 48.7465 159.041 49.0164 158.824C49.2862 158.607 49.4182 158.331 49.4123 157.996C49.4058 157.623 49.2248 157.33 48.8692 157.117C48.5137 156.904 47.982 156.675 47.2741 156.43C46.7364 156.246 46.2675 156.061 45.8668 155.875C45.4661 155.688 45.1335 155.479 44.8688 155.245C44.604 155.011 44.4009 154.748 44.2588 154.454C44.117 154.16 44.0426 153.82 44.0358 153.433C44.0284 153.008 44.1003 152.618 44.2517 152.261C44.4031 151.904 44.6309 151.594 44.9353 151.331C45.2397 151.068 45.6197 150.859 46.0756 150.702C46.5314 150.547 47.0587 150.463 47.6581 150.453C48.2052 150.443 48.7531 150.482 49.3019 150.569C49.8507 150.656 50.3809 150.798 50.8925 150.995C50.9975 151.045 51.0605 151.108 51.0814 151.185C51.1023 151.262 51.1006 151.352 51.0765 151.456L50.6464 152.565C50.6091 152.669 50.5612 152.727 50.5029 152.741C50.4446 152.755 50.3628 152.744 50.2579 152.707C49.7468 152.535 49.2984 152.421 48.9132 152.363C48.5276 152.305 48.1134 152.28 47.6707 152.288C47.1885 152.296 46.8388 152.402 46.6208 152.606C46.4027 152.81 46.296 153.034 46.3003 153.278C46.3035 153.458 46.3419 153.612 46.416 153.74C46.4897 153.867 46.6058 153.984 46.7641 154.091C46.9223 154.198 47.1295 154.307 47.3856 154.418C47.6414 154.53 47.953 154.647 48.32 154.769C48.7393 154.917 49.1492 155.074 49.5499 155.24C49.95 155.407 50.3054 155.611 50.6158 155.85C50.926 156.089 51.1787 156.375 51.3737 156.706C51.568 157.038 51.6698 157.442 51.6782 157.918Z" fill="#1B283C"/>
    <path fill-rule="evenodd" clip-rule="evenodd" d="M42.7597 159.76C42.7597 160.075 42.6357 160.291 42.3884 160.409C42.1018 160.54 41.7924 160.652 41.4602 160.743C41.128 160.835 40.7859 160.907 40.4342 160.96C40.0824 161.012 39.7338 161.048 39.3886 161.068C39.0434 161.087 38.7145 161.097 38.4018 161.097C37.542 161.097 36.8288 161.009 36.2621 160.832C35.6953 160.655 35.2459 160.419 34.9137 160.124C34.5813 159.829 34.3499 159.482 34.2198 159.082C34.0894 158.682 34.0244 158.26 34.0244 157.814C34.0244 157.355 34.0992 156.913 34.2492 156.487C34.3987 156.061 34.6431 155.688 34.982 155.366C35.3207 155.045 35.7603 154.786 36.3011 154.59C36.8414 154.393 37.5029 154.295 38.2846 154.295H40.4733V153.961C40.4733 153.712 40.447 153.482 40.3951 153.273C40.3428 153.063 40.2417 152.879 40.0923 152.722C39.9423 152.565 39.7372 152.444 39.4766 152.358C39.2159 152.273 38.8772 152.231 38.4604 152.231C38.0175 152.231 37.5353 152.27 37.0143 152.348C36.493 152.427 36.0696 152.519 35.7441 152.624C35.6006 152.663 35.4964 152.67 35.4314 152.643C35.3661 152.617 35.3207 152.545 35.2946 152.427L35.0211 151.307C34.9688 151.097 35.0274 150.959 35.1969 150.894C35.7441 150.684 36.3432 150.537 36.9948 150.451C37.6462 150.366 38.2583 150.324 38.8317 150.324C40.1866 150.324 41.1799 150.625 41.812 151.228C42.4437 151.831 42.7597 152.709 42.7597 153.862V159.76ZM40.4537 156.045H38.5777C38.356 156.045 38.1185 156.058 37.8645 156.084C37.6105 156.11 37.3691 156.182 37.1415 156.3C36.9133 156.418 36.7244 156.589 36.5747 156.811C36.4247 157.034 36.3499 157.342 36.3499 157.735C36.3499 158.299 36.5386 158.692 36.9166 158.915C37.2944 159.138 37.796 159.249 38.4214 159.249C38.5124 159.249 38.6395 159.246 38.8025 159.239C38.9652 159.233 39.1377 159.217 39.3203 159.19C39.5027 159.164 39.6947 159.131 39.8967 159.092C40.0986 159.053 40.2844 159 40.4537 158.935V156.045Z" fill="#1B283C"/>
    <path fill-rule="evenodd" clip-rule="evenodd" d="M25.116 147.085C25.1931 147.028 25.3161 147 25.4847 147H27.0654C27.2622 147 27.3954 147.025 27.4659 147.074C27.5359 147.124 27.5713 147.247 27.5713 147.445V157.26C27.5713 157.812 27.7084 158.201 27.9824 158.427C28.2563 158.653 28.6319 158.766 29.1098 158.766L32.8044 158.766C32.9587 158.766 33.1361 158.779 33.2419 158.869C33.3477 158.958 33.3236 159.013 33.3937 159.242C33.4637 159.47 33.6041 160.564 33.6041 160.564C33.6041 160.676 33.6041 160.759 33.5316 160.834C33.4591 160.909 33.3084 160.97 33.1875 161.003C33.0666 161.037 32.8339 161.056 32.4903 161.056C32.1466 161.056 28.7094 161.056 28.7094 161.056C27.9787 161.056 27.3744 160.95 26.8968 160.738C26.4191 160.526 26.0397 160.243 25.7587 159.889C25.4775 159.536 25.281 159.134 25.1686 158.681C25.056 158.229 25 157.755 25 157.26V147.445C25 147.262 25.0385 147.142 25.116 147.085Z" fill="#1B283C"/>
    <path d="M197.368 161H199.07V154.205H199.18L204.026 161H205.551V151.136H203.855V157.931H203.746L198.899 151.136H197.368V161ZM211.04 161.15C213.275 161.15 214.636 159.688 214.636 157.268V157.254C214.636 154.848 213.269 153.385 211.04 153.385C208.818 153.385 207.444 154.854 207.444 157.254V157.268C207.444 159.688 208.798 161.15 211.04 161.15ZM211.04 159.77C209.857 159.77 209.181 158.847 209.181 157.274V157.261C209.181 155.688 209.857 154.759 211.04 154.759C212.216 154.759 212.893 155.688 212.893 157.261V157.274C212.893 158.847 212.223 159.77 211.04 159.77ZM219.284 161.034C219.612 161.034 219.927 161.007 220.173 160.959V159.646C219.968 159.667 219.838 159.674 219.599 159.674C218.888 159.674 218.594 159.359 218.594 158.614V154.848H220.173V153.528H218.594V151.696H216.864V153.528H215.702V154.848H216.864V159.018C216.864 160.46 217.568 161.034 219.284 161.034ZM225.601 161H227.303V156.646C227.303 155.524 227.932 154.813 228.943 154.813C229.976 154.813 230.447 155.401 230.447 156.563V161H232.149V156.167C232.149 154.39 231.24 153.385 229.572 153.385C228.492 153.385 227.774 153.87 227.419 154.67H227.303V153.528H225.601V161ZM237.386 161.15C239.621 161.15 240.981 159.688 240.981 157.268V157.254C240.981 154.848 239.614 153.385 237.386 153.385C235.164 153.385 233.79 154.854 233.79 157.254V157.268C233.79 159.688 235.144 161.15 237.386 161.15ZM237.386 159.77C236.203 159.77 235.526 158.847 235.526 157.274V157.261C235.526 155.688 236.203 154.759 237.386 154.759C238.562 154.759 239.238 155.688 239.238 157.261V157.274C239.238 158.847 238.568 159.77 237.386 159.77ZM243.812 161H245.575L247.024 155.586H247.141L248.597 161H250.381L252.404 153.528H250.716L249.479 159.141H249.362L247.913 153.528H246.293L244.857 159.141H244.741L243.497 153.528H241.788L243.812 161Z" fill="#40526D"/>
    <path d="M277 142C277 139.791 278.791 138 281 138H389C391.209 138 393 139.791 393 142V170C393 172.209 391.209 174 389 174H281C278.791 174 277 172.209 277 170V142Z" fill="#D32D27"/>
    <path d="M293.69 161H295.536L296.356 158.45H300.007L300.834 161H302.68L299.18 151.136H297.19L293.69 161ZM298.127 152.968H298.243L299.569 157.09H296.801L298.127 152.968ZM306.48 161.123C307.533 161.123 308.34 160.645 308.75 159.831H308.866V161H310.575V150.637H308.866V154.718H308.75C308.36 153.911 307.506 153.405 306.48 153.405C304.587 153.405 303.418 154.882 303.418 157.261V157.274C303.418 159.64 304.607 161.123 306.48 161.123ZM307.014 159.688C305.852 159.688 305.147 158.778 305.147 157.274V157.261C305.147 155.757 305.858 154.841 307.014 154.841C308.169 154.841 308.894 155.764 308.894 157.261V157.274C308.894 158.771 308.176 159.688 307.014 159.688ZM315.408 161.123C316.461 161.123 317.268 160.645 317.678 159.831H317.794V161H319.503V150.637H317.794V154.718H317.678C317.288 153.911 316.434 153.405 315.408 153.405C313.515 153.405 312.346 154.882 312.346 157.261V157.274C312.346 159.64 313.535 161.123 315.408 161.123ZM315.941 159.688C314.779 159.688 314.075 158.778 314.075 157.274V157.261C314.075 155.757 314.786 154.841 315.941 154.841C317.097 154.841 317.821 155.764 317.821 157.261V157.274C317.821 158.771 317.104 159.688 315.941 159.688ZM328.581 161.15C330.475 161.15 331.575 160.132 331.821 158.601L331.835 158.546L330.229 158.553L330.215 158.58C330.003 159.366 329.463 159.77 328.581 159.77C327.426 159.77 326.735 158.84 326.735 157.254V157.24C326.735 155.675 327.419 154.759 328.581 154.759C329.511 154.759 330.064 155.278 330.222 156.003L330.229 156.023H331.835V155.996C331.644 154.451 330.495 153.385 328.574 153.385C326.325 153.385 325.006 154.827 325.006 157.24V157.254C325.006 159.694 326.332 161.15 328.581 161.15ZM336.682 161.15C338.917 161.15 340.277 159.688 340.277 157.268V157.254C340.277 154.848 338.91 153.385 336.682 153.385C334.46 153.385 333.086 154.854 333.086 157.254V157.268C333.086 159.688 334.439 161.15 336.682 161.15ZM336.682 159.77C335.499 159.77 334.822 158.847 334.822 157.274V157.261C334.822 155.688 335.499 154.759 336.682 154.759C337.857 154.759 338.534 155.688 338.534 157.261V157.274C338.534 158.847 337.864 159.77 336.682 159.77ZM341.986 161H343.688V156.646C343.688 155.524 344.317 154.813 345.329 154.813C346.361 154.813 346.833 155.401 346.833 156.563V161H348.535V156.167C348.535 154.39 347.626 153.385 345.958 153.385C344.878 153.385 344.16 153.87 343.805 154.67H343.688V153.528H341.986V161ZM353.484 161.034C353.812 161.034 354.127 161.007 354.373 160.959V159.646C354.168 159.667 354.038 159.674 353.799 159.674C353.088 159.674 352.794 159.359 352.794 158.614V154.848H354.373V153.528H352.794V151.696H351.064V153.528H349.902V154.848H351.064V159.018C351.064 160.46 351.769 161.034 353.484 161.034ZM358.105 161.123C359.09 161.123 359.883 160.699 360.293 159.975H360.409V161H362.091V155.894C362.091 154.314 361.011 153.385 359.09 153.385C357.312 153.385 356.109 154.219 355.945 155.477L355.938 155.538H357.545L357.552 155.511C357.723 155.019 358.229 154.738 359.008 154.738C359.924 154.738 360.409 155.148 360.409 155.894V156.536L358.488 156.652C356.67 156.762 355.651 157.541 355.651 158.874V158.888C355.651 160.248 356.684 161.123 358.105 161.123ZM357.333 158.806V158.792C357.333 158.177 357.777 157.828 358.728 157.767L360.409 157.657V158.259C360.409 159.147 359.65 159.817 358.625 159.817C357.873 159.817 357.333 159.441 357.333 158.806ZM367.341 161.15C369.234 161.15 370.335 160.132 370.581 158.601L370.595 158.546L368.988 158.553L368.975 158.58C368.763 159.366 368.223 159.77 367.341 159.77C366.186 159.77 365.495 158.84 365.495 157.254V157.24C365.495 155.675 366.179 154.759 367.341 154.759C368.271 154.759 368.824 155.278 368.981 156.003L368.988 156.023H370.595V155.996C370.403 154.451 369.255 153.385 367.334 153.385C365.085 153.385 363.766 154.827 363.766 157.24V157.254C363.766 159.694 365.092 161.15 367.341 161.15ZM375.25 161.034C375.578 161.034 375.893 161.007 376.139 160.959V159.646C375.934 159.667 375.804 159.674 375.564 159.674C374.854 159.674 374.56 159.359 374.56 158.614V154.848H376.139V153.528H374.56V151.696H372.83V153.528H371.668V154.848H372.83V159.018C372.83 160.46 373.534 161.034 375.25 161.034Z" fill="white"/>
    <defs>
        <filter id="filter0_d" x="0" y="0" width="418" height="202" filterUnits="userSpaceOnUse" color-interpolation-filters="sRGB">
            <feFlood flood-opacity="0" result="BackgroundImageFix"/>
            <feColorMatrix in="SourceAlpha" type="matrix" values="0 0 0 0 0 0 0 0 0 0 0 0 0 0 0 0 0 0 127 0"/>
            <feOffset dy="3"/>
            <feGaussianBlur stdDeviation="4.5"/>
            <feColorMatrix type="matrix" values="0 0 0 0 0 0 0 0 0 0 0 0 0 0 0 0 0 0 0.3 0"/>
            <feBlend mode="normal" in2="BackgroundImageFix" result="effect1_dropShadow"/>
            <feBlend mode="normal" in="SourceGraphic" in2="effect1_dropShadow" result="shape"/>
        </filter>
        <clipPath id="clip0">
            <rect width="36" height="36" fill="white" transform="translate(37 74)"/>
        </clipPath>
        <clipPath id="clip1">
            <rect width="24" height="24" fill="white" transform="translate(43 80)"/>
        </clipPath>
    </defs>
</svg>
