<svg width="36" height="36" viewBox="0 0 36 36" fill="none" xmlns="http://www.w3.org/2000/svg">
<g clip-path="url(#clip0)">
<rect y="0.199951" width="36" height="36" rx="4" fill="#E7F7F2"/>
<g clip-path="url(#clip1)">
<path d="M26.15 10.04C26.0372 10.017 25.9359 9.95576 25.863 9.86668C25.7901 9.77759 25.7502 9.66609 25.75 9.551V8C25.75 7.46957 25.5393 6.96086 25.1642 6.58579C24.7891 6.21071 24.2804 6 23.75 6H11.25C10.4544 6 9.69129 6.31607 9.12868 6.87868C8.56607 7.44129 8.25 8.20435 8.25 9V27C8.25 27.7956 8.56607 28.5587 9.12868 29.1213C9.69129 29.6839 10.4544 30 11.25 30H25.75C26.2804 30 26.7891 29.7893 27.1642 29.4142C27.5393 29.0391 27.75 28.5304 27.75 28V12C27.7501 11.5389 27.5909 11.092 27.2993 10.7348C27.0078 10.3777 26.6017 10.1322 26.15 10.04ZM10.25 9C10.25 8.73478 10.3554 8.48043 10.5429 8.29289C10.7304 8.10536 10.9848 8 11.25 8H23.5C23.5663 8 23.6299 8.02634 23.6768 8.07322C23.7237 8.12011 23.75 8.1837 23.75 8.25V9.75C23.75 9.8163 23.7237 9.87989 23.6768 9.92678C23.6299 9.97366 23.5663 10 23.5 10H11.25C10.9848 10 10.7304 9.89464 10.5429 9.70711C10.3554 9.51957 10.25 9.26522 10.25 9ZM23.824 25.984C23.7771 26.0403 23.7184 26.0856 23.652 26.1167C23.5857 26.1478 23.5133 26.164 23.44 26.164H12.56C12.4868 26.1641 12.4145 26.1482 12.3482 26.1173C12.2818 26.0864 12.2231 26.0413 12.176 25.9852C12.129 25.9292 12.0949 25.8635 12.0761 25.7927C12.0572 25.722 12.0541 25.648 12.067 25.576C12.1568 25.0554 12.3204 24.5503 12.553 24.076C13 23.18 14.125 22.63 16.181 21.868C16.2674 21.6253 16.2646 21.3598 16.173 21.119C15.3683 20.1082 14.9705 18.8331 15.058 17.544C15.0372 17.1447 15.0978 16.7454 15.2363 16.3704C15.3747 15.9953 15.5881 15.6524 15.8633 15.3624C16.1385 15.0724 16.4699 14.8415 16.8372 14.6837C17.2046 14.5259 17.6002 14.4445 18 14.4445C18.3998 14.4445 18.7954 14.5259 19.1628 14.6837C19.5301 14.8415 19.8615 15.0724 20.1367 15.3624C20.4119 15.6524 20.6253 15.9953 20.7637 16.3704C20.9022 16.7454 20.9628 17.1447 20.942 17.544C21.0288 18.8434 20.6248 20.1281 19.81 21.144C19.7285 21.3846 19.7378 21.6467 19.836 21.881C21.875 22.632 23 23.181 23.447 24.081C23.6796 24.5553 23.8432 25.0604 23.933 25.581C23.9449 25.6521 23.9414 25.7249 23.9226 25.7944C23.9038 25.864 23.8701 25.9286 23.824 25.984Z" fill="#008A63"/>
</g>
</g>
<defs>
<clipPath id="clip0">
<rect width="36" height="36" fill="white"/>
</clipPath>
<clipPath id="clip1">
<rect width="24" height="24" fill="white" transform="translate(6 6)"/>
</clipPath>
</defs>
</svg>
