<svg width="24" height="22" viewBox="0 0 24 22" fill="none" xmlns="http://www.w3.org/2000/svg">
    <path d="M23.119 19L13.772 1.14998C13.6026 0.826723 13.348 0.555977 13.0357 0.367073C12.7234 0.178169 12.3654 0.0783081 12.0005 0.0783081C11.6355 0.0783081 11.2775 0.178169 10.9653 0.367073C10.653 0.555977 10.3984 0.826723 10.229 1.14998L0.880994 19C0.721315 19.3048 0.642998 19.6457 0.653617 19.9897C0.664235 20.3337 0.763431 20.6691 0.94161 20.9635C1.11979 21.2579 1.37092 21.5014 1.67073 21.6703C1.97053 21.8393 2.30886 21.928 2.65299 21.928H21.347C21.6911 21.928 22.0295 21.8393 22.3293 21.6703C22.6291 21.5014 22.8802 21.2579 23.0584 20.9635C23.2366 20.6691 23.3358 20.3337 23.3464 19.9897C23.357 19.6457 23.2787 19.3048 23.119 19ZM11 7.42298C11 7.15777 11.1054 6.90341 11.2929 6.71588C11.4804 6.52834 11.7348 6.42298 12 6.42298C12.2652 6.42298 12.5196 6.52834 12.7071 6.71588C12.8946 6.90341 13 7.15777 13 7.42298V13.423C13 13.6882 12.8946 13.9426 12.7071 14.1301C12.5196 14.3176 12.2652 14.423 12 14.423C11.7348 14.423 11.4804 14.3176 11.2929 14.1301C11.1054 13.9426 11 13.6882 11 13.423V7.42298ZM12.05 18.933H12.022C11.6276 18.9317 11.249 18.778 10.9654 18.5041C10.6817 18.2301 10.515 17.8571 10.5 17.463C10.4928 17.267 10.5247 17.0715 10.5939 16.888C10.6631 16.7045 10.7682 16.5366 10.903 16.3942C11.0378 16.2517 11.1996 16.1376 11.3791 16.0584C11.5585 15.9792 11.7519 15.9366 11.948 15.933H11.976C12.3703 15.9335 12.7491 16.0864 13.0332 16.3599C13.3172 16.6333 13.4845 17.006 13.5 17.4C13.5078 17.5964 13.4762 17.7924 13.4071 17.9765C13.338 18.1605 13.2328 18.3289 13.0977 18.4717C12.9626 18.6146 12.8004 18.7289 12.6204 18.8082C12.4405 18.8874 12.2466 18.9298 12.05 18.933Z" fill="#EDBF0E"/>
</svg>
