<svg width="20" height="20" viewBox="0 0 20 20" fill="none" xmlns="http://www.w3.org/2000/svg">
<path fill-rule="evenodd" clip-rule="evenodd" d="M9.99992 2.06848C10.2808 2.06848 10.5616 2.20765 10.7216 2.48515L18.9183 16.6818C19.2383 17.2368 18.8374 17.9318 18.1966 17.9318H1.80325C1.16242 17.9318 0.760755 17.2368 1.08159 16.6818L9.27825 2.48515C9.43825 2.20765 9.71909 2.06848 9.99992 2.06848ZM9.99992 4.56848L3.24659 16.2651H16.7533L9.99992 4.56848ZM9.99992 15.4166C9.53992 15.4166 9.16659 15.0433 9.16659 14.5833C9.16659 14.1233 9.53992 13.75 9.99992 13.75C10.4599 13.75 10.8333 14.1233 10.8333 14.5833C10.8333 15.0433 10.4599 15.4166 9.99992 15.4166ZM10.8333 12.0833C10.8333 12.5416 10.4583 12.9166 9.99992 12.9166C9.54159 12.9166 9.16659 12.5416 9.16659 12.0833V8.74998C9.16659 8.29165 9.54159 7.91665 9.99992 7.91665C10.4583 7.91665 10.8333 8.29165 10.8333 8.74998V12.0833Z" fill="#D32D27"/>
</svg>
