<svg width="36" height="36" viewBox="0 0 36 36" fill="none" xmlns="http://www.w3.org/2000/svg">
<g clip-path="url(#clip0)">
<path d="M0 0.000244141H35.9242V19.4341L34.146 22.2183L35.9242 24.6963V36.0002H0V17.6801L1.11134 16.3993L0 15.1743V0.000244141Z" fill="#016FD0"/>
<path d="M6.97461 25.0817V19.4297H12.9464L13.5871 20.2667L14.249 19.4297H35.9252V24.6919C35.9252 24.6919 35.3583 25.076 34.7027 25.0817H22.7001L21.9778 24.1907V25.0817H19.6106V23.5608C19.6106 23.5608 19.2872 23.7731 18.5882 23.7731H17.7824V25.0817H14.1984L13.5586 24.2267L12.9089 25.0817H6.97461Z" fill="white"/>
<path d="M0 15.1703L1.34666 12.0242H3.67557L4.43982 13.7865V12.0242H7.33487L7.78982 13.2979L8.23089 12.0242H21.2267V12.6645C21.2267 12.6645 21.9098 12.0242 23.0326 12.0242L27.2492 12.0389L28.0003 13.7782V12.0242H30.423L31.0898 13.0232V12.0242H33.5348V17.6761H31.0898L30.4508 16.6738V17.6761H26.8913L26.5333 16.7852H25.5764L25.2243 17.6761H22.8103C21.8442 17.6761 21.2267 17.0488 21.2267 17.0488V17.6761H17.587L16.8646 16.7852V17.6761H3.33056L2.97284 16.7852H2.01897L1.66379 17.6761H0V15.1703Z" fill="white"/>
<path d="M1.81635 12.7159L0 16.948H1.18254L1.51768 16.1005H3.466L3.79941 16.948H5.00799L3.19338 12.7159H1.81635ZM2.48837 13.7009L3.08224 15.1817H1.89276L2.48837 13.7009V13.7009Z" fill="#016FD0"/>
<path d="M5.15625 16.9479V12.7158L6.83671 12.7221L7.81412 15.4506L8.76812 12.7158H10.4351V16.9479H9.37936V13.8295L8.26022 16.9479H7.3343L6.21203 13.8295V16.9479H5.15625Z" fill="#016FD0"/>
<path d="M11.1533 16.9479V12.7158H14.5985V13.6625H12.2202V14.3864H14.5429V15.2773H12.2202V16.0291H14.5985V16.9479H11.1533Z" fill="#016FD0"/>
<path d="M15.2236 12.7158V16.9479H16.2794V15.4444H16.7239L17.9898 16.9479H19.28L17.8908 15.3887C18.461 15.3405 19.0491 14.8501 19.0491 14.0888C19.0491 13.1982 18.3516 12.7158 17.5731 12.7158H15.2236V12.7158ZM16.2794 13.6625H17.4863C17.7758 13.6625 17.9864 13.8894 17.9864 14.1079C17.9864 14.3891 17.7135 14.5534 17.5019 14.5534H16.2794V13.6625V13.6625Z" fill="#016FD0"/>
<path d="M20.5356 16.9479H19.458V12.7158H20.5356V16.9479Z" fill="#016FD0"/>
<path d="M23.1007 16.9479H22.868C21.7422 16.9479 21.0586 16.059 21.0586 14.8492C21.0586 13.6096 21.7345 12.7158 23.1563 12.7158H24.3232V13.7181H23.1136C22.5365 13.7181 22.1283 14.1695 22.1283 14.8597C22.1283 15.6793 22.595 16.0235 23.2674 16.0235H23.5452L23.1007 16.9479Z" fill="#016FD0"/>
<path d="M25.371 12.7158L23.5547 16.9479H24.7372L25.0724 16.1004H27.0207L27.3541 16.9479H28.5627L26.7481 12.7158H25.371ZM26.0431 13.7007L26.6369 15.1816H25.4474L26.0431 13.7007Z" fill="#016FD0"/>
<path d="M28.7109 16.9479V12.7158H30.0532L31.7672 15.3748V12.7158H32.823V16.9479H31.5241L29.7667 14.2193V16.9479H28.7109Z" fill="#016FD0"/>
<path d="M7.67969 24.3535V20.1215H11.1248V21.0681H8.74657V21.792H11.0693V22.6829H8.74657V23.4347H11.1248V24.3535H7.67969Z" fill="#016FD0"/>
<path d="M24.5586 24.3535V20.1215H28.0037V21.0681H25.6255V21.792H27.9371V22.6829H25.6255V23.4347H28.0037V24.3535H24.5586Z" fill="#016FD0"/>
<path d="M11.2743 24.3535L12.9518 22.2636L11.2344 20.1215H12.5645L13.5873 21.4457L14.6136 20.1215H15.8916L14.1968 22.2375L15.8773 24.3535H14.5474L13.5543 23.0501L12.5854 24.3535H11.2743Z" fill="#016FD0"/>
<path d="M16.0107 20.1283V24.3603H17.0943V23.0239H18.2057C19.146 23.0239 19.8588 22.524 19.8588 21.5517C19.8588 20.7463 19.2998 20.1283 18.3428 20.1283H16.0107V20.1283ZM17.0943 21.0854H18.2647C18.5685 21.0854 18.7856 21.272 18.7856 21.5726C18.7856 21.8551 18.5696 22.0598 18.2612 22.0598H17.0943V21.0854Z" fill="#016FD0"/>
<path d="M20.3262 20.1215V24.3535H21.3819V22.85H21.8265L23.0924 24.3535H24.3825L22.9934 22.7943C23.5635 22.7461 24.1516 22.2557 24.1516 21.4944C24.1516 20.6039 23.4541 20.1215 22.6756 20.1215H20.3262V20.1215ZM21.3819 21.0681H22.5888C22.8783 21.0681 23.0889 21.295 23.0889 21.5136C23.0889 21.7947 22.816 21.959 22.6044 21.959H21.3819V21.0681V21.0681Z" fill="#016FD0"/>
<path d="M28.4925 24.3535V23.4347H30.6054C30.918 23.4347 31.0534 23.2654 31.0534 23.0797C31.0534 22.9018 30.9184 22.7219 30.6054 22.7219H29.6506C28.8206 22.7219 28.3584 22.2152 28.3584 21.4544C28.3584 20.7758 28.7817 20.1215 30.015 20.1215H32.0709L31.6264 21.0737H29.8483C29.5084 21.0737 29.4037 21.2524 29.4037 21.4231C29.4037 21.5985 29.533 21.792 29.7927 21.792H30.7929C31.7181 21.792 32.1196 22.3179 32.1196 23.0066C32.1196 23.747 31.6722 24.3535 30.7425 24.3535H28.4925Z" fill="#016FD0"/>
<path d="M32.3723 24.3535V23.4347H34.4853C34.798 23.4347 34.9333 23.2654 34.9333 23.0797C34.9333 22.9018 34.7984 22.7219 34.4853 22.7219H33.5305C32.7005 22.7219 32.2383 22.2152 32.2383 21.4544C32.2383 20.7758 32.6616 20.1215 33.8949 20.1215H35.9509L35.5064 21.0737H33.7282C33.3883 21.0737 33.2837 21.2524 33.2837 21.4231C33.2837 21.5985 33.413 21.792 33.6726 21.792H34.6729C35.5981 21.792 35.9995 22.3179 35.9995 23.0066C35.9995 23.747 35.5522 24.3535 34.6225 24.3535H32.3723Z" fill="#016FD0"/>
</g>
<defs>
<clipPath id="clip0">
<path d="M0 3C0 1.34315 1.34315 0 3 0H33C34.6569 0 36 1.34315 36 3V33C36 34.6569 34.6569 36 33 36H3C1.34315 36 0 34.6569 0 33V3Z" fill="white"/>
</clipPath>
</defs>
</svg>
