<svg width="140" height="40" viewBox="0 0 140 40" fill="none" xmlns="http://www.w3.org/2000/svg">
    <path d="M140 35.9904C140 38.2056 138.198 40 135.969 40H4.03674C1.8086 40 0 38.2056 0 35.9904V4.01487C0 1.80067 1.8086 0 4.03674 0H135.967C138.198 0 139.999 1.80067 139.999 4.01487L140 35.9904Z" fill="black"/>
    <path d="M30.744 19.7812C30.7135 16.4071 33.5189 14.7655 33.6472 14.6891C32.0583 12.3828 29.5957 12.0677 28.7303 12.0425C26.662 11.8258 24.6557 13.2747 23.6021 13.2747C22.5275 13.2747 20.905 12.0635 19.1563 12.0991C16.9061 12.1336 14.801 13.4307 13.6464 15.445C11.2637 19.552 13.0407 25.5873 15.3236 28.9071C16.4655 30.5329 17.7999 32.3482 19.5464 32.2844C21.2551 32.2142 21.8934 31.1998 23.9554 31.1998C25.9985 31.1998 26.5979 32.2844 28.3791 32.2435C30.2129 32.2142 31.3675 30.6104 32.4695 28.9699C33.7891 27.1064 34.3191 25.2712 34.3401 25.177C34.297 25.1623 30.7787 23.8254 30.744 19.7812Z" fill="white"/>
    <path d="M27.3788 9.85817C28.2978 8.71391 28.9266 7.15717 28.7521 5.57739C27.4219 5.63602 25.7584 6.49343 24.8005 7.61257C23.953 8.59875 23.1959 10.2152 23.3915 11.7353C24.8857 11.8462 26.4198 10.9846 27.3788 9.85817Z" fill="white"/>
    <path d="M55.4719 32.0508H53.0839L51.7759 27.9585H47.2291L45.9831 32.0508H43.6582L48.1629 18.1187H50.9452L55.4719 32.0508ZM51.3815 26.2416L50.1986 22.6036C50.0735 22.2319 49.839 21.3567 49.493 19.979H49.451C49.3132 20.5715 49.0913 21.4468 48.7864 22.6036L47.6245 26.2416H51.3815Z" fill="white"/>
    <path d="M67.0568 26.9045C67.0568 28.613 66.5931 29.9635 65.6657 30.955C64.835 31.8375 63.8035 32.2782 62.5721 32.2782C61.243 32.2782 60.2883 31.803 59.7068 30.8524H59.6647V36.1445H57.4229V25.3122C57.4229 24.238 57.3945 23.1357 57.3398 22.005H59.3114L59.4366 23.5973H59.4786C60.2262 22.3976 61.3608 21.7988 62.8834 21.7988C64.0737 21.7988 65.0674 22.2667 65.8623 23.2037C66.6594 24.1417 67.0568 25.375 67.0568 26.9045ZM64.773 26.9862C64.773 26.0084 64.5521 25.2022 64.1084 24.5678C63.6237 23.9062 62.9728 23.5754 62.1568 23.5754C61.6037 23.5754 61.1011 23.7596 60.6521 24.1229C60.202 24.4893 59.9076 24.9677 59.7699 25.5603C59.7005 25.8367 59.6658 26.0628 59.6658 26.2408V27.9158C59.6658 28.6465 59.8908 29.2632 60.3408 29.7667C60.7909 30.2703 61.3755 30.5215 62.0948 30.5215C62.9391 30.5215 63.5963 30.197 64.0663 29.55C64.5374 28.902 64.773 28.0477 64.773 26.9862Z" fill="white"/>
    <path d="M78.662 26.9045C78.662 28.613 78.1983 29.9635 77.2698 30.955C76.4402 31.8375 75.4086 32.2782 74.1773 32.2782C72.8482 32.2782 71.8934 31.803 71.313 30.8524H71.2709V36.1445H69.0291V25.3122C69.0291 24.238 69.0007 23.1357 68.946 22.005H70.9176L71.0428 23.5973H71.0848C71.8314 22.3976 72.966 21.7988 74.4896 21.7988C75.6789 21.7988 76.6725 22.2667 77.4696 23.2037C78.2635 24.1417 78.662 25.375 78.662 26.9045ZM76.3781 26.9862C76.3781 26.0084 76.1562 25.2022 75.7125 24.5678C75.2278 23.9062 74.579 23.5754 73.762 23.5754C73.2078 23.5754 72.7062 23.7596 72.2562 24.1229C71.8062 24.4893 71.5128 24.9677 71.375 25.5603C71.3067 25.8367 71.2709 26.0628 71.2709 26.2408V27.9158C71.2709 28.6465 71.496 29.2632 71.9439 29.7667C72.3939 30.2692 72.9786 30.5215 73.6999 30.5215C74.5443 30.5215 75.2015 30.197 75.6715 29.55C76.1426 28.902 76.3781 28.0477 76.3781 26.9862Z" fill="white"/>
    <path d="M91.6377 28.1433C91.6377 29.3284 91.2244 30.2926 90.3948 31.037C89.4831 31.8504 88.214 32.2566 86.5831 32.2566C85.0773 32.2566 83.8702 31.9677 82.9564 31.3887L83.4759 29.5284C84.4601 30.1209 85.54 30.4182 86.7166 30.4182C87.561 30.4182 88.2182 30.2277 88.6903 29.8487C89.1603 29.4698 89.3948 28.961 89.3948 28.3265C89.3948 27.7612 89.2013 27.2849 88.8133 26.8986C88.4274 26.5123 87.7829 26.1532 86.8828 25.8213C84.4327 24.9116 83.2088 23.5788 83.2088 21.8263C83.2088 20.681 83.6378 19.742 84.4969 19.0112C85.3528 18.2794 86.4947 17.9141 87.9227 17.9141C89.1961 17.9141 90.2539 18.135 91.0983 18.5757L90.5378 20.3952C89.7492 19.9681 88.8575 19.7545 87.8596 19.7545C87.071 19.7545 86.4548 19.9482 86.0132 20.3335C85.6399 20.6779 85.4527 21.0977 85.4527 21.595C85.4527 22.1456 85.6662 22.601 86.0952 22.9591C86.4685 23.2899 87.1467 23.6479 88.1309 24.0342C89.3349 24.5169 90.2192 25.0811 90.7881 25.7281C91.3548 26.373 91.6377 27.1802 91.6377 28.1433Z" fill="white"/>
    <path d="M99.0495 23.6798H96.5785V28.5573C96.5785 29.7979 97.0138 30.4176 97.8866 30.4176C98.2872 30.4176 98.6195 30.3831 98.8824 30.314L98.9444 32.0089C98.5028 32.1733 97.9213 32.256 97.201 32.256C96.3156 32.256 95.6237 31.9869 95.1243 31.4499C94.6269 30.9118 94.3766 30.0093 94.3766 28.7415V23.6777H92.9045V22.0026H94.3766V20.1632L96.5785 19.5016V22.0026H99.0495V23.6798Z" fill="white"/>
    <path d="M110.199 26.9443C110.199 28.4885 109.755 29.7563 108.87 30.7477C107.941 31.7684 106.709 32.2772 105.173 32.2772C103.692 32.2772 102.514 31.7883 101.635 30.8105C100.755 29.8327 100.316 28.5984 100.316 27.1107C100.316 25.554 100.768 24.2789 101.676 23.2875C102.581 22.295 103.803 21.7988 105.339 21.7988C106.82 21.7988 108.011 22.2877 108.91 23.2665C109.77 24.2161 110.199 25.442 110.199 26.9443ZM107.873 27.0165C107.873 26.09 107.674 25.2954 107.272 24.6327C106.802 23.8308 106.13 23.4309 105.259 23.4309C104.358 23.4309 103.673 23.8318 103.203 24.6327C102.801 25.2965 102.602 26.1036 102.602 27.0584C102.602 27.9849 102.801 28.7795 103.203 29.4411C103.688 30.2431 104.365 30.643 105.239 30.643C106.095 30.643 106.767 30.2347 107.252 29.4202C107.665 28.745 107.873 27.942 107.873 27.0165Z" fill="white"/>
    <path d="M117.486 23.9679C117.264 23.9271 117.028 23.9062 116.78 23.9062C115.991 23.9062 115.381 24.2025 114.952 24.796C114.579 25.3195 114.392 25.9811 114.392 26.7799V32.0511H112.151L112.172 25.1687C112.172 24.0109 112.144 22.9566 112.088 22.0061H114.041L114.123 23.9282H114.185C114.421 23.2676 114.794 22.7357 115.306 22.3369C115.805 21.9778 116.344 21.7988 116.926 21.7988C117.133 21.7988 117.32 21.8134 117.486 21.8396V23.9679Z" fill="white"/>
    <path d="M127.512 26.5521C127.512 26.952 127.486 27.2891 127.43 27.5645H120.704C120.731 28.5569 121.056 29.3159 121.68 29.8394C122.247 30.3074 122.98 30.5419 123.88 30.5419C124.876 30.5419 125.784 30.3838 126.601 30.0666L126.953 31.616C125.998 32.0306 124.871 32.2368 123.57 32.2368C122.005 32.2368 120.777 31.7782 119.883 30.8622C118.992 29.9462 118.545 28.7161 118.545 27.1729C118.545 25.6581 118.96 24.3965 119.792 23.3905C120.662 22.3164 121.839 21.7793 123.32 21.7793C124.774 21.7793 125.875 22.3164 126.622 23.3905C127.214 24.2437 127.512 25.299 127.512 26.5521ZM125.374 25.9732C125.389 25.3115 125.243 24.7399 124.939 24.2573C124.551 23.6365 123.955 23.3266 123.152 23.3266C122.419 23.3266 121.823 23.6292 121.368 24.2364C120.995 24.719 120.773 25.2979 120.704 25.9721H125.374V25.9732Z" fill="white"/>
    <path d="M50.6398 9.54871C50.6398 10.7809 50.2686 11.7085 49.5273 12.3314C48.8407 12.9061 47.8649 13.194 46.601 13.194C45.9743 13.194 45.438 13.1668 44.989 13.1124V6.37974C45.5747 6.28552 46.2056 6.23737 46.887 6.23737C48.091 6.23737 48.9984 6.49804 49.6104 7.0194C50.296 7.60881 50.6398 8.45156 50.6398 9.54871ZM49.4779 9.57907C49.4779 8.78029 49.2655 8.16785 48.8407 7.74071C48.4159 7.31463 47.7955 7.10106 46.9785 7.10106C46.6315 7.10106 46.336 7.12409 46.091 7.17225V12.2905C46.2266 12.3115 46.4748 12.3209 46.8355 12.3209C47.6788 12.3209 48.3297 12.0874 48.7881 11.6205C49.2466 11.1536 49.4779 10.4731 49.4779 9.57907Z" fill="white"/>
    <path d="M56.8006 10.6232C56.8006 11.3822 56.583 12.0041 56.1476 12.4919C55.6913 12.9934 55.0867 13.2436 54.3317 13.2436C53.604 13.2436 53.0247 13.0039 52.5925 12.5223C52.1614 12.0418 51.9458 11.4356 51.9458 10.7049C51.9458 9.94065 52.1677 9.31355 52.6135 8.82675C53.0593 8.33994 53.6587 8.09601 54.4137 8.09601C55.1413 8.09601 55.726 8.33575 56.1687 8.81628C56.5893 9.28319 56.8006 9.88621 56.8006 10.6232ZM55.6576 10.6588C55.6576 10.2034 55.5588 9.81293 55.3622 9.48734C55.1308 9.0937 54.8017 8.89689 54.3737 8.89689C53.9311 8.89689 53.5946 9.0937 53.3632 9.48734C53.1656 9.81293 53.0678 10.2097 53.0678 10.6787C53.0678 11.1341 53.1666 11.5246 53.3632 11.8502C53.6019 12.2438 53.9342 12.4406 54.3632 12.4406C54.7838 12.4406 55.114 12.2407 55.3516 11.8397C55.5556 11.5079 55.6576 11.1142 55.6576 10.6588Z" fill="white"/>
    <path d="M65.061 8.19666L63.51 13.1317H62.5005L61.8581 10.9887C61.6951 10.4538 61.5626 9.92195 61.4595 9.39431H61.4396C61.3439 9.9366 61.2114 10.4674 61.041 10.9887L60.3586 13.1317H59.3376L57.8792 8.19666H59.0116L59.5721 10.5428C59.7077 11.0976 59.8192 11.6263 59.9086 12.1267H59.9285C60.0106 11.7142 60.1462 11.1887 60.3376 10.5532L61.041 8.1977H61.939L62.613 10.503C62.776 11.0652 62.9085 11.6064 63.0105 12.1278H63.041C63.1157 11.62 63.2282 11.0788 63.3775 10.503L63.979 8.1977H65.061V8.19666Z" fill="white"/>
    <path d="M70.7745 13.1308H69.6725V10.3042C69.6725 9.43318 69.3403 8.99767 68.6736 8.99767C68.3466 8.99767 68.0827 9.11702 67.8776 9.35676C67.6747 9.5965 67.5716 9.87916 67.5716 10.2027V13.1298H66.4696V9.60592C66.4696 9.1725 66.456 8.70245 66.4297 8.19365H67.3981L67.4497 8.96522H67.4801C67.6084 8.72548 67.7998 8.52761 68.0511 8.36953C68.3497 8.18528 68.6841 8.0921 69.05 8.0921C69.5127 8.0921 69.8976 8.24076 70.2036 8.53913C70.5842 8.9045 70.7745 9.44993 70.7745 10.1744V13.1308Z" fill="white"/>
    <path d="M73.8131 13.1314H72.7122V5.93182H73.8131V13.1314Z" fill="white"/>
    <path d="M80.3006 10.6232C80.3006 11.3822 80.083 12.0041 79.6476 12.4919C79.1913 12.9934 78.5856 13.2436 77.8317 13.2436C77.103 13.2436 76.5236 13.0039 76.0925 12.5223C75.6614 12.0418 75.4458 11.4356 75.4458 10.7049C75.4458 9.94065 75.6677 9.31355 76.1135 8.82675C76.5594 8.33994 77.1587 8.09601 77.9126 8.09601C78.6413 8.09601 79.2249 8.33575 79.6687 8.81628C80.0893 9.28319 80.3006 9.88621 80.3006 10.6232ZM79.1566 10.6588C79.1566 10.2034 79.0577 9.81293 78.8611 9.48734C78.6308 9.0937 78.3006 8.89689 77.8737 8.89689C77.43 8.89689 77.0935 9.0937 76.8632 9.48734C76.6655 9.81293 76.5678 10.2097 76.5678 10.6787C76.5678 11.1341 76.6666 11.5246 76.8632 11.8502C77.1019 12.2438 77.4342 12.4406 77.8632 12.4406C78.2838 12.4406 78.6129 12.2407 78.8506 11.8397C79.0556 11.5079 79.1566 11.1142 79.1566 10.6588Z" fill="white"/>
    <path d="M85.6343 13.1316H84.6448L84.5628 12.5631H84.5323C84.1937 13.0164 83.7111 13.2436 83.0844 13.2436C82.6164 13.2436 82.2379 13.0939 81.953 12.7966C81.6943 12.5265 81.5649 12.1904 81.5649 11.7916C81.5649 11.1886 81.8173 10.729 82.3252 10.4107C82.832 10.0924 83.5449 9.93646 84.4629 9.94379V9.85166C84.4629 9.20154 84.1201 8.877 83.4335 8.877C82.9445 8.877 82.5134 8.99948 82.1412 9.24237L81.9172 8.5221C82.3778 8.23839 82.9466 8.09601 83.6175 8.09601C84.9129 8.09601 85.5628 8.77649 85.5628 10.1375V11.9549C85.5628 12.448 85.587 12.8406 85.6343 13.1316ZM84.4902 11.4356V10.6745C83.2747 10.6536 82.6669 10.9855 82.6669 11.6691C82.6669 11.9266 82.7363 12.1192 82.8783 12.248C83.0202 12.3768 83.2011 12.4406 83.4166 12.4406C83.6585 12.4406 83.8846 12.3642 84.0907 12.2124C84.2978 12.0596 84.425 11.8659 84.4724 11.6283C84.4839 11.5749 84.4902 11.51 84.4902 11.4356Z" fill="white"/>
    <path d="M91.8959 13.1314H90.918L90.8664 12.3389H90.8359C90.5236 12.9419 89.9916 13.2434 89.2439 13.2434C88.6467 13.2434 88.1493 13.0099 87.755 12.543C87.3607 12.0761 87.1641 11.4699 87.1641 10.7256C87.1641 9.9268 87.3775 9.27981 87.8065 8.78568C88.2219 8.32504 88.7308 8.09472 89.3365 8.09472C90.0021 8.09472 90.4679 8.31771 90.7329 8.76474H90.7539V5.93182H91.857V11.8018C91.857 12.2823 91.8696 12.7252 91.8959 13.1314ZM90.7539 11.0501V10.2273C90.7539 10.0849 90.7434 9.96972 90.7234 9.88178C90.6614 9.61796 90.5278 9.39602 90.3249 9.217C90.1199 9.03798 89.8727 8.94795 89.5878 8.94795C89.1766 8.94795 88.8549 9.11022 88.6183 9.4358C88.3838 9.76139 88.265 10.177 88.265 10.6848C88.265 11.1726 88.3775 11.5683 88.6036 11.873C88.8423 12.1975 89.164 12.3598 89.5668 12.3598C89.9285 12.3598 90.2176 12.2247 90.4374 11.9536C90.6498 11.7034 90.7539 11.4019 90.7539 11.0501Z" fill="white"/>
    <path d="M101.321 10.6232C101.321 11.3822 101.103 12.0041 100.668 12.4919C100.211 12.9934 99.6077 13.2436 98.8517 13.2436C98.1251 13.2436 97.5457 13.0039 97.1125 12.5223C96.6814 12.0418 96.4658 11.4356 96.4658 10.7049C96.4658 9.94065 96.6877 9.31355 97.1335 8.82675C97.5794 8.33994 98.1787 8.09601 98.9348 8.09601C99.6614 8.09601 100.247 8.33575 100.689 8.81628C101.109 9.28319 101.321 9.88621 101.321 10.6232ZM100.179 10.6588C100.179 10.2034 100.08 9.81293 99.8832 9.48734C99.6508 9.0937 99.3228 8.89689 98.8938 8.89689C98.4521 8.89689 98.1156 9.0937 97.8833 9.48734C97.6856 9.81293 97.5878 10.2097 97.5878 10.6787C97.5878 11.1341 97.6866 11.5246 97.8833 11.8502C98.1219 12.2438 98.4542 12.4406 98.8832 12.4406C99.3038 12.4406 99.6351 12.2407 99.8727 11.8397C100.076 11.5079 100.179 11.1142 100.179 10.6588Z" fill="white"/>
    <path d="M107.246 13.1308H106.145V10.3042C106.145 9.43318 105.813 8.99767 105.145 8.99767C104.818 8.99767 104.554 9.11702 104.35 9.35676C104.146 9.5965 104.044 9.87916 104.044 10.2027V13.1298H102.941V9.60592C102.941 9.1725 102.929 8.70245 102.902 8.19365H103.87L103.921 8.96522H103.952C104.081 8.72548 104.272 8.52761 104.523 8.36953C104.822 8.18528 105.156 8.0921 105.523 8.0921C105.984 8.0921 106.369 8.24076 106.675 8.53913C107.057 8.9045 107.246 9.44993 107.246 10.1744V13.1308Z" fill="white"/>
    <path d="M114.662 9.01798H113.449V11.4154C113.449 12.0247 113.664 12.3293 114.091 12.3293C114.289 12.3293 114.453 12.3126 114.582 12.278L114.61 13.1103C114.393 13.192 114.107 13.2328 113.754 13.2328C113.319 13.2328 112.981 13.1009 112.736 12.8371C112.49 12.5733 112.368 12.1294 112.368 11.5065V9.01798H111.643V8.19616H112.368V7.29164L113.447 6.9671V8.19512H114.661V9.01798H114.662Z" fill="white"/>
    <path d="M120.496 13.1314H119.393V10.3257C119.393 9.44104 119.061 8.9982 118.395 8.9982C117.884 8.9982 117.535 9.25469 117.343 9.76767C117.311 9.8755 117.292 10.0074 117.292 10.1624V13.1303H116.191V5.93182H117.292V8.90607H117.313C117.66 8.36482 118.157 8.09472 118.802 8.09472C119.258 8.09472 119.636 8.24338 119.935 8.54175C120.309 8.9134 120.496 9.46616 120.496 10.1969V13.1314Z" fill="white"/>
    <path d="M126.513 10.4312C126.513 10.628 126.499 10.7935 126.472 10.9285H123.167C123.182 11.4164 123.34 11.788 123.646 12.0456C123.926 12.2759 124.286 12.391 124.728 12.391C125.217 12.391 125.663 12.3136 126.064 12.1576L126.237 12.9197C125.767 13.1228 125.214 13.2244 124.573 13.2244C123.806 13.2244 123.201 12.9993 122.764 12.5491C122.324 12.0989 122.106 11.4949 122.106 10.7369C122.106 9.99258 122.309 9.37281 122.718 8.87868C123.145 8.35104 123.723 8.08722 124.451 8.08722C125.164 8.08722 125.706 8.35104 126.072 8.87868C126.367 9.29744 126.513 9.81565 126.513 10.4312ZM125.462 10.1475C125.47 9.82193 125.398 9.54137 125.248 9.30477C125.057 9.00012 124.766 8.84727 124.371 8.84727C124.012 8.84727 123.718 8.99593 123.494 9.2943C123.311 9.53194 123.203 9.81565 123.167 10.1475H125.462Z" fill="white"/>
</svg>
