<svg width="12" height="8" viewBox="0 0 12 8" fill="none" xmlns="http://www.w3.org/2000/svg">
<path d="M5.99998 7.74976C5.83643 7.74996 5.67473 7.71528 5.52565 7.64803C5.37658 7.58077 5.24356 7.4825 5.13548 7.35976L0.229978 1.78376C0.0749328 1.59898 -0.00166706 1.36088 0.0165578 1.12036C0.0347826 0.879847 0.146386 0.656006 0.327503 0.496704C0.50862 0.337401 0.744876 0.255283 0.985752 0.267907C1.22663 0.280531 1.45301 0.386896 1.61648 0.564258L5.90598 5.44026C5.91771 5.45364 5.93216 5.46437 5.94838 5.47171C5.96459 5.47906 5.98218 5.48286 5.99998 5.48286C6.01778 5.48286 6.03537 5.47906 6.05158 5.47171C6.06779 5.46437 6.08225 5.45364 6.09398 5.44026L10.3835 0.564258C10.4626 0.469971 10.5598 0.39245 10.6693 0.336253C10.7788 0.280055 10.8984 0.246315 11.0211 0.237015C11.1439 0.227715 11.2672 0.243043 11.3839 0.282098C11.5007 0.321154 11.6084 0.383148 11.7008 0.464437C11.7933 0.545727 11.8685 0.644671 11.9221 0.755455C11.9758 0.866238 12.0067 0.986626 12.0132 1.10954C12.0196 1.23246 12.0014 1.35542 11.9596 1.4712C11.9179 1.58699 11.8534 1.69325 11.77 1.78376L6.86598 7.35776C6.75771 7.4808 6.62449 7.57939 6.47518 7.64698C6.32586 7.71457 6.16388 7.7496 5.99998 7.74976Z" fill="#40526D"/>
</svg>
