<svg width="12" height="8" viewBox="0 0 12 8" fill="none" xmlns="http://www.w3.org/2000/svg">
<path d="M6.00002 0.250242C6.16357 0.25004 6.32527 0.284722 6.47435 0.351974C6.62342 0.419226 6.75644 0.517502 6.86452 0.640242L11.77 6.21624C11.9251 6.40102 12.0017 6.63912 11.9834 6.87964C11.9652 7.12015 11.8536 7.34399 11.6725 7.5033C11.4914 7.6626 11.2551 7.74472 11.0142 7.73209C10.7734 7.71947 10.547 7.6131 10.3835 7.43574L6.09402 2.55974C6.08229 2.54636 6.06784 2.53563 6.05162 2.52829C6.03541 2.52094 6.01782 2.51714 6.00002 2.51714C5.98222 2.51714 5.96463 2.52094 5.94842 2.52829C5.93221 2.53563 5.91775 2.54636 5.90602 2.55974L1.61652 7.43574C1.53741 7.53003 1.44024 7.60755 1.33073 7.66375C1.22123 7.71994 1.10159 7.75369 0.978859 7.76299C0.856127 7.77228 0.732774 7.75696 0.616051 7.7179C0.499328 7.67885 0.391588 7.61685 0.299167 7.53556C0.206745 7.45427 0.131507 7.35533 0.0778723 7.24455C0.0242376 7.13376 -0.00671005 7.01337 -0.0131521 6.89046C-0.0195942 6.76754 -0.00139999 6.64458 0.0403605 6.5288C0.0821209 6.41301 0.146604 6.30675 0.230021 6.21624L5.13402 0.642242C5.24229 0.519199 5.37551 0.420608 5.52482 0.35302C5.67414 0.285433 5.83612 0.250397 6.00002 0.250242Z" fill="#40526D"/>
</svg>
