<svg width="14" height="14" viewBox="0 0 14 14" fill="none" xmlns="http://www.w3.org/2000/svg">
<g clip-path="url(#clip0)">
<path d="M13.153 6.16052H3.1716C3.14208 6.16024 3.11333 6.15103 3.08913 6.13412C3.06493 6.1172 3.0464 6.09336 3.036 6.06573C3.02559 6.0381 3.02377 6.00796 3.0308 5.97928C3.03782 5.9506 3.05335 5.92472 3.07535 5.90502L8.1136 1.47169C8.272 1.32235 8.36623 1.11735 8.37644 0.899901C8.38664 0.682448 8.31203 0.469524 8.16833 0.306003C8.02462 0.142483 7.82305 0.0411374 7.60609 0.023326C7.38912 0.00551464 7.17372 0.0726284 7.00527 0.210523L0.48302 5.94994C0.334051 6.08132 0.214742 6.24289 0.13302 6.42393C0.0512981 6.60496 0.0090332 6.80131 0.0090332 6.99994C0.0090332 7.19857 0.0512981 7.39492 0.13302 7.57595C0.214742 7.75699 0.334051 7.91856 0.48302 8.04994L7.0041 13.7882C7.17269 13.9244 7.38737 13.9901 7.60329 13.9717C7.81921 13.9533 8.01967 13.8521 8.16276 13.6894C8.30585 13.5266 8.3805 13.3149 8.37113 13.0984C8.36175 12.8819 8.26906 12.6774 8.11244 12.5276L3.07419 8.09427C3.05219 8.07458 3.03666 8.04869 3.02963 8.02001C3.02261 7.99133 3.02442 7.9612 3.03483 7.93357C3.04524 7.90593 3.06376 7.8821 3.08796 7.86518C3.11216 7.84826 3.14091 7.83906 3.17044 7.83877H13.153C13.3719 7.833 13.5799 7.742 13.7326 7.58516C13.8854 7.42831 13.9709 7.21801 13.9709 6.99906C13.9709 6.78012 13.8854 6.56982 13.7326 6.41297C13.5799 6.25613 13.3719 6.16513 13.153 6.15936V6.16052Z" fill="#526278"/>
</g>
<defs>
<clipPath id="clip0">
<rect width="14" height="14" fill="white"/>
</clipPath>
</defs>
</svg>
