<svg width="14" height="14" viewBox="0 0 14 14" fill="none" xmlns="http://www.w3.org/2000/svg">
    <g clip-path="url(#clip0)">
        <path d="M13.1528 6.16052H3.17136C3.14183 6.16024 3.11308 6.15103 3.08888 6.13412C3.06468 6.1172 3.04616 6.09336 3.03575 6.06573C3.02534 6.0381 3.02353 6.00796 3.03055 5.97928C3.03758 5.9506 3.05311 5.92472 3.07511 5.90502L8.11336 1.47169C8.27175 1.32235 8.36598 1.11735 8.37619 0.899901C8.3864 0.682448 8.31179 0.469524 8.16808 0.306003C8.02438 0.142483 7.82281 0.0411374 7.60584 0.023326C7.38888 0.00551464 7.17348 0.0726284 7.00503 0.210523L0.482776 5.94994C0.333807 6.08132 0.214498 6.24289 0.132776 6.42393C0.051054 6.60496 0.00878906 6.80131 0.00878906 6.99994C0.00878906 7.19857 0.051054 7.39492 0.132776 7.57595C0.214498 7.75699 0.333807 7.91856 0.482776 8.04994L7.00386 13.7882C7.17244 13.9244 7.38713 13.9901 7.60305 13.9717C7.81897 13.9533 8.01942 13.8521 8.16251 13.6894C8.3056 13.5266 8.38026 13.3149 8.37088 13.0984C8.36151 12.8819 8.26882 12.6774 8.11219 12.5276L3.07394 8.09427C3.05194 8.07458 3.03641 8.04869 3.02939 8.02001C3.02236 7.99133 3.02418 7.9612 3.03458 7.93357C3.04499 7.90594 3.06351 7.8821 3.08772 7.86518C3.11192 7.84826 3.14067 7.83906 3.17019 7.83877H13.1528C13.3716 7.833 13.5796 7.742 13.7324 7.58516C13.8852 7.42831 13.9706 7.21801 13.9706 6.99906C13.9706 6.78012 13.8852 6.56982 13.7324 6.41297C13.5796 6.25613 13.3716 6.16513 13.1528 6.15936V6.16052Z" fill="#526278"/>
    </g>
    <defs>
        <clipPath id="clip0">
            <rect width="14" height="14" fill="white"/>
        </clipPath>
    </defs>
</svg>
