<svg width="81" height="80" viewBox="0 0 81 80" fill="none" xmlns="http://www.w3.org/2000/svg">
<path fill-rule="evenodd" clip-rule="evenodd" d="M40.1481 80C62.2395 80 80.1481 62.0914 80.1481 40C80.1481 17.9086 62.2395 0 40.1481 0C18.0567 0 0.148132 17.9086 0.148132 40C0.148132 62.0914 18.0567 80 40.1481 80Z" fill="#EBF5FB"/>
<path d="M16.5926 44.3791C16.5926 43.361 17.4177 42.5359 18.4357 42.5359H62.1955C63.213 42.5359 64.0387 43.361 64.0387 44.3791V54.3001C64.0387 55.3181 63.213 56.1432 62.1955 56.1432H18.4357C17.4177 56.1432 16.5926 55.3181 16.5926 54.3001V44.3791Z" fill="white" stroke="#264887" stroke-width="2"/>
<path d="M16.5926 27.1765C16.5926 26.1585 17.4177 25.3333 18.4357 25.3333H62.1955C63.213 25.3333 64.0387 26.1585 64.0387 27.1765V37.0975C64.0387 38.1155 63.213 38.9406 62.1955 38.9406H18.4357C17.4177 38.9406 16.5926 38.1155 16.5926 37.0975V27.1765Z" fill="white" stroke="#264887" stroke-width="2" stroke-linecap="round" stroke-linejoin="round" stroke-dasharray="100 4 1 3"/>
<path d="M23.2441 32.086C23.2441 31.6721 23.3436 31.3571 23.5414 31.141C23.7393 30.925 24.0213 30.8171 24.3874 30.8171C24.7505 30.8171 25.0307 30.9266 25.2285 31.1455C25.43 31.3615 25.5302 31.675 25.5302 32.086C25.5302 32.491 25.43 32.8045 25.2285 33.0265C25.0276 33.2485 24.7475 33.3595 24.3874 33.3595C24.0274 33.3595 23.7466 33.2515 23.5457 33.0355C23.3448 32.8165 23.2441 32.5 23.2441 32.086ZM27.9379 32.086C27.9379 31.6721 28.0369 31.3571 28.2353 31.141C28.4331 30.925 28.7151 30.8171 29.0807 30.8171C29.4438 30.8171 29.7246 30.9266 29.9224 31.1455C30.1233 31.3615 30.2241 31.675 30.2241 32.086C30.2241 32.491 30.1233 32.8045 29.9224 33.0265C29.7215 33.2485 29.4407 33.3595 29.0807 33.3595C28.7213 33.3595 28.4405 33.2515 28.2396 33.0355C28.0387 32.8165 27.9379 32.5 27.9379 32.086ZM32.6318 32.086C32.6318 31.6721 32.7307 31.3571 32.9286 31.141C33.1264 30.925 33.4084 30.8171 33.7746 30.8171C34.1377 30.8171 34.4178 30.9266 34.6163 31.1455C34.8172 31.3615 34.9173 31.675 34.9173 32.086C34.9173 32.491 34.8172 32.8045 34.6163 33.0265C34.4154 33.2485 34.1346 33.3595 33.7746 33.3595C33.4145 33.3595 33.1344 33.2515 32.9329 33.0355C32.732 32.8165 32.6318 32.5 32.6318 32.086ZM37.3251 32.086C37.3251 31.6721 37.4246 31.3571 37.6224 31.141C37.8203 30.925 38.1023 30.8171 38.4684 30.8171C38.8315 30.8171 39.1117 30.9266 39.3095 31.1455C39.511 31.3615 39.6112 31.675 39.6112 32.086C39.6112 32.491 39.511 32.8045 39.3095 33.0265C39.1086 33.2485 38.8284 33.3595 38.4684 33.3595C38.1084 33.3595 37.8276 33.2515 37.6267 33.0355C37.4258 32.8165 37.3251 32.5 37.3251 32.086ZM42.0189 32.086C42.0189 31.6721 42.1178 31.3571 42.3157 31.141C42.5141 30.925 42.7961 30.8171 43.1617 30.8171C43.5248 30.8171 43.8055 30.9266 44.0034 31.1455C44.2043 31.3615 44.305 31.675 44.305 32.086C44.305 32.491 44.2043 32.8045 44.0034 33.0265C43.8025 33.2485 43.5217 33.3595 43.1617 33.3595C42.8016 33.3595 42.5215 33.2515 42.3206 33.0355C42.1197 32.8165 42.0189 32.5 42.0189 32.086ZM46.7128 32.086C46.7128 31.6721 46.8117 31.3571 47.0095 31.141C47.2074 30.925 47.4894 30.8171 47.8555 30.8171C48.2186 30.8171 48.4988 30.9266 48.6972 31.1455C48.8981 31.3615 48.9983 31.675 48.9983 32.086C48.9983 32.491 48.8981 32.8045 48.6972 33.0265C48.4963 33.2485 48.2156 33.3595 47.8555 33.3595C47.4955 33.3595 47.2154 33.2515 47.0138 33.0355C46.8129 32.8165 46.7128 32.5 46.7128 32.086ZM51.406 32.086C51.406 31.6721 51.505 31.3571 51.7034 31.141C51.9012 30.925 52.1832 30.8171 52.5494 30.8171C52.9125 30.8171 53.1927 30.9266 53.3905 31.1455C53.5914 31.3615 53.6922 31.675 53.6922 32.086C53.6922 32.491 53.5914 32.8045 53.3905 33.0265C53.1896 33.2485 52.9094 33.3595 52.5494 33.3595C52.1894 33.3595 51.9086 33.2515 51.7077 33.0355C51.5068 32.8165 51.406 32.5 51.406 32.086ZM56.0999 32.086C56.0999 31.6721 56.1988 31.3571 56.3967 31.141C56.5951 30.925 56.8771 30.8171 57.2427 30.8171C57.6058 30.8171 57.8865 30.9266 58.0844 31.1455C58.2853 31.3615 58.386 31.675 58.386 32.086C58.386 32.491 58.2853 32.8045 58.0844 33.0265C57.8835 33.2485 57.6027 33.3595 57.2427 33.3595C56.8826 33.3595 56.6025 33.2515 56.4016 33.0355C56.2007 32.8165 56.0999 32.5 56.0999 32.086Z" fill="#D32D27"/>
<mask id="path-5-inside-1_331_2546" fill="white">
<path d="M26.9367 51.5878H26.0722V49.2157H23.6461V51.5878H22.7859V46.325H23.6461V48.4778H26.0722V46.325H26.9367V51.5878ZM29.1398 51.5878H28.2938V47.6066H29.1398V51.5878ZM28.2435 46.5517C28.2435 46.4006 28.284 46.2838 28.3657 46.2021C28.4499 46.121 28.5685 46.0799 28.7221 46.0799C28.8714 46.0799 28.9862 46.121 29.068 46.2021C29.1521 46.2838 29.1939 46.4006 29.1939 46.5517C29.1939 46.6955 29.1521 46.8098 29.068 46.8933C28.9862 46.975 28.8714 47.0162 28.7221 47.0162C28.5685 47.0162 28.4499 46.975 28.3657 46.8933C28.284 46.8098 28.2435 46.6955 28.2435 46.5517ZM32.4341 51.6597C31.9297 51.6597 31.539 51.4784 31.2607 51.1159H31.2103C31.2435 51.452 31.2607 51.656 31.2607 51.7285V53.3591H30.4147V47.6066H31.0985C31.1175 47.6809 31.1575 47.8585 31.2171 48.1393H31.2607C31.5243 47.7356 31.9205 47.5341 32.4483 47.5341C32.9453 47.5341 33.3318 47.7141 33.6076 48.0741C33.8859 48.4342 34.0254 48.9392 34.0254 49.5898C34.0254 50.2405 33.8835 50.7479 33.6002 51.1129C33.3195 51.4772 32.9306 51.6597 32.4341 51.6597ZM32.2289 48.2253C31.8929 48.2253 31.6471 48.3242 31.4911 48.5208C31.3375 48.7174 31.2607 49.032 31.2607 49.4639V49.5898C31.2607 50.0746 31.3375 50.426 31.4911 50.6447C31.6447 50.8604 31.8953 50.9685 32.2431 50.9685C32.5361 50.9685 32.7616 50.8487 32.9201 50.6085C33.0786 50.3689 33.1573 50.0266 33.1573 49.5825C33.1573 49.1364 33.0786 48.7991 32.9201 48.5712C32.7641 48.3408 32.5337 48.2253 32.2289 48.2253ZM37.0887 51.6597C36.5849 51.6597 36.1935 51.4784 35.9152 51.1159H35.8648C35.8986 51.452 35.9152 51.656 35.9152 51.7285V53.3591H35.0692V47.6066H35.753C35.7727 47.6809 35.812 47.8585 35.8722 48.1393H35.9152C36.1794 47.7356 36.5751 47.5341 37.1034 47.5341C37.5999 47.5341 37.9863 47.7141 38.2622 48.0741C38.5411 48.4342 38.6799 48.9392 38.6799 49.5898C38.6799 50.2405 38.5386 50.7479 38.2554 51.1129C37.9746 51.4772 37.5857 51.6597 37.0887 51.6597ZM36.8835 48.2253C36.5474 48.2253 36.3017 48.3242 36.1456 48.5208C35.992 48.7174 35.9152 49.032 35.9152 49.4639V49.5898C35.9152 50.0746 35.992 50.426 36.1456 50.6447C36.2992 50.8604 36.5499 50.9685 36.8982 50.9685C37.1907 50.9685 37.4168 50.8487 37.5747 50.6085C37.7332 50.3689 37.8124 50.0266 37.8124 49.5825C37.8124 49.1364 37.7332 48.7991 37.5747 48.5712C37.4186 48.3408 37.1882 48.2253 36.8835 48.2253ZM43.2558 49.5898C43.2558 50.2405 43.0887 50.7479 42.7551 51.1129C42.4215 51.4772 41.9577 51.6597 41.3623 51.6597C40.99 51.6597 40.6613 51.5755 40.3756 51.4078C40.0899 51.2401 39.8706 50.9986 39.717 50.684C39.5634 50.3701 39.4866 50.0051 39.4866 49.5898C39.4866 48.9441 39.6525 48.4403 39.9837 48.0778C40.3148 47.7153 40.7811 47.5341 41.3838 47.5341C41.9595 47.5341 42.416 47.7203 42.7521 48.0926C43.0875 48.4618 43.2558 48.9613 43.2558 49.5898ZM40.3578 49.5898C40.3578 50.5089 40.6976 50.9685 41.3765 50.9685C42.0486 50.9685 42.3847 50.5089 42.3847 49.5898C42.3847 48.6805 42.0461 48.2253 41.3697 48.2253C41.014 48.2253 40.7559 48.3432 40.5956 48.5786C40.4371 48.8132 40.3578 49.1505 40.3578 49.5898ZM46.1072 45.9865L45.9597 47.3615L47.3452 46.9726L47.4465 47.7541L46.1502 47.8585L46.9999 48.9779L46.2835 49.3631L45.6857 48.146L45.1494 49.3631L44.4115 48.9779L45.2434 47.8585L43.9544 47.7541L44.0803 46.9726L45.4338 47.3615L45.2864 45.9865H46.1072ZM49.8979 48.3009C50.4281 48.3009 50.8484 48.4415 51.158 48.7223C51.4677 49.0031 51.6225 49.3859 51.6225 49.8706C51.6225 50.4321 51.4461 50.8714 51.0929 51.1884C50.7427 51.5024 50.2438 51.6597 49.5956 51.6597C49.0077 51.6597 48.5457 51.5651 48.2096 51.3752V50.6085C48.4043 50.7191 48.6274 50.8045 48.8793 50.8641C49.1312 50.9243 49.3652 50.9544 49.5815 50.9544C49.963 50.9544 50.253 50.869 50.4521 50.6988C50.6518 50.528 50.7513 50.2785 50.7513 49.9499C50.7513 49.3213 50.3501 49.0068 49.5489 49.0068C49.4359 49.0068 49.297 49.0185 49.1312 49.0424C48.9659 49.0645 48.8203 49.0897 48.6956 49.118L48.3177 48.895L48.5192 46.325H51.2551V47.077H49.2645L49.1459 48.3801C49.2295 48.366 49.3314 48.3494 49.4519 48.3297C49.5741 48.3107 49.7228 48.3009 49.8979 48.3009ZM58.275 48.9275C58.275 49.271 58.2209 49.5849 58.1134 49.8706C58.0053 50.1538 57.8529 50.3744 57.6563 50.5329C57.4615 50.6914 57.2361 50.7707 56.9793 50.7707C56.7894 50.7707 56.6254 50.7203 56.4859 50.6195C56.3471 50.5188 56.2531 50.3818 56.2051 50.2091H56.1621C56.0442 50.3965 55.8992 50.5366 55.7265 50.63C55.5539 50.724 55.3591 50.7707 55.1435 50.7707C54.7521 50.7707 54.4437 50.6447 54.2182 50.3928C53.9952 50.1409 53.8834 49.7999 53.8834 49.3705C53.8834 48.8759 54.0321 48.4753 54.3294 48.1681C54.6274 47.8585 55.0268 47.7037 55.5287 47.7037C55.7106 47.7037 55.9127 47.7203 56.1333 47.7541C56.3563 47.7854 56.5547 47.8296 56.7274 47.8874L56.6481 49.5609V49.6476C56.6481 50.0316 56.7728 50.2233 57.0223 50.2233C57.2121 50.2233 57.362 50.101 57.4726 49.8565C57.585 49.6113 57.6416 49.2992 57.6416 48.9201C57.6416 48.5097 57.5574 48.1497 57.3897 47.8401C57.2213 47.5286 56.9829 47.2884 56.6733 47.1206C56.3636 46.9523 56.0085 46.8681 55.608 46.8681C55.0962 46.8681 54.6514 46.9738 54.2723 47.1851C53.8951 47.3965 53.6075 47.6988 53.4079 48.0926C53.2088 48.4833 53.1093 48.9386 53.1093 49.4565C53.1093 50.1526 53.2954 50.6877 53.6671 51.0625C54.0394 51.4367 54.5733 51.624 55.2694 51.624C55.7996 51.624 56.3526 51.5159 56.9289 51.2997V51.8901C56.4251 52.0965 55.8764 52.1997 55.2836 52.1997C54.3958 52.1997 53.7034 51.9607 53.2063 51.4833C52.7099 51.0035 52.4611 50.3351 52.4611 49.478C52.4611 48.852 52.5957 48.2953 52.8648 47.8081C53.1332 47.3185 53.5055 46.9437 53.9805 46.685C54.4578 46.4258 54.9979 46.2961 55.6006 46.2961C56.121 46.2961 56.5842 46.4036 56.9903 46.6199C57.3983 46.8362 57.7134 47.1446 57.9371 47.5452C58.1626 47.9433 58.275 48.4041 58.275 48.9275ZM54.5746 49.3846C54.5746 49.9437 54.7939 50.2233 55.2332 50.2233C55.6964 50.2233 55.9496 49.8718 55.9926 49.1684L56.0362 48.3082C55.885 48.2677 55.7229 48.2468 55.5502 48.2468C55.243 48.2468 55.0028 48.3494 54.8301 48.5534C54.66 48.7573 54.5746 49.0344 54.5746 49.3846Z"/>
</mask>
<path d="M26.9367 51.5878H26.0722V49.2157H23.6461V51.5878H22.7859V46.325H23.6461V48.4778H26.0722V46.325H26.9367V51.5878ZM29.1398 51.5878H28.2938V47.6066H29.1398V51.5878ZM28.2435 46.5517C28.2435 46.4006 28.284 46.2838 28.3657 46.2021C28.4499 46.121 28.5685 46.0799 28.7221 46.0799C28.8714 46.0799 28.9862 46.121 29.068 46.2021C29.1521 46.2838 29.1939 46.4006 29.1939 46.5517C29.1939 46.6955 29.1521 46.8098 29.068 46.8933C28.9862 46.975 28.8714 47.0162 28.7221 47.0162C28.5685 47.0162 28.4499 46.975 28.3657 46.8933C28.284 46.8098 28.2435 46.6955 28.2435 46.5517ZM32.4341 51.6597C31.9297 51.6597 31.539 51.4784 31.2607 51.1159H31.2103C31.2435 51.452 31.2607 51.656 31.2607 51.7285V53.3591H30.4147V47.6066H31.0985C31.1175 47.6809 31.1575 47.8585 31.2171 48.1393H31.2607C31.5243 47.7356 31.9205 47.5341 32.4483 47.5341C32.9453 47.5341 33.3318 47.7141 33.6076 48.0741C33.8859 48.4342 34.0254 48.9392 34.0254 49.5898C34.0254 50.2405 33.8835 50.7479 33.6002 51.1129C33.3195 51.4772 32.9306 51.6597 32.4341 51.6597ZM32.2289 48.2253C31.8929 48.2253 31.6471 48.3242 31.4911 48.5208C31.3375 48.7174 31.2607 49.032 31.2607 49.4639V49.5898C31.2607 50.0746 31.3375 50.426 31.4911 50.6447C31.6447 50.8604 31.8953 50.9685 32.2431 50.9685C32.5361 50.9685 32.7616 50.8487 32.9201 50.6085C33.0786 50.3689 33.1573 50.0266 33.1573 49.5825C33.1573 49.1364 33.0786 48.7991 32.9201 48.5712C32.7641 48.3408 32.5337 48.2253 32.2289 48.2253ZM37.0887 51.6597C36.5849 51.6597 36.1935 51.4784 35.9152 51.1159H35.8648C35.8986 51.452 35.9152 51.656 35.9152 51.7285V53.3591H35.0692V47.6066H35.753C35.7727 47.6809 35.812 47.8585 35.8722 48.1393H35.9152C36.1794 47.7356 36.5751 47.5341 37.1034 47.5341C37.5999 47.5341 37.9863 47.7141 38.2622 48.0741C38.5411 48.4342 38.6799 48.9392 38.6799 49.5898C38.6799 50.2405 38.5386 50.7479 38.2554 51.1129C37.9746 51.4772 37.5857 51.6597 37.0887 51.6597ZM36.8835 48.2253C36.5474 48.2253 36.3017 48.3242 36.1456 48.5208C35.992 48.7174 35.9152 49.032 35.9152 49.4639V49.5898C35.9152 50.0746 35.992 50.426 36.1456 50.6447C36.2992 50.8604 36.5499 50.9685 36.8982 50.9685C37.1907 50.9685 37.4168 50.8487 37.5747 50.6085C37.7332 50.3689 37.8124 50.0266 37.8124 49.5825C37.8124 49.1364 37.7332 48.7991 37.5747 48.5712C37.4186 48.3408 37.1882 48.2253 36.8835 48.2253ZM43.2558 49.5898C43.2558 50.2405 43.0887 50.7479 42.7551 51.1129C42.4215 51.4772 41.9577 51.6597 41.3623 51.6597C40.99 51.6597 40.6613 51.5755 40.3756 51.4078C40.0899 51.2401 39.8706 50.9986 39.717 50.684C39.5634 50.3701 39.4866 50.0051 39.4866 49.5898C39.4866 48.9441 39.6525 48.4403 39.9837 48.0778C40.3148 47.7153 40.7811 47.5341 41.3838 47.5341C41.9595 47.5341 42.416 47.7203 42.7521 48.0926C43.0875 48.4618 43.2558 48.9613 43.2558 49.5898ZM40.3578 49.5898C40.3578 50.5089 40.6976 50.9685 41.3765 50.9685C42.0486 50.9685 42.3847 50.5089 42.3847 49.5898C42.3847 48.6805 42.0461 48.2253 41.3697 48.2253C41.014 48.2253 40.7559 48.3432 40.5956 48.5786C40.4371 48.8132 40.3578 49.1505 40.3578 49.5898ZM46.1072 45.9865L45.9597 47.3615L47.3452 46.9726L47.4465 47.7541L46.1502 47.8585L46.9999 48.9779L46.2835 49.3631L45.6857 48.146L45.1494 49.3631L44.4115 48.9779L45.2434 47.8585L43.9544 47.7541L44.0803 46.9726L45.4338 47.3615L45.2864 45.9865H46.1072ZM49.8979 48.3009C50.4281 48.3009 50.8484 48.4415 51.158 48.7223C51.4677 49.0031 51.6225 49.3859 51.6225 49.8706C51.6225 50.4321 51.4461 50.8714 51.0929 51.1884C50.7427 51.5024 50.2438 51.6597 49.5956 51.6597C49.0077 51.6597 48.5457 51.5651 48.2096 51.3752V50.6085C48.4043 50.7191 48.6274 50.8045 48.8793 50.8641C49.1312 50.9243 49.3652 50.9544 49.5815 50.9544C49.963 50.9544 50.253 50.869 50.4521 50.6988C50.6518 50.528 50.7513 50.2785 50.7513 49.9499C50.7513 49.3213 50.3501 49.0068 49.5489 49.0068C49.4359 49.0068 49.297 49.0185 49.1312 49.0424C48.9659 49.0645 48.8203 49.0897 48.6956 49.118L48.3177 48.895L48.5192 46.325H51.2551V47.077H49.2645L49.1459 48.3801C49.2295 48.366 49.3314 48.3494 49.4519 48.3297C49.5741 48.3107 49.7228 48.3009 49.8979 48.3009ZM58.275 48.9275C58.275 49.271 58.2209 49.5849 58.1134 49.8706C58.0053 50.1538 57.8529 50.3744 57.6563 50.5329C57.4615 50.6914 57.2361 50.7707 56.9793 50.7707C56.7894 50.7707 56.6254 50.7203 56.4859 50.6195C56.3471 50.5188 56.2531 50.3818 56.2051 50.2091H56.1621C56.0442 50.3965 55.8992 50.5366 55.7265 50.63C55.5539 50.724 55.3591 50.7707 55.1435 50.7707C54.7521 50.7707 54.4437 50.6447 54.2182 50.3928C53.9952 50.1409 53.8834 49.7999 53.8834 49.3705C53.8834 48.8759 54.0321 48.4753 54.3294 48.1681C54.6274 47.8585 55.0268 47.7037 55.5287 47.7037C55.7106 47.7037 55.9127 47.7203 56.1333 47.7541C56.3563 47.7854 56.5547 47.8296 56.7274 47.8874L56.6481 49.5609V49.6476C56.6481 50.0316 56.7728 50.2233 57.0223 50.2233C57.2121 50.2233 57.362 50.101 57.4726 49.8565C57.585 49.6113 57.6416 49.2992 57.6416 48.9201C57.6416 48.5097 57.5574 48.1497 57.3897 47.8401C57.2213 47.5286 56.9829 47.2884 56.6733 47.1206C56.3636 46.9523 56.0085 46.8681 55.608 46.8681C55.0962 46.8681 54.6514 46.9738 54.2723 47.1851C53.8951 47.3965 53.6075 47.6988 53.4079 48.0926C53.2088 48.4833 53.1093 48.9386 53.1093 49.4565C53.1093 50.1526 53.2954 50.6877 53.6671 51.0625C54.0394 51.4367 54.5733 51.624 55.2694 51.624C55.7996 51.624 56.3526 51.5159 56.9289 51.2997V51.8901C56.4251 52.0965 55.8764 52.1997 55.2836 52.1997C54.3958 52.1997 53.7034 51.9607 53.2063 51.4833C52.7099 51.0035 52.4611 50.3351 52.4611 49.478C52.4611 48.852 52.5957 48.2953 52.8648 47.8081C53.1332 47.3185 53.5055 46.9437 53.9805 46.685C54.4578 46.4258 54.9979 46.2961 55.6006 46.2961C56.121 46.2961 56.5842 46.4036 56.9903 46.6199C57.3983 46.8362 57.7134 47.1446 57.9371 47.5452C58.1626 47.9433 58.275 48.4041 58.275 48.9275ZM54.5746 49.3846C54.5746 49.9437 54.7939 50.2233 55.2332 50.2233C55.6964 50.2233 55.9496 49.8718 55.9926 49.1684L56.0362 48.3082C55.885 48.2677 55.7229 48.2468 55.5502 48.2468C55.243 48.2468 55.0028 48.3494 54.8301 48.5534C54.66 48.7573 54.5746 49.0344 54.5746 49.3846Z" fill="#264887" stroke="#264887" stroke-width="4" mask="url(#path-5-inside-1_331_2546)"/>
<path d="M72.8787 19.3454H73.5167C73.6295 19.3454 73.7377 19.3902 73.8174 19.47C73.8972 19.5498 73.942 19.658 73.942 19.7708V20.4088C73.942 20.578 74.0092 20.7403 74.1289 20.8599C74.2485 20.9796 74.4108 21.0468 74.58 21.0468C74.7492 21.0468 74.9115 20.9796 75.0312 20.8599C75.1508 20.7403 75.218 20.578 75.218 20.4088V19.7708C75.218 19.658 75.2629 19.5498 75.3426 19.47C75.4224 19.3902 75.5306 19.3454 75.6434 19.3454H76.2814C76.4506 19.3454 76.6129 19.2782 76.7325 19.1586C76.8522 19.0389 76.9194 18.8766 76.9194 18.7074C76.9194 18.5382 76.8522 18.3759 76.7325 18.2563C76.6129 18.1366 76.4506 18.0694 76.2814 18.0694H75.6434C75.5306 18.0694 75.4224 18.0246 75.3426 17.9448C75.2629 17.8651 75.218 17.7569 75.218 17.6441V17.0061C75.218 16.8368 75.1508 16.6746 75.0312 16.5549C74.9115 16.4353 74.7492 16.368 74.58 16.368C74.4108 16.368 74.2485 16.4353 74.1289 16.5549C74.0092 16.6746 73.942 16.8368 73.942 17.0061V17.6441C73.942 17.7569 73.8972 17.8651 73.8174 17.9448C73.7377 18.0246 73.6295 18.0694 73.5167 18.0694H72.8787C72.7095 18.0694 72.5472 18.1366 72.4275 18.2563C72.3079 18.3759 72.2407 18.5382 72.2407 18.7074C72.2407 18.8766 72.3079 19.0389 72.4275 19.1586C72.5472 19.2782 72.7095 19.3454 72.8787 19.3454Z" fill="#B5D9F1"/>
<path d="M11.2458 33.2471L9.27399 34.5248L10.5517 36.4966L12.5235 35.2189L11.2458 33.2471Z" stroke="#B5D9F1" stroke-width="2" stroke-linecap="round" stroke-linejoin="round"/>
<path d="M19.524 33.9659L19.0333 36.2636L21.331 36.7544L21.8218 34.4566L19.524 33.9659Z" stroke="#B5D9F1" stroke-width="2" stroke-linecap="round" stroke-linejoin="round"/>
<path d="M7.65625 44.0892L10.7438 44.7486L7.65625 44.0892Z" fill="#EDBF0E"/>
<path d="M7.65625 44.0892L10.7438 44.7486" stroke="#B5D9F1" stroke-width="2" stroke-linecap="round"/>
<path d="M9.46369 42.9179L8.80422 46.0055L9.46369 42.9179Z" fill="#EDBF0E"/>
<path d="M9.46369 42.9179L8.80422 46.0055" stroke="#B5D9F1" stroke-width="2" stroke-linecap="round"/>
<path d="M75.0541 51.6383L73.3096 50.0644L71.7357 51.809L73.4802 53.3829L75.0541 51.6383Z" stroke="#B5D9F1" stroke-width="2" stroke-linecap="round" stroke-linejoin="round"/>
<path d="M67.9677 39.7013L65.8528 42.0455L67.9677 39.7013Z" fill="#EDBF0E"/>
<path d="M67.9677 39.7013L65.8528 42.0455" stroke="#B5D9F1" stroke-width="2" stroke-linecap="round"/>
<path d="M68.0784 41.8519L65.7342 39.7371L68.0784 41.8519Z" fill="#EDBF0E"/>
<path d="M68.0784 41.8519L65.7342 39.7371" stroke="#B5D9F1" stroke-width="2" stroke-linecap="round"/>
<path d="M36.0294 61.4998H35.4623C35.3871 61.4998 35.315 61.4698 35.2618 61.4164C35.2086 61.363 35.1787 61.2906 35.1787 61.215V60.6454C35.1787 60.4187 35.0891 60.2014 34.9296 60.0412C34.77 59.8809 34.5537 59.7909 34.328 59.7909C34.1024 59.7909 33.8861 59.8809 33.7265 60.0412C33.567 60.2014 33.4774 60.4187 33.4774 60.6454V61.215C33.4774 61.2906 33.4475 61.363 33.3943 61.4164C33.3411 61.4698 33.269 61.4998 33.1938 61.4998H32.6267C32.4011 61.4998 32.1847 61.5899 32.0252 61.7501C31.8656 61.9104 31.776 62.1277 31.776 62.3543C31.776 62.5809 31.8656 62.7983 32.0252 62.9585C32.1847 63.1188 32.4011 63.2088 32.6267 63.2088H33.1938C33.269 63.2088 33.3411 63.2388 33.3943 63.2922C33.4475 63.3456 33.4774 63.4181 33.4774 63.4936V64.0633C33.4774 64.2899 33.567 64.5072 33.7265 64.6675C33.8861 64.8277 34.1024 64.9178 34.328 64.9178C34.5537 64.9178 34.77 64.8277 34.9296 64.6675C35.0891 64.5072 35.1787 64.2899 35.1787 64.0633V63.4936C35.1787 63.4181 35.2086 63.3456 35.2618 63.2922C35.315 63.2388 35.3871 63.2088 35.4623 63.2088H36.0294C36.255 63.2088 36.4714 63.1188 36.6309 62.9585C36.7905 62.7983 36.8801 62.5809 36.8801 62.3543C36.8801 62.1277 36.7905 61.9104 36.6309 61.7501C36.4714 61.5899 36.255 61.4998 36.0294 61.4998Z" fill="#B5D9F1"/>
<path d="M34.2431 20.4541L34.1224 18.1076L31.776 18.2283L31.8966 20.5748L34.2431 20.4541Z" stroke="#B5D9F1" stroke-width="2" stroke-linecap="round" stroke-linejoin="round"/>
<g filter="url(#filter0_di_331_2546)">
<path d="M71.875 29.9992C71.8961 29.6582 71.8083 29.3194 71.6245 29.032C71.4406 28.7447 71.1703 28.5237 70.8528 28.4013L67.7521 27.1751C67.6221 27.1238 67.5101 27.0351 67.4301 26.92C67.3501 26.805 67.3058 26.6688 67.3026 26.5286L67.226 23.0352C67.2329 22.7136 67.1439 22.3973 66.9707 22.1269C66.7974 21.8564 66.5476 21.644 66.2534 21.5171C65.96 21.3953 65.6368 21.3654 65.3262 21.4312C65.0155 21.497 64.7319 21.6555 64.5124 21.8859L62.648 23.7658C62.5539 23.8602 62.4353 23.9262 62.3057 23.9562C62.1761 23.9862 62.0407 23.9789 61.915 23.9352L58.8199 22.8586H58.8071C58.5172 22.7638 58.2068 22.7518 57.9104 22.8237C57.6141 22.8957 57.3434 23.0488 57.1286 23.2661C56.9137 23.4834 56.7631 23.7563 56.6935 24.0545C56.6239 24.3526 56.638 24.6643 56.7343 24.9549L57.8048 28.0666C57.8482 28.1929 57.8555 28.3289 57.8256 28.4591C57.7958 28.5893 57.7301 28.7084 57.636 28.8029L55.7617 30.6799C55.5321 30.9002 55.3742 31.1852 55.3089 31.4974C55.2436 31.8095 55.2739 32.1342 55.3959 32.4287C55.526 32.7175 55.7358 32.9627 56.0004 33.1353C56.265 33.308 56.5733 33.4008 56.8889 33.4028L60.3866 33.4812C60.5263 33.484 60.6621 33.5282 60.7768 33.6082C60.8916 33.6883 60.9803 33.8007 61.0317 33.9312L62.2496 37.0401C62.3663 37.345 62.5729 37.6069 62.8416 37.7908C63.1104 37.9748 63.4286 38.0721 63.7539 38.0697C63.7822 38.0697 63.812 38.0697 63.8418 38.0697C64.1882 38.0554 64.5211 37.9302 64.7917 37.7124C65.0623 37.4947 65.2565 37.1957 65.346 36.8592L66.4009 33.0667C66.4337 32.9488 66.4962 32.8414 66.5824 32.7549C66.6685 32.6683 66.7755 32.6055 66.8929 32.5726L70.6699 31.5116C71.0051 31.4216 71.3029 31.2263 71.5197 30.9542C71.7366 30.6821 71.8611 30.3474 71.875 29.9992Z" fill="#90C6EB"/>
<path d="M70.8763 29.9483L70.8769 29.9375C70.8849 29.8079 70.8515 29.6795 70.7821 29.5709C70.7127 29.4625 70.6113 29.3799 70.4931 29.3344L70.485 29.3313L70.485 29.3312L67.3849 28.1053C67.3848 28.1053 67.3848 28.1052 67.3847 28.1052C67.3846 28.1052 67.3845 28.1051 67.3843 28.105C67.0707 27.9811 66.8011 27.7672 66.609 27.4908L67.4301 26.92L66.609 27.4908C66.4168 27.2143 66.3105 26.8874 66.3029 26.5512L66.3028 26.5505L66.2263 23.0571L66.2258 23.0355L66.2263 23.014C66.2289 22.8905 66.1947 22.7695 66.1286 22.6663C66.0639 22.5652 65.9716 22.4862 65.8637 22.438C65.7587 22.396 65.6438 22.3861 65.5334 22.4095C65.4207 22.4334 65.317 22.491 65.2364 22.5756L65.2295 22.5829L65.2224 22.5901L63.358 24.4699L63.3567 24.4713C63.1302 24.6987 62.8442 24.8581 62.5309 24.9305C62.2177 25.0029 61.8905 24.9853 61.5868 24.8798L61.5864 24.8797L58.6509 23.8586H58.6479L58.4965 23.8091C58.3832 23.7721 58.2621 23.7674 58.1464 23.7955C58.0306 23.8236 57.9244 23.8835 57.8396 23.9692C57.7549 24.0549 57.695 24.1631 57.6673 24.2818C57.6399 24.3991 57.6451 24.5217 57.6822 24.6362L58.7503 27.7411C58.7503 27.7412 58.7503 27.7412 58.7504 27.7413C58.8546 28.0442 58.8719 28.3703 58.8004 28.6825C58.7288 28.9947 58.5711 29.2811 58.3447 29.5085L58.3437 29.5095L56.4693 31.3865L56.4617 31.3941L56.454 31.4016C56.3701 31.482 56.3118 31.5867 56.2877 31.7021C56.2646 31.8126 56.2739 31.9272 56.3142 32.0321C56.3664 32.1409 56.447 32.2327 56.5469 32.2978C56.651 32.3658 56.7719 32.4021 56.8953 32.4029L56.9033 32.4029L56.9113 32.4031L60.4066 32.4814C60.4071 32.4814 60.4077 32.4814 60.4082 32.4814L60.409 32.4814L60.3866 33.4812C60.5263 33.484 60.6621 33.5282 60.7768 33.6082C60.8916 33.6883 60.9803 33.8007 61.0317 33.9312L70.8763 29.9483ZM70.8763 29.9483L70.8758 29.9591C70.8704 30.0953 70.8217 30.2256 70.7377 30.331C70.6537 30.4364 70.5389 30.5113 70.4107 30.5458L70.4107 30.5457L70.3995 30.5489L66.6226 31.6098C66.6226 31.6098 66.6225 31.6098 66.6224 31.6098C66.3389 31.6894 66.0811 31.841 65.8737 32.0493L66.5824 32.7549L65.8737 32.0493C65.6662 32.2577 65.5162 32.5159 65.4375 32.7987L65.4375 32.7988L64.3826 36.5912L64.3826 36.5912L64.3796 36.6022C64.3447 36.7335 64.2691 36.8494 64.1648 36.9334C64.0646 37.0139 63.9429 37.0612 63.8162 37.0697L70.8763 29.9483Z" stroke="#264887" stroke-width="2"/>
</g>
<path d="M54.0637 20.864C53.8847 20.8655 53.7119 20.7966 53.5823 20.6718L51.4607 18.5407C51.3364 18.4102 51.2675 18.2359 51.2692 18.0546C51.2708 17.8723 51.3437 17.6984 51.4716 17.57C51.5994 17.4418 51.7719 17.3694 51.9518 17.3679C52.1309 17.3664 52.3036 17.4352 52.4333 17.5601L54.5549 19.6912C54.6791 19.8216 54.748 19.996 54.7464 20.1773C54.7447 20.3595 54.6719 20.5335 54.544 20.6618C54.4162 20.7901 54.2437 20.8625 54.0637 20.864Z" fill="#B5D9F1" stroke="#EBF5FB" stroke-width="0.75"/>
<path d="M62.3543 19.9626C62.2251 20.0924 62.0502 20.165 61.8682 20.165C61.6861 20.165 61.5112 20.0924 61.382 19.9626C61.2527 19.8327 61.1798 19.6563 61.1798 19.4719V16.6236C61.1798 16.4393 61.2527 16.2628 61.382 16.133C61.5112 16.0032 61.6861 15.9305 61.8682 15.9305C62.0502 15.9305 62.2251 16.0032 62.3543 16.133C62.4836 16.2628 62.5565 16.4393 62.5565 16.6236V19.4719C62.5565 19.6563 62.4836 19.8327 62.3543 19.9626Z" fill="#B5D9F1" stroke="#EBF5FB" stroke-width="0.75"/>
<path d="M53.4221 26.962C53.5514 27.0918 53.6243 27.2683 53.6243 27.4527C53.6243 27.637 53.5514 27.8135 53.4221 27.9434C53.2929 28.0732 53.118 28.1458 52.936 28.1458H50.1004C49.9183 28.1458 49.7434 28.0732 49.6142 27.9434C49.4849 27.8135 49.412 27.637 49.412 27.4527C49.412 27.2683 49.4849 27.0919 49.6142 26.962C49.7434 26.8322 49.9183 26.7596 50.1004 26.7596H52.936C53.118 26.7596 53.2929 26.8322 53.4221 26.962Z" fill="#B5D9F1" stroke="white" stroke-width="0.75"/>
<g filter="url(#filter1_d_331_2546)">
<path d="M79.3923 42.5338L69.3532 33.916C69.2452 33.8233 69.1047 33.7739 68.9602 33.778C68.8158 33.7821 68.6785 33.8393 68.5763 33.9379L67.4246 35.0495C67.3228 35.1481 67.2637 35.2804 67.2595 35.4196C67.2553 35.5587 67.3062 35.6942 67.402 35.7983L76.3313 45.4894C76.5256 45.7088 76.7649 45.8869 77.034 46.0128C77.3031 46.1386 77.5962 46.2094 77.895 46.2206C78.1938 46.2319 78.4918 46.1833 78.7702 46.0781C79.0486 45.9729 79.3015 45.8132 79.513 45.6091C79.7244 45.405 79.8898 45.161 79.9988 44.8922C80.1079 44.6235 80.1581 44.3358 80.1465 44.0475C80.1348 43.7591 80.0615 43.4761 79.9312 43.2164C79.8008 42.9566 79.6162 42.7257 79.3889 42.5381L79.3923 42.5338Z" fill="#264887"/>
<path d="M77.0798 44.8263L77.0733 44.819L77.0667 44.8118L68.445 35.4545L68.9934 34.9251L78.0184 42.6723L78.0036 42.6913L78.7524 43.3094C78.8739 43.4097 78.9703 43.5312 79.0374 43.6649C79.1045 43.7986 79.1414 43.9424 79.1473 44.0878C79.1532 44.2332 79.1279 44.3789 79.0722 44.5163C79.0164 44.6538 78.9307 44.7813 78.8185 44.8896C78.7061 44.9981 78.5696 45.0849 78.4167 45.1427C78.2636 45.2005 78.0987 45.2276 77.9326 45.2213C77.7666 45.2151 77.6047 45.1757 77.4576 45.1069L77.034 46.0128L77.4576 45.1069C77.3105 45.0381 77.1823 44.9419 77.0798 44.8263Z" stroke="#264887" stroke-width="2"/>
</g>
<defs>
<filter id="filter0_di_331_2546" x="52.2753" y="20.3971" width="19.6028" height="17.6727" filterUnits="userSpaceOnUse" color-interpolation-filters="sRGB">
<feFlood flood-opacity="0" result="BackgroundImageFix"/>
<feColorMatrix in="SourceAlpha" type="matrix" values="0 0 0 0 0 0 0 0 0 0 0 0 0 0 0 0 0 0 127 0" result="hardAlpha"/>
<feOffset dx="-3" dy="-1"/>
<feColorMatrix type="matrix" values="0 0 0 0 0 0 0 0 0 0 0 0 0 0 0 0 0 0 0.1 0"/>
<feBlend mode="normal" in2="BackgroundImageFix" result="effect1_dropShadow_331_2546"/>
<feBlend mode="normal" in="SourceGraphic" in2="effect1_dropShadow_331_2546" result="shape"/>
<feColorMatrix in="SourceAlpha" type="matrix" values="0 0 0 0 0 0 0 0 0 0 0 0 0 0 0 0 0 0 127 0" result="hardAlpha"/>
<feOffset dx="-4" dy="-1"/>
<feComposite in2="hardAlpha" operator="arithmetic" k2="-1" k3="1"/>
<feColorMatrix type="matrix" values="0 0 0 0 0.709804 0 0 0 0 0.85098 0 0 0 0 0.945098 0 0 0 1 0"/>
<feBlend mode="normal" in2="shape" result="effect2_innerShadow_331_2546"/>
</filter>
<filter id="filter1_d_331_2546" x="64.2592" y="33.7778" width="15.8889" height="12.4444" filterUnits="userSpaceOnUse" color-interpolation-filters="sRGB">
<feFlood flood-opacity="0" result="BackgroundImageFix"/>
<feColorMatrix in="SourceAlpha" type="matrix" values="0 0 0 0 0 0 0 0 0 0 0 0 0 0 0 0 0 0 127 0" result="hardAlpha"/>
<feOffset dx="-3"/>
<feColorMatrix type="matrix" values="0 0 0 0 0 0 0 0 0 0 0 0 0 0 0 0 0 0 0.1 0"/>
<feBlend mode="normal" in2="BackgroundImageFix" result="effect1_dropShadow_331_2546"/>
<feBlend mode="normal" in="SourceGraphic" in2="effect1_dropShadow_331_2546" result="shape"/>
</filter>
</defs>
</svg>
