<svg width="48" height="48" viewBox="0 0 48 48" fill="none" xmlns="http://www.w3.org/2000/svg">
<path d="M48 41.3333C48 45.016 45.016 48 41.3333 48H6.66667C2.98533 48 0 45.016 0 41.3333V6.66667C0 2.984 2.98533 0 6.66667 0H41.3333C45.016 0 48 2.984 48 6.66667V41.3333Z" fill="url(#paint0_linear_1238_80890)"/>
<path opacity="0.05" d="M37.3333 6.66683C38.0693 6.66683 38.6667 7.26416 38.6667 8.00016V26.3335C38.6667 35.3295 25.1747 42.2348 24.6 42.5242C24.412 42.6188 24.2053 42.6668 24 42.6668C23.7947 42.6668 23.588 42.6188 23.4 42.5242C22.8253 42.2348 9.33333 35.3295 9.33333 26.3335V8.00016C9.33333 7.26416 9.93067 6.66683 10.6667 6.66683H37.3333ZM24 38.2868C26.7987 36.6562 34.6667 31.6015 34.6667 26.3335V10.6668H24V38.2868ZM37.3333 5.3335H10.6667C9.196 5.3335 8 6.5295 8 8.00016V26.3335C8 35.9695 21.284 42.9508 22.7987 43.7148C23.1707 43.9015 23.5853 44.0002 24 44.0002C24.4147 44.0002 24.8293 43.9015 25.2 43.7148C26.716 42.9508 40 35.9695 40 26.3335V8.00016C40 6.5295 38.804 5.3335 37.3333 5.3335ZM25.3333 12.0002H33.3333V26.3335C33.3333 29.4935 29.492 33.1375 25.3333 35.8895V12.0002Z" fill="black"/>
<path opacity="0.07" d="M23.9998 43.3333C23.6892 43.3333 23.3772 43.2587 23.0998 43.12C22.5105 42.8227 8.6665 35.7293 8.6665 26.3333V8C8.6665 6.89733 9.56384 6 10.6665 6H37.3332C38.4358 6 39.3332 6.89733 39.3332 8V26.3333C39.3332 35.7293 25.4892 42.8227 24.8998 43.1187C24.6225 43.2587 24.3105 43.3333 23.9998 43.3333ZM10.6665 7.33333C10.2985 7.33333 9.99984 7.632 9.99984 8V26.3333C9.99984 34.9173 23.1398 41.6467 23.6998 41.9293C23.8852 42.0213 24.1145 42.0227 24.3012 41.9293C24.8598 41.6467 37.9998 34.9173 37.9998 26.3333V8C37.9998 7.632 37.7012 7.33333 37.3332 7.33333H10.6665ZM23.3332 39.4467V10H35.3332V26.3333C35.3332 31.856 27.6425 36.9347 24.3358 38.8627L23.3332 39.4467ZM24.6665 11.3333V37.1067C27.7612 35.1787 33.9998 30.7453 33.9998 26.3333V11.3333H24.6665Z" fill="black"/>
<path d="M37.3335 6.6665H10.6668C9.93083 6.6665 9.3335 7.26384 9.3335 7.99984V26.3332C9.3335 35.3292 22.8255 42.2345 23.4002 42.5238C23.5882 42.6185 23.7948 42.6665 24.0002 42.6665C24.2055 42.6665 24.4122 42.6185 24.6002 42.5238C25.1748 42.2345 38.6668 35.3292 38.6668 26.3332V7.99984C38.6668 7.26384 38.0695 6.6665 37.3335 6.6665ZM34.6668 26.3332C34.6668 31.5998 26.7988 36.6558 24.0002 38.2865V10.6665H34.6668V26.3332Z" fill="white"/>
<defs>
<linearGradient id="paint0_linear_1238_80890" x1="11.4973" y1="-46.9027" x2="29.1787" y2="53.3693" gradientUnits="userSpaceOnUse">
<stop stop-color="#639BFF"/>
<stop offset="0.998" stop-color="#175DDC"/>
</linearGradient>
</defs>
</svg>
