<svg width="17" height="16" viewBox="0 0 17 16" fill="none" xmlns="http://www.w3.org/2000/svg">
    <path d="M14.5399 2.89106C14.4216 2.80139 14.2872 2.73657 14.1445 2.7003C14.0018 2.66403 13.8536 2.65703 13.7083 2.6797C13.5629 2.70236 13.4234 2.75425 13.2976 2.83239C13.1718 2.91054 13.0622 3.01341 12.975 3.13512L7.66874 10.5398L4.29454 7.764C4.06188 7.58075 3.76867 7.49852 3.47775 7.53492C3.18683 7.57132 2.92136 7.72346 2.73824 7.95872C2.55512 8.19399 2.46892 8.49365 2.49814 8.79348C2.52735 9.09331 2.66964 9.36944 2.89451 9.56268L7.17878 13.0864C7.29717 13.1816 7.43283 13.2516 7.57782 13.2923C7.72282 13.333 7.87425 13.3436 8.02327 13.3234C8.17229 13.3033 8.31592 13.2528 8.44575 13.1749C8.57558 13.0971 8.68902 12.9934 8.77945 12.8699L14.7808 4.50094C14.8679 4.379 14.9307 4.2406 14.9657 4.09368C15.0007 3.94675 15.0072 3.79417 14.9848 3.64466C14.9625 3.49515 14.9116 3.35164 14.8353 3.22233C14.7589 3.09302 14.6586 2.98046 14.5399 2.89106V2.89106Z" fill="#00A878"/>
</svg>
