<svg width="16" height="16" viewBox="0 0 16 16" fill="none" xmlns="http://www.w3.org/2000/svg">
    <path d="M13.8695 2.89106C13.7496 2.80139 13.6135 2.73657 13.469 2.7003C13.3245 2.66403 13.1743 2.65703 13.0271 2.6797C12.8799 2.70236 12.7386 2.75425 12.6111 2.83239C12.4837 2.91054 12.3727 3.01341 12.2844 3.13512L6.90967 10.5398L3.49192 7.764C3.25627 7.58075 2.95927 7.49852 2.6646 7.53492C2.36992 7.57132 2.10102 7.72346 1.91554 7.95872C1.73006 8.19399 1.64275 8.49365 1.67234 8.79348C1.70193 9.09331 1.84606 9.36944 2.07383 9.56268L6.41338 13.0864C6.5333 13.1816 6.67071 13.2516 6.81757 13.2923C6.96444 13.333 7.11783 13.3436 7.26877 13.3234C7.41971 13.3033 7.56519 13.2528 7.6967 13.1749C7.82821 13.0971 7.94311 12.9934 8.0347 12.8699L14.1135 4.50094C14.2017 4.379 14.2653 4.2406 14.3008 4.09368C14.3362 3.94675 14.3428 3.79417 14.3202 3.64466C14.2975 3.49515 14.246 3.35164 14.1687 3.22233C14.0914 3.09302 13.9897 2.98046 13.8695 2.89106Z" fill="#748193"/>
</svg>
