<svg width="8" height="8" viewBox="0 0 8 8" fill="none" xmlns="http://www.w3.org/2000/svg">
    <path d="M7.52167 0.934918C7.44977 0.881114 7.36812 0.842221 7.28141 0.82046C7.19469 0.7987 7.10459 0.7945 7.01627 0.808099C6.92795 0.821698 6.84314 0.852831 6.76668 0.899717C6.69022 0.946604 6.62361 1.00833 6.57066 1.08135L3.3458 5.52419L1.29515 3.85868C1.15376 3.74873 0.975563 3.69939 0.798758 3.72123C0.621954 3.74307 0.460614 3.83436 0.349324 3.97551C0.238034 4.11667 0.185652 4.29647 0.203406 4.47637C0.22116 4.65627 0.307637 4.82195 0.4443 4.93789L3.04803 7.0521C3.11998 7.10923 3.20242 7.15123 3.29054 7.17565C3.37867 7.20007 3.4707 7.20642 3.56126 7.19433C3.65183 7.18225 3.73911 7.15196 3.81802 7.10524C3.89692 7.05852 3.96587 6.99631 4.02082 6.92225L7.66811 1.90085C7.72102 1.82768 7.7592 1.74464 7.78047 1.65649C7.80174 1.56833 7.8057 1.47678 7.7921 1.38708C7.7785 1.29737 7.74761 1.21126 7.70121 1.13368C7.65481 1.0561 7.5938 0.988555 7.52167 0.934918Z" fill="white"/>
</svg>
