<svg width="14" height="14" viewBox="0 0 14 14" fill="none" xmlns="http://www.w3.org/2000/svg">
<g clip-path="url(#clip0)">
<g clip-path="url(#clip1)">
<path d="M2.62512 7.0001C2.62488 6.8093 2.66535 6.62064 2.74381 6.44672C2.82227 6.27279 2.93692 6.11761 3.08012 5.99151L9.58545 0.26843C9.80102 0.0875437 10.0788 -0.00182284 10.3594 0.0194395C10.64 0.0407018 10.9012 0.170905 11.087 0.382209C11.2729 0.593512 11.3687 0.869144 11.3539 1.15017C11.3392 1.43119 11.2151 1.69529 11.0082 1.88601L5.31954 6.89043C5.30392 6.90412 5.29141 6.92098 5.28284 6.93989C5.27427 6.95881 5.26983 6.97933 5.26983 7.0001C5.26983 7.02086 5.27427 7.04139 5.28284 7.0603C5.29141 7.07921 5.30392 7.09608 5.31954 7.10976L11.0082 12.1142C11.1182 12.2065 11.2086 12.3198 11.2742 12.4476C11.3398 12.5754 11.3791 12.7149 11.39 12.8581C11.4008 13.0013 11.383 13.1452 11.3374 13.2814C11.2918 13.4176 11.2195 13.5433 11.1247 13.6511C11.0298 13.7589 10.9144 13.8467 10.7851 13.9093C10.6559 13.9718 10.5154 14.008 10.372 14.0155C10.2286 14.023 10.0852 14.0018 9.9501 13.953C9.81502 13.9043 9.69104 13.8291 9.58545 13.7318L3.08245 8.01043C2.9389 7.88411 2.82388 7.72869 2.74503 7.55449C2.66618 7.3803 2.6253 7.19131 2.62512 7.0001Z" fill="#B9C0C9"/>
</g>
</g>
<defs>
<clipPath id="clip0">
<rect width="14" height="14" fill="white"/>
</clipPath>
<clipPath id="clip1">
<rect width="14" height="14" fill="white" transform="translate(14) rotate(90)"/>
</clipPath>
</defs>
</svg>
