<svg width="238" height="66" viewBox="0 0 238 66" fill="none" xmlns="http://www.w3.org/2000/svg">
    <rect x="0.5" y="0.5" width="237" height="65" rx="4.5" stroke="#DCDFE4"/>
    <path d="M8.14648 22H9.25391L10.1094 19.5801H13.5137L14.3691 22H15.4766L12.3359 13.5449H11.293L8.14648 22ZM11.8027 14.8105H11.8262L13.1973 18.6836H10.4316L11.8027 14.8105ZM18.1953 22.1172C19.1211 22.1172 19.7422 21.7012 20.0703 21.1328H20.0938V22H21.1133V15.9062H20.0938V19.4922C20.0938 20.5293 19.4668 21.2148 18.5059 21.2148C17.5684 21.2148 17.1055 20.6699 17.1055 19.6797V15.9062H16.0859V19.8613C16.0859 21.25 16.8594 22.1172 18.1953 22.1172ZM24.4238 22.1172C24.623 22.1172 24.8398 22.0938 24.9688 22.0762V21.25C24.8809 21.2559 24.7637 21.2734 24.6406 21.2734C24.0957 21.2734 23.8086 21.0918 23.8086 20.4414V16.75H24.9688V15.9062H23.8086V14.2598H22.7539V15.9062H21.8633V16.75H22.7539V20.4473C22.7539 21.6133 23.3047 22.1172 24.4238 22.1172ZM28.4141 22.1172C30.0957 22.1172 31.2324 20.8984 31.2324 18.9531V18.9414C31.2324 16.9961 30.0898 15.7891 28.4082 15.7891C26.7266 15.7891 25.5898 17.002 25.5898 18.9414V18.9531C25.5898 20.8926 26.7207 22.1172 28.4141 22.1172ZM28.4199 21.2148C27.3418 21.2148 26.6328 20.3887 26.6328 18.9531V18.9414C26.6328 17.5176 27.3477 16.6914 28.4082 16.6914C29.4863 16.6914 30.1895 17.5117 30.1895 18.9414V18.9531C30.1895 20.3828 29.4922 21.2148 28.4199 21.2148ZM32.2988 19.0469H36.0488V18.0977H32.2988V19.0469ZM37.7363 22H38.7559V16.75H39.998V15.9062H38.7441V15.1621C38.7441 14.5586 39.0254 14.2715 39.5879 14.2715C39.7461 14.2715 39.9043 14.2773 40.0273 14.2949V13.4688C39.875 13.4453 39.6348 13.4277 39.4062 13.4277C38.2812 13.4277 37.7363 13.9844 37.7363 15.1562V15.9062H36.8867V16.75H37.7363V22ZM41.627 14.875C41.9844 14.875 42.2656 14.5879 42.2656 14.2363C42.2656 13.8789 41.9844 13.5977 41.627 13.5977C41.2754 13.5977 40.9883 13.8789 40.9883 14.2363C40.9883 14.5879 41.2754 14.875 41.627 14.875ZM41.1172 22H42.1367V15.9062H41.1172V22ZM43.5781 22H44.5977V13.5449H43.5781V22ZM46.0273 22H47.0469V13.5449H46.0273V22Z" fill="black"/>
    <rect x="8.5" y="32.5" width="221" height="23" rx="0.5" stroke="#EDEFF1"/>
    <path d="M44.8203 48H45.875V44.9824H47.832C49.4199 44.9824 50.5449 43.8633 50.5449 42.2578V42.2461C50.5449 40.6406 49.4199 39.5449 47.832 39.5449H44.8203V48ZM47.5625 40.4824C48.7695 40.4824 49.4668 41.1445 49.4668 42.2578V42.2695C49.4668 43.3828 48.7695 44.0449 47.5625 44.0449H45.875V40.4824H47.5625ZM52.8535 48.1172C53.668 48.1172 54.4004 47.6777 54.7578 47.0098H54.7812V48H55.8008V43.7871C55.8008 42.5684 54.8984 41.7891 53.457 41.7891C52.0215 41.7891 51.1484 42.5977 51.0605 43.5996L51.0547 43.6641H52.0391L52.0508 43.6113C52.168 43.0664 52.6602 42.6914 53.4453 42.6914C54.2949 42.6914 54.7812 43.1426 54.7812 43.8867V44.3965L53.0352 44.4961C51.6348 44.5781 50.8262 45.2285 50.8262 46.2656V46.2773C50.8262 47.3848 51.6406 48.1172 52.8535 48.1172ZM51.8691 46.2773V46.2656C51.8691 45.6973 52.3379 45.334 53.1523 45.2871L54.7812 45.1875V45.6855C54.7812 46.5703 54.043 47.2324 53.082 47.2324C52.3496 47.2324 51.8691 46.8633 51.8691 46.2773ZM59.2578 48.1172C60.6172 48.1172 61.625 47.3672 61.625 46.3008V46.2949C61.625 45.4277 61.1797 44.9414 59.9492 44.6426L58.9824 44.4082C58.3086 44.2441 58.0332 43.957 58.0332 43.541V43.5352C58.0332 42.9961 58.4902 42.6387 59.2285 42.6387C59.9844 42.6387 60.4355 43.0312 60.5176 43.623L60.5234 43.6641H61.4961L61.4902 43.5879C61.4141 42.5684 60.5645 41.7891 59.2285 41.7891C57.9102 41.7891 56.9902 42.5332 56.9902 43.582V43.5879C56.9902 44.4668 57.5469 45 58.6953 45.2754L59.6621 45.5098C60.3535 45.6797 60.582 45.9258 60.582 46.3652V46.3711C60.582 46.9219 60.0898 47.2676 59.2637 47.2676C58.4316 47.2676 57.9805 46.9102 57.8574 46.3008L57.8457 46.2422H56.8262L56.832 46.2949C56.9551 47.3848 57.8223 48.1172 59.2578 48.1172ZM64.8477 48.1172C66.207 48.1172 67.2148 47.3672 67.2148 46.3008V46.2949C67.2148 45.4277 66.7695 44.9414 65.5391 44.6426L64.5723 44.4082C63.8984 44.2441 63.623 43.957 63.623 43.541V43.5352C63.623 42.9961 64.0801 42.6387 64.8184 42.6387C65.5742 42.6387 66.0254 43.0312 66.1074 43.623L66.1133 43.6641H67.0859L67.0801 43.5879C67.0039 42.5684 66.1543 41.7891 64.8184 41.7891C63.5 41.7891 62.5801 42.5332 62.5801 43.582V43.5879C62.5801 44.4668 63.1367 45 64.2852 45.2754L65.252 45.5098C65.9434 45.6797 66.1719 45.9258 66.1719 46.3652V46.3711C66.1719 46.9219 65.6797 47.2676 64.8535 47.2676C64.0215 47.2676 63.5703 46.9102 63.4473 46.3008L63.4355 46.2422H62.416L62.4219 46.2949C62.5449 47.3848 63.4121 48.1172 64.8477 48.1172ZM69.4824 48H70.5195L71.8906 43.2832H71.9141L73.291 48H74.3281L76.0273 41.9062H75.0195L73.8008 46.8633H73.7773L72.3945 41.9062H71.4102L70.0332 46.8633H70.0098L68.791 41.9062H67.7773L69.4824 48ZM79.3906 48.1172C81.0723 48.1172 82.209 46.8984 82.209 44.9531V44.9414C82.209 42.9961 81.0664 41.7891 79.3848 41.7891C77.7031 41.7891 76.5664 43.002 76.5664 44.9414V44.9531C76.5664 46.8926 77.6973 48.1172 79.3906 48.1172ZM79.3965 47.2148C78.3184 47.2148 77.6094 46.3887 77.6094 44.9531V44.9414C77.6094 43.5176 78.3242 42.6914 79.3848 42.6914C80.4629 42.6914 81.166 43.5117 81.166 44.9414V44.9531C81.166 46.3828 80.4688 47.2148 79.3965 47.2148ZM83.2402 48H84.2598V44.2383C84.2598 43.3125 84.7754 42.7617 85.5664 42.7617C85.8125 42.7617 86.0293 42.791 86.1113 42.8203V41.8301C86.0293 41.8184 85.877 41.7891 85.7012 41.7891C85.0156 41.7891 84.4883 42.2344 84.2832 42.9375H84.2598V41.9062H83.2402V48ZM88.9414 48.1172C89.8145 48.1172 90.4941 47.6777 90.875 46.9688H90.8984V48H91.918V39.5449H90.8984V42.9258H90.875C90.4941 42.2227 89.7852 41.7891 88.9238 41.7891C87.3945 41.7891 86.3516 43.0254 86.3516 44.9473V44.9531C86.3516 46.875 87.3828 48.1172 88.9414 48.1172ZM89.1406 47.2148C88.0625 47.2148 87.3945 46.3535 87.3945 44.9531V44.9473C87.3945 43.5586 88.0625 42.6914 89.1406 42.6914C90.166 42.6914 90.9043 43.5879 90.9043 44.9473V44.9531C90.9043 46.3184 90.1719 47.2148 89.1406 47.2148ZM95.457 48.1172C96.8164 48.1172 97.8242 47.3672 97.8242 46.3008V46.2949C97.8242 45.4277 97.3789 44.9414 96.1484 44.6426L95.1816 44.4082C94.5078 44.2441 94.2324 43.957 94.2324 43.541V43.5352C94.2324 42.9961 94.6895 42.6387 95.4277 42.6387C96.1836 42.6387 96.6348 43.0312 96.7168 43.623L96.7227 43.6641H97.6953L97.6895 43.5879C97.6133 42.5684 96.7637 41.7891 95.4277 41.7891C94.1094 41.7891 93.1895 42.5332 93.1895 43.582V43.5879C93.1895 44.4668 93.7461 45 94.8945 45.2754L95.8613 45.5098C96.5527 45.6797 96.7812 45.9258 96.7812 46.3652V46.3711C96.7812 46.9219 96.2891 47.2676 95.4629 47.2676C94.6309 47.2676 94.1797 46.9102 94.0566 46.3008L94.0449 46.2422H93.0254L93.0312 46.2949C93.1543 47.3848 94.0215 48.1172 95.457 48.1172Z" fill="black"/>
    <path d="M153 52.1225V50.8725C153 50.541 152.868 50.223 152.634 49.9886C152.399 49.7542 152.082 49.6225 151.75 49.6225C151.418 49.6225 151.101 49.7542 150.866 49.9886C150.632 50.223 150.5 50.541 150.5 50.8725V50.25C150.5 49.9185 150.368 49.6005 150.134 49.3661C149.899 49.1317 149.582 49 149.25 49C148.918 49 148.601 49.1317 148.366 49.3661C148.132 49.6005 148 49.9185 148 50.25V45.25C148 44.9185 147.868 44.6005 147.634 44.3661C147.399 44.1317 147.082 44 146.75 44C146.418 44 146.101 44.1317 145.866 44.3661C145.632 44.6005 145.5 44.9185 145.5 45.25V52.75C144.837 52.75 144.201 53.0134 143.732 53.4822C143.263 53.9511 143 54.587 143 55.25C143 56.4695 143.381 57.6586 144.09 58.6508L145.007 59.93C145.353 60.4152 145.811 60.8108 146.341 61.0838C146.871 61.3569 147.459 61.4995 148.055 61.5H151.232C151.793 61.5 152.348 61.3895 152.866 61.1749C153.384 60.9603 153.855 60.6457 154.251 60.2492C154.647 59.8527 154.962 59.3819 155.176 58.8639C155.39 58.3458 155.5 57.7906 155.5 57.23V52.1225C155.5 51.791 155.368 51.473 155.134 51.2386C154.899 51.0042 154.582 50.8725 154.25 50.8725C153.918 50.8725 153.601 51.0042 153.366 51.2386C153.132 51.473 153 51.791 153 52.1225Z" fill="white" stroke="#1D3049" stroke-width="1.25" stroke-linecap="round" stroke-linejoin="round"/>
    <path d="M145.5 52.7475V54.6225V52.7475Z" fill="white"/>
    <path d="M145.5 52.7475V54.6225" stroke="#1D3049" stroke-width="1.25" stroke-linecap="round" stroke-linejoin="round"/>
    <path d="M148 52.1225V50.8725V52.1225Z" fill="white"/>
    <path d="M148 52.1225V50.8725" stroke="#1D3049" stroke-width="1.25" stroke-linecap="round" stroke-linejoin="round"/>
    <path d="M150.5 52.1225V50.8725V52.1225Z" fill="white"/>
    <path d="M150.5 52.1225V50.8725" stroke="#1D3049" stroke-width="1.25" stroke-linecap="round" stroke-linejoin="round"/>
    <path d="M38.3922 43.078L36.978 41.6637C36.9469 41.6327 36.9101 41.6082 36.8696 41.5914C36.8291 41.5747 36.7856 41.5661 36.7418 41.5662L27.7561 41.5666C27.3464 40.4684 26.564 39.5491 25.5454 38.9691C24.5269 38.3891 23.3369 38.1854 22.1834 38.3935C21.0299 38.6016 19.9862 39.2084 19.2346 40.1078C18.4829 41.0072 18.0712 42.1421 18.0712 43.3142C18.0712 44.4863 18.4829 45.6212 19.2346 46.5206C19.9862 47.42 21.0299 48.0267 22.1834 48.2348C23.3369 48.443 24.5269 48.2393 25.5454 47.6593C26.564 47.0793 27.3464 46.1599 27.7561 45.0617L29.9364 45.0613L30.5441 46.2761C30.5955 46.3776 30.6721 46.4643 30.7665 46.5279C30.8609 46.5914 30.97 46.6298 31.0834 46.6392C31.1969 46.6487 31.3108 46.6289 31.4144 46.5819C31.5181 46.5348 31.6079 46.462 31.6755 46.3704L32.6442 45.0613H33.3287L33.703 46.0597C33.7475 46.1788 33.825 46.2827 33.9266 46.3592C34.0281 46.4356 34.1494 46.4815 34.2762 46.4913C34.4029 46.5011 34.5298 46.4745 34.6419 46.4145C34.754 46.3546 34.8467 46.2639 34.9089 46.1531L35.5232 45.0617H36.7422C36.7861 45.0617 36.8294 45.053 36.8699 45.0362C36.9103 45.0193 36.947 44.9947 36.978 44.9637L38.3922 43.5494C38.4547 43.4869 38.4898 43.4021 38.4898 43.3137C38.4898 43.2253 38.4547 43.1405 38.3922 43.078V43.078ZM21.8926 44.0208C21.7528 44.1607 21.5746 44.2559 21.3806 44.2945C21.1866 44.3331 20.9855 44.3133 20.8028 44.2376C20.6201 44.1619 20.4639 44.0337 20.354 43.8693C20.2441 43.7048 20.1855 43.5115 20.1855 43.3137C20.1855 43.1159 20.2441 42.9226 20.354 42.7581C20.4639 42.5937 20.6201 42.4655 20.8028 42.3898C20.9855 42.3141 21.1866 42.2943 21.3806 42.3329C21.5746 42.3715 21.7528 42.4667 21.8926 42.6066C22.0802 42.7941 22.1855 43.0485 22.1855 43.3137C22.1855 43.5789 22.0802 43.8333 21.8926 44.0208Z" fill="#1D3049"/>
    <g clip-path="url(#clip10)">
        <g clip-path="url(#clip11)">
            <path d="M220.125 44C220.125 44.1363 220.096 44.2711 220.04 44.3953C219.984 44.5195 219.902 44.6304 219.8 44.7204L215.153 48.8084C214.999 48.9376 214.801 49.0014 214.601 48.9862C214.4 48.971 214.214 48.878 214.081 48.7271C213.948 48.5761 213.88 48.3793 213.89 48.1785C213.901 47.9778 213.989 47.7892 214.137 47.6529L218.2 44.0784C218.212 44.0686 218.221 44.0565 218.227 44.043C218.233 44.0295 218.236 44.0149 218.236 44C218.236 43.9852 218.233 43.9705 218.227 43.957C218.221 43.9435 218.212 43.9315 218.2 43.9217L214.137 40.3471C214.059 40.2812 213.994 40.2002 213.947 40.1089C213.9 40.0177 213.872 39.918 213.864 39.8157C213.857 39.7134 213.869 39.6106 213.902 39.5134C213.934 39.4161 213.986 39.3263 214.054 39.2493C214.122 39.1723 214.204 39.1096 214.296 39.0649C214.389 39.0202 214.489 38.9944 214.591 38.989C214.694 38.9837 214.796 38.9988 214.893 39.0336C214.989 39.0684 215.078 39.1222 215.153 39.1917L219.798 43.2784C219.901 43.3686 219.983 43.4796 220.039 43.604C220.096 43.7284 220.125 43.8634 220.125 44V44Z" fill="#41536B"/>
        </g>
    </g>
    <defs>
        <clipPath id="clip10">
            <rect width="10" height="10" fill="white" transform="translate(212 39)"/>
        </clipPath>
        <clipPath id="clip11">
            <rect width="10" height="10" fill="white" transform="translate(212 49) rotate(-90)"/>
        </clipPath>
    </defs>
</svg>
