<svg width="238" height="66" viewBox="0 0 238 66" fill="none" xmlns="http://www.w3.org/2000/svg">
<rect x="0.5" y="0.5" width="237" height="65" rx="4.5" stroke="#DCDFE4"/>
<rect x="8" y="8" width="186" height="18" rx="9" fill="#F6F8FA"/>
<path d="M39.4141 14.9062H38.4062L37.1875 19.8633H37.1641L35.7812 14.9062H34.7969L33.4199 19.8633H33.3965L32.1777 14.9062H31.1641L32.8691 21H33.9062L35.2773 16.2832H35.3008L36.6777 21H37.7148L39.4141 14.9062ZM42.6953 15.6855C43.6562 15.6855 44.2949 16.4121 44.3184 17.4316H41.0078C41.0723 16.418 41.7402 15.6855 42.6953 15.6855ZM44.2949 19.2539C44.125 19.8281 43.5566 20.2207 42.7832 20.2207C41.6875 20.2207 41.002 19.4531 41.002 18.2871V18.2285H45.373V17.8418C45.373 15.9961 44.3594 14.8008 42.7129 14.8008C41.0312 14.8008 39.9531 16.084 39.9531 17.9766C39.9531 19.8926 41.0137 21.1055 42.7598 21.1055C44.0898 21.1055 45.1211 20.3203 45.2969 19.2539H44.2949ZM49.4336 21.1055C50.9922 21.1055 52.0234 19.8691 52.0234 17.9531C52.0234 16.043 50.9863 14.8008 49.4512 14.8008C48.5898 14.8008 47.8809 15.2285 47.5 15.9258H47.4766V12.5449H46.457V21H47.4297V19.9688H47.4531C47.8457 20.6719 48.543 21.1055 49.4336 21.1055ZM49.2344 15.6973C50.3125 15.6973 50.9805 16.5703 50.9805 17.9531C50.9805 19.3477 50.3125 20.209 49.2344 20.209C48.2031 20.209 47.4707 19.3125 47.4707 17.9531C47.4707 16.5996 48.2031 15.6973 49.2344 15.6973ZM52.9551 16.5879C52.9551 17.4199 53.4824 17.9707 54.5547 18.2461L55.627 18.5215C56.3125 18.7031 56.5645 18.9375 56.5645 19.3711C56.5645 19.9219 56.0547 20.2734 55.2285 20.2734C54.4023 20.2734 53.9219 19.9336 53.8105 19.3008H52.791C52.8965 20.3789 53.8281 21.1055 55.1641 21.1055C56.5879 21.1055 57.5898 20.3555 57.5898 19.2949C57.5898 18.3984 57.1445 17.9531 55.9141 17.6426L54.9707 17.4141C54.2793 17.2383 53.957 16.957 53.957 16.5352C53.957 16.002 54.4492 15.6328 55.1934 15.6328C55.9434 15.6328 56.418 15.9961 56.4883 16.582H57.4609C57.4141 15.5508 56.4883 14.8008 55.2285 14.8008C53.8867 14.8008 52.9551 15.5449 52.9551 16.5879ZM58.7031 21H59.7227V14.9062H58.7031V21ZM59.2129 13.8809C59.5645 13.8809 59.8516 13.5938 59.8516 13.248C59.8516 12.8965 59.5645 12.6152 59.2129 12.6152C58.8672 12.6152 58.5801 12.8965 58.5801 13.248C58.5801 13.5938 58.8672 13.8809 59.2129 13.8809ZM61.4277 13.4355V14.9062H60.5195V15.7441H61.4277V19.418C61.4277 20.5898 61.8613 21.0469 62.9805 21.0469C63.2207 21.0469 63.502 21.0293 63.625 21V20.1445C63.5547 20.1562 63.3203 20.1738 63.2031 20.1738C62.6816 20.1738 62.4473 19.9219 62.4473 19.3652V15.7441H63.6309V14.9062H62.4473V13.4355H61.4277ZM66.9883 15.6855C67.9492 15.6855 68.5879 16.4121 68.6113 17.4316H65.3008C65.3652 16.418 66.0332 15.6855 66.9883 15.6855ZM68.5879 19.2539C68.418 19.8281 67.8496 20.2207 67.0762 20.2207C65.9805 20.2207 65.2949 19.4531 65.2949 18.2871V18.2285H69.666V17.8418C69.666 15.9961 68.6523 14.8008 67.0059 14.8008C65.3242 14.8008 64.2461 16.084 64.2461 17.9766C64.2461 19.8926 65.3066 21.1055 67.0527 21.1055C68.3828 21.1055 69.4141 20.3203 69.5898 19.2539H68.5879ZM71.5586 21.0586C71.9336 21.0586 72.2266 20.7656 72.2266 20.3906C72.2266 20.0156 71.9336 19.7227 71.5586 19.7227C71.1836 19.7227 70.8906 20.0156 70.8906 20.3906C70.8906 20.7656 71.1836 21.0586 71.5586 21.0586ZM78.4551 16.9043C78.3262 15.8086 77.418 14.8008 75.8945 14.8008C74.2129 14.8008 73.0938 16.0312 73.0938 17.9531C73.0938 19.916 74.2188 21.1055 75.9062 21.1055C77.2891 21.1055 78.3086 20.25 78.4668 19.0371H77.4648C77.2891 19.7695 76.7441 20.209 75.9121 20.209C74.8574 20.209 74.1309 19.3711 74.1309 17.9531C74.1309 16.5703 74.8457 15.6973 75.9004 15.6973C76.7969 15.6973 77.3125 16.2422 77.459 16.9043H78.4551ZM81.9297 21.1055C83.6113 21.1055 84.748 19.8926 84.748 17.9531C84.748 16.0078 83.6113 14.8008 81.9297 14.8008C80.2422 14.8008 79.1055 16.0078 79.1055 17.9531C79.1055 19.8926 80.2422 21.1055 81.9297 21.1055ZM81.9297 20.209C80.8516 20.209 80.1426 19.3887 80.1426 17.9531C80.1426 16.5176 80.8516 15.6973 81.9297 15.6973C83.0078 15.6973 83.7109 16.5176 83.7109 17.9531C83.7109 19.3887 83.0078 20.209 81.9297 20.209ZM85.7793 21H86.7988V17.1797C86.7988 16.3359 87.3848 15.7031 88.1934 15.7031C88.9492 15.7031 89.4414 16.1836 89.4414 16.916V21H90.4609V17.127C90.4609 16.3008 91.0293 15.7031 91.8379 15.7031C92.6406 15.7031 93.1035 16.1953 93.1035 17.0273V21H94.123V16.793C94.123 15.5859 93.3438 14.8008 92.1367 14.8008C91.2812 14.8008 90.5664 15.2344 90.2266 15.9609H90.2031C89.9395 15.2227 89.3242 14.8008 88.4922 14.8008C87.6719 14.8008 87.0508 15.2344 86.7637 15.8789H86.7402V14.9062H85.7793V21Z" fill="black"/>
<path d="M22.5771 15.5965C22.5322 15.59 22.4911 15.5674 22.4614 15.533C22.4317 15.4987 22.4155 15.4547 22.4156 15.4093V14.6417C22.4156 13.9411 22.1373 13.2692 21.6418 12.7737C21.1464 12.2783 20.4745 12 19.7739 12C19.0732 12 18.4013 12.2783 17.9059 12.7737C17.4105 13.2692 17.1322 13.9411 17.1322 14.6417V15.4093C17.1323 15.4547 17.116 15.4987 17.0863 15.533C17.0567 15.5674 17.0156 15.59 16.9706 15.5965C16.7012 15.6353 16.4548 15.7699 16.2766 15.9756C16.0983 16.1813 16.0001 16.4444 16 16.7166V20.8678C16 21.1681 16.1193 21.4561 16.3316 21.6684C16.5439 21.8807 16.8319 22 17.1322 22H22.4156C22.7158 22 23.0038 21.8807 23.2161 21.6684C23.4285 21.4561 23.5477 21.1681 23.5477 20.8678V16.7166C23.5476 16.4444 23.4494 16.1813 23.2712 15.9756C23.0929 15.7699 22.8465 15.6353 22.5771 15.5965ZM19.7739 19.9251C19.6246 19.9251 19.4787 19.8809 19.3545 19.7979C19.2304 19.715 19.1337 19.5971 19.0765 19.4592C19.0194 19.3213 19.0045 19.1695 19.0336 19.0231C19.0627 18.8767 19.1346 18.7422 19.2402 18.6366C19.3457 18.5311 19.4802 18.4592 19.6266 18.4301C19.773 18.401 19.9248 18.4159 20.0627 18.473C20.2006 18.5302 20.3185 18.6269 20.4014 18.751C20.4844 18.8751 20.5286 19.0211 20.5286 19.1704C20.5286 19.3705 20.4491 19.5625 20.3076 19.7041C20.166 19.8456 19.974 19.9251 19.7739 19.9251ZM20.906 15.3965C20.906 15.4465 20.8862 15.4945 20.8508 15.5299C20.8154 15.5653 20.7674 15.5852 20.7173 15.5852H18.8304C18.7804 15.5852 18.7324 15.5653 18.697 15.5299C18.6616 15.4945 18.6417 15.4465 18.6417 15.3965V14.6417C18.6417 14.3414 18.761 14.0535 18.9733 13.8412C19.1856 13.6288 19.4736 13.5095 19.7739 13.5095C20.0741 13.5095 20.3621 13.6288 20.5744 13.8412C20.7867 14.0535 20.906 14.3414 20.906 14.6417V15.3965Z" fill="#1D3049"/>
<rect x="200.5" y="11.5" width="11" height="11" rx="1.5" stroke="#1D3049"/>
<path d="M206.121 20H206.801V14.3633H206.113L204.613 15.4414V16.1484L206.105 15.1094H206.121V20Z" fill="#1D3049"/>
<rect x="8" y="32" width="222" height="20" rx="1" fill="#DCDFE4"/>
<path d="M221.256 27.8284C221.653 27.386 222.347 27.386 222.744 27.8284L226.564 32.0818C227.142 32.7256 226.685 33.75 225.82 33.75H218.18C217.315 33.75 216.858 32.7256 217.436 32.0818L221.256 27.8284Z" fill="#DCDFE4"/>
<path d="M19.5859 46.1406C21.5195 46.1406 22.709 45.1914 22.709 43.6914V43.6855C22.709 42.3965 21.9824 41.6934 20.248 41.3125L19.3105 41.1074C18.209 40.8672 17.6992 40.4336 17.6992 39.7422V39.7363C17.6992 38.9219 18.4375 38.3828 19.5684 38.377C20.6406 38.377 21.3613 38.8867 21.4902 39.748L21.502 39.8301H22.5566L22.5508 39.7422C22.457 38.3594 21.25 37.4043 19.5977 37.4043C17.8574 37.4043 16.627 38.377 16.6211 39.7656V39.7715C16.6211 41.0078 17.3945 41.752 19.0469 42.1152L19.9844 42.3203C21.1445 42.5781 21.6309 42.9941 21.6309 43.7383V43.7441C21.6309 44.6172 20.8633 45.168 19.6445 45.168C18.4199 45.168 17.5996 44.6465 17.4766 43.7969L17.4648 43.7148H16.4102L16.416 43.7969C16.5215 45.2441 17.7578 46.1406 19.5859 46.1406ZM26.2949 46.1172C27.625 46.1172 28.6211 45.3203 28.8203 44.3125L28.832 44.2539H27.8301L27.8125 44.3066C27.6367 44.8281 27.0918 45.2148 26.3184 45.2148C25.2344 45.2148 24.543 44.4824 24.5195 43.2285H28.9082V42.8535C28.9082 41.0254 27.8945 39.7891 26.2305 39.7891C24.5664 39.7891 23.4883 41.084 23.4883 42.9707V42.9766C23.4883 44.8926 24.543 46.1172 26.2949 46.1172ZM26.2246 40.6914C27.1152 40.6914 27.7715 41.248 27.8711 42.4316H24.5371C24.6484 41.2949 25.3398 40.6914 26.2246 40.6914ZM31.9199 46.1172C32.1191 46.1172 32.3359 46.0938 32.4648 46.0762V45.25C32.377 45.2559 32.2598 45.2734 32.1367 45.2734C31.5918 45.2734 31.3047 45.0918 31.3047 44.4414V40.75H32.4648V39.9062H31.3047V38.2598H30.25V39.9062H29.3594V40.75H30.25V44.4473C30.25 45.6133 30.8008 46.1172 31.9199 46.1172ZM35.541 46.1172C35.7402 46.1172 35.957 46.0938 36.0859 46.0762V45.25C35.998 45.2559 35.8809 45.2734 35.7578 45.2734C35.2129 45.2734 34.9258 45.0918 34.9258 44.4414V40.75H36.0859V39.9062H34.9258V38.2598H33.8711V39.9062H32.9805V40.75H33.8711V44.4473C33.8711 45.6133 34.4219 46.1172 35.541 46.1172ZM37.7559 38.875C38.1133 38.875 38.3945 38.5879 38.3945 38.2363C38.3945 37.8789 38.1133 37.5977 37.7559 37.5977C37.4043 37.5977 37.1172 37.8789 37.1172 38.2363C37.1172 38.5879 37.4043 38.875 37.7559 38.875ZM37.2461 46H38.2656V39.9062H37.2461V46ZM39.6543 46H40.6738V42.4141C40.6738 41.377 41.3008 40.6914 42.2617 40.6914C43.1992 40.6914 43.6621 41.2363 43.6621 42.2266V46H44.6816V42.0449C44.6816 40.6562 43.9082 39.7891 42.5723 39.7891C41.6465 39.7891 41.0254 40.2051 40.6973 40.7734H40.6738V39.9062H39.6543V46ZM48.5605 48.168C50.2129 48.168 51.25 47.2422 51.25 45.8301V39.9062H50.2305V40.9375H50.207C49.832 40.2578 49.1523 39.7891 48.291 39.7891C46.7441 39.7891 45.6836 41.0195 45.6836 42.9121V42.918C45.6836 44.8223 46.7324 46.0586 48.2676 46.0586C49.1406 46.0586 49.8438 45.625 50.207 44.9512H50.2305V45.7305C50.2305 46.6738 49.6211 47.2656 48.5488 47.2656C47.7168 47.2656 47.1367 46.9961 46.9434 46.5566L46.9199 46.5039H45.8945L45.9062 46.5566C46.1055 47.459 47.0547 48.168 48.5605 48.168ZM48.4902 45.1562C47.4062 45.1562 46.7266 44.3008 46.7266 42.918V42.9121C46.7266 41.5586 47.4062 40.6914 48.4902 40.6914C49.5215 40.6914 50.2305 41.5703 50.2305 42.9121V42.918C50.2305 44.2715 49.5273 45.1562 48.4902 45.1562ZM54.7305 46.1172C56.0898 46.1172 57.0977 45.3672 57.0977 44.3008V44.2949C57.0977 43.4277 56.6523 42.9414 55.4219 42.6426L54.4551 42.4082C53.7812 42.2441 53.5059 41.957 53.5059 41.541V41.5352C53.5059 40.9961 53.9629 40.6387 54.7012 40.6387C55.457 40.6387 55.9082 41.0312 55.9902 41.623L55.9961 41.6641H56.9688L56.9629 41.5879C56.8867 40.5684 56.0371 39.7891 54.7012 39.7891C53.3828 39.7891 52.4629 40.5332 52.4629 41.582V41.5879C52.4629 42.4668 53.0195 43 54.168 43.2754L55.1348 43.5098C55.8262 43.6797 56.0547 43.9258 56.0547 44.3652V44.3711C56.0547 44.9219 55.5625 45.2676 54.7363 45.2676C53.9043 45.2676 53.4531 44.9102 53.3301 44.3008L53.3184 44.2422H52.2988L52.3047 44.2949C52.4277 45.3848 53.2949 46.1172 54.7305 46.1172Z" fill="black"/>
<path d="M67 52.1225V50.8725C67 50.541 66.8683 50.223 66.6339 49.9886C66.3995 49.7542 66.0815 49.6225 65.75 49.6225C65.4185 49.6225 65.1005 49.7542 64.8661 49.9886C64.6317 50.223 64.5 50.541 64.5 50.8725V50.25C64.5 49.9185 64.3683 49.6005 64.1339 49.3661C63.8995 49.1317 63.5815 49 63.25 49C62.9185 49 62.6005 49.1317 62.3661 49.3661C62.1317 49.6005 62 49.9185 62 50.25V45.25C62 44.9185 61.8683 44.6005 61.6339 44.3661C61.3995 44.1317 61.0815 44 60.75 44C60.4185 44 60.1005 44.1317 59.8661 44.3661C59.6317 44.6005 59.5 44.9185 59.5 45.25V52.75C58.837 52.75 58.2011 53.0134 57.7322 53.4822C57.2634 53.9511 57 54.587 57 55.25C56.9998 56.4695 57.3809 57.6586 58.09 58.6508L59.0067 59.93C59.3533 60.4152 59.8107 60.8108 60.3409 61.0838C60.871 61.3569 61.4587 61.4995 62.055 61.5H65.2325C65.7931 61.5 66.3483 61.3895 66.8662 61.1749C67.3841 60.9603 67.8547 60.6457 68.251 60.2492C68.6473 59.8527 68.9616 59.3819 69.1759 58.8639C69.3902 58.3458 69.5003 57.7906 69.5 57.23V52.1225C69.5 51.791 69.3683 51.473 69.1339 51.2386C68.8995 51.0042 68.5815 50.8725 68.25 50.8725C67.9185 50.8725 67.6005 51.0042 67.3661 51.2386C67.1317 51.473 67 51.791 67 52.1225Z" fill="white" stroke="#1D3049" stroke-width="1.25" stroke-linecap="round" stroke-linejoin="round"/>
<path d="M59.5 52.7475V54.6225V52.7475Z" fill="white"/>
<path d="M59.5 52.7475V54.6225" stroke="#1D3049" stroke-width="1.25" stroke-linecap="round" stroke-linejoin="round"/>
<path d="M62 52.1225V50.8725V52.1225Z" fill="white"/>
<path d="M62 52.1225V50.8725" stroke="#1D3049" stroke-width="1.25" stroke-linecap="round" stroke-linejoin="round"/>
<path d="M64.5 52.1225V50.8725V52.1225Z" fill="white"/>
<path d="M64.5 52.1225V50.8725" stroke="#1D3049" stroke-width="1.25" stroke-linecap="round" stroke-linejoin="round"/>
<path d="M220.453 22.3095C220.453 22.738 220.624 23.1488 220.927 23.4518C221.23 23.7547 221.64 23.9249 222.069 23.9249C222.497 23.9249 222.908 23.7547 223.211 23.4518C223.514 23.1488 223.684 22.738 223.684 22.3095C223.684 21.8811 223.514 21.4702 223.211 21.1673C222.908 20.8643 222.497 20.6942 222.069 20.6942C221.64 20.6942 221.23 20.8643 220.927 21.1673C220.624 21.4702 220.453 21.8811 220.453 22.3095Z" fill="#1D3049"/>
<path d="M220.453 11.6942C220.453 12.1226 220.624 12.5335 220.927 12.8364C221.23 13.1394 221.64 13.3096 222.069 13.3096C222.497 13.3096 222.908 13.1394 223.211 12.8364C223.514 12.5335 223.684 12.1226 223.684 11.6942C223.684 11.2658 223.514 10.8549 223.211 10.5519C222.908 10.249 222.497 10.0788 222.069 10.0788C221.64 10.0788 221.23 10.249 220.927 10.5519C220.624 10.8549 220.453 11.2658 220.453 11.6942Z" fill="#1D3049"/>
<path d="M220.453 17.0019C220.453 17.4303 220.624 17.8412 220.927 18.1441C221.23 18.4471 221.64 18.6172 222.069 18.6172C222.497 18.6172 222.908 18.4471 223.211 18.1441C223.514 17.8412 223.684 17.4303 223.684 17.0019C223.684 16.5734 223.514 16.1626 223.211 15.8596C222.908 15.5567 222.497 15.3865 222.069 15.3865C221.64 15.3865 221.23 15.5567 220.927 15.8596C220.624 16.1626 220.453 16.5734 220.453 17.0019Z" fill="#1D3049"/>
</svg>
