<svg width="24" height="121" viewBox="0 0 24 121" fill="none" xmlns="http://www.w3.org/2000/svg">
<rect x="12" y="12" width="2" height="99" fill="#C7C7CC"/>
<rect x="0.5" y="0.928589" width="23" height="23" rx="5.5" fill="white" stroke="#9BA4B0"/>
<g clip-path="url(#clip0_42:3661)">
<path d="M9.83335 6.59526C9.83335 7.79187 10.8034 8.76192 12 8.76192C13.1966 8.76192 14.1667 7.79187 14.1667 6.59526C14.1667 5.39864 13.1966 4.42859 12 4.42859C10.8034 4.42859 9.83335 5.39864 9.83335 6.59526Z" fill="#1B283C"/>
<path d="M9.83335 12.4286C9.83335 13.6252 10.8034 14.5952 12 14.5952C13.1966 14.5952 14.1667 13.6252 14.1667 12.4286C14.1667 11.232 13.1966 10.2619 12 10.2619C10.8034 10.2619 9.83335 11.232 9.83335 12.4286Z" fill="#1B283C"/>
<path d="M9.83335 18.2619C9.83335 19.4586 10.8034 20.4286 12 20.4286C13.1966 20.4286 14.1667 19.4586 14.1667 18.2619C14.1667 17.0653 13.1966 16.0953 12 16.0953C10.8034 16.0953 9.83335 17.0653 9.83335 18.2619Z" fill="#1B283C"/>
</g>
<rect x="0.5" y="32.9286" width="23" height="23" rx="5.5" fill="white" stroke="#9BA4B0"/>
<path d="M12.4334 43.0953C11.8867 41.5419 10.4067 40.4286 8.66669 40.4286C6.46002 40.4286 4.66669 42.2219 4.66669 44.4286C4.66669 46.6353 6.46002 48.4286 8.66669 48.4286C10.4067 48.4286 11.8867 47.3153 12.4334 45.7619H15.3334V48.4286H18V45.7619H19.3334V43.0953H12.4334ZM8.66669 45.7619C7.93335 45.7619 7.33335 45.1619 7.33335 44.4286C7.33335 43.6953 7.93335 43.0953 8.66669 43.0953C9.40002 43.0953 10 43.6953 10 44.4286C10 45.1619 9.40002 45.7619 8.66669 45.7619Z" fill="#1B283C"/>
<rect y="69.4286" width="24" height="14.5882" rx="7.29412" fill="#BEC1C5"/>
<circle cx="7.31085" cy="76.7562" r="6" fill="white"/>
<rect y="101.429" width="24" height="14.5882" rx="7.29412" fill="#BEC1C5"/>
<circle cx="7.31085" cy="108.756" r="6" fill="white"/>
<defs>
<clipPath id="clip0_42:3661">
<rect width="16" height="16" fill="white" transform="translate(20 4.42859) rotate(90)"/>
</clipPath>
</defs>
</svg>
