<svg width="48" height="48" viewBox="0 0 48 48" fill="none" xmlns="http://www.w3.org/2000/svg">
<g clip-path="url(#clip0_1238_80698)">
<path d="M48 24C48 37.2528 37.2528 48 24 48C10.7472 48 0 37.2528 0 24C0 10.7472 10.7472 0 24 0C37.2528 0 48 10.7472 48 24Z" fill="#4CAF50"/>
<path d="M24.0001 0V24L33.6001 28.8L22.9885 48C23.3689 48 23.6197 48 24.0001 48C37.2637 48 48.0001 37.2636 48.0001 24C48.0001 10.7364 37.2637 0 24.0001 0Z" fill="#FFC107"/>
<path d="M48 24C48 37.2528 37.2528 48 24 48C10.7472 48 0 37.2528 0 24C0 10.7472 10.7472 0 24 0C37.2528 0 48 10.7472 48 24Z" fill="#4CAF50"/>
<path d="M24.0001 0V24L33.6001 28.8L22.9885 48C23.3689 48 23.6197 48 24.0001 48C37.2637 48 48.0001 37.2636 48.0001 24C48.0001 10.7364 37.2637 0 24.0001 0Z" fill="#FFC107"/>
<path d="M45.4081 13.2H24.0001V28.8L20.4001 27.6L3.79207 11.112H3.76807C8.01607 4.428 15.4921 0 24.0001 0C33.3601 0 41.4601 5.376 45.4081 13.2Z" fill="#F44336"/>
<path d="M3.79004 11.1167L14.4016 28.9511L20.4004 27.5999L3.79004 11.1167Z" fill="#DD2C00"/>
<path d="M22.9885 48.0002L33.7093 28.7294L28.8001 25.2002L22.9885 48.0002Z" fill="#558B2F"/>
<path d="M45.438 13.2002H24L22.1052 18.6962L45.438 13.2002Z" fill="#F9A825"/>
<path d="M34.8002 24.0002C34.8002 29.963 29.963 34.8002 24.0002 34.8002C18.0374 34.8002 13.2002 29.963 13.2002 24.0002C13.2002 18.0374 18.0374 13.2002 24.0002 13.2002C29.963 13.2002 34.8002 18.0374 34.8002 24.0002Z" fill="white"/>
<path d="M32.3999 24.0001C32.3999 28.6405 28.6403 32.4001 23.9999 32.4001C19.3595 32.4001 15.5999 28.6405 15.5999 24.0001C15.5999 19.3597 19.3595 15.6001 23.9999 15.6001C28.6403 15.6001 32.3999 19.3597 32.3999 24.0001Z" fill="#2196F3"/>
</g>
<defs>
<clipPath id="clip0_1238_80698">
<rect width="48" height="48" fill="white"/>
</clipPath>
</defs>
</svg>
