<svg width="12" height="12" viewBox="0 0 12 12" fill="none" xmlns="http://www.w3.org/2000/svg">
<path fill-rule="evenodd" clip-rule="evenodd" d="M4.58631 6.00004L0.343675 1.7574C0.156138 1.56986 0.0507812 1.31551 0.0507812 1.05029C0.0507812 0.785077 0.156138 0.530723 0.343675 0.343187C0.531211 0.155651 0.785565 0.050293 1.05078 0.050293C1.316 0.050293 1.57035 0.155651 1.75789 0.343187L6.00053 4.58583L10.2432 0.343186C10.4307 0.15565 10.6851 0.050293 10.9503 0.050293C11.2155 0.050293 11.4698 0.15565 11.6574 0.343186C11.8449 0.530723 11.9503 0.785077 11.9503 1.05029C11.9503 1.31551 11.8449 1.56986 11.6574 1.7574L7.41474 6.00004L11.6574 10.2427C11.8449 10.4302 11.9503 10.6846 11.9503 10.9498C11.9503 11.215 11.8449 11.4694 11.6574 11.6569C11.4698 11.8444 11.2155 11.9498 10.9503 11.9498C10.6851 11.9498 10.4307 11.8444 10.2432 11.6569L6.00053 7.41425L1.75789 11.6569C1.57035 11.8444 1.316 11.9498 1.05078 11.9498C0.785565 11.9498 0.531211 11.8444 0.343675 11.6569C0.156138 11.4694 0.0507812 11.215 0.0507812 10.9498C0.0507812 10.6846 0.156138 10.4302 0.343675 10.2427L4.58631 6.00004Z" fill="#97A1AE"/>
</svg>
