<svg width="12" height="12" viewBox="0 0 12 12" fill="none" xmlns="http://www.w3.org/2000/svg">
<g clip-path="url(#clip0)">
<path d="M7.15006 6.08952C7.13842 6.07791 7.12919 6.06412 7.12289 6.04893C7.11658 6.03374 7.11334 6.01746 7.11334 6.00102C7.11334 5.98458 7.11658 5.9683 7.12289 5.95311C7.12919 5.93793 7.13842 5.92413 7.15006 5.91252L11.7816 1.28152C11.9222 1.14069 12.0011 0.949764 12.001 0.750741C12.0008 0.551718 11.9216 0.360903 11.7808 0.220272C11.64 0.0796407 11.4491 0.00071403 11.25 0.00085468C11.051 0.00099533 10.8602 0.0801918 10.7196 0.221022L6.08856 4.85002C6.07695 4.86166 6.06316 4.8709 6.04797 4.8772C6.03279 4.8835 6.01651 4.88675 6.00006 4.88675C5.98362 4.88675 5.96734 4.8835 5.95216 4.8772C5.93697 4.8709 5.92317 4.86166 5.91156 4.85002L1.28056 0.221022C1.21093 0.151355 1.12826 0.0960867 1.03726 0.0583711C0.946271 0.0206554 0.84874 0.00123144 0.75024 0.00120822C0.551311 0.00116134 0.360511 0.0801407 0.219814 0.220772C0.0791162 0.361403 4.6905e-05 0.552166 2.08617e-08 0.751095C-4.68632e-05 0.950024 0.0789325 1.14082 0.219564 1.28152L4.85006 5.91252C4.8617 5.92413 4.87094 5.93793 4.87724 5.95311C4.88354 5.9683 4.88679 5.98458 4.88679 6.00102C4.88679 6.01746 4.88354 6.03374 4.87724 6.04893C4.87094 6.06412 4.8617 6.07791 4.85006 6.08952L0.219564 10.721C0.14993 10.7907 0.0947003 10.8734 0.0570276 10.9644C0.0193548 11.0554 -2.31938e-05 11.1529 2.08617e-08 11.2514C4.6905e-05 11.4504 0.0791162 11.6411 0.219814 11.7818C0.28948 11.8514 0.372179 11.9066 0.46319 11.9443C0.554201 11.982 0.651741 12.0014 0.75024 12.0013C0.94917 12.0013 1.13993 11.9222 1.28056 11.7815L5.91156 7.15002C5.92317 7.13838 5.93697 7.12915 5.95216 7.12284C5.96734 7.11654 5.98362 7.1133 6.00006 7.1133C6.01651 7.1133 6.03279 7.11654 6.04797 7.12284C6.06316 7.12915 6.07695 7.13838 6.08856 7.15002L10.7196 11.7815C10.8602 11.9222 11.051 12.0013 11.2499 12.0013C11.4488 12.0014 11.6396 11.9224 11.7803 11.7818C11.921 11.6411 12.0001 11.4504 12.0001 11.2514C12.0002 11.0525 11.9212 10.8617 11.7806 10.721L7.15006 6.08952Z" fill="#41536B"/>
</g>
<defs>
<clipPath id="clip0">
<rect width="12" height="12" fill="white"/>
</clipPath>
</defs>
</svg>
