<svg width="30" height="30" viewBox="0 0 30 30" fill="none" xmlns="http://www.w3.org/2000/svg">
<path d="M16.5334 15.1194C16.5178 15.104 16.5055 15.0856 16.4971 15.0653C16.4887 15.0451 16.4844 15.0234 16.4844 15.0014C16.4844 14.9795 16.4887 14.9578 16.4971 14.9376C16.5055 14.9173 16.5178 14.8989 16.5334 14.8834L22.7087 8.70878C22.8962 8.521 23.0014 8.26643 23.0012 8.00107C23.0011 7.73571 22.8955 7.48129 22.7077 7.29378C22.5199 7.10627 22.2653 7.00103 22 7.00122C21.7346 7.00141 21.4802 7.107 21.2927 7.29478L15.118 13.4668C15.1025 13.4823 15.0841 13.4946 15.0639 13.503C15.0437 13.5114 15.0219 13.5157 15 13.5157C14.9781 13.5157 14.9564 13.5114 14.9361 13.503C14.9159 13.4946 14.8975 13.4823 14.882 13.4668L8.70736 7.29478C8.61451 7.20189 8.50428 7.1282 8.38296 7.07791C8.26163 7.02762 8.13159 7.00172 8.00026 7.00169C7.73502 7.00163 7.48062 7.10694 7.29302 7.29444C7.10543 7.48195 7 7.7363 6.99994 8.00154C6.99988 8.26678 7.10518 8.52118 7.29269 8.70878L13.4667 14.8834C13.4822 14.8989 13.4945 14.9173 13.5029 14.9376C13.5113 14.9578 13.5157 14.9795 13.5157 15.0014C13.5157 15.0234 13.5113 15.0451 13.5029 15.0653C13.4945 15.0856 13.4822 15.104 13.4667 15.1194L7.29269 21.2948C7.19985 21.3877 7.12621 21.4979 7.07598 21.6193C7.02575 21.7406 6.99991 21.8707 6.99994 22.002C7 22.2673 7.10543 22.5216 7.29302 22.7091C7.38591 22.802 7.49618 22.8756 7.61753 22.9258C7.73887 22.9761 7.86893 23.0019 8.00026 23.0019C8.2655 23.0018 8.51985 22.8964 8.70736 22.7088L14.882 16.5334C14.8975 16.5179 14.9159 16.5056 14.9361 16.4972C14.9564 16.4888 14.9781 16.4845 15 16.4845C15.0219 16.4845 15.0437 16.4888 15.0639 16.4972C15.0841 16.5056 15.1025 16.5179 15.118 16.5334L21.2927 22.7088C21.4802 22.8964 21.7345 23.0018 21.9998 23.0019C22.265 23.0019 22.5194 22.8966 22.707 22.7091C22.8946 22.5216 23 22.2673 23.0001 22.002C23.0002 21.7368 22.8949 21.4824 22.7074 21.2948L16.5334 15.1194Z" fill="#40526D"/>
<defs>
<clipPath id="clip0">
<rect width="16" height="16" fill="white" transform="translate(7 7)"/>
</clipPath>
</defs>
</svg>
