<svg width="16" height="16" viewBox="0 0 16 16" fill="none" xmlns="http://www.w3.org/2000/svg">
    <g clip-path="url(#clip0)">
        <path d="M9.53342 8.1192C9.5179 8.10372 9.50558 8.08533 9.49718 8.06508C9.48878 8.04483 9.48445 8.02312 9.48445 8.0012C9.48445 7.97928 9.48878 7.95757 9.49718 7.93732C9.50558 7.91707 9.5179 7.89868 9.53342 7.8832L15.7087 1.70853C15.8963 1.52076 16.0015 1.26619 16.0013 1.00083C16.0011 0.735462 15.8955 0.481041 15.7078 0.293533C15.52 0.106025 15.2654 0.000789279 15 0.000976813C14.7347 0.00116435 14.4803 0.10676 14.2927 0.294533L8.11808 6.46653C8.1026 6.48205 8.08421 6.49437 8.06396 6.50277C8.04371 6.51117 8.02201 6.5155 8.00008 6.5155C7.97816 6.5155 7.95645 6.51117 7.93621 6.50277C7.91596 6.49437 7.89757 6.48205 7.88208 6.46653L1.70742 0.294533C1.61457 0.201645 1.50434 0.127953 1.38302 0.0776653C1.26169 0.0273778 1.13165 0.00147916 1.00032 0.0014482C0.735081 0.00138569 0.480681 0.106692 0.293085 0.2942C0.105488 0.481708 6.25399e-05 0.736058 2.78156e-08 1.0013C-6.24843e-05 1.26654 0.105243 1.52094 0.292751 1.70853L6.46675 7.8832C6.48227 7.89868 6.49459 7.91707 6.50299 7.93732C6.51139 7.95757 6.51572 7.97928 6.51572 8.0012C6.51572 8.02312 6.51139 8.04483 6.50299 8.06508C6.49459 8.08533 6.48227 8.10372 6.46675 8.1192L0.292751 14.2945C0.199907 14.3874 0.126267 14.4977 0.0760367 14.619C0.0258064 14.7404 -3.0925e-05 14.8704 2.78156e-08 15.0018C6.25399e-05 15.267 0.105488 15.5214 0.293085 15.7089C0.385973 15.8017 0.496239 15.8754 0.617587 15.9256C0.738934 15.9758 0.868987 16.0016 1.00032 16.0016C1.26556 16.0016 1.51991 15.8961 1.70742 15.7085L7.88208 9.5332C7.89757 9.51768 7.91596 9.50536 7.93621 9.49696C7.95645 9.48856 7.97816 9.48424 8.00008 9.48424C8.02201 9.48424 8.04371 9.48856 8.06396 9.49696C8.08421 9.50536 8.1026 9.51768 8.11808 9.5332L14.2927 15.7085C14.4803 15.8961 14.7346 16.0016 14.9998 16.0016C15.2651 16.0017 15.5195 15.8964 15.7071 15.7089C15.8947 15.5214 16.0001 15.267 16.0002 15.0018C16.0002 14.7365 15.8949 14.4821 15.7074 14.2945L9.53342 8.1192Z" fill="#526278"/>
    </g>
    <defs>
        <clipPath id="clip0">
            <rect width="16" height="16" fill="white"/>
        </clipPath>
    </defs>
</svg>
