<svg width="16" height="16" viewBox="0 0 16 16" fill="none" xmlns="http://www.w3.org/2000/svg">
<path fill-rule="evenodd" clip-rule="evenodd" d="M7.99999 9.41425L3.75735 13.6569C3.56982 13.8444 3.31546 13.9498 3.05025 13.9498C2.78503 13.9498 2.53068 13.8444 2.34314 13.6569C2.1556 13.4694 2.05025 13.215 2.05025 12.9498C2.05025 12.6846 2.1556 12.4302 2.34314 12.2427L6.58578 8.00004L2.34314 3.7574C2.1556 3.56986 2.05025 3.31551 2.05025 3.05029C2.05025 2.78508 2.1556 2.53072 2.34314 2.34319C2.53068 2.15565 2.78503 2.05029 3.05025 2.05029C3.31546 2.05029 3.56982 2.15565 3.75735 2.34319L7.99999 6.58583L12.2426 2.34319C12.4302 2.15565 12.6845 2.05029 12.9497 2.05029C13.215 2.05029 13.4693 2.15565 13.6568 2.34319C13.8444 2.53072 13.9497 2.78508 13.9497 3.05029C13.9497 3.31551 13.8444 3.56986 13.6568 3.7574L9.41421 8.00004L13.6568 12.2427C13.8444 12.4302 13.9497 12.6846 13.9497 12.9498C13.9497 13.215 13.8444 13.4694 13.6568 13.6569C13.4693 13.8444 13.215 13.9498 12.9497 13.9498C12.6845 13.9498 12.4302 13.8444 12.2426 13.6569L7.99999 9.41425Z" fill="#B9C0C9"/>
</svg>
