<svg width="13" height="13" viewBox="0 0 13 13" fill="none" xmlns="http://www.w3.org/2000/svg">
    <path d="M7.04171 1.0835H2.16671C1.5684 1.0835 1.08337 1.56852 1.08337 2.16683V7.04183C1.08337 7.64014 1.5684 8.12516 2.16671 8.12516H7.04171C7.64002 8.12516 8.12504 7.64014 8.12504 7.04183V2.16683C8.12504 1.56852 7.64002 1.0835 7.04171 1.0835Z" fill="#283952"/>
    <path d="M11.9167 6.875C11.9167 5.77043 11.0212 4.875 9.91667 4.875H9.20833V6.20833C9.20833 7.86519 7.86519 9.20833 6.20833 9.20833H4.875V9.91667C4.875 11.0212 5.77043 11.9167 6.875 11.9167H9.91667C11.0212 11.9167 11.9167 11.0212 11.9167 9.91667V6.875Z" fill="#283952"/>
</svg>
