<svg width="84" height="337" viewBox="0 0 84 337" fill="none" xmlns="http://www.w3.org/2000/svg">
<path d="M1.33708 330.857C1.21595 331.105 1.31892 331.404 1.56708 331.526L5.61102 333.5C5.85917 333.621 6.15854 333.518 6.27967 333.27C6.40081 333.021 6.29783 332.722 6.04968 332.601L2.45506 330.846L4.2097 327.252C4.33083 327.003 4.22786 326.704 3.9797 326.583C3.73155 326.462 3.43218 326.565 3.31105 326.813L1.33708 330.857ZM42.9999 1.00003C42.5366 1.18807 42.5366 1.18806 42.5366 1.18806C42.5366 1.18807 42.5366 1.18807 42.5366 1.18808C42.5366 1.18809 42.5366 1.18812 42.5366 1.18815C42.5367 1.18823 42.5367 1.18834 42.5368 1.18851C42.5369 1.18884 42.5371 1.18934 42.5374 1.19003C42.538 1.19141 42.5388 1.19351 42.54 1.19632C42.5422 1.20195 42.5457 1.21046 42.5503 1.22183C42.5595 1.24456 42.5732 1.27872 42.5915 1.32418C42.628 1.41511 42.6825 1.55123 42.7542 1.73145C42.8974 2.0919 43.1093 2.62879 43.3833 3.33347L44.3153 2.97114C44.0404 2.26404 43.8276 1.72479 43.6834 1.36205C43.6113 1.18068 43.5564 1.04344 43.5194 0.951398C43.5009 0.905379 43.4869 0.870662 43.4775 0.847382C43.4728 0.835742 43.4693 0.826961 43.4669 0.821057C43.4657 0.818104 43.4648 0.815871 43.4642 0.814359C43.4639 0.813603 43.4636 0.813027 43.4635 0.812632C43.4634 0.812434 43.4633 0.812282 43.4633 0.812175C43.4633 0.812121 43.4632 0.812079 43.4632 0.812048C43.4632 0.812032 43.4632 0.812017 43.4632 0.81201C43.4632 0.811998 43.4632 0.811988 42.9999 1.00003ZM45.2132 8.14357C45.7225 9.50788 46.2945 11.0598 46.9204 12.7877L47.8606 12.4472C47.2336 10.7161 46.6605 9.16109 46.15 7.79383L45.2132 8.14357ZM48.5654 17.3916C49.0875 18.8722 49.6349 20.4431 50.204 22.0997L51.1498 21.7748C50.5797 20.1156 50.0315 18.5421 49.5085 17.059L48.5654 17.3916ZM51.843 26.9322C52.3402 28.4174 52.8499 29.9573 53.3701 31.5493L54.3207 31.2387C53.7997 29.6444 53.2893 28.1022 52.7912 26.6147L51.843 26.9322ZM54.9294 36.3822C55.4132 37.9012 55.904 39.46 56.4003 41.057L57.3552 40.7602C56.8582 39.161 56.3668 37.5998 55.8822 36.0787L54.9294 36.3822ZM57.8876 45.9055C58.3526 47.4412 58.821 49.0075 59.2918 50.603L60.2509 50.32C59.7794 48.7222 59.3103 47.1536 58.8447 45.6157L57.8876 45.9055ZM60.7103 55.4756C61.1551 57.0246 61.601 58.5981 62.0472 60.1947L63.0103 59.9255C62.5635 58.3266 62.1169 56.7509 61.6714 55.1996L60.7103 55.4756ZM63.3799 65.0327C63.8095 66.6147 64.2384 68.2172 64.6659 69.839L65.6329 69.5841C65.2047 67.9599 64.7752 66.355 64.345 64.7706L63.3799 65.0327ZM65.9142 74.6478C66.3264 76.2606 66.7365 77.8908 67.1437 79.5372L68.1145 79.2971C67.7066 77.6481 67.2959 76.0155 66.883 74.4002L65.9142 74.6478ZM68.3087 84.326C68.694 85.9368 69.076 87.5616 69.454 89.1998L70.4284 88.975C70.0498 87.3342 69.6672 85.7067 69.2813 84.0934L68.3087 84.326ZM70.5557 94.0637C70.9123 95.6688 71.2647 97.2854 71.6122 98.9129L72.5902 98.704C72.2421 97.0739 71.8891 95.4545 71.5318 93.8468L70.5557 94.0637ZM72.6395 103.827C72.9692 105.438 73.2937 107.06 73.6124 108.69L74.5938 108.498C74.2746 106.865 73.9495 105.241 73.6193 103.626L72.6395 103.827ZM74.546 113.581C74.8508 115.218 75.1494 116.863 75.4411 118.515L76.4259 118.341C76.1336 116.686 75.8345 115.038 75.5291 113.398L74.546 113.581ZM76.2798 123.399C76.5525 125.034 76.8181 126.674 77.0762 128.321L78.0641 128.166C77.8055 126.516 77.5394 124.872 77.2662 123.234L76.2798 123.399ZM77.825 133.262C78.0642 134.897 78.2956 136.537 78.5187 138.181L79.5096 138.047C79.2861 136.399 79.0542 134.755 78.8144 133.117L77.825 133.262ZM79.1623 143.126C79.3676 144.773 79.5641 146.425 79.7513 148.079L80.7449 147.966C80.5573 146.308 80.3604 144.653 80.1546 143.002L79.1623 143.126ZM80.2823 153.026C80.4498 154.678 80.6076 156.332 80.7552 157.987L81.7512 157.898C81.6032 156.239 81.4451 154.581 81.2772 152.925L80.2823 153.026ZM81.1667 162.954C81.2934 164.609 81.4093 166.266 81.5142 167.923L82.5122 167.859C82.4071 166.198 82.2908 164.537 82.1638 162.878L81.1667 162.954ZM81.7951 172.893C81.8775 174.553 81.9483 176.213 82.0069 177.872L83.0063 177.837C82.9475 176.173 82.8765 174.508 82.7939 172.843L81.7951 172.893ZM82.1462 182.853C82.1801 184.511 82.2014 186.169 82.2096 187.823L83.2096 187.818C83.2014 186.158 83.18 184.496 83.146 182.832L82.1462 182.853ZM82.194 192.811C82.1751 194.474 82.1424 196.135 82.0954 197.791L83.095 197.82C83.1422 196.157 83.175 194.491 83.1939 192.822L82.194 192.811ZM81.9108 202.75C81.8338 204.417 81.7416 206.079 81.6337 207.737L82.6316 207.802C82.7399 206.138 82.8324 204.469 82.9097 202.796L81.9108 202.75ZM81.2619 212.7C81.1218 214.351 80.9655 215.995 80.7923 217.633L81.7868 217.739C81.9607 216.093 82.1177 214.442 82.2584 212.785L81.2619 212.7ZM80.2128 222.6C80.002 224.249 79.7733 225.889 79.5263 227.522L80.5151 227.672C80.7633 226.031 80.9929 224.383 81.2047 222.727L80.2128 222.6ZM78.7254 232.42C78.4358 234.065 78.1267 235.701 77.7974 237.327L78.7775 237.525C79.1085 235.891 79.4192 234.247 79.7102 232.594L78.7254 232.42ZM76.7485 242.173C76.3745 243.795 75.9792 245.406 75.5623 247.005L76.5299 247.258C76.9493 245.649 77.3468 244.029 77.723 242.398L76.7485 242.173ZM74.2343 251.806C73.7692 253.394 73.2813 254.969 72.7702 256.53L73.7206 256.841C74.235 255.269 74.726 253.685 75.194 252.087L74.2343 251.806ZM71.1399 261.246C70.571 262.806 69.9772 264.352 69.3582 265.882L70.2852 266.257C70.9087 264.716 71.5065 263.159 72.0794 261.588L71.1399 261.246ZM67.4166 270.44C66.7364 271.959 66.0294 273.461 65.295 274.945L66.1913 275.388C66.9315 273.893 67.6439 272.379 68.3292 270.849L67.4166 270.44ZM63.009 279.342C62.2149 280.798 61.3925 282.234 60.541 283.65L61.398 284.165C62.2568 282.737 63.0862 281.289 63.8868 279.821L63.009 279.342ZM57.8917 287.849C56.9791 289.228 56.0367 290.587 55.0637 291.923L55.8722 292.512C56.854 291.163 57.805 289.793 58.7256 288.401L57.8917 287.849ZM52.0563 295.862C51.0229 297.153 49.9584 298.421 48.862 299.666L49.6124 300.327C50.7193 299.07 51.7939 297.79 52.8369 296.487L52.0563 295.862ZM45.5018 303.304C44.3571 304.485 43.1808 305.643 41.9721 306.777L42.6561 307.506C43.8765 306.362 45.0643 305.192 46.22 303.999L45.5018 303.304ZM38.2485 310.103C37.0069 311.159 35.7339 312.191 34.429 313.198L35.0401 313.99C36.3575 312.973 37.6428 311.931 38.8964 310.864L38.2485 310.103ZM30.4256 316.14C29.0732 317.085 27.6891 318.005 26.2727 318.899L26.8066 319.745C28.2362 318.842 29.6333 317.913 30.9984 316.959L30.4256 316.14ZM22.0649 321.425C20.6315 322.243 19.1672 323.036 17.6715 323.803L18.1278 324.692C19.6367 323.919 21.114 323.119 22.5603 322.294L22.0649 321.425ZM13.207 325.972C11.735 326.65 10.2344 327.303 8.7048 327.933L9.08553 328.858C10.6276 328.223 12.1406 327.564 13.625 326.881L13.207 325.972ZM4.02825 329.75C3.23416 330.041 2.43268 330.325 1.62377 330.603L1.94904 331.549C2.76407 331.269 3.57168 330.982 4.37192 330.689L4.02825 329.75ZM0.887753 330.638C0.645488 331.134 0.851434 331.733 1.34775 331.975L9.43563 335.923C9.93194 336.165 10.5307 335.959 10.7729 335.463C11.0152 334.966 10.8093 334.368 10.3129 334.125L3.12372 330.616L6.63299 323.427C6.87526 322.931 6.66931 322.332 6.173 322.09C5.67669 321.847 5.07795 322.053 4.83569 322.55L0.887753 330.638ZM42.9999 1.00003C42.0733 1.37611 42.0733 1.3761 42.0733 1.37609C42.0733 1.37609 42.0733 1.37609 42.0733 1.37609C42.0733 1.3761 42.0733 1.37611 42.0733 1.37614C42.0734 1.3762 42.0734 1.3763 42.0735 1.37645C42.0736 1.37674 42.0738 1.37721 42.074 1.37787C42.0746 1.37918 42.0754 1.38121 42.0765 1.38395C42.0787 1.38945 42.0821 1.39782 42.0866 1.40905C42.0957 1.43151 42.1094 1.46539 42.1275 1.51058C42.1638 1.60095 42.2181 1.7365 42.2895 1.91615C42.4323 2.27546 42.6438 2.81117 42.9172 3.51463L44.7813 2.78997C44.506 2.08167 44.2927 1.54124 44.1481 1.17735C44.0757 0.99541 44.0206 0.8576 43.9834 0.765005C43.9648 0.718708 43.9507 0.683714 43.9411 0.66016C43.9364 0.648383 43.9328 0.639465 43.9303 0.633424C43.9291 0.630404 43.9282 0.628103 43.9275 0.626523C43.9272 0.625733 43.927 0.625123 43.9268 0.624694C43.9267 0.624479 43.9266 0.62431 43.9266 0.624186C43.9266 0.624123 43.9265 0.624073 43.9265 0.624033C43.9265 0.624013 43.9265 0.623992 43.9265 0.623982C43.9265 0.623964 43.9265 0.623948 42.9999 1.00003ZM44.7448 8.31844C45.2535 9.68127 45.825 11.2317 46.4503 12.958L48.3307 12.2769C47.7031 10.5442 47.1294 8.9877 46.6185 7.61896L44.7448 8.31844ZM48.0939 17.5578C48.6155 19.0372 49.1625 20.6069 49.7312 22.2622L51.6226 21.6123C51.0521 19.9518 50.5034 18.3771 49.9801 16.8928L48.0939 17.5578ZM51.3688 27.0909C51.8657 28.5751 52.3751 30.1138 52.8948 31.7046L54.7959 31.0834C54.2746 29.4879 53.7638 27.9446 53.2654 26.456L51.3688 27.0909ZM54.453 36.534C54.9365 38.0518 55.4269 39.6096 55.9228 41.2053L57.8327 40.6118C57.3353 39.0114 56.8435 37.4492 56.3586 35.9269L54.453 36.534ZM57.409 46.0504C57.8737 47.585 58.3418 49.1502 58.8123 50.7445L60.7305 50.1785C60.2586 48.5796 59.7892 47.0098 59.3232 45.4708L57.409 46.0504ZM60.2297 55.6136C60.6742 57.1615 61.1198 58.7338 61.5656 60.3292L63.4918 59.791C63.0447 58.1909 62.5978 56.614 62.152 55.0616L60.2297 55.6136ZM62.8974 65.1637C63.3266 66.7446 63.7552 68.3459 64.1824 69.9664L66.1163 69.4567C65.6879 67.8312 65.258 66.2252 64.8275 64.6396L62.8974 65.1637ZM65.4297 74.7716C65.8416 76.3832 66.2514 78.0121 66.6583 79.6573L68.5998 79.177C68.1916 77.5268 67.7806 75.8929 67.3675 74.2764L65.4297 74.7716ZM67.8225 84.4423C68.2074 86.0518 68.5891 87.6754 68.9668 89.3123L70.9156 88.8626C70.5367 87.2204 70.1538 85.5916 69.7676 83.9771L67.8225 84.4423ZM70.0676 94.1722C70.4239 95.7759 70.776 97.3912 71.1232 99.0173L73.0791 98.5996C72.7307 96.9681 72.3775 95.3474 72.0199 93.7383L70.0676 94.1722ZM72.1497 103.927C72.4791 105.537 72.8033 107.157 73.1217 108.786L75.0845 108.402C74.765 106.767 74.4397 105.142 74.1091 103.526L72.1497 103.927ZM74.0545 113.672C74.359 115.308 74.6573 116.951 74.9487 118.602L76.9183 118.254C76.6257 116.597 76.3263 114.948 76.0207 113.306L74.0545 113.672ZM75.7866 123.481C76.059 125.114 76.3244 126.753 76.5822 128.398L78.5581 128.089C78.2993 126.437 78.0328 124.791 77.7594 123.152L75.7866 123.481ZM77.3302 133.334C77.5693 134.968 77.8004 136.606 78.0232 138.248L80.0051 137.979C79.7813 136.33 79.5492 134.685 79.3092 133.044L77.3302 133.334ZM78.6661 143.188C78.8712 144.833 79.0675 146.483 79.2545 148.135L81.2418 147.91C81.0539 146.25 80.8567 144.593 80.6508 142.94L78.6661 143.188ZM79.7849 153.077C79.9521 154.726 80.1097 156.378 80.2571 158.032L82.2492 157.854C82.1011 156.192 81.9427 154.533 81.7746 152.875L79.7849 153.077ZM80.6682 162.992C80.7946 164.645 80.9105 166.3 81.0152 167.954L83.0112 167.828C82.9059 166.164 82.7895 164.501 82.6624 162.84L80.6682 162.992ZM81.2957 172.918C81.378 174.576 81.4487 176.233 81.5072 177.89L83.506 177.819C83.4471 176.153 83.376 174.486 83.2933 172.818L81.2957 172.918ZM81.6463 182.863C81.6802 184.519 81.7015 186.174 81.7096 187.826L83.7096 187.816C83.7014 186.153 83.68 184.488 83.6459 182.822L81.6463 182.863ZM81.694 192.805C81.6752 194.466 81.6426 196.123 81.5956 197.777L83.5948 197.834C83.6421 196.168 83.675 194.499 83.6939 192.828L81.694 192.805ZM81.4113 202.727C81.3344 204.391 81.2424 206.05 81.1348 207.704L83.1305 207.834C83.239 206.167 83.3317 204.495 83.4092 202.819L81.4113 202.727ZM80.7637 212.658C80.6239 214.305 80.4679 215.946 80.2951 217.581L82.284 217.791C82.4583 216.143 82.6156 214.488 82.7566 212.827L80.7637 212.658ZM79.7168 222.537C79.5065 224.181 79.2784 225.819 79.032 227.447L81.0095 227.747C81.2582 226.102 81.4884 224.45 81.7007 222.79L79.7168 222.537ZM78.233 232.334C77.9441 233.974 77.6358 235.606 77.3073 237.227L79.2675 237.624C79.5994 235.986 79.9109 234.338 80.2027 232.68L78.233 232.334ZM76.2613 242.061C75.8883 243.678 75.4942 245.285 75.0784 246.879L77.0137 247.384C77.4344 245.77 77.833 244.145 78.2102 242.51L76.2613 242.061ZM73.7545 251.665C73.2908 253.248 72.8045 254.818 72.295 256.374L74.1958 256.997C74.7119 255.42 75.2044 253.83 75.6738 252.228L73.7545 251.665ZM70.6702 261.075C70.1032 262.63 69.5115 264.17 68.8947 265.694L70.7486 266.444C71.3744 264.898 71.9743 263.336 72.5492 261.76L70.6702 261.075ZM66.9602 270.236C66.2826 271.749 65.5784 273.245 64.8469 274.723L66.6394 275.61C67.3825 274.109 68.0976 272.589 68.7856 271.053L66.9602 270.236ZM62.5701 279.103C61.7793 280.552 60.9603 281.982 60.1125 283.393L61.8265 284.423C62.689 282.988 63.5218 281.534 64.3257 280.061L62.5701 279.103ZM57.4747 287.574C56.5662 288.946 55.628 290.299 54.6595 291.629L56.2764 292.806C57.2627 291.451 58.2179 290.075 59.1426 288.677L57.4747 287.574ZM51.666 295.55C50.6374 296.834 49.5779 298.097 48.4868 299.336L49.9877 300.657C51.0997 299.395 52.1793 298.109 53.2272 296.8L51.666 295.55ZM45.1427 302.956C44.0035 304.132 42.8329 305.284 41.6301 306.412L42.9982 307.871C44.2244 306.721 45.4179 305.546 46.5791 304.347L45.1427 302.956ZM37.9245 309.722C36.6889 310.773 35.4221 311.8 34.1235 312.803L35.3456 314.386C36.6693 313.364 37.9607 312.317 39.2204 311.245L37.9245 309.722ZM30.1391 315.73C28.7932 316.671 27.4156 317.586 26.0057 318.477L27.0736 320.168C28.5097 319.261 29.9133 318.328 31.2849 317.369L30.1391 315.73ZM21.8172 320.991C20.3903 321.805 18.9325 322.594 17.4433 323.358L18.356 325.137C19.8714 324.36 21.3552 323.557 22.808 322.728L21.8172 320.991ZM12.998 325.518C11.5322 326.192 10.0379 326.844 8.51443 327.471L9.2759 329.32C10.8241 328.683 12.3433 328.021 13.8339 327.335L12.998 325.518ZM3.85641 329.281C3.0654 329.57 2.26699 329.853 1.46114 330.131L2.11167 332.022C2.92976 331.74 3.74044 331.453 4.54376 331.159L3.85641 329.281Z" fill="black"/>
</svg>
