<svg width="60" height="40" viewBox="0 0 60 40" fill="none" xmlns="http://www.w3.org/2000/svg">
<path fill-rule="evenodd" clip-rule="evenodd" d="M10.4246 28.3027C11.1149 28.3027 11.6746 27.7431 11.6746 27.0527C11.6746 26.3624 11.1149 25.8027 10.4246 25.8027C9.7342 25.8027 9.17456 26.3624 9.17456 27.0527C9.17456 27.7431 9.7342 28.3027 10.4246 28.3027Z" stroke="#D7DBE0" stroke-linecap="round" stroke-linejoin="round"/>
<rect x="9" y="8" width="2.5" height="2.5" stroke="#D7DBE0" stroke-linecap="round" stroke-linejoin="round"/>
<rect width="2.5" height="2.5" transform="matrix(0.707107 -0.707106 0.707107 0.707106 48 27.4233)" stroke="#D7DBE0" stroke-linecap="round" stroke-linejoin="round"/>
<path d="M34.5662 9.32553C36.5117 9.97524 38.5907 10.118 40.6067 9.74035C40.2291 11.7564 40.3719 13.8354 41.0215 15.7808C41.9376 17.6163 43.307 19.1876 44.9999 20.346C43.307 21.5045 41.9376 23.0758 41.0215 24.9112C40.3719 26.8567 40.2291 28.9357 40.6067 30.9517C38.5907 30.5746 36.5118 30.7174 34.5662 31.3665C32.733 32.2837 31.1637 33.6529 30.0065 35.3449C28.8459 33.6513 27.2718 32.2822 25.4337 31.3676C23.4883 30.7175 21.4093 30.5744 19.3932 30.9517C19.7705 28.9356 19.6274 26.8566 18.9773 24.9112C18.0616 23.0758 16.6926 21.5045 15 20.346C16.6926 19.1875 18.0616 17.6162 18.9773 15.7808C19.6274 13.8355 19.7705 11.7564 19.3932 9.74035C21.4092 10.1174 23.4881 9.97463 25.4337 9.32553C27.2716 8.41014 28.8456 7.04081 30.0065 5.34717C31.1637 7.03912 32.733 8.40831 34.5662 9.32553Z" fill="white" stroke="#D7DBE0" stroke-width="1.25" stroke-linecap="round" stroke-linejoin="round"/>
<path d="M32.7849 13.6232C33.9719 14.0196 35.2404 14.1065 36.4704 13.8757C36.2396 15.1057 36.3266 16.3742 36.7229 17.5612C37.2825 18.6808 38.1186 19.6391 39.152 20.3452C38.1187 21.0515 37.2826 22.0097 36.7229 23.1292C36.3265 24.3158 36.2396 25.584 36.4704 26.8136C35.2403 26.5831 33.9718 26.6704 32.7849 27.0673C31.6674 27.6268 30.7112 28.4621 30.0063 29.4941C29.2995 28.4617 28.3409 27.6268 27.2213 27.0683C26.0348 26.6716 24.7666 26.5842 23.5369 26.8147C23.7652 25.5841 23.676 24.3157 23.2778 23.1292C22.7193 22.0096 21.8844 21.0509 20.852 20.3441C21.8841 19.6374 22.719 18.6792 23.2778 17.5601C23.674 16.3731 23.7613 15.1048 23.5314 13.8747C24.7611 14.1054 26.0292 14.0184 27.2158 13.6221C28.3373 13.0642 29.2979 12.2293 30.0063 11.1963C30.7113 12.2282 31.6675 13.0634 32.7849 13.6232Z" fill="white" stroke="#D7DBE0" stroke-width="1.25" stroke-linecap="round" stroke-linejoin="round"/>
<path d="M30.0013 2V38.6915" stroke="#D7DBE0" stroke-width="1.25" stroke-linecap="round" stroke-linejoin="round"/>
<path d="M17.8537 8.19824L45 35.3445" stroke="#D7DBE0" stroke-width="1.25" stroke-linecap="round" stroke-linejoin="round"/>
<path d="M15.0022 20.3457H44.9988" stroke="#D7DBE0" stroke-width="1.25" stroke-linecap="round" stroke-linejoin="round"/>
<path d="M15 35.3835L42.1462 8.2373" stroke="#D7DBE0" stroke-width="1.25" stroke-linecap="round" stroke-linejoin="round"/>
<path d="M28.2499 36C28.1264 36 28.0199 35.9075 28.0024 35.7855L27.7649 34.1215L27.3059 33.686C27.1144 33.973 26.8049 34 26.4999 34C26.1954 34 25.8859 33.973 25.6944 33.686L25.2354 34.1215L24.9974 35.7855C24.9799 35.9075 24.8739 36 24.7499 36C24.7384 36 24.7264 35.9995 24.7144 35.9975C24.5779 35.978 24.4824 35.851 24.5024 35.7145L24.7524 33.9645C24.7604 33.909 24.7869 33.8575 24.8274 33.8185L25.5234 33.1585C25.5199 33.132 25.5169 33.105 25.5144 33.077L24.1634 33.463L23.4644 34.6285C23.4194 34.7035 23.3374 34.75 23.2499 34.75C23.2049 34.75 23.1604 34.7375 23.1214 34.7145C23.0639 34.68 23.0239 34.6255 23.0074 34.5605C22.9914 34.496 23.0014 34.4285 23.0354 34.3715L23.7854 33.1215C23.8179 33.067 23.8694 33.0275 23.9309 33.01L25.3654 32.6L23.9024 31.98C23.8189 31.9445 23.7614 31.867 23.7514 31.777L23.5014 29.527C23.4939 29.4605 23.5129 29.3955 23.5544 29.343C23.5959 29.2905 23.6559 29.258 23.7219 29.2505C23.7314 29.2505 23.7409 29.25 23.7504 29.25C23.8779 29.25 23.9844 29.3455 23.9984 29.4725L24.2324 31.577L25.5979 32.1555C25.6179 32.098 25.6414 32.0415 25.6669 31.9865C25.0569 31.6205 24.6999 30.945 24.7504 30.232C24.7499 29.0335 25.5894 28.2165 26.2499 28.037V24.25C26.2499 24.112 26.3619 24 26.4999 24C26.6379 24 26.7499 24.112 26.7499 24.25V28.037C27.4089 28.2165 28.2479 29.035 28.2499 30.245C28.2984 30.948 27.9414 31.621 27.3329 31.9865C27.3589 32.0415 27.3819 32.098 27.4024 32.156L28.7674 31.5765L29.0014 29.472C29.0159 29.345 29.1229 29.2495 29.2509 29.2495C29.2599 29.2495 29.2684 29.25 29.2774 29.251C29.4149 29.266 29.5139 29.39 29.4989 29.527L29.2489 31.777C29.2389 31.8665 29.1814 31.944 29.0979 31.9795L27.6364 32.5995L29.0689 33.009C29.1304 33.0265 29.1819 33.0665 29.2149 33.121L29.9649 34.371C29.9994 34.4285 30.0094 34.4955 29.9929 34.56C29.9769 34.625 29.9364 34.6795 29.8789 34.714C29.8399 34.7375 29.7954 34.75 29.7499 34.75C29.6624 34.75 29.5804 34.7035 29.5354 34.6285L28.8364 33.463L27.4854 33.077C27.4829 33.105 27.4799 33.132 27.4764 33.1585L28.1719 33.8185C28.2124 33.857 28.2394 33.909 28.2474 33.9645L28.4974 35.7145C28.5069 35.7805 28.4899 35.8465 28.4499 35.9C28.4099 35.9535 28.3514 35.988 28.2854 35.9975C28.2734 35.9995 28.2614 36 28.2499 36ZM26.0199 32.5115C26.0184 32.529 26.0149 32.5435 26.0124 32.553C26.0034 32.614 25.9989 32.681 25.9999 32.746C25.9999 33.5 26.1359 33.5 26.4999 33.5C26.8639 33.5 26.9999 33.5 26.9999 32.75C27.0029 32.552 26.9594 32.3585 26.8724 32.184C26.7544 32.2175 26.6364 32.2395 26.5204 32.249C26.5169 32.249 26.5034 32.2495 26.4999 32.2495C26.4934 32.2495 26.4869 32.2495 26.4809 32.249C26.3639 32.2395 26.2459 32.2175 26.1279 32.184C26.0764 32.2875 26.0399 32.397 26.0199 32.5115ZM26.4999 28.5C26.1789 28.5 25.2499 29.1015 25.2499 30.25C25.1964 31.01 25.7564 31.6765 26.4999 31.749C27.2434 31.676 27.8034 31.0145 27.7504 30.2675C27.7504 30.2645 27.7499 30.2525 27.7499 30.25C27.7499 29.1015 26.8214 28.5 26.4999 28.5Z" fill="#D7DBE0"/>
<path d="M26.4999 28.5C26.1789 28.5 25.2499 29.1015 25.2499 30.25C25.1964 31.01 25.7564 31.6765 26.4999 31.749C27.2434 31.676 27.8034 31.0145 27.7504 30.2675C27.7504 30.2645 27.7499 30.2525 27.7499 30.25C27.7499 29.1015 26.8214 28.5 26.4999 28.5Z" fill="#D7DBE0"/>
<path d="M26.0199 32.5115C26.0184 32.529 26.0149 32.5435 26.0124 32.553C26.0034 32.614 25.9989 32.681 25.9999 32.746C25.9999 33.5 26.1359 33.5 26.4999 33.5C26.8639 33.5 26.9999 33.5 26.9999 32.75C27.0029 32.552 26.9594 32.3585 26.8724 32.184C26.7544 32.2175 26.6364 32.2395 26.5204 32.249C26.5169 32.249 26.5034 32.2495 26.4999 32.2495C26.4934 32.2495 26.4869 32.2495 26.4809 32.249C26.3639 32.2395 26.2459 32.2175 26.1279 32.184C26.0764 32.2875 26.0399 32.397 26.0199 32.5115Z" fill="#D7DBE0"/>
<path d="M26.4999 30.75C26.2994 30.75 26.1109 30.672 25.9694 30.531C25.6769 30.2385 25.6769 29.7625 25.9694 29.4705C26.0164 29.4235 26.0794 29.3975 26.1464 29.3975C26.2134 29.3975 26.2759 29.4235 26.3234 29.4705C26.3704 29.5175 26.3964 29.5805 26.3964 29.6475C26.3964 29.7145 26.3704 29.777 26.3234 29.8245C26.2259 29.922 26.2259 30.0805 26.3234 30.178C26.3704 30.224 26.4329 30.25 26.4999 30.25C26.5669 30.25 26.6294 30.224 26.6769 30.177C26.7744 30.0795 26.7744 29.921 26.6769 29.8235C26.6299 29.7765 26.6039 29.7135 26.6039 29.6465C26.6039 29.5795 26.6299 29.517 26.6769 29.4695C26.7239 29.422 26.7869 29.3965 26.8539 29.3965C26.9209 29.3965 26.9834 29.4225 27.0309 29.4695C27.3234 29.762 27.3234 30.2375 27.0309 30.53C26.8889 30.672 26.7004 30.75 26.4999 30.75Z" fill="#D7DBE0"/>
<path d="M37.1042 2.10417L39.4795 4.47953" stroke="#D7DBE0" stroke-linecap="round" stroke-linejoin="round"/>
<path d="M39.3958 2.10417L37.0204 4.47953" stroke="#D7DBE0" stroke-linecap="round" stroke-linejoin="round"/>
</svg>
