<svg width="48" height="48" viewBox="0 0 48 48" fill="none" xmlns="http://www.w3.org/2000/svg">
<path d="M24 48C37.2548 48 48 37.2548 48 24C48 10.7452 37.2548 0 24 0C10.7452 0 0 10.7452 0 24C0 37.2548 10.7452 48 24 48Z" fill="#10353E"/>
<path d="M25.5328 21.5111L28.0547 22.4392C28.4625 22.5845 28.9594 22.3923 28.9594 22.0876V15.6986C28.9594 15.5533 28.8375 15.4173 28.6406 15.347L26.1188 14.4189C25.7109 14.2736 25.2141 14.4658 25.2141 14.7705V21.1642C25.2141 21.3095 25.3359 21.4408 25.5328 21.5111ZM25.5328 32.9861L28.0547 33.9142C28.4625 34.0595 28.9594 33.8674 28.9594 33.5627V27.1736C28.9594 27.0283 28.8375 26.8923 28.6406 26.822L26.1188 25.8939C25.7109 25.7486 25.2141 25.9408 25.2141 26.2455V32.6392C25.2141 32.7845 25.3359 32.9205 25.5328 32.9861ZM20.8594 19.3736L23.3812 20.3017C23.7891 20.447 24.2859 20.2548 24.2859 19.9501V12.9986C24.2859 12.8533 24.1641 12.7173 23.9672 12.647L21.4453 11.7189C21.0375 11.5736 20.5406 11.7658 20.5406 12.0704V19.0267C20.5406 19.172 20.6625 19.3033 20.8594 19.3736V19.3736ZM20.8594 34.697L23.3812 35.6252C23.7891 35.7705 24.2859 35.5783 24.2859 35.2736V28.3361C24.2859 28.1908 24.1641 28.0548 23.9672 27.9845L21.4453 27.0564C21.0375 26.9111 20.5406 27.1033 20.5406 27.408V34.3455C20.5406 34.4908 20.6625 34.6267 20.8594 34.697ZM19.6125 13.2564C19.6125 13.1111 19.4906 12.9751 19.2938 12.9048L16.7719 11.9767C16.3641 11.8314 15.8672 12.0236 15.8672 12.3283V34.083C15.8672 34.2283 15.9891 34.3642 16.1859 34.4345L18.7078 35.3627C19.1156 35.508 19.6125 35.3158 19.6125 35.0111V13.2564V13.2564ZM33.3141 19.0314L30.7922 18.1033C30.3844 17.958 29.8875 18.1501 29.8875 18.4548V28.9548C29.8875 29.1002 30.0094 29.2361 30.2063 29.3064L32.7281 30.2345C33.1359 30.3798 33.6328 30.1877 33.6328 29.883V19.383C33.6328 19.2376 33.5109 19.1017 33.3141 19.0314Z" fill="white"/>
</svg>
