<svg width="60" height="40" viewBox="0 0 60 40" fill="none" xmlns="http://www.w3.org/2000/svg">
<path d="M42.8618 3.71436H8.3303C7.04331 3.71436 6 4.75767 6 6.04466V35.9111C6 37.1981 7.04331 38.2414 8.3303 38.2414H42.8618C44.1488 38.2414 45.1921 37.1981 45.1921 35.9111V6.04466C45.1921 4.75767 44.1488 3.71436 42.8618 3.71436Z" fill="white"/>
<path d="M6 32.5371V5.71116C6.00019 5.09306 6.24587 4.50034 6.683 4.06335C7.12014 3.62635 7.71293 3.38086 8.33103 3.38086H35.5946L6 32.5371Z" fill="#B5D9F1"/>
<path d="M42.8618 3.38086H8.3303C7.04331 3.38086 6 4.42417 6 5.71116V35.5776C6 36.8646 7.04331 37.9079 8.3303 37.9079H42.8618C44.1488 37.9079 45.1921 36.8646 45.1921 35.5776V5.71116C45.1921 4.42417 44.1488 3.38086 42.8618 3.38086Z" stroke="#264887" stroke-width="1.25" stroke-linecap="round" stroke-linejoin="round"/>
<path d="M42.8618 3.38086H8.33104C7.71293 3.38086 7.12014 3.62635 6.683 4.06335C6.24587 4.50034 6.00019 5.09306 6 5.71116V10.3725H45.1921V5.71116C45.1921 5.09313 44.9466 4.50041 44.5095 4.06339C44.0725 3.62637 43.4798 3.38086 42.8618 3.38086Z" fill="white"/>
<path d="M9.49581 8.04197C10.1395 8.04197 10.6613 7.52015 10.6613 6.87645C10.6613 6.23276 10.1395 5.71094 9.49581 5.71094C8.85211 5.71094 8.33029 6.23276 8.33029 6.87645C8.33029 7.52015 8.85211 8.04197 9.49581 8.04197Z" fill="#264887" stroke="#264887" stroke-width="0.773578" stroke-linecap="round" stroke-linejoin="round"/>
<path d="M14.1572 8.04197C14.8009 8.04197 15.3227 7.52015 15.3227 6.87645C15.3227 6.23276 14.8009 5.71094 14.1572 5.71094C13.5135 5.71094 12.9916 6.23276 12.9916 6.87645C12.9916 7.52015 13.5135 8.04197 14.1572 8.04197Z" fill="#264887" stroke="#264887" stroke-width="0.773578" stroke-linecap="round" stroke-linejoin="round"/>
<path d="M18.8185 8.04197C19.4622 8.04197 19.984 7.52015 19.984 6.87645C19.984 6.23276 19.4622 5.71094 18.8185 5.71094C18.1748 5.71094 17.653 6.23276 17.653 6.87645C17.653 7.52015 18.1748 8.04197 18.8185 8.04197Z" fill="#264887" stroke="#264887" stroke-width="0.773578" stroke-linecap="round" stroke-linejoin="round"/>
<path d="M42.8618 3.38086H8.33103C7.71293 3.38086 7.12014 3.62635 6.683 4.06335C6.24587 4.50034 6.00019 5.09306 6 5.71116V10.3718H45.1921V5.71116C45.1921 5.09313 44.9466 4.50041 44.5095 4.06339C44.0725 3.62637 43.4798 3.38086 42.8618 3.38086V3.38086Z" stroke="#264887" stroke-width="1.25" stroke-linecap="round" stroke-linejoin="round"/>
<path d="M42.9134 20.1847C48.2111 20.1847 52.5058 15.8901 52.5058 10.5924C52.5058 5.29465 48.2111 1 42.9134 1C37.6157 1 33.321 5.29465 33.321 10.5924C33.321 15.8901 37.6157 20.1847 42.9134 20.1847Z" fill="white"/>
<path d="M42.9134 1C41.0162 1 39.1616 1.56258 37.5842 2.61661C36.0067 3.67063 34.7772 5.16875 34.0512 6.92153C33.3252 8.6743 33.1352 10.603 33.5054 12.4637C33.8755 14.3245 34.7891 16.0337 36.1306 17.3752C37.4721 18.7167 39.1813 19.6303 41.042 20.0004C42.9028 20.3705 44.8315 20.1806 46.5843 19.4546C48.337 18.7285 49.8352 17.4991 50.8892 15.9216C51.9432 14.3441 52.5058 12.4896 52.5058 10.5924C52.5059 9.33264 52.2579 8.08523 51.7759 6.92137C51.2939 5.75751 50.5873 4.7 49.6965 3.80924C48.8058 2.91848 47.7483 2.21192 46.5844 1.7299C45.4206 1.24789 44.1731 0.999867 42.9134 1ZM42.9134 4.19745C44.0565 4.19673 45.1786 4.50426 46.1616 5.08767L37.4138 13.8355C36.8392 12.8653 36.5319 11.7602 36.523 10.6326C36.5141 9.50509 36.8039 8.3953 37.3631 7.41611C37.9222 6.43693 38.7307 5.62329 39.7063 5.05794C40.682 4.49259 41.7899 4.1957 42.9175 4.19745H42.9134ZM42.9134 16.9873C41.772 16.9868 40.6517 16.6789 39.6703 16.096L48.4181 7.34822C48.9933 8.31875 49.3012 9.42432 49.3104 10.5525C49.3196 11.6806 49.0298 12.7911 48.4705 13.7708C47.9112 14.7506 47.1023 15.5648 46.1262 16.1305C45.1501 16.6961 44.0416 16.9932 42.9134 16.9913V16.9873Z" fill="#D32D27" stroke="#264887" stroke-width="1.25" stroke-linecap="round" stroke-linejoin="round"/>
<path d="M11.2377 10.375C10.209 10.375 9.375 11.209 9.375 12.2377V19.7623C9.375 20.791 10.209 21.625 11.2377 21.625H27.7623C28.791 21.625 29.625 20.791 29.625 19.7623V12.2377C29.625 11.209 28.791 10.375 27.7623 10.375H11.2377Z" fill="white" stroke="#264887" stroke-width="1.25"/>
<path d="M18 13.5L27 13.5" stroke="#90C6EB" stroke-width="1.09868" stroke-linecap="round" stroke-linejoin="round"/>
<path d="M18 16L27 16" stroke="#90C6EB" stroke-width="1.09868" stroke-linecap="round" stroke-linejoin="round"/>
<path d="M21 19H27" stroke="#D32D27" stroke-width="1.09868" stroke-linecap="round" stroke-linejoin="round"/>
<path d="M15.0625 13.9792H14.9063V13.4062C14.9063 13.0333 14.7581 12.6756 14.4944 12.4119C14.2307 12.1482 13.873 12 13.5 12C13.127 12 12.7694 12.1482 12.5056 12.4119C12.2419 12.6756 12.0938 13.0333 12.0938 13.4062V13.9792H11.9375C11.827 13.9792 11.721 14.0231 11.6429 14.1012C11.5647 14.1793 11.5208 14.2853 11.5208 14.3958V16.5833C11.5208 16.6938 11.5647 16.7998 11.6429 16.878C11.721 16.9561 11.827 17 11.9375 17H15.0625C15.173 17 15.279 16.9561 15.3571 16.878C15.4353 16.7998 15.4792 16.6938 15.4792 16.5833V14.3958C15.4792 14.2853 15.4353 14.1793 15.3571 14.1012C15.279 14.0231 15.173 13.9792 15.0625 13.9792ZM13.5 15.8542C13.4176 15.8542 13.337 15.8297 13.2685 15.7839C13.2 15.7382 13.1466 15.6731 13.1151 15.597C13.0835 15.5208 13.0753 15.437 13.0913 15.3562C13.1074 15.2754 13.1471 15.2011 13.2054 15.1429C13.2637 15.0846 13.3379 15.0449 13.4187 15.0288C13.4995 15.0128 13.5833 15.021 13.6595 15.0526C13.7356 15.0841 13.8007 15.1375 13.8465 15.206C13.8922 15.2745 13.9167 15.3551 13.9167 15.4375C13.9167 15.548 13.8728 15.654 13.7946 15.7321C13.7165 15.8103 13.6105 15.8542 13.5 15.8542ZM14.3854 13.875C14.3854 13.9026 14.3745 13.9291 14.3549 13.9487C14.3354 13.9682 14.3089 13.9792 14.2813 13.9792H12.7188C12.6911 13.9792 12.6646 13.9682 12.6451 13.9487C12.6256 13.9291 12.6146 13.9026 12.6146 13.875V13.4062C12.6146 13.1714 12.7079 12.9462 12.8739 12.7802C13.04 12.6141 13.2652 12.5208 13.5 12.5208C13.7348 12.5208 13.96 12.6141 14.1261 12.7802C14.2921 12.9462 14.3854 13.1714 14.3854 13.4062V13.875Z" fill="#264887"/>
<rect width="2.5" height="2.5" transform="matrix(0.707107 -0.707106 0.707107 0.707106 50 27.7676)" stroke="#B5D9F1" stroke-linecap="round" stroke-linejoin="round"/>
<path d="M56.1042 17.1042L58.4795 19.4795" stroke="#B5D9F1" stroke-linecap="round" stroke-linejoin="round"/>
<path d="M58.3958 17.1042L56.0205 19.4795" stroke="#B5D9F1" stroke-linecap="round" stroke-linejoin="round"/>
</svg>
