<svg width="360" height="159" viewBox="0 0 360 159" fill="none" xmlns="http://www.w3.org/2000/svg">
<rect x="0.5" y="0.928589" width="359" height="157" rx="9.5" fill="white" stroke="#BAC0CA"/>
<rect x="18" y="24.4286" width="24" height="24" fill="#D32D27"/>
<circle cx="23.25" cy="35.6786" r="2.25" fill="white"/>
<circle cx="35.25" cy="35.6786" r="2.25" fill="white"/>
<circle cx="29.25" cy="35.6786" r="2.25" fill="white"/>
<line x1="40" y1="30.4286" x2="40" y2="40.9286" stroke="white"/>
<path d="M60.7339 28.6781H59.8154L58.8862 31.9061H60.2666L60.7339 28.6781ZM62.8232 28.6781H61.9048L60.9756 31.9061H62.3506L62.8232 28.6781ZM64.6709 36.4286H69.6123V35.2631H66.0566V28.6781H64.6709V36.4286ZM72.5664 36.5253C73.3398 36.5253 73.9629 36.1923 74.2852 35.6229H74.3765V36.4286H75.6978V32.4164C75.6978 31.1757 74.8491 30.4452 73.3398 30.4452C71.9434 30.4452 70.998 31.1005 70.8691 32.0887L70.8638 32.1371H72.126L72.1313 32.1156C72.2656 31.7289 72.6631 31.5087 73.2754 31.5087C73.9951 31.5087 74.3765 31.8309 74.3765 32.4164V32.9213L72.8672 33.0126C71.4385 33.0985 70.6382 33.7108 70.6382 34.7582V34.7689C70.6382 35.8378 71.4492 36.5253 72.5664 36.5253ZM71.9595 34.7045V34.6937C71.9595 34.2103 72.3086 33.9364 73.0552 33.8881L74.3765 33.8021V34.2748C74.3765 34.973 73.7803 35.4994 72.9746 35.4994C72.3838 35.4994 71.9595 35.204 71.9595 34.7045ZM79.522 36.5468C80.9668 36.5468 82.0142 35.8002 82.0142 34.683V34.6722C82.0142 33.8182 81.4717 33.3295 80.3223 33.0717L79.3716 32.8622C78.7378 32.7172 78.4907 32.5077 78.4907 32.1639V32.1586C78.4907 31.7181 78.9204 31.4281 79.5166 31.4281C80.145 31.4281 80.5317 31.7289 80.6284 32.0995L80.6338 32.1156H81.8906V32.1049C81.8047 31.1542 80.9507 30.4452 79.522 30.4452C78.1362 30.4452 77.1694 31.1757 77.1694 32.2338V32.2391C77.1694 33.1039 77.7012 33.6302 78.8184 33.8773L79.769 34.0922C80.4136 34.2372 80.6714 34.4628 80.6714 34.8065V34.8173C80.6714 35.2577 80.2095 35.5585 79.5435 35.5585C78.8774 35.5585 78.4854 35.2738 78.3457 34.8656L78.3403 34.8549H77.0137V34.8656C77.1265 35.8593 78.0288 36.5468 79.522 36.5468ZM85.6289 36.4554C85.8867 36.4554 86.1338 36.434 86.3271 36.3964V35.3651C86.166 35.3812 86.064 35.3866 85.876 35.3866C85.3174 35.3866 85.0864 35.1395 85.0864 34.5541V31.5946H86.3271V30.558H85.0864V29.1185H83.7275V30.558H82.8145V31.5946H83.7275V34.871C83.7275 36.0043 84.2808 36.4554 85.6289 36.4554ZM87.7988 36.4286H89.1846V33.8666H90.8926C92.4663 33.8666 93.5298 32.8246 93.5298 31.2777V31.267C93.5298 29.7147 92.4663 28.6781 90.8926 28.6781H87.7988V36.4286ZM90.5542 29.8114C91.5479 29.8114 92.1279 30.3431 92.1279 31.2723V31.2831C92.1279 32.2123 91.5479 32.7494 90.5542 32.7494H89.1846V29.8114H90.5542ZM96.3066 36.5253C97.0801 36.5253 97.7031 36.1923 98.0254 35.6229H98.1167V36.4286H99.438V32.4164C99.438 31.1757 98.5894 30.4452 97.0801 30.4452C95.6836 30.4452 94.7383 31.1005 94.6094 32.0887L94.604 32.1371H95.8662L95.8716 32.1156C96.0059 31.7289 96.4033 31.5087 97.0156 31.5087C97.7354 31.5087 98.1167 31.8309 98.1167 32.4164V32.9213L96.6074 33.0126C95.1787 33.0985 94.3784 33.7108 94.3784 34.7582V34.7689C94.3784 35.8378 95.1895 36.5253 96.3066 36.5253ZM95.6997 34.7045V34.6937C95.6997 34.2103 96.0488 33.9364 96.7954 33.8881L98.1167 33.8021V34.2748C98.1167 34.973 97.5205 35.4994 96.7148 35.4994C96.124 35.4994 95.6997 35.204 95.6997 34.7045ZM103.262 36.5468C104.707 36.5468 105.754 35.8002 105.754 34.683V34.6722C105.754 33.8182 105.212 33.3295 104.062 33.0717L103.112 32.8622C102.478 32.7172 102.231 32.5077 102.231 32.1639V32.1586C102.231 31.7181 102.661 31.4281 103.257 31.4281C103.885 31.4281 104.272 31.7289 104.369 32.0995L104.374 32.1156H105.631V32.1049C105.545 31.1542 104.691 30.4452 103.262 30.4452C101.876 30.4452 100.91 31.1757 100.91 32.2338V32.2391C100.91 33.1039 101.441 33.6302 102.559 33.8773L103.509 34.0922C104.154 34.2372 104.412 34.4628 104.412 34.8065V34.8173C104.412 35.2577 103.95 35.5585 103.284 35.5585C102.618 35.5585 102.226 35.2738 102.086 34.8656L102.081 34.8549H100.754V34.8656C100.867 35.8593 101.769 36.5468 103.262 36.5468ZM109.213 36.5468C110.658 36.5468 111.706 35.8002 111.706 34.683V34.6722C111.706 33.8182 111.163 33.3295 110.014 33.0717L109.063 32.8622C108.429 32.7172 108.182 32.5077 108.182 32.1639V32.1586C108.182 31.7181 108.612 31.4281 109.208 31.4281C109.836 31.4281 110.223 31.7289 110.32 32.0995L110.325 32.1156H111.582V32.1049C111.496 31.1542 110.642 30.4452 109.213 30.4452C107.828 30.4452 106.861 31.1757 106.861 32.2338V32.2391C106.861 33.1039 107.393 33.6302 108.51 33.8773L109.46 34.0922C110.105 34.2372 110.363 34.4628 110.363 34.8065V34.8173C110.363 35.2577 109.901 35.5585 109.235 35.5585C108.569 35.5585 108.177 35.2738 108.037 34.8656L108.032 34.8549H106.705V34.8656C106.818 35.8593 107.72 36.5468 109.213 36.5468ZM114.047 32.5453C114.542 32.5453 114.901 32.1747 114.901 31.702C114.901 31.224 114.542 30.8534 114.047 30.8534C113.559 30.8534 113.193 31.224 113.193 31.702C113.193 32.1747 113.559 32.5453 114.047 32.5453ZM114.047 36.536C114.542 36.536 114.901 36.16 114.901 35.6874C114.901 35.2094 114.542 34.8387 114.047 34.8387C113.559 34.8387 113.193 35.2094 113.193 35.6874C113.193 36.16 113.559 36.536 114.047 36.536ZM119.746 36.4286H121.132V33.265H124.381V32.1371H121.132V29.8436H124.688V28.6781H119.746V36.4286ZM126.084 36.4286H127.421V33.0179C127.421 32.1801 128.007 31.6483 128.898 31.6483C129.129 31.6483 129.35 31.6805 129.564 31.7235V30.5258C129.436 30.4882 129.226 30.4613 129.022 30.4613C128.249 30.4613 127.711 30.8319 127.513 31.4603H127.421V30.558H126.084V36.4286ZM133.023 36.5468C134.619 36.5468 135.403 35.6283 135.591 34.871L135.607 34.8226H134.334L134.318 34.8602C134.189 35.1288 133.775 35.494 133.05 35.494C132.143 35.494 131.573 34.8817 131.557 33.829H135.661V33.3885C135.661 31.6161 134.629 30.4452 132.959 30.4452C131.289 30.4452 130.22 31.6537 130.22 33.5013V33.5067C130.22 35.3759 131.278 36.5468 133.023 36.5468ZM132.975 31.4926C133.722 31.4926 134.264 31.9706 134.355 32.932H131.568C131.67 31.9974 132.229 31.4926 132.975 31.4926ZM139.512 36.5468C141.107 36.5468 141.891 35.6283 142.079 34.871L142.095 34.8226H140.822L140.806 34.8602C140.677 35.1288 140.264 35.494 139.539 35.494C138.631 35.494 138.062 34.8817 138.045 33.829H142.149V33.3885C142.149 31.6161 141.118 30.4452 139.447 30.4452C137.777 30.4452 136.708 31.6537 136.708 33.5013V33.5067C136.708 35.3759 137.766 36.5468 139.512 36.5468ZM139.463 31.4926C140.21 31.4926 140.752 31.9706 140.844 32.932H138.056C138.158 31.9974 138.717 31.4926 139.463 31.4926ZM146.559 36.4286H147.944V33.8666H149.652C151.226 33.8666 152.29 32.8246 152.29 31.2777V31.267C152.29 29.7147 151.226 28.6781 149.652 28.6781H146.559V36.4286ZM149.314 29.8114C150.308 29.8114 150.888 30.3431 150.888 31.2723V31.2831C150.888 32.2123 150.308 32.7494 149.314 32.7494H147.944V29.8114H149.314ZM155.066 36.5253C155.84 36.5253 156.463 36.1923 156.785 35.6229H156.876V36.4286H158.198V32.4164C158.198 31.1757 157.349 30.4452 155.84 30.4452C154.443 30.4452 153.498 31.1005 153.369 32.0887L153.364 32.1371H154.626L154.631 32.1156C154.766 31.7289 155.163 31.5087 155.775 31.5087C156.495 31.5087 156.876 31.8309 156.876 32.4164V32.9213L155.367 33.0126C153.938 33.0985 153.138 33.7108 153.138 34.7582V34.7689C153.138 35.8378 153.949 36.5253 155.066 36.5253ZM154.459 34.7045V34.6937C154.459 34.2103 154.809 33.9364 155.555 33.8881L156.876 33.8021V34.2748C156.876 34.973 156.28 35.4994 155.475 35.4994C154.884 35.4994 154.459 35.204 154.459 34.7045ZM162.022 36.5468C163.467 36.5468 164.514 35.8002 164.514 34.683V34.6722C164.514 33.8182 163.972 33.3295 162.822 33.0717L161.872 32.8622C161.238 32.7172 160.991 32.5077 160.991 32.1639V32.1586C160.991 31.7181 161.42 31.4281 162.017 31.4281C162.645 31.4281 163.032 31.7289 163.128 32.0995L163.134 32.1156H164.391V32.1049C164.305 31.1542 163.451 30.4452 162.022 30.4452C160.636 30.4452 159.669 31.1757 159.669 32.2338V32.2391C159.669 33.1039 160.201 33.6302 161.318 33.8773L162.269 34.0922C162.914 34.2372 163.171 34.4628 163.171 34.8065V34.8173C163.171 35.2577 162.709 35.5585 162.043 35.5585C161.377 35.5585 160.985 35.2738 160.846 34.8656L160.84 34.8549H159.514V34.8656C159.626 35.8593 160.529 36.5468 162.022 36.5468ZM167.973 36.5468C169.418 36.5468 170.465 35.8002 170.465 34.683V34.6722C170.465 33.8182 169.923 33.3295 168.773 33.0717L167.823 32.8622C167.189 32.7172 166.942 32.5077 166.942 32.1639V32.1586C166.942 31.7181 167.372 31.4281 167.968 31.4281C168.596 31.4281 168.983 31.7289 169.08 32.0995L169.085 32.1156H170.342V32.1049C170.256 31.1542 169.402 30.4452 167.973 30.4452C166.587 30.4452 165.621 31.1757 165.621 32.2338V32.2391C165.621 33.1039 166.152 33.6302 167.27 33.8773L168.22 34.0922C168.865 34.2372 169.123 34.4628 169.123 34.8065V34.8173C169.123 35.2577 168.661 35.5585 167.995 35.5585C167.329 35.5585 166.937 35.2738 166.797 34.8656L166.792 34.8549H165.465V34.8656C165.578 35.8593 166.48 36.5468 167.973 36.5468ZM172.77 36.4286H174.155L175.294 32.1747H175.385L176.529 36.4286H177.931L179.521 30.558H178.194L177.222 34.9677H177.131L175.992 30.558H174.719L173.591 34.9677H173.5L172.522 30.558H171.18L172.77 36.4286ZM182.985 36.5468C184.742 36.5468 185.811 35.3973 185.811 33.496V33.4852C185.811 31.5946 184.736 30.4452 182.985 30.4452C181.24 30.4452 180.16 31.6 180.16 33.4852V33.496C180.16 35.3973 181.224 36.5468 182.985 36.5468ZM182.985 35.4618C182.056 35.4618 181.524 34.7367 181.524 33.5013V33.4906C181.524 32.2552 182.056 31.5248 182.985 31.5248C183.909 31.5248 184.441 32.2552 184.441 33.4906V33.5013C184.441 34.7367 183.915 35.4618 182.985 35.4618ZM187.153 36.4286H188.491V33.0179C188.491 32.1801 189.076 31.6483 189.968 31.6483C190.199 31.6483 190.419 31.6805 190.634 31.7235V30.5258C190.505 30.4882 190.295 30.4613 190.091 30.4613C189.318 30.4613 188.781 30.8319 188.582 31.4603H188.491V30.558H187.153V36.4286ZM193.695 36.5253C194.522 36.5253 195.156 36.1493 195.479 35.5101H195.57V36.4286H196.913V28.286H195.57V31.4926H195.479C195.172 30.8588 194.501 30.4613 193.695 30.4613C192.208 30.4613 191.289 31.6215 191.289 33.4906V33.5013C191.289 35.3597 192.224 36.5253 193.695 36.5253ZM194.114 35.3973C193.201 35.3973 192.648 34.683 192.648 33.5013V33.4906C192.648 32.309 193.207 31.5892 194.114 31.5892C195.022 31.5892 195.591 32.3143 195.591 33.4906V33.5013C195.591 34.6776 195.027 35.3973 194.114 35.3973ZM201.666 36.4286H202.917V30.9178H203.009L205.157 36.4286H206.103L208.251 30.9178H208.348V36.4286H209.594V28.6781H208.004L205.678 34.64H205.587L203.256 28.6781H201.666V36.4286ZM212.967 36.5253C213.74 36.5253 214.363 36.1923 214.686 35.6229H214.777V36.4286H216.098V32.4164C216.098 31.1757 215.25 30.4452 213.74 30.4452C212.344 30.4452 211.398 31.1005 211.27 32.0887L211.264 32.1371H212.526L212.532 32.1156C212.666 31.7289 213.063 31.5087 213.676 31.5087C214.396 31.5087 214.777 31.8309 214.777 32.4164V32.9213L213.268 33.0126C211.839 33.0985 211.039 33.7108 211.039 34.7582V34.7689C211.039 35.8378 211.85 36.5253 212.967 36.5253ZM212.36 34.7045V34.6937C212.36 34.2103 212.709 33.9364 213.456 33.8881L214.777 33.8021V34.2748C214.777 34.973 214.181 35.4994 213.375 35.4994C212.784 35.4994 212.36 35.204 212.36 34.7045ZM217.704 36.4286H219.042V33.0072C219.042 32.1263 219.536 31.5677 220.331 31.5677C221.142 31.5677 221.512 32.0297 221.512 32.9427V36.4286H222.85V32.6312C222.85 31.2347 222.135 30.4452 220.825 30.4452C219.976 30.4452 219.412 30.8265 219.133 31.455H219.042V30.558H217.704V36.4286ZM226.029 36.5253C226.803 36.5253 227.426 36.1923 227.748 35.6229H227.839V36.4286H229.161V32.4164C229.161 31.1757 228.312 30.4452 226.803 30.4452C225.406 30.4452 224.461 31.1005 224.332 32.0887L224.327 32.1371H225.589L225.594 32.1156C225.729 31.7289 226.126 31.5087 226.738 31.5087C227.458 31.5087 227.839 31.8309 227.839 32.4164V32.9213L226.33 33.0126C224.901 33.0985 224.101 33.7108 224.101 34.7582V34.7689C224.101 35.8378 224.912 36.5253 226.029 36.5253ZM225.422 34.7045V34.6937C225.422 34.2103 225.771 33.9364 226.518 33.8881L227.839 33.8021V34.2748C227.839 34.973 227.243 35.4994 226.438 35.4994C225.847 35.4994 225.422 35.204 225.422 34.7045ZM233.291 38.4911C235.004 38.4911 236.089 37.6371 236.089 36.2836V30.558H234.752V31.5248H234.682C234.349 30.8588 233.715 30.4613 232.904 30.4613C231.39 30.4613 230.466 31.6322 230.466 33.3295V33.3402C230.466 35.0052 231.39 36.1547 232.877 36.1547C233.688 36.1547 234.328 35.8109 234.666 35.1825H234.757V36.3051C234.757 37.057 234.226 37.4813 233.312 37.4813C232.566 37.4813 232.12 37.2181 232.029 36.8422L232.023 36.826H230.686L230.681 36.8422C230.815 37.8304 231.744 38.4911 233.291 38.4911ZM233.291 35.0912C232.362 35.0912 231.835 34.3768 231.835 33.3402V33.3295C231.835 32.2928 232.362 31.5731 233.291 31.5731C234.215 31.5731 234.779 32.2928 234.779 33.3295V33.3402C234.779 34.3768 234.22 35.0912 233.291 35.0912ZM240.241 36.5468C241.836 36.5468 242.621 35.6283 242.809 34.871L242.825 34.8226H241.552L241.536 34.8602C241.407 35.1288 240.993 35.494 240.268 35.494C239.36 35.494 238.791 34.8817 238.775 33.829H242.878V33.3885C242.878 31.6161 241.847 30.4452 240.177 30.4452C238.506 30.4452 237.438 31.6537 237.438 33.5013V33.5067C237.438 35.3759 238.496 36.5468 240.241 36.5468ZM240.193 31.4926C240.939 31.4926 241.482 31.9706 241.573 32.932H238.786C238.888 31.9974 239.446 31.4926 240.193 31.4926ZM244.216 36.4286H245.553V33.0179C245.553 32.1801 246.139 31.6483 247.03 31.6483C247.261 31.6483 247.481 31.6805 247.696 31.7235V30.5258C247.567 30.4882 247.358 30.4613 247.154 30.4613C246.38 30.4613 245.843 30.8319 245.645 31.4603H245.553V30.558H244.216V36.4286ZM249.496 31.9061H250.414L251.343 28.6781H249.963L249.496 31.9061ZM251.585 31.9061H252.498L253.433 28.6781H252.052L251.585 31.9061ZM258.127 36.4286H259.464V33.0072C259.464 32.1263 259.958 31.5677 260.753 31.5677C261.564 31.5677 261.935 32.0297 261.935 32.9427V36.4286H263.272V32.6312C263.272 31.2347 262.558 30.4452 261.248 30.4452C260.399 30.4452 259.835 30.8265 259.556 31.455H259.464V28.286H258.127V36.4286ZM266.452 36.5253C267.226 36.5253 267.849 36.1923 268.171 35.6229H268.262V36.4286H269.583V32.4164C269.583 31.1757 268.735 30.4452 267.226 30.4452C265.829 30.4452 264.884 31.1005 264.755 32.0887L264.75 32.1371H266.012L266.017 32.1156C266.151 31.7289 266.549 31.5087 267.161 31.5087C267.881 31.5087 268.262 31.8309 268.262 32.4164V32.9213L266.753 33.0126C265.324 33.0985 264.524 33.7108 264.524 34.7582V34.7689C264.524 35.8378 265.335 36.5253 266.452 36.5253ZM265.845 34.7045V34.6937C265.845 34.2103 266.194 33.9364 266.941 33.8881L268.262 33.8021V34.2748C268.262 34.973 267.666 35.4994 266.86 35.4994C266.27 35.4994 265.845 35.204 265.845 34.7045ZM273.408 36.5468C274.853 36.5468 275.9 35.8002 275.9 34.683V34.6722C275.9 33.8182 275.357 33.3295 274.208 33.0717L273.257 32.8622C272.624 32.7172 272.376 32.5077 272.376 32.1639V32.1586C272.376 31.7181 272.806 31.4281 273.402 31.4281C274.031 31.4281 274.417 31.7289 274.514 32.0995L274.52 32.1156H275.776V32.1049C275.69 31.1542 274.836 30.4452 273.408 30.4452C272.022 30.4452 271.055 31.1757 271.055 32.2338V32.2391C271.055 33.1039 271.587 33.6302 272.704 33.8773L273.655 34.0922C274.299 34.2372 274.557 34.4628 274.557 34.8065V34.8173C274.557 35.2577 274.095 35.5585 273.429 35.5585C272.763 35.5585 272.371 35.2738 272.231 34.8656L272.226 34.8549H270.899V34.8656C271.012 35.8593 271.915 36.5468 273.408 36.5468ZM280.181 36.4286H281.518V33.0179C281.518 32.1801 282.104 31.6483 282.995 31.6483C283.226 31.6483 283.446 31.6805 283.661 31.7235V30.5258C283.532 30.4882 283.323 30.4613 283.119 30.4613C282.345 30.4613 281.808 30.8319 281.609 31.4603H281.518V30.558H280.181V36.4286ZM287.12 36.5468C288.715 36.5468 289.5 35.6283 289.688 34.871L289.704 34.8226H288.431L288.415 34.8602C288.286 35.1288 287.872 35.494 287.147 35.494C286.239 35.494 285.67 34.8817 285.654 33.829H289.757V33.3885C289.757 31.6161 288.726 30.4452 287.056 30.4452C285.385 30.4452 284.316 31.6537 284.316 33.5013V33.5067C284.316 35.3759 285.375 36.5468 287.12 36.5468ZM287.072 31.4926C287.818 31.4926 288.361 31.9706 288.452 32.932H285.665C285.767 31.9974 286.325 31.4926 287.072 31.4926ZM295.102 38.3783H296.439V30.558H295.102V31.5302H295.032C294.693 30.8641 294.027 30.4613 293.232 30.4613C291.729 30.4613 290.81 31.6215 290.81 33.4906V33.5013C290.81 35.3597 291.739 36.5253 293.216 36.5253C294.054 36.5253 294.709 36.16 295.01 35.537H295.102V38.3783ZM293.646 35.3973C292.728 35.3973 292.169 34.683 292.169 33.5013V33.4906C292.169 32.309 292.728 31.5892 293.641 31.5892C294.543 31.5892 295.123 32.3197 295.123 33.4906V33.5013C295.123 34.6722 294.548 35.3973 293.646 35.3973ZM300.011 36.5468C300.859 36.5468 301.456 36.1654 301.729 35.537H301.821V36.4286H303.158V30.558H301.821V33.9794C301.821 34.8602 301.359 35.4188 300.494 35.4188C299.688 35.4188 299.35 34.9569 299.35 34.0492V30.558H298.013V34.3553C298.013 35.7518 298.689 36.5468 300.011 36.5468ZM307.305 36.5468C308.9 36.5468 309.684 35.6283 309.872 34.871L309.888 34.8226H308.615L308.599 34.8602C308.47 35.1288 308.057 35.494 307.332 35.494C306.424 35.494 305.854 34.8817 305.838 33.829H309.942V33.3885C309.942 31.6161 308.911 30.4452 307.24 30.4452C305.57 30.4452 304.501 31.6537 304.501 33.5013V33.5067C304.501 35.3759 305.559 36.5468 307.305 36.5468ZM307.256 31.4926C308.003 31.4926 308.545 31.9706 308.637 32.932H305.849C305.951 31.9974 306.51 31.4926 307.256 31.4926ZM313.498 36.5468C314.942 36.5468 315.99 35.8002 315.99 34.683V34.6722C315.99 33.8182 315.447 33.3295 314.298 33.0717L313.347 32.8622C312.713 32.7172 312.466 32.5077 312.466 32.1639V32.1586C312.466 31.7181 312.896 31.4281 313.492 31.4281C314.121 31.4281 314.507 31.7289 314.604 32.0995L314.609 32.1156H315.866V32.1049C315.78 31.1542 314.926 30.4452 313.498 30.4452C312.112 30.4452 311.145 31.1757 311.145 32.2338V32.2391C311.145 33.1039 311.677 33.6302 312.794 33.8773L313.745 34.0922C314.389 34.2372 314.647 34.4628 314.647 34.8065V34.8173C314.647 35.2577 314.185 35.5585 313.519 35.5585C312.853 35.5585 312.461 35.2738 312.321 34.8656L312.316 34.8549H310.989V34.8656C311.102 35.8593 312.004 36.5468 313.498 36.5468ZM319.604 36.4554C319.862 36.4554 320.109 36.434 320.303 36.3964V35.3651C320.142 35.3812 320.04 35.3866 319.852 35.3866C319.293 35.3866 319.062 35.1395 319.062 34.5541V31.5946H320.303V30.558H319.062V29.1185H317.703V30.558H316.79V31.5946H317.703V34.871C317.703 36.0043 318.256 36.4554 319.604 36.4554ZM324.095 36.5468C325.69 36.5468 326.474 35.6283 326.662 34.871L326.678 34.8226H325.405L325.389 34.8602C325.26 35.1288 324.847 35.494 324.122 35.494C323.214 35.494 322.645 34.8817 322.628 33.829H326.732V33.3885C326.732 31.6161 325.701 30.4452 324.03 30.4452C322.36 30.4452 321.291 31.6537 321.291 33.5013V33.5067C321.291 35.3759 322.349 36.5468 324.095 36.5468ZM324.046 31.4926C324.793 31.4926 325.335 31.9706 325.427 32.932H322.639C322.741 31.9974 323.3 31.4926 324.046 31.4926ZM330.186 36.5253C331.013 36.5253 331.646 36.1493 331.969 35.5101H332.06V36.4286H333.403V28.286H332.06V31.4926H331.969C331.663 30.8588 330.991 30.4613 330.186 30.4613C328.698 30.4613 327.779 31.6215 327.779 33.4906V33.5013C327.779 35.3597 328.714 36.5253 330.186 36.5253ZM330.604 35.3973C329.691 35.3973 329.138 34.683 329.138 33.5013V33.4906C329.138 32.309 329.697 31.5892 330.604 31.5892C331.512 31.5892 332.082 32.3143 332.082 33.4906V33.5013C332.082 34.6776 331.518 35.3973 330.604 35.3973ZM60.417 52.5253C61.1904 52.5253 61.8135 52.1923 62.1357 51.6229H62.2271V52.4286H63.5483V48.4164C63.5483 47.1757 62.6997 46.4452 61.1904 46.4452C59.7939 46.4452 58.8486 47.1005 58.7197 48.0887L58.7144 48.1371H59.9766L59.9819 48.1156C60.1162 47.7289 60.5137 47.5087 61.126 47.5087C61.8457 47.5087 62.2271 47.8309 62.2271 48.4164V48.9213L60.7178 49.0126C59.2891 49.0985 58.4888 49.7108 58.4888 50.7582V50.7689C58.4888 51.8378 59.2998 52.5253 60.417 52.5253ZM59.8101 50.7045V50.6937C59.8101 50.2103 60.1592 49.9364 60.9058 49.8881L62.2271 49.8021V50.2748C62.2271 50.973 61.6309 51.4994 60.8252 51.4994C60.2344 51.4994 59.8101 51.204 59.8101 50.7045ZM67.2705 52.5253C68.0977 52.5253 68.7314 52.1493 69.0537 51.5101H69.145V52.4286H70.4878V44.286H69.145V47.4926H69.0537C68.7476 46.8588 68.0762 46.4613 67.2705 46.4613C65.7827 46.4613 64.8643 47.6215 64.8643 49.4906V49.5013C64.8643 51.3597 65.7988 52.5253 67.2705 52.5253ZM67.6895 51.3973C66.7764 51.3973 66.2231 50.683 66.2231 49.5013V49.4906C66.2231 48.309 66.7817 47.5892 67.6895 47.5892C68.5972 47.5892 69.1665 48.3143 69.1665 49.4906V49.5013C69.1665 50.6776 68.6025 51.3973 67.6895 51.3973ZM74.2852 52.5253C75.1123 52.5253 75.7461 52.1493 76.0684 51.5101H76.1597V52.4286H77.5024V44.286H76.1597V47.4926H76.0684C75.7622 46.8588 75.0908 46.4613 74.2852 46.4613C72.7974 46.4613 71.8789 47.6215 71.8789 49.4906V49.5013C71.8789 51.3597 72.8135 52.5253 74.2852 52.5253ZM74.7041 51.3973C73.791 51.3973 73.2378 50.683 73.2378 49.5013V49.4906C73.2378 48.309 73.7964 47.5892 74.7041 47.5892C75.6118 47.5892 76.1812 48.3143 76.1812 49.4906V49.5013C76.1812 50.6776 75.6172 51.3973 74.7041 51.3973ZM79.8711 45.5751C80.3062 45.5751 80.666 45.226 80.666 44.7855C80.666 44.3505 80.3062 43.996 79.8711 43.996C79.4307 43.996 79.0708 44.3505 79.0708 44.7855C79.0708 45.226 79.4307 45.5751 79.8711 45.5751ZM79.1997 52.4286H80.5371V46.558H79.1997V52.4286ZM84.4902 52.4554C84.748 52.4554 84.9951 52.434 85.1885 52.3964V51.3651C85.0273 51.3812 84.9253 51.3866 84.7373 51.3866C84.1787 51.3866 83.9478 51.1395 83.9478 50.5541V47.5946H85.1885V46.558H83.9478V45.1185H82.5889V46.558H81.6758V47.5946H82.5889V50.871C82.5889 52.0043 83.1421 52.4554 84.4902 52.4554ZM87.208 45.5751C87.6431 45.5751 88.0029 45.226 88.0029 44.7855C88.0029 44.3505 87.6431 43.996 87.208 43.996C86.7676 43.996 86.4077 44.3505 86.4077 44.7855C86.4077 45.226 86.7676 45.5751 87.208 45.5751ZM86.5366 52.4286H87.874V46.558H86.5366V52.4286ZM92.0527 52.5468C93.8091 52.5468 94.8779 51.3973 94.8779 49.496V49.4852C94.8779 47.5946 93.8037 46.4452 92.0527 46.4452C90.3071 46.4452 89.2275 47.6 89.2275 49.4852V49.496C89.2275 51.3973 90.291 52.5468 92.0527 52.5468ZM92.0527 51.4618C91.1235 51.4618 90.5918 50.7367 90.5918 49.5013V49.4906C90.5918 48.2552 91.1235 47.5248 92.0527 47.5248C92.9766 47.5248 93.5083 48.2552 93.5083 49.4906V49.5013C93.5083 50.7367 92.9819 51.4618 92.0527 51.4618ZM96.2207 52.4286H97.5581V49.0072C97.5581 48.1263 98.0522 47.5677 98.8472 47.5677C99.6582 47.5677 100.029 48.0297 100.029 48.9427V52.4286H101.366V48.6312C101.366 47.2347 100.652 46.4452 99.3413 46.4452C98.4927 46.4452 97.9287 46.8265 97.6494 47.455H97.5581V46.558H96.2207V52.4286ZM104.546 52.5253C105.319 52.5253 105.942 52.1923 106.265 51.6229H106.356V52.4286H107.677V48.4164C107.677 47.1757 106.829 46.4452 105.319 46.4452C103.923 46.4452 102.978 47.1005 102.849 48.0887L102.843 48.1371H104.105L104.111 48.1156C104.245 47.7289 104.643 47.5087 105.255 47.5087C105.975 47.5087 106.356 47.8309 106.356 48.4164V48.9213L104.847 49.0126C103.418 49.0985 102.618 49.7108 102.618 50.7582V50.7689C102.618 51.8378 103.429 52.5253 104.546 52.5253ZM103.939 50.7045V50.6937C103.939 50.2103 104.288 49.9364 105.035 49.8881L106.356 49.8021V50.2748C106.356 50.973 105.76 51.4994 104.954 51.4994C104.363 51.4994 103.939 51.204 103.939 50.7045ZM109.337 52.4286H110.674V44.286H109.337V52.4286ZM115.299 54.3783H116.636V51.494H116.728C117.034 52.1278 117.705 52.5253 118.511 52.5253C119.999 52.5253 120.922 51.3705 120.922 49.5013V49.4906C120.922 47.6322 119.982 46.4613 118.511 46.4613C117.689 46.4613 117.05 46.8373 116.728 47.4764H116.636V46.558H115.299V54.3783ZM118.092 51.3973C117.184 51.3973 116.62 50.6722 116.62 49.496V49.4852C116.62 48.309 117.184 47.5892 118.092 47.5892C119.005 47.5892 119.558 48.309 119.558 49.4906V49.5013C119.558 50.6776 119.005 51.3973 118.092 51.3973ZM124.784 52.5468C126.379 52.5468 127.164 51.6283 127.352 50.871L127.368 50.8226H126.095L126.079 50.8602C125.95 51.1288 125.536 51.494 124.811 51.494C123.903 51.494 123.334 50.8817 123.318 49.829H127.421V49.3885C127.421 47.6161 126.39 46.4452 124.72 46.4452C123.049 46.4452 121.98 47.6537 121.98 49.5013V49.5067C121.98 51.3759 123.039 52.5468 124.784 52.5468ZM124.736 47.4926C125.482 47.4926 126.025 47.9706 126.116 48.932H123.329C123.431 47.9974 123.989 47.4926 124.736 47.4926ZM128.759 52.4286H130.096V49.0179C130.096 48.1801 130.682 47.6483 131.573 47.6483C131.804 47.6483 132.024 47.6805 132.239 47.7235V46.5258C132.11 46.4882 131.901 46.4613 131.697 46.4613C130.923 46.4613 130.386 46.8319 130.188 47.4603H130.096V46.558H128.759V52.4286ZM133.41 52.4286H134.748V48.8568C134.748 48.1263 135.231 47.5677 135.892 47.5677C136.547 47.5677 136.95 47.9706 136.95 48.6205V52.4286H138.287V48.7601C138.287 48.0887 138.738 47.5677 139.437 47.5677C140.151 47.5677 140.5 47.9545 140.5 48.7172V52.4286H141.837V48.3895C141.837 47.1703 141.128 46.4452 139.947 46.4452C139.13 46.4452 138.454 46.8641 138.169 47.5033H138.078C137.825 46.8534 137.245 46.4452 136.45 46.4452C135.682 46.4452 135.091 46.8158 134.839 47.4711H134.748V46.558H133.41V52.4286ZM144.109 45.5751C144.544 45.5751 144.904 45.226 144.904 44.7855C144.904 44.3505 144.544 43.996 144.109 43.996C143.669 43.996 143.309 44.3505 143.309 44.7855C143.309 45.226 143.669 45.5751 144.109 45.5751ZM143.438 52.4286H144.775V46.558H143.438V52.4286ZM148.637 52.5468C150.082 52.5468 151.129 51.8002 151.129 50.683V50.6722C151.129 49.8182 150.587 49.3295 149.438 49.0717L148.487 48.8622C147.853 48.7172 147.606 48.5077 147.606 48.1639V48.1586C147.606 47.7181 148.036 47.4281 148.632 47.4281C149.26 47.4281 149.647 47.7289 149.744 48.0995L149.749 48.1156H151.006V48.1049C150.92 47.1542 150.066 46.4452 148.637 46.4452C147.251 46.4452 146.285 47.1757 146.285 48.2338V48.2391C146.285 49.1039 146.816 49.6302 147.934 49.8773L148.884 50.0922C149.529 50.2372 149.787 50.4628 149.787 50.8065V50.8173C149.787 51.2577 149.325 51.5585 148.659 51.5585C147.993 51.5585 147.601 51.2738 147.461 50.8656L147.456 50.8549H146.129V50.8656C146.242 51.8593 147.144 52.5468 148.637 52.5468ZM154.588 52.5468C156.033 52.5468 157.081 51.8002 157.081 50.683V50.6722C157.081 49.8182 156.538 49.3295 155.389 49.0717L154.438 48.8622C153.804 48.7172 153.557 48.5077 153.557 48.1639V48.1586C153.557 47.7181 153.987 47.4281 154.583 47.4281C155.211 47.4281 155.598 47.7289 155.695 48.0995L155.7 48.1156H156.957V48.1049C156.871 47.1542 156.017 46.4452 154.588 46.4452C153.203 46.4452 152.236 47.1757 152.236 48.2338V48.2391C152.236 49.1039 152.768 49.6302 153.885 49.8773L154.835 50.0922C155.48 50.2372 155.738 50.4628 155.738 50.8065V50.8173C155.738 51.2577 155.276 51.5585 154.61 51.5585C153.944 51.5585 153.552 51.2738 153.412 50.8656L153.407 50.8549H152.08V50.8656C152.193 51.8593 153.095 52.5468 154.588 52.5468ZM159.116 45.5751C159.551 45.5751 159.911 45.226 159.911 44.7855C159.911 44.3505 159.551 43.996 159.116 43.996C158.676 43.996 158.316 44.3505 158.316 44.7855C158.316 45.226 158.676 45.5751 159.116 45.5751ZM158.445 52.4286H159.782V46.558H158.445V52.4286ZM163.961 52.5468C165.717 52.5468 166.786 51.3973 166.786 49.496V49.4852C166.786 47.5946 165.712 46.4452 163.961 46.4452C162.215 46.4452 161.136 47.6 161.136 49.4852V49.496C161.136 51.3973 162.199 52.5468 163.961 52.5468ZM163.961 51.4618C163.032 51.4618 162.5 50.7367 162.5 49.5013V49.4906C162.5 48.2552 163.032 47.5248 163.961 47.5248C164.885 47.5248 165.417 48.2552 165.417 49.4906V49.5013C165.417 50.7367 164.89 51.4618 163.961 51.4618ZM168.129 52.4286H169.466V49.0072C169.466 48.1263 169.96 47.5677 170.755 47.5677C171.566 47.5677 171.937 48.0297 171.937 48.9427V52.4286H173.274V48.6312C173.274 47.2347 172.56 46.4452 171.25 46.4452C170.401 46.4452 169.837 46.8265 169.558 47.455H169.466V46.558H168.129V52.4286ZM177.072 52.5468C178.517 52.5468 179.564 51.8002 179.564 50.683V50.6722C179.564 49.8182 179.021 49.3295 177.872 49.0717L176.921 48.8622C176.288 48.7172 176.041 48.5077 176.041 48.1639V48.1586C176.041 47.7181 176.47 47.4281 177.066 47.4281C177.695 47.4281 178.082 47.7289 178.178 48.0995L178.184 48.1156H179.44V48.1049C179.354 47.1542 178.5 46.4452 177.072 46.4452C175.686 46.4452 174.719 47.1757 174.719 48.2338V48.2391C174.719 49.1039 175.251 49.6302 176.368 49.8773L177.319 50.0922C177.963 50.2372 178.221 50.4628 178.221 50.8065V50.8173C178.221 51.2577 177.759 51.5585 177.093 51.5585C176.427 51.5585 176.035 51.2738 175.896 50.8656L175.89 50.8549H174.563V50.8656C174.676 51.8593 175.579 52.5468 177.072 52.5468ZM181.906 52.536C182.4 52.536 182.76 52.1654 182.76 51.6874C182.76 51.2094 182.4 50.8387 181.906 50.8387C181.417 50.8387 181.052 51.2094 181.052 51.6874C181.052 52.1654 181.417 52.536 181.906 52.536Z" fill="black"/>
<path d="M18.8838 85.4286H19.9775V78.3827H18.8838V85.4286ZM23.625 85.4628C23.8301 85.4628 24.0254 85.4384 24.1963 85.4091V84.5643C24.0498 84.579 23.957 84.5839 23.7959 84.5839C23.2734 84.5839 23.0586 84.3495 23.0586 83.7782V80.9608H24.1963V80.1259H23.0586V78.788H21.9795V80.1259H21.1494V80.9608H21.9795V84.0321C21.9795 85.0526 22.458 85.4628 23.625 85.4628ZM30.3975 85.5311C31.7109 85.5311 32.4678 84.8231 32.6582 83.7928L32.668 83.7489H31.6523L31.6426 83.7733C31.4717 84.3446 31.0615 84.6473 30.3975 84.6473C29.5234 84.6473 28.9814 83.9344 28.9814 82.7626V82.7528C28.9814 81.6102 29.5137 80.9071 30.3975 80.9071C31.1006 80.9071 31.5303 81.2977 31.6475 81.8202L31.6523 81.8348L32.668 81.83V81.8055C32.5215 80.7753 31.7256 80.0233 30.3926 80.0233C28.8447 80.0233 27.9023 81.0731 27.9023 82.7528V82.7626C27.9023 84.4764 28.8496 85.5311 30.3975 85.5311ZM36.1152 85.5311C37.668 85.5311 38.6201 84.4911 38.6201 82.7821V82.7723C38.6201 81.0634 37.6631 80.0233 36.1152 80.0233C34.5625 80.0233 33.6055 81.0682 33.6055 82.7723V82.7821C33.6055 84.4911 34.5576 85.5311 36.1152 85.5311ZM36.1152 84.6473C35.2021 84.6473 34.6895 83.9589 34.6895 82.7821V82.7723C34.6895 81.5956 35.2021 80.9071 36.1152 80.9071C37.0234 80.9071 37.541 81.5956 37.541 82.7723V82.7821C37.541 83.954 37.0234 84.6473 36.1152 84.6473ZM41.6523 85.5311C42.4238 85.5311 42.9609 85.1991 43.2148 84.6278H43.2979V85.4286H44.3525V80.1259H43.2979V83.2362C43.2979 84.0907 42.8438 84.6229 41.9941 84.6229C41.2178 84.6229 40.8955 84.1884 40.8955 83.3094V80.1259H39.8359V83.5585C39.8359 84.8134 40.4561 85.5311 41.6523 85.5311ZM45.9297 85.4286H46.9893V78.0458H45.9297V85.4286ZM50.5 85.5165C51.2422 85.5165 51.8232 85.1747 52.1309 84.5936H52.2139V85.4286H53.2686V78.0458H52.2139V80.9657H52.1309C51.8477 80.3944 51.2275 80.0331 50.5 80.0331C49.1523 80.0331 48.3027 81.0927 48.3027 82.7723V82.7821C48.3027 84.4471 49.167 85.5165 50.5 85.5165ZM50.8027 84.6132C49.9141 84.6132 49.3818 83.9198 49.3818 82.7821V82.7723C49.3818 81.6346 49.9141 80.9413 50.8027 80.9413C51.6816 80.9413 52.2285 81.6395 52.2285 82.7723V82.7821C52.2285 83.9149 51.6865 84.6132 50.8027 84.6132ZM55.6611 81.8104C56.0664 81.8104 56.374 81.4979 56.374 81.1024C56.374 80.702 56.0664 80.3895 55.6611 80.3895C55.2559 80.3895 54.9434 80.702 54.9434 81.1024C54.9434 81.4979 55.2559 81.8104 55.6611 81.8104ZM55.6611 85.5018C56.0664 85.5018 56.374 85.1893 56.374 84.7938C56.374 84.3934 56.0664 84.0809 55.6611 84.0809C55.2559 84.0809 54.9434 84.3934 54.9434 84.7938C54.9434 85.1893 55.2559 85.5018 55.6611 85.5018Z" fill="black"/>
<path d="M20.8086 108.604C22.4346 108.604 23.6016 107.662 23.7871 106.251V106.217H22.5518L22.5469 106.241C22.3662 107.017 21.7021 107.516 20.8086 107.516C19.6074 107.516 18.8604 106.515 18.8604 104.908V104.898C18.8604 103.297 19.6074 102.296 20.8037 102.296C21.6924 102.296 22.3662 102.848 22.5469 103.682L22.5518 103.702H23.7871V103.663C23.6211 102.223 22.4053 101.207 20.8037 101.207C18.8066 101.207 17.5713 102.618 17.5713 104.903V104.913C17.5713 107.188 18.8115 108.604 20.8086 108.604ZM25.1152 108.429H26.3311V105.318C26.3311 104.517 26.7803 104.01 27.5029 104.01C28.2402 104.01 28.5771 104.43 28.5771 105.26V108.429H29.793V104.976C29.793 103.707 29.1436 102.989 27.9521 102.989C27.1807 102.989 26.668 103.336 26.4141 103.907H26.3311V101.026H25.1152V108.429ZM32.6836 108.516C33.3867 108.516 33.9531 108.214 34.2461 107.696H34.3291V108.429H35.5303V104.781C35.5303 103.653 34.7588 102.989 33.3867 102.989C32.1172 102.989 31.2578 103.585 31.1406 104.483L31.1357 104.527H32.2832L32.2881 104.508C32.4102 104.156 32.7715 103.956 33.3281 103.956C33.9824 103.956 34.3291 104.249 34.3291 104.781V105.24L32.957 105.323C31.6582 105.401 30.9307 105.958 30.9307 106.91V106.92C30.9307 107.891 31.668 108.516 32.6836 108.516ZM32.1318 106.861V106.851C32.1318 106.412 32.4492 106.163 33.1279 106.119L34.3291 106.041V106.471C34.3291 107.105 33.7871 107.584 33.0547 107.584C32.5176 107.584 32.1318 107.315 32.1318 106.861ZM36.9902 108.429H38.2061V105.318C38.2061 104.517 38.6553 104.01 39.3779 104.01C40.1152 104.01 40.4521 104.43 40.4521 105.26V108.429H41.668V104.976C41.668 103.707 41.0186 102.989 39.8271 102.989C39.0557 102.989 38.543 103.336 38.2891 103.907H38.2061V103.092H36.9902V108.429ZM45.3984 110.304C46.9561 110.304 47.9424 109.527 47.9424 108.297V103.092H46.7266V103.971H46.6631C46.3604 103.365 45.7842 103.004 45.0469 103.004C43.6699 103.004 42.8301 104.068 42.8301 105.611V105.621C42.8301 107.135 43.6699 108.18 45.0225 108.18C45.7598 108.18 46.3408 107.867 46.6484 107.296H46.7314V108.316C46.7314 109 46.248 109.386 45.418 109.386C44.7393 109.386 44.334 109.146 44.251 108.805L44.2461 108.79H43.0303L43.0254 108.805C43.1475 109.703 43.9922 110.304 45.3984 110.304ZM45.3984 107.213C44.5537 107.213 44.0752 106.563 44.0752 105.621V105.611C44.0752 104.669 44.5537 104.015 45.3984 104.015C46.2383 104.015 46.751 104.669 46.751 105.611V105.621C46.751 106.563 46.2432 107.213 45.3984 107.213ZM51.7168 108.536C53.167 108.536 53.8799 107.701 54.0508 107.013L54.0654 106.969H52.9082L52.8936 107.003C52.7764 107.247 52.4004 107.579 51.7412 107.579C50.916 107.579 50.3984 107.022 50.3838 106.065H54.1143V105.665C54.1143 104.054 53.1768 102.989 51.6582 102.989C50.1396 102.989 49.168 104.088 49.168 105.767V105.772C49.168 107.472 50.1299 108.536 51.7168 108.536ZM51.6729 103.941C52.3516 103.941 52.8447 104.376 52.9277 105.25H50.3936C50.4863 104.4 50.9941 103.941 51.6729 103.941ZM58.5674 110.304C59.749 110.304 60.3594 109.879 60.8184 108.541L62.7324 103.092H61.4531L60.2129 107.262H60.1201L58.875 103.092H57.5469L59.4561 108.433L59.3926 108.678C59.2607 109.161 58.9629 109.366 58.4648 109.366C58.3379 109.366 58.2012 109.361 58.1035 109.351V110.284C58.25 110.299 58.4209 110.304 58.5674 110.304ZM65.8672 108.536C67.4639 108.536 68.4355 107.491 68.4355 105.763V105.753C68.4355 104.034 67.459 102.989 65.8672 102.989C64.2803 102.989 63.2988 104.039 63.2988 105.753V105.763C63.2988 107.491 64.2656 108.536 65.8672 108.536ZM65.8672 107.55C65.0225 107.55 64.5391 106.891 64.5391 105.767V105.758C64.5391 104.635 65.0225 103.971 65.8672 103.971C66.707 103.971 67.1904 104.635 67.1904 105.758V105.767C67.1904 106.891 66.7119 107.55 65.8672 107.55ZM71.4238 108.536C72.1953 108.536 72.7373 108.189 72.9863 107.618H73.0693V108.429H74.2852V103.092H73.0693V106.202C73.0693 107.003 72.6494 107.511 71.8633 107.511C71.1309 107.511 70.8232 107.091 70.8232 106.266V103.092H69.6074V106.544C69.6074 107.813 70.2227 108.536 71.4238 108.536ZM75.7695 108.429H76.9854V105.328C76.9854 104.566 77.5176 104.083 78.3281 104.083C78.5381 104.083 78.7383 104.112 78.9336 104.151V103.062C78.8164 103.028 78.626 103.004 78.4404 103.004C77.7373 103.004 77.249 103.341 77.0684 103.912H76.9854V103.092H75.7695V108.429ZM82.5957 110.201H83.8115V107.579H83.8945C84.1729 108.155 84.7832 108.516 85.5156 108.516C86.8682 108.516 87.708 107.467 87.708 105.767V105.758C87.708 104.068 86.8535 103.004 85.5156 103.004C84.7686 103.004 84.1875 103.346 83.8945 103.927H83.8115V103.092H82.5957V110.201ZM85.1348 107.491C84.3096 107.491 83.7969 106.832 83.7969 105.763V105.753C83.7969 104.683 84.3096 104.029 85.1348 104.029C85.9648 104.029 86.4678 104.683 86.4678 105.758V105.767C86.4678 106.837 85.9648 107.491 85.1348 107.491ZM88.9336 108.429H90.1494V105.328C90.1494 104.566 90.6816 104.083 91.4922 104.083C91.7021 104.083 91.9023 104.112 92.0977 104.151V103.062C91.9805 103.028 91.79 103.004 91.6045 103.004C90.9014 103.004 90.4131 103.341 90.2324 103.912H90.1494V103.092H88.9336V108.429ZM93.7188 102.198C94.1143 102.198 94.4414 101.881 94.4414 101.48C94.4414 101.085 94.1143 100.763 93.7188 100.763C93.3184 100.763 92.9912 101.085 92.9912 101.48C92.9912 101.881 93.3184 102.198 93.7188 102.198ZM93.1084 108.429H94.3242V103.092H93.1084V108.429ZM97.2539 108.429H98.5869L100.477 103.092H99.1973L97.9717 107.242H97.8887L96.6533 103.092H95.3545L97.2539 108.429ZM102.771 108.516C103.475 108.516 104.041 108.214 104.334 107.696H104.417V108.429H105.618V104.781C105.618 103.653 104.847 102.989 103.475 102.989C102.205 102.989 101.346 103.585 101.229 104.483L101.224 104.527H102.371L102.376 104.508C102.498 104.156 102.859 103.956 103.416 103.956C104.07 103.956 104.417 104.249 104.417 104.781V105.24L103.045 105.323C101.746 105.401 101.019 105.958 101.019 106.91V106.92C101.019 107.891 101.756 108.516 102.771 108.516ZM102.22 106.861V106.851C102.22 106.412 102.537 106.163 103.216 106.119L104.417 106.041V106.471C104.417 107.105 103.875 107.584 103.143 107.584C102.605 107.584 102.22 107.315 102.22 106.861ZM109.368 108.536C110.721 108.536 111.507 107.808 111.683 106.715L111.692 106.676L110.545 106.681L110.535 106.7C110.384 107.262 109.998 107.55 109.368 107.55C108.543 107.55 108.05 106.886 108.05 105.753V105.743C108.05 104.625 108.538 103.971 109.368 103.971C110.032 103.971 110.428 104.342 110.54 104.859L110.545 104.874H111.692V104.854C111.556 103.751 110.735 102.989 109.363 102.989C107.757 102.989 106.814 104.019 106.814 105.743V105.753C106.814 107.496 107.762 108.536 109.368 108.536ZM113.421 110.304C114.603 110.304 115.213 109.879 115.672 108.541L117.586 103.092H116.307L115.066 107.262H114.974L113.729 103.092H112.4L114.31 108.433L114.246 108.678C114.114 109.161 113.816 109.366 113.318 109.366C113.191 109.366 113.055 109.361 112.957 109.351V110.284C113.104 110.299 113.274 110.304 113.421 110.304ZM118.509 106.139H121.771V105.035H118.509V106.139ZM123.289 108.429H124.505V105.328C124.505 104.566 125.037 104.083 125.848 104.083C126.058 104.083 126.258 104.112 126.453 104.151V103.062C126.336 103.028 126.146 103.004 125.96 103.004C125.257 103.004 124.769 103.341 124.588 103.912H124.505V103.092H123.289V108.429ZM129.598 108.536C131.048 108.536 131.761 107.701 131.932 107.013L131.946 106.969H130.789L130.774 107.003C130.657 107.247 130.281 107.579 129.622 107.579C128.797 107.579 128.279 107.022 128.265 106.065H131.995V105.665C131.995 104.054 131.058 102.989 129.539 102.989C128.021 102.989 127.049 104.088 127.049 105.767V105.772C127.049 107.472 128.011 108.536 129.598 108.536ZM129.554 103.941C130.232 103.941 130.726 104.376 130.809 105.25H128.274C128.367 104.4 128.875 103.941 129.554 103.941ZM133.26 108.429H134.476V101.026H133.26V108.429ZM137.469 108.516C138.172 108.516 138.738 108.214 139.031 107.696H139.114V108.429H140.315V104.781C140.315 103.653 139.544 102.989 138.172 102.989C136.902 102.989 136.043 103.585 135.926 104.483L135.921 104.527H137.068L137.073 104.508C137.195 104.156 137.557 103.956 138.113 103.956C138.768 103.956 139.114 104.249 139.114 104.781V105.24L137.742 105.323C136.443 105.401 135.716 105.958 135.716 106.91V106.92C135.716 107.891 136.453 108.516 137.469 108.516ZM136.917 106.861V106.851C136.917 106.412 137.234 106.163 137.913 106.119L139.114 106.041V106.471C139.114 107.105 138.572 107.584 137.84 107.584C137.303 107.584 136.917 107.315 136.917 106.861ZM143.875 108.453C144.109 108.453 144.334 108.433 144.51 108.399V107.462C144.363 107.476 144.271 107.481 144.1 107.481C143.592 107.481 143.382 107.257 143.382 106.724V104.034H144.51V103.092H143.382V101.783H142.146V103.092H141.316V104.034H142.146V107.013C142.146 108.043 142.649 108.453 143.875 108.453ZM147.957 108.536C149.407 108.536 150.12 107.701 150.291 107.013L150.306 106.969H149.148L149.134 107.003C149.017 107.247 148.641 107.579 147.981 107.579C147.156 107.579 146.639 107.022 146.624 106.065H150.354V105.665C150.354 104.054 149.417 102.989 147.898 102.989C146.38 102.989 145.408 104.088 145.408 105.767V105.772C145.408 107.472 146.37 108.536 147.957 108.536ZM147.913 103.941C148.592 103.941 149.085 104.376 149.168 105.25H146.634C146.727 104.4 147.234 103.941 147.913 103.941ZM153.494 108.516C154.246 108.516 154.822 108.175 155.115 107.594H155.198V108.429H156.419V101.026H155.198V103.941H155.115C154.837 103.365 154.227 103.004 153.494 103.004C152.142 103.004 151.307 104.058 151.307 105.758V105.767C151.307 107.457 152.156 108.516 153.494 108.516ZM153.875 107.491C153.045 107.491 152.542 106.842 152.542 105.767V105.758C152.542 104.683 153.05 104.029 153.875 104.029C154.7 104.029 155.218 104.688 155.218 105.758V105.767C155.218 106.837 154.705 107.491 153.875 107.491ZM162.63 108.536C163.943 108.536 164.896 107.857 164.896 106.842V106.832C164.896 106.056 164.402 105.611 163.357 105.377L162.493 105.186C161.917 105.055 161.692 104.864 161.692 104.552V104.547C161.692 104.146 162.083 103.883 162.625 103.883C163.196 103.883 163.548 104.156 163.636 104.493L163.641 104.508H164.783V104.498C164.705 103.634 163.929 102.989 162.63 102.989C161.37 102.989 160.491 103.653 160.491 104.615V104.62C160.491 105.406 160.975 105.885 161.99 106.109L162.854 106.305C163.44 106.436 163.675 106.641 163.675 106.954V106.964C163.675 107.364 163.255 107.638 162.649 107.638C162.044 107.638 161.688 107.379 161.561 107.008L161.556 106.998H160.35V107.008C160.452 107.911 161.272 108.536 162.63 108.536ZM168.406 108.536C169.856 108.536 170.569 107.701 170.74 107.013L170.755 106.969H169.598L169.583 107.003C169.466 107.247 169.09 107.579 168.431 107.579C167.605 107.579 167.088 107.022 167.073 106.065H170.804V105.665C170.804 104.054 169.866 102.989 168.348 102.989C166.829 102.989 165.857 104.088 165.857 105.767V105.772C165.857 107.472 166.819 108.536 168.406 108.536ZM168.362 103.941C169.041 103.941 169.534 104.376 169.617 105.25H167.083C167.176 104.4 167.684 103.941 168.362 103.941ZM174.119 108.453C174.354 108.453 174.578 108.433 174.754 108.399V107.462C174.607 107.476 174.515 107.481 174.344 107.481C173.836 107.481 173.626 107.257 173.626 106.724V104.034H174.754V103.092H173.626V101.783H172.391V103.092H171.561V104.034H172.391V107.013C172.391 108.043 172.894 108.453 174.119 108.453ZM178.094 108.453C178.328 108.453 178.553 108.433 178.729 108.399V107.462C178.582 107.476 178.489 107.481 178.318 107.481C177.811 107.481 177.601 107.257 177.601 106.724V104.034H178.729V103.092H177.601V101.783H176.365V103.092H175.535V104.034H176.365V107.013C176.365 108.043 176.868 108.453 178.094 108.453ZM180.564 102.198C180.96 102.198 181.287 101.881 181.287 101.48C181.287 101.085 180.96 100.763 180.564 100.763C180.164 100.763 179.837 101.085 179.837 101.48C179.837 101.881 180.164 102.198 180.564 102.198ZM179.954 108.429H181.17V103.092H179.954V108.429ZM182.664 108.429H183.88V105.318C183.88 104.517 184.329 104.01 185.052 104.01C185.789 104.01 186.126 104.43 186.126 105.26V108.429H187.342V104.976C187.342 103.707 186.692 102.989 185.501 102.989C184.729 102.989 184.217 103.336 183.963 103.907H183.88V103.092H182.664V108.429ZM191.072 110.304C192.63 110.304 193.616 109.527 193.616 108.297V103.092H192.4V103.971H192.337C192.034 103.365 191.458 103.004 190.721 103.004C189.344 103.004 188.504 104.068 188.504 105.611V105.621C188.504 107.135 189.344 108.18 190.696 108.18C191.434 108.18 192.015 107.867 192.322 107.296H192.405V108.316C192.405 109 191.922 109.386 191.092 109.386C190.413 109.386 190.008 109.146 189.925 108.805L189.92 108.79H188.704L188.699 108.805C188.821 109.703 189.666 110.304 191.072 110.304ZM191.072 107.213C190.228 107.213 189.749 106.563 189.749 105.621V105.611C189.749 104.669 190.228 104.015 191.072 104.015C191.912 104.015 192.425 104.669 192.425 105.611V105.621C192.425 106.563 191.917 107.213 191.072 107.213ZM197.122 108.536C198.436 108.536 199.388 107.857 199.388 106.842V106.832C199.388 106.056 198.895 105.611 197.85 105.377L196.985 105.186C196.409 105.055 196.185 104.864 196.185 104.552V104.547C196.185 104.146 196.575 103.883 197.117 103.883C197.688 103.883 198.04 104.156 198.128 104.493L198.133 104.508H199.275V104.498C199.197 103.634 198.421 102.989 197.122 102.989C195.862 102.989 194.983 103.653 194.983 104.615V104.62C194.983 105.406 195.467 105.885 196.482 106.109L197.347 106.305C197.933 106.436 198.167 106.641 198.167 106.954V106.964C198.167 107.364 197.747 107.638 197.142 107.638C196.536 107.638 196.18 107.379 196.053 107.008L196.048 106.998H194.842V107.008C194.944 107.911 195.765 108.536 197.122 108.536Z" fill="#5A6A81"/>
<path d="M250.854 134.429H253.628C255.737 134.429 256.934 133.14 256.934 130.864V130.854C256.934 128.647 255.723 127.383 253.628 127.383H250.854V134.429ZM252.329 133.213V128.599H253.394C254.673 128.599 255.43 129.429 255.43 130.879V130.889C255.43 132.392 254.697 133.213 253.394 133.213H252.329ZM260.557 134.541C262.129 134.541 262.822 133.633 262.988 132.959L262.998 132.91H261.67L261.655 132.939C261.558 133.144 261.211 133.476 260.586 133.476C259.829 133.476 259.355 132.964 259.341 132.08H263.042V131.636C263.042 130.01 262.065 128.935 260.498 128.935C258.931 128.935 257.93 130.034 257.93 131.743V131.748C257.93 133.472 258.921 134.541 260.557 134.541ZM260.522 130.005C261.143 130.005 261.587 130.405 261.675 131.186H259.355C259.443 130.425 259.902 130.005 260.522 130.005ZM264.209 134.429H265.635V131.318C265.635 130.591 266.035 130.117 266.694 130.117C267.368 130.117 267.681 130.517 267.681 131.274V134.429H269.106V130.952C269.106 129.668 268.462 128.935 267.266 128.935C266.499 128.935 265.967 129.302 265.723 129.883H265.635V129.053H264.209V134.429ZM270.981 136.323C272.31 136.323 273.018 135.845 273.496 134.424L275.327 129.053H273.823L272.695 133.125H272.598L271.47 129.053H269.902L271.792 134.429L271.743 134.634C271.641 135.054 271.348 135.249 270.84 135.249C270.708 135.249 270.566 135.244 270.469 135.234V136.308C270.635 136.318 270.815 136.323 270.981 136.323Z" fill="#2E7FEA"/>
<rect x="238.5" y="117.929" width="49" height="25" rx="3.5" stroke="#D7DBE0"/>
<path d="M307.352 134.429H308.899L309.422 132.72H311.907L312.43 134.429H313.982L311.531 127.383H309.798L307.352 134.429ZM310.623 128.789H310.711L311.57 131.616H309.759L310.623 128.789ZM315.086 134.429H316.512V126.997H315.086V134.429ZM318.035 134.429H319.461V126.997H318.035V134.429ZM323.323 134.541C324.979 134.541 325.975 133.496 325.975 131.743V131.733C325.975 129.995 324.964 128.935 323.323 128.935C321.683 128.935 320.672 130 320.672 131.733V131.743C320.672 133.491 321.668 134.541 323.323 134.541ZM323.323 133.423C322.562 133.423 322.132 132.803 322.132 131.743V131.733C322.132 130.683 322.566 130.054 323.323 130.054C324.075 130.054 324.515 130.683 324.515 131.733V131.743C324.515 132.803 324.08 133.423 323.323 133.423ZM327.933 134.429H329.427L330.379 130.679H330.467L331.429 134.429H332.942L334.373 129.053H332.962L332.161 132.944H332.073L331.126 129.053H329.769L328.826 132.944H328.738L327.938 129.053H326.497L327.933 134.429Z" fill="#2E7FEA"/>
<rect x="295.5" y="117.929" width="51" height="25" rx="3.5" stroke="#D7DBE0"/>
<rect x="292" y="114" width="58" height="32" rx="3" stroke="#EDBF0E" stroke-width="2"/>
</svg>
