<svg width="60" height="40" viewBox="0 0 60 40" fill="none" xmlns="http://www.w3.org/2000/svg">
<path d="M3.08333 15.0833L4.98359 16.9836" stroke="#D7DBE0" stroke-width="0.812488" stroke-linecap="round" stroke-linejoin="round"/>
<path d="M4.91655 15.0833L3.01629 16.9836" stroke="#D7DBE0" stroke-width="0.812488" stroke-linecap="round" stroke-linejoin="round"/>
<path d="M48.1026 2.10256L50.4414 4.44138" stroke="#D7DBE0" stroke-linecap="round" stroke-linejoin="round"/>
<path d="M50.359 2.10256L48.0202 4.44138" stroke="#D7DBE0" stroke-linecap="round" stroke-linejoin="round"/>
<rect x="7" y="6.74072" width="2.46154" height="2.46154" transform="rotate(-45 7 6.74072)" stroke="#D7DBE0" stroke-linecap="round" stroke-linejoin="round"/>
<path d="M34 24.771V31.5257C34 32.034 33.8998 32.5374 33.7052 33.0071C33.5106 33.4768 33.2254 33.9035 32.8659 34.2629C32.5063 34.6223 32.0795 34.9074 31.6098 35.1018C31.14 35.2962 30.6366 35.3962 30.1282 35.396H20.8717C20.3633 35.3962 19.8599 35.2962 19.3902 35.1018C18.9204 34.9074 18.4936 34.6223 18.1341 34.2629C17.7745 33.9035 17.4893 33.4768 17.2947 33.0071C17.1001 32.5374 17 32.034 17 31.5257V9.51775C17 8.49089 17.4079 7.5061 18.134 6.78001C18.8601 6.05391 19.8449 5.646 20.8717 5.646H25.5H28.7571C29.6539 5.646 30.5333 5.89286 31.299 6.35954C31.7906 6.65915 32.2303 7.04959 32.5882 7.50058C33.2681 8.35754 33.659 9.42544 33.6833 10.5191L34 24.771Z" fill="white"/>
<path d="M34.4351 25.2232V32.0332C34.4353 32.546 34.3344 33.0538 34.1383 33.5275C33.9421 34.0013 33.6546 34.4318 33.292 34.7944C32.9294 35.157 32.4989 35.4445 32.0251 35.6407C31.5514 35.8368 31.0436 35.9377 30.5308 35.9375H21.1965C20.6838 35.9377 20.176 35.8368 19.7022 35.6407C19.2284 35.4445 18.7979 35.157 18.4354 34.7944C18.0728 34.4318 17.7852 34.0013 17.5891 33.5275C17.3929 33.0538 17.292 32.546 17.2922 32.0332V9.84179C17.292 9.32901 17.3929 8.82123 17.5891 8.34746C17.7852 7.87368 18.0728 7.4432 18.4354 7.08062C18.7979 6.71804 19.2284 6.43046 19.7022 6.23431C20.176 6.03817 20.6838 5.93731 21.1965 5.9375H24.7922" stroke="#D7DBE0" stroke-width="1.25" stroke-linecap="round" stroke-linejoin="round"/>
<path d="M25.7089 32.7708C26.4913 32.7708 27.1256 32.1366 27.1256 31.3542C27.1256 30.5718 26.4913 29.9375 25.7089 29.9375C24.9265 29.9375 24.2922 30.5718 24.2922 31.3542C24.2922 32.1366 24.9265 32.7708 25.7089 32.7708Z" fill="#D7DBE0"/>
<path d="M30.2922 11.375H43.0422V22H30.2922V11.375Z" fill="#D7DBE0" stroke="#D7DBE0" stroke-width="1.41667" stroke-linecap="round" stroke-linejoin="round"/>
<path d="M36.6672 5C35.54 5 34.459 5.44777 33.662 6.2448C32.865 7.04183 32.4172 8.12283 32.4172 9.25V11.375H40.9172V9.25C40.9172 8.12283 40.4694 7.04183 39.6724 6.2448C38.8754 5.44777 37.7944 5 36.6672 5Z" stroke="#D7DBE0" stroke-width="1.41667" stroke-linecap="round" stroke-linejoin="round"/>
<path d="M36.6672 16.1987C36.5621 16.1987 36.4594 16.2299 36.3721 16.2883C36.2847 16.3466 36.2166 16.4296 36.1764 16.5267C36.1362 16.6238 36.1257 16.7306 36.1462 16.8336C36.1667 16.9367 36.2173 17.0313 36.2915 17.1056C36.3658 17.1799 36.4605 17.2305 36.5636 17.251C36.6666 17.2715 36.7734 17.261 36.8705 17.2208C36.9676 17.1806 37.0505 17.1125 37.1089 17.0251C37.1673 16.9378 37.1984 16.8351 37.1984 16.73C37.1984 16.5891 37.1425 16.454 37.0429 16.3543C36.9432 16.2547 36.8081 16.1987 36.6672 16.1987Z" fill="white" stroke="white" stroke-width="1.41667" stroke-linecap="round" stroke-linejoin="round"/>
<rect x="45" y="28" width="2.46154" height="2.46154" stroke="#D7DBE0" stroke-linecap="round" stroke-linejoin="round"/>
</svg>
