<svg width="14" height="14" viewBox="0 0 14 14" fill="none" xmlns="http://www.w3.org/2000/svg">
    <path d="M13.2224 9.8805C13.0349 9.8805 12.8551 9.95499 12.7225 10.0876C12.5899 10.2202 12.5154 10.4 12.5154 10.5875V11.6696C12.5151 11.9125 12.4184 12.1453 12.2466 12.317C12.0748 12.4887 11.8419 12.5853 11.599 12.5854H2.40097C2.15807 12.5853 1.92516 12.4887 1.75335 12.317C1.58153 12.1453 1.48487 11.9125 1.48456 11.6696V10.5875C1.48456 10.4 1.41007 10.2202 1.27748 10.0876C1.14489 9.95499 0.965065 9.8805 0.777557 9.8805C0.590048 9.8805 0.41022 9.95499 0.277632 10.0876C0.145044 10.2202 0.0705566 10.4 0.0705566 10.5875V11.6696C0.0705562 12.2879 0.315988 12.881 0.752943 13.3185C1.1899 13.756 1.78264 14.0021 2.40097 14.0029H11.599C12.2178 14.0029 12.8113 13.7571 13.2489 13.3195C13.6865 12.8819 13.9323 12.2884 13.9323 11.6696V10.5875C13.9323 10.4944 13.9139 10.4022 13.8782 10.3163C13.8425 10.2303 13.7902 10.1522 13.7242 10.0865C13.6582 10.0209 13.58 9.96883 13.4938 9.93348C13.4077 9.89812 13.3155 9.88012 13.2224 9.8805Z" fill="#748193"/>
    <path d="M7.00005 0C6.70007 0 6.41237 0.119167 6.20025 0.331287C5.98813 0.543406 5.86896 0.831101 5.86896 1.13108V6.41958C5.86896 6.45826 5.8536 6.49535 5.82625 6.5227C5.7989 6.55005 5.76181 6.56542 5.72313 6.56542H4.17205C4.06354 6.56546 3.95734 6.5967 3.86609 6.65542C3.77485 6.71413 3.70241 6.79784 3.6574 6.89658C3.6124 6.99531 3.59674 7.1049 3.61228 7.21228C3.62782 7.31967 3.6739 7.42032 3.74505 7.50225L6.57305 10.7549C6.62611 10.8161 6.69169 10.8651 6.76536 10.8988C6.83903 10.9324 6.91907 10.9498 7.00005 10.9498C7.08103 10.9498 7.16106 10.9324 7.23473 10.8988C7.3084 10.8651 7.37399 10.8161 7.42705 10.7549L10.255 7.50225C10.3262 7.42032 10.3723 7.31967 10.3878 7.21228C10.4034 7.1049 10.3877 6.99531 10.3427 6.89658C10.2977 6.79784 10.2252 6.71413 10.134 6.65542C10.0428 6.5967 9.93655 6.56546 9.82805 6.56542H8.27696C8.23829 6.56542 8.20119 6.55005 8.17384 6.5227C8.14649 6.49535 8.13113 6.45826 8.13113 6.41958V1.13108C8.13113 0.831101 8.01196 0.543406 7.79984 0.331287C7.58772 0.119167 7.30003 0 7.00005 0Z" fill="#768498"/>
</svg>
