<svg width="100" height="100" viewBox="0 0 100 100" fill="none" xmlns="http://www.w3.org/2000/svg">
<path fill-rule="evenodd" clip-rule="evenodd" d="M50 100C77.6142 100 100 77.6142 100 50C100 22.3858 77.6142 0 50 0C22.3858 0 0 22.3858 0 50C0 77.6142 22.3858 100 50 100Z" fill="#F7D8D7"/>
<path d="M26.3748 73.3326C25.7208 73.3325 25.078 73.163 24.5089 72.8407C23.9399 72.5184 23.464 72.0542 23.1275 71.4934C22.7911 70.9325 22.6056 70.2941 22.5891 69.6403C22.5726 68.9865 22.7257 68.3396 23.0334 67.7625L47.0286 22.7859C47.3517 22.1801 47.8333 21.6736 48.422 21.3203C49.0107 20.9671 49.6843 20.7805 50.3709 20.7805C51.0574 20.7805 51.731 20.9671 52.3197 21.3203C52.9084 21.6736 53.39 22.1801 53.7131 22.7859L77.6971 67.7609C78.0054 68.3384 78.1588 68.986 78.1423 69.6404C78.1257 70.2948 77.9399 70.9338 77.6028 71.495C77.2658 72.0562 76.789 72.5205 76.2191 72.8426C75.6492 73.1646 75.0055 73.3335 74.3508 73.3326H26.3748Z" fill="white"/>
<path d="M57.0449 29.0368C56.4196 28.5926 55.6715 28.3541 54.9045 28.3544C54.2165 28.3558 53.5416 28.5432 52.9514 28.8968C52.3612 29.2504 51.8776 29.7571 51.5518 30.3631L28.6565 73.3326H26.3748C25.7208 73.3325 25.078 73.163 24.5089 72.8407C23.9399 72.5184 23.464 72.0542 23.1275 71.4934C22.7911 70.9325 22.6056 70.2941 22.5891 69.6403C22.5726 68.9865 22.7257 68.3396 23.0334 67.7625L47.0287 22.7859C47.3517 22.1801 47.8333 21.6736 48.422 21.3203C49.0107 20.9671 49.6843 20.7805 50.3709 20.7805C51.0574 20.7805 51.731 20.9671 52.3197 21.3203C52.9084 21.6736 53.39 22.1801 53.7131 22.7859L57.0481 29.0384" fill="white"/>
<path d="M26.3748 73.3326C25.7208 73.3325 25.078 73.163 24.5089 72.8407C23.9399 72.5184 23.464 72.0542 23.1275 71.4934C22.7911 70.9325 22.6056 70.2941 22.5891 69.6403C22.5726 68.9865 22.7257 68.3396 23.0334 67.7625L47.0286 22.7859C47.3517 22.1801 47.8333 21.6736 48.422 21.3203C49.0107 20.9671 49.6843 20.7805 50.3709 20.7805C51.0574 20.7805 51.731 20.9671 52.3197 21.3203C52.9084 21.6736 53.39 22.1801 53.7131 22.7859L77.6971 67.7609C78.0054 68.3384 78.1588 68.986 78.1422 69.6404C78.1257 70.2948 77.9399 70.9338 77.6028 71.495C77.2658 72.0562 76.789 72.5205 76.2191 72.8426C75.6492 73.1646 75.0055 73.3335 74.3508 73.3326H26.3748Z" stroke="#264887" stroke-width="2" stroke-linecap="round" stroke-linejoin="round" stroke-dasharray="182 7 1 4"/>
<path d="M51.2586 55.4677C51.2082 55.6674 51.0926 55.8445 50.9302 55.9711C50.7677 56.0976 50.5677 56.1664 50.3618 56.1664C50.1559 56.1664 49.9558 56.0976 49.7934 55.9711C49.6309 55.8445 49.5154 55.6674 49.465 55.4677C45.841 41.1852 45.9935 41.8291 45.9791 41.6862C45.9206 41.0754 45.9904 40.4591 46.184 39.8769C46.3776 39.2947 46.6908 38.7593 47.1035 38.3052C47.5161 37.8512 48.0192 37.4883 48.5803 37.2401C49.1414 36.9918 49.7482 36.8635 50.3618 36.8635C50.9754 36.8635 51.5822 36.9918 52.1433 37.2401C52.7044 37.4883 53.2074 37.8512 53.6201 38.3052C54.0328 38.7593 54.3459 39.2947 54.5396 39.8769C54.7332 40.4591 54.803 41.0754 54.7445 41.6862C54.7348 41.8291 54.8842 41.182 51.2586 55.4677Z" fill="#D32D27" stroke="#D32D27" stroke-width="2" stroke-linecap="round" stroke-linejoin="round"/>
<path d="M50.3621 67.5056C49.6581 67.5059 48.9697 67.2974 48.3841 66.9065C47.7986 66.5156 47.342 65.9599 47.0723 65.3095C46.8026 64.6592 46.7318 63.9435 46.8688 63.2529C47.0059 62.5623 47.3446 61.9278 47.8422 61.4298C48.3398 60.9317 48.974 60.5924 49.6645 60.4547C50.3549 60.317 51.0707 60.3872 51.7213 60.6563C52.3719 60.9255 52.928 61.3815 53.3195 61.9667C53.7109 62.552 53.92 63.2401 53.9203 63.9442C53.9199 64.888 53.545 65.7931 52.8778 66.4608C52.2107 67.1286 51.306 67.5043 50.3621 67.5056Z" fill="#D32D27" stroke="#D32D27" stroke-width="2" stroke-linecap="round" stroke-linejoin="round"/>
<path d="M20.5555 81.9444H79.4444" stroke="#E78C89" stroke-width="2" stroke-linecap="round" stroke-dasharray="1 6 164 5"/>
<rect x="80.9138" y="28.2659" width="3.53065" height="3.53064" stroke="#E78C89" stroke-width="2" stroke-linecap="round" stroke-linejoin="round"/>
<path fill-rule="evenodd" clip-rule="evenodd" d="M12.8764 16.9108C13.8514 16.9108 14.6417 16.1204 14.6417 15.1454C14.6417 14.1705 13.8514 13.3801 12.8764 13.3801C11.9015 13.3801 11.1111 14.1705 11.1111 15.1454C11.1111 16.1204 11.9015 16.9108 12.8764 16.9108Z" stroke="#E78C89" stroke-width="2"/>
<rect width="3.53064" height="3.53064" transform="matrix(0.707106 -0.707107 0.707106 0.707107 20.9971 22.9379)" stroke="#E78C89" stroke-width="2" stroke-linecap="round" stroke-linejoin="round"/>
<path d="M31.0298 10.7027L34.3845 14.0573" stroke="#E78C89" stroke-width="2" stroke-linecap="round"/>
<path d="M34.2655 10.7027L30.9109 14.0573" stroke="#E78C89" stroke-width="2" stroke-linecap="round"/>
</svg>
