<svg width="24" height="24" viewBox="0 0 24 24" fill="none" xmlns="http://www.w3.org/2000/svg">
    <path d="M0.620049 23.3795C0.733973 23.4976 0.870735 23.5914 1.02202 23.655C1.1733 23.7186 1.33594 23.7507 1.50005 23.7495C1.66416 23.7507 1.8268 23.7186 1.97808 23.655C2.12936 23.5914 2.26613 23.4976 2.38005 23.3795L6.50005 19.2695C6.52249 19.2456 6.5496 19.2265 6.5797 19.2135C6.6098 19.2005 6.64225 19.1938 6.67505 19.1938C6.70785 19.1938 6.7403 19.2005 6.7704 19.2135C6.8005 19.2265 6.8276 19.2456 6.85005 19.2695L8.29005 20.7095C8.38349 20.8022 8.4943 20.8755 8.61614 20.9253C8.73798 20.975 8.86844 21.0003 9.00005 20.9995C9.26527 20.9995 9.51962 20.8942 9.70716 20.7066C9.89469 20.5191 10 20.2647 10 19.9995V14.9995C10 14.7343 9.89469 14.4799 9.70716 14.2924C9.51962 14.1049 9.26527 13.9995 9.00005 13.9995H4.00005C3.80262 14.0005 3.60991 14.0599 3.44619 14.1702C3.28247 14.2806 3.15507 14.4369 3.08005 14.6195C3.00347 14.8016 2.98255 15.0023 3.01992 15.1963C3.05729 15.3903 3.15129 15.5689 3.29005 15.7095L4.73005 17.1495C4.75396 17.172 4.77303 17.1991 4.78606 17.2292C4.79909 17.2593 4.80581 17.2917 4.80581 17.3245C4.80581 17.3573 4.79909 17.3898 4.78606 17.4199C4.77303 17.45 4.75396 17.4771 4.73005 17.4995L0.620049 21.6195C0.503946 21.7348 0.411799 21.8719 0.348918 22.0229C0.286036 22.1739 0.253662 22.3359 0.253662 22.4995C0.253662 22.6631 0.286036 22.8251 0.348918 22.9761C0.411799 23.1272 0.503946 23.2642 0.620049 23.3795Z" fill="#BAC0CA"/>
    <path d="M23.3798 0.619805C23.2645 0.503702 23.1274 0.411555 22.9764 0.348673C22.8254 0.285792 22.6634 0.253418 22.4998 0.253418C22.3362 0.253418 22.1742 0.285792 22.0232 0.348673C21.8721 0.411555 21.735 0.503702 21.6198 0.619805L17.4998 4.7298C17.4773 4.75372 17.4502 4.77278 17.4201 4.78581C17.39 4.79884 17.3576 4.80556 17.3248 4.80556C17.292 4.80556 17.2595 4.79884 17.2294 4.78581C17.1993 4.77278 17.1722 4.75372 17.1498 4.7298L15.7098 3.2898C15.5699 3.14878 15.3912 3.05259 15.1965 3.01353C15.0017 2.97446 14.7997 2.99427 14.6163 3.07043C14.4328 3.1466 14.2762 3.27567 14.1664 3.44119C14.0566 3.60671 13.9986 3.80118 13.9998 3.9998V8.9998C13.9998 9.26502 14.1051 9.51937 14.2927 9.70691C14.4802 9.89445 14.7346 9.9998 14.9998 9.9998H19.9998C20.1972 9.99882 20.3899 9.93942 20.5536 9.82908C20.7174 9.71875 20.8448 9.56242 20.9198 9.3798C20.9964 9.19769 21.0173 8.99698 20.9799 8.80299C20.9425 8.609 20.8485 8.43043 20.7098 8.2898L19.2698 6.8498C19.2459 6.82736 19.2268 6.80025 19.2138 6.77015C19.2007 6.74005 19.194 6.7076 19.194 6.67481C19.194 6.64201 19.2007 6.60956 19.2138 6.57946C19.2268 6.54936 19.2459 6.52225 19.2698 6.4998L23.3798 2.3798C23.4959 2.26454 23.588 2.12745 23.6509 1.97642C23.7138 1.82539 23.7462 1.6634 23.7462 1.4998C23.7462 1.33621 23.7138 1.17422 23.6509 1.02319C23.588 0.87216 23.4959 0.735065 23.3798 0.619805Z" fill="#BAC0CA"/>
</svg>
