<svg width="36" height="36" viewBox="0 0 36 36" fill="none" xmlns="http://www.w3.org/2000/svg">
    <rect x="0.5" y="0.5" width="35" height="35" rx="3.5" fill="white"/>
    <path fill-rule="evenodd" clip-rule="evenodd" d="M6.36011 11.0851L11.3312 15.0783L6.36011 19.0715L13.5316 23.7167L18.3601 19.5779L23.1887 23.7167L30.3602 19.0715L25.389 15.0783L30.3602 11.0851L23.1887 6.43994L18.3601 10.5787L13.5316 6.43994L6.36011 11.0851ZM25.389 15.0783L18.3601 19.5475L11.3312 15.0783L18.3601 10.6091L25.389 15.0783ZM13.4908 24.6131L11.4127 23.2685V24.8169L18.4212 28.9731L25.5519 24.8169V23.2685L23.1886 24.6131L18.3397 20.4977L13.4908 24.6131Z" fill="#007EE5"/>
    <rect x="0.5" y="0.5" width="35" height="35" rx="3.5" stroke="#EDEFF1"/>
</svg>
