<svg width="48" height="48" viewBox="0 0 48 48" fill="none" xmlns="http://www.w3.org/2000/svg">
<g clip-path="url(#clip0_1238_80713)">
<path d="M43.3207 35.4087C42.6806 35.7404 42.0204 36.0327 41.3439 36.2839C39.1907 37.0822 36.9097 37.4889 34.6107 37.4844C25.7357 37.4844 18.0047 31.4355 18.0047 23.6733C18.0161 22.6322 18.3077 21.6129 18.8494 20.7208C19.3911 19.8286 20.1633 19.0958 21.0862 18.5981C13.0589 18.9326 10.9958 27.2208 10.9958 32.0767C10.9958 45.8061 23.7664 47.198 26.5178 47.198C28.0013 47.198 30.2388 46.7705 31.5817 46.3506L31.8274 46.2688C36.995 44.4987 41.4004 41.0382 44.3185 36.4568C44.4079 36.3172 44.4478 36.1522 44.4319 35.9877C44.416 35.8232 44.3453 35.6686 44.2308 35.5484C44.1164 35.4282 43.9648 35.3492 43.8 35.3239C43.6351 35.2986 43.4665 35.3284 43.3207 35.4087V35.4087Z" fill="url(#paint0_linear_1238_80713)"/>
<path opacity="0.35" d="M43.3207 35.4087C42.6806 35.7404 42.0204 36.0327 41.3439 36.2839C39.1907 37.0822 36.9097 37.4889 34.6107 37.4844C25.7357 37.4844 18.0047 31.4355 18.0047 23.6733C18.0161 22.6322 18.3077 21.6129 18.8494 20.7208C19.3911 19.8286 20.1633 19.0958 21.0862 18.5981C13.0589 18.9326 10.9958 27.2208 10.9958 32.0767C10.9958 45.8061 23.7664 47.198 26.5178 47.198C28.0013 47.198 30.2388 46.7705 31.5817 46.3506L31.8274 46.2688C36.995 44.4987 41.4004 41.0382 44.3185 36.4568C44.4079 36.3172 44.4478 36.1522 44.4319 35.9877C44.416 35.8232 44.3453 35.6686 44.2308 35.5484C44.1164 35.4282 43.9648 35.3492 43.8 35.3239C43.6351 35.2986 43.4665 35.3284 43.3207 35.4087V35.4087Z" fill="url(#paint1_radial_1238_80713)"/>
<path d="M19.8128 44.8641C18.14 43.8354 16.6902 42.4873 15.5479 40.8984C14.2458 39.131 13.3499 37.1026 12.9228 34.9557C12.4957 32.8088 12.5479 30.5953 13.0756 28.4704C13.6033 26.3456 14.5938 24.3609 15.9777 22.6555C17.3615 20.9502 19.1052 19.5654 21.0863 18.5985C21.6715 18.3253 22.6711 17.831 24.0009 17.8551C24.9378 17.8619 25.8603 18.0835 26.6962 18.5027C27.5322 18.9218 28.2588 19.527 28.8192 20.271C29.5765 21.2729 29.9941 22.4869 30.012 23.7386C30.012 23.6996 34.5996 8.94629 15.0077 8.94629C6.7741 8.94629 0.00342046 16.6881 0.00342046 23.4803C-0.0290565 27.0733 0.746833 30.6283 2.27469 33.887C4.77165 39.1657 9.13814 43.3521 14.545 45.6511C19.9519 47.9502 26.0226 48.2018 31.6043 46.3582C29.6499 46.9688 27.5851 47.152 25.5523 46.8954C23.5195 46.6387 21.5671 45.9482 19.8297 44.8716L19.8128 44.8641Z" fill="url(#paint2_linear_1238_80713)"/>
<path opacity="0.41" d="M19.8128 44.8641C18.14 43.8354 16.6902 42.4873 15.5479 40.8984C14.2458 39.131 13.3499 37.1026 12.9228 34.9557C12.4957 32.8088 12.5479 30.5953 13.0756 28.4704C13.6033 26.3456 14.5938 24.3609 15.9777 22.6555C17.3615 20.9502 19.1052 19.5654 21.0863 18.5985C21.6715 18.3253 22.6711 17.831 24.0009 17.8551C24.9378 17.8619 25.8603 18.0835 26.6962 18.5027C27.5322 18.9218 28.2588 19.527 28.8192 20.271C29.5765 21.2729 29.9941 22.4869 30.012 23.7386C30.012 23.6996 34.5996 8.94629 15.0077 8.94629C6.7741 8.94629 0.00342046 16.6881 0.00342046 23.4803C-0.0290565 27.0733 0.746833 30.6283 2.27469 33.887C4.77165 39.1657 9.13814 43.3521 14.545 45.6511C19.9519 47.9502 26.0226 48.2018 31.6043 46.3582C29.6499 46.9688 27.5851 47.152 25.5523 46.8954C23.5195 46.6387 21.5671 45.9482 19.8297 44.8716L19.8128 44.8641Z" fill="url(#paint3_radial_1238_80713)"/>
<path d="M28.553 27.6631C28.4011 27.8583 27.9341 28.1277 27.9341 28.715C27.9341 29.2 28.2529 29.6664 28.8193 30.0585C31.5164 31.9169 36.601 31.6716 36.6141 31.6716C38.6125 31.6668 40.5731 31.131 42.2913 30.1199C44.0247 29.117 45.4634 27.6826 46.4645 25.9588C47.4656 24.235 47.9945 22.2818 47.9986 20.293C48.0474 16.1285 46.4982 13.3596 45.8718 12.1331C41.8975 4.43027 33.3188 1.16451e-07 23.9898 1.16451e-07C17.6809 -0.000618002 11.6252 2.4595 7.13263 6.84828C2.64004 11.2371 0.07163 17.2017 -0.0170898 23.4522C0.0729361 16.6618 6.8849 11.1779 14.9872 11.1779C15.6437 11.1779 19.3872 11.2411 22.8645 13.0492C25.9291 14.6437 27.5346 16.5689 28.6505 18.4774C29.8096 20.4602 30.0159 22.9653 30.0159 23.9632C30.0159 24.9611 29.502 26.4404 28.553 27.6631V27.6631Z" fill="url(#paint4_radial_1238_80713)"/>
<path d="M28.553 27.6631C28.4011 27.8583 27.9341 28.1277 27.9341 28.715C27.9341 29.2 28.2529 29.6664 28.8193 30.0585C31.5164 31.9169 36.601 31.6716 36.6141 31.6716C38.6125 31.6668 40.5731 31.131 42.2913 30.1199C44.0247 29.117 45.4634 27.6826 46.4645 25.9588C47.4656 24.235 47.9945 22.2818 47.9986 20.293C48.0474 16.1285 46.4982 13.3596 45.8718 12.1331C41.8975 4.43027 33.3188 1.16451e-07 23.9898 1.16451e-07C17.6809 -0.000618002 11.6252 2.4595 7.13263 6.84828C2.64004 11.2371 0.07163 17.2017 -0.0170898 23.4522C0.0729361 16.6618 6.8849 11.1779 14.9872 11.1779C15.6437 11.1779 19.3872 11.2411 22.8645 13.0492C25.9291 14.6437 27.5346 16.5689 28.6505 18.4774C29.8096 20.4602 30.0159 22.9653 30.0159 23.9632C30.0159 24.9611 29.502 26.4404 28.553 27.6631V27.6631Z" fill="url(#paint5_radial_1238_80713)"/>
</g>
<defs>
<linearGradient id="paint0_linear_1238_80713" x1="10.9958" y1="32.9018" x2="44.4442" y2="32.9018" gradientUnits="userSpaceOnUse">
<stop stop-color="#0C59A4"/>
<stop offset="1" stop-color="#114A8B"/>
</linearGradient>
<radialGradient id="paint1_radial_1238_80713" cx="0" cy="0" r="1" gradientUnits="userSpaceOnUse" gradientTransform="translate(29.4699 33.163) scale(17.8889 16.8386)">
<stop offset="0.72" stop-opacity="0"/>
<stop offset="0.95" stop-opacity="0.53"/>
<stop offset="1"/>
</radialGradient>
<linearGradient id="paint2_linear_1238_80713" x1="28.6297" y1="18.526" x2="7.9469" y2="41.263" gradientUnits="userSpaceOnUse">
<stop stop-color="#1B9DE2"/>
<stop offset="0.16" stop-color="#1595DF"/>
<stop offset="0.67" stop-color="#0680D7"/>
<stop offset="1" stop-color="#0078D4"/>
</linearGradient>
<radialGradient id="paint3_radial_1238_80713" cx="0" cy="0" r="1" gradientUnits="userSpaceOnUse" gradientTransform="translate(13.223 36.9826) rotate(-81.3058) scale(26.6589 21.728)">
<stop offset="0.76" stop-opacity="0"/>
<stop offset="0.95" stop-opacity="0.5"/>
<stop offset="1"/>
</radialGradient>
<radialGradient id="paint4_radial_1238_80713" cx="0" cy="0" r="1" gradientUnits="userSpaceOnUse" gradientTransform="translate(4.83352 8.80419) rotate(92.3118) scale(37.6489 80.9244)">
<stop stop-color="#35C1F1"/>
<stop offset="0.11" stop-color="#34C1ED"/>
<stop offset="0.23" stop-color="#2FC2DF"/>
<stop offset="0.31" stop-color="#2BC3D2"/>
<stop offset="0.67" stop-color="#36C752"/>
</radialGradient>
<radialGradient id="paint5_radial_1238_80713" cx="0" cy="0" r="1" gradientUnits="userSpaceOnUse" gradientTransform="translate(45.0094 14.3846) rotate(73.5973) scale(18.1022 14.8354)">
<stop stop-color="#66EB6E"/>
<stop offset="1" stop-color="#66EB6E" stop-opacity="0"/>
</radialGradient>
<clipPath id="clip0_1238_80713">
<rect width="48" height="48" fill="white"/>
</clipPath>
</defs>
</svg>
