<svg width="136" height="31" viewBox="0 0 136 31" fill="none" xmlns="http://www.w3.org/2000/svg">
<g filter="url(#filter0_ddd_1658_141562)">
<rect x="2.25" y="2.14746" width="131.75" height="24" rx="4" fill="white"/>
<g clip-path="url(#clip0_1658_141562)">
<path d="M21.9934 14.1474C21.9929 13.9772 21.9564 13.8089 21.8863 13.6538C21.8161 13.4987 21.7139 13.3602 21.5864 13.2474L15.9969 8.32791C15.8525 8.20971 15.6678 8.15219 15.4819 8.16745C15.2959 8.18272 15.1231 8.26959 15 8.40975C14.8768 8.54991 14.8128 8.73242 14.8216 8.9188C14.8303 9.10519 14.9111 9.2809 15.0469 9.40891L19.3654 13.2089C19.3843 13.2257 19.3977 13.2479 19.4038 13.2725C19.4098 13.297 19.4083 13.3229 19.3993 13.3466C19.3904 13.3703 19.3745 13.3907 19.3537 13.4051C19.3329 13.4195 19.3082 13.4273 19.2829 13.4274H10.7259C10.5349 13.4274 10.3518 13.5033 10.2167 13.6383C10.0817 13.7733 10.0059 13.9565 10.0059 14.1474C10.0059 14.3384 10.0817 14.5215 10.2167 14.6565C10.3518 14.7916 10.5349 14.8674 10.7259 14.8674H19.2814C19.3067 14.8677 19.3313 14.8755 19.3521 14.89C19.3728 14.9045 19.3887 14.925 19.3976 14.9487C19.4065 14.9723 19.4081 14.9982 19.4021 15.0228C19.396 15.0473 19.3827 15.0695 19.3639 15.0864L15.0454 18.8864C14.9698 18.9474 14.9074 19.0231 14.8619 19.1088C14.8163 19.1945 14.7886 19.2886 14.7804 19.3853C14.7721 19.4821 14.7835 19.5795 14.8139 19.6717C14.8442 19.7639 14.8929 19.849 14.957 19.9219C15.0212 19.9948 15.0993 20.054 15.1869 20.096C15.2745 20.1379 15.3696 20.1616 15.4666 20.1658C15.5636 20.17 15.6604 20.1546 15.7513 20.1204C15.8422 20.0862 15.9252 20.034 15.9954 19.9669L21.5859 15.0474C21.7135 14.9347 21.8159 14.7962 21.8861 14.6411C21.9564 14.486 21.9929 14.3177 21.9934 14.1474Z" fill="#1B283C"/>
</g>
<line x1="7.25" y1="8.14746" x2="7.25" y2="20.1475" stroke="#1B283C" stroke-width="2"/>
<path d="M38.8203 18.1475H44.0586V17.1982H39.875V14.292H43.8418V13.3545H39.875V10.6416H44.0586V9.69238H38.8203V18.1475ZM44.8203 18.1475H45.9512L47.4219 15.8271H47.4453L48.9043 18.1475H50.0352L48.0078 15.0596L50.0645 12.0537H48.9277L47.4805 14.3389H47.457L45.9922 12.0537H44.8555L46.8945 15.1006L44.8203 18.1475ZM50.9199 20.1982H51.9395V17.1279H51.9629C52.3438 17.8311 53.0527 18.2646 53.9141 18.2646C55.4434 18.2646 56.4863 17.0283 56.4863 15.1064V15.1006C56.4863 13.1787 55.4551 11.9365 53.8965 11.9365C53.0234 11.9365 52.3438 12.376 51.9629 13.085H51.9395V12.0537H50.9199V20.1982ZM53.6973 17.3623C52.6719 17.3623 51.9336 16.4658 51.9336 15.1064V15.1006C51.9336 13.7354 52.666 12.8389 53.6973 12.8389C54.7754 12.8389 55.4434 13.7002 55.4434 15.1006V15.1064C55.4434 16.4951 54.7754 17.3623 53.6973 17.3623ZM60.043 18.2646C61.7246 18.2646 62.8613 17.0459 62.8613 15.1006V15.0889C62.8613 13.1436 61.7188 11.9365 60.0371 11.9365C58.3555 11.9365 57.2188 13.1494 57.2188 15.0889V15.1006C57.2188 17.04 58.3496 18.2646 60.043 18.2646ZM60.0488 17.3623C58.9707 17.3623 58.2617 16.5361 58.2617 15.1006V15.0889C58.2617 13.665 58.9766 12.8389 60.0371 12.8389C61.1152 12.8389 61.8184 13.6592 61.8184 15.0889V15.1006C61.8184 16.5303 61.1211 17.3623 60.0488 17.3623ZM63.8926 18.1475H64.9121V14.3857C64.9121 13.46 65.4277 12.9092 66.2188 12.9092C66.4648 12.9092 66.6816 12.9385 66.7637 12.9678V11.9775C66.6816 11.9658 66.5293 11.9365 66.3535 11.9365C65.668 11.9365 65.1406 12.3818 64.9355 13.085H64.9121V12.0537H63.8926V18.1475ZM69.5762 18.2646C69.7754 18.2646 69.9922 18.2412 70.1211 18.2236V17.3975C70.0332 17.4033 69.916 17.4209 69.793 17.4209C69.248 17.4209 68.9609 17.2393 68.9609 16.5889V12.8975H70.1211V12.0537H68.9609V10.4072H67.9062V12.0537H67.0156V12.8975H67.9062V16.5947C67.9062 17.7607 68.457 18.2646 69.5762 18.2646ZM73.6777 20.1982H74.6973V17.1279H74.7207C75.1016 17.8311 75.8105 18.2646 76.6719 18.2646C78.2012 18.2646 79.2441 17.0283 79.2441 15.1064V15.1006C79.2441 13.1787 78.2129 11.9365 76.6543 11.9365C75.7812 11.9365 75.1016 12.376 74.7207 13.085H74.6973V12.0537H73.6777V20.1982ZM76.4551 17.3623C75.4297 17.3623 74.6914 16.4658 74.6914 15.1064V15.1006C74.6914 13.7354 75.4238 12.8389 76.4551 12.8389C77.5332 12.8389 78.2012 13.7002 78.2012 15.1006V15.1064C78.2012 16.4951 77.5332 17.3623 76.4551 17.3623ZM82.0566 18.2646C82.8711 18.2646 83.6035 17.8252 83.9609 17.1572H83.9844V18.1475H85.0039V13.9346C85.0039 12.7158 84.1016 11.9365 82.6602 11.9365C81.2246 11.9365 80.3516 12.7451 80.2637 13.7471L80.2578 13.8115H81.2422L81.2539 13.7588C81.3711 13.2139 81.8633 12.8389 82.6484 12.8389C83.498 12.8389 83.9844 13.29 83.9844 14.0342V14.5439L82.2383 14.6436C80.8379 14.7256 80.0293 15.376 80.0293 16.4131V16.4248C80.0293 17.5322 80.8438 18.2646 82.0566 18.2646ZM81.0723 16.4248V16.4131C81.0723 15.8447 81.541 15.4814 82.3555 15.4346L83.9844 15.335V15.833C83.9844 16.7178 83.2461 17.3799 82.2852 17.3799C81.5527 17.3799 81.0723 17.0107 81.0723 16.4248ZM88.4609 18.2646C89.8203 18.2646 90.8281 17.5146 90.8281 16.4482V16.4424C90.8281 15.5752 90.3828 15.0889 89.1523 14.79L88.1855 14.5557C87.5117 14.3916 87.2363 14.1045 87.2363 13.6885V13.6826C87.2363 13.1436 87.6934 12.7861 88.4316 12.7861C89.1875 12.7861 89.6387 13.1787 89.7207 13.7705L89.7266 13.8115H90.6992L90.6934 13.7354C90.6172 12.7158 89.7676 11.9365 88.4316 11.9365C87.1133 11.9365 86.1934 12.6807 86.1934 13.7295V13.7354C86.1934 14.6143 86.75 15.1475 87.8984 15.4229L88.8652 15.6572C89.5566 15.8271 89.7852 16.0732 89.7852 16.5127V16.5186C89.7852 17.0693 89.293 17.415 88.4668 17.415C87.6348 17.415 87.1836 17.0576 87.0605 16.4482L87.0488 16.3896H86.0293L86.0352 16.4424C86.1582 17.5322 87.0254 18.2646 88.4609 18.2646ZM94.0508 18.2646C95.4102 18.2646 96.418 17.5146 96.418 16.4482V16.4424C96.418 15.5752 95.9727 15.0889 94.7422 14.79L93.7754 14.5557C93.1016 14.3916 92.8262 14.1045 92.8262 13.6885V13.6826C92.8262 13.1436 93.2832 12.7861 94.0215 12.7861C94.7773 12.7861 95.2285 13.1787 95.3105 13.7705L95.3164 13.8115H96.2891L96.2832 13.7354C96.207 12.7158 95.3574 11.9365 94.0215 11.9365C92.7031 11.9365 91.7832 12.6807 91.7832 13.7295V13.7354C91.7832 14.6143 92.3398 15.1475 93.4883 15.4229L94.4551 15.6572C95.1465 15.8271 95.375 16.0732 95.375 16.5127V16.5186C95.375 17.0693 94.8828 17.415 94.0566 17.415C93.2246 17.415 92.7734 17.0576 92.6504 16.4482L92.6387 16.3896H91.6191L91.625 16.4424C91.748 17.5322 92.6152 18.2646 94.0508 18.2646ZM98.6855 18.1475H99.7227L101.094 13.4307H101.117L102.494 18.1475H103.531L105.23 12.0537H104.223L103.004 17.0107H102.98L101.598 12.0537H100.613L99.2363 17.0107H99.2129L97.9941 12.0537H96.9805L98.6855 18.1475ZM108.594 18.2646C110.275 18.2646 111.412 17.0459 111.412 15.1006V15.0889C111.412 13.1436 110.27 11.9365 108.588 11.9365C106.906 11.9365 105.77 13.1494 105.77 15.0889V15.1006C105.77 17.04 106.9 18.2646 108.594 18.2646ZM108.6 17.3623C107.521 17.3623 106.812 16.5361 106.812 15.1006V15.0889C106.812 13.665 107.527 12.8389 108.588 12.8389C109.666 12.8389 110.369 13.6592 110.369 15.0889V15.1006C110.369 16.5303 109.672 17.3623 108.6 17.3623ZM112.443 18.1475H113.463V14.3857C113.463 13.46 113.979 12.9092 114.77 12.9092C115.016 12.9092 115.232 12.9385 115.314 12.9678V11.9775C115.232 11.9658 115.08 11.9365 114.904 11.9365C114.219 11.9365 113.691 12.3818 113.486 13.085H113.463V12.0537H112.443V18.1475ZM118.145 18.2646C119.018 18.2646 119.697 17.8252 120.078 17.1162H120.102V18.1475H121.121V9.69238H120.102V13.0732H120.078C119.697 12.3701 118.988 11.9365 118.127 11.9365C116.598 11.9365 115.555 13.1729 115.555 15.0947V15.1006C115.555 17.0225 116.586 18.2646 118.145 18.2646ZM118.344 17.3623C117.266 17.3623 116.598 16.501 116.598 15.1006V15.0947C116.598 13.7061 117.266 12.8389 118.344 12.8389C119.369 12.8389 120.107 13.7354 120.107 15.0947V15.1006C120.107 16.4658 119.375 17.3623 118.344 17.3623ZM124.66 18.2646C126.02 18.2646 127.027 17.5146 127.027 16.4482V16.4424C127.027 15.5752 126.582 15.0889 125.352 14.79L124.385 14.5557C123.711 14.3916 123.436 14.1045 123.436 13.6885V13.6826C123.436 13.1436 123.893 12.7861 124.631 12.7861C125.387 12.7861 125.838 13.1787 125.92 13.7705L125.926 13.8115H126.898L126.893 13.7354C126.816 12.7158 125.967 11.9365 124.631 11.9365C123.312 11.9365 122.393 12.6807 122.393 13.7295V13.7354C122.393 14.6143 122.949 15.1475 124.098 15.4229L125.064 15.6572C125.756 15.8271 125.984 16.0732 125.984 16.5127V16.5186C125.984 17.0693 125.492 17.415 124.666 17.415C123.834 17.415 123.383 17.0576 123.26 16.4482L123.248 16.3896H122.229L122.234 16.4424C122.357 17.5322 123.225 18.2646 124.66 18.2646Z" fill="#1B283C"/>
</g>
<defs>
<filter id="filter0_ddd_1658_141562" x="0.25" y="0.147461" width="135.75" height="30" filterUnits="userSpaceOnUse" color-interpolation-filters="sRGB">
<feFlood flood-opacity="0" result="BackgroundImageFix"/>
<feColorMatrix in="SourceAlpha" type="matrix" values="0 0 0 0 0 0 0 0 0 0 0 0 0 0 0 0 0 0 127 0" result="hardAlpha"/>
<feOffset dy="1"/>
<feGaussianBlur stdDeviation="1"/>
<feColorMatrix type="matrix" values="0 0 0 0 0.113958 0 0 0 0 0.188601 0 0 0 0 0.28457 0 0 0 0.04 0"/>
<feBlend mode="normal" in2="BackgroundImageFix" result="effect1_dropShadow_1658_141562"/>
<feColorMatrix in="SourceAlpha" type="matrix" values="0 0 0 0 0 0 0 0 0 0 0 0 0 0 0 0 0 0 127 0" result="hardAlpha"/>
<feOffset dy="2"/>
<feGaussianBlur stdDeviation="1"/>
<feColorMatrix type="matrix" values="0 0 0 0 0.113958 0 0 0 0 0.188601 0 0 0 0 0.28457 0 0 0 0.04 0"/>
<feBlend mode="normal" in2="effect1_dropShadow_1658_141562" result="effect2_dropShadow_1658_141562"/>
<feColorMatrix in="SourceAlpha" type="matrix" values="0 0 0 0 0 0 0 0 0 0 0 0 0 0 0 0 0 0 127 0" result="hardAlpha"/>
<feOffset/>
<feGaussianBlur stdDeviation="1"/>
<feColorMatrix type="matrix" values="0 0 0 0 0.113958 0 0 0 0 0.188601 0 0 0 0 0.28457 0 0 0 0.16 0"/>
<feBlend mode="normal" in2="effect2_dropShadow_1658_141562" result="effect3_dropShadow_1658_141562"/>
<feBlend mode="normal" in="SourceGraphic" in2="effect3_dropShadow_1658_141562" result="shape"/>
</filter>
<clipPath id="clip0_1658_141562">
<rect width="12" height="12" fill="white" transform="translate(10 8.14746)"/>
</clipPath>
</defs>
</svg>
