<svg width="220" height="38" viewBox="0 0 220 38" fill="none" xmlns="http://www.w3.org/2000/svg">
<rect x="0.5" y="0.5" width="218.262" height="36.1479" rx="3.5" fill="white"/>
<path d="M8.64803 23.6524L13.8718 16.9211C13.3263 15.9202 13.142 14.7619 13.3499 13.6411C13.5579 12.5203 14.1454 11.5053 15.0137 10.7667C15.882 10.0282 16.9781 9.61111 18.1178 9.58567C19.2574 9.56024 20.3711 9.92798 21.2715 10.6271C22.1719 11.3262 22.8041 12.3139 23.0619 13.4244C23.3196 14.5348 23.1872 15.7001 22.6868 16.7243C22.1864 17.7485 21.3487 18.5693 20.3143 19.0485C19.28 19.5276 18.1122 19.6361 17.0074 19.3556L15.5339 21.2539L14.141 21.429L14.3162 22.8219L12.9241 22.9973L13.0995 24.3894L11.7838 26.086L8.99775 26.4372L8.64803 23.6524ZM19.5892 14.1537C19.6895 14.0237 19.7491 13.8669 19.7604 13.7032C19.7718 13.5394 19.7343 13.3759 19.6528 13.2334C19.5714 13.0908 19.4495 12.9756 19.3026 12.9023C19.1558 12.8289 18.9904 12.8007 18.8275 12.8212C18.6647 12.8417 18.5115 12.91 18.3874 13.0174C18.2632 13.1249 18.1737 13.2667 18.1301 13.4249C18.0864 13.5832 18.0906 13.7508 18.1422 13.9067C18.1937 14.0626 18.2902 14.1997 18.4196 14.3008C18.5059 14.3682 18.6048 14.418 18.7104 14.4471C18.816 14.4762 18.9263 14.4842 19.035 14.4705C19.1437 14.4568 19.2486 14.4218 19.3438 14.3674C19.4389 14.313 19.5223 14.2404 19.5892 14.1537Z" fill="white"/>
<path d="M15.8696 11.6676C15.278 12.4297 14.9216 13.3479 14.8441 14.3096C14.7667 15.2713 14.9716 16.2347 15.4336 17.0817L10.2098 23.813L10.5167 26.2473L8.99533 26.4386L8.64481 23.6536L13.8686 16.9223C13.4029 16.0694 13.198 15.0985 13.2794 14.1301C13.3609 13.1618 13.7251 12.2387 14.3268 11.4756C14.9284 10.7125 15.7411 10.143 16.6637 9.83793C17.5863 9.53283 18.5783 9.50555 19.5163 9.75949C18.8071 9.79708 18.1143 9.98696 17.485 10.3162C16.8558 10.6455 16.3048 11.1064 15.8696 11.6676Z" fill="white"/>
<path d="M8.64803 23.6524L13.8718 16.9211C13.3263 15.9202 13.142 14.7619 13.3499 13.6411C13.5579 12.5203 14.1454 11.5053 15.0137 10.7667C15.882 10.0282 16.9781 9.61111 18.1178 9.58567C19.2574 9.56024 20.3711 9.92798 21.2715 10.6271C22.1719 11.3262 22.8041 12.3139 23.0619 13.4244C23.3196 14.5348 23.1872 15.7001 22.6868 16.7243C22.1864 17.7485 21.3487 18.5693 20.3143 19.0485C19.28 19.5276 18.1122 19.6361 17.0074 19.3556L15.5339 21.2539L14.141 21.429L14.3162 22.8219L12.9241 22.9973L13.0995 24.3894L11.7838 26.086L8.99775 26.4372L8.64803 23.6524ZM19.5892 14.1537C19.6895 14.0237 19.7491 13.8669 19.7604 13.7032C19.7718 13.5394 19.7343 13.3759 19.6528 13.2334C19.5714 13.0908 19.4495 12.9756 19.3026 12.9023C19.1558 12.8289 18.9904 12.8007 18.8275 12.8212C18.6647 12.8417 18.5115 12.91 18.3874 13.0174C18.2632 13.1249 18.1737 13.2667 18.1301 13.4249C18.0864 13.5832 18.0906 13.7508 18.1422 13.9067C18.1937 14.0626 18.2902 14.1997 18.4196 14.3008C18.5059 14.3682 18.6048 14.418 18.7104 14.4471C18.816 14.4762 18.9263 14.4842 19.035 14.4705C19.1437 14.4568 19.2486 14.4218 19.3438 14.3674C19.4389 14.313 19.5223 14.2404 19.5892 14.1537V14.1537Z" stroke="#283952" stroke-linecap="round" stroke-linejoin="round"/>
<path d="M41.082 22.5742H42.1367V19.5566H44.0938C45.6816 19.5566 46.8066 18.4375 46.8066 16.832V16.8203C46.8066 15.2148 45.6816 14.1191 44.0938 14.1191H41.082V22.5742ZM43.8242 15.0566C45.0312 15.0566 45.7285 15.7188 45.7285 16.832V16.8438C45.7285 17.957 45.0312 18.6191 43.8242 18.6191H42.1367V15.0566H43.8242ZM49.1152 22.6914C49.9297 22.6914 50.6621 22.252 51.0195 21.584H51.043V22.5742H52.0625V18.3613C52.0625 17.1426 51.1602 16.3633 49.7188 16.3633C48.2832 16.3633 47.4102 17.1719 47.3223 18.1738L47.3164 18.2383H48.3008L48.3125 18.1855C48.4297 17.6406 48.9219 17.2656 49.707 17.2656C50.5566 17.2656 51.043 17.7168 51.043 18.4609V18.9707L49.2969 19.0703C47.8965 19.1523 47.0879 19.8027 47.0879 20.8398V20.8516C47.0879 21.959 47.9023 22.6914 49.1152 22.6914ZM48.1309 20.8516V20.8398C48.1309 20.2715 48.5996 19.9082 49.4141 19.8613L51.043 19.7617V20.2598C51.043 21.1445 50.3047 21.8066 49.3438 21.8066C48.6113 21.8066 48.1309 21.4375 48.1309 20.8516ZM55.5195 22.6914C56.8789 22.6914 57.8867 21.9414 57.8867 20.875V20.8691C57.8867 20.002 57.4414 19.5156 56.2109 19.2168L55.2441 18.9824C54.5703 18.8184 54.2949 18.5312 54.2949 18.1152V18.1094C54.2949 17.5703 54.752 17.2129 55.4902 17.2129C56.2461 17.2129 56.6973 17.6055 56.7793 18.1973L56.7852 18.2383H57.7578L57.752 18.1621C57.6758 17.1426 56.8262 16.3633 55.4902 16.3633C54.1719 16.3633 53.252 17.1074 53.252 18.1562V18.1621C53.252 19.041 53.8086 19.5742 54.957 19.8496L55.9238 20.084C56.6152 20.2539 56.8438 20.5 56.8438 20.9395V20.9453C56.8438 21.4961 56.3516 21.8418 55.5254 21.8418C54.6934 21.8418 54.2422 21.4844 54.1191 20.875L54.1074 20.8164H53.0879L53.0938 20.8691C53.2168 21.959 54.084 22.6914 55.5195 22.6914ZM61.1094 22.6914C62.4688 22.6914 63.4766 21.9414 63.4766 20.875V20.8691C63.4766 20.002 63.0312 19.5156 61.8008 19.2168L60.834 18.9824C60.1602 18.8184 59.8848 18.5312 59.8848 18.1152V18.1094C59.8848 17.5703 60.3418 17.2129 61.0801 17.2129C61.8359 17.2129 62.2871 17.6055 62.3691 18.1973L62.375 18.2383H63.3477L63.3418 18.1621C63.2656 17.1426 62.416 16.3633 61.0801 16.3633C59.7617 16.3633 58.8418 17.1074 58.8418 18.1562V18.1621C58.8418 19.041 59.3984 19.5742 60.5469 19.8496L61.5137 20.084C62.2051 20.2539 62.4336 20.5 62.4336 20.9395V20.9453C62.4336 21.4961 61.9414 21.8418 61.1152 21.8418C60.2832 21.8418 59.832 21.4844 59.709 20.875L59.6973 20.8164H58.6777L58.6836 20.8691C58.8066 21.959 59.6738 22.6914 61.1094 22.6914ZM65.7441 22.5742H66.7812L68.1523 17.8574H68.1758L69.5527 22.5742H70.5898L72.2891 16.4805H71.2812L70.0625 21.4375H70.0391L68.6562 16.4805H67.6719L66.2949 21.4375H66.2715L65.0527 16.4805H64.0391L65.7441 22.5742ZM75.6523 22.6914C77.334 22.6914 78.4707 21.4727 78.4707 19.5273V19.5156C78.4707 17.5703 77.3281 16.3633 75.6465 16.3633C73.9648 16.3633 72.8281 17.5762 72.8281 19.5156V19.5273C72.8281 21.4668 73.959 22.6914 75.6523 22.6914ZM75.6582 21.7891C74.5801 21.7891 73.8711 20.9629 73.8711 19.5273V19.5156C73.8711 18.0918 74.5859 17.2656 75.6465 17.2656C76.7246 17.2656 77.4277 18.0859 77.4277 19.5156V19.5273C77.4277 20.957 76.7305 21.7891 75.6582 21.7891ZM79.502 22.5742H80.5215V18.8125C80.5215 17.8867 81.0371 17.3359 81.8281 17.3359C82.0742 17.3359 82.291 17.3652 82.373 17.3945V16.4043C82.291 16.3926 82.1387 16.3633 81.9629 16.3633C81.2773 16.3633 80.75 16.8086 80.5449 17.5117H80.5215V16.4805H79.502V22.5742ZM85.2031 22.6914C86.0762 22.6914 86.7559 22.252 87.1367 21.543H87.1602V22.5742H88.1797V14.1191H87.1602V17.5H87.1367C86.7559 16.7969 86.0469 16.3633 85.1855 16.3633C83.6562 16.3633 82.6133 17.5996 82.6133 19.5215V19.5273C82.6133 21.4492 83.6445 22.6914 85.2031 22.6914ZM85.4023 21.7891C84.3242 21.7891 83.6562 20.9277 83.6562 19.5273V19.5215C83.6562 18.1328 84.3242 17.2656 85.4023 17.2656C86.4277 17.2656 87.166 18.1621 87.166 19.5215V19.5273C87.166 20.8926 86.4336 21.7891 85.4023 21.7891ZM91.7188 22.6914C93.0781 22.6914 94.0859 21.9414 94.0859 20.875V20.8691C94.0859 20.002 93.6406 19.5156 92.4102 19.2168L91.4434 18.9824C90.7695 18.8184 90.4941 18.5312 90.4941 18.1152V18.1094C90.4941 17.5703 90.9512 17.2129 91.6895 17.2129C92.4453 17.2129 92.8965 17.6055 92.9785 18.1973L92.9844 18.2383H93.957L93.9512 18.1621C93.875 17.1426 93.0254 16.3633 91.6895 16.3633C90.3711 16.3633 89.4512 17.1074 89.4512 18.1562V18.1621C89.4512 19.041 90.0078 19.5742 91.1562 19.8496L92.123 20.084C92.8145 20.2539 93.043 20.5 93.043 20.9395V20.9453C93.043 21.4961 92.5508 21.8418 91.7246 21.8418C90.8926 21.8418 90.4414 21.4844 90.3184 20.875L90.3066 20.8164H89.2871L89.293 20.8691C89.416 21.959 90.2832 22.6914 91.7188 22.6914Z" fill="#1B283C"/>
<g clip-path="url(#clip0_1658_141538)">
<g clip-path="url(#clip1_1658_141538)">
<path d="M209.011 18.5745C209.012 18.738 208.977 18.8997 208.91 19.0488C208.842 19.1979 208.744 19.3309 208.621 19.439L203.045 24.3445C202.861 24.4995 202.623 24.5761 202.382 24.5579C202.142 24.5397 201.918 24.4281 201.758 24.247C201.599 24.0658 201.517 23.8296 201.53 23.5887C201.542 23.3478 201.649 23.1215 201.826 22.958L206.702 18.6685C206.715 18.6568 206.726 18.6423 206.733 18.6261C206.741 18.6099 206.745 18.5923 206.745 18.5745C206.745 18.5567 206.741 18.5391 206.733 18.5229C206.726 18.5067 206.715 18.4922 206.702 18.4805L201.826 14.191C201.732 14.1119 201.654 14.0147 201.598 13.9052C201.542 13.7957 201.508 13.6761 201.499 13.5533C201.489 13.4306 201.505 13.3072 201.544 13.1905C201.583 13.0738 201.645 12.9661 201.726 12.8736C201.807 12.7812 201.906 12.706 202.017 12.6523C202.128 12.5987 202.248 12.5678 202.371 12.5613C202.494 12.5549 202.617 12.5731 202.733 12.6148C202.849 12.6566 202.955 12.7211 203.045 12.8045L208.619 17.7085C208.743 17.8168 208.841 17.95 208.909 18.0993C208.976 18.2486 209.011 18.4106 209.011 18.5745Z" fill="#1B283C"/>
</g>
</g>
<rect x="0.5" y="0.5" width="218.262" height="36.1479" rx="3.5" stroke="#EBEEEF"/>
<defs>
<clipPath id="clip0_1658_141538">
<rect width="12" height="12" fill="white" transform="translate(199.262 12.5742)"/>
</clipPath>
<clipPath id="clip1_1658_141538">
<rect width="12" height="12" fill="white" transform="translate(199.262 24.5742) rotate(-90)"/>
</clipPath>
</defs>
</svg>
