<svg width="60" height="40" viewBox="0 0 60 40" fill="none" xmlns="http://www.w3.org/2000/svg">
<path d="M14.5776 4.0001L13 5.93945L14.9735 7.53444L16.5511 5.59508L14.5776 4.0001Z" stroke="#D7DBE0" stroke-linecap="round" stroke-linejoin="round"/>
<path d="M6.11127 11.8413L9.48329 11.5143L6.11127 11.8413Z" fill="#D7DBE0"/>
<path d="M6.11127 11.8413L9.48329 11.5143" stroke="#D7DBE0" stroke-linecap="round"/>
<path d="M7.55601 10.0656L7.93188 13.4218L7.55601 10.0656Z" fill="#D7DBE0"/>
<path d="M7.55601 10.0656L7.93188 13.4218" stroke="#D7DBE0" stroke-linecap="round"/>
<path d="M53.5236 4.67477L51.6675 3L49.9999 4.84888L51.8561 6.52365L53.5236 4.67477Z" stroke="#D7DBE0" stroke-linecap="round" stroke-linejoin="round"/>
<path fill-rule="evenodd" clip-rule="evenodd" d="M56.25 15.5C56.9404 15.5 57.5 14.9404 57.5 14.25C57.5 13.5596 56.9404 13 56.25 13C55.5596 13 55 13.5596 55 14.25C55 14.9404 55.5596 15.5 56.25 15.5Z" stroke="#D7DBE0"/>
<path d="M31.8084 4H31.3408C31.0413 4.00009 30.7448 4.05915 30.4682 4.17383C30.1915 4.28851 29.9402 4.45655 29.7285 4.66836C29.5168 4.88017 29.3489 5.13161 29.2344 5.40831C29.1199 5.685 29.061 5.98155 29.0611 6.28101V9.03158H34.0894V6.27773C34.0885 5.67334 33.8478 5.094 33.4201 4.66693C32.9924 4.23987 32.4128 4 31.8084 4Z" fill="white"/>
<path d="M31.8084 4H31.3408C31.0413 4.00009 30.7448 4.05915 30.4682 4.17383C30.1915 4.28851 29.9402 4.45655 29.7285 4.66836C29.5168 4.88017 29.3489 5.13161 29.2344 5.40831C29.1199 5.685 29.061 5.98155 29.0611 6.28101V9.03158H34.0894V6.27773C34.0885 5.67334 33.8478 5.094 33.4201 4.66693C32.9924 4.23987 32.4128 4 31.8084 4Z" stroke="#D7DBE0" stroke-width="1.25" stroke-linecap="round" stroke-linejoin="round"/>
<path d="M8.81501 32.0578L49.7461 32.0473L49.7422 18.99C49.7422 17.4647 49.6158 15.9421 49.3643 14.4378L48.9969 12.2373C48.8464 11.3402 48.3828 10.5254 47.6883 9.93785C46.9938 9.3503 46.1134 9.02803 45.2037 9.02832L19.5684 9.03487C18.6934 9.03499 17.8446 9.33356 17.1622 9.88129C16.4798 10.429 16.0046 11.1931 15.8152 12.0474L13.9298 20.544L10.7502 21.3404C10.1968 21.4789 9.70553 21.7983 9.35453 22.2481C9.00353 22.6978 8.81293 23.252 8.81305 23.8225L8.81501 32.0578Z" fill="white" stroke="#D7DBE0" stroke-width="1.25" stroke-linecap="round" stroke-linejoin="round" stroke-dasharray="800 7 3 5"/>
<path d="M24.9065 12.1626C25.0975 12.1626 25.2808 12.2385 25.4159 12.3736C25.551 12.5087 25.6269 12.6919 25.6269 12.883V17.8347C25.6269 18.0257 25.551 18.209 25.4159 18.3441C25.2808 18.4792 25.0975 18.5551 24.9065 18.5551H24.5692L18.1735 12.1639L24.9065 12.1626Z" fill="white"/>
<path d="M15.7879 12.1646H24.9067C25.0978 12.1646 25.281 12.2404 25.4161 12.3755C25.5512 12.5106 25.6271 12.6939 25.6271 12.8849V17.8366C25.6271 18.0277 25.5512 18.2109 25.4161 18.346C25.281 18.4811 25.0978 18.557 24.9067 18.557H14.3668L15.7879 12.1646Z" stroke="#D7DBE0" stroke-width="1.25" stroke-linecap="round" stroke-linejoin="round"/>
<path d="M11.4235 29.715H8.815V26.4556H10.1189C10.4645 26.4556 10.7959 26.5928 11.0404 26.837C11.2849 27.0813 11.4225 27.4126 11.4228 27.7582L11.4235 29.715Z" fill="#D7DBE0" stroke="#D7DBE0" stroke-width="1.25" stroke-linecap="round" stroke-linejoin="round"/>
<path d="M52.218 30.7451C52.2179 30.6084 52.1909 30.4731 52.1385 30.3469C52.0862 30.2206 52.0094 30.106 51.9128 30.0094C51.8161 29.9128 51.7013 29.8363 51.575 29.784C51.4487 29.7318 51.3134 29.705 51.1767 29.7051H45.358H44.0711L8.03995 29.7142C7.90332 29.7142 7.76803 29.7412 7.64181 29.7935C7.51559 29.8458 7.40092 29.9224 7.30434 30.0191C7.20776 30.1157 7.13117 30.2304 7.07895 30.3567C7.02672 30.4829 6.99988 30.6182 6.99997 30.7549V31.2788C7.00032 31.6924 7.16478 32.089 7.45726 32.3815C7.74973 32.6739 8.14631 32.8384 8.55993 32.8388L44.0704 32.8296H45.358H50.6554C50.8605 32.8296 51.0636 32.7892 51.253 32.7107C51.4425 32.6322 51.6147 32.5171 51.7596 32.3721C51.9046 32.227 52.0196 32.0548 52.098 31.8653C52.1765 31.6758 52.2168 31.4727 52.2167 31.2677L52.218 30.7451Z" fill="#D7DBE0"/>
<path d="M41.5922 17.8112C41.5922 17.6893 41.5681 17.5686 41.5215 17.456C41.4748 17.3433 41.4064 17.241 41.3201 17.1548C41.2339 17.0686 41.1315 17.0003 41.0188 16.9537C40.9062 16.9071 40.7854 16.8832 40.6635 16.8833H38.8069V15.0266C38.8069 14.9047 38.7828 14.784 38.7362 14.6713C38.6895 14.5587 38.6211 14.4564 38.5348 14.3702C38.4486 14.284 38.3462 14.2157 38.2336 14.1691C38.1209 14.1225 38.0002 14.0985 37.8782 14.0986H36.3929C36.1468 14.0986 35.9108 14.1964 35.7367 14.3704C35.5627 14.5445 35.4649 14.7805 35.4649 15.0266V16.8872H33.6083C33.3621 16.8874 33.126 16.9853 32.9518 17.1594C32.7777 17.3335 32.6798 17.5696 32.6797 17.8158V19.3011C32.6804 19.5471 32.7786 19.7827 32.9528 19.9563C33.127 20.1299 33.363 20.2273 33.609 20.2272H35.4656V22.0838C35.4658 22.3297 35.5635 22.5655 35.7374 22.7393C35.9113 22.9132 36.147 23.011 36.3929 23.0111H37.8782C38.1244 23.011 38.3604 22.913 38.5345 22.7389C38.7085 22.5648 38.8062 22.3287 38.8062 22.0825V20.2272H40.6629C40.9091 20.2272 41.1454 20.1293 41.3195 19.9552C41.4937 19.781 41.5915 19.5448 41.5915 19.2985L41.5922 17.8112Z" fill="white"/>
<path d="M41.5922 17.8112C41.5922 17.6893 41.5681 17.5686 41.5215 17.456C41.4748 17.3433 41.4064 17.241 41.3201 17.1548C41.2339 17.0686 41.1315 17.0003 41.0188 16.9537C40.9062 16.9071 40.7854 16.8832 40.6635 16.8833H38.8069V15.0266C38.8069 14.9047 38.7828 14.784 38.7362 14.6713C38.6895 14.5587 38.6211 14.4564 38.5348 14.3702C38.4486 14.284 38.3462 14.2157 38.2336 14.1691C38.1209 14.1225 38.0002 14.0985 37.8782 14.0986H36.3929C36.1468 14.0986 35.9108 14.1964 35.7367 14.3704C35.5627 14.5445 35.4649 14.7805 35.4649 15.0266V16.8872H33.6083C33.3621 16.8874 33.126 16.9853 32.9518 17.1594C32.7777 17.3335 32.6798 17.5696 32.6797 17.8158V19.3011C32.6804 19.5471 32.7786 19.7827 32.9528 19.9563C33.127 20.1299 33.363 20.2273 33.609 20.2272H35.4656V22.0838C35.4658 22.3297 35.5635 22.5655 35.7374 22.7393C35.9113 22.9132 36.147 23.011 36.3929 23.0111H37.8782C38.1244 23.011 38.3604 22.913 38.5345 22.7389C38.7085 22.5648 38.8062 22.3287 38.8062 22.0825V20.2272H40.6629C40.9091 20.2272 41.1454 20.1293 41.3195 19.9552C41.4937 19.781 41.5915 19.5448 41.5915 19.2985L41.5922 17.8112Z" stroke="#D7DBE0" stroke-width="1.25" stroke-linecap="round" stroke-linejoin="round"/>
<path d="M21.904 21.7546L24.3022 21.7539" stroke="#D7DBE0" stroke-width="1.25" stroke-linecap="round" stroke-linejoin="round"/>
<path d="M52.218 30.7451C52.2179 30.6084 52.1909 30.4731 52.1385 30.3469C52.0862 30.2206 52.0094 30.106 51.9128 30.0094C51.8161 29.9128 51.7013 29.8363 51.575 29.784C51.4487 29.7318 51.3134 29.705 51.1767 29.7051H44.0711L8.03995 29.7142C7.90332 29.7142 7.76803 29.7412 7.64181 29.7935C7.51559 29.8458 7.40092 29.9224 7.30434 30.0191C7.20776 30.1157 7.13117 30.2304 7.07895 30.3567C7.02672 30.4829 6.99988 30.6182 6.99997 30.7549V31.2788C7.00032 31.6924 7.16478 32.089 7.45726 32.3815C7.74973 32.6739 8.14631 32.8384 8.55993 32.8388L44.0704 32.8296H50.6554C50.8605 32.8296 51.0636 32.7892 51.253 32.7107C51.4425 32.6322 51.6147 32.5171 51.7596 32.3721C51.9046 32.227 52.0196 32.0548 52.098 31.8653C52.1765 31.6758 52.2168 31.4727 52.2167 31.2677L52.218 30.7451Z" fill="white" stroke="#D7DBE0" stroke-width="1.25" stroke-linecap="round" stroke-linejoin="round"/>
<path d="M23.4684 32.8337H12.0732C12.0575 32.6621 12.047 32.4892 12.047 32.3137C12.0389 31.5567 12.181 30.8057 12.4651 30.104C12.7491 29.4024 13.1695 28.764 13.7019 28.2259C14.2343 27.6878 14.8681 27.2606 15.5667 26.969C16.2653 26.6775 17.0148 26.5273 17.7718 26.5273C18.5288 26.5273 19.2782 26.6775 19.9768 26.969C20.6754 27.2606 21.3092 27.6878 21.8416 28.2259C22.374 28.764 22.7944 29.4024 23.0785 30.104C23.3626 30.8057 23.5047 31.5567 23.4966 32.3137C23.4946 32.4885 23.4835 32.6621 23.4684 32.8337Z" fill="white"/>
<path d="M23.4684 32.8337H12.0732C12.0575 32.6621 12.047 32.4892 12.047 32.3137C12.0389 31.5567 12.181 30.8057 12.4651 30.104C12.7491 29.4024 13.1695 28.764 13.7019 28.2259C14.2343 27.6878 14.8681 27.2606 15.5667 26.969C16.2653 26.6775 17.0148 26.5273 17.7718 26.5273C18.5288 26.5273 19.2782 26.6775 19.9768 26.969C20.6754 27.2606 21.3092 27.6878 21.8416 28.2259C22.374 28.764 22.7944 29.4024 23.0785 30.104C23.3626 30.8057 23.5047 31.5567 23.4966 32.3137C23.4946 32.4885 23.4835 32.6621 23.4684 32.8337Z" stroke="#D7DBE0" stroke-width="1.25" stroke-linecap="round" stroke-linejoin="round"/>
<path d="M17.7698 36.0003C19.7819 36.0003 21.413 34.3691 21.413 32.3571C21.413 30.345 19.7819 28.7139 17.7698 28.7139C15.7577 28.7139 14.1266 30.345 14.1266 32.3571C14.1266 34.3691 15.7577 36.0003 17.7698 36.0003Z" fill="#D7DBE0"/>
<path d="M17.7698 36.0003C19.7819 36.0003 21.413 34.3691 21.413 32.3571C21.413 30.345 19.7819 28.7139 17.7698 28.7139C15.7577 28.7139 14.1266 30.345 14.1266 32.3571C14.1266 34.3691 15.7577 36.0003 17.7698 36.0003Z" stroke="#D7DBE0" stroke-width="1.25" stroke-linecap="round" stroke-linejoin="round"/>
<path d="M17.7696 33.918C18.6319 33.918 19.3309 33.219 19.3309 32.3567C19.3309 31.4944 18.6319 30.7954 17.7696 30.7954C16.9074 30.7954 16.2084 31.4944 16.2084 32.3567C16.2084 33.219 16.9074 33.918 17.7696 33.918Z" fill="white"/>
<path d="M17.7696 33.918C18.6319 33.918 19.3309 33.219 19.3309 32.3567C19.3309 31.4944 18.6319 30.7954 17.7696 30.7954C16.9074 30.7954 16.2084 31.4944 16.2084 32.3567C16.2084 33.219 16.9074 33.918 17.7696 33.918Z" stroke="#D7DBE0" stroke-width="1.25" stroke-linecap="round" stroke-linejoin="round"/>
<path d="M45.902 32.8279H34.5068C34.4918 32.6563 34.4806 32.4834 34.4806 32.3079C34.4967 30.8002 35.107 29.3597 36.1788 28.2993C37.2507 27.2388 38.6976 26.644 40.2054 26.644C41.7132 26.644 43.1601 27.2388 44.232 28.2993C45.3038 29.3597 45.9141 30.8002 45.9302 32.3079C45.9282 32.4828 45.9177 32.6563 45.902 32.8279Z" fill="white"/>
<path d="M45.902 32.8279H34.5068C34.4918 32.6563 34.4806 32.4834 34.4806 32.3079C34.4967 30.8002 35.107 29.3597 36.1788 28.2993C37.2507 27.2388 38.6976 26.644 40.2054 26.644C41.7132 26.644 43.1601 27.2388 44.232 28.2993C45.3038 29.3597 45.9141 30.8002 45.9302 32.3079C45.9282 32.4828 45.9177 32.6563 45.902 32.8279Z" stroke="#D7DBE0" stroke-width="1.25" stroke-linecap="round" stroke-linejoin="round"/>
<path d="M40.2029 35.9944C42.2149 35.9944 43.846 34.3633 43.846 32.3512C43.846 30.3391 42.2149 28.708 40.2029 28.708C38.1908 28.708 36.5597 30.3391 36.5597 32.3512C36.5597 34.3633 38.1908 35.9944 40.2029 35.9944Z" fill="#D7DBE0"/>
<path d="M40.2029 35.9944C42.2149 35.9944 43.846 34.3633 43.846 32.3512C43.846 30.3391 42.2149 28.708 40.2029 28.708C38.1908 28.708 36.5597 30.3391 36.5597 32.3512C36.5597 34.3633 38.1908 35.9944 40.2029 35.9944Z" stroke="#D7DBE0" stroke-width="1.25" stroke-linecap="round" stroke-linejoin="round"/>
<path d="M40.2025 33.9126C41.0648 33.9126 41.7638 33.2136 41.7638 32.3513C41.7638 31.489 41.0648 30.79 40.2025 30.79C39.3403 30.79 38.6413 31.489 38.6413 32.3513C38.6413 33.2136 39.3403 33.9126 40.2025 33.9126Z" fill="white" stroke="#D7DBE0" stroke-width="1.25" stroke-linecap="round" stroke-linejoin="round"/>
<path d="M42.7455 13.6698C42.7455 13.9786 42.8682 14.2748 43.0866 14.4931C43.305 14.7115 43.6011 14.8342 43.91 14.8342H45.077C45.3858 14.8342 45.682 14.7115 45.9003 14.4931C46.1187 14.2748 46.2414 13.9786 46.2414 13.6698C46.2414 13.361 46.1187 13.0648 45.9003 12.8464C45.682 12.628 45.3858 12.5054 45.077 12.5054H43.9113C43.7582 12.5052 43.6067 12.5352 43.4653 12.5936C43.3238 12.6521 43.1953 12.7378 43.0871 12.846C42.9788 12.9541 42.8929 13.0825 42.8343 13.2239C42.7757 13.3652 42.7455 13.5168 42.7455 13.6698Z" fill="white" stroke="#D7DBE0" stroke-width="1.25" stroke-linecap="round" stroke-linejoin="round"/>
<defs>
<clipPath id="clip0">
<rect width="60" height="40" fill="white"/>
</clipPath>
</defs>
</svg>
