<svg width="238" height="38" viewBox="0 0 238 38" fill="none" xmlns="http://www.w3.org/2000/svg">
    <rect width="238" height="38" fill="#3C4B53"/>
    <path d="M67.9688 25H61.5078V13.5781H67.9688V15.1562H63.375V18.2656H67.6797V19.8281H63.375V23.4141H67.9688V25ZM77.5312 25H75.6875V19.6719C75.6875 19.0104 75.5625 18.5182 75.3125 18.1953C75.0625 17.8672 74.6719 17.7031 74.1406 17.7031C73.4323 17.7031 72.9115 17.9349 72.5781 18.3984C72.25 18.8568 72.0859 19.6224 72.0859 20.6953V25H70.25V16.3594H71.6875L71.9453 17.4922H72.0391C72.2786 17.0807 72.625 16.763 73.0781 16.5391C73.5365 16.3151 74.0391 16.2031 74.5859 16.2031C75.9141 16.2031 76.7943 16.6562 77.2266 17.5625H77.3516C77.6068 17.1354 77.9661 16.8021 78.4297 16.5625C78.8932 16.3229 79.4245 16.2031 80.0234 16.2031C81.0547 16.2031 81.8047 16.4635 82.2734 16.9844C82.7474 17.5052 82.9844 18.2995 82.9844 19.3672V25H81.1484V19.6719C81.1484 19.0104 81.0208 18.5182 80.7656 18.1953C80.5156 17.8672 80.125 17.7031 79.5938 17.7031C78.8802 17.7031 78.3568 17.9271 78.0234 18.375C77.6953 18.8177 77.5312 19.5 77.5312 20.4219V25ZM89.3203 25.1562C87.9766 25.1562 86.9245 24.7656 86.1641 23.9844C85.4089 23.1979 85.0312 22.1172 85.0312 20.7422C85.0312 19.3307 85.3828 18.2214 86.0859 17.4141C86.7891 16.6068 87.7552 16.2031 88.9844 16.2031C90.125 16.2031 91.026 16.5495 91.6875 17.2422C92.349 17.9349 92.6797 18.888 92.6797 20.1016V21.0938H86.9219C86.9479 21.9323 87.1745 22.5781 87.6016 23.0312C88.0286 23.4792 88.6302 23.7031 89.4062 23.7031C89.9167 23.7031 90.3906 23.6562 90.8281 23.5625C91.2708 23.4635 91.7448 23.3021 92.25 23.0781V24.5703C91.8021 24.7839 91.349 24.9349 90.8906 25.0234C90.4323 25.112 89.9089 25.1562 89.3203 25.1562ZM88.9844 17.5938C88.401 17.5938 87.9323 17.7786 87.5781 18.1484C87.2292 18.5182 87.0208 19.0573 86.9531 19.7656H90.875C90.8646 19.0521 90.6927 18.513 90.3594 18.1484C90.026 17.7786 89.5677 17.5938 88.9844 17.5938ZM99.1484 16.2031C99.5182 16.2031 99.8229 16.2292 100.062 16.2812L99.8828 17.9922C99.6224 17.9297 99.3516 17.8984 99.0703 17.8984C98.3359 17.8984 97.7396 18.138 97.2812 18.6172C96.8281 19.0964 96.6016 19.7188 96.6016 20.4844V25H94.7656V16.3594H96.2031L96.4453 17.8828H96.5391C96.8255 17.3672 97.1979 16.9583 97.6562 16.6562C98.1198 16.3542 98.6172 16.2031 99.1484 16.2031ZM108.969 16.3594V17.3672L107.492 17.6406C107.628 17.8229 107.74 18.0469 107.828 18.3125C107.917 18.5781 107.961 18.8594 107.961 19.1562C107.961 20.0469 107.654 20.7474 107.039 21.2578C106.424 21.7682 105.578 22.0234 104.5 22.0234C104.224 22.0234 103.974 22.0026 103.75 21.9609C103.354 22.2057 103.156 22.4922 103.156 22.8203C103.156 23.0182 103.247 23.1667 103.43 23.2656C103.617 23.3646 103.958 23.4141 104.453 23.4141H105.961C106.914 23.4141 107.638 23.6172 108.133 24.0234C108.628 24.4297 108.875 25.0156 108.875 25.7812C108.875 26.7604 108.471 27.5156 107.664 28.0469C106.857 28.5781 105.69 28.8438 104.164 28.8438C102.987 28.8438 102.089 28.6354 101.469 28.2188C100.849 27.8021 100.539 27.2083 100.539 26.4375C100.539 25.9062 100.706 25.4583 101.039 25.0938C101.378 24.7344 101.849 24.4844 102.453 24.3438C102.208 24.2396 102.005 24.0729 101.844 23.8438C101.688 23.6094 101.609 23.3646 101.609 23.1094C101.609 22.7865 101.701 22.513 101.883 22.2891C102.065 22.0651 102.336 21.8438 102.695 21.625C102.247 21.4323 101.883 21.1198 101.602 20.6875C101.326 20.25 101.188 19.7396 101.188 19.1562C101.188 18.2188 101.482 17.4922 102.07 16.9766C102.664 16.4609 103.508 16.2031 104.602 16.2031C104.846 16.2031 105.102 16.2214 105.367 16.2578C105.638 16.2891 105.841 16.3229 105.977 16.3594H108.969ZM102.18 26.3438C102.18 26.7396 102.357 27.0443 102.711 27.2578C103.07 27.4714 103.573 27.5781 104.219 27.5781C105.219 27.5781 105.964 27.4349 106.453 27.1484C106.943 26.862 107.188 26.4818 107.188 26.0078C107.188 25.6328 107.052 25.3646 106.781 25.2031C106.516 25.0469 106.018 24.9688 105.289 24.9688H103.898C103.372 24.9688 102.953 25.0911 102.641 25.3359C102.333 25.5859 102.18 25.9219 102.18 26.3438ZM102.969 19.1562C102.969 19.6979 103.107 20.1146 103.383 20.4062C103.664 20.6979 104.065 20.8438 104.586 20.8438C105.648 20.8438 106.18 20.276 106.18 19.1406C106.18 18.5781 106.047 18.1458 105.781 17.8438C105.521 17.5365 105.122 17.3828 104.586 17.3828C104.055 17.3828 103.651 17.5339 103.375 17.8359C103.104 18.138 102.969 18.5781 102.969 19.1562ZM114.352 25.1562C113.008 25.1562 111.956 24.7656 111.195 23.9844C110.44 23.1979 110.062 22.1172 110.062 20.7422C110.062 19.3307 110.414 18.2214 111.117 17.4141C111.82 16.6068 112.786 16.2031 114.016 16.2031C115.156 16.2031 116.057 16.5495 116.719 17.2422C117.38 17.9349 117.711 18.888 117.711 20.1016V21.0938H111.953C111.979 21.9323 112.206 22.5781 112.633 23.0312C113.06 23.4792 113.661 23.7031 114.438 23.7031C114.948 23.7031 115.422 23.6562 115.859 23.5625C116.302 23.4635 116.776 23.3021 117.281 23.0781V24.5703C116.833 24.7839 116.38 24.9349 115.922 25.0234C115.464 25.112 114.94 25.1562 114.352 25.1562ZM114.016 17.5938C113.432 17.5938 112.964 17.7786 112.609 18.1484C112.26 18.5182 112.052 19.0573 111.984 19.7656H115.906C115.896 19.0521 115.724 18.513 115.391 18.1484C115.057 17.7786 114.599 17.5938 114.016 17.5938ZM127.398 25H125.555V19.6875C125.555 19.0208 125.419 18.5234 125.148 18.1953C124.883 17.8672 124.458 17.7031 123.875 17.7031C123.099 17.7031 122.531 17.9323 122.172 18.3906C121.812 18.849 121.633 19.6172 121.633 20.6953V25H119.797V16.3594H121.234L121.492 17.4922H121.586C121.846 17.0807 122.216 16.763 122.695 16.5391C123.174 16.3151 123.706 16.2031 124.289 16.2031C126.362 16.2031 127.398 17.2578 127.398 19.3672V25ZM133.438 25.1562C132.13 25.1562 131.135 24.776 130.453 24.0156C129.776 23.25 129.438 22.1536 129.438 20.7266C129.438 19.2734 129.792 18.1562 130.5 17.375C131.214 16.5938 132.242 16.2031 133.586 16.2031C134.497 16.2031 135.318 16.3724 136.047 16.7109L135.492 18.1875C134.716 17.8854 134.076 17.7344 133.57 17.7344C132.076 17.7344 131.328 18.7266 131.328 20.7109C131.328 21.6797 131.513 22.4089 131.883 22.8984C132.258 23.3828 132.805 23.625 133.523 23.625C134.341 23.625 135.115 23.4219 135.844 23.0156V24.6172C135.516 24.8099 135.164 24.9479 134.789 25.0312C134.419 25.1146 133.969 25.1562 133.438 25.1562ZM136.562 16.3594H138.562L140.32 21.2578C140.586 21.9557 140.763 22.612 140.852 23.2266H140.914C140.961 22.9401 141.047 22.5938 141.172 22.1875C141.297 21.776 141.958 19.8333 143.156 16.3594H145.141L141.445 26.1484C140.773 27.9453 139.654 28.8438 138.086 28.8438C137.68 28.8438 137.284 28.7995 136.898 28.7109V27.2578C137.174 27.3203 137.49 27.3516 137.844 27.3516C138.729 27.3516 139.352 26.8385 139.711 25.8125L140.031 25L136.562 16.3594ZM157.891 25L156.75 21.8281H152.383L151.266 25H149.297L153.57 13.5312H155.602L159.875 25H157.891ZM156.258 20.2188L155.188 17.1094C155.109 16.901 155 16.5729 154.859 16.125C154.724 15.6771 154.63 15.349 154.578 15.1406C154.438 15.7812 154.232 16.4818 153.961 17.2422L152.93 20.2188H156.258ZM164.672 25.1562C163.365 25.1562 162.37 24.776 161.688 24.0156C161.01 23.25 160.672 22.1536 160.672 20.7266C160.672 19.2734 161.026 18.1562 161.734 17.375C162.448 16.5938 163.477 16.2031 164.82 16.2031C165.732 16.2031 166.552 16.3724 167.281 16.7109L166.727 18.1875C165.951 17.8854 165.31 17.7344 164.805 17.7344C163.31 17.7344 162.562 18.7266 162.562 20.7109C162.562 21.6797 162.747 22.4089 163.117 22.8984C163.492 23.3828 164.039 23.625 164.758 23.625C165.576 23.625 166.349 23.4219 167.078 23.0156V24.6172C166.75 24.8099 166.398 24.9479 166.023 25.0312C165.654 25.1146 165.203 25.1562 164.672 25.1562ZM172.594 25.1562C171.286 25.1562 170.292 24.776 169.609 24.0156C168.932 23.25 168.594 22.1536 168.594 20.7266C168.594 19.2734 168.948 18.1562 169.656 17.375C170.37 16.5938 171.398 16.2031 172.742 16.2031C173.654 16.2031 174.474 16.3724 175.203 16.7109L174.648 18.1875C173.872 17.8854 173.232 17.7344 172.727 17.7344C171.232 17.7344 170.484 18.7266 170.484 20.7109C170.484 21.6797 170.669 22.4089 171.039 22.8984C171.414 23.3828 171.961 23.625 172.68 23.625C173.497 23.625 174.271 23.4219 175 23.0156V24.6172C174.672 24.8099 174.32 24.9479 173.945 25.0312C173.576 25.1146 173.125 25.1562 172.594 25.1562ZM180.805 25.1562C179.461 25.1562 178.409 24.7656 177.648 23.9844C176.893 23.1979 176.516 22.1172 176.516 20.7422C176.516 19.3307 176.867 18.2214 177.57 17.4141C178.273 16.6068 179.24 16.2031 180.469 16.2031C181.609 16.2031 182.51 16.5495 183.172 17.2422C183.833 17.9349 184.164 18.888 184.164 20.1016V21.0938H178.406C178.432 21.9323 178.659 22.5781 179.086 23.0312C179.513 23.4792 180.115 23.7031 180.891 23.7031C181.401 23.7031 181.875 23.6562 182.312 23.5625C182.755 23.4635 183.229 23.3021 183.734 23.0781V24.5703C183.286 24.7839 182.833 24.9349 182.375 25.0234C181.917 25.112 181.393 25.1562 180.805 25.1562ZM180.469 17.5938C179.885 17.5938 179.417 17.7786 179.062 18.1484C178.714 18.5182 178.505 19.0573 178.438 19.7656H182.359C182.349 19.0521 182.177 18.513 181.844 18.1484C181.51 17.7786 181.052 17.5938 180.469 17.5938ZM192.055 22.5391C192.055 23.3828 191.747 24.0312 191.133 24.4844C190.518 24.9323 189.638 25.1562 188.492 25.1562C187.341 25.1562 186.417 24.9818 185.719 24.6328V23.0469C186.734 23.5156 187.68 23.75 188.555 23.75C189.685 23.75 190.25 23.4089 190.25 22.7266C190.25 22.5078 190.188 22.3255 190.062 22.1797C189.938 22.0339 189.732 21.8828 189.445 21.7266C189.159 21.5703 188.76 21.3932 188.25 21.1953C187.255 20.8099 186.581 20.4245 186.227 20.0391C185.878 19.6536 185.703 19.1536 185.703 18.5391C185.703 17.7995 186 17.2266 186.594 16.8203C187.193 16.4089 188.005 16.2031 189.031 16.2031C190.047 16.2031 191.008 16.4089 191.914 16.8203L191.32 18.2031C190.388 17.8177 189.604 17.625 188.969 17.625C188 17.625 187.516 17.901 187.516 18.4531C187.516 18.724 187.641 18.9531 187.891 19.1406C188.146 19.3281 188.698 19.5859 189.547 19.9141C190.26 20.1901 190.779 20.4427 191.102 20.6719C191.424 20.901 191.664 21.1667 191.82 21.4688C191.977 21.7656 192.055 22.1224 192.055 22.5391ZM199.852 22.5391C199.852 23.3828 199.544 24.0312 198.93 24.4844C198.315 24.9323 197.435 25.1562 196.289 25.1562C195.138 25.1562 194.214 24.9818 193.516 24.6328V23.0469C194.531 23.5156 195.477 23.75 196.352 23.75C197.482 23.75 198.047 23.4089 198.047 22.7266C198.047 22.5078 197.984 22.3255 197.859 22.1797C197.734 22.0339 197.529 21.8828 197.242 21.7266C196.956 21.5703 196.557 21.3932 196.047 21.1953C195.052 20.8099 194.378 20.4245 194.023 20.0391C193.674 19.6536 193.5 19.1536 193.5 18.5391C193.5 17.7995 193.797 17.2266 194.391 16.8203C194.99 16.4089 195.802 16.2031 196.828 16.2031C197.844 16.2031 198.805 16.4089 199.711 16.8203L199.117 18.2031C198.185 17.8177 197.401 17.625 196.766 17.625C195.797 17.625 195.312 17.901 195.312 18.4531C195.312 18.724 195.438 18.9531 195.688 19.1406C195.943 19.3281 196.495 19.5859 197.344 19.9141C198.057 20.1901 198.576 20.4427 198.898 20.6719C199.221 20.901 199.461 21.1667 199.617 21.4688C199.773 21.7656 199.852 22.1224 199.852 22.5391Z" fill="#88959E"/>
    <path fill-rule="evenodd" clip-rule="evenodd" d="M29 7C22.3725 7 17 12.3651 17 18.9835C17 25.602 22.3725 30.9671 29 30.9671C35.6275 30.9671 41 25.602 41 18.9835C41 12.3651 35.6275 7 29 7ZM34.9174 9.68359C36.2813 10.5525 37.4426 11.7109 38.3114 13.0729L35.8538 15.5293C35.1126 14.0702 33.92 12.8792 32.4589 12.1391L34.9174 9.68359ZM23.0813 9.68359L25.5402 12.1391C24.0787 12.8782 22.8864 14.0702 22.1462 15.5284L19.6874 13.0729C20.5574 11.7109 21.7174 10.5525 23.0813 9.68359ZM23.0813 28.2834C21.7174 27.4145 20.5562 26.2561 19.6874 24.8941L22.1462 22.4386C22.8874 23.898 24.08 25.0887 25.5402 25.8279L23.0813 28.2834ZM29 25.6943C25.2886 25.6943 22.28 22.6898 22.28 18.9835C22.28 15.2772 25.2886 12.2727 29 12.2727C32.7114 12.2727 35.72 15.2772 35.72 18.9835C35.72 22.6898 32.7114 25.6943 29 25.6943ZM34.9174 28.2834L32.4589 25.8279C33.92 25.0878 35.1126 23.8968 35.8525 22.4386L38.3114 24.8941C37.4426 26.2561 36.2813 27.4145 34.9174 28.2834Z" fill="#88959E"/>
</svg>
