<svg width="100" height="100" viewBox="0 0 100 100" fill="none" xmlns="http://www.w3.org/2000/svg">
    <path fill-rule="evenodd" clip-rule="evenodd" d="M50 100C77.6142 100 100 77.6142 100 50C100 22.3858 77.6142 0 50 0C22.3858 0 0 22.3858 0 50C0 77.6142 22.3858 100 50 100Z" fill="#F7D8D7"/>
    <path d="M26.3748 73.3324C25.7208 73.3322 25.078 73.1628 24.5089 72.8404C23.9399 72.5181 23.464 72.054 23.1275 71.4931C22.7911 70.9323 22.6056 70.2939 22.5891 69.6401C22.5726 68.9863 22.7257 68.3394 23.0334 67.7623L47.0286 22.7857C47.3517 22.1799 47.8333 21.6733 48.422 21.3201C49.0107 20.9669 49.6843 20.7803 50.3709 20.7803C51.0574 20.7803 51.731 20.9669 52.3197 21.3201C52.9084 21.6733 53.39 22.1799 53.7131 22.7857L77.6971 67.7607C78.0054 68.3382 78.1588 68.9857 78.1423 69.6402C78.1257 70.2946 77.9399 70.9336 77.6028 71.4948C77.2658 72.056 76.789 72.5202 76.2191 72.8423C75.6492 73.1644 75.0055 73.3332 74.3508 73.3324H26.3748Z" fill="white"/>
    <path d="M57.0449 29.0366C56.4196 28.5923 55.6715 28.3538 54.9045 28.3542C54.2165 28.3555 53.5416 28.543 52.9514 28.8966C52.3612 29.2502 51.8776 29.7568 51.5518 30.3629L28.6565 73.3324H26.3748C25.7208 73.3322 25.078 73.1628 24.5089 72.8404C23.9399 72.5181 23.464 72.054 23.1275 71.4931C22.7911 70.9323 22.6056 70.2939 22.5891 69.6401C22.5726 68.9863 22.7257 68.3394 23.0334 67.7623L47.0287 22.7857C47.3517 22.1799 47.8333 21.6733 48.422 21.3201C49.0107 20.9669 49.6843 20.7803 50.3709 20.7803C51.0574 20.7803 51.731 20.9669 52.3197 21.3201C52.9084 21.6733 53.39 22.1799 53.7131 22.7857L57.0481 29.0382" fill="white"/>
    <path d="M26.3748 73.3324C25.7208 73.3322 25.078 73.1627 24.5089 72.8404C23.9399 72.5181 23.464 72.0539 23.1275 71.4931C22.7911 70.9323 22.6056 70.2939 22.5891 69.6401C22.5726 68.9863 22.7257 68.3394 23.0334 67.7623L47.0286 22.7857C47.3517 22.1799 47.8333 21.6733 48.422 21.3201C49.0107 20.9669 49.6843 20.7803 50.3709 20.7803C51.0574 20.7803 51.731 20.9669 52.3197 21.3201C52.9084 21.6733 53.39 22.1799 53.7131 22.7857L77.6971 67.7607C78.0054 68.3382 78.1588 68.9857 78.1422 69.6402C78.1257 70.2946 77.9399 70.9336 77.6028 71.4948C77.2658 72.056 76.789 72.5202 76.2191 72.8423C75.6492 73.1644 75.0055 73.3332 74.3508 73.3324H26.3748Z" stroke="#264887" stroke-width="2" stroke-linecap="round" stroke-linejoin="round" stroke-dasharray="182 7 1 4"/>
    <path d="M51.2585 55.4675C51.2081 55.6671 51.0926 55.8443 50.9301 55.9708C50.7677 56.0974 50.5677 56.1661 50.3618 56.1661C50.1558 56.1661 49.9558 56.0974 49.7934 55.9708C49.6309 55.8443 49.5154 55.6671 49.465 55.4675C45.841 41.185 45.9935 41.8289 45.9791 41.686C45.9205 41.0752 45.9903 40.4589 46.184 39.8767C46.3776 39.2944 46.6908 38.7591 47.1034 38.305C47.5161 37.8509 48.0191 37.4881 48.5802 37.2398C49.1414 36.9915 49.7482 36.8633 50.3618 36.8633C50.9753 36.8633 51.5821 36.9915 52.1433 37.2398C52.7044 37.4881 53.2074 37.8509 53.6201 38.305C54.0327 38.7591 54.3459 39.2944 54.5395 39.8767C54.7332 40.4589 54.803 41.0752 54.7444 41.686C54.7348 41.8289 54.8841 41.1818 51.2585 55.4675Z" fill="#D32D27" stroke="#D32D27" stroke-width="2" stroke-linecap="round" stroke-linejoin="round"/>
    <path d="M50.3622 67.5053C49.6581 67.5056 48.9698 67.2972 48.3842 66.9063C47.7986 66.5154 47.3421 65.9596 47.0724 65.3093C46.8026 64.6589 46.7318 63.9432 46.8689 63.2526C47.0059 62.562 47.3447 61.9276 47.8423 61.4295C48.3399 60.9314 48.974 60.5921 49.6645 60.4545C50.355 60.3168 51.0708 60.387 51.7214 60.6561C52.3719 60.9252 52.9281 61.3813 53.3195 61.9665C53.7109 62.5517 53.92 63.2399 53.9204 63.9439C53.9199 64.8878 53.545 65.7929 52.8779 66.4606C52.2108 67.1283 51.306 67.504 50.3622 67.5053Z" fill="#D32D27" stroke="#D32D27" stroke-width="2" stroke-linecap="round" stroke-linejoin="round"/>
    <path d="M20.5557 81.9443H79.4446" stroke="#E78C89" stroke-width="2" stroke-linecap="round" stroke-dasharray="1 6 164 5"/>
    <rect x="80.9138" y="28.2661" width="3.53065" height="3.53064" stroke="#E78C89" stroke-width="2" stroke-linecap="round" stroke-linejoin="round"/>
    <path fill-rule="evenodd" clip-rule="evenodd" d="M12.8764 16.911C13.8514 16.911 14.6417 16.1206 14.6417 15.1457C14.6417 14.1707 13.8514 13.3804 12.8764 13.3804C11.9014 13.3804 11.1111 14.1707 11.1111 15.1457C11.1111 16.1206 11.9014 16.911 12.8764 16.911Z" stroke="#E78C89" stroke-width="2"/>
    <rect width="3.53064" height="3.53064" transform="matrix(0.707106 -0.707107 0.707106 0.707107 20.9971 22.938)" stroke="#E78C89" stroke-width="2" stroke-linecap="round" stroke-linejoin="round"/>
    <path d="M31.0299 10.7028L34.3845 14.0574" stroke="#E78C89" stroke-width="2" stroke-linecap="round"/>
    <path d="M34.2655 10.7028L30.9109 14.0574" stroke="#E78C89" stroke-width="2" stroke-linecap="round"/>
</svg>
