<svg width="40" height="39" viewBox="0 0 40 39" fill="none" xmlns="http://www.w3.org/2000/svg">
<g clip-path="url(#clip0)">
<mask id="path-1-inside-1" fill="white">
<path fill-rule="evenodd" clip-rule="evenodd" d="M39.5976 33.35L23.1232 1.88886C22.8246 1.3191 22.3759 0.841906 21.8255 0.508957C21.2751 0.176007 20.6441 0 20.0009 0C19.3576 0 18.7267 0.176007 18.1763 0.508957C17.6259 0.841906 17.1771 1.3191 16.8786 1.88886L0.402438 33.35C0.120999 33.8873 -0.0170371 34.4881 0.00167884 35.0944C0.0203947 35.7007 0.195229 36.2918 0.509275 36.8108C0.823321 37.3297 1.26595 37.7588 1.79436 38.0566C2.32278 38.3544 2.91909 38.5108 3.52564 38.5107H36.4744C37.0809 38.5108 37.6772 38.3544 38.2056 38.0566C38.7341 37.7588 39.1767 37.3297 39.4907 36.8108C39.8048 36.2918 39.9796 35.7007 39.9983 35.0944C40.017 34.4881 39.879 33.8873 39.5976 33.35Z"/>
</mask>
<g filter="url(#filter0_i)">
<path fill-rule="evenodd" clip-rule="evenodd" d="M39.5976 33.35L23.1232 1.88886C22.8246 1.3191 22.3759 0.841906 21.8255 0.508957C21.2751 0.176007 20.6441 0 20.0009 0C19.3576 0 18.7267 0.176007 18.1763 0.508957C17.6259 0.841906 17.1771 1.3191 16.8786 1.88886L0.402438 33.35C0.120999 33.8873 -0.0170371 34.4881 0.00167884 35.0944C0.0203947 35.7007 0.195229 36.2918 0.509275 36.8108C0.823321 37.3297 1.26595 37.7588 1.79436 38.0566C2.32278 38.3544 2.91909 38.5108 3.52564 38.5107H36.4744C37.0809 38.5108 37.6772 38.3544 38.2056 38.0566C38.7341 37.7588 39.1767 37.3297 39.4907 36.8108C39.8048 36.2918 39.9796 35.7007 39.9983 35.0944C40.017 34.4881 39.879 33.8873 39.5976 33.35Z" fill="white"/>
</g>
<path d="M23.1232 1.88886L24.895 0.961078L24.8947 0.960533L23.1232 1.88886ZM39.5976 33.35L37.8258 34.2778L37.8259 34.278L39.5976 33.35ZM21.8255 0.508957L22.8607 -1.20228L22.8607 -1.20228L21.8255 0.508957ZM18.1763 0.508957L19.2115 2.22019L19.2115 2.22019L18.1763 0.508957ZM16.8786 1.88886L15.1071 0.960533L15.1068 0.961L16.8786 1.88886ZM0.402438 33.35L2.17411 34.278L2.17418 34.2779L0.402438 33.35ZM0.00167884 35.0944L-1.99737 35.1561L0.00167884 35.0944ZM0.509275 36.8108L2.22033 35.7752L0.509275 36.8108ZM1.79436 38.0566L0.812423 39.7989H0.812423L1.79436 38.0566ZM3.52564 38.5107V36.5107H3.52531L3.52564 38.5107ZM36.4744 38.5107L36.4747 36.5107H36.4744V38.5107ZM39.4907 36.8108L37.7797 35.7752L37.7797 35.7753L39.4907 36.8108ZM39.9983 35.0944L37.9993 35.0327V35.0327L39.9983 35.0944ZM21.3514 2.81664L37.8258 34.2778L41.3694 32.4222L24.895 0.961078L21.3514 2.81664ZM20.7903 2.22019C21.0284 2.36424 21.2225 2.57069 21.3517 2.81718L24.8947 0.960533C24.4267 0.0675189 23.7233 -0.680424 22.8607 -1.20228L20.7903 2.22019ZM20.0009 2C20.2792 2 20.5522 2.07615 20.7903 2.22019L22.8607 -1.20228C21.9981 -1.72413 21.0091 -2 20.0009 -2V2ZM19.2115 2.22019C19.4496 2.07615 19.7226 2 20.0009 2V-2C18.9927 -2 18.0037 -1.72413 17.1411 -1.20228L19.2115 2.22019ZM18.6501 2.81718C18.7792 2.57068 18.9734 2.36423 19.2115 2.22019L17.1411 -1.20228C16.2784 -0.680423 15.575 0.0675239 15.1071 0.960533L18.6501 2.81718ZM2.17418 34.2779L18.6503 2.81672L15.1068 0.961L-1.36931 32.4221L2.17418 34.2779ZM2.00073 35.0327C1.99263 34.7704 2.05235 34.5105 2.17411 34.278L-1.36923 32.422C-1.81035 33.2642 -2.0267 34.2059 -1.99737 35.1561L2.00073 35.0327ZM2.22033 35.7752C2.08446 35.5508 2.00882 35.295 2.00073 35.0327L-1.99737 35.1561C-1.96803 36.1063 -1.69401 37.0329 -1.20178 37.8463L2.22033 35.7752ZM2.7763 36.3142C2.54769 36.1854 2.35619 35.9997 2.22033 35.7752L-1.20178 37.8463C-0.709553 38.6596 -0.0157863 39.3322 0.812423 39.7989L2.7763 36.3142ZM3.52531 36.5107C3.26289 36.5107 3.0049 36.4431 2.7763 36.3142L0.812423 39.7989C1.64065 40.2657 2.57529 40.5108 3.52597 40.5107L3.52531 36.5107ZM36.4744 36.5107H3.52564V40.5107H36.4744V36.5107ZM37.2237 36.3142C36.9951 36.4431 36.7371 36.5107 36.4747 36.5107L36.474 40.5107C37.4247 40.5108 38.3594 40.2657 39.1876 39.7989L37.2237 36.3142ZM37.7797 35.7753C37.6438 35.9997 37.4523 36.1854 37.2237 36.3142L39.1876 39.7989C40.0158 39.3322 40.7096 38.6596 41.2018 37.8463L37.7797 35.7753ZM37.9993 35.0327C37.9912 35.295 37.9155 35.5508 37.7797 35.7752L41.2018 37.8463C41.694 37.0329 41.968 36.1063 41.9974 35.1561L37.9993 35.0327ZM37.8259 34.278C37.9477 34.5105 38.0074 34.7704 37.9993 35.0327L41.9974 35.1561C42.0267 34.2059 41.8104 33.2642 41.3692 32.422L37.8259 34.278Z" fill="#264887" mask="url(#path-1-inside-1)"/>
<rect x="18" y="12" width="4" height="14" rx="2" fill="#D32D27"/>
<circle cx="20" cy="30" r="2" fill="#D32D27"/>
</g>
<defs>
<filter id="filter0_i" x="0" y="0" width="40" height="38.5107" filterUnits="userSpaceOnUse" color-interpolation-filters="sRGB">
<feFlood flood-opacity="0" result="BackgroundImageFix"/>
<feBlend mode="normal" in="SourceGraphic" in2="BackgroundImageFix" result="shape"/>
<feColorMatrix in="SourceAlpha" type="matrix" values="0 0 0 0 0 0 0 0 0 0 0 0 0 0 0 0 0 0 127 0" result="hardAlpha"/>
<feOffset dx="2" dy="-3"/>
<feComposite in2="hardAlpha" operator="arithmetic" k2="-1" k3="1"/>
<feColorMatrix type="matrix" values="0 0 0 0 0.709804 0 0 0 0 0.85098 0 0 0 0 0.945098 0 0 0 1 0"/>
<feBlend mode="normal" in2="shape" result="effect1_innerShadow"/>
</filter>
<clipPath id="clip0">
<rect width="40" height="38.5107" fill="white"/>
</clipPath>
</defs>
</svg>
