<svg width="180" height="120" viewBox="0 0 180 120" fill="none" xmlns="http://www.w3.org/2000/svg">
<rect x="151" y="19" width="7.50002" height="7.50002" stroke="#73CFB5" stroke-width="2" stroke-linecap="round" stroke-linejoin="round"/>
<path fill-rule="evenodd" clip-rule="evenodd" d="M49.75 36.5C51.8211 36.5 53.5 34.8211 53.5 32.75C53.5 30.6789 51.8211 29 49.75 29C47.6789 29 46 30.6789 46 32.75C46 34.8211 47.6789 36.5 49.75 36.5Z" stroke="#73CFB5" stroke-width="2"/>
<rect width="7.5" height="7.5" transform="matrix(0.707106 -0.707107 0.707106 0.707107 14 46.3032)" stroke="#73CFB5" stroke-width="2" stroke-linecap="round" stroke-linejoin="round"/>
<path d="M158.313 104.313L165.439 111.439" stroke="#73CFB5" stroke-width="2" stroke-linecap="round"/>
<path d="M165.188 104.313L158.061 111.439" stroke="#73CFB5" stroke-width="2" stroke-linecap="round"/>
<path d="M124.11 65.231L116.908 69.6707C114.35 71.238 111.508 72.2862 108.545 72.7553C105.582 73.2245 102.555 73.1054 99.6384 72.4049C93.7472 70.9902 88.6592 67.2932 85.4937 62.1271C82.3283 56.961 81.3448 50.749 82.7595 44.8577C84.1742 38.9665 87.8712 33.8785 93.0373 30.713L100.241 26.2718C105.405 23.1635 111.589 22.2222 117.445 23.6531C123.3 25.0839 128.353 28.771 131.502 33.9108C134.651 39.0507 135.641 45.2268 134.256 51.0934C132.872 56.96 129.225 62.0416 124.11 65.231ZM98.3424 39.3645C95.4721 41.1229 93.4179 43.9495 92.6317 47.2225C91.8455 50.4955 92.3917 53.9468 94.1501 56.8171C95.9085 59.6874 98.7351 61.7416 102.008 62.5278C105.281 63.314 108.732 62.7679 111.603 61.0094L118.805 56.5682C120.246 55.7074 121.501 54.5693 122.499 53.2198C123.497 51.8703 124.218 50.3361 124.619 48.7063C125.02 47.0764 125.093 45.3832 124.836 43.7247C124.578 42.0661 123.993 40.4753 123.116 39.0442C122.239 37.6131 121.087 36.3702 119.726 35.3875C118.365 34.4049 116.823 33.7019 115.189 33.3194C113.555 32.9369 111.861 32.8824 110.205 33.1591C108.55 33.4358 106.965 34.0382 105.544 34.9314L98.3424 39.3645Z" fill="white"/>
<path d="M106.051 30.8953L98.8494 35.3365C96.9342 36.5108 95.3651 38.1725 94.3024 40.1519C93.2397 42.1312 92.7216 44.3572 92.8009 46.6023C93.6876 43.5875 95.6622 41.0093 98.3419 39.3678L105.544 34.9282C107.428 33.7728 109.582 33.1298 111.791 33.0627C114.001 32.9957 116.19 33.507 118.141 34.5459C120.092 35.5849 121.737 37.1156 122.915 38.9863C124.093 40.857 124.761 43.0029 124.854 45.2114C125.352 43.5232 125.488 41.7493 125.255 40.0049C125.022 38.2605 124.425 36.5846 123.502 35.086C122.632 33.6649 121.49 32.4291 120.142 31.4494C118.793 30.4696 117.265 29.7651 115.645 29.3759C114.024 28.9868 112.343 28.9207 110.697 29.1814C109.051 29.442 107.472 30.0244 106.051 30.8953Z" fill="#B5D9F1"/>
<path d="M82.6716 45.2798C81.7047 49.6559 82.0469 54.2197 83.6556 58.4027C85.2643 62.5857 88.0684 66.2027 91.7184 68.8032C95.3684 71.4037 99.7029 72.8726 104.182 73.0269C108.661 73.1811 113.086 72.014 116.907 69.6708L124.108 65.2312C127.338 63.2508 130.025 60.4982 131.926 57.2212C133.827 53.9443 134.884 50.246 135 46.4592C134.37 49.4961 133.123 52.3713 131.337 54.9066C129.55 57.442 127.262 59.5834 124.614 61.1983L117.412 65.6395C112.244 68.7954 106.035 69.7733 100.146 68.359C94.2576 66.9446 89.17 63.2534 85.9984 58.0943C83.634 54.2511 82.4753 49.7877 82.6716 45.2798Z" fill="#B5D9F1"/>
<path d="M124.11 65.231L116.908 69.6707C114.35 71.238 111.508 72.2862 108.545 72.7553C105.582 73.2245 102.555 73.1054 99.6384 72.4049C93.7472 70.9902 88.6592 67.2932 85.4937 62.1271C82.3283 56.961 81.3448 50.749 82.7595 44.8577C84.1742 38.9665 87.8712 33.8785 93.0373 30.713L100.241 26.2718C105.405 23.1635 111.589 22.2222 117.445 23.6531C123.3 25.0839 128.353 28.771 131.502 33.9108C134.651 39.0507 135.641 45.2268 134.256 51.0934C132.872 56.96 129.225 62.0416 124.11 65.231V65.231ZM98.3424 39.3645C95.4721 41.1229 93.4179 43.9495 92.6317 47.2225C91.8455 50.4955 92.3917 53.9468 94.1501 56.8171C95.9085 59.6874 98.7351 61.7416 102.008 62.5278C105.281 63.314 108.732 62.7679 111.603 61.0094L118.805 56.5682C120.246 55.7074 121.501 54.5693 122.499 53.2198C123.497 51.8703 124.218 50.3361 124.619 48.7063C125.02 47.0764 125.093 45.3832 124.836 43.7247C124.578 42.0661 123.993 40.4753 123.116 39.0442C122.239 37.6131 121.087 36.3702 119.726 35.3875C118.365 34.4049 116.823 33.7019 115.189 33.3194C113.555 32.9369 111.861 32.8824 110.205 33.1591C108.55 33.4358 106.965 34.0382 105.544 34.9314L98.3424 39.3645Z" stroke="#264887" stroke-width="2" stroke-miterlimit="10"/>
<path d="M77.177 94.1787L69.975 98.6199C67.4166 100.223 64.5658 101.304 61.5872 101.798C58.6087 102.293 55.5617 102.193 52.6223 101.502C49.6829 100.812 46.9095 99.5462 44.4624 97.7776C42.0154 96.0089 39.9432 93.7727 38.3657 91.1983C36.7883 88.6238 35.7368 85.7622 35.2721 82.7788C34.8075 79.7955 34.9388 76.7496 35.6586 73.8173C36.3784 70.8851 37.6724 68.1246 39.4657 65.6955C41.2589 63.2664 43.516 61.2169 46.1062 59.6656L53.3082 55.2243C55.8666 53.6209 58.7175 52.5406 61.696 52.0459C64.6745 51.5511 67.7215 51.6517 70.6609 52.3418C73.6003 53.032 76.3737 54.298 78.8208 56.0666C81.2678 57.8353 83.34 60.0715 84.9175 62.6459C86.495 65.2204 87.5464 68.0821 88.0111 71.0654C88.4757 74.0488 88.3444 77.0946 87.6246 80.0269C86.9048 82.9591 85.6108 85.7196 83.8176 88.1487C82.0243 90.5778 79.7673 92.6273 77.177 94.1787ZM51.4097 68.3121C48.5814 70.0898 46.5683 72.911 45.807 76.1636C45.0457 79.4162 45.5977 82.8378 47.3432 85.686C49.0887 88.5342 51.887 90.5792 55.1308 91.3773C58.3745 92.1753 61.8022 91.6621 64.6699 89.9489L71.8719 85.5093C73.3128 84.6485 74.5687 83.5104 75.5667 82.1609C76.5647 80.8114 77.2851 79.2773 77.6861 77.6474C78.0871 76.0175 78.1607 74.3243 77.9028 72.6658C77.6448 71.0073 77.0604 69.4164 76.1834 67.9853C75.3063 66.5542 74.154 65.3113 72.7933 64.3287C71.4326 63.346 69.8904 62.643 68.2561 62.2605C66.6218 61.878 64.9279 61.8235 63.2724 62.1002C61.6169 62.3769 60.0327 62.9793 58.6116 63.8725L51.4097 68.3121Z" fill="white"/>
<path d="M59.1194 59.8526L51.9174 64.2938C50.0017 65.4674 48.4322 67.1291 47.3697 69.1086C46.3072 71.0881 45.7898 73.3144 45.8705 75.5596C46.7559 72.5446 48.7301 69.9662 51.4098 68.3251L58.6118 63.8839C60.4964 62.728 62.6504 62.0846 64.8602 62.0175C67.07 61.9503 69.2591 62.4616 71.2104 63.5009C73.1618 64.5401 74.8078 66.0711 75.9853 67.9422C77.1629 69.8134 77.8311 71.9597 77.9239 74.1686C78.4214 72.4804 78.558 70.7064 78.3248 68.9619C78.0916 67.2174 77.4938 65.5416 76.5703 64.0433C75.6998 62.6221 74.5578 61.3864 73.2096 60.4067C71.8614 59.4269 70.3334 58.7224 68.7129 58.3332C67.0924 57.944 65.4111 57.8779 63.765 58.1386C62.1189 58.3993 60.5403 58.9817 59.1194 59.8526Z" fill="#B5D9F1"/>
<path d="M35.7424 74.2322C34.775 78.6082 35.1168 83.1722 36.7252 87.3553C38.3337 91.5384 41.1376 95.1556 44.7876 97.7562C48.4376 100.357 52.7722 101.826 57.2512 101.98C61.7302 102.134 66.1556 100.967 69.9757 98.6232L77.1777 94.182C80.4087 92.2026 83.0966 89.4507 84.9993 86.174C86.902 82.8974 87.9598 79.1989 88.0774 75.4116C87.4469 78.4485 86.1997 81.3236 84.413 83.8588C82.6263 86.3941 80.3381 88.5356 77.6902 90.1507L70.4882 94.5919C65.3197 97.7477 59.1109 98.7256 53.2226 97.3112C47.3344 95.8969 42.2471 92.2057 39.0758 87.0467C36.7078 83.2048 35.5466 78.741 35.7424 74.2322Z" fill="#B5D9F1"/>
<path d="M77.177 94.1787L69.975 98.6199C67.4166 100.223 64.5657 101.304 61.5872 101.798C58.6087 102.293 55.5617 102.193 52.6223 101.502C49.6829 100.812 46.9095 99.5463 44.4624 97.7776C42.0154 96.009 39.9432 93.7727 38.3657 91.1983C36.7883 88.6238 35.7368 85.7622 35.2721 82.7788C34.8075 79.7955 34.9388 76.7496 35.6586 73.8173C36.3784 70.8851 37.6724 68.1246 39.4657 65.6955C41.2589 63.2664 43.516 61.2169 46.1062 59.6656L53.3082 55.2243C55.8666 53.6209 58.7175 52.5406 61.696 52.0459C64.6745 51.5511 67.7215 51.6517 70.6609 52.3418C73.6003 53.032 76.3737 54.298 78.8208 56.0666C81.2678 57.8353 83.34 60.0715 84.9175 62.6459C86.495 65.2204 87.5464 68.0821 88.0111 71.0654C88.4757 74.0488 88.3444 77.0946 87.6246 80.0269C86.9048 82.9591 85.6108 85.7196 83.8176 88.1487C82.0243 90.5778 79.7672 92.6273 77.177 94.1787V94.1787ZM51.4097 68.3121C48.5814 70.0898 46.5683 72.911 45.807 76.1636C45.0457 79.4162 45.5977 82.8378 47.3432 85.686C49.0887 88.5342 51.887 90.5792 55.1308 91.3773C58.3745 92.1753 61.8022 91.6621 64.6699 89.9489L71.8719 85.5093C73.3128 84.6485 74.5687 83.5104 75.5667 82.1609C76.5647 80.8114 77.2851 79.2773 77.6861 77.6474C78.0871 76.0175 78.1607 74.3243 77.9028 72.6658C77.6448 71.0073 77.0604 69.4164 76.1834 67.9853C75.3063 66.5542 74.154 65.3113 72.7933 64.3287C71.4326 63.346 69.8904 62.643 68.2561 62.2605C66.6218 61.878 64.9279 61.8235 63.2724 62.1002C61.6169 62.3769 60.0327 62.9793 58.6116 63.8725L51.4097 68.3121Z" stroke="#264887" stroke-width="2" stroke-miterlimit="10"/>
<path d="M107.208 54.9317L68.2484 78.8005C67.68 79.1488 67.0486 79.3818 66.3902 79.4861C65.7317 79.5904 65.0592 79.564 64.411 79.4084C63.7628 79.2528 63.1516 78.9711 62.6122 78.5793C62.0729 78.1875 61.616 77.6933 61.2677 77.1249C60.9193 76.5565 60.6864 75.9251 60.5821 75.2666C60.4777 74.6082 60.5041 73.9357 60.6597 73.2875C60.8153 72.6393 61.0971 72.028 61.4889 71.4887C61.8807 70.9494 62.3749 70.4925 62.9433 70.1442L101.903 46.2737C103.05 45.5879 104.422 45.3823 105.72 45.7017C107.018 46.021 108.138 46.8394 108.837 47.9793C109.535 49.1192 109.756 50.4886 109.451 51.7902C109.146 53.0919 108.34 54.2207 107.208 54.9317Z" fill="white"/>
<path d="M74.7411 74.8196L68.2484 78.7972C67.68 79.1455 67.0486 79.3785 66.3902 79.4828C65.7317 79.5871 65.0592 79.5607 64.411 79.4051C63.7628 79.2495 63.1516 78.9678 62.6122 78.576C62.0729 78.1841 61.616 77.6899 61.2677 77.1216C60.9193 76.5532 60.6864 75.9217 60.5821 75.2633C60.4777 74.6049 60.5041 73.9324 60.6597 73.2842C60.8153 72.6359 61.0971 72.0247 61.4889 71.4854C61.8807 70.9461 62.3749 70.4892 62.9433 70.1408L69.4376 66.1616C68.3141 66.8764 67.5163 68.004 67.2163 69.3014C66.9162 70.5987 67.1378 71.9621 67.8334 73.0976C68.529 74.2331 69.6428 75.0499 70.9349 75.372C72.227 75.6941 73.5939 75.4957 74.7411 74.8196Z" fill="#B5D9F1"/>
<path d="M107.208 54.9317L68.2484 78.8005C67.68 79.1488 67.0486 79.3818 66.3902 79.4861C65.7317 79.5904 65.0592 79.564 64.411 79.4084C63.7628 79.2529 63.1516 78.9711 62.6122 78.5793C62.0729 78.1875 61.616 77.6933 61.2677 77.1249C60.9193 76.5565 60.6864 75.9251 60.5821 75.2666C60.4777 74.6082 60.5041 73.9357 60.6597 73.2875C60.8153 72.6393 61.0971 72.028 61.4889 71.4887C61.8807 70.9494 62.3749 70.4925 62.9433 70.1442L101.903 46.2737C103.05 45.5879 104.422 45.3823 105.72 45.7017C107.018 46.021 108.138 46.8394 108.837 47.9793C109.535 49.1192 109.756 50.4886 109.451 51.7902C109.146 53.0919 108.34 54.2207 107.208 54.9317V54.9317Z" stroke="#264887" stroke-width="2" stroke-miterlimit="10"/>
<path d="M60 113H120" stroke="#73CFB5" stroke-width="2" stroke-linecap="round" stroke-dasharray="1 6 164 5"/>
<path d="M133 107C146.807 107 158 95.8071 158 82C158 68.1929 146.807 57 133 57C119.193 57 108 68.1929 108 82C108 95.8071 119.193 107 133 107Z" fill="#DAECF8"/>
<path d="M108.455 86.6857C109.544 80.9696 112.595 75.8131 117.08 72.1055C121.565 68.398 127.203 66.372 133.022 66.3771C138.841 66.3821 144.476 68.4179 148.954 72.1332C153.433 75.8485 156.474 81.0104 157.554 86.7284C158.246 83.1126 158.131 79.3886 157.218 75.8223C156.304 72.2561 154.614 68.9357 152.268 66.0984C149.922 63.261 146.979 60.9767 143.648 59.4087C140.317 57.8406 136.681 57.0276 133 57.0276C129.319 57.0276 125.683 57.8406 122.352 59.4087C119.021 60.9767 116.078 63.261 113.732 66.0984C111.386 68.9357 109.696 72.2561 108.782 75.8223C107.869 79.3886 107.754 83.1126 108.446 86.7284" fill="#B5D9F1"/>
<path d="M133 107C146.807 107 158 95.8071 158 82C158 68.1929 146.807 57 133 57C119.193 57 108 68.1929 108 82C108 95.8071 119.193 107 133 107Z" stroke="#264887" stroke-width="2" stroke-linecap="round" stroke-linejoin="round"/>
<path d="M127.521 95.3657C127.003 95.3663 126.491 95.2646 126.012 95.0664C125.534 94.8683 125.099 94.5775 124.734 94.2109L116.846 86.3229C116.468 85.9593 116.167 85.524 115.96 85.0426C115.752 84.5612 115.643 84.0433 115.638 83.5192C115.633 82.995 115.733 82.4752 115.931 81.99C116.129 81.5048 116.422 81.064 116.793 80.6933C117.164 80.3227 117.604 80.0296 118.09 79.8313C118.575 79.633 119.095 79.5334 119.619 79.5383C120.143 79.5432 120.661 79.6526 121.142 79.86C121.624 80.0674 122.059 80.3687 122.422 80.7462L127.521 85.845L143.578 69.79C144.322 69.0733 145.318 68.6772 146.351 68.6869C147.384 68.6966 148.372 69.1114 149.103 69.8419C149.833 70.5725 150.248 71.5606 150.258 72.5937C150.267 73.6269 149.871 74.6225 149.155 75.3667L130.31 94.2109C129.944 94.5774 129.51 94.8681 129.031 95.0662C128.552 95.2644 128.039 95.3661 127.521 95.3657Z" fill="#00A878" stroke="#264887" stroke-width="2" stroke-linecap="round" stroke-linejoin="round"/>
<path d="M25.3125 19.3125L32.4386 26.4386" stroke="#73CFB5" stroke-width="2" stroke-linecap="round"/>
<path d="M32.1875 19.3125L25.0614 26.4386" stroke="#73CFB5" stroke-width="2" stroke-linecap="round"/>
</svg>
