<svg width="180" height="120" viewBox="0 0 180 120" fill="none" xmlns="http://www.w3.org/2000/svg">
<path d="M34.9062 117.356H143.073" stroke="#264887" stroke-width="2" stroke-linecap="round" stroke-linejoin="round"/>
<path d="M21 117.047H28.7262" stroke="#264887" stroke-width="2" stroke-linecap="round" stroke-linejoin="round"/>
<path d="M149.254 117.047H156.98" stroke="#264887" stroke-width="2" stroke-linecap="round" stroke-linejoin="round"/>
<path d="M131.451 42.8416V18.5999C131.451 17.6163 131.06 16.6731 130.365 15.9776C129.669 15.2821 128.726 14.8914 127.742 14.8914H117.371C116.387 14.8914 115.444 15.2821 114.748 15.9776C114.053 16.6731 113.662 17.6163 113.662 18.5999V27.4449L131.451 42.8416Z" fill="white" stroke="#264887" stroke-width="2" stroke-linecap="round" stroke-linejoin="round"/>
<path d="M136.017 117.167H47.0859V64.4409L91.5517 25.8718L136.017 64.4378V117.167Z" fill="white"/>
<path d="M91.5517 25.8779L47.0859 64.4408V73.3599L87.1694 38.589C88.3862 37.5352 89.942 36.9552 91.5517 36.9552C93.1613 36.9552 94.7171 37.5352 95.9339 38.589L136.017 73.3538V64.4377L91.5517 25.8779Z" fill="#B5D9F1"/>
<path d="M136.017 117.167H47.0859V64.4409L91.5516 25.8718L136.017 64.4378V117.167Z" stroke="#264887" stroke-width="2" stroke-linecap="round" stroke-linejoin="round"/>
<path d="M42.766 66.0326C41.402 66.0325 40.0708 65.614 38.9519 64.8338C37.8331 64.0535 36.9804 62.9489 36.5089 61.669C36.0373 60.3891 35.9696 58.9953 36.3147 57.6757C36.6599 56.356 37.4015 55.1739 38.4394 54.2888L87.2317 12.039C88.4363 11.0054 89.9712 10.4373 91.5584 10.4373C93.1456 10.4373 94.6804 11.0054 95.8851 12.039L144.665 54.2796C146.012 55.4271 146.848 57.0627 146.989 58.8266C147.13 60.5906 146.565 62.3383 145.418 63.6854C144.27 65.0325 142.634 65.8686 140.871 66.0097C139.107 66.1508 137.359 65.5854 136.012 64.4379L91.5522 25.8781L47.0865 64.441C45.8818 65.4691 44.3497 66.0334 42.766 66.0326Z" fill="#D32D27"/>
<path d="M38.4479 61.6904L87.231 19.4498C88.4356 18.4162 89.9704 17.848 91.5576 17.848C93.1449 17.848 94.6797 18.4162 95.8843 19.4498L144.664 61.6904C145.12 62.093 145.52 62.5545 145.854 63.0625C146.78 61.7116 147.171 60.0648 146.951 58.4417C146.732 56.8187 145.916 55.3352 144.664 54.2794L95.8719 12.0419C94.6673 11.0084 93.1325 10.4402 91.5453 10.4402C89.958 10.4402 88.4232 11.0084 87.2186 12.0419L38.4479 54.2794C37.1944 55.3349 36.3782 56.8188 36.1577 58.4426C35.9373 60.0663 36.3283 61.7141 37.2549 63.0656C37.5874 62.5545 37.9888 62.0917 38.4479 61.6904Z" fill="#E78C89"/>
<path d="M42.766 66.0326C41.402 66.0325 40.0708 65.614 38.9519 64.8338C37.8331 64.0535 36.9804 62.9489 36.5089 61.669C36.0373 60.3891 35.9696 58.9953 36.3147 57.6757C36.6599 56.356 37.4015 55.1739 38.4394 54.2888L87.2317 12.039C88.4363 11.0054 89.9712 10.4373 91.5584 10.4373C93.1456 10.4373 94.6804 11.0054 95.8851 12.039L144.665 54.2796C146.012 55.4271 146.848 57.0627 146.989 58.8266C147.13 60.5906 146.565 62.3383 145.418 63.6854C144.27 65.0325 142.634 65.8686 140.871 66.0097C139.107 66.1508 137.359 65.5854 136.012 64.4379L91.5522 25.8781L47.0865 64.441C45.8818 65.4691 44.3497 66.0334 42.766 66.0326V66.0326Z" stroke="#264887" stroke-width="2" stroke-linecap="round" stroke-linejoin="round"/>
<path d="M118.112 14.8944H127.003V9.70856C127.003 8.72499 126.612 7.78171 125.917 7.08622C125.221 6.39073 124.278 6 123.294 6H121.814C120.83 6 119.887 6.39073 119.192 7.08622C118.496 7.78171 118.105 8.72499 118.105 9.70856L118.112 14.8944Z" fill="#E78C89" stroke="#264887" stroke-width="2" stroke-linecap="round" stroke-linejoin="round"/>
<path d="M91.4319 117.167H55.8574V111.363C55.8574 110.544 56.183 109.758 56.7626 109.178C57.3422 108.599 58.1283 108.273 58.9479 108.273H88.3414C89.161 108.273 89.9471 108.599 90.5267 109.178C91.1063 109.758 91.4319 110.544 91.4319 111.363V117.167Z" fill="white" stroke="#264887" stroke-width="2" stroke-linecap="round" stroke-linejoin="round"/>
<path d="M86.9843 108.273H60.3043V88.2651C60.2774 86.4962 60.6025 84.7395 61.2608 83.0975C61.9191 81.4554 62.8975 79.9606 64.1389 78.7002C65.3803 77.4397 66.86 76.4388 68.4919 75.7555C70.1237 75.0723 71.8752 74.7205 73.6443 74.7205C75.4134 74.7205 77.1649 75.0723 78.7968 75.7555C80.4286 76.4388 81.9083 77.4397 83.1497 78.7002C84.3912 79.9606 85.3695 81.4554 86.0278 83.0975C86.6861 84.7395 87.0113 86.4962 86.9843 88.2651V108.273Z" fill="#264887" stroke="#264887" stroke-width="2" stroke-linecap="round" stroke-linejoin="round"/>
<path d="M78.0918 97.1564V92.7092" stroke="white" stroke-width="2" stroke-linecap="round" stroke-linejoin="round"/>
<path d="M91.4315 61.5854C96.3437 61.5854 100.326 57.6032 100.326 52.691C100.326 47.7788 96.3437 43.7966 91.4315 43.7966C86.5192 43.7966 82.5371 47.7788 82.5371 52.691C82.5371 57.6032 86.5192 61.5854 91.4315 61.5854Z" fill="#B5D9F1"/>
<path d="M97.7194 46.405C96.0422 44.7843 93.7955 43.8872 91.4632 43.9071C89.131 43.9269 86.8998 44.8621 85.2504 46.5111C83.601 48.1601 82.6653 50.391 82.6449 52.7232C82.6245 55.0555 83.5209 57.3024 85.1412 58.9801L97.7194 46.405Z" fill="white"/>
<path d="M91.4315 61.5854C96.3437 61.5854 100.326 57.6032 100.326 52.691C100.326 47.7788 96.3437 43.7966 91.4315 43.7966C86.5192 43.7966 82.5371 47.7788 82.5371 52.691C82.5371 57.6032 86.5192 61.5854 91.4315 61.5854Z" stroke="#264887" stroke-width="2" stroke-linecap="round" stroke-linejoin="round"/>
<path d="M119.465 77.1492H107.86C106.153 77.1492 104.77 78.5328 104.77 80.2396V100.739C104.77 102.446 106.153 103.829 107.86 103.829H119.465C121.172 103.829 122.555 102.446 122.555 100.739V80.2396C122.555 78.5328 121.172 77.1492 119.465 77.1492Z" fill="#B5D9F1"/>
<path d="M122.5 80.5792C122.437 79.6529 122.026 78.7846 121.35 78.1488C120.673 77.5129 119.781 77.1568 118.853 77.1519H108.478C107.495 77.1519 106.551 77.5426 105.856 78.2381C105.16 78.9336 104.77 79.8769 104.77 80.8604V98.3123L122.5 80.5792Z" fill="white"/>
<path d="M119.465 77.1492H107.86C106.153 77.1492 104.77 78.5328 104.77 80.2396V100.739C104.77 102.446 106.153 103.829 107.86 103.829H119.465C121.172 103.829 122.555 102.446 122.555 100.739V80.2396C122.555 78.5328 121.172 77.1492 119.465 77.1492Z" stroke="#264887" stroke-width="2" stroke-linecap="round" stroke-linejoin="round"/>
<rect x="162" y="33" width="7.50002" height="7.50002" stroke="#E78C89" stroke-width="2" stroke-linecap="round" stroke-linejoin="round"/>
<path fill-rule="evenodd" clip-rule="evenodd" d="M12.75 19.5C14.8211 19.5 16.5 17.8211 16.5 15.75C16.5 13.6789 14.8211 12 12.75 12C10.6789 12 9 13.6789 9 15.75C9 17.8211 10.6789 19.5 12.75 19.5Z" stroke="#E78C89" stroke-width="2"/>
<rect width="7.5" height="7.5" transform="matrix(0.707106 -0.707107 0.707106 0.707107 30 32.3032)" stroke="#E78C89" stroke-width="2" stroke-linecap="round" stroke-linejoin="round"/>
<path d="M51.3125 6.3125L58.4386 13.4386" stroke="#E78C89" stroke-width="2" stroke-linecap="round"/>
<path d="M58.1875 6.3125L51.0614 13.4386" stroke="#E78C89" stroke-width="2" stroke-linecap="round"/>
</svg>
