<svg width="80" height="54" viewBox="0 0 80 54" fill="none" xmlns="http://www.w3.org/2000/svg">
    <g clip-path="url(#clip0)">
        <path d="M16.1812 52.4915H64.2552" stroke="#264887" stroke-width="1.25" stroke-linecap="round" stroke-linejoin="round"/>
        <path d="M10 52.3542H13.4339" stroke="#264887" stroke-width="1.25" stroke-linecap="round" stroke-linejoin="round"/>
        <path d="M67.002 52.3542H70.4358" stroke="#264887" stroke-width="1.25" stroke-linecap="round" stroke-linejoin="round"/>
        <path d="M59.0892 19.374V8.59991C59.0892 8.16276 58.9155 7.74353 58.6064 7.43442C58.2973 7.12531 57.8781 6.95166 57.441 6.95166H52.8314C52.3942 6.95166 51.975 7.12531 51.6659 7.43442C51.3568 7.74353 51.1831 8.16276 51.1831 8.59991V12.531L59.0892 19.374Z" fill="white" stroke="#264887" stroke-width="1.25" stroke-linecap="round" stroke-linejoin="round"/>
        <path d="M61.1193 52.4079H21.5942V28.9738L41.3568 11.832L61.1193 28.9725V52.4079Z" fill="white"/>
        <path d="M41.3568 11.8347L21.5942 28.9738V32.9378L39.4091 17.4841C39.9499 17.0157 40.6414 16.7579 41.3568 16.7579C42.0722 16.7579 42.7637 17.0157 43.3045 17.4841L61.1193 32.9351V28.9724L41.3568 11.8347Z" fill="#B5D9F1"/>
        <path d="M61.1193 52.4079H21.5942V28.9738L41.3568 11.832L61.1193 28.9725V52.4079Z" stroke="#264887" stroke-width="1.25" stroke-linecap="round" stroke-linejoin="round"/>
        <path d="M19.6742 29.681C19.0679 29.6809 18.4763 29.4949 17.979 29.1481C17.4818 28.8014 17.1028 28.3104 16.8932 27.7416C16.6836 27.1727 16.6535 26.5533 16.8069 25.9668C16.9604 25.3803 17.2899 24.8549 17.7512 24.4615L39.4367 5.68381C39.9721 5.22445 40.6542 4.97192 41.3597 4.97192C42.0651 4.97192 42.7472 5.22445 43.2826 5.68381L64.9626 24.4574C65.5613 24.9674 65.9329 25.6943 65.9956 26.4783C66.0584 27.2623 65.8071 28.0391 65.2971 28.6378C64.7871 29.2365 64.0601 29.6081 63.2762 29.6708C62.4922 29.7335 61.7154 29.4822 61.1167 28.9722L41.3569 11.8345L21.5944 28.9736C21.0589 29.4305 20.378 29.6813 19.6742 29.681Z" fill="#00A878"/>
        <path d="M17.755 27.7512L39.4364 8.97766C39.9717 8.5183 40.6539 8.26577 41.3593 8.26577C42.0648 8.26577 42.7469 8.5183 43.2823 8.97766L64.9623 27.7512C65.1648 27.9302 65.3426 28.1353 65.4911 28.3611C65.9027 27.7607 66.0765 27.0288 65.9788 26.3074C65.8811 25.5861 65.5188 24.9268 64.9623 24.4575L43.2768 5.68527C42.7414 5.22592 42.0593 4.97339 41.3538 4.97339C40.6484 4.97339 39.9663 5.22592 39.4309 5.68527L17.755 24.4575C17.1979 24.9266 16.8351 25.5861 16.7371 26.3078C16.6392 27.0295 16.813 27.7618 17.2248 28.3625C17.3726 28.1353 17.551 27.9296 17.755 27.7512Z" fill="#73CFB5"/>
        <path d="M19.6742 29.681C19.0679 29.6809 18.4763 29.4949 17.979 29.1481C17.4818 28.8014 17.1028 28.3104 16.8932 27.7416C16.6836 27.1727 16.6535 26.5533 16.8069 25.9668C16.9604 25.3803 17.2899 24.8549 17.7512 24.4615L39.4367 5.68381C39.9721 5.22445 40.6542 4.97192 41.3597 4.97192C42.0651 4.97192 42.7472 5.22445 43.2826 5.68381L64.9626 24.4574C65.5613 24.9674 65.9329 25.6943 65.9956 26.4783C66.0584 27.2623 65.8071 28.0391 65.2971 28.6378C64.7871 29.2365 64.0601 29.6081 63.2762 29.6708C62.4922 29.7335 61.7154 29.4822 61.1167 28.9722L41.3569 11.8345L21.5944 28.9736C21.0589 29.4305 20.378 29.6813 19.6742 29.681V29.681Z" stroke="#264887" stroke-width="1.25" stroke-linecap="round" stroke-linejoin="round"/>
        <path d="M53.1609 6.95306H57.1127V4.64825C57.1127 4.21111 56.939 3.79187 56.6299 3.48276C56.3208 3.17366 55.9015 3 55.4644 3H54.8065C54.3693 3 53.9501 3.17366 53.641 3.48276C53.3319 3.79187 53.1582 4.21111 53.1582 4.64825L53.1609 6.95306Z" fill="#73CFB5" stroke="#264887" stroke-width="1.25" stroke-linecap="round" stroke-linejoin="round"/>
        <path d="M41.3031 52.4077H25.4922V49.8281C25.4922 49.4638 25.6369 49.1145 25.8945 48.8569C26.1521 48.5993 26.5014 48.4546 26.8657 48.4546H39.9295C40.2938 48.4546 40.6432 48.5993 40.9008 48.8569C41.1583 49.1145 41.3031 49.4638 41.3031 49.8281V52.4077Z" fill="white" stroke="#264887" stroke-width="1.25" stroke-linecap="round" stroke-linejoin="round"/>
        <path d="M39.3267 48.4546H27.4689V39.5623C27.457 38.7761 27.6015 37.9954 27.8941 37.2656C28.1867 36.5358 28.6215 35.8714 29.1732 35.3112C29.7249 34.751 30.3826 34.3062 31.1079 34.0025C31.8331 33.6989 32.6116 33.5425 33.3979 33.5425C34.1841 33.5425 34.9626 33.6989 35.6878 34.0025C36.4131 34.3062 37.0708 34.751 37.6225 35.3112C38.1742 35.8714 38.609 36.5358 38.9016 37.2656C39.1942 37.9954 39.3387 38.7761 39.3267 39.5623V48.4546Z" fill="#264887" stroke="#264887" stroke-width="1.25" stroke-linecap="round" stroke-linejoin="round"/>
        <path d="M35.3745 43.5139V41.5374" stroke="white" stroke-width="1.25" stroke-linecap="round" stroke-linejoin="round"/>
        <path d="M41.3031 27.7044C43.4864 27.7044 45.2562 25.9346 45.2562 23.7514C45.2562 21.5682 43.4864 19.7983 41.3031 19.7983C39.1199 19.7983 37.3501 21.5682 37.3501 23.7514C37.3501 25.9346 39.1199 27.7044 41.3031 27.7044Z" fill="#B5D9F1"/>
        <path d="M44.0984 20.9577C43.353 20.2374 42.3544 19.8387 41.3179 19.8476C40.2813 19.8564 39.2897 20.272 38.5566 21.0049C37.8235 21.7378 37.4077 22.7293 37.3986 23.7659C37.3895 24.8024 37.7879 25.8011 38.5081 26.5467L44.0984 20.9577Z" fill="white"/>
        <path d="M41.3031 27.7044C43.4864 27.7044 45.2562 25.9346 45.2562 23.7514C45.2562 21.5682 43.4864 19.7983 41.3031 19.7983C39.1199 19.7983 37.3501 21.5682 37.3501 23.7514C37.3501 25.9346 39.1199 27.7044 41.3031 27.7044Z" stroke="#264887" stroke-width="1.25" stroke-linecap="round" stroke-linejoin="round"/>
        <path d="M53.7626 34.6218H48.605C47.8464 34.6218 47.2314 35.2368 47.2314 35.9954V45.1061C47.2314 45.8647 47.8464 46.4796 48.605 46.4796H53.7626C54.5212 46.4796 55.1362 45.8647 55.1362 45.1061V35.9954C55.1362 35.2368 54.5212 34.6218 53.7626 34.6218Z" fill="#B5D9F1"/>
        <path d="M55.1115 36.1463C55.0837 35.7346 54.9011 35.3487 54.6005 35.0661C54.2998 34.7835 53.9033 34.6252 53.4907 34.623H48.8797C48.4425 34.623 48.0233 34.7967 47.7142 35.1058C47.4051 35.4149 47.2314 35.8342 47.2314 36.2713V44.0277L55.1115 36.1463Z" fill="white"/>
        <path d="M53.7626 34.6218H48.605C47.8464 34.6218 47.2314 35.2368 47.2314 35.9954V45.1061C47.2314 45.8647 47.8464 46.4796 48.605 46.4796H53.7626C54.5212 46.4796 55.1362 45.8647 55.1362 45.1061V35.9954C55.1362 35.2368 54.5212 34.6218 53.7626 34.6218Z" stroke="#264887" stroke-width="1.25" stroke-linecap="round" stroke-linejoin="round"/>
        <rect x="69.7778" y="6.66675" width="3.33334" height="3.33334" stroke="#73CFB5" stroke-width="1.25" stroke-linecap="round" stroke-linejoin="round"/>
        <path fill-rule="evenodd" clip-rule="evenodd" d="M5.66667 8.66682C6.58714 8.66682 7.33333 7.92063 7.33333 7.00016C7.33333 6.07969 6.58714 5.3335 5.66667 5.3335C4.74619 5.3335 4 6.07969 4 7.00016C4 7.92063 4.74619 8.66682 5.66667 8.66682Z" stroke="#73CFB5" stroke-width="1.25"/>
        <rect width="3.33333" height="3.33333" transform="matrix(0.707106 -0.707108 0.707106 0.707108 13.3335 14.3572)" stroke="#73CFB5" stroke-width="1.25" stroke-linecap="round" stroke-linejoin="round"/>
        <path d="M22.8054 2.80564L25.9725 5.97279" stroke="#73CFB5" stroke-width="1.25" stroke-linecap="round"/>
        <path d="M25.8611 2.80564L22.694 5.97279" stroke="#73CFB5" stroke-width="1.25" stroke-linecap="round"/>
        <path d="M66.2224 40.0001C72.3589 40.0001 77.3335 35.0254 77.3335 28.8889C77.3335 22.7524 72.3589 17.7778 66.2224 17.7778C60.0859 17.7778 55.1113 22.7524 55.1113 28.8889C55.1113 35.0254 60.0859 40.0001 66.2224 40.0001Z" fill="#DAECF8"/>
        <path d="M66.2224 40.0001C72.3589 40.0001 77.3335 35.0254 77.3335 28.8889C77.3335 22.7524 72.3589 17.7778 66.2224 17.7778C60.0859 17.7778 55.1113 22.7524 55.1113 28.8889C55.1113 35.0254 60.0859 40.0001 66.2224 40.0001Z" stroke="#264887" stroke-width="1.25" stroke-linecap="round" stroke-linejoin="round"/>
        <path d="M63.7874 34.8292C63.5573 34.8295 63.3294 34.7843 63.1168 34.6962C62.9042 34.6081 62.7111 34.4789 62.5485 34.316L59.0428 30.8102C58.875 30.6486 58.7411 30.4552 58.6489 30.2412C58.5567 30.0272 58.5081 29.7971 58.5059 29.5641C58.5037 29.3312 58.548 29.1001 58.6362 28.8845C58.7243 28.6688 58.8545 28.4729 59.0193 28.3082C59.184 28.1434 59.3799 28.0132 59.5956 27.9251C59.8112 27.8369 60.0423 27.7926 60.2752 27.7948C60.5082 27.797 60.7384 27.8456 60.9523 27.9378C61.1663 28.03 61.3597 28.1639 61.5213 28.3317L63.7874 30.5978L70.9237 23.4623C71.2545 23.1437 71.697 22.9677 72.1561 22.972C72.6153 22.9763 73.0545 23.1606 73.3792 23.4853C73.7039 23.81 73.8882 24.2492 73.8925 24.7083C73.8968 25.1675 73.7208 25.6101 73.4022 25.9408L65.0271 34.316C64.8644 34.4789 64.6711 34.6081 64.4584 34.6961C64.2457 34.7842 64.0176 34.8294 63.7874 34.8292Z" fill="#00A878" stroke="#264887" stroke-width="1.25" stroke-linecap="round" stroke-linejoin="round"/>
    </g>
    <defs>
        <clipPath id="clip0">
            <rect width="80" height="53.3333" fill="white"/>
        </clipPath>
    </defs>
</svg>
