<svg width="215" height="143" viewBox="0 0 215 143" fill="none" xmlns="http://www.w3.org/2000/svg">
    <path d="M117.353 114.528V113.988C117.353 108.986 115.361 104.189 111.816 100.651C108.27 97.1141 103.462 95.127 98.4476 95.127C93.4336 95.127 88.6249 97.1141 85.0795 100.651C81.534 104.189 79.5422 108.986 79.5422 113.988V114.528C78.552 114.546 77.6087 114.952 76.9151 115.657C76.2216 116.363 75.833 117.311 75.833 118.299C75.833 119.288 76.2216 120.236 76.9151 120.941C77.6087 121.647 78.552 122.052 79.5422 122.071C79.6221 122.071 79.6966 122.053 79.7738 122.048C81.1358 131.125 88.9646 136.678 98.4476 136.678C107.931 136.678 115.759 131.131 117.121 122.048C117.2 122.048 117.273 122.071 117.353 122.071C117.856 122.081 118.355 121.99 118.822 121.805C119.289 121.62 119.715 121.344 120.073 120.992C120.432 120.641 120.717 120.222 120.912 119.76C121.106 119.297 121.207 118.801 121.207 118.299C121.207 117.798 121.106 117.302 120.912 116.839C120.717 116.377 120.432 115.958 120.073 115.607C119.715 115.255 119.289 114.979 118.822 114.794C118.355 114.608 117.856 114.518 117.353 114.528Z" fill="#B5D9F1" class="figure-1"/>
    <path d="M87.5767 123.973C88.8817 123.973 89.9395 122.917 89.9395 121.615C89.9395 120.313 88.8817 119.258 87.5767 119.258C86.2717 119.258 85.2139 120.313 85.2139 121.615C85.2139 122.917 86.2717 123.973 87.5767 123.973Z" fill="#90C6EB" class="figure-1"/>
    <path d="M109.318 123.959C110.623 123.959 111.681 122.903 111.681 121.601C111.681 120.3 110.623 119.244 109.318 119.244C108.013 119.244 106.956 120.3 106.956 121.601C106.956 122.903 108.013 123.959 109.318 123.959Z" fill="#90C6EB" class="figure-1"/>
    <path d="M92.7593 126.41C94.293 127.867 96.3296 128.679 98.4472 128.679C100.565 128.679 102.601 127.867 104.135 126.41" stroke="#264887" stroke-width="2" stroke-linecap="round" stroke-linejoin="round" class="figure-1"/>
    <path d="M93.7221 115.485C93.4881 114.925 93.0932 114.446 92.5871 114.11C92.081 113.773 91.4864 113.594 90.8781 113.594C90.2699 113.594 89.6753 113.773 89.1692 114.11C88.6631 114.446 88.2682 114.925 88.0342 115.485" stroke="#264887" stroke-width="2" stroke-linecap="round" stroke-linejoin="round" class="figure-1"/>
    <path d="M108.86 115.471C108.626 114.911 108.231 114.432 107.725 114.096C107.219 113.759 106.625 113.58 106.016 113.58C105.408 113.58 104.813 113.759 104.307 114.096C103.801 114.432 103.406 114.911 103.172 115.471" stroke="#264887" stroke-width="2" stroke-linecap="round" stroke-linejoin="round" class="figure-1"/>
    <path d="M115.919 106.77C111.702 102.965 106.35 100.646 100.684 100.169C99.2 99.9761 97.6968 99.9761 96.2124 100.169C90.5467 100.646 85.1946 102.965 80.978 106.77C82.4107 103.324 84.8349 100.38 87.9444 98.3079C91.054 96.2361 94.7092 95.1304 98.4484 95.1304C102.188 95.1304 105.843 96.2361 108.952 98.3079C112.062 100.38 114.486 103.324 115.919 106.77Z" fill="#90C6EB" class="figure-1"/>
    <path d="M117.353 114.528V113.988C117.353 108.986 115.361 104.189 111.816 100.651C108.27 97.1141 103.462 95.127 98.4476 95.127C93.4336 95.127 88.6249 97.1141 85.0795 100.651C81.534 104.189 79.5422 108.986 79.5422 113.988V114.528C78.552 114.546 77.6087 114.952 76.9151 115.657C76.2216 116.363 75.833 117.311 75.833 118.299C75.833 119.288 76.2216 120.236 76.9151 120.941C77.6087 121.647 78.552 122.052 79.5422 122.071C79.6221 122.071 79.6966 122.053 79.7738 122.048C81.1358 131.125 88.9646 136.678 98.4476 136.678C107.931 136.678 115.759 131.131 117.121 122.048C117.2 122.048 117.273 122.071 117.353 122.071C117.856 122.081 118.355 121.99 118.822 121.805C119.289 121.62 119.715 121.344 120.073 120.992C120.432 120.641 120.717 120.222 120.912 119.76C121.106 119.297 121.207 118.801 121.207 118.299C121.207 117.798 121.106 117.302 120.912 116.839C120.717 116.377 120.432 115.958 120.073 115.607C119.715 115.255 119.289 114.979 118.822 114.794C118.355 114.608 117.856 114.518 117.353 114.528V114.528Z" stroke="#264887" stroke-width="2" stroke-linecap="round" stroke-linejoin="round" class="figure-1"/>
    <path d="M98.4493 101.316C101.482 101.316 103.94 99.136 103.94 96.4463C103.94 93.7566 101.482 91.5762 98.4493 91.5762C95.4168 91.5762 92.9585 93.7566 92.9585 96.4463C92.9585 99.136 95.4168 101.316 98.4493 101.316Z" fill="#264887" stroke="#264887" stroke-width="2" stroke-linecap="round" stroke-linejoin="round" class="figure-1"/>
    <path d="M96.6082 90.2767C96.7952 88.6821 96.7399 87.0686 96.4441 85.4905C96.0318 83.2155 94.9513 81.1139 93.3396 79.4527C93.2643 79.3785 93.2162 79.2811 93.2032 79.1763C93.1903 79.0715 93.2132 78.9653 93.2682 78.8751C93.3232 78.7849 93.4072 78.7158 93.5065 78.6791C93.6057 78.6424 93.7145 78.6402 93.8152 78.6729C94.8877 79.0387 95.8406 79.688 96.5723 80.5516C97.6678 81.9487 98.4654 83.5545 98.9159 85.2704C99.4845 86.9542 99.8244 88.7064 99.9263 90.4802" fill="#264887" class="figure-1"/>
    <path d="M96.6082 90.2767C96.7952 88.6821 96.7399 87.0686 96.4441 85.4905C96.0318 83.2155 94.9513 81.1139 93.3396 79.4527C93.2643 79.3785 93.2162 79.2811 93.2032 79.1763C93.1903 79.0715 93.2132 78.9653 93.2682 78.8751C93.3232 78.7849 93.4072 78.7158 93.5065 78.6791C93.6057 78.6424 93.7145 78.6402 93.8152 78.6729C94.8877 79.0387 95.8406 79.688 96.5723 80.5516C97.6678 81.9487 98.4654 83.5545 98.9159 85.2704C99.4845 86.9542 99.8244 88.7064 99.9263 90.4802" stroke="#264887" stroke-width="2" stroke-linecap="round" stroke-linejoin="round" class="figure-1"/>
    <path d="M98.4468 92.4195C99.656 90.6491 101.271 89.1917 103.157 88.1683C103.486 88.0113 103.846 87.9285 104.21 87.9258C104.575 87.9232 104.935 88.0007 105.267 88.1529C105.598 88.3051 105.891 88.5282 106.126 88.8064C106.361 89.0845 106.532 89.4109 106.626 89.7623C107.11 91.5004 107.11 93.3372 106.626 95.0753C106.532 95.4267 106.361 95.7531 106.126 96.0313C105.891 96.3095 105.598 96.5326 105.267 96.6848C104.935 96.8369 104.575 96.9145 104.21 96.9118C103.846 96.9091 103.486 96.8263 103.157 96.6693C101.271 95.6463 99.6562 94.1894 98.4468 92.4195Z" fill="#D7403A" stroke="#264887" stroke-width="2" stroke-linecap="round" stroke-linejoin="round" class="figure-1"/>
    <path d="M98.4486 92.4215C97.2394 90.651 95.6246 89.1937 93.7381 88.1703C93.4092 88.0133 93.0497 87.9305 92.6852 87.9278C92.3206 87.9251 91.9599 88.0026 91.6288 88.1548C91.2976 88.307 91.0042 88.5301 90.7693 88.8083C90.5344 89.0865 90.3638 89.4129 90.2697 89.7643C89.7858 91.5024 89.7858 93.3392 90.2697 95.0773C90.3638 95.4287 90.5344 95.7551 90.7693 96.0332C91.0042 96.3114 91.2976 96.5345 91.6288 96.6867C91.9599 96.8389 92.3206 96.9164 92.6852 96.9137C93.0497 96.9111 93.4092 96.8283 93.7381 96.6713C95.6245 95.6482 97.2392 94.1914 98.4486 92.4215Z" fill="#D7403A" stroke="#264887" stroke-width="2" stroke-linecap="round" stroke-linejoin="round" class="figure-1"/>
    <path d="M98.4464 94.8543C99.794 94.8543 100.886 93.7644 100.886 92.42C100.886 91.0755 99.794 89.9856 98.4464 89.9856C97.0988 89.9856 96.0063 91.0755 96.0063 92.42C96.0063 93.7644 97.0988 94.8543 98.4464 94.8543Z" fill="#D7403A" stroke="#264887" stroke-width="2" stroke-linecap="round" stroke-linejoin="round" class="figure-1"/>
    <path d="M46.0976 108.582L38.6821 103.153L33.2172 110.702L40.6326 116.13L46.0976 108.582Z" stroke="#B5D9F1" stroke-width="2" stroke-linecap="round" stroke-linejoin="round"/>
    <path d="M18.9583 11.5219L10.082 13.8503L12.3718 22.8989L21.2481 20.5705L18.9583 11.5219Z" stroke="#B5D9F1" stroke-width="2" stroke-linecap="round" stroke-linejoin="round"/>
    <path d="M163.58 113.811L171.753 104.394" stroke="#B5D9F1" stroke-width="2" stroke-linecap="round" class="decor"/>
    <path d="M162.95 105.414L172.43 113.412" stroke="#B5D9F1" stroke-width="2" stroke-linecap="round" class="decor"/>
    <path fill-rule="evenodd" clip-rule="evenodd" d="M201 59.9998C204.314 59.9998 207 57.3135 207 53.9998C207 50.686 204.314 47.9998 201 47.9998C197.686 47.9998 195 50.686 195 53.9998C195 57.3135 197.686 59.9998 201 59.9998Z" stroke="#B5D9F1" stroke-width="2"/>
    <path d="M174.641 21.9208C174.688 21.2777 174.564 20.6336 174.282 20.0538C173.999 19.474 173.569 18.9793 173.033 18.6199C172.498 18.2605 171.877 18.0493 171.233 18.0076C170.59 17.966 169.947 18.0954 169.37 18.3828C164.045 21.32 158.974 24.6939 154.208 28.4699C153.878 28.7238 153.485 28.883 153.072 28.9306C152.659 28.9782 152.24 28.9122 151.861 28.7398C148.876 27.345 145.622 26.6221 142.327 26.6221C139.032 26.6221 135.777 27.345 132.792 28.7398C132.414 28.9122 131.995 28.9782 131.582 28.9306C131.168 28.883 130.776 28.7238 130.446 28.4699C125.679 24.6938 120.606 21.3198 115.281 18.3828C114.704 18.0954 114.061 17.966 113.417 18.0076C112.774 18.0493 112.153 18.2605 111.617 18.6199C111.082 18.9793 110.651 19.474 110.369 20.0538C110.086 20.6336 109.963 21.2777 110.01 21.9208C110.489 28.4315 113.861 39.0218 115.529 43.9399C115.632 44.2426 115.672 44.5636 115.644 44.8825C115.617 45.2013 115.523 45.5108 115.369 45.7912C114.176 47.93 111.277 53.5318 111.277 57.9868C111.277 77.1083 127.555 85.8041 142.335 85.8041C157.115 85.8041 173.393 77.1083 173.393 57.9868C173.393 53.5318 170.494 47.9236 169.301 45.7912C169.145 45.5114 169.05 45.2021 169.021 44.8833C168.992 44.5645 169.03 44.2431 169.133 43.9399C170.79 39.0218 174.165 28.4315 174.641 21.9208Z" fill="#B5D9F1" class="figure-2"/>
    <path d="M164.496 53.8802C159.029 52.8036 153.561 55.2379 149.732 59.7903C149.594 59.9555 149.401 60.0662 149.188 60.1028C148.976 60.1393 148.757 60.0994 148.571 59.9899C146.676 58.8802 144.52 58.2952 142.324 58.2952C140.128 58.2952 137.972 58.8802 136.077 59.9899C135.891 60.0994 135.672 60.1393 135.46 60.1028C135.247 60.0662 135.054 59.9555 134.916 59.7903C131.082 55.2315 125.619 52.7972 120.151 53.8802C116.559 54.6378 113.394 56.7474 111.313 59.7727C112.294 77.6499 128.012 85.8042 142.324 85.8042C156.636 85.8042 172.354 77.6579 173.334 59.7679C171.252 56.7447 168.088 54.6369 164.496 53.8802Z" fill="white" class="figure-2"/>
    <path d="M142.323 79.041C129.705 79.041 116.035 73.2778 111.39 60.8171C112.915 77.9676 128.294 85.804 142.323 85.804C156.353 85.804 171.732 77.9676 173.257 60.8187C168.612 73.2778 154.942 79.041 142.323 79.041Z" fill="#ECF5FB" class="figure-2"/>
    <path d="M174.641 21.9208C174.688 21.2777 174.564 20.6336 174.282 20.0538C173.999 19.474 173.569 18.9793 173.033 18.6199C172.498 18.2605 171.877 18.0493 171.233 18.0076C170.59 17.966 169.947 18.0954 169.37 18.3828C164.045 21.32 158.974 24.6939 154.208 28.4699C153.878 28.7238 153.485 28.883 153.072 28.9306C152.659 28.9782 152.24 28.9122 151.861 28.7398C148.876 27.345 145.622 26.6221 142.327 26.6221C139.032 26.6221 135.777 27.345 132.792 28.7398C132.414 28.9122 131.995 28.9782 131.582 28.9306C131.168 28.883 130.776 28.7238 130.446 28.4699C125.679 24.6938 120.606 21.3198 115.281 18.3828C114.704 18.0954 114.061 17.966 113.417 18.0076C112.774 18.0493 112.153 18.2605 111.617 18.6199C111.082 18.9793 110.651 19.474 110.369 20.0538C110.086 20.6336 109.963 21.2777 110.01 21.9208C110.489 28.4315 113.861 39.0218 115.529 43.9399C115.632 44.2426 115.672 44.5636 115.644 44.8825C115.617 45.2013 115.523 45.5108 115.369 45.7912C114.176 47.93 111.277 53.5318 111.277 57.9868C111.277 77.1083 127.555 85.8041 142.335 85.8041C157.115 85.8041 173.393 77.1083 173.393 57.9868C173.393 53.5318 170.494 47.9236 169.301 45.7912C169.145 45.5114 169.05 45.2021 169.021 44.8833C168.992 44.5645 169.03 44.2431 169.133 43.9399C170.79 39.0218 174.165 28.4315 174.641 21.9208Z" stroke="#264887" stroke-width="2" stroke-linecap="round" stroke-linejoin="round" class="figure-2"/>
    <path d="M155.783 73.6662C155.601 73.5281 155.383 73.4474 155.155 73.4343C154.927 73.4212 154.701 73.4763 154.505 73.5927C152.695 74.7222 150.629 75.3772 148.499 75.4973C146.369 75.6173 144.243 75.1985 142.317 74.2795C140.392 75.1985 138.266 75.6173 136.135 75.4973C134.005 75.3772 131.94 74.7222 130.13 73.5927C129.934 73.4777 129.709 73.4234 129.483 73.4366C129.256 73.4497 129.039 73.5298 128.858 73.6667C128.677 73.8036 128.541 73.991 128.467 74.2054C128.393 74.4197 128.384 74.6512 128.441 74.8706C129.502 78.9166 132.719 85.8042 142.317 85.8042C151.916 85.8042 155.133 78.9166 156.193 74.8706C156.252 74.6517 156.244 74.4204 156.171 74.206C156.098 73.9916 155.963 73.8037 155.783 73.6662Z" fill="#264887" stroke="#264887" stroke-width="2" stroke-linecap="round" stroke-linejoin="round" class="figure-2"/>
    <path d="M142.323 74.2795C140.216 75.3031 137.863 75.709 135.535 75.4504L137.378 89.3151C137.647 90.4245 138.28 91.4113 139.177 92.117C140.074 92.8227 141.183 93.2064 142.324 93.2064C143.465 93.2064 144.574 92.8227 145.471 92.117C146.368 91.4113 147.002 90.4245 147.27 89.3151L149.112 75.4552C146.783 75.7123 144.43 75.3047 142.323 74.2795Z" fill="#E78C89" class="figure-2"/>
    <path d="M142.323 78.4214C144.259 79.3603 146.406 79.7813 148.553 79.6434L149.112 75.4504C146.784 75.7089 144.43 75.3029 142.323 74.2795C140.216 75.3031 137.863 75.709 135.535 75.4504L136.092 79.6434C138.24 79.7816 140.387 79.3606 142.323 78.4214Z" fill="#D32D27" class="figure-2"/>
    <path d="M142.323 74.2795C140.216 75.3031 137.863 75.709 135.535 75.4504L137.378 89.3151C137.647 90.4245 138.28 91.4113 139.177 92.117C140.074 92.8227 141.183 93.2064 142.324 93.2064C143.465 93.2064 144.574 92.8227 145.471 92.117C146.368 91.4113 147.002 90.4245 147.27 89.3151L149.112 75.4552C146.783 75.7123 144.43 75.3047 142.323 74.2795Z" stroke="#264887" stroke-width="2" stroke-linecap="round" stroke-linejoin="round" class="figure-2"/>
    <path d="M156.335 34.8575C155.964 34.3194 155.814 33.6581 155.92 33.0124C156.025 32.3668 156.376 31.7869 156.899 31.3945C160.109 28.8481 163.591 26.6656 167.282 24.887C167.515 24.7953 167.765 24.7594 168.014 24.7824C168.263 24.8053 168.504 24.8864 168.716 25.0191C168.928 25.1518 169.105 25.3324 169.235 25.5464C169.364 25.7604 169.442 26.0018 169.461 26.2512C169.71 29.4793 167.937 35.8047 166.585 40.06C166.464 40.4443 166.252 40.7939 165.967 41.0798C165.683 41.3657 165.335 41.5795 164.951 41.7036C164.568 41.8277 164.16 41.8583 163.762 41.793C163.364 41.7278 162.988 41.5684 162.664 41.3283C160.213 39.5341 158.075 37.3478 156.335 34.8575Z" fill="white" stroke="#264887" stroke-width="2" stroke-linecap="round" stroke-linejoin="round" class="figure-2"/>
    <path d="M128.312 34.8575C128.684 34.3194 128.833 33.6581 128.728 33.0124C128.623 32.3668 128.271 31.7869 127.748 31.3945C124.538 28.8481 121.056 26.6656 117.365 24.887C117.133 24.7953 116.882 24.7594 116.633 24.7824C116.384 24.8053 116.144 24.8864 115.932 25.0191C115.72 25.1518 115.542 25.3324 115.413 25.5464C115.283 25.7604 115.206 26.0018 115.187 26.2512C114.938 29.4793 116.711 35.8047 118.062 40.06C118.184 40.4443 118.396 40.7939 118.68 41.0798C118.964 41.3657 119.313 41.5795 119.696 41.7036C120.08 41.8277 120.487 41.8583 120.885 41.793C121.283 41.7278 121.66 41.5684 121.983 41.3283C124.434 39.5341 126.573 37.3478 128.312 34.8575Z" fill="white" stroke="#264887" stroke-width="2" stroke-linecap="round" stroke-linejoin="round" class="figure-2"/>
    <path d="M122.729 48.8885C123.888 48.3515 125.143 48.054 126.419 48.0139C127.696 47.9739 128.967 48.192 130.157 48.6553C132.405 49.2864 134.368 50.6708 135.717 52.5767" stroke="#264887" stroke-width="2" stroke-linecap="round" stroke-linejoin="round" class="figure-2"/>
    <path d="M161.918 48.8885C160.759 48.3515 159.504 48.054 158.228 48.0139C156.952 47.9739 155.68 48.192 154.49 48.6553C152.242 49.2864 150.279 50.6708 148.93 52.5767" stroke="#264887" stroke-width="2" stroke-linecap="round" stroke-linejoin="round" class="figure-2"/>
    <path d="M148.638 65.7211C148.638 68.1762 142.323 70.168 142.323 70.168C142.323 70.168 136.009 68.1762 136.009 65.7211C136.009 63.266 138.837 61.2742 142.323 61.2742C145.81 61.2742 148.638 63.2644 148.638 65.7211Z" fill="#264887" stroke="#264887" stroke-width="2" stroke-linecap="round" stroke-linejoin="round" class="figure-2"/>
    <path d="M142.323 70.168V74.2795" stroke="#264887" stroke-width="2" stroke-linecap="round" stroke-linejoin="round" class="figure-2"/>
    <path d="M92.7567 58.2112C92.7446 56.863 92.2652 55.5606 91.3999 54.525C90.5346 53.4894 89.3367 52.7846 88.0097 52.5302V48.7393C88.0097 41.2029 85.0089 33.9753 79.6675 28.6463C74.3261 23.3173 67.0816 20.3235 59.5277 20.3235C51.9738 20.3235 44.7292 23.3173 39.3878 28.6463C34.0464 33.9753 31.0456 41.2029 31.0456 48.7393V52.5302C29.6585 52.7856 28.4119 53.5357 27.5381 54.6404C26.6643 55.7452 26.223 57.1293 26.2965 58.5346C26.37 59.94 26.9532 61.2708 27.9375 62.2788C28.9218 63.2869 30.2399 63.9034 31.6462 64.0134C32.9828 70.4043 36.4844 76.141 41.5621 80.2589C46.6399 84.3769 52.984 86.6249 59.5277 86.6249C66.0713 86.6249 72.4155 84.3769 77.4932 80.2589C82.5709 76.141 86.0725 70.4043 87.4091 64.0134C88.8635 63.8815 90.2167 63.2143 91.2051 62.1418C92.1936 61.0693 92.7467 59.6682 92.7567 58.2112Z" fill="#B5D9F1" stroke="#264887" stroke-width="2" stroke-linecap="round" stroke-linejoin="round" class="figure-3"/>
    <path d="M44.091 65.3144C46.0573 65.3144 47.6513 63.7241 47.6513 61.7624C47.6513 59.8007 46.0573 58.2104 44.091 58.2104C42.1247 58.2104 40.5308 59.8007 40.5308 61.7624C40.5308 63.7241 42.1247 65.3144 44.091 65.3144Z" fill="#90C6EB" class="figure-3"/>
    <path d="M74.947 65.3144C76.9133 65.3144 78.5072 63.7241 78.5072 61.7624C78.5072 59.8007 76.9133 58.2104 74.947 58.2104C72.9807 58.2104 71.3867 59.8007 71.3867 61.7624C71.3867 63.7241 72.9807 65.3144 74.947 65.3144Z" fill="#90C6EB" class="figure-3"/>
    <path d="M52.3999 70.2676C54.5087 71.6697 56.9862 72.4178 59.5204 72.4178C62.0546 72.4178 64.5321 71.6697 66.6409 70.2676" stroke="#264887" stroke-width="2" stroke-linecap="round" stroke-linejoin="round" class="figure-3"/>
    <path d="M46.3609 32.6798C46.3609 32.6798 60.6019 25.5759 67.7224 32.6798L81.9598 46.8877C81.9598 46.8877 89.0803 53.9916 98.5743 44.5197L93.8309 42.1517L100.951 37.4158C100.951 37.4158 96.2044 37.4158 91.4574 30.3118C86.7104 23.2079 79.5899 9 62.979 9C39.244 9 36.8848 23.2079 36.8848 23.2079L46.3609 32.6798Z" fill="#264887" class="figure-3"/>
    <path d="M62.976 15.9149C79.587 15.9149 86.7075 30.1228 91.4545 37.2268C92.4532 38.7533 93.6423 40.1469 94.9933 41.3743L100.948 37.4158C100.948 37.4158 96.2015 37.4158 91.4545 30.3118C86.7075 23.2079 79.587 9 62.976 9C39.241 9 36.8818 23.2079 36.8818 23.2079L39.0623 25.3869C41.9184 21.2536 48.4348 15.9149 62.976 15.9149Z" fill="#B5D9F1" class="figure-3"/>
    <path d="M46.3609 32.6798C46.3609 32.6798 60.6019 25.5759 67.7224 32.6798L81.9598 46.8877C81.9598 46.8877 89.0803 53.9916 98.5743 44.5197L93.8309 42.1517L100.951 37.4158C100.951 37.4158 96.2044 37.4158 91.4574 30.3118C86.7104 23.2079 79.5899 9 62.979 9C39.244 9 36.8848 23.2079 36.8848 23.2079L46.3609 32.6798Z" fill="#264887" stroke="#264887" stroke-width="2" stroke-linecap="round" stroke-linejoin="round" class="figure-3"/>
    <path d="M36.8675 23.2146C36.8675 23.2146 25 23.2146 25 37.4225C25 49.2624 30.9588 52.4399 30.9588 52.4399C30.9588 52.4399 36.8675 37.4225 46.3615 32.6865L36.8675 23.2146Z" fill="#264887" class="figure-3"/>
    <path d="M43.5984 29.9227L36.8675 23.2146C36.8675 23.2146 25 23.2146 25 37.4225C25 38.364 25.0393 39.252 25.1108 40.09C28.8534 31.9233 38.9944 29.4912 43.5984 29.9227Z" fill="white" class="figure-3"/>
    <path d="M36.8675 23.2146C36.8675 23.2146 25 23.2146 25 37.4225C25 49.2624 30.9588 52.4399 30.9588 52.4399C30.9588 52.4399 36.8675 37.4225 46.3615 32.6865L36.8675 23.2146Z" stroke="#264887" stroke-width="2" stroke-linecap="round" stroke-linejoin="round" class="figure-3"/>
    <path d="M48.8371 56.0397C50.8034 56.0397 52.3974 54.4495 52.3974 52.4878C52.3974 50.5261 50.8034 48.9358 48.8371 48.9358C46.8708 48.9358 45.2769 50.5261 45.2769 52.4878C45.2769 54.4495 46.8708 56.0397 48.8371 56.0397Z" fill="#264887" class="figure-3"/>
    <path d="M70.2009 56.0383C72.1671 56.0383 73.7611 54.448 73.7611 52.4863C73.7611 50.5246 72.1671 48.9343 70.2009 48.9343C68.2346 48.9343 66.6406 50.5246 66.6406 52.4863C66.6406 54.448 68.2346 56.0383 70.2009 56.0383Z" fill="#264887" class="figure-3"/>
</svg>
