<svg width="80" height="54" viewBox="0 0 80 54" fill="none" xmlns="http://www.w3.org/2000/svg">
    <path d="M15.5146 52.1582H63.5887" stroke="#264887" stroke-width="1.23" stroke-linecap="round" stroke-linejoin="round"/>
    <path d="M9.3335 52.021H12.7674" stroke="#264887" stroke-width="1.23" stroke-linecap="round" stroke-linejoin="round"/>
    <path d="M66.335 52.021H69.7688" stroke="#264887" stroke-width="1.23" stroke-linecap="round" stroke-linejoin="round"/>
    <path d="M58.4227 19.0407V8.26666C58.4227 7.82951 58.249 7.41028 57.9399 7.10117C57.6308 6.79206 57.2116 6.61841 56.7745 6.61841H52.1648C51.7277 6.61841 51.3085 6.79206 50.9994 7.10117C50.6903 7.41028 50.5166 7.82951 50.5166 8.26666V12.1977L58.4227 19.0407Z" fill="white" stroke="#264887" stroke-width="1.23" stroke-linecap="round" stroke-linejoin="round"/>
    <path d="M60.4528 52.0746H20.9277V28.6406L40.6903 11.4988L60.4528 28.6392V52.0746Z" fill="white"/>
    <path d="M40.6903 11.5015L20.9277 28.6405V32.6046L38.7426 17.1508C39.2834 16.6825 39.9749 16.4247 40.6903 16.4247C41.4057 16.4247 42.0972 16.6825 42.638 17.1508L60.4528 32.6018V28.6392L40.6903 11.5015Z" fill="#B5D9F1"/>
    <path d="M60.4528 52.0746H20.9277V28.6406L40.6903 11.4988L60.4528 28.6392V52.0746Z" stroke="#264887" stroke-width="1.23" stroke-linecap="round" stroke-linejoin="round"/>
    <path d="M19.0077 29.348C18.4014 29.3479 17.8098 29.1619 17.3125 28.8151C16.8153 28.4684 16.4363 27.9774 16.2267 27.4086C16.0171 26.8397 15.987 26.2203 16.1404 25.6338C16.2938 25.0473 16.6234 24.5219 17.0847 24.1285L38.7702 5.3508C39.3056 4.89145 39.9877 4.63892 40.6932 4.63892C41.3986 4.63892 42.0807 4.89145 42.6161 5.3508L64.2961 24.1244C64.8948 24.6344 65.2664 25.3613 65.3291 26.1453C65.3919 26.9293 65.1406 27.7061 64.6306 28.3048C64.1206 28.9035 63.3936 29.2751 62.6097 29.3378C61.8257 29.4005 61.0489 29.1492 60.4502 28.6392L40.6904 11.5015L20.9279 28.6406C20.3924 29.0975 19.7115 29.3483 19.0077 29.348Z" fill="#D32D27"/>
    <path d="M17.0885 27.418L38.7699 8.6444C39.3052 8.18505 39.9874 7.93252 40.6928 7.93252C41.3983 7.93252 42.0804 8.18505 42.6158 8.6444L64.2958 27.418C64.4983 27.597 64.6761 27.802 64.8246 28.0278C65.2362 27.4274 65.41 26.6955 65.3123 25.9742C65.2146 25.2528 64.8523 24.5935 64.2958 24.1242L42.6103 5.35202C42.0749 4.89267 41.3928 4.64014 40.6873 4.64014C39.9819 4.64014 39.2997 4.89267 38.7644 5.35202L17.0885 24.1242C16.5314 24.5934 16.1686 25.2528 16.0706 25.9745C15.9727 26.6962 16.1465 27.4285 16.5583 28.0292C16.7061 27.802 16.8845 27.5964 17.0885 27.418Z" fill="#E78C89"/>
    <path d="M19.0077 29.348C18.4014 29.3479 17.8098 29.1619 17.3125 28.8151C16.8153 28.4684 16.4363 27.9774 16.2267 27.4086C16.0171 26.8397 15.987 26.2203 16.1404 25.6338C16.2938 25.0473 16.6234 24.5219 17.0847 24.1285L38.7702 5.3508C39.3056 4.89145 39.9877 4.63892 40.6932 4.63892C41.3986 4.63892 42.0807 4.89145 42.6161 5.3508L64.2961 24.1244C64.8948 24.6344 65.2664 25.3613 65.3291 26.1453C65.3919 26.9293 65.1406 27.7061 64.6306 28.3048C64.1206 28.9035 63.3936 29.2751 62.6097 29.3378C61.8257 29.4005 61.0489 29.1492 60.4502 28.6392L40.6904 11.5015L20.9279 28.6406C20.3924 29.0975 19.7115 29.3483 19.0077 29.348V29.348Z" stroke="#264887" stroke-width="1.23" stroke-linecap="round" stroke-linejoin="round"/>
    <path d="M52.4944 6.61981H56.4461V4.315C56.4461 3.87785 56.2725 3.45862 55.9634 3.14951C55.6543 2.8404 55.235 2.66675 54.7979 2.66675H54.14C53.7028 2.66675 53.2836 2.8404 52.9745 3.14951C52.6654 3.45862 52.4917 3.87785 52.4917 4.315L52.4944 6.61981Z" fill="#E78C89" stroke="#264887" stroke-width="1.23" stroke-linecap="round" stroke-linejoin="round"/>
    <path d="M40.6366 52.0744H24.8257V49.4949C24.8257 49.1306 24.9704 48.7812 25.228 48.5236C25.4856 48.266 25.8349 48.1213 26.1992 48.1213H39.263C39.6273 48.1213 39.9767 48.266 40.2343 48.5236C40.4918 48.7812 40.6366 49.1306 40.6366 49.4949V52.0744Z" fill="white" stroke="#264887" stroke-width="1.23" stroke-linecap="round" stroke-linejoin="round"/>
    <path d="M38.6602 48.1214H26.8024V39.2291C26.7905 38.4429 26.935 37.6622 27.2276 36.9323C27.5202 36.2025 27.955 35.5382 28.5067 34.978C29.0584 34.4178 29.7161 33.9729 30.4414 33.6693C31.1666 33.3656 31.9451 33.2092 32.7313 33.2092C33.5176 33.2092 34.2961 33.3656 35.0213 33.6693C35.7466 33.9729 36.4042 34.4178 36.956 34.978C37.5077 35.5382 37.9425 36.2025 38.2351 36.9323C38.5277 37.6622 38.6722 38.4429 38.6602 39.2291V48.1214Z" fill="#264887" stroke="#264887" stroke-width="1.23" stroke-linecap="round" stroke-linejoin="round"/>
    <path d="M34.708 43.1806V41.2041" stroke="white" stroke-width="1.23" stroke-linecap="round" stroke-linejoin="round"/>
    <path d="M40.6366 27.3712C42.8199 27.3712 44.5897 25.6013 44.5897 23.4181C44.5897 21.2349 42.8199 19.4651 40.6366 19.4651C38.4534 19.4651 36.6836 21.2349 36.6836 23.4181C36.6836 25.6013 38.4534 27.3712 40.6366 27.3712Z" fill="#B5D9F1"/>
    <path d="M43.4319 20.6245C42.6865 19.9042 41.6879 19.5055 40.6514 19.5143C39.6148 19.5231 38.6232 19.9387 37.8901 20.6716C37.157 21.4045 36.7412 22.3961 36.7321 23.4326C36.723 24.4692 37.1214 25.4678 37.8416 26.2134L43.4319 20.6245Z" fill="white"/>
    <path d="M40.6366 27.3712C42.8199 27.3712 44.5897 25.6013 44.5897 23.4181C44.5897 21.2349 42.8199 19.4651 40.6366 19.4651C38.4534 19.4651 36.6836 21.2349 36.6836 23.4181C36.6836 25.6013 38.4534 27.3712 40.6366 27.3712Z" stroke="#264887" stroke-width="1.23" stroke-linecap="round" stroke-linejoin="round"/>
    <path d="M53.0961 34.2886H47.9385C47.1799 34.2886 46.5649 34.9035 46.5649 35.6621V44.7728C46.5649 45.5314 47.1799 46.1464 47.9385 46.1464H53.0961C53.8547 46.1464 54.4697 45.5314 54.4697 44.7728V35.6621C54.4697 34.9035 53.8547 34.2886 53.0961 34.2886Z" fill="#B5D9F1"/>
    <path d="M54.445 35.8131C54.4172 35.4014 54.2346 35.0154 53.934 34.7329C53.6333 34.4503 53.2368 34.292 52.8242 34.2898H48.2132C47.776 34.2898 47.3568 34.4634 47.0477 34.7726C46.7386 35.0817 46.5649 35.5009 46.5649 35.938V43.6944L54.445 35.8131Z" fill="white"/>
    <path d="M53.0961 34.2886H47.9385C47.1799 34.2886 46.5649 34.9035 46.5649 35.6621V44.7728C46.5649 45.5314 47.1799 46.1464 47.9385 46.1464H53.0961C53.8547 46.1464 54.4697 45.5314 54.4697 44.7728V35.6621C54.4697 34.9035 53.8547 34.2886 53.0961 34.2886Z" stroke="#264887" stroke-width="1.23" stroke-linecap="round" stroke-linejoin="round"/>
    <rect x="68.4443" y="8" width="3.33334" height="3.33334" stroke="#E78C89" stroke-width="1.25" stroke-linecap="round" stroke-linejoin="round"/>
    <path fill-rule="evenodd" clip-rule="evenodd" d="M5.66667 8.66682C6.58714 8.66682 7.33333 7.92063 7.33333 7.00016C7.33333 6.07969 6.58714 5.3335 5.66667 5.3335C4.74619 5.3335 4 6.07969 4 7.00016C4 7.92063 4.74619 8.66682 5.66667 8.66682Z" stroke="#E78C89" stroke-width="1.25"/>
    <rect width="3.33333" height="3.33333" transform="matrix(0.707106 -0.707108 0.707106 0.707108 13.3335 14.3572)" stroke="#E78C89" stroke-width="1.25" stroke-linecap="round" stroke-linejoin="round"/>
    <path d="M22.8054 2.80564L25.9725 5.97279" stroke="#E78C89" stroke-width="1.25" stroke-linecap="round"/>
    <path d="M25.8611 2.80564L22.694 5.97279" stroke="#E78C89" stroke-width="1.25" stroke-linecap="round"/>
    <path d="M66.2224 40.0001C72.3589 40.0001 77.3335 35.0254 77.3335 28.8889C77.3335 22.7524 72.3589 17.7778 66.2224 17.7778C60.0859 17.7778 55.1113 22.7524 55.1113 28.8889C55.1113 35.0254 60.0859 40.0001 66.2224 40.0001Z" fill="#DAECF8"/>
    <path d="M66.2224 40.0001C72.3589 40.0001 77.3335 35.0254 77.3335 28.8889C77.3335 22.7524 72.3589 17.7778 66.2224 17.7778C60.0859 17.7778 55.1113 22.7524 55.1113 28.8889C55.1113 35.0254 60.0859 40.0001 66.2224 40.0001Z" stroke="#264887" stroke-width="1.25" stroke-linecap="round" stroke-linejoin="round"/>
    <path d="M58.624 30.974L64.9963 27.4427C64.9043 26.4719 65.1493 25.499 65.6902 24.6877C66.2311 23.8763 67.0349 23.276 67.9664 22.9875C68.8978 22.6991 69.9002 22.7402 70.805 23.1039C71.7097 23.4677 72.4616 24.1318 72.9343 24.9847C73.407 25.8376 73.5715 26.8273 73.4003 27.7872C73.2291 28.7472 72.7326 29.619 71.9943 30.2559C71.2559 30.8929 70.3208 31.2561 69.3461 31.2847C68.3714 31.3132 67.4165 31.0053 66.6422 30.4127L64.8439 31.4092L63.6899 31.0782L63.3589 32.2322L62.2049 31.9011L61.8739 33.0551L60.2699 33.944L57.962 33.2819L58.624 30.974ZM70.6719 27.6348C70.8829 27.5179 71.0546 27.3409 71.1651 27.1264C71.2756 26.9119 71.32 26.6695 71.2927 26.4297C71.2654 26.19 71.1676 25.9637 71.0117 25.7795C70.8559 25.5954 70.6489 25.4616 70.4169 25.395C70.185 25.3285 69.9385 25.3322 69.7087 25.4058C69.4789 25.4793 69.276 25.6193 69.1258 25.8081C68.9756 25.997 68.8847 26.2261 68.8647 26.4666C68.8447 26.707 68.8965 26.948 69.0134 27.1591C69.0911 27.2992 69.1956 27.4227 69.3209 27.5224C69.4463 27.6222 69.5901 27.6962 69.7441 27.7404C69.8981 27.7846 70.0593 27.798 70.2185 27.7799C70.3777 27.7618 70.5317 27.7125 70.6719 27.6348Z" fill="#E78C89"/>
    <path d="M59.2226 33.6435L57.9623 33.282L58.6244 30.9741L64.9967 27.4427C64.918 26.6152 65.0842 25.7827 65.4746 25.0488C65.865 24.3149 66.4624 23.7118 67.1926 23.3145C67.9228 22.9173 68.7537 22.7432 69.5819 22.8141C70.4102 22.8849 71.1994 23.1976 71.8515 23.7131L71.7255 23.6691C71.0563 23.4468 70.3421 23.3952 69.6478 23.5188C68.9535 23.6424 68.3011 23.9374 67.7496 24.377C67.1982 24.8166 66.7653 25.387 66.4901 26.0363C66.2149 26.6856 66.1062 27.3933 66.1738 28.0953L59.8016 31.6266L59.2229 33.6439" fill="#E78C89"/>
    <path d="M58.624 30.974L64.9963 27.4427C64.9043 26.4719 65.1493 25.499 65.6902 24.6877C66.2311 23.8763 67.0349 23.276 67.9664 22.9875C68.8978 22.6991 69.9002 22.7402 70.805 23.1039C71.7097 23.4677 72.4616 24.1318 72.9343 24.9847C73.407 25.8376 73.5715 26.8273 73.4003 27.7872C73.2291 28.7472 72.7326 29.619 71.9943 30.2559C71.2559 30.8929 70.3208 31.2561 69.3461 31.2847C68.3714 31.3132 67.4165 31.0053 66.6422 30.4127L64.8439 31.4092L63.6899 31.0782L63.3589 32.2322L62.2049 31.9011L61.8739 33.0551L60.2699 33.944L57.962 33.2819L58.624 30.974ZM70.6719 27.6348C70.8829 27.5179 71.0546 27.3409 71.1651 27.1264C71.2756 26.9119 71.32 26.6695 71.2927 26.4297C71.2654 26.19 71.1676 25.9637 71.0117 25.7795C70.8559 25.5954 70.6489 25.4616 70.4169 25.395C70.185 25.3285 69.9385 25.3322 69.7087 25.4058C69.4789 25.4793 69.276 25.6193 69.1258 25.8081C68.9756 25.997 68.8847 26.2261 68.8647 26.4666C68.8447 26.707 68.8965 26.948 69.0134 27.1591C69.0911 27.2992 69.1956 27.4227 69.3209 27.5224C69.4463 27.6222 69.5901 27.6962 69.7441 27.7404C69.8981 27.7846 70.0593 27.798 70.2185 27.7799C70.3777 27.7618 70.5317 27.7125 70.6719 27.6348Z" fill="#E78C89" stroke="#264887" stroke-width="1.25" stroke-linecap="round" stroke-linejoin="round"/>
</svg>
