<svg width="180" height="120" viewBox="0 0 180 120" fill="none" xmlns="http://www.w3.org/2000/svg">
    <path d="M53.4342 97.5591C52.4367 97.5589 51.4562 97.3004 50.5882 96.8088C49.7203 96.3172 48.9944 95.6092 48.4813 94.7538C47.9681 93.8984 47.6852 92.9247 47.66 91.9275C47.6349 90.9303 47.8684 89.9436 48.3377 89.0634L84.9361 20.4636C85.4288 19.5397 86.1634 18.767 87.0613 18.2283C87.9592 17.6895 88.9866 17.4049 90.0337 17.4049C91.0808 17.4049 92.1083 17.6895 93.0062 18.2283C93.9041 18.767 94.6387 19.5397 95.1314 20.4636L131.713 89.061C132.183 89.9418 132.417 90.9295 132.392 91.9276C132.366 92.9258 132.083 93.9004 131.569 94.7564C131.055 95.6123 130.328 96.3204 129.458 96.8117C128.589 97.3029 127.607 97.5604 126.609 97.5591H53.4342Z" fill="#F0C936"/>
    <path d="M100.213 29.9977C99.2594 29.3201 98.1184 28.9564 96.9486 28.9568C95.8992 28.959 94.8699 29.2448 93.9697 29.7842C93.0695 30.3235 92.3319 31.0963 91.835 32.0206L56.9142 97.5592H53.4342C52.4367 97.5589 51.4562 97.3004 50.5882 96.8088C49.7203 96.3172 48.9944 95.6092 48.4813 94.7538C47.9681 93.8984 47.6852 92.9247 47.66 91.9275C47.6349 90.9304 47.8684 89.9436 48.3377 89.0635L84.9361 20.4636C85.4288 19.5397 86.1634 18.767 87.0613 18.2283C87.9592 17.6895 88.9866 17.4049 90.0337 17.4049C91.0808 17.4049 92.1083 17.6895 93.0062 18.2283C93.9041 18.767 94.6387 19.5397 95.1314 20.4636L100.218 30.0001" fill="#FAE8A7"/>
    <path d="M53.4342 97.5591C52.4367 97.5589 51.4562 97.3004 50.5882 96.8088C49.7203 96.3172 48.9944 95.6092 48.4813 94.7538C47.9681 93.8984 47.6852 92.9247 47.66 91.9275C47.6349 90.9303 47.8684 89.9436 48.3377 89.0634L84.9361 20.4636C85.4288 19.5397 86.1634 18.767 87.0613 18.2283C87.9592 17.6895 88.9866 17.4049 90.0337 17.4049C91.0808 17.4049 92.1083 17.6895 93.0062 18.2283C93.9041 18.767 94.6387 19.5397 95.1314 20.4636L131.713 89.061C132.183 89.9418 132.417 90.9295 132.392 91.9276C132.366 92.9258 132.083 93.9004 131.569 94.7564C131.055 95.6123 130.328 96.3205 129.458 96.8117C128.589 97.3029 127.607 97.5604 126.609 97.5591H53.4342Z" stroke="#264887" stroke-width="2" stroke-linecap="round" stroke-linejoin="round" stroke-dasharray="182 7 1 4"/>
    <path d="M91.3877 70.3111C91.3109 70.6156 91.1346 70.8858 90.8869 71.0788C90.6391 71.2718 90.334 71.3766 90.0199 71.3766C89.7059 71.3766 89.4008 71.2718 89.153 71.0788C88.9052 70.8858 88.729 70.6156 88.6521 70.3111C83.1247 48.5269 83.3573 49.509 83.3353 49.291C83.246 48.3594 83.3525 47.4195 83.6478 46.5314C83.9432 45.6434 84.4208 44.8269 85.0503 44.1343C85.6797 43.4417 86.4469 42.8883 87.3027 42.5096C88.1585 42.1309 89.0841 41.9353 90.0199 41.9353C90.9558 41.9353 91.8813 42.1309 92.7371 42.5096C93.593 42.8883 94.3602 43.4417 94.9896 44.1343C95.619 44.8269 96.0967 45.6434 96.392 46.5314C96.6874 47.4195 96.7938 48.3594 96.7046 49.291C96.6899 49.509 96.9176 48.522 91.3877 70.3111Z" fill="#264887" stroke="#264887" stroke-width="2" stroke-linecap="round" stroke-linejoin="round"/>
    <path d="M90.0208 88.6715C88.947 88.672 87.8971 88.354 87.0039 87.7578C86.1108 87.1616 85.4145 86.314 85.0031 85.322C84.5917 84.3301 84.4837 83.2385 84.6927 82.1852C84.9017 81.1318 85.4184 80.1642 86.1774 79.4045C86.9364 78.6448 87.9036 78.1273 88.9567 77.9173C90.0099 77.7073 91.1016 77.8144 92.0939 78.2249C93.0862 78.6354 93.9345 79.3309 94.5315 80.2235C95.1285 81.1161 95.4474 82.1657 95.4479 83.2396C95.4472 84.6791 94.8754 86.0597 93.8579 87.0781C92.8404 88.0965 91.4604 88.6696 90.0208 88.6715Z" fill="#264887" stroke="#264887" stroke-width="2" stroke-linecap="round" stroke-linejoin="round"/>
    <path d="M44 117.5H135" stroke="#EDBF0E" stroke-width="2" stroke-linecap="round" stroke-dasharray="1 6 164 5"/>
    <rect x="150.645" y="25.8787" width="6.35515" height="6.35516" stroke="#EDBF0E" stroke-width="2" stroke-linecap="round" stroke-linejoin="round"/>
    <path fill-rule="evenodd" clip-rule="evenodd" d="M24.1776 14.4392C25.9325 14.4392 27.3551 13.0166 27.3551 11.2617C27.3551 9.50675 25.9325 8.08411 24.1776 8.08411C22.4226 8.08411 21 9.50675 21 11.2617C21 13.0166 22.4226 14.4392 24.1776 14.4392Z" stroke="#EDBF0E" stroke-width="2"/>
    <rect width="6.35514" height="6.35514" transform="matrix(0.707106 -0.707107 0.707106 0.707107 38.7949 25.2882)" stroke="#EDBF0E" stroke-width="2" stroke-linecap="round" stroke-linejoin="round"/>
    <path d="M56.8537 3.2648L62.892 9.30312" stroke="#EDBF0E" stroke-width="2" stroke-linecap="round"/>
    <path d="M62.6786 3.2648L56.6403 9.30312" stroke="#EDBF0E" stroke-width="2" stroke-linecap="round"/>
</svg>
