<svg width="60" height="40" viewBox="0 0 60 40" fill="none" xmlns="http://www.w3.org/2000/svg">
<path d="M11.6357 39.1187H47.6912" stroke="#264887" stroke-width="1.25" stroke-linecap="round" stroke-linejoin="round"/>
<path d="M7 39.0156H9.57539" stroke="#264887" stroke-width="1.25" stroke-linecap="round" stroke-linejoin="round"/>
<path d="M49.7514 39.0156H52.3268" stroke="#264887" stroke-width="1.25" stroke-linecap="round" stroke-linejoin="round"/>
<path d="M43.8168 14.2806V6.20005C43.8168 5.8722 43.6865 5.55777 43.4547 5.32594C43.2229 5.09411 42.9085 4.96387 42.5806 4.96387H39.1234C38.7955 4.96387 38.4811 5.09411 38.2493 5.32594C38.0174 5.55777 37.8872 5.8722 37.8872 6.20005V9.14837L43.8168 14.2806Z" fill="white" stroke="#264887" stroke-width="1.25" stroke-linecap="round" stroke-linejoin="round"/>
<path d="M45.3394 39.0559H15.6956V21.4804L30.5175 8.62402L45.3394 21.4794V39.0559Z" fill="white"/>
<path d="M30.5175 8.62598L15.6956 21.4803V24.4533L29.0568 12.863C29.4624 12.5117 29.981 12.3184 30.5175 12.3184C31.0541 12.3184 31.5727 12.5117 31.9783 12.863L45.3394 24.4513V21.4792L30.5175 8.62598Z" fill="#B5D9F1"/>
<path d="M45.3394 39.0559H15.6956V21.4804L30.5175 8.62402L45.3394 21.4794V39.0559Z" stroke="#264887" stroke-width="1.25" stroke-linecap="round" stroke-linejoin="round"/>
<path d="M14.2554 22.0108C13.8008 22.0107 13.357 21.8713 12.9841 21.6112C12.6111 21.3511 12.3269 20.9829 12.1697 20.5562C12.0125 20.1296 11.99 19.665 12.105 19.2251C12.2201 18.7853 12.4673 18.3912 12.8132 18.0962L29.0773 4.01292C29.4789 3.6684 29.9905 3.479 30.5196 3.479C31.0486 3.479 31.5602 3.6684 31.9618 4.01292L48.2218 18.0931C48.6708 18.4756 48.9495 19.0208 48.9965 19.6088C49.0436 20.1968 48.8551 20.7794 48.4726 21.2284C48.0901 21.6774 47.5449 21.9561 46.9569 22.0032C46.369 22.0502 45.7864 21.8617 45.3373 21.4792L30.5175 8.62596L15.6956 21.4803C15.294 21.8229 14.7833 22.0111 14.2554 22.0108Z" fill="#D32D27"/>
<path d="M12.8163 20.5634L29.0773 6.48318C29.4788 6.13866 29.9904 5.94927 30.5195 5.94927C31.0486 5.94927 31.5602 6.13866 31.9617 6.48318L48.2217 20.5634C48.3736 20.6976 48.507 20.8514 48.6184 21.0208C48.9271 20.5705 49.0574 20.0215 48.9841 19.4805C48.9108 18.9395 48.6391 18.445 48.2217 18.0931L31.9576 4.01389C31.5561 3.66938 31.0445 3.47998 30.5154 3.47998C29.9863 3.47998 29.4747 3.66938 29.0732 4.01389L12.8163 18.0931C12.3985 18.4449 12.1264 18.9395 12.0529 19.4808C11.9794 20.022 12.1098 20.5713 12.4186 21.0218C12.5295 20.8514 12.6633 20.6972 12.8163 20.5634Z" fill="#E78C89"/>
<path d="M14.2554 22.0108C13.8008 22.0107 13.357 21.8713 12.9841 21.6112C12.6111 21.3511 12.3269 20.9829 12.1697 20.5562C12.0125 20.1296 11.99 19.665 12.105 19.2251C12.2201 18.7853 12.4673 18.3912 12.8132 18.0962L29.0773 4.01292C29.4789 3.6684 29.9905 3.479 30.5196 3.479C31.0486 3.479 31.5602 3.6684 31.9618 4.01292L48.2218 18.0931C48.6708 18.4756 48.9495 19.0208 48.9965 19.6088C49.0436 20.1968 48.8551 20.7794 48.4726 21.2284C48.0901 21.6774 47.5449 21.9561 46.9569 22.0031C46.369 22.0502 45.7864 21.8617 45.3373 21.4792L30.5175 8.62596L15.6956 21.4803C15.294 21.8229 14.7833 22.0111 14.2554 22.0108V22.0108Z" stroke="#264887" stroke-width="1.25" stroke-linecap="round" stroke-linejoin="round"/>
<path d="M39.3705 4.96479H42.3343V3.23619C42.3343 2.90833 42.204 2.5939 41.9722 2.36207C41.7404 2.13024 41.426 2 41.0981 2H40.6047C40.2768 2 39.9624 2.13024 39.7305 2.36207C39.4987 2.5939 39.3685 2.90833 39.3685 3.23619L39.3705 4.96479Z" fill="#E78C89" stroke="#264887" stroke-width="1.25" stroke-linecap="round" stroke-linejoin="round"/>
<path d="M30.4773 39.0556H18.6192V37.121C18.6192 36.8478 18.7277 36.5857 18.9209 36.3925C19.1141 36.1994 19.3761 36.0908 19.6493 36.0908H29.4472C29.7204 36.0908 29.9824 36.1994 30.1756 36.3925C30.3688 36.5857 30.4773 36.8478 30.4773 37.121V39.0556Z" fill="white" stroke="#264887" stroke-width="1.25" stroke-linecap="round" stroke-linejoin="round"/>
<path d="M28.995 36.0908H20.1016V29.4216C20.0926 28.832 20.201 28.2464 20.4205 27.6991C20.6399 27.1517 20.966 26.6535 21.3798 26.2333C21.7936 25.8132 22.2869 25.4795 22.8308 25.2518C23.3748 25.024 23.9586 24.9067 24.5483 24.9067C25.138 24.9067 25.7218 25.024 26.2658 25.2518C26.8097 25.4795 27.303 25.8132 27.7168 26.2333C28.1306 26.6535 28.4567 27.1517 28.6761 27.6991C28.8956 28.2464 29.0039 28.832 28.995 29.4216V36.0908Z" fill="#264887" stroke="#264887" stroke-width="1.25" stroke-linecap="round" stroke-linejoin="round"/>
<path d="M26.031 32.3857V30.9033" stroke="white" stroke-width="1.60389" stroke-linecap="round" stroke-linejoin="round"/>
<path d="M30.4772 20.5282C32.1147 20.5282 33.442 19.2008 33.442 17.5634C33.442 15.926 32.1147 14.5986 30.4772 14.5986C28.8398 14.5986 27.5125 15.926 27.5125 17.5634C27.5125 19.2008 28.8398 20.5282 30.4772 20.5282Z" fill="#B5D9F1"/>
<path d="M32.5735 15.4685C32.0144 14.9282 31.2655 14.6292 30.4881 14.6358C29.7107 14.6425 28.967 14.9542 28.4171 15.5039C27.8673 16.0535 27.5554 16.7972 27.5486 17.5746C27.5418 18.352 27.8407 19.101 28.3808 19.6602L32.5735 15.4685Z" fill="white"/>
<path d="M30.4772 20.5282C32.1147 20.5282 33.442 19.2008 33.442 17.5634C33.442 15.926 32.1147 14.5986 30.4772 14.5986C28.8398 14.5986 27.5125 15.926 27.5125 17.5634C27.5125 19.2008 28.8398 20.5282 30.4772 20.5282Z" stroke="#264887" stroke-width="1.25" stroke-linecap="round" stroke-linejoin="round"/>
<path d="M39.8217 25.7163H35.9535C35.3846 25.7163 34.9233 26.1775 34.9233 26.7465V33.5795C34.9233 34.1484 35.3846 34.6097 35.9535 34.6097H39.8217C40.3907 34.6097 40.8519 34.1484 40.8519 33.5795V26.7465C40.8519 26.1775 40.3907 25.7163 39.8217 25.7163Z" fill="#B5D9F1"/>
<path d="M40.8334 26.8597C40.8125 26.551 40.6756 26.2615 40.4501 26.0496C40.2246 25.8376 39.9272 25.7189 39.6178 25.7173H36.1595C35.8317 25.7173 35.5172 25.8475 35.2854 26.0794C35.0536 26.3112 34.9233 26.6256 34.9233 26.9535V32.7708L40.8334 26.8597Z" fill="white"/>
<path d="M39.8217 25.7163H35.9535C35.3846 25.7163 34.9233 26.1775 34.9233 26.7465V33.5795C34.9233 34.1484 35.3846 34.6097 35.9535 34.6097H39.8217C40.3907 34.6097 40.8519 34.1484 40.8519 33.5795V26.7465C40.8519 26.1775 40.3907 25.7163 39.8217 25.7163Z" stroke="#264887" stroke-width="1.25" stroke-linecap="round" stroke-linejoin="round"/>
<rect x="54" y="11" width="2.5" height="2.50001" stroke="#E78C89" stroke-linecap="round" stroke-linejoin="round"/>
<path fill-rule="evenodd" clip-rule="evenodd" d="M4.25 6.5C4.94036 6.5 5.5 5.94035 5.5 5.25C5.5 4.55964 4.94036 4 4.25 4C3.55964 4 3 4.55964 3 5.25C3 5.94035 3.55964 6.5 4.25 6.5Z" stroke="#E78C89"/>
<rect width="2.5" height="2.5" transform="matrix(0.707106 -0.707107 0.707106 0.707107 10 10.7676)" stroke="#E78C89" stroke-linecap="round" stroke-linejoin="round"/>
<path d="M17.1042 2.10417L19.4795 4.47953" stroke="#E78C89" stroke-linecap="round"/>
<path d="M19.3958 2.10417L17.0205 4.47953" stroke="#E78C89" stroke-linecap="round"/>
</svg>
