<svg width="60" height="40" viewBox="0 0 60 40" fill="none" xmlns="http://www.w3.org/2000/svg">
<path d="M11.6357 39.1187H47.6912" stroke="#DCDFE4" stroke-width="1.25" stroke-linecap="round" stroke-linejoin="round"/>
<path d="M7 39.0156H9.57539" stroke="#DCDFE4" stroke-width="1.25" stroke-linecap="round" stroke-linejoin="round"/>
<path d="M49.7515 39.0156H52.3269" stroke="#DCDFE4" stroke-width="1.25" stroke-linecap="round" stroke-linejoin="round"/>
<path d="M43.8168 14.2806V6.20005C43.8168 5.8722 43.6865 5.55777 43.4547 5.32594C43.2229 5.09411 42.9085 4.96387 42.5806 4.96387H39.1234C38.7955 4.96387 38.4811 5.09411 38.2493 5.32594C38.0174 5.55777 37.8872 5.8722 37.8872 6.20005V9.14837L43.8168 14.2806Z" fill="white" stroke="#DCDFE4" stroke-width="1.25" stroke-linecap="round" stroke-linejoin="round"/>
<path d="M45.3394 39.0559H15.6956V21.4804L30.5175 8.62402L45.3394 21.4794V39.0559Z" fill="white"/>
<path d="M45.3394 39.0559H15.6956V21.4804L30.5175 8.62402L45.3394 21.4794V39.0559Z" stroke="#DCDFE4" stroke-width="1.25" stroke-linecap="round" stroke-linejoin="round"/>
<path d="M14.2555 22.0108C13.8008 22.0107 13.3571 21.8713 12.9841 21.6112C12.6112 21.3511 12.327 20.9829 12.1698 20.5562C12.0126 20.1296 11.99 19.665 12.1051 19.2251C12.2201 18.7853 12.4673 18.3912 12.8133 18.0962L29.0774 4.01292C29.4789 3.6684 29.9905 3.479 30.5196 3.479C31.0487 3.479 31.5603 3.6684 31.9618 4.01292L48.2218 18.0931C48.6709 18.4756 48.9496 19.0208 48.9966 19.6088C49.0437 20.1968 48.8552 20.7794 48.4727 21.2284C48.0902 21.6774 47.545 21.9561 46.957 22.0032C46.369 22.0502 45.7864 21.8617 45.3374 21.4792L30.5176 8.62596L15.6957 21.4803C15.2941 21.8229 14.7834 22.0111 14.2555 22.0108Z" fill="#DCDFE4"/>
<path d="M12.8164 20.5634L29.0774 6.48318C29.4789 6.13866 29.9905 5.94927 30.5196 5.94927C31.0487 5.94927 31.5603 6.13866 31.9618 6.48318L48.2218 20.5634C48.3737 20.6976 48.5071 20.8514 48.6185 21.0208C48.9271 20.5705 49.0575 20.0215 48.9842 19.4805C48.9109 18.9395 48.6392 18.445 48.2218 18.0931L31.9577 4.01389C31.5562 3.66938 31.0446 3.47998 30.5155 3.47998C29.9864 3.47998 29.4748 3.66938 29.0733 4.01389L12.8164 18.0931C12.3986 18.4449 12.1265 18.9395 12.053 19.4808C11.9795 20.022 12.1098 20.5713 12.4187 21.0218C12.5295 20.8514 12.6634 20.6972 12.8164 20.5634Z" fill="#DCDFE4"/>
<path d="M14.2555 22.0108C13.8008 22.0107 13.3571 21.8713 12.9841 21.6112C12.6112 21.3511 12.327 20.9829 12.1698 20.5562C12.0126 20.1296 11.99 19.665 12.1051 19.2251C12.2201 18.7853 12.4673 18.3912 12.8133 18.0962L29.0774 4.01292C29.4789 3.6684 29.9905 3.479 30.5196 3.479C31.0487 3.479 31.5603 3.6684 31.9618 4.01292L48.2218 18.0931C48.6709 18.4756 48.9496 19.0208 48.9966 19.6088C49.0436 20.1968 48.8552 20.7794 48.4727 21.2284C48.0902 21.6774 47.545 21.9561 46.957 22.0031C46.369 22.0502 45.7864 21.8617 45.3374 21.4792L30.5176 8.62596L15.6957 21.4803C15.2941 21.8229 14.7834 22.0111 14.2555 22.0108V22.0108Z" stroke="#DCDFE4" stroke-width="1.25" stroke-linecap="round" stroke-linejoin="round"/>
<path d="M39.3705 4.96479H42.3342V3.23619C42.3342 2.90833 42.204 2.5939 41.9722 2.36207C41.7403 2.13024 41.4259 2 41.098 2H40.6046C40.2767 2 39.9623 2.13024 39.7305 2.36207C39.4986 2.5939 39.3684 2.90833 39.3684 3.23619L39.3705 4.96479Z" fill="#DCDFE4" stroke="#DCDFE4" stroke-width="1.25" stroke-linecap="round" stroke-linejoin="round"/>
<path d="M30.4773 39.0559H18.6191V37.1212C18.6191 36.848 18.7277 36.586 18.9209 36.3928C19.1141 36.1996 19.3761 36.0911 19.6493 36.0911H29.4471C29.7203 36.0911 29.9824 36.1996 30.1756 36.3928C30.3687 36.586 30.4773 36.848 30.4773 37.1212V39.0559Z" fill="white" stroke="#DCDFE4" stroke-width="1.25" stroke-linecap="round" stroke-linejoin="round"/>
<path d="M28.9949 36.0908H20.1016V29.4216C20.0926 28.832 20.201 28.2464 20.4204 27.6991C20.6399 27.1517 20.966 26.6535 21.3798 26.2333C21.7936 25.8132 22.2868 25.4795 22.8308 25.2518C23.3747 25.024 23.9586 24.9067 24.5483 24.9067C25.138 24.9067 25.7218 25.024 26.2657 25.2518C26.8097 25.4795 27.3029 25.8132 27.7167 26.2333C28.1305 26.6535 28.4567 27.1517 28.6761 27.6991C28.8955 28.2464 29.0039 28.832 28.9949 29.4216V36.0908Z" fill="#DCDFE4" stroke="#DCDFE4" stroke-width="1.25" stroke-linecap="round" stroke-linejoin="round"/>
<path d="M26.031 32.3855V30.9031" stroke="white" stroke-width="1.60389" stroke-linecap="round" stroke-linejoin="round"/>
<path d="M32.5736 15.4682C32.0145 14.928 31.2656 14.629 30.4881 14.6356C29.7107 14.6422 28.967 14.9539 28.4172 15.5036C27.8674 16.0533 27.5555 16.7969 27.5487 17.5743C27.5419 18.3518 27.8407 19.1007 28.3808 19.6599L32.5736 15.4682Z" fill="white"/>
<path d="M30.4772 20.5285C32.1147 20.5285 33.442 19.2011 33.442 17.5637C33.442 15.9263 32.1147 14.5989 30.4772 14.5989C28.8398 14.5989 27.5125 15.9263 27.5125 17.5637C27.5125 19.2011 28.8398 20.5285 30.4772 20.5285Z" stroke="#DCDFE4" stroke-width="1.25" stroke-linecap="round" stroke-linejoin="round"/>
<path d="M40.8334 26.8597C40.8125 26.551 40.6756 26.2615 40.4501 26.0496C40.2246 25.8376 39.9272 25.7189 39.6178 25.7173H36.1595C35.8317 25.7173 35.5172 25.8475 35.2854 26.0794C35.0536 26.3112 34.9233 26.6256 34.9233 26.9535V32.7708L40.8334 26.8597Z" fill="white"/>
<path d="M39.8217 25.7163H35.9535C35.3846 25.7163 34.9233 26.1775 34.9233 26.7465V33.5795C34.9233 34.1484 35.3846 34.6097 35.9535 34.6097H39.8217C40.3907 34.6097 40.8519 34.1484 40.8519 33.5795V26.7465C40.8519 26.1775 40.3907 25.7163 39.8217 25.7163Z" stroke="#DCDFE4" stroke-width="1.25" stroke-linecap="round" stroke-linejoin="round"/>
<rect x="54" y="11" width="2.5" height="2.50001" stroke="#DCDFE4" stroke-linecap="round" stroke-linejoin="round"/>
<path fill-rule="evenodd" clip-rule="evenodd" d="M4.25 6.5C4.94036 6.5 5.5 5.94035 5.5 5.25C5.5 4.55964 4.94036 4 4.25 4C3.55964 4 3 4.55964 3 5.25C3 5.94035 3.55964 6.5 4.25 6.5Z" stroke="#DCDFE4"/>
<rect width="2.5" height="2.5" transform="matrix(0.707106 -0.707107 0.707106 0.707107 10 10.7678)" stroke="#DCDFE4" stroke-linecap="round" stroke-linejoin="round"/>
<path d="M17.1042 2.10417L19.4795 4.47953" stroke="#DCDFE4" stroke-linecap="round"/>
<path d="M19.3958 2.10417L17.0205 4.47953" stroke="#DCDFE4" stroke-linecap="round"/>
</svg>
