<svg width="48" height="48" viewBox="0 0 48 48" fill="none" xmlns="http://www.w3.org/2000/svg">
    <circle cx="24" cy="24" r="24" fill="#E4E5F6"/>
    <path d="M27.1616 28.4717L30.5309 26.4502" stroke="#D32D27" stroke-width="2" stroke-linecap="round" stroke-linejoin="round"/>
    <path d="M27.312 30.3086L30.3803 31.5363" stroke="#D32D27" stroke-width="2" stroke-linecap="round" stroke-linejoin="round"/>
    <path d="M23.3079 29.5379C23.3079 30.0887 23.5267 30.617 23.9162 31.0065C24.3057 31.396 24.834 31.6148 25.3848 31.6148C25.9356 31.6148 26.4639 31.396 26.8534 31.0065C27.2429 30.617 27.4617 30.0887 27.4617 29.5379C27.4617 28.987 27.2429 28.4588 26.8534 28.0693C26.4639 27.6798 25.9356 27.4609 25.3848 27.4609C24.834 27.4609 24.3057 27.6798 23.9162 28.0693C23.5267 28.4588 23.3079 28.987 23.3079 29.5379Z" fill="white" stroke="#474A86" stroke-width="2" stroke-linecap="round" stroke-linejoin="round"/>
    <path d="M30.231 32.3074C30.231 32.8582 30.4498 33.3865 30.8393 33.776C31.2288 34.1655 31.757 34.3843 32.3079 34.3843C32.8587 34.3843 33.387 34.1655 33.7765 33.776C34.166 33.3865 34.3848 32.8582 34.3848 32.3074C34.3848 31.7566 34.166 31.2283 33.7765 30.8388C33.387 30.4493 32.8587 30.2305 32.3079 30.2305C31.757 30.2305 31.2288 30.4493 30.8393 30.8388C30.4498 31.2283 30.231 31.7566 30.231 32.3074Z" fill="white" stroke="#474A86" stroke-width="2" stroke-linecap="round" stroke-linejoin="round"/>
    <path d="M30.231 25.3845C30.231 25.9354 30.4498 26.4636 30.8393 26.8531C31.2288 27.2426 31.757 27.4615 32.3079 27.4615C32.8587 27.4615 33.387 27.2426 33.7765 26.8531C34.166 26.4636 34.3848 25.9354 34.3848 25.3845C34.3848 24.8337 34.166 24.3054 33.7765 23.9159C33.387 23.5264 32.8587 23.3076 32.3079 23.3076C31.757 23.3076 31.2288 23.5264 30.8393 23.9159C30.4498 24.3054 30.231 24.8337 30.231 25.3845Z" fill="white" stroke="#474A86" stroke-width="2" stroke-linecap="round" stroke-linejoin="round"/>
    <path d="M26.2905 25.5181C26.3218 25.5287 26.355 25.5325 26.3879 25.529C26.4208 25.5256 26.4525 25.515 26.481 25.4981L28.16 24.4905C28.1875 24.4738 28.2111 24.4513 28.2291 24.4247C28.2472 24.3981 28.2594 24.3679 28.2648 24.3362C28.4296 23.49 28.8603 22.7186 29.4942 22.1343C30.128 21.55 30.9318 21.1833 31.7886 21.0876C31.846 21.082 31.8994 21.0554 31.9384 21.0128C31.9774 20.9703 31.9993 20.9149 32 20.8571V16.2857C32 15.9068 31.8495 15.5435 31.5816 15.2756C31.3137 15.0077 30.9503 14.8571 30.5714 14.8571H21.16C21.0716 14.8571 20.985 14.8326 20.9098 14.7861C20.8347 14.7397 20.7739 14.6733 20.7343 14.5943L19.8314 12.7895C19.7128 12.5524 19.5305 12.3529 19.3049 12.2134C19.0794 12.074 18.8195 12.0001 18.5543 12H13.4286C13.0497 12 12.6863 12.1505 12.4184 12.4184C12.1505 12.6863 12 13.0497 12 13.4286V27.7143C12 28.0932 12.1505 28.4565 12.4184 28.7244C12.6863 28.9923 13.0497 29.1429 13.4286 29.1429H20.8571C20.9151 29.1424 20.9707 29.1204 21.0133 29.0811C21.0559 29.0419 21.0824 28.9882 21.0876 28.9305C21.1967 27.9431 21.6657 27.0306 22.4049 26.367C23.1441 25.7035 24.1019 25.3355 25.0952 25.3333C25.5008 25.3333 25.9039 25.3956 26.2905 25.5181Z" fill="#474A86"/>
</svg>
