<svg width="48" height="48" viewBox="0 0 48 48" fill="none" xmlns="http://www.w3.org/2000/svg">
    <circle cx="24" cy="24" r="24" fill="#E4E5F6"/>
    <path d="M16.006 26.0272C16.0449 26.015 16.0801 25.9932 16.1084 25.9638C16.1367 25.9345 16.1572 25.8985 16.168 25.8592C16.1794 25.82 16.1809 25.7787 16.1726 25.7387C16.1642 25.6988 16.1461 25.6615 16.12 25.6302C15.0478 24.328 14.4736 22.6869 14.5 21.0002V20.0002C14.498 18.4769 14.9082 16.9814 15.687 15.6722C15.71 15.6315 15.7211 15.5851 15.7192 15.5384C15.7172 15.4916 15.7023 15.4464 15.676 15.4077C15.6497 15.369 15.6131 15.3385 15.5703 15.3195C15.5275 15.3005 15.4803 15.2938 15.434 15.3002C14.5492 15.4357 13.7419 15.8831 13.158 16.5616C12.5742 17.2402 12.2521 18.1051 12.25 19.0002V27.3742C12.25 27.419 12.262 27.4629 12.2848 27.5015C12.3076 27.54 12.3404 27.5717 12.3796 27.5933C12.4188 27.6148 12.4632 27.6255 12.5079 27.624C12.5527 27.6226 12.5962 27.6092 12.634 27.5852C13.6884 26.9269 14.8213 26.4035 16.006 26.0272Z" fill="#474A86"/>
    <path d="M31.4999 19.9999V20.9999C31.5263 22.6865 30.9521 24.3276 29.8799 25.6299C29.8532 25.6612 29.8347 25.6987 29.826 25.7389C29.8173 25.7791 29.8186 25.8208 29.8299 25.8604C29.8412 25.8999 29.862 25.9361 29.8906 25.9657C29.9192 25.9953 29.9547 26.0173 29.9939 26.0299C31.1785 26.4059 32.3114 26.929 33.3659 27.5869C33.4036 27.6112 33.4472 27.6249 33.4921 27.6265C33.537 27.6281 33.5814 27.6175 33.6208 27.5959C33.6601 27.5743 33.6929 27.5424 33.7156 27.5037C33.7384 27.4649 33.7502 27.4208 33.7499 27.3759V18.9999C33.7463 18.1088 33.4251 17.2482 32.8438 16.5727C32.2626 15.8973 31.4595 15.4513 30.5789 15.3149C30.5319 15.3071 30.4837 15.3129 30.4399 15.3316C30.3961 15.3502 30.3586 15.381 30.3317 15.4203C30.3048 15.4596 30.2897 15.5057 30.2881 15.5533C30.2866 15.6009 30.2986 15.6479 30.3229 15.6889C31.0951 16.9942 31.5016 18.4833 31.4999 19.9999Z" fill="#474A86"/>
    <path d="M33.5331 28.9174C32.1361 27.8967 30.5557 27.1545 28.8781 26.7314C28.8413 26.7214 28.8026 26.72 28.7652 26.7272C28.7277 26.7345 28.6925 26.7503 28.6621 26.7734C27.0117 27.9473 25.0247 28.5533 23.0001 28.5004C20.9753 28.5535 18.9881 27.947 17.3381 26.7724C17.3075 26.7497 17.2722 26.7342 17.2348 26.7271C17.1974 26.72 17.1588 26.7215 17.1221 26.7314C15.4441 27.1543 13.8633 27.8965 12.4661 28.9174C12.163 29.1496 11.918 29.4491 11.7503 29.7922C11.5827 30.1352 11.497 30.5126 11.5001 30.8944V35.0004C11.5001 35.133 11.5528 35.2602 11.6465 35.3539C11.7403 35.4477 11.8675 35.5004 12.0001 35.5004H34.0001C34.1327 35.5004 34.2599 35.4477 34.3536 35.3539C34.4474 35.2602 34.5001 35.133 34.5001 35.0004V30.8944C34.5032 30.5125 34.4174 30.135 34.2496 29.7919C34.0817 29.4488 33.8365 29.1494 33.5331 28.9174ZM31.2501 31.0004C31.2501 31.1993 31.1711 31.3901 31.0304 31.5307C30.8898 31.6714 30.699 31.7504 30.5001 31.7504H28.5001C28.3012 31.7504 28.1104 31.6714 27.9697 31.5307C27.8291 31.3901 27.7501 31.1993 27.7501 31.0004C27.7501 30.8015 27.8291 30.6107 27.9697 30.4701C28.1104 30.3294 28.3012 30.2504 28.5001 30.2504H30.5001C30.699 30.2504 30.8898 30.3294 31.0304 30.4701C31.1711 30.6107 31.2501 30.8015 31.2501 31.0004ZM18.2501 31.0004C18.2501 31.1993 18.1711 31.3901 18.0304 31.5307C17.8898 31.6714 17.699 31.7504 17.5001 31.7504H15.5001C15.3012 31.7504 15.1104 31.6714 14.9697 31.5307C14.8291 31.3901 14.7501 31.1993 14.7501 31.0004C14.7501 30.8015 14.8291 30.6107 14.9697 30.4701C15.1104 30.3294 15.3012 30.2504 15.5001 30.2504H17.5001C17.699 30.2504 17.8898 30.3294 18.0304 30.4701C18.1711 30.6107 18.2501 30.8015 18.2501 31.0004ZM19.5001 31.0004C19.5001 30.8678 19.5528 30.7406 19.6465 30.6468C19.7403 30.5531 19.8675 30.5004 20.0001 30.5004H26.0001C26.1327 30.5004 26.2599 30.5531 26.3536 30.6468C26.4474 30.7406 26.5001 30.8678 26.5001 31.0004V34.2504C26.5001 34.3167 26.4737 34.3803 26.4269 34.4272C26.38 34.474 26.3164 34.5004 26.2501 34.5004H19.7501C19.6838 34.5004 19.6202 34.474 19.5733 34.4272C19.5264 34.3803 19.5001 34.3167 19.5001 34.2504V31.0004Z" fill="#474A86"/>
    <path d="M23 27.5C26.733 27.5 30.5 25.49 30.5 21V20C30.5 18.0109 29.7098 16.1032 28.3033 14.6967C26.8968 13.2902 24.9891 12.5 23 12.5C21.0109 12.5 19.1032 13.2902 17.6967 14.6967C16.2902 16.1032 15.5 18.0109 15.5 20V21C15.5 25.49 19.267 27.5 23 27.5ZM23 14.5C24.4454 14.4869 25.8367 15.0485 26.8682 16.0611C27.8996 17.0738 28.4865 18.4546 28.5 19.9C28.5 22.882 26.038 23.5 23 23.5C19.962 23.5 17.5 22.882 17.5 19.9C17.5135 18.4546 18.1004 17.0738 19.1318 16.0611C20.1633 15.0485 21.5546 14.4869 23 14.5Z" fill="#474A86"/>
</svg>
