<svg width="48" height="48" viewBox="0 0 48 48" fill="none" xmlns="http://www.w3.org/2000/svg">
<circle cx="24" cy="24" r="24" fill="#E4E5F6"/>
<path d="M31.7742 28.0186V30.2134C31.7742 30.8023 31.2378 31.284 30.5822 31.284H14.192C13.5364 31.284 13 30.8023 13 30.2134V28.0186H31.7742Z" fill="#474A86" stroke="#474A86" stroke-width="1.91304" stroke-linecap="round" stroke-linejoin="round"/>
<path d="M25.4725 33.963H19.5298L19.824 31.6091H25.1783L25.4725 33.963Z" fill="#474A86" stroke="#474A86" stroke-width="1.41757" stroke-linecap="round" stroke-linejoin="round"/>
<path d="M17.8975 35.0298H27.4881" stroke="#474A86" stroke-width="1.91304" stroke-linecap="round" stroke-linejoin="round"/>
<path fill-rule="evenodd" clip-rule="evenodd" d="M24.9384 16.25C24.6639 16.5924 24.4998 17.027 24.4998 17.5V18.25H14.2358C14.1147 18.25 14.0498 18.3451 14.0498 18.4099V26.8628H26.114C26.2388 26.8872 26.3678 26.9 26.4998 26.9H32.4998C32.5776 26.9 32.6543 26.8956 32.7298 26.8869V27.8628C32.7298 28.4151 32.2821 28.8628 31.7298 28.8628H13.0498C12.4975 28.8628 12.0498 28.4151 12.0498 27.8628V18.4099C12.0498 17.1987 13.0524 16.25 14.2358 16.25H24.9384Z" fill="#474A86"/>
<path d="M34.6113 16.7805V15.5225C34.6113 14.5882 34.2426 13.6923 33.5862 13.0317C32.9298 12.3711 32.0396 12 31.1113 12C30.1831 12 29.2928 12.3711 28.6365 13.0317C27.9801 13.6923 27.6113 14.5882 27.6113 15.5225V16.7805C27.2135 16.7805 26.832 16.9395 26.5507 17.2226C26.2694 17.5057 26.1113 17.8897 26.1113 18.2901V23.8254C26.1113 24.2258 26.2694 24.6097 26.5507 24.8928C26.832 25.176 27.2135 25.335 27.6113 25.335H34.6113C35.0092 25.335 35.3907 25.176 35.672 24.8928C35.9533 24.6097 36.1113 24.2258 36.1113 23.8254V18.2901C36.1113 17.8897 35.9533 17.5057 35.672 17.2226C35.3907 16.9395 35.0092 16.7805 34.6113 16.7805ZM29.6113 15.5225C29.6113 15.1221 29.7694 14.7381 30.0507 14.455C30.332 14.1719 30.7135 14.0128 31.1113 14.0128C31.5092 14.0128 31.8907 14.1719 32.172 14.455C32.4533 14.7381 32.6113 15.1221 32.6113 15.5225V16.7805H29.6113V15.5225ZM32.1113 21.5609C32.1113 21.76 32.0527 21.9546 31.9428 22.1201C31.8329 22.2856 31.6767 22.4146 31.494 22.4908C31.3113 22.5669 31.1102 22.5869 30.9162 22.548C30.7223 22.5092 30.5441 22.4133 30.4042 22.2726C30.2644 22.1318 30.1691 21.9525 30.1305 21.7573C30.092 21.5621 30.1118 21.3597 30.1874 21.1758C30.2631 20.9919 30.3913 20.8347 30.5558 20.7241C30.7202 20.6136 30.9135 20.5545 31.1113 20.5545C31.3765 20.5545 31.6309 20.6606 31.8184 20.8493C32.006 21.038 32.1113 21.294 32.1113 21.5609Z" fill="#D32D27"/>
</svg>
