<svg width="48" height="48" viewBox="0 0 48 48" fill="none" xmlns="http://www.w3.org/2000/svg">
    <circle cx="24" cy="24" r="24" fill="#E4E5F6"/>
    <g clip-path="url(#clip0)">
        <path d="M35.407 27.6848L34.54 27.3258C33.787 25.1721 33.787 22.8266 34.54 20.6728L35.407 20.3138C35.5235 20.2656 35.6293 20.1948 35.7184 20.1057C35.8076 20.0165 35.8783 19.9107 35.9265 19.7942C35.9748 19.6777 35.9996 19.5528 35.9996 19.4267C35.9996 19.3007 35.9747 19.1758 35.9265 19.0593C35.8782 18.9428 35.8075 18.837 35.7183 18.7479C35.6292 18.6587 35.5233 18.588 35.4068 18.5398C35.2903 18.4915 35.1655 18.4667 35.0394 18.4667C34.9133 18.4667 34.7885 18.4916 34.672 18.5398L33.806 18.8988C31.7513 17.9093 30.0927 16.2525 29.101 14.1988L29.46 13.3318C29.558 13.0966 29.5585 12.832 29.4615 12.5964C29.3644 12.3608 29.1777 12.1733 28.9425 12.0753C28.7072 11.9773 28.4427 11.9768 28.2071 12.0738C27.9714 12.1709 27.784 12.3576 27.686 12.5928L27.327 13.4598C25.1732 14.2128 22.8277 14.2128 20.674 13.4598L20.314 12.5928C20.2681 12.4731 20.1986 12.3638 20.1098 12.2713C20.0209 12.1789 19.9144 12.1052 19.7966 12.0545C19.6788 12.0039 19.552 11.9774 19.4238 11.9766C19.2956 11.9758 19.1685 12.0006 19.05 12.0497C18.9315 12.0989 18.8241 12.1712 18.7341 12.2625C18.644 12.3538 18.5732 12.4622 18.5258 12.5814C18.4783 12.7005 18.4552 12.8279 18.4578 12.9561C18.4604 13.0843 18.4887 13.2107 18.541 13.3278L18.9 14.1948C17.9096 16.2477 16.2528 17.9044 14.2 18.8948L13.328 18.5398C13.2115 18.4916 13.0867 18.4667 12.9606 18.4667C12.8345 18.4667 12.7096 18.4915 12.5931 18.5398C12.4767 18.588 12.3708 18.6587 12.2816 18.7479C12.1925 18.837 12.1217 18.9428 12.0735 19.0593C12.0252 19.1758 12.0004 19.3007 12.0004 19.4267C12.0004 19.5528 12.0252 19.6777 12.0734 19.7942C12.1217 19.9107 12.1924 20.0165 12.2815 20.1057C12.3707 20.1948 12.4765 20.2656 12.593 20.3138L13.461 20.6728C14.213 22.8267 14.213 25.1719 13.461 27.3258L12.593 27.6848C12.3577 27.7823 12.1708 27.9692 12.0734 28.2045C11.976 28.4397 11.976 28.7041 12.0735 28.9393C12.171 29.1746 12.3579 29.3615 12.5931 29.4589C12.8284 29.5563 13.0927 29.5563 13.328 29.4588L14.195 29.0998C16.2494 30.0898 17.9078 31.7465 18.9 33.7998L18.541 34.6668C18.4926 34.7833 18.4677 34.9082 18.4676 35.0343C18.4675 35.1604 18.4922 35.2853 18.5404 35.4019C18.5886 35.5184 18.6593 35.6243 18.7485 35.7135C18.8376 35.8027 18.9435 35.8735 19.06 35.9218C19.1761 35.9714 19.3007 35.9979 19.427 35.9998C19.6169 35.9999 19.8027 35.9436 19.9606 35.8381C20.1185 35.7325 20.2415 35.5824 20.314 35.4068L20.673 34.5398C22.8271 33.7868 25.1729 33.7868 27.327 34.5398L27.686 35.4068C27.7586 35.5823 27.8816 35.7323 28.0395 35.8379C28.1974 35.9435 28.3831 35.9998 28.573 35.9998C28.6992 35.9995 28.8242 35.9747 28.941 35.9268C29.1761 35.8291 29.3628 35.642 29.4601 35.4067C29.5574 35.1714 29.5574 34.9071 29.46 34.6718L29.101 33.8048C30.0925 31.7511 31.7512 30.0942 33.806 29.1048L34.672 29.4638C34.7885 29.5121 34.9133 29.5369 35.0394 29.5369C35.1655 29.5369 35.2903 29.5121 35.4068 29.4639C35.5233 29.4156 35.6292 29.3449 35.7183 29.2558C35.8075 29.1666 35.8782 29.0608 35.9265 28.9443C35.9747 28.8278 35.9996 28.703 35.9996 28.5769C35.9996 28.4508 35.9748 28.326 35.9265 28.2095C35.8783 28.093 35.8076 27.9871 35.7184 27.898C35.6293 27.8088 35.5235 27.7381 35.407 27.6898V27.6848ZM32.833 26.6188L31.18 25.9338C30.7873 24.6741 30.7873 23.3246 31.18 22.0648L32.833 21.3798C32.4299 23.1029 32.4299 24.8957 32.833 26.6188ZM27.033 19.1888C27.5271 19.873 28.1278 20.4737 28.812 20.9678L25.775 22.2258L27.033 19.1888ZM24 21.4908L22.742 18.4538C23.5752 18.5888 24.4248 18.5888 25.258 18.4538L24 21.4908ZM22.226 22.2258L19.189 20.9678C19.8734 20.4739 20.4741 19.8732 20.968 19.1888L22.226 22.2258ZM21.491 23.9998L18.454 25.2568C18.589 24.4236 18.589 23.5741 18.454 22.7408L21.491 23.9998ZM22.227 25.7728L20.968 28.8108C20.4735 28.1263 19.8725 27.5253 19.188 27.0308L22.227 25.7728ZM24 26.5088L25.258 29.5458C24.425 29.4071 23.5749 29.4071 22.742 29.5458L24 26.5088ZM25.774 25.7728L28.812 27.0318C28.1273 27.5257 27.5263 28.1264 27.032 28.8108L25.774 25.7728ZM26.509 23.9998L29.547 22.7408C29.4125 23.5744 29.4125 24.4242 29.547 25.2578L26.509 23.9998ZM32.1 19.6058L30.446 20.2908C29.2767 19.6786 28.3222 18.7241 27.71 17.5548L28.394 15.8998C29.3276 17.4039 30.5959 18.6722 32.1 19.6058ZM26.62 15.1668L25.935 16.8198C24.6752 17.2149 23.3247 17.2149 22.065 16.8198L21.381 15.1668C23.1041 15.5699 24.8969 15.5699 26.62 15.1668ZM19.607 15.8998L20.292 17.5528C19.6798 18.7226 18.7253 19.6777 17.556 20.2908L15.9 19.6058C17.4045 18.6723 18.6731 17.4041 19.607 15.8998ZM15.167 21.3798L16.821 22.0648C17.2137 23.3246 17.2137 24.6741 16.821 25.9338L15.167 26.6188C15.5701 24.8957 15.5701 23.1029 15.167 21.3798ZM15.9 28.3928L17.553 27.7078C18.7221 28.321 19.6768 29.2757 20.29 30.4448L19.607 32.0998C18.6732 30.5952 17.4046 29.3266 15.9 28.3928ZM21.378 32.8328L22.063 31.1798C23.3227 30.7848 24.6732 30.7848 25.933 31.1798L26.618 32.8328C24.8952 32.4301 23.1028 32.4301 21.38 32.8328H21.378ZM28.392 32.0978L27.707 30.4448C28.3193 29.2753 29.2743 28.3207 30.444 27.7088L32.096 28.3928C30.593 29.3269 29.3261 30.5956 28.394 32.0998L28.392 32.0978Z" fill="#474A86"/>
        <circle cx="21" cy="31" r="2" fill="#D32D27"/>
    </g>
    <defs>
        <clipPath id="clip0">
            <rect width="24" height="24" fill="white" transform="translate(12 12)"/>
        </clipPath>
    </defs>
</svg>
