<svg width="48" height="48" viewBox="0 0 48 48" fill="none" xmlns="http://www.w3.org/2000/svg">
    <circle cx="24" cy="24" r="24" fill="#E4E5F6"/>
    <g clip-path="url(#clip0)">
        <path d="M25.7501 19.75C25.7502 20.7187 25.5231 21.674 25.0871 22.539C25.0405 22.6337 25.0251 22.7407 25.0431 22.8447C25.061 22.9487 25.1114 23.0444 25.1871 23.118C26.0651 23.9989 27.2564 24.4958 28.5001 24.5C29.7599 24.5 30.968 23.9996 31.8588 23.1088C32.7496 22.218 33.2501 21.0098 33.2501 19.75C33.2501 18.4902 32.7496 17.282 31.8588 16.3912C30.968 15.5004 29.7599 15 28.5001 15C27.2547 15.0029 26.0613 15.4999 25.1821 16.382C25.1064 16.4556 25.056 16.5513 25.0381 16.6553C25.0201 16.7593 25.0355 16.8663 25.0821 16.961C25.5199 17.8256 25.7487 18.7809 25.7501 19.75Z" fill="#474A86"/>
        <path d="M28.4999 25C27.6915 25.0003 26.8885 25.133 26.1229 25.393C26.0427 25.4198 25.9705 25.4665 25.9132 25.5288C25.8559 25.5911 25.8154 25.667 25.7954 25.7492C25.7754 25.8314 25.7766 25.9174 25.7989 25.9991C25.8212 26.0807 25.8639 26.1553 25.9229 26.216C27.5736 27.8911 28.4992 30.1483 28.4999 32.5C28.4999 32.6326 28.5526 32.7598 28.6464 32.8536C28.7401 32.9473 28.8673 33 28.9999 33H35.4999C35.6325 33 35.7597 32.9473 35.8535 32.8536C35.9473 32.7598 35.9999 32.6326 35.9999 32.5C35.9978 30.5115 35.207 28.6051 33.8009 27.199C32.3948 25.793 30.4884 25.0021 28.4999 25Z" fill="#474A86"/>
        <path d="M19.5 24.5C22.1234 24.5 24.25 22.3734 24.25 19.75C24.25 17.1266 22.1234 15 19.5 15C16.8766 15 14.75 17.1266 14.75 19.75C14.75 22.3734 16.8766 24.5 19.5 24.5Z" fill="#474A86"/>
        <path d="M27 32.5C27 30.5109 26.2098 28.6032 24.8033 27.1967C23.3968 25.7902 21.4891 25 19.5 25C17.5109 25 15.6032 25.7902 14.1967 27.1967C12.7902 28.6032 12 30.5109 12 32.5C12 32.6326 12.0527 32.7598 12.1464 32.8536C12.2402 32.9473 12.3674 33 12.5 33H26.5C26.6326 33 26.7598 32.9473 26.8536 32.8536C26.9473 32.7598 27 32.6326 27 32.5Z" fill="#474A86"/>
    </g>
    <defs>
        <clipPath id="clip0">
            <rect width="24" height="24" fill="white" transform="translate(12 12)"/>
        </clipPath>
    </defs>
</svg>
