<svg width="48" height="48" viewBox="0 0 48 48" fill="none" xmlns="http://www.w3.org/2000/svg">
<g clip-path="url(#clip0_1238_80724)">
<path d="M46.2624 16.1028C45.2183 13.6706 43.1004 11.0445 41.4418 10.2144C42.6248 12.4323 43.4457 14.8144 43.8754 17.2757L43.8797 17.3147C41.1628 10.757 36.5556 8.11289 32.7928 2.35532C32.6024 2.0642 32.4121 1.77248 32.2267 1.46455C32.1207 1.28868 32.0357 1.13021 31.9619 0.984354C31.8059 0.691766 31.6856 0.382549 31.6036 0.0629746C31.6037 0.0482279 31.5982 0.033958 31.5881 0.0228871C31.5781 0.0118162 31.5641 0.00471919 31.549 0.00294992C31.5342 -0.000983305 31.5186 -0.000983305 31.5038 0.00294992C31.5007 0.00294992 31.4957 0.00835214 31.492 0.00955263C31.4883 0.0107531 31.4802 0.0161554 31.4746 0.0185563L31.4839 0.00294992C25.4482 3.42436 23.4003 9.75817 23.2118 12.9263C20.8014 13.0867 18.4969 13.9466 16.5988 15.3939C16.4008 15.2315 16.1938 15.0796 15.9788 14.9389C15.4313 13.0835 15.4079 11.1199 15.9112 9.25276C13.6947 10.2923 11.7251 11.766 10.1272 13.5805H10.116C9.16369 12.4119 9.23065 8.55827 9.28521 7.75334C9.00348 7.86296 8.73455 8.00119 8.48293 8.16571C7.64223 8.74661 6.8563 9.39842 6.13434 10.1135C5.31166 10.921 4.56027 11.7938 3.88806 12.7228V12.7264V12.7222C2.34315 14.8426 1.24739 17.2383 0.664027 19.7709L0.631786 19.9246C0.586526 20.1292 0.423464 21.1545 0.395564 21.3771C0.395564 21.3946 0.391844 21.4108 0.389984 21.4282C0.179639 22.4866 0.0492989 23.5585 0 24.6353L0 24.7553C0.00526827 30.5803 2.26738 36.1914 6.33926 40.4798C10.4111 44.7682 15.9965 47.4217 21.9915 47.916C27.9866 48.4103 33.955 46.7094 38.7173 43.1495C43.4796 39.5895 46.6893 34.4296 47.712 28.6894C47.7523 28.3892 47.7851 28.0921 47.8211 27.789C48.316 23.8287 47.7802 19.8114 46.2624 16.1028V16.1028ZM18.5667 34.3131C18.6789 34.3653 18.7843 34.4217 18.8997 34.4715L18.9164 34.4817C18.7998 34.4277 18.6833 34.3715 18.5667 34.3131V34.3131ZM43.8816 17.3201V17.2979L43.8859 17.3225L43.8816 17.3201Z" fill="url(#paint0_linear_1238_80724)"/>
<path d="M46.2624 16.1028C45.2183 13.6706 43.1004 11.0445 41.4418 10.2144C42.6248 12.4323 43.4457 14.8144 43.8754 17.2757V17.2979L43.8797 17.3225C45.7318 22.4537 45.4639 28.0793 43.132 33.0238C40.3779 38.7447 33.7116 44.6085 23.2769 44.3234C12.0021 44.0143 2.07268 35.9145 0.216382 25.3058C-0.121521 23.6329 0.216382 22.7847 0.386264 21.4252C0.154523 22.4812 0.025206 23.5559 0 24.6353L0 24.7553C0.00526827 30.5803 2.26738 36.1915 6.33926 40.4798C10.4111 44.7682 15.9965 47.4217 21.9915 47.916C27.9866 48.4104 33.955 46.7095 38.7173 43.1495C43.4796 39.5896 46.6893 34.4296 47.712 28.6894C47.7523 28.3892 47.7851 28.0921 47.8211 27.789C48.316 23.8287 47.7802 19.8115 46.2624 16.1028V16.1028Z" fill="url(#paint1_radial_1238_80724)"/>
<path d="M46.2624 16.1028C45.2183 13.6706 43.1004 11.0445 41.4418 10.2144C42.6248 12.4323 43.4457 14.8144 43.8754 17.2757V17.2979L43.8797 17.3225C45.7318 22.4537 45.4639 28.0793 43.132 33.0238C40.3779 38.7447 33.7116 44.6085 23.2769 44.3234C12.0021 44.0143 2.07268 35.9145 0.216382 25.3058C-0.121521 23.6329 0.216382 22.7847 0.386264 21.4252C0.154523 22.4812 0.025206 23.5559 0 24.6353L0 24.7553C0.00526827 30.5803 2.26738 36.1915 6.33926 40.4798C10.4111 44.7682 15.9965 47.4217 21.9915 47.916C27.9866 48.4104 33.955 46.7095 38.7173 43.1495C43.4796 39.5896 46.6893 34.4296 47.712 28.6894C47.7523 28.3892 47.7851 28.0921 47.8211 27.789C48.316 23.8287 47.7802 19.8115 46.2624 16.1028V16.1028Z" fill="url(#paint2_radial_1238_80724)"/>
<path d="M34.5848 18.8375C34.6369 18.8729 34.6853 18.9083 34.7342 18.9437C34.1306 17.9075 33.3792 16.9588 32.5022 16.1256C25.0336 8.89379 30.5449 0.445312 31.4742 0.0161351L31.4835 0.00292969C25.4478 3.42434 23.3999 9.75814 23.2114 12.9262C23.4917 12.9076 23.7694 12.8848 24.0559 12.8848C26.1975 12.8886 28.2999 13.4414 30.1492 14.487C31.9986 15.5325 33.529 17.0336 34.5848 18.8375V18.8375Z" fill="url(#paint3_radial_1238_80724)"/>
<path d="M24.0719 20.2821C24.0322 20.8607 21.9205 22.8566 21.182 22.8566C14.3489 22.8566 13.2397 26.8584 13.2397 26.8584C13.5423 30.2282 15.9678 33.0037 18.8998 34.4719C19.0337 34.5392 19.1695 34.5998 19.3053 34.6592C19.5405 34.7601 19.7756 34.8533 20.0108 34.9389C21.0171 35.2837 22.071 35.4806 23.1375 35.523C35.1142 36.0668 37.4342 21.6573 28.7914 17.4759C30.8303 17.2191 32.8951 17.7045 34.5853 18.8379C33.5295 17.034 31.9991 15.533 30.1497 14.4874C28.3004 13.4418 26.198 12.8891 24.0564 12.8853C23.7712 12.8853 23.4922 12.9081 23.2119 12.9267C20.8015 13.0871 18.497 13.947 16.5989 15.3943C16.9654 15.6944 17.3789 16.0954 18.25 16.9267C19.8806 18.482 24.0626 20.093 24.0719 20.2821V20.2821Z" fill="url(#paint4_radial_1238_80724)"/>
<path d="M24.0719 20.2821C24.0322 20.8607 21.9205 22.8566 21.182 22.8566C14.3489 22.8566 13.2397 26.8584 13.2397 26.8584C13.5423 30.2282 15.9678 33.0037 18.8998 34.4719C19.0337 34.5392 19.1695 34.5998 19.3053 34.6592C19.5405 34.7601 19.7756 34.8533 20.0108 34.9389C21.0171 35.2837 22.071 35.4806 23.1375 35.523C35.1142 36.0668 37.4342 21.6573 28.7914 17.4759C30.8303 17.2191 32.8951 17.7045 34.5853 18.8379C33.5295 17.034 31.9991 15.533 30.1497 14.4874C28.3004 13.4418 26.198 12.8891 24.0564 12.8853C23.7712 12.8853 23.4922 12.9081 23.2119 12.9267C20.8015 13.0871 18.497 13.947 16.5989 15.3943C16.9654 15.6944 17.3789 16.0954 18.25 16.9267C19.8806 18.482 24.0626 20.093 24.0719 20.2821V20.2821Z" fill="url(#paint5_radial_1238_80724)"/>
<path d="M15.4787 14.6203C15.6734 14.7404 15.8339 14.8448 15.9747 14.9391C15.4271 13.0837 15.4038 11.12 15.9071 9.25293C13.6905 10.2925 11.721 11.7662 10.123 13.5807C10.2402 13.5777 13.7259 13.5171 15.4787 14.6203V14.6203Z" fill="url(#paint6_radial_1238_80724)"/>
<path d="M0.219599 25.3057C2.07404 35.9145 12.0053 44.0142 23.2801 44.3233C33.7148 44.6091 40.3811 38.7446 43.1352 33.0237C45.4672 28.0792 45.7351 22.4536 43.8829 17.3224V17.3002C43.8829 17.2828 43.8792 17.2726 43.8829 17.278L43.8873 17.317C44.7398 22.7054 41.9088 27.9258 37.4832 31.4558L37.4696 31.4858C28.8465 38.2848 20.5943 35.5879 18.924 34.4871C18.8074 34.4331 18.6908 34.3768 18.5743 34.3184C13.5466 31.9919 11.4696 27.5572 11.9148 23.7541C10.7213 23.7711 9.54839 23.4527 8.53807 22.8375C7.52775 22.2222 6.72341 21.3365 6.2225 20.2876C7.54226 19.5049 9.04708 19.0624 10.5936 19.0023C12.14 18.9422 13.6767 19.2665 15.057 19.9443C17.9027 21.195 21.141 21.3182 24.0793 20.2876C24.07 20.0986 19.8881 18.4869 18.2575 16.9323C17.3863 16.1009 16.9728 15.7005 16.6064 15.3998C16.4083 15.2374 16.2014 15.0855 15.9864 14.9448C15.8438 14.8506 15.6832 14.7486 15.4904 14.6261C13.7376 13.5229 10.2519 13.5835 10.1366 13.5865H10.1254C9.17311 12.4178 9.24008 8.56421 9.29464 7.75928C9.0129 7.8689 8.74397 8.00712 8.49235 8.17165C7.65165 8.75254 6.86572 9.40435 6.14376 10.1194C5.31813 10.9247 4.56363 11.7955 3.88818 12.7227V12.7263V12.7221C2.34327 14.8425 1.24751 17.2382 0.664144 19.7708C0.652364 19.8182 -0.201385 23.4317 0.219599 25.3057V25.3057Z" fill="url(#paint7_radial_1238_80724)"/>
<path d="M32.5045 16.1256C33.3818 16.9597 34.1332 17.9095 34.7366 18.9467C34.8686 19.0434 34.992 19.1394 35.0968 19.2325C40.5448 24.0945 37.6903 30.9673 37.4776 31.4565C41.9032 27.9264 44.7317 22.7061 43.8817 17.3177C41.1636 10.757 36.5563 8.11289 32.7935 2.35532C32.6031 2.0642 32.4128 1.77248 32.2274 1.46455C32.1214 1.28868 32.0364 1.13021 31.9627 0.984354C31.8066 0.691765 31.6863 0.382549 31.6043 0.0629746C31.6044 0.0482278 31.5989 0.0339579 31.5888 0.0228871C31.5788 0.0118162 31.5648 0.00471919 31.5497 0.00294991C31.5349 -0.000983305 31.5193 -0.000983305 31.5045 0.00294991C31.5014 0.00294991 31.4964 0.00835214 31.4927 0.00955263C31.489 0.0107531 31.4809 0.0161553 31.4753 0.0185563C30.5459 0.445332 25.0347 8.89381 32.5045 16.1256V16.1256Z" fill="url(#paint8_radial_1238_80724)"/>
<path d="M35.0931 19.2293C34.9883 19.1362 34.865 19.0402 34.7329 18.9436C34.6839 18.9081 34.6356 18.8727 34.5835 18.8373C32.8932 17.7039 30.8284 17.2185 28.7895 17.4754C37.4324 21.6591 35.1136 36.0662 23.1357 35.5224C22.0692 35.48 21.0153 35.2831 20.009 34.9383C19.7738 34.8531 19.5386 34.7599 19.3034 34.6586C19.1677 34.5986 19.0319 34.5386 18.8979 34.4713L18.9147 34.4815C20.585 35.5854 28.8348 38.2823 37.4603 31.4803L37.474 31.4503C37.6891 30.9641 40.5436 24.0895 35.0931 19.2293V19.2293Z" fill="url(#paint9_radial_1238_80724)"/>
<path d="M13.2395 26.858C13.2395 26.858 14.3487 22.8562 21.1818 22.8562C21.9202 22.8562 24.0338 20.8603 24.0716 20.2817C21.1333 21.3123 17.8951 21.1891 15.0493 19.9384C13.669 19.2605 12.1324 18.9362 10.5859 18.9963C9.03942 19.0564 7.5346 19.4989 6.21484 20.2817C6.71575 21.3306 7.52009 22.2163 8.53041 22.8315C9.54073 23.4468 10.7137 23.7652 11.9071 23.7481C11.462 27.5519 13.539 31.9865 18.5666 34.3125C18.6788 34.3647 18.7842 34.4211 18.8996 34.4709C15.9651 33.0033 13.5421 30.2278 13.2395 26.858Z" fill="url(#paint10_radial_1238_80724)"/>
<path d="M46.2624 16.1028C45.2183 13.6706 43.1004 11.0445 41.4418 10.2144C42.6248 12.4323 43.4457 14.8144 43.8754 17.2757L43.8797 17.3147C41.1628 10.757 36.5556 8.11289 32.7927 2.35532C32.6024 2.0642 32.4121 1.77248 32.2267 1.46455C32.1207 1.28868 32.0357 1.13021 31.9619 0.984354C31.8059 0.691766 31.6856 0.382549 31.6036 0.0629746C31.6037 0.0482279 31.5982 0.0339579 31.5881 0.0228871C31.5781 0.0118162 31.5641 0.00471919 31.549 0.00294991C31.5342 -0.000983305 31.5186 -0.000983305 31.5038 0.00294991C31.5007 0.00294991 31.4957 0.00835214 31.492 0.00955263C31.4883 0.0107531 31.4802 0.0161553 31.4746 0.0185563L31.4839 0.00294991C25.4482 3.42436 23.4003 9.75816 23.2118 12.9263C23.492 12.9077 23.7698 12.8849 24.0562 12.8849C26.1979 12.8886 28.3002 13.4414 30.1496 14.487C31.999 15.5326 33.5294 17.0336 34.5852 18.8375C32.8949 17.7041 30.8302 17.2187 28.7912 17.4755C37.4341 21.6593 35.1153 36.0664 23.1374 35.5226C22.0709 35.4802 21.017 35.2833 20.0107 34.9385C19.7755 34.8533 19.5403 34.7601 19.3051 34.6588C19.1694 34.5988 19.0336 34.5388 18.8997 34.4715L18.9164 34.4817C18.7998 34.4277 18.6833 34.3715 18.5667 34.3131C18.6789 34.3653 18.7843 34.4217 18.8997 34.4715C15.9652 33.0033 13.5422 30.2278 13.2396 26.858C13.2396 26.858 14.3488 22.8562 21.1819 22.8562C21.9203 22.8562 24.0339 20.8603 24.0717 20.2817C24.0624 20.0926 19.8805 18.481 18.2499 16.9263C17.3788 16.095 16.9652 15.6946 16.5988 15.3939C16.4008 15.2315 16.1938 15.0796 15.9788 14.9389C15.4313 13.0835 15.4079 11.1199 15.9112 9.25276C13.6947 10.2923 11.7251 11.766 10.1272 13.5805H10.116C9.16369 12.4119 9.23065 8.55827 9.28521 7.75334C9.00348 7.86296 8.73455 8.00119 8.48293 8.16571C7.64222 8.7466 6.8563 9.39842 6.13434 10.1135C5.31166 10.921 4.56027 11.7938 3.88806 12.7228C2.34315 14.8432 1.24739 17.2383 0.664027 19.7709L0.631786 19.9246C0.586526 20.1292 0.383784 21.1689 0.354644 21.3922C0.354644 21.3747 0.354644 21.409 0.354644 21.3922C0.169206 22.4653 0.0507767 23.5483 0 24.6353L0 24.7553C0.00526827 30.5803 2.26738 36.1914 6.33926 40.4798C10.4111 44.7682 15.9965 47.4217 21.9915 47.916C27.9866 48.4103 33.955 46.7094 38.7173 43.1495C43.4796 39.5895 46.6893 34.4296 47.712 28.6894C47.7523 28.3892 47.7851 28.0921 47.8211 27.789C48.316 23.8287 47.7802 19.8114 46.2624 16.1028Z" fill="url(#paint11_linear_1238_80724)"/>
</g>
<defs>
<linearGradient id="paint0_linear_1238_80724" x1="43.0818" y1="7.43641" x2="4.4379" y2="45.9478" gradientUnits="userSpaceOnUse">
<stop offset="0.048" stop-color="#FFF44F"/>
<stop offset="0.111" stop-color="#FFE847"/>
<stop offset="0.225" stop-color="#FFC830"/>
<stop offset="0.368" stop-color="#FF980E"/>
<stop offset="0.401" stop-color="#FF8B16"/>
<stop offset="0.462" stop-color="#FF672A"/>
<stop offset="0.534" stop-color="#FF3647"/>
<stop offset="0.705" stop-color="#E31587"/>
</linearGradient>
<radialGradient id="paint1_radial_1238_80724" cx="0" cy="0" r="1" gradientUnits="userSpaceOnUse" gradientTransform="translate(41.2385 5.32702) scale(50.0946 48.4982)">
<stop offset="0.129" stop-color="#FFBD4F"/>
<stop offset="0.186" stop-color="#FFAC31"/>
<stop offset="0.247" stop-color="#FF9D17"/>
<stop offset="0.283" stop-color="#FF980E"/>
<stop offset="0.403" stop-color="#FF563B"/>
<stop offset="0.467" stop-color="#FF3750"/>
<stop offset="0.71" stop-color="#F5156C"/>
<stop offset="0.782" stop-color="#EB0878"/>
<stop offset="0.86" stop-color="#E50080"/>
</radialGradient>
<radialGradient id="paint2_radial_1238_80724" cx="0" cy="0" r="1" gradientUnits="userSpaceOnUse" gradientTransform="translate(22.9335 25.1545) scale(50.0946 48.4982)">
<stop offset="0.3" stop-color="#960E18"/>
<stop offset="0.351" stop-color="#B11927" stop-opacity="0.74"/>
<stop offset="0.435" stop-color="#DB293D" stop-opacity="0.343"/>
<stop offset="0.497" stop-color="#F5334B" stop-opacity="0.094"/>
<stop offset="0.53" stop-color="#FF3750" stop-opacity="0"/>
</radialGradient>
<radialGradient id="paint3_radial_1238_80724" cx="0" cy="0" r="1" gradientUnits="userSpaceOnUse" gradientTransform="translate(28.9724 -5.67907) scale(36.2914 35.1349)">
<stop offset="0.132" stop-color="#FFF44F"/>
<stop offset="0.252" stop-color="#FFDC3E"/>
<stop offset="0.506" stop-color="#FF9D12"/>
<stop offset="0.526" stop-color="#FF980E"/>
</radialGradient>
<radialGradient id="paint4_radial_1238_80724" cx="0" cy="0" r="1" gradientUnits="userSpaceOnUse" gradientTransform="translate(17.3926 37.8228) scale(23.8523 23.0921)">
<stop offset="0.353" stop-color="#3A8EE6"/>
<stop offset="0.472" stop-color="#5C79F0"/>
<stop offset="0.669" stop-color="#9059FF"/>
<stop offset="1" stop-color="#C139E6"/>
</radialGradient>
<radialGradient id="paint5_radial_1238_80724" cx="0" cy="0" r="1" gradientUnits="userSpaceOnUse" gradientTransform="translate(25.671 21.1803) rotate(-13.1737) scale(12.6244 14.3587)">
<stop offset="0.206" stop-color="#9059FF" stop-opacity="0"/>
<stop offset="0.278" stop-color="#8C4FF3" stop-opacity="0.064"/>
<stop offset="0.747" stop-color="#7716A8" stop-opacity="0.45"/>
<stop offset="0.975" stop-color="#6E008B" stop-opacity="0.6"/>
</radialGradient>
<radialGradient id="paint6_radial_1238_80724" cx="0" cy="0" r="1" gradientUnits="userSpaceOnUse" gradientTransform="translate(22.3012 3.34295) scale(17.1593 16.6124)">
<stop stop-color="#FFE226"/>
<stop offset="0.121" stop-color="#FFDB27"/>
<stop offset="0.295" stop-color="#FFC82A"/>
<stop offset="0.502" stop-color="#FFA930"/>
<stop offset="0.732" stop-color="#FF7E37"/>
<stop offset="0.792" stop-color="#FF7139"/>
</radialGradient>
<radialGradient id="paint7_radial_1238_80724" cx="0" cy="0" r="1" gradientUnits="userSpaceOnUse" gradientTransform="translate(35.7887 -7.19438) scale(73.211 70.8778)">
<stop offset="0.113" stop-color="#FFF44F"/>
<stop offset="0.456" stop-color="#FF980E"/>
<stop offset="0.622" stop-color="#FF5634"/>
<stop offset="0.716" stop-color="#FF3647"/>
<stop offset="0.904" stop-color="#E31587"/>
</radialGradient>
<radialGradient id="paint8_radial_1238_80724" cx="0" cy="0" r="1" gradientUnits="userSpaceOnUse" gradientTransform="translate(29.6189 -3.25313) rotate(83.7792) scale(51.9671 35.2024)">
<stop stop-color="#FFF44F"/>
<stop offset="0.06" stop-color="#FFE847"/>
<stop offset="0.168" stop-color="#FFC830"/>
<stop offset="0.304" stop-color="#FF980E"/>
<stop offset="0.356" stop-color="#FF8B16"/>
<stop offset="0.455" stop-color="#FF672A"/>
<stop offset="0.57" stop-color="#FF3647"/>
<stop offset="0.737" stop-color="#E31587"/>
</radialGradient>
<radialGradient id="paint9_radial_1238_80724" cx="0" cy="0" r="1" gradientUnits="userSpaceOnUse" gradientTransform="translate(21.8977 9.49574) scale(45.7069 44.2502)">
<stop offset="0.137" stop-color="#FFF44F"/>
<stop offset="0.48" stop-color="#FF980E"/>
<stop offset="0.592" stop-color="#FF5634"/>
<stop offset="0.655" stop-color="#FF3647"/>
<stop offset="0.904" stop-color="#E31587"/>
</radialGradient>
<radialGradient id="paint10_radial_1238_80724" cx="0" cy="0" r="1" gradientUnits="userSpaceOnUse" gradientTransform="translate(33.962 12.0857) scale(50.0258 48.4315)">
<stop offset="0.094" stop-color="#FFF44F"/>
<stop offset="0.231" stop-color="#FFE141"/>
<stop offset="0.509" stop-color="#FFAF1E"/>
<stop offset="0.626" stop-color="#FF980E"/>
</radialGradient>
<linearGradient id="paint11_linear_1238_80724" x1="42.6025" y1="7.23713" x2="9.75857" y2="41.1616" gradientUnits="userSpaceOnUse">
<stop offset="0.167" stop-color="#FFF44F" stop-opacity="0.8"/>
<stop offset="0.266" stop-color="#FFF44F" stop-opacity="0.634"/>
<stop offset="0.489" stop-color="#FFF44F" stop-opacity="0.217"/>
<stop offset="0.6" stop-color="#FFF44F" stop-opacity="0"/>
</linearGradient>
<clipPath id="clip0_1238_80724">
<rect width="48" height="48" fill="white"/>
</clipPath>
</defs>
</svg>
