<svg width="367" height="43" viewBox="0 0 367 43" fill="none" xmlns="http://www.w3.org/2000/svg">
<g filter="url(#filter0_ddd_1319_140143)">
<rect x="333" y="3" width="29" height="28" rx="3" stroke="#D32D27" stroke-width="2"/>
</g>
<path d="M352.691 32.7625V31.5482C352.691 31.2262 352.564 30.9173 352.339 30.6896C352.114 30.4619 351.809 30.3339 351.491 30.3339C351.173 30.3339 350.867 30.4619 350.642 30.6896C350.417 30.9173 350.291 31.2262 350.291 31.5482V30.9435C350.291 30.6215 350.164 30.3126 349.939 30.0849C349.714 29.8571 349.409 29.7292 349.091 29.7292C348.773 29.7292 348.467 29.8571 348.242 30.0849C348.017 30.3126 347.891 30.6215 347.891 30.9435V26.0864C347.891 25.7643 347.764 25.4554 347.539 25.2277C347.314 25 347.009 24.8721 346.691 24.8721C346.373 24.8721 346.067 25 345.842 25.2277C345.617 25.4554 345.491 25.7643 345.491 26.0864V33.3721C344.854 33.3721 344.244 33.6279 343.794 34.0834C343.344 34.5388 343.091 35.1565 343.091 35.8006C343.091 36.9853 343.457 38.1404 344.137 39.1043L345.017 40.3469C345.35 40.8183 345.789 41.2025 346.298 41.4678C346.807 41.733 347.371 41.8716 347.944 41.8721H350.994C351.532 41.8721 352.065 41.7648 352.562 41.5563C353.06 41.3478 353.511 41.0422 353.892 40.657C354.272 40.2718 354.574 39.8145 354.78 39.3113C354.985 38.808 355.091 38.2687 355.091 37.7241V32.7625C355.091 32.4405 354.964 32.1316 354.739 31.9039C354.514 31.6761 354.209 31.5482 353.891 31.5482C353.573 31.5482 353.267 31.6761 353.042 31.9039C352.817 32.1316 352.691 32.4405 352.691 32.7625Z" fill="white" stroke="#1B283C" stroke-width="1.25" stroke-linecap="round" stroke-linejoin="round"/>
<path d="M339 19C340.105 19 341 18.1046 341 17C341 15.8954 340.105 15 339 15C337.895 15 337 15.8954 337 17C337 18.1046 337.895 19 339 19Z" fill="#768498"/>
<path d="M347 19C348.105 19 349 18.1046 349 17C349 15.8954 348.105 15 347 15C345.895 15 345 15.8954 345 17C345 18.1046 345.895 19 347 19Z" fill="#768498"/>
<path d="M355 19C356.105 19 357 18.1046 357 17C357 15.8954 356.105 15 355 15C353.895 15 353 15.8954 353 17C353 18.1046 353.895 19 355 19Z" fill="#768498"/>
<path d="M205 6C205 3.79086 206.791 2 209 2H311C313.209 2 315 3.79086 315 6V28C315 30.2091 313.209 32 311 32H209C206.791 32 205 30.2091 205 28V6Z" fill="#BAC0CA"/>
<path d="M221 21.2109C223.027 21.2109 224.299 20.1797 224.299 18.5332V18.5273C224.299 17.25 223.555 16.5352 221.773 16.1602L220.865 15.9668C219.811 15.7441 219.383 15.3691 219.383 14.7715V14.7656C219.383 14.0449 220.051 13.6055 220.988 13.6055C221.955 13.5996 222.582 14.0684 222.688 14.7246L222.699 14.7949H224.146L224.141 14.7188C224.035 13.3594 222.869 12.334 220.994 12.334C219.166 12.334 217.865 13.3535 217.865 14.8652V14.8711C217.865 16.1309 218.615 16.9395 220.344 17.3027L221.252 17.4902C222.342 17.7246 222.781 18.0938 222.781 18.7031V18.709C222.781 19.4355 222.066 19.9395 221.047 19.9395C219.975 19.9395 219.219 19.4707 219.148 18.7617L219.143 18.7031H217.678L217.684 18.7852C217.789 20.2441 219.037 21.2109 221 21.2109ZM226.596 13.5234C227.07 13.5234 227.463 13.1426 227.463 12.6621C227.463 12.1875 227.07 11.8008 226.596 11.8008C226.115 11.8008 225.723 12.1875 225.723 12.6621C225.723 13.1426 226.115 13.5234 226.596 13.5234ZM225.863 21H227.322V14.5957H225.863V21ZM231.869 23.25C233.738 23.25 234.922 22.3184 234.922 20.8418V14.5957H233.463V15.6504H233.387C233.023 14.9238 232.332 14.4902 231.447 14.4902C229.795 14.4902 228.787 15.7676 228.787 17.6191V17.6309C228.787 19.4473 229.795 20.7012 231.418 20.7012C232.303 20.7012 233 20.3262 233.369 19.6406H233.469V20.8652C233.469 21.6855 232.889 22.1484 231.893 22.1484C231.078 22.1484 230.592 21.8613 230.492 21.4512L230.486 21.4336H229.027L229.021 21.4512C229.168 22.5293 230.182 23.25 231.869 23.25ZM231.869 19.541C230.855 19.541 230.281 18.7617 230.281 17.6309V17.6191C230.281 16.4883 230.855 15.7031 231.869 15.7031C232.877 15.7031 233.492 16.4883 233.492 17.6191V17.6309C233.492 18.7617 232.883 19.541 231.869 19.541ZM236.709 21H238.168V17.2676C238.168 16.3066 238.707 15.6973 239.574 15.6973C240.459 15.6973 240.863 16.2012 240.863 17.1973V21H242.322V16.8574C242.322 15.334 241.543 14.4727 240.113 14.4727C239.188 14.4727 238.572 14.8887 238.268 15.5742H238.168V14.5957H236.709V21ZM247.994 13.5234C248.469 13.5234 248.861 13.1426 248.861 12.6621C248.861 12.1875 248.469 11.8008 247.994 11.8008C247.514 11.8008 247.121 12.1875 247.121 12.6621C247.121 13.1426 247.514 13.5234 247.994 13.5234ZM247.262 21H248.721V14.5957H247.262V21ZM250.514 21H251.973V17.2676C251.973 16.3066 252.512 15.6973 253.379 15.6973C254.264 15.6973 254.668 16.2012 254.668 17.1973V21H256.127V16.8574C256.127 15.334 255.348 14.4727 253.918 14.4727C252.992 14.4727 252.377 14.8887 252.072 15.5742H251.973V14.5957H250.514V21ZM263.568 21.0293C263.85 21.0293 264.119 21.0059 264.33 20.9648V19.8398C264.154 19.8574 264.043 19.8633 263.838 19.8633C263.229 19.8633 262.977 19.5938 262.977 18.9551V15.7266H264.33V14.5957H262.977V13.0254H261.494V14.5957H260.498V15.7266H261.494V19.3008C261.494 20.5371 262.098 21.0293 263.568 21.0293ZM268.49 21.1289C270.406 21.1289 271.572 19.875 271.572 17.8008V17.7891C271.572 15.7266 270.4 14.4727 268.49 14.4727C266.586 14.4727 265.408 15.7324 265.408 17.7891V17.8008C265.408 19.875 266.568 21.1289 268.49 21.1289ZM268.49 19.9453C267.477 19.9453 266.896 19.1543 266.896 17.8066V17.7949C266.896 16.4473 267.477 15.6504 268.49 15.6504C269.498 15.6504 270.078 16.4473 270.078 17.7949V17.8066C270.078 19.1543 269.504 19.9453 268.49 19.9453ZM278.656 21.1289C280.232 21.1289 281.375 20.3145 281.375 19.0957V19.084C281.375 18.1523 280.783 17.6191 279.529 17.3379L278.492 17.1094C277.801 16.9512 277.531 16.7227 277.531 16.3477V16.3418C277.531 15.8613 278 15.5449 278.65 15.5449C279.336 15.5449 279.758 15.873 279.863 16.2773L279.869 16.2949H281.24V16.2832C281.146 15.2461 280.215 14.4727 278.656 14.4727C277.145 14.4727 276.09 15.2695 276.09 16.4238V16.4297C276.09 17.373 276.67 17.9473 277.889 18.2168L278.926 18.4512C279.629 18.6094 279.91 18.8555 279.91 19.2305V19.2422C279.91 19.7227 279.406 20.0508 278.68 20.0508C277.953 20.0508 277.525 19.7402 277.373 19.2949L277.367 19.2832H275.92V19.2949C276.043 20.3789 277.027 21.1289 278.656 21.1289ZM283.355 23.25C284.773 23.25 285.506 22.7402 286.057 21.1348L288.354 14.5957H286.818L285.33 19.5996H285.219L283.725 14.5957H282.131L284.422 21.0059L284.346 21.2988C284.188 21.8789 283.83 22.125 283.232 22.125C283.08 22.125 282.916 22.1191 282.799 22.1074V23.2266C282.975 23.2441 283.18 23.25 283.355 23.25ZM289.607 21H291.066V17.2676C291.066 16.3066 291.605 15.6973 292.473 15.6973C293.357 15.6973 293.762 16.2012 293.762 17.1973V21H295.221V16.8574C295.221 15.334 294.441 14.4727 293.012 14.4727C292.086 14.4727 291.471 14.8887 291.166 15.5742H291.066V14.5957H289.607V21ZM299.691 21.1289C301.314 21.1289 302.258 20.2559 302.469 18.9434L302.48 18.8965L301.104 18.9023L301.092 18.9258C300.91 19.5996 300.447 19.9453 299.691 19.9453C298.701 19.9453 298.109 19.1484 298.109 17.7891V17.7773C298.109 16.4355 298.695 15.6504 299.691 15.6504C300.488 15.6504 300.963 16.0957 301.098 16.7168L301.104 16.7344H302.48V16.7109C302.316 15.3867 301.332 14.4727 299.686 14.4727C297.758 14.4727 296.627 15.709 296.627 17.7773V17.7891C296.627 19.8809 297.764 21.1289 299.691 21.1289Z" fill="black"/>
<path d="M1 6C1 3.79086 2.79086 2 5 2H157C159.209 2 161 3.79086 161 6V28C161 30.2091 159.209 32 157 32H5C2.79086 32 1 30.2091 1 28V6Z" fill="white"/>
<g clip-path="url(#clip0_1319_140143)">
<path d="M25.683 21.1534L23.1669 18.6374C23.933 17.4906 24.2452 16.0998 24.0426 14.7357C23.8401 13.3715 23.1374 12.1314 22.0712 11.2566C21.005 10.3819 19.6515 9.93495 18.2741 10.0028C16.8966 10.0707 15.5936 10.6485 14.6186 11.6239C13.6436 12.5993 13.0662 13.9024 12.9988 15.2799C12.9314 16.6574 13.3788 18.0107 14.254 19.0766C15.1291 20.1425 16.3694 20.8448 17.7337 21.0468C19.0979 21.2489 20.4886 20.9362 21.6351 20.1697L24.1511 22.6852C24.356 22.8851 24.6308 22.9969 24.917 22.9969C25.2032 22.9969 25.4781 22.8851 25.683 22.6852C25.8861 22.4821 26.0001 22.2066 26.0001 21.9193C26.0001 21.6321 25.8861 21.3566 25.683 21.1534ZM18.5525 11.6277C19.3292 11.6277 20.0884 11.858 20.7342 12.2895C21.38 12.721 21.8834 13.3343 22.1806 14.0519C22.4778 14.7695 22.5556 15.5591 22.4041 16.3209C22.2526 17.0826 21.8785 17.7824 21.3293 18.3316C20.7801 18.8808 20.0804 19.2548 19.3186 19.4064C18.5568 19.5579 17.7672 19.4801 17.0496 19.1829C16.332 18.8857 15.7187 18.3823 15.2872 17.7365C14.8557 17.0907 14.6254 16.3314 14.6254 15.5547C14.6265 14.5136 15.0406 13.5154 15.7769 12.7791C16.5131 12.0429 17.5113 11.6288 18.5525 11.6277Z" fill="#768498"/>
</g>
<path d="M38.418 21.2109C40.4453 21.2109 41.7168 20.1797 41.7168 18.5332V18.5273C41.7168 17.25 40.9727 16.5352 39.1914 16.1602L38.2832 15.9668C37.2285 15.7441 36.8008 15.3691 36.8008 14.7715V14.7656C36.8008 14.0449 37.4688 13.6055 38.4062 13.6055C39.373 13.5996 40 14.0684 40.1055 14.7246L40.1172 14.7949H41.5645L41.5586 14.7188C41.4531 13.3594 40.2871 12.334 38.4121 12.334C36.584 12.334 35.2832 13.3535 35.2832 14.8652V14.8711C35.2832 16.1309 36.0332 16.9395 37.7617 17.3027L38.6699 17.4902C39.7598 17.7246 40.1992 18.0938 40.1992 18.7031V18.709C40.1992 19.4355 39.4844 19.9395 38.4648 19.9395C37.3926 19.9395 36.6367 19.4707 36.5664 18.7617L36.5605 18.7031H35.0957L35.1016 18.7852C35.207 20.2441 36.4551 21.2109 38.418 21.2109ZM46.0059 21.1289C47.7461 21.1289 48.6016 20.127 48.8066 19.3008L48.8242 19.248H47.4355L47.418 19.2891C47.2773 19.582 46.8262 19.9805 46.0352 19.9805C45.0449 19.9805 44.4238 19.3125 44.4062 18.1641H48.8828V17.6836C48.8828 15.75 47.7578 14.4727 45.9355 14.4727C44.1133 14.4727 42.9473 15.791 42.9473 17.8066V17.8125C42.9473 19.8516 44.1016 21.1289 46.0059 21.1289ZM45.9531 15.6152C46.7676 15.6152 47.3594 16.1367 47.459 17.1855H44.418C44.5293 16.166 45.1387 15.6152 45.9531 15.6152ZM52.0879 21.1055C52.9316 21.1055 53.6113 20.7422 53.9629 20.1211H54.0625V21H55.5039V16.623C55.5039 15.2695 54.5781 14.4727 52.9316 14.4727C51.4082 14.4727 50.377 15.1875 50.2363 16.2656L50.2305 16.3184H51.6074L51.6133 16.2949C51.7598 15.873 52.1934 15.6328 52.8613 15.6328C53.6465 15.6328 54.0625 15.9844 54.0625 16.623V17.1738L52.416 17.2734C50.8574 17.3672 49.9844 18.0352 49.9844 19.1777V19.1895C49.9844 20.3555 50.8691 21.1055 52.0879 21.1055ZM51.4258 19.1191V19.1074C51.4258 18.5801 51.8066 18.2812 52.6211 18.2285L54.0625 18.1348V18.6504C54.0625 19.4121 53.4121 19.9863 52.5332 19.9863C51.8887 19.9863 51.4258 19.6641 51.4258 19.1191ZM57.2559 21H58.7148V17.2793C58.7148 16.3652 59.3535 15.7852 60.3262 15.7852C60.5781 15.7852 60.8184 15.8203 61.0527 15.8672V14.5605C60.9121 14.5195 60.6836 14.4902 60.4609 14.4902C59.6172 14.4902 59.0312 14.8945 58.8145 15.5801H58.7148V14.5957H57.2559V21ZM64.832 21.1289C66.4551 21.1289 67.3984 20.2559 67.6094 18.9434L67.6211 18.8965L66.2441 18.9023L66.2324 18.9258C66.0508 19.5996 65.5879 19.9453 64.832 19.9453C63.8418 19.9453 63.25 19.1484 63.25 17.7891V17.7773C63.25 16.4355 63.8359 15.6504 64.832 15.6504C65.6289 15.6504 66.1035 16.0957 66.2383 16.7168L66.2441 16.7344H67.6211V16.7109C67.457 15.3867 66.4727 14.4727 64.8262 14.4727C62.8984 14.4727 61.7676 15.709 61.7676 17.7773V17.7891C61.7676 19.8809 62.9043 21.1289 64.832 21.1289ZM69.0684 21H70.5273V17.2676C70.5273 16.3066 71.0664 15.6973 71.9336 15.6973C72.8184 15.6973 73.2227 16.2012 73.2227 17.1973V21H74.6816V16.8574C74.6816 15.334 73.9023 14.4727 72.4727 14.4727C71.5469 14.4727 70.9316 14.8887 70.627 15.5742H70.5273V12.1172H69.0684V21ZM79.7559 21H85.1465V19.7285H81.2676V12.5449H79.7559V21ZM89.0957 21.1289C91.0117 21.1289 92.1777 19.875 92.1777 17.8008V17.7891C92.1777 15.7266 91.0059 14.4727 89.0957 14.4727C87.1914 14.4727 86.0137 15.7324 86.0137 17.7891V17.8008C86.0137 19.875 87.1738 21.1289 89.0957 21.1289ZM89.0957 19.9453C88.082 19.9453 87.502 19.1543 87.502 17.8066V17.7949C87.502 16.4473 88.082 15.6504 89.0957 15.6504C90.1035 15.6504 90.6836 16.4473 90.6836 17.7949V17.8066C90.6836 19.1543 90.1094 19.9453 89.0957 19.9453ZM96.3965 23.25C98.2656 23.25 99.4492 22.3184 99.4492 20.8418V14.5957H97.9902V15.6504H97.9141C97.5508 14.9238 96.8594 14.4902 95.9746 14.4902C94.3223 14.4902 93.3145 15.7676 93.3145 17.6191V17.6309C93.3145 19.4473 94.3223 20.7012 95.9453 20.7012C96.8301 20.7012 97.5273 20.3262 97.8965 19.6406H97.9961V20.8652C97.9961 21.6855 97.416 22.1484 96.4199 22.1484C95.6055 22.1484 95.1191 21.8613 95.0195 21.4512L95.0137 21.4336H93.5547L93.5488 21.4512C93.6953 22.5293 94.709 23.25 96.3965 23.25ZM96.3965 19.541C95.3828 19.541 94.8086 18.7617 94.8086 17.6309V17.6191C94.8086 16.4883 95.3828 15.7031 96.3965 15.7031C97.4043 15.7031 98.0195 16.4883 98.0195 17.6191V17.6309C98.0195 18.7617 97.4102 19.541 96.3965 19.541ZM101.986 13.5234C102.461 13.5234 102.854 13.1426 102.854 12.6621C102.854 12.1875 102.461 11.8008 101.986 11.8008C101.506 11.8008 101.113 12.1875 101.113 12.6621C101.113 13.1426 101.506 13.5234 101.986 13.5234ZM101.254 21H102.713V14.5957H101.254V21ZM104.506 21H105.965V17.2676C105.965 16.3066 106.504 15.6973 107.371 15.6973C108.256 15.6973 108.66 16.2012 108.66 17.1973V21H110.119V16.8574C110.119 15.334 109.34 14.4727 107.91 14.4727C106.984 14.4727 106.369 14.8887 106.064 15.5742H105.965V14.5957H104.506V21ZM114.262 21.1289C115.838 21.1289 116.98 20.3145 116.98 19.0957V19.084C116.98 18.1523 116.389 17.6191 115.135 17.3379L114.098 17.1094C113.406 16.9512 113.137 16.7227 113.137 16.3477V16.3418C113.137 15.8613 113.605 15.5449 114.256 15.5449C114.941 15.5449 115.363 15.873 115.469 16.2773L115.475 16.2949H116.846V16.2832C116.752 15.2461 115.82 14.4727 114.262 14.4727C112.75 14.4727 111.695 15.2695 111.695 16.4238V16.4297C111.695 17.373 112.275 17.9473 113.494 18.2168L114.531 18.4512C115.234 18.6094 115.516 18.8555 115.516 19.2305V19.2422C115.516 19.7227 115.012 20.0508 114.285 20.0508C113.559 20.0508 113.131 19.7402 112.979 19.2949L112.973 19.2832H111.525V19.2949C111.648 20.3789 112.633 21.1289 114.262 21.1289Z" fill="#768498"/>
<path d="M5 2.5H157V1.5H5V2.5ZM160.5 6V28H161.5V6H160.5ZM157 31.5H5V32.5H157V31.5ZM1.5 28V6H0.5V28H1.5ZM5 31.5C3.067 31.5 1.5 29.933 1.5 28H0.5C0.5 30.4853 2.51471 32.5 5 32.5V31.5ZM160.5 28C160.5 29.933 158.933 31.5 157 31.5V32.5C159.485 32.5 161.5 30.4853 161.5 28H160.5ZM157 2.5C158.933 2.5 160.5 4.067 160.5 6H161.5C161.5 3.51472 159.485 1.5 157 1.5V2.5ZM5 1.5C2.51472 1.5 0.5 3.51472 0.5 6H1.5C1.5 4.067 3.067 2.5 5 2.5V1.5Z" fill="#BAC0CA"/>
<defs>
<filter id="filter0_ddd_1319_140143" x="330" y="0" width="35" height="36" filterUnits="userSpaceOnUse" color-interpolation-filters="sRGB">
<feFlood flood-opacity="0" result="BackgroundImageFix"/>
<feColorMatrix in="SourceAlpha" type="matrix" values="0 0 0 0 0 0 0 0 0 0 0 0 0 0 0 0 0 0 127 0" result="hardAlpha"/>
<feOffset dy="1"/>
<feGaussianBlur stdDeviation="1"/>
<feColorMatrix type="matrix" values="0 0 0 0 0.113958 0 0 0 0 0.188601 0 0 0 0 0.28457 0 0 0 0.04 0"/>
<feBlend mode="normal" in2="BackgroundImageFix" result="effect1_dropShadow_1319_140143"/>
<feColorMatrix in="SourceAlpha" type="matrix" values="0 0 0 0 0 0 0 0 0 0 0 0 0 0 0 0 0 0 127 0" result="hardAlpha"/>
<feOffset dy="2"/>
<feGaussianBlur stdDeviation="1"/>
<feColorMatrix type="matrix" values="0 0 0 0 0.113958 0 0 0 0 0.188601 0 0 0 0 0.28457 0 0 0 0.04 0"/>
<feBlend mode="normal" in2="effect1_dropShadow_1319_140143" result="effect2_dropShadow_1319_140143"/>
<feColorMatrix in="SourceAlpha" type="matrix" values="0 0 0 0 0 0 0 0 0 0 0 0 0 0 0 0 0 0 127 0" result="hardAlpha"/>
<feOffset/>
<feGaussianBlur stdDeviation="1"/>
<feColorMatrix type="matrix" values="0 0 0 0 0.113958 0 0 0 0 0.188601 0 0 0 0 0.28457 0 0 0 0.16 0"/>
<feBlend mode="normal" in2="effect2_dropShadow_1319_140143" result="effect3_dropShadow_1319_140143"/>
<feBlend mode="normal" in="SourceGraphic" in2="effect3_dropShadow_1319_140143" result="shape"/>
</filter>
<clipPath id="clip0_1319_140143">
<rect width="13" height="13" fill="white" transform="translate(13 10)"/>
</clipPath>
</defs>
</svg>
