<svg width="371" height="92" viewBox="0 0 371 92" fill="none" xmlns="http://www.w3.org/2000/svg">
<g filter="url(#filter0_ddd_1319_140096)">
<rect x="2" y="2" width="367" height="42" fill="url(#paint0_linear_1319_140096)"/>
<path d="M342 21C341.448 21 341 21.4477 341 22V26H337C336.448 26 336 26.4477 336 27C336 27.5523 336.448 28 337 28H341V32C341 32.5523 341.448 33 342 33C342.552 33 343 32.5523 343 32V28H347C347.552 28 348 27.5523 348 27C348 26.4477 347.552 26 347 26H343V22C343 21.4477 342.552 21 342 21Z" fill="#606367"/>
<g filter="url(#filter1_i_1319_140096)">
<path fill-rule="evenodd" clip-rule="evenodd" d="M21 30C24.3137 30 27 27.3137 27 24C27 20.6863 24.3137 18 21 18C17.6863 18 15 20.6863 15 24C15 27.3137 17.6863 30 21 30Z" fill="#ED6A5E"/>
</g>
<path d="M26.75 24C26.75 27.1756 24.1756 29.75 21 29.75C17.8244 29.75 15.25 27.1756 15.25 24C15.25 20.8244 17.8244 18.25 21 18.25C24.1756 18.25 26.75 20.8244 26.75 24Z" stroke="#CE5347" stroke-width="0.5"/>
<g filter="url(#filter2_i_1319_140096)">
<path fill-rule="evenodd" clip-rule="evenodd" d="M41 30C44.3137 30 47 27.3137 47 24C47 20.6863 44.3137 18 41 18C37.6863 18 35 20.6863 35 24C35 27.3137 37.6863 30 41 30Z" fill="#F6BE4F"/>
</g>
<path d="M46.75 24C46.75 27.1756 44.1756 29.75 41 29.75C37.8244 29.75 35.25 27.1756 35.25 24C35.25 20.8244 37.8244 18.25 41 18.25C44.1756 18.25 46.75 20.8244 46.75 24Z" stroke="#D6A243" stroke-width="0.5"/>
<g filter="url(#filter3_i_1319_140096)">
<path fill-rule="evenodd" clip-rule="evenodd" d="M61 30C64.3137 30 67 27.3137 67 24C67 20.6863 64.3137 18 61 18C57.6863 18 55 20.6863 55 24C55 27.3137 57.6863 30 61 30Z" fill="#62C554"/>
</g>
<path d="M66.75 24C66.75 27.1756 64.1756 29.75 61 29.75C57.8244 29.75 55.25 27.1756 55.25 24C55.25 20.8244 57.8244 18.25 61 18.25C64.1756 18.25 66.75 20.8244 66.75 24Z" stroke="#58A942" stroke-width="0.5"/>
<path fill-rule="evenodd" clip-rule="evenodd" d="M88 10C83.5817 10 80 13.5817 80 18V36C80 40.4183 76.4183 44 72 44H80H320H328C323.582 44 320 40.4183 320 36V18C320 13.5817 316.418 10 312 10H88Z" fill="white"/>
<mask id="mask0_1319_140096" style="mask-type:alpha" maskUnits="userSpaceOnUse" x="116" y="17" width="177" height="20">
<rect x="116" y="17" width="177" height="20" fill="url(#paint1_linear_1319_140096)"/>
</mask>
<g mask="url(#mask0_1319_140096)">
<path d="M117.078 31H118.062V24.543H118.127L120.799 31H121.689L124.361 24.543H124.426V31H125.41V22.5449H124.186L121.291 29.5996H121.197L118.303 22.5449H117.078V31ZM127.977 33.2148C129.096 33.2148 129.617 32.8047 130.139 31.3867L132.605 24.6836H131.533L129.805 29.8809H129.711L127.977 24.6836H126.887L129.225 31.0059L129.107 31.3809C128.879 32.1074 128.527 32.3711 127.947 32.3711C127.807 32.3711 127.648 32.3652 127.525 32.3418V33.1797C127.666 33.2031 127.842 33.2148 127.977 33.2148ZM137.457 31H142.59V30.0508H138.512V22.5449H137.457V31ZM145.883 31.1113C146.732 31.1113 147.395 30.7422 147.793 30.0684H147.887V31H148.906V26.6758C148.906 25.3633 148.045 24.5723 146.504 24.5723C145.156 24.5723 144.195 25.2402 144.031 26.2305L144.025 26.2656H145.045L145.051 26.248C145.215 25.7559 145.713 25.4746 146.469 25.4746C147.412 25.4746 147.887 25.8965 147.887 26.6758V27.25L146.076 27.3613C144.605 27.4492 143.773 28.0996 143.773 29.2246V29.2363C143.773 30.3848 144.682 31.1113 145.883 31.1113ZM144.816 29.2129V29.2012C144.816 28.5742 145.238 28.2344 146.199 28.1758L147.887 28.0703V28.6445C147.887 29.5469 147.131 30.2266 146.094 30.2266C145.361 30.2266 144.816 29.8516 144.816 29.2129ZM152.938 31.1113C154.373 31.1113 155.469 30.332 155.469 29.207V29.1953C155.469 28.293 154.895 27.7773 153.705 27.4902L152.732 27.2559C151.988 27.0742 151.672 26.8047 151.672 26.377V26.3652C151.672 25.8086 152.223 25.4219 152.973 25.4219C153.734 25.4219 154.227 25.7676 154.361 26.2656H155.363C155.223 25.2344 154.303 24.5723 152.979 24.5723C151.637 24.5723 150.629 25.3633 150.629 26.4121V26.418C150.629 27.3262 151.162 27.8418 152.346 28.123L153.324 28.3574C154.104 28.5449 154.426 28.8438 154.426 29.2715V29.2832C154.426 29.8574 153.822 30.2617 152.973 30.2617C152.164 30.2617 151.66 29.916 151.49 29.3887H150.447C150.564 30.4316 151.531 31.1113 152.938 31.1113ZM159.236 31.0469C159.436 31.0469 159.629 31.0234 159.828 30.9883V30.1211C159.641 30.1387 159.541 30.1445 159.359 30.1445C158.703 30.1445 158.445 29.8457 158.445 29.1016V25.5273H159.828V24.6836H158.445V23.0488H157.391V24.6836H156.395V25.5273H157.391V29.3594C157.391 30.5664 157.936 31.0469 159.236 31.0469ZM161.48 31H162.535V27.9824H164.668C166.256 27.9824 167.381 26.8633 167.381 25.2578V25.2461C167.381 23.6406 166.256 22.5449 164.668 22.5449H161.48V31ZM164.398 23.4824C165.605 23.4824 166.303 24.1445 166.303 25.2578V25.2695C166.303 26.3828 165.605 27.0449 164.398 27.0449H162.535V23.4824H164.398ZM170.48 31.1113C171.33 31.1113 171.992 30.7422 172.391 30.0684H172.484V31H173.504V26.6758C173.504 25.3633 172.643 24.5723 171.102 24.5723C169.754 24.5723 168.793 25.2402 168.629 26.2305L168.623 26.2656H169.643L169.648 26.248C169.812 25.7559 170.311 25.4746 171.066 25.4746C172.01 25.4746 172.484 25.8965 172.484 26.6758V27.25L170.674 27.3613C169.203 27.4492 168.371 28.0996 168.371 29.2246V29.2363C168.371 30.3848 169.279 31.1113 170.48 31.1113ZM169.414 29.2129V29.2012C169.414 28.5742 169.836 28.2344 170.797 28.1758L172.484 28.0703V28.6445C172.484 29.5469 171.729 30.2266 170.691 30.2266C169.959 30.2266 169.414 29.8516 169.414 29.2129ZM177.535 31.1113C178.971 31.1113 180.066 30.332 180.066 29.207V29.1953C180.066 28.293 179.492 27.7773 178.303 27.4902L177.33 27.2559C176.586 27.0742 176.27 26.8047 176.27 26.377V26.3652C176.27 25.8086 176.82 25.4219 177.57 25.4219C178.332 25.4219 178.824 25.7676 178.959 26.2656H179.961C179.82 25.2344 178.9 24.5723 177.576 24.5723C176.234 24.5723 175.227 25.3633 175.227 26.4121V26.418C175.227 27.3262 175.76 27.8418 176.943 28.123L177.922 28.3574C178.701 28.5449 179.023 28.8438 179.023 29.2715V29.2832C179.023 29.8574 178.42 30.2617 177.57 30.2617C176.762 30.2617 176.258 29.916 176.088 29.3887H175.045C175.162 30.4316 176.129 31.1113 177.535 31.1113ZM183.699 31.1113C185.135 31.1113 186.23 30.332 186.23 29.207V29.1953C186.23 28.293 185.656 27.7773 184.467 27.4902L183.494 27.2559C182.75 27.0742 182.434 26.8047 182.434 26.377V26.3652C182.434 25.8086 182.984 25.4219 183.734 25.4219C184.496 25.4219 184.988 25.7676 185.123 26.2656H186.125C185.984 25.2344 185.064 24.5723 183.74 24.5723C182.398 24.5723 181.391 25.3633 181.391 26.4121V26.418C181.391 27.3262 181.924 27.8418 183.107 28.123L184.086 28.3574C184.865 28.5449 185.188 28.8438 185.188 29.2715V29.2832C185.188 29.8574 184.584 30.2617 183.734 30.2617C182.926 30.2617 182.422 29.916 182.252 29.3887H181.209C181.326 30.4316 182.293 31.1113 183.699 31.1113ZM193.76 31H194.803L197.92 22.5449H196.812L194.328 29.6348H194.234L191.75 22.5449H190.643L193.76 31ZM200.422 31.1113C201.271 31.1113 201.934 30.7422 202.332 30.0684H202.426V31H203.445V26.6758C203.445 25.3633 202.584 24.5723 201.043 24.5723C199.695 24.5723 198.734 25.2402 198.57 26.2305L198.564 26.2656H199.584L199.59 26.248C199.754 25.7559 200.252 25.4746 201.008 25.4746C201.951 25.4746 202.426 25.8965 202.426 26.6758V27.25L200.615 27.3613C199.145 27.4492 198.312 28.0996 198.312 29.2246V29.2363C198.312 30.3848 199.221 31.1113 200.422 31.1113ZM199.355 29.2129V29.2012C199.355 28.5742 199.777 28.2344 200.738 28.1758L202.426 28.0703V28.6445C202.426 29.5469 201.67 30.2266 200.633 30.2266C199.9 30.2266 199.355 29.8516 199.355 29.2129ZM207.424 31.1113C208.35 31.1113 208.988 30.7305 209.299 30.0566H209.393V31H210.412V24.6836H209.393V28.4219C209.393 29.5293 208.801 30.209 207.688 30.209C206.68 30.209 206.27 29.6641 206.27 28.5273V24.6836H205.25V28.7734C205.25 30.2676 205.988 31.1113 207.424 31.1113ZM212.375 31H213.395V22.1758H212.375V31ZM217.596 31.0469C217.795 31.0469 217.988 31.0234 218.188 30.9883V30.1211C218 30.1387 217.9 30.1445 217.719 30.1445C217.062 30.1445 216.805 29.8457 216.805 29.1016V25.5273H218.188V24.6836H216.805V23.0488H215.75V24.6836H214.754V25.5273H215.75V29.3594C215.75 30.5664 216.295 31.0469 217.596 31.0469Z" fill="#3D4043"/>
</g>
<path d="M300.281 29.8155C300.005 30.0916 300.005 30.5394 300.281 30.8155C300.557 31.0916 301.005 31.0916 301.281 30.8155L304.039 28.0577L306.797 30.8155C307.073 31.0916 307.521 31.0916 307.797 30.8155C308.073 30.5394 308.073 30.0916 307.797 29.8155L305.039 27.0577L307.797 24.2999C308.073 24.0237 308.073 23.576 307.797 23.2999C307.521 23.0237 307.073 23.0237 306.797 23.2999L304.039 26.0577L301.281 23.2999C301.005 23.0237 300.557 23.0237 300.281 23.2999C300.005 23.576 300.005 24.0237 300.281 24.2999L303.039 27.0577L300.281 29.8155Z" fill="#5E6063"/>
<rect x="92" y="19" width="16" height="16" rx="2" fill="#D32D27"/>
<path fill-rule="evenodd" clip-rule="evenodd" d="M105.508 24.1146C105.508 23.8973 105.684 23.7212 105.901 23.7212C106.119 23.7212 106.295 23.8973 106.295 24.1146V29.8851C106.295 30.1024 106.119 30.2786 105.901 30.2786C105.684 30.2786 105.508 30.1024 105.508 29.8851V24.1146Z" fill="white"/>
<path fill-rule="evenodd" clip-rule="evenodd" d="M94.8854 28.1805C95.5373 28.1805 96.0657 27.652 96.0657 27.0002C96.0657 26.3483 95.5373 25.8198 94.8854 25.8198C94.2335 25.8198 93.7051 26.3483 93.7051 27.0002C93.7051 27.652 94.2335 28.1805 94.8854 28.1805Z" fill="white"/>
<path fill-rule="evenodd" clip-rule="evenodd" d="M98.82 28.1805C99.4719 28.1805 100 27.652 100 27.0002C100 26.3483 99.4719 25.8198 98.82 25.8198C98.1681 25.8198 97.6396 26.3483 97.6396 27.0002C97.6396 27.652 98.1681 28.1805 98.82 28.1805Z" fill="white"/>
<path fill-rule="evenodd" clip-rule="evenodd" d="M102.754 28.1805C103.405 28.1805 103.934 27.652 103.934 27.0002C103.934 26.3483 103.405 25.8198 102.754 25.8198C102.102 25.8198 101.573 26.3483 101.573 27.0002C101.573 27.652 102.102 28.1805 102.754 28.1805Z" fill="white"/>
<rect x="2" y="44" width="367" height="37" fill="white"/>
<rect x="2" y="80.5" width="367" height="0.5" fill="#B6B6B6"/>
<path fill-rule="evenodd" clip-rule="evenodd" d="M24.2849 55.818C24.5752 56.1134 24.5712 56.5883 24.2758 56.8786L20.0829 61H29.75C30.1642 61 30.5 61.3358 30.5 61.75C30.5 62.1642 30.1642 62.5 29.75 62.5H20.0905L24.2742 66.5886C24.5704 66.8781 24.5759 67.353 24.2864 67.6492C23.9969 67.9454 23.522 67.9509 23.2258 67.6614L17.7258 62.2864C17.5817 62.1455 17.5003 61.9526 17.5 61.7511C17.4997 61.5496 17.5805 61.3564 17.7242 61.2151L23.2242 55.8089C23.5196 55.5185 23.9945 55.5226 24.2849 55.818Z" fill="#606367"/>
<path fill-rule="evenodd" clip-rule="evenodd" d="M55.7151 55.818C55.4248 56.1134 55.4288 56.5883 55.7242 56.8786L59.9171 61H50.25C49.8358 61 49.5 61.3358 49.5 61.75C49.5 62.1642 49.8358 62.5 50.25 62.5H59.9095L55.7258 66.5886C55.4296 66.8781 55.4241 67.353 55.7136 67.6492C56.0031 67.9454 56.478 67.9509 56.7742 67.6614L62.2742 62.2864C62.4183 62.1455 62.4997 61.9526 62.5 61.7511C62.5003 61.5496 62.4195 61.3564 62.2758 61.2151L56.7758 55.8089C56.4804 55.5185 56.0055 55.5226 55.7151 55.818Z" fill="#BABCBE"/>
<path d="M83 62C83 59.2386 85.2386 57 88 57C89.5073 57 90.8594 57.6667 91.7768 58.7232L89.5 61H95V55.5L92.8394 57.6606C91.65 56.3351 89.9228 55.5 88 55.5C84.4101 55.5 81.5 58.4101 81.5 62C81.5 65.5899 84.4101 68.5 88 68.5C90.5781 68.5 92.8042 66.999 93.8547 64.8265C94.0351 64.4536 93.8789 64.0051 93.506 63.8248C93.1331 63.6445 92.6847 63.8006 92.5043 64.1735C91.6947 65.8478 89.9812 67 88 67C85.2386 67 83 64.7614 83 62Z" fill="#606367"/>
<rect x="110" y="48" width="215" height="28" rx="14" fill="#F1F3F4"/>
<path fill-rule="evenodd" clip-rule="evenodd" d="M128 57C126.619 57 125.5 58.1193 125.5 59.5V60.5H125C124.448 60.5 124 60.9477 124 61.5V66.5C124 67.0523 124.448 67.5 125 67.5H131C131.552 67.5 132 67.0523 132 66.5V61.5C132 60.9477 131.552 60.5 131 60.5H130.5V59.5C130.5 58.1193 129.381 57 128 57ZM129.5 60.5V59.5C129.5 58.6716 128.828 58 128 58C127.172 58 126.5 58.6716 126.5 59.5V60.5H129.5Z" fill="#606367"/>
<path d="M145.176 67H146.365V62.6387C146.365 61.3467 147.11 60.5537 148.286 60.5537C149.462 60.5537 150.009 61.1895 150.009 62.5156V67H151.198V62.2285C151.198 60.4785 150.275 59.501 148.621 59.501C147.534 59.501 146.844 59.959 146.475 60.7383H146.365V56.7051H145.176V67ZM155.97 67.0547C156.202 67.0547 156.428 67.0273 156.66 66.9863V65.9746C156.441 65.9951 156.325 66.002 156.113 66.002C155.348 66.002 155.047 65.6533 155.047 64.7852V60.6152H156.66V59.6309H155.047V57.7236H153.816V59.6309H152.654V60.6152H153.816V65.0859C153.816 66.4941 154.452 67.0547 155.97 67.0547ZM161.056 67.0547C161.288 67.0547 161.514 67.0273 161.746 66.9863V65.9746C161.527 65.9951 161.411 66.002 161.199 66.002C160.434 66.002 160.133 65.6533 160.133 64.7852V60.6152H161.746V59.6309H160.133V57.7236H158.902V59.6309H157.74V60.6152H158.902V65.0859C158.902 66.4941 159.538 67.0547 161.056 67.0547ZM163.523 69.4609H164.713V65.8379H164.822C165.226 66.624 166.107 67.1299 167.119 67.1299C168.992 67.1299 170.209 65.6328 170.209 63.3223V63.3086C170.209 61.0117 168.985 59.501 167.119 59.501C166.094 59.501 165.273 59.9863 164.822 60.8066H164.713V59.6309H163.523V69.4609ZM166.846 66.0771C165.506 66.0771 164.686 65.0244 164.686 63.3223V63.3086C164.686 61.6064 165.506 60.5537 166.846 60.5537C168.192 60.5537 168.992 61.5928 168.992 63.3086V63.3223C168.992 65.0381 168.192 66.0771 166.846 66.0771ZM174.598 67.1299C176.272 67.1299 177.551 66.2207 177.551 64.9082V64.8945C177.551 63.8418 176.881 63.2402 175.493 62.9053L174.358 62.6318C173.49 62.4199 173.121 62.1055 173.121 61.6064V61.5928C173.121 60.9434 173.764 60.4922 174.639 60.4922C175.527 60.4922 176.102 60.8955 176.259 61.4766H177.428C177.264 60.2734 176.19 59.501 174.646 59.501C173.08 59.501 171.904 60.4238 171.904 61.6475V61.6543C171.904 62.7139 172.526 63.3154 173.907 63.6436L175.049 63.917C175.958 64.1357 176.334 64.4844 176.334 64.9834V64.9971C176.334 65.667 175.63 66.1387 174.639 66.1387C173.695 66.1387 173.107 65.7354 172.909 65.1201H171.692C171.829 66.3369 172.957 67.1299 174.598 67.1299ZM180.367 61.7773C180.859 61.7773 181.256 61.374 181.256 60.8887C181.256 60.3965 180.859 60 180.367 60C179.882 60 179.479 60.3965 179.479 60.8887C179.479 61.374 179.882 61.7773 180.367 61.7773ZM180.367 67.0684C180.859 67.0684 181.256 66.665 181.256 66.1797C181.256 65.6875 180.859 65.291 180.367 65.291C179.882 65.291 179.479 65.6875 179.479 66.1797C179.479 66.665 179.882 67.0684 180.367 67.0684ZM186.704 56.7051H185.562L182.445 69.4609H183.587L186.704 56.7051ZM190.97 56.7051H189.828L186.711 69.4609H187.853L190.97 56.7051Z" fill="#767676"/>
<path d="M193.506 67H194.695L196.336 61.2988H196.445L198.093 67H199.289L201.354 59.6309H200.171L198.722 65.5234H198.612L196.965 59.6309H195.837L194.189 65.5234H194.08L192.631 59.6309H191.441L193.506 67ZM204.348 67H205.537L207.178 61.2988H207.287L208.935 67H210.131L212.195 59.6309H211.013L209.563 65.5234H209.454L207.807 59.6309H206.679L205.031 65.5234H204.922L203.473 59.6309H202.283L204.348 67ZM215.189 67H216.379L218.02 61.2988H218.129L219.776 67H220.973L223.037 59.6309H221.854L220.405 65.5234H220.296L218.648 59.6309H217.521L215.873 65.5234H215.764L214.314 59.6309H213.125L215.189 67ZM224.555 67.0684C225.047 67.0684 225.443 66.665 225.443 66.1797C225.443 65.6875 225.047 65.291 224.555 65.291C224.069 65.291 223.666 65.6875 223.666 66.1797C223.666 66.665 224.069 67.0684 224.555 67.0684ZM227.809 67H228.998V56.7051H227.809V67ZM233.305 67.1299C234.296 67.1299 235.068 66.6992 235.533 65.9131H235.643V67H236.832V61.9551C236.832 60.4238 235.827 59.501 234.029 59.501C232.457 59.501 231.336 60.2803 231.145 61.4355L231.138 61.4766H232.327L232.334 61.4561C232.525 60.8818 233.106 60.5537 233.988 60.5537C235.089 60.5537 235.643 61.0459 235.643 61.9551V62.625L233.53 62.7549C231.814 62.8574 230.844 63.6162 230.844 64.9287V64.9424C230.844 66.2822 231.903 67.1299 233.305 67.1299ZM232.061 64.915V64.9014C232.061 64.1699 232.553 63.7734 233.674 63.7051L235.643 63.582V64.252C235.643 65.3047 234.761 66.0977 233.551 66.0977C232.696 66.0977 232.061 65.6602 232.061 64.915ZM241.535 67.1299C243.21 67.1299 244.488 66.2207 244.488 64.9082V64.8945C244.488 63.8418 243.818 63.2402 242.431 62.9053L241.296 62.6318C240.428 62.4199 240.059 62.1055 240.059 61.6064V61.5928C240.059 60.9434 240.701 60.4922 241.576 60.4922C242.465 60.4922 243.039 60.8955 243.196 61.4766H244.365C244.201 60.2734 243.128 59.501 241.583 59.501C240.018 59.501 238.842 60.4238 238.842 61.6475V61.6543C238.842 62.7139 239.464 63.3154 240.845 63.6436L241.986 63.917C242.896 64.1357 243.271 64.4844 243.271 64.9834V64.9971C243.271 65.667 242.567 66.1387 241.576 66.1387C240.633 66.1387 240.045 65.7354 239.847 65.1201H238.63C238.767 66.3369 239.895 67.1299 241.535 67.1299ZM248.884 67.0547C249.116 67.0547 249.342 67.0273 249.574 66.9863V65.9746C249.355 65.9951 249.239 66.002 249.027 66.002C248.262 66.002 247.961 65.6533 247.961 64.7852V60.6152H249.574V59.6309H247.961V57.7236H246.73V59.6309H245.568V60.6152H246.73V65.0859C246.73 66.4941 247.366 67.0547 248.884 67.0547ZM251.352 69.4609H252.541V65.8379H252.65C253.054 66.624 253.936 67.1299 254.947 67.1299C256.82 67.1299 258.037 65.6328 258.037 63.3223V63.3086C258.037 61.0117 256.813 59.501 254.947 59.501C253.922 59.501 253.102 59.9863 252.65 60.8066H252.541V59.6309H251.352V69.4609ZM254.674 66.0771C253.334 66.0771 252.514 65.0244 252.514 63.3223V63.3086C252.514 61.6064 253.334 60.5537 254.674 60.5537C256.021 60.5537 256.82 61.5928 256.82 63.3086V63.3223C256.82 65.0381 256.021 66.0771 254.674 66.0771ZM261.92 67.1299C262.911 67.1299 263.684 66.6992 264.148 65.9131H264.258V67H265.447V61.9551C265.447 60.4238 264.442 59.501 262.645 59.501C261.072 59.501 259.951 60.2803 259.76 61.4355L259.753 61.4766H260.942L260.949 61.4561C261.141 60.8818 261.722 60.5537 262.604 60.5537C263.704 60.5537 264.258 61.0459 264.258 61.9551V62.625L262.146 62.7549C260.43 62.8574 259.459 63.6162 259.459 64.9287V64.9424C259.459 66.2822 260.519 67.1299 261.92 67.1299ZM260.676 64.915V64.9014C260.676 64.1699 261.168 63.7734 262.289 63.7051L264.258 63.582V64.252C264.258 65.3047 263.376 66.0977 262.166 66.0977C261.312 66.0977 260.676 65.6602 260.676 64.915ZM270.15 67.1299C271.825 67.1299 273.104 66.2207 273.104 64.9082V64.8945C273.104 63.8418 272.434 63.2402 271.046 62.9053L269.911 62.6318C269.043 62.4199 268.674 62.1055 268.674 61.6064V61.5928C268.674 60.9434 269.316 60.4922 270.191 60.4922C271.08 60.4922 271.654 60.8955 271.812 61.4766H272.98C272.816 60.2734 271.743 59.501 270.198 59.501C268.633 59.501 267.457 60.4238 267.457 61.6475V61.6543C267.457 62.7139 268.079 63.3154 269.46 63.6436L270.602 63.917C271.511 64.1357 271.887 64.4844 271.887 64.9834V64.9971C271.887 65.667 271.183 66.1387 270.191 66.1387C269.248 66.1387 268.66 65.7354 268.462 65.1201H267.245C267.382 66.3369 268.51 67.1299 270.15 67.1299ZM277.342 67.1299C279.017 67.1299 280.295 66.2207 280.295 64.9082V64.8945C280.295 63.8418 279.625 63.2402 278.237 62.9053L277.103 62.6318C276.234 62.4199 275.865 62.1055 275.865 61.6064V61.5928C275.865 60.9434 276.508 60.4922 277.383 60.4922C278.271 60.4922 278.846 60.8955 279.003 61.4766H280.172C280.008 60.2734 278.935 59.501 277.39 59.501C275.824 59.501 274.648 60.4238 274.648 61.6475V61.6543C274.648 62.7139 275.271 63.3154 276.651 63.6436L277.793 63.917C278.702 64.1357 279.078 64.4844 279.078 64.9834V64.9971C279.078 65.667 278.374 66.1387 277.383 66.1387C276.439 66.1387 275.852 65.7354 275.653 65.1201H274.437C274.573 66.3369 275.701 67.1299 277.342 67.1299ZM283.111 67.0684C283.604 67.0684 284 66.665 284 66.1797C284 65.6875 283.604 65.291 283.111 65.291C282.626 65.291 282.223 65.6875 282.223 66.1797C282.223 66.665 282.626 67.0684 283.111 67.0684ZM289.038 67.1299C290.809 67.1299 291.8 66.1797 292.101 64.8467L292.114 64.7715L290.938 64.7783L290.925 64.8193C290.651 65.6396 290.022 66.0771 289.031 66.0771C287.719 66.0771 286.871 64.9902 286.871 63.2949V63.2812C286.871 61.6201 287.705 60.5537 289.031 60.5537C290.091 60.5537 290.747 61.1416 290.932 61.8662L290.938 61.8867H292.121L292.114 61.8457C291.896 60.5332 290.822 59.501 289.031 59.501C286.967 59.501 285.654 60.9912 285.654 63.2812V63.2949C285.654 65.6328 286.974 67.1299 289.038 67.1299Z" fill="#202124"/>
<g clip-path="url(#clip0_1319_140096)">
<path d="M316.946 59.6893C316.884 59.5234 316.773 59.3802 316.626 59.2789C316.48 59.1777 316.306 59.1231 316.128 59.1227H312.586L311.318 55.5624C311.255 55.3963 311.143 55.2533 310.995 55.1528C310.848 55.0522 310.673 54.9989 310.494 55C310.316 55.0012 310.141 55.0568 309.995 55.1592C309.849 55.2617 309.739 55.4062 309.678 55.573L308.414 59.1227H304.873C304.694 59.1229 304.519 59.1777 304.372 59.2797C304.225 59.3817 304.114 59.526 304.053 59.693C303.991 59.86 303.983 60.0416 304.03 60.2132C304.076 60.3848 304.175 60.5381 304.312 60.6524L307.31 63.1155L306.052 66.8578C305.993 67.0321 305.992 67.2205 306.048 67.3957C306.104 67.5709 306.215 67.7238 306.365 67.8323C306.515 67.9408 306.695 67.9992 306.881 67.999C307.066 67.9989 307.247 67.9402 307.396 67.8315L310.5 65.5769L313.604 67.8327C313.753 67.9412 313.933 67.9998 314.118 68C314.304 68.0002 314.484 67.9421 314.634 67.834C314.783 67.7258 314.895 67.5733 314.951 67.3985C315.008 67.2237 315.006 67.0356 314.948 66.8613L313.689 63.1167L316.694 60.6476C316.83 60.5324 316.927 60.3789 316.972 60.2076C317.017 60.0363 317.008 59.8555 316.946 59.6893ZM312.615 62.4662C312.523 62.5422 312.456 62.6441 312.423 62.7586C312.389 62.8731 312.392 62.9948 312.43 63.1078L313.353 65.8534C313.363 65.8831 313.364 65.9153 313.354 65.9452C313.344 65.9751 313.325 66.0012 313.3 66.0197C313.274 66.0382 313.243 66.0481 313.212 66.0481C313.18 66.048 313.149 66.038 313.124 66.0194L310.852 64.3663C310.75 64.2919 310.626 64.2518 310.499 64.2518C310.373 64.2518 310.249 64.2919 310.147 64.3663L307.878 66.0165C307.852 66.0349 307.822 66.0449 307.79 66.0449C307.759 66.045 307.728 66.0351 307.702 66.0167C307.677 65.9983 307.658 65.9723 307.648 65.9426C307.638 65.9128 307.639 65.8807 307.648 65.851L308.571 63.1055C308.609 62.9925 308.612 62.8708 308.579 62.7563C308.546 62.6418 308.479 62.5399 308.386 62.4638L306.075 60.5661C306.051 60.5468 306.034 60.5206 306.026 60.4913C306.018 60.4619 306.019 60.4308 306.029 60.4022C306.04 60.3735 306.059 60.3488 306.084 60.3312C306.109 60.3137 306.139 60.3043 306.17 60.3044H308.837C308.96 60.3043 309.08 60.2663 309.181 60.1957C309.282 60.125 309.358 60.025 309.399 59.9097L310.36 57.2108C310.37 57.1819 310.389 57.1568 310.414 57.1391C310.439 57.1214 310.469 57.1118 310.5 57.1118C310.531 57.1118 310.561 57.1214 310.586 57.1391C310.612 57.1568 310.631 57.1819 310.641 57.2108L311.601 59.9097C311.642 60.025 311.718 60.125 311.819 60.1957C311.919 60.2663 312.04 60.3043 312.163 60.3044H314.83C314.861 60.3043 314.891 60.3137 314.916 60.3312C314.941 60.3488 314.96 60.3735 314.97 60.4022C314.981 60.4308 314.982 60.4619 314.974 60.4913C314.966 60.5206 314.949 60.5468 314.925 60.5661L312.615 62.4662Z" fill="#40526D"/>
</g>
<path d="M354.187 57.4375H342.812C342.513 57.4375 342.271 57.68 342.271 57.9792V58.5208C342.271 58.82 342.513 59.0625 342.812 59.0625H354.187C354.486 59.0625 354.729 58.82 354.729 58.5208V57.9792C354.729 57.68 354.486 57.4375 354.187 57.4375Z" fill="#606367"/>
<path d="M354.187 60.6875H342.812C342.513 60.6875 342.271 60.93 342.271 61.2292V61.7708C342.271 62.07 342.513 62.3125 342.812 62.3125H354.187C354.486 62.3125 354.729 62.07 354.729 61.7708V61.2292C354.729 60.93 354.486 60.6875 354.187 60.6875Z" fill="#606367"/>
<path d="M354.187 63.9375H342.812C342.513 63.9375 342.271 64.18 342.271 64.4792V65.0208C342.271 65.32 342.513 65.5625 342.812 65.5625H354.187C354.486 65.5625 354.729 65.32 354.729 65.0208V64.4792C354.729 64.18 354.486 63.9375 354.187 63.9375Z" fill="#606367"/>
<g filter="url(#filter4_ddd_1319_140096)">
<rect x="335" y="49" width="26" height="26" rx="3" stroke="#D32D27" stroke-width="2"/>
</g>
<path d="M353.6 77.8904V76.6761C353.6 76.3541 353.474 76.0452 353.249 75.8175C353.023 75.5898 352.718 75.4619 352.4 75.4619C352.082 75.4619 351.777 75.5898 351.551 75.8175C351.326 76.0452 351.2 76.3541 351.2 76.6761V76.0714C351.2 75.7494 351.074 75.4405 350.849 75.2128C350.623 74.9851 350.318 74.8571 350 74.8571C349.682 74.8571 349.377 74.9851 349.151 75.2128C348.926 75.4405 348.8 75.7494 348.8 76.0714V71.2143C348.8 70.8922 348.674 70.5834 348.449 70.3557C348.223 70.1279 347.918 70 347.6 70C347.282 70 346.977 70.1279 346.751 70.3557C346.526 70.5834 346.4 70.8922 346.4 71.2143V78.5C345.763 78.5 345.153 78.7559 344.703 79.2113C344.253 79.6668 344 80.2845 344 80.9286C344 82.1133 344.366 83.2684 345.046 84.2322L345.926 85.4749C346.259 85.9462 346.698 86.3305 347.207 86.5957C347.716 86.861 348.28 86.9995 348.853 87H351.903C352.441 87 352.974 86.8927 353.472 86.6842C353.969 86.4757 354.42 86.1701 354.801 85.7849C355.181 85.3997 355.483 84.9424 355.689 84.4392C355.895 83.9359 356 83.3966 356 82.852V77.8904C356 77.5684 355.874 77.2595 355.649 77.0318C355.423 76.8041 355.118 76.6761 354.8 76.6761C354.482 76.6761 354.177 76.8041 353.951 77.0318C353.726 77.2595 353.6 77.5684 353.6 77.8904Z" fill="white" stroke="#1B283C" stroke-width="1.25" stroke-linecap="round" stroke-linejoin="round"/>
</g>
<defs>
<filter id="filter0_ddd_1319_140096" x="0" y="0" width="371" height="91.625" filterUnits="userSpaceOnUse" color-interpolation-filters="sRGB">
<feFlood flood-opacity="0" result="BackgroundImageFix"/>
<feColorMatrix in="SourceAlpha" type="matrix" values="0 0 0 0 0 0 0 0 0 0 0 0 0 0 0 0 0 0 127 0" result="hardAlpha"/>
<feOffset dy="1"/>
<feGaussianBlur stdDeviation="1"/>
<feColorMatrix type="matrix" values="0 0 0 0 0.113958 0 0 0 0 0.188601 0 0 0 0 0.28457 0 0 0 0.04 0"/>
<feBlend mode="normal" in2="BackgroundImageFix" result="effect1_dropShadow_1319_140096"/>
<feColorMatrix in="SourceAlpha" type="matrix" values="0 0 0 0 0 0 0 0 0 0 0 0 0 0 0 0 0 0 127 0" result="hardAlpha"/>
<feOffset dy="2"/>
<feGaussianBlur stdDeviation="1"/>
<feColorMatrix type="matrix" values="0 0 0 0 0.113958 0 0 0 0 0.188601 0 0 0 0 0.28457 0 0 0 0.04 0"/>
<feBlend mode="normal" in2="effect1_dropShadow_1319_140096" result="effect2_dropShadow_1319_140096"/>
<feColorMatrix in="SourceAlpha" type="matrix" values="0 0 0 0 0 0 0 0 0 0 0 0 0 0 0 0 0 0 127 0" result="hardAlpha"/>
<feOffset/>
<feGaussianBlur stdDeviation="1"/>
<feColorMatrix type="matrix" values="0 0 0 0 0.113958 0 0 0 0 0.188601 0 0 0 0 0.28457 0 0 0 0.16 0"/>
<feBlend mode="normal" in2="effect2_dropShadow_1319_140096" result="effect3_dropShadow_1319_140096"/>
<feBlend mode="normal" in="SourceGraphic" in2="effect3_dropShadow_1319_140096" result="shape"/>
</filter>
<filter id="filter1_i_1319_140096" x="15" y="18" width="12" height="12" filterUnits="userSpaceOnUse" color-interpolation-filters="sRGB">
<feFlood flood-opacity="0" result="BackgroundImageFix"/>
<feBlend mode="normal" in="SourceGraphic" in2="BackgroundImageFix" result="shape"/>
<feColorMatrix in="SourceAlpha" type="matrix" values="0 0 0 0 0 0 0 0 0 0 0 0 0 0 0 0 0 0 127 0" result="hardAlpha"/>
<feOffset/>
<feGaussianBlur stdDeviation="3"/>
<feComposite in2="hardAlpha" operator="arithmetic" k2="-1" k3="1"/>
<feColorMatrix type="matrix" values="0 0 0 0 0.92549 0 0 0 0 0.427451 0 0 0 0 0.384314 0 0 0 1 0"/>
<feBlend mode="normal" in2="shape" result="effect1_innerShadow_1319_140096"/>
</filter>
<filter id="filter2_i_1319_140096" x="35" y="18" width="12" height="12" filterUnits="userSpaceOnUse" color-interpolation-filters="sRGB">
<feFlood flood-opacity="0" result="BackgroundImageFix"/>
<feBlend mode="normal" in="SourceGraphic" in2="BackgroundImageFix" result="shape"/>
<feColorMatrix in="SourceAlpha" type="matrix" values="0 0 0 0 0 0 0 0 0 0 0 0 0 0 0 0 0 0 127 0" result="hardAlpha"/>
<feOffset/>
<feGaussianBlur stdDeviation="3"/>
<feComposite in2="hardAlpha" operator="arithmetic" k2="-1" k3="1"/>
<feColorMatrix type="matrix" values="0 0 0 0 0.960784 0 0 0 0 0.768627 0 0 0 0 0.317647 0 0 0 1 0"/>
<feBlend mode="normal" in2="shape" result="effect1_innerShadow_1319_140096"/>
</filter>
<filter id="filter3_i_1319_140096" x="55" y="18" width="12" height="12" filterUnits="userSpaceOnUse" color-interpolation-filters="sRGB">
<feFlood flood-opacity="0" result="BackgroundImageFix"/>
<feBlend mode="normal" in="SourceGraphic" in2="BackgroundImageFix" result="shape"/>
<feColorMatrix in="SourceAlpha" type="matrix" values="0 0 0 0 0 0 0 0 0 0 0 0 0 0 0 0 0 0 127 0" result="hardAlpha"/>
<feOffset/>
<feGaussianBlur stdDeviation="3"/>
<feComposite in2="hardAlpha" operator="arithmetic" k2="-1" k3="1"/>
<feColorMatrix type="matrix" values="0 0 0 0 0.407843 0 0 0 0 0.8 0 0 0 0 0.345098 0 0 0 1 0"/>
<feBlend mode="normal" in2="shape" result="effect1_innerShadow_1319_140096"/>
</filter>
<filter id="filter4_ddd_1319_140096" x="332" y="46" width="32" height="34" filterUnits="userSpaceOnUse" color-interpolation-filters="sRGB">
<feFlood flood-opacity="0" result="BackgroundImageFix"/>
<feColorMatrix in="SourceAlpha" type="matrix" values="0 0 0 0 0 0 0 0 0 0 0 0 0 0 0 0 0 0 127 0" result="hardAlpha"/>
<feOffset dy="1"/>
<feGaussianBlur stdDeviation="1"/>
<feColorMatrix type="matrix" values="0 0 0 0 0.113958 0 0 0 0 0.188601 0 0 0 0 0.28457 0 0 0 0.04 0"/>
<feBlend mode="normal" in2="BackgroundImageFix" result="effect1_dropShadow_1319_140096"/>
<feColorMatrix in="SourceAlpha" type="matrix" values="0 0 0 0 0 0 0 0 0 0 0 0 0 0 0 0 0 0 127 0" result="hardAlpha"/>
<feOffset dy="2"/>
<feGaussianBlur stdDeviation="1"/>
<feColorMatrix type="matrix" values="0 0 0 0 0.113958 0 0 0 0 0.188601 0 0 0 0 0.28457 0 0 0 0.04 0"/>
<feBlend mode="normal" in2="effect1_dropShadow_1319_140096" result="effect2_dropShadow_1319_140096"/>
<feColorMatrix in="SourceAlpha" type="matrix" values="0 0 0 0 0 0 0 0 0 0 0 0 0 0 0 0 0 0 127 0" result="hardAlpha"/>
<feOffset/>
<feGaussianBlur stdDeviation="1"/>
<feColorMatrix type="matrix" values="0 0 0 0 0.113958 0 0 0 0 0.188601 0 0 0 0 0.28457 0 0 0 0.16 0"/>
<feBlend mode="normal" in2="effect2_dropShadow_1319_140096" result="effect3_dropShadow_1319_140096"/>
<feBlend mode="normal" in="SourceGraphic" in2="effect3_dropShadow_1319_140096" result="shape"/>
</filter>
<linearGradient id="paint0_linear_1319_140096" x1="185.5" y1="2" x2="185.5" y2="44" gradientUnits="userSpaceOnUse">
<stop offset="0.00595238" stop-color="#DFE1E5"/>
<stop offset="0.994048" stop-color="#DFE1E5"/>
</linearGradient>
<linearGradient id="paint1_linear_1319_140096" x1="293" y1="27" x2="116" y2="27.0001" gradientUnits="userSpaceOnUse">
<stop stop-opacity="0"/>
<stop offset="0.100283"/>
</linearGradient>
<clipPath id="clip0_1319_140096">
<rect width="13" height="13" fill="white" transform="translate(304 55)"/>
</clipPath>
</defs>
</svg>
