<svg width="16" height="16" viewBox="0 0 16 16" fill="none" xmlns="http://www.w3.org/2000/svg">
<path d="M15.032 7.0406H3.62462C3.59088 7.04027 3.55802 7.02975 3.53036 7.01042C3.5027 6.99109 3.48154 6.96384 3.46964 6.93226C3.45774 6.90068 3.45567 6.86624 3.4637 6.83347C3.47173 6.80069 3.48948 6.77111 3.51462 6.7486L9.27262 1.68193C9.45364 1.51126 9.56133 1.27698 9.573 1.02846C9.58467 0.77994 9.4994 0.536599 9.33516 0.349718C9.17093 0.162837 8.94056 0.0470142 8.6926 0.0266583C8.44464 0.00630245 8.19847 0.0830039 8.00595 0.240598L0.551953 6.79993C0.381703 6.95008 0.24535 7.13473 0.151953 7.34163C0.0585566 7.54853 0.0102539 7.77293 0.0102539 7.99993C0.0102539 8.22693 0.0585566 8.45133 0.151953 8.65823C0.24535 8.86513 0.381703 9.04978 0.551953 9.19993L8.00462 15.7579C8.19729 15.9135 8.44264 15.9887 8.68941 15.9676C8.93618 15.9466 9.16526 15.831 9.32879 15.645C9.49233 15.459 9.57765 15.217 9.56693 14.9696C9.55622 14.7221 9.45029 14.4884 9.27129 14.3173L3.51329 9.2506C3.48814 9.22809 3.47039 9.19851 3.46237 9.16573C3.45434 9.13295 3.45641 9.09851 3.46831 9.06693C3.4802 9.03535 3.50137 9.00811 3.52903 8.98878C3.55668 8.96944 3.58954 8.95892 3.62329 8.9586H15.032C15.2821 8.952 15.5198 8.848 15.6944 8.66875C15.869 8.4895 15.9667 8.24916 15.9667 7.99893C15.9667 7.7487 15.869 7.50837 15.6944 7.32911C15.5198 7.14986 15.2821 7.04586 15.032 7.03926V7.0406Z" fill="#40526D"/>
</svg>
