<svg width="18" height="14" viewBox="0 0 18 14" fill="none" xmlns="http://www.w3.org/2000/svg">
    <path d="M11.5998 5.669C11.5582 5.66309 11.5201 5.64233 11.4926 5.61056C11.465 5.57879 11.4499 5.53814 11.45 5.4961V4.7835C11.45 4.13372 11.1919 3.51055 10.7324 3.05108C10.2729 2.59162 9.64978 2.3335 9 2.3335C8.35022 2.3335 7.72705 2.59162 7.26759 3.05108C6.80812 3.51055 6.55 4.13372 6.55 4.7835V5.4961C6.55008 5.53814 6.53496 5.57879 6.50744 5.61056C6.47991 5.64233 6.44182 5.66309 6.4002 5.669C6.15022 5.70503 5.9216 5.82996 5.75626 6.02088C5.59092 6.21181 5.49994 6.45593 5.5 6.7085V10.5585C5.5 10.837 5.61062 11.104 5.80754 11.301C6.00445 11.4979 6.27152 11.6085 6.55 11.6085H11.45C11.7285 11.6085 11.9956 11.4979 12.1925 11.301C12.3894 11.104 12.5 10.837 12.5 10.5585V6.7085C12.5001 6.45593 12.4091 6.21181 12.2437 6.02088C12.0784 5.82996 11.8498 5.70503 11.5998 5.669ZM9.7 8.9835C9.7 9.12194 9.65895 9.25728 9.58203 9.3724C9.50511 9.48751 9.39579 9.57723 9.26788 9.63021C9.13997 9.68319 8.99922 9.69706 8.86344 9.67005C8.72765 9.64304 8.60292 9.57637 8.50503 9.47847C8.40713 9.38058 8.34046 9.25585 8.31345 9.12006C8.28644 8.98427 8.3003 8.84353 8.35329 8.71562C8.40627 8.58771 8.49599 8.47838 8.6111 8.40147C8.72622 8.32455 8.86155 8.2835 9 8.2835C9.18565 8.2835 9.3637 8.35725 9.49498 8.48852C9.62625 8.6198 9.7 8.79784 9.7 8.9835ZM7.95 4.7835C7.95 4.50502 8.06063 4.23795 8.25754 4.04103C8.45445 3.84412 8.72152 3.7335 9 3.7335C9.27848 3.7335 9.54555 3.84412 9.74246 4.04103C9.93938 4.23795 10.05 4.50502 10.05 4.7835V5.4835C10.05 5.52991 10.0316 5.57442 9.99875 5.60724C9.96593 5.64006 9.92142 5.6585 9.875 5.6585H8.125C8.07859 5.6585 8.03408 5.64006 8.00126 5.60724C7.96844 5.57442 7.95 5.52991 7.95 5.4835V4.7835Z" fill="#40526D"/>
    <path d="M9.7 8.9835C9.7 9.12194 9.65895 9.25728 9.58203 9.3724C9.50511 9.48751 9.39579 9.57723 9.26788 9.63021C9.13997 9.68319 8.99922 9.69706 8.86344 9.67005C8.72765 9.64304 8.60292 9.57637 8.50503 9.47847C8.40713 9.38058 8.34046 9.25585 8.31345 9.12006C8.28644 8.98427 8.3003 8.84353 8.35329 8.71562C8.40627 8.58771 8.49599 8.47838 8.6111 8.40147C8.72622 8.32455 8.86155 8.2835 9 8.2835C9.18565 8.2835 9.3637 8.35725 9.49498 8.48852C9.62625 8.6198 9.7 8.79784 9.7 8.9835Z" fill="#40526D"/>
    <rect x="2.5" y="0.5" width="13" height="13" rx="1.5" stroke="#40526D"/>
    <path d="M2.6007 11.8039C2.52331 11.8843 2.39459 11.8843 2.3172 11.8039L0.649929 10.0712C0.529669 9.9462 0.618241 9.73806 0.791682 9.73806H4.12622C4.29966 9.73806 4.38824 9.9462 4.26798 10.0712L2.6007 11.8039Z" fill="#40526D"/>
    <path d="M15.4159 2.14731C15.4933 2.06689 15.622 2.06689 15.6994 2.14731L17.3667 3.87999C17.4869 4.00497 17.3984 4.21311 17.2249 4.21311H13.8904C13.7169 4.21311 13.6284 4.00497 13.7486 3.87999L15.4159 2.14731Z" fill="#40526D"/>
</svg>
