<svg width="60" height="40" viewBox="0 0 60 40" fill="none" xmlns="http://www.w3.org/2000/svg">
<path d="M43.7597 6.31982H14.0006V28.8794H43.7597V6.31982Z" fill="#D7DBE0" stroke="#D7DBE0" stroke-width="1.25" stroke-linecap="round" stroke-linejoin="round"/>
<path d="M28.8799 9.19971H16.8804V25.9991H28.8799V9.19971Z" fill="white" stroke="#D7DBE0" stroke-width="1.25" stroke-linecap="round" stroke-linejoin="round"/>
<path d="M43.7597 6.31973H14V3.37352C14 3.00924 14.1447 2.65988 14.4023 2.4023C14.6599 2.14471 15.0092 2 15.3735 2H42.3862C42.7504 2 43.0998 2.14471 43.3574 2.4023C43.615 2.65988 43.7597 3.00924 43.7597 3.37352V6.31973Z" fill="white"/>
<path d="M42.3156 2H15.4432C15.0607 2 14.6939 2.15195 14.4234 2.42241C14.153 2.69288 14.001 3.05971 14.001 3.4422V3.86742H43.7607V3.4422C43.7607 3.25257 43.7233 3.0648 43.6506 2.88964C43.578 2.71447 43.4715 2.55536 43.3373 2.4214C43.203 2.28744 43.0437 2.18127 42.8684 2.10896C42.6931 2.03665 42.5053 1.99963 42.3156 2Z" fill="#D7DBE0"/>
<path d="M43.0729 37.5187H14.6868C14.5046 37.5187 14.3299 37.4464 14.2011 37.3176C14.0724 37.1888 14 37.0141 14 36.8319V28.877H43.7597V36.8319C43.7597 37.0141 43.6873 37.1888 43.5585 37.3176C43.4297 37.4464 43.2551 37.5187 43.0729 37.5187Z" fill="white" stroke="#D7DBE0" stroke-width="1.25" stroke-linecap="round" stroke-linejoin="round"/>
<path d="M37.0403 33.1992C37.0403 33.3883 37.003 33.5756 36.9306 33.7503C36.8582 33.9251 36.7521 34.0838 36.6184 34.2176C36.4846 34.3513 36.3258 34.4573 36.151 34.5297C35.9763 34.602 35.789 34.6392 35.5998 34.6391H22.1605C21.7786 34.6391 21.4123 34.4874 21.1423 34.2174C20.8723 33.9473 20.7206 33.5811 20.7206 33.1992C20.7206 32.8173 20.8723 32.4511 21.1423 32.181C21.4123 31.911 21.7786 31.7593 22.1605 31.7593H35.5998C35.9818 31.7593 36.3481 31.911 36.6182 32.181C36.8883 32.451 37.0402 32.8172 37.0403 33.1992Z" fill="#D7DBE0" stroke="#D7DBE0" stroke-width="1.25" stroke-linecap="round" stroke-linejoin="round"/>
<path d="M35.1202 31.7593H22.6406C22.6406 31.7593 22.3247 35.865 21.6929 37.9281C21.6563 38.0474 21.6482 38.1737 21.6694 38.2967C21.6906 38.4196 21.7403 38.5359 21.8146 38.6362C21.889 38.7364 21.9858 38.8178 22.0974 38.8737C22.2089 38.9297 22.3321 38.9586 22.4569 38.9583H35.3033C35.4281 38.9586 35.5513 38.9297 35.6628 38.8737C35.7744 38.8178 35.8712 38.7364 35.9456 38.6362C36.0199 38.5359 36.0697 38.4196 36.0908 38.2967C36.112 38.1737 36.1039 38.0474 36.0674 37.9281C35.4361 35.865 35.1202 31.7593 35.1202 31.7593Z" fill="white"/>
<path d="M43.7597 32.4975H47.9598C48.3417 32.4975 48.708 32.3458 48.978 32.0758C49.248 31.8057 49.3997 31.4395 49.3997 31.0576C49.3998 30.8685 49.3626 30.6812 49.2903 30.5065C49.2179 30.3317 49.1119 30.173 48.9782 30.0392C48.8444 29.9055 48.6857 29.7995 48.5109 29.7271C48.3362 29.6548 48.1489 29.6176 47.9598 29.6177H43.7597V32.4975Z" fill="white"/>
<path d="M45.1395 29.6177H43.7597V32.4975H45.1395V29.6177Z" fill="#D7DBE0"/>
<path d="M43.7597 32.4975H47.9598C48.3417 32.4975 48.708 32.3458 48.978 32.0758C49.248 31.8057 49.3997 31.4395 49.3997 31.0576C49.3998 30.8685 49.3626 30.6812 49.2903 30.5065C49.2179 30.3317 49.1119 30.173 48.9782 30.0392C48.8444 29.9055 48.6857 29.7995 48.5109 29.7271C48.3362 29.6548 48.1489 29.6176 47.9598 29.6177H43.7597V32.4975Z" stroke="#D7DBE0" stroke-width="1.25" stroke-linecap="round" stroke-linejoin="round"/>
<path d="M47.9598 29.6173V19.5454" stroke="#D7DBE0" stroke-width="0.572302" stroke-linecap="round" stroke-linejoin="round"/>
<path d="M40.8799 9.19971H28.8804V25.9991H40.8799V9.19971Z" fill="white" stroke="#D7DBE0" stroke-width="1.25" stroke-linecap="round" stroke-linejoin="round"/>
<path d="M14.0006 6.31982L16.8804 9.19965H40.8799L43.7597 6.31982H14.0006Z" fill="#D7DBE0" stroke="#D7DBE0" stroke-width="1.25" stroke-linecap="round" stroke-linejoin="round"/>
<path d="M16.8804 25.9995L14.0006 28.8793H43.7597L40.8799 25.9995H16.8804Z" fill="#D7DBE0" stroke="#D7DBE0" stroke-width="1.25" stroke-linecap="round" stroke-linejoin="round"/>
<path d="M25.0403 36.0786H32.72" stroke="#D7DBE0" stroke-width="0.572302" stroke-linecap="round" stroke-linejoin="round"/>
<path d="M27.4405 34.1592H32.72" stroke="#D7DBE0" stroke-width="0.572302" stroke-linecap="round" stroke-linejoin="round"/>
<path d="M35.1202 31.7593H22.6406C22.6406 31.7593 22.3247 35.865 21.6929 37.9281C21.6563 38.0474 21.6482 38.1737 21.6694 38.2967C21.6906 38.4196 21.7403 38.5359 21.8146 38.6362C21.889 38.7364 21.9858 38.8178 22.0974 38.8737C22.2089 38.9297 22.3321 38.9586 22.4569 38.9583H35.3033C35.4281 38.9586 35.5513 38.9297 35.6628 38.8737C35.7744 38.8178 35.8712 38.7364 35.9456 38.6362C36.0199 38.5359 36.0697 38.4196 36.0908 38.2967C36.112 38.1737 36.1039 38.0474 36.0674 37.9281C35.4361 35.865 35.1202 31.7593 35.1202 31.7593Z" stroke="#D7DBE0" stroke-width="1.25" stroke-linecap="round" stroke-linejoin="round"/>
<path d="M43.7597 6.31973H14V3.37352C14 3.00924 14.1447 2.65988 14.4023 2.4023C14.6599 2.14471 15.0092 2 15.3735 2H42.3862C42.7504 2 43.0998 2.14471 43.3574 2.4023C43.615 2.65988 43.7597 3.00924 43.7597 3.37352V6.31973Z" stroke="#D7DBE0" stroke-width="1.25" stroke-linecap="round" stroke-linejoin="round"/>
<path d="M47.9598 19.5456C49.3958 19.5456 50.5598 18.3816 50.5598 16.9457C50.5598 15.5097 49.3958 14.3457 47.9598 14.3457C46.5239 14.3457 45.3599 15.5097 45.3599 16.9457C45.3599 18.3816 46.5239 19.5456 47.9598 19.5456Z" fill="#D7DBE0"/>
<path d="M47.9598 19.5456C49.3958 19.5456 50.5598 18.3816 50.5598 16.9457C50.5598 15.5097 49.3958 14.3457 47.9598 14.3457C46.5239 14.3457 45.3599 15.5097 45.3599 16.9457C45.3599 18.3816 46.5239 19.5456 47.9598 19.5456Z" stroke="#D7DBE0" stroke-width="1.25" stroke-linecap="round" stroke-linejoin="round"/>
<path fill-rule="evenodd" clip-rule="evenodd" d="M25.6967 14.7994C25.6967 13.1034 24.3138 11.729 22.6086 11.729C20.9034 11.729 19.5204 13.1034 19.5204 14.7994C19.5204 16.2045 20.471 17.3863 21.7664 17.7508V18.4279L21.2049 18.9856L21.7664 19.5444V20.1027L21.2049 20.6609L21.7664 21.2192V22.0565L22.6086 22.8939L23.4508 22.0565V17.7508C24.7462 17.3863 25.6967 16.2045 25.6967 14.7994Z" fill="#D7DBE0" stroke="#D7DBE0" stroke-width="0.457446" stroke-linecap="round" stroke-dasharray="43 1.66 0.24 0.95"/>
<path fill-rule="evenodd" clip-rule="evenodd" d="M23.2024 14.4606C23.2024 14.7884 22.9363 15.0545 22.6085 15.0545C22.2807 15.0545 22.0146 14.7884 22.0146 14.4606C22.0146 14.1328 22.2807 13.8667 22.6085 13.8667C22.9363 13.8667 23.2024 14.1328 23.2024 14.4606Z" fill="white"/>
<path fill-rule="evenodd" clip-rule="evenodd" d="M38.2874 14.7994C38.2874 13.1034 36.9044 11.729 35.1992 11.729C33.494 11.729 32.1111 13.1034 32.1111 14.7994C32.1111 16.2045 33.0616 17.3863 34.357 17.7508V18.4279L33.7955 18.9856L34.357 19.5444V20.1027L33.7955 20.6609L34.357 21.2192V22.0565L35.1992 22.8939L36.0414 22.0565V17.7508C37.3368 17.3863 38.2874 16.2045 38.2874 14.7994Z" fill="#D7DBE0" stroke="#D7DBE0" stroke-width="0.457446" stroke-linecap="round" stroke-dasharray="43 1.66 0.24 0.95"/>
<path fill-rule="evenodd" clip-rule="evenodd" d="M35.793 14.4606C35.793 14.7884 35.527 15.0545 35.1992 15.0545C34.8713 15.0545 34.6053 14.7884 34.6053 14.4606C34.6053 14.1328 34.8713 13.8667 35.1992 13.8667C35.527 13.8667 35.793 14.1328 35.793 14.4606Z" fill="white"/>
<path fill-rule="evenodd" clip-rule="evenodd" d="M4.25 36.5C4.94036 36.5 5.5 35.9404 5.5 35.25C5.5 34.5596 4.94036 34 4.25 34C3.55964 34 3 34.5596 3 35.25C3 35.9404 3.55964 36.5 4.25 36.5Z" stroke="#D7DBE0"/>
<rect x="56" y="14" width="2.5" height="2.50001" stroke="#D7DBE0" stroke-linecap="round" stroke-linejoin="round"/>
<path d="M7.10428 29.1042L9.47946 31.4793" stroke="#D7DBE0" stroke-linecap="round"/>
<path d="M9.39569 29.1042L7.02051 31.4793" stroke="#D7DBE0" stroke-linecap="round"/>
<path d="M52.1043 9.10416L54.4795 11.4793" stroke="#D7DBE0" stroke-linecap="round"/>
<path d="M54.3957 9.10416L52.0205 11.4793" stroke="#D7DBE0" stroke-linecap="round"/>
</svg>
