<svg width="36" height="36" viewBox="0 0 36 36" fill="none" xmlns="http://www.w3.org/2000/svg">
    <path d="M3.31065 0.5H32.6893C34.2416 0.5 35.5 1.75837 35.5 3.31065V32.6893C35.5 34.2416 34.2416 35.5 32.6893 35.5H3.31065C1.75837 35.5 0.5 34.2416 0.5 32.6893V3.31065C0.5 1.75837 1.75837 0.5 3.31065 0.5Z" fill="white" stroke="#EDEFF1"/>
    <path d="M7.6364 26.7886H11.4546V17.6244L6 13.5815V25.1717C6.0003 26.0646 6.73292 26.7886 7.6364 26.7886Z" fill="#4285F4"/>
    <path d="M24.5451 26.7886H28.3635C29.2673 26.7886 29.9999 26.0646 29.9999 25.1714V13.5812L24.5451 17.6244V26.7886Z" fill="#34A853"/>
    <path d="M24.5451 10.6173V17.6244L29.9996 13.5815V11.4259C29.9996 10.0864 28.9007 9.00031 27.545 9.00031C27.0139 9.00031 26.4974 9.17067 26.0725 9.4856L24.5451 10.6173Z" fill="#FBBC04"/>
    <path d="M11.4549 17.6244V10.6173L17.9999 15.4685L24.5449 10.617V17.6244L17.9999 22.4756L11.4549 17.6244Z" fill="#EA4335"/>
    <path d="M6.00139 11.4256V13.5813L11.4559 17.6244V10.6173L9.9285 9.48532C8.84415 8.68149 7.30577 8.89865 6.49243 9.97032C6.17347 10.3902 6.00139 10.901 6.00139 11.4256Z" fill="#C5221F"/>
</svg>
