<svg width="16" height="16" viewBox="0 0 16 16" fill="none" xmlns="http://www.w3.org/2000/svg">
<path d="M2.68955 14.1218L14.0033 2.80812L13.1951 2L1.88143 13.3137L2.68955 14.1218Z" fill="#3B70D4"/>
<path d="M7.99996 3.11834C8.97419 3.11834 9.90685 3.29545 10.7678 3.61921L9.32705 5.05997C8.92033 4.8831 8.47153 4.78501 7.99996 4.78501C6.15996 4.78501 4.66663 6.27834 4.66663 8.11834C4.66663 8.58991 4.76471 9.03871 4.94158 9.44544L3.03397 11.3531C1.99061 10.5033 1.16837 9.39157 0.666626 8.11834C1.81996 5.19168 4.66663 3.11834 7.99996 3.11834Z" fill="#3B70D4"/>
<path d="M7.99996 6.11834C8.08566 6.11834 8.17009 6.1237 8.25292 6.1341L6.01572 8.3713C6.00532 8.28847 5.99996 8.20405 5.99996 8.11834C5.99996 7.01168 6.89329 6.11834 7.99996 6.11834Z" fill="#3B70D4"/>
<path d="M9.94972 7.66979L7.55141 10.0681C7.69555 10.101 7.84568 10.1183 7.99996 10.1183C9.10663 10.1183 9.99996 9.22501 9.99996 8.11834C9.99996 7.96406 9.9826 7.81393 9.94972 7.66979Z" fill="#3B70D4"/>
<path d="M7.99996 11.4517C7.4669 11.4517 6.96294 11.3263 6.51595 11.1036L5.06647 12.553C5.97297 12.9177 6.96291 13.1183 7.99996 13.1183C11.3333 13.1183 14.18 11.045 15.3333 8.11834C14.8112 6.79349 13.9421 5.64351 12.8379 4.78156L10.9852 6.63434C11.208 7.08132 11.3333 7.58528 11.3333 8.11834C11.3333 9.95834 9.83996 11.4517 7.99996 11.4517Z" fill="#3B70D4"/>
</svg>
