<svg width="19" height="17" viewBox="0 0 19 17" fill="none" xmlns="http://www.w3.org/2000/svg">
<g clip-path="url(#icon-copy-to-clipboard)">
<path d="M17.4373 0.803223H4.88175C4.47812 0.803223 4.09102 0.941395 3.80561 1.18734C3.5202 1.43329 3.35986 1.76687 3.35986 2.1147V12.9344C3.35986 13.2822 3.5202 13.6158 3.80561 13.8617C4.09102 14.1077 4.47812 14.2458 4.88175 14.2458H17.4373C17.8409 14.2458 18.228 14.1077 18.5134 13.8617C18.7988 13.6158 18.9592 13.2822 18.9592 12.9344V2.1147C18.9592 1.76687 18.7988 1.43329 18.5134 1.18734C18.228 0.941395 17.8409 0.803223 17.4373 0.803223V0.803223ZM5.26222 12.9344C5.16131 12.9344 5.06454 12.8998 4.99319 12.8383C4.92183 12.7768 4.88175 12.6934 4.88175 12.6065V2.44257C4.88175 2.35561 4.92183 2.27221 4.99319 2.21073C5.06454 2.14924 5.16131 2.1147 5.26222 2.1147H17.0568C17.1577 2.1147 17.2545 2.14924 17.3259 2.21073C17.3972 2.27221 17.4373 2.35561 17.4373 2.44257V12.6065C17.4373 12.6934 17.3972 12.7768 17.3259 12.8383C17.2545 12.8998 17.1577 12.9344 17.0568 12.9344H5.26222Z" fill="white"/>
<path d="M15.5352 15.2294H2.59913C2.49823 15.2294 2.40145 15.1949 2.3301 15.1334C2.25875 15.0719 2.21866 14.9885 2.21866 14.9015V3.754C2.21866 3.58009 2.13849 3.4133 1.99579 3.29033C1.85308 3.16735 1.65953 3.09827 1.45772 3.09827C1.25591 3.09827 1.06236 3.16735 0.919652 3.29033C0.776948 3.4133 0.696777 3.58009 0.696777 3.754L0.696777 15.2294C0.696777 15.5772 0.857118 15.9108 1.14253 16.1568C1.42794 16.4027 1.81503 16.5409 2.21866 16.5409H15.5352C15.737 16.5409 15.9305 16.4718 16.0732 16.3488C16.2159 16.2258 16.2961 16.059 16.2961 15.8851C16.2961 15.7112 16.2159 15.5444 16.0732 15.4215C15.9305 15.2985 15.737 15.2294 15.5352 15.2294Z" fill="white"/>
</g>
<defs>
<clipPath id="icon-copy-to-clipboard">
<rect width="18.2626" height="15.7377" fill="white" transform="translate(0.696777 0.803223)"/>
</clipPath>
</defs>
</svg>
