<svg width="16" height="16" viewBox="0 0 16 16" fill="none" xmlns="http://www.w3.org/2000/svg">
<g clip-path="url(#clip0_442_28254)">
<path d="M8.99977 6C9.00055 5.02651 8.64482 4.08643 7.99977 3.35733V1.66667C7.99977 1.22464 7.82417 0.800716 7.51161 0.488155C7.19905 0.175595 6.77513 0 6.3331 0C5.89107 0 5.46715 0.175595 5.15459 0.488155C4.84203 0.800716 4.66643 1.22464 4.66643 1.66667V2.014C3.75617 2.09186 2.89998 2.47897 2.24026 3.11096C1.58054 3.74295 1.15704 4.58174 1.04019 5.48782C0.923332 6.39391 1.12017 7.31269 1.59796 8.09138C2.07575 8.87007 2.80571 9.46174 3.66643 9.768V10.1953L3.0971 10.764C3.06616 10.795 3.04165 10.8318 3.02494 10.8723C3.00824 10.9128 2.99969 10.9562 2.99977 11C2.99997 11.0884 3.03493 11.1732 3.0971 11.236L3.66643 11.8053V12.196L3.0971 12.7653C3.03461 12.8278 2.9995 12.9126 2.9995 13.001C2.9995 13.0894 3.03461 13.1742 3.0971 13.2367L3.66643 13.8053V14.6667C3.66635 14.7105 3.67491 14.7539 3.69161 14.7944C3.70831 14.8348 3.73283 14.8717 3.76377 14.9027L4.76377 15.9027C4.79473 15.9337 4.83151 15.9583 4.87201 15.9751C4.91251 15.9919 4.95592 16.0006 4.99977 16.0006C5.04361 16.0006 5.08702 15.9919 5.12752 15.9751C5.16802 15.9583 5.2048 15.9337 5.23577 15.9027L6.23577 14.9027C6.2667 14.8717 6.29122 14.8348 6.30792 14.7944C6.32462 14.7539 6.33318 14.7105 6.3331 14.6667V9.768C7.11142 9.49087 7.78523 8.98024 8.26251 8.30585C8.73978 7.63146 8.99726 6.82619 8.99977 6ZM4.99977 4C5.13162 4 5.26051 4.0391 5.37015 4.11235C5.47978 4.18561 5.56523 4.28973 5.61569 4.41154C5.66614 4.53336 5.67935 4.66741 5.65362 4.79673C5.6279 4.92605 5.5644 5.04484 5.47117 5.13807C5.37793 5.23131 5.25915 5.2948 5.12983 5.32052C5.00051 5.34625 4.86646 5.33304 4.74464 5.28259C4.62283 5.23213 4.51871 5.14668 4.44545 5.03705C4.3722 4.92741 4.3331 4.79852 4.3331 4.66667C4.3331 4.48986 4.40334 4.32029 4.52836 4.19526C4.65339 4.07024 4.82295 4 4.99977 4ZM6.3331 0.666667C6.59832 0.666667 6.85267 0.772023 7.04021 0.95956C7.22774 1.1471 7.3331 1.40145 7.3331 1.66667V2.75333C6.93138 2.46353 6.47924 2.25102 5.99977 2.12667V3.33333H5.3331V1.66667C5.3331 1.40145 5.43846 1.1471 5.62599 0.95956C5.81353 0.772023 6.06788 0.666667 6.3331 0.666667Z" fill="#1B283C"/>
<path d="M14.9029 12.0174L11.4362 8.55074C11.8591 7.6798 11.9486 6.68421 11.6879 5.7518C11.4272 4.8194 10.8342 4.01466 10.0209 3.4894C9.96033 3.44969 9.88848 3.43078 9.81622 3.43553C9.74396 3.44029 9.67521 3.46845 9.62037 3.51575C9.56554 3.56305 9.5276 3.62693 9.51229 3.69771C9.49699 3.7685 9.50516 3.84234 9.53556 3.90807C10.0436 5.00388 10.1362 6.24698 9.79595 7.40594C9.45574 8.5649 8.70597 9.56074 7.68622 10.2081C7.62558 10.2469 7.57916 10.3044 7.5539 10.3718C7.52863 10.4392 7.52589 10.5131 7.54608 10.5822C7.56627 10.6513 7.60831 10.712 7.6659 10.7553C7.72349 10.7985 7.79354 10.822 7.86556 10.8221H7.86956C8.45613 10.8165 9.03435 10.6825 9.56356 10.4294L9.99689 10.8141V11.6667C9.99689 11.7551 10.032 11.8399 10.0945 11.9024C10.157 11.965 10.2418 12.0001 10.3302 12.0001H11.1876L11.3302 12.1494V13.0001C11.3302 13.0885 11.3653 13.1733 11.4279 13.2358C11.4904 13.2983 11.5752 13.3334 11.6636 13.3334H12.4096L13.0209 13.9094C13.0828 13.9677 13.1646 14.0001 13.2496 14.0001H14.6669C14.7553 14.0001 14.8401 13.965 14.9026 13.9024C14.9651 13.8399 15.0002 13.7551 15.0002 13.6667V12.2527C15.0002 12.1645 14.9652 12.0799 14.9029 12.0174Z" fill="#1B283C"/>
</g>
<defs>
<clipPath id="clip0_442_28254">
<rect width="16" height="16" fill="white"/>
</clipPath>
</defs>
</svg>
