<svg width="100" height="100" viewBox="0 0 100 100" fill="none" xmlns="http://www.w3.org/2000/svg">
<path fill-rule="evenodd" clip-rule="evenodd" d="M50 100C77.6144 100 100 77.6144 100 50C100 22.3858 77.6144 0 50 0C22.3858 0 0 22.3858 0 50C0 77.6144 22.3858 100 50 100Z" fill="#EBF5FB"/>
<path fill-rule="evenodd" clip-rule="evenodd" d="M63.5599 50.8837C63.5599 57.1189 68.5938 62.1739 74.8027 62.1739C81.0116 62.1739 86.0455 57.1189 86.0455 50.8837V41.6845C86.0455 35.4493 81.0116 30.3945 74.8027 30.3945C68.5938 30.3945 63.5599 35.4493 63.5599 41.6845V50.8837ZM81.8811 50.8837C81.8811 54.8096 78.7122 57.9923 74.8027 57.9923C70.8933 57.9923 67.7238 54.8096 67.7238 50.8837V41.6845C67.7238 37.7586 70.8933 34.576 74.8027 34.576C78.7122 34.576 81.8811 37.7586 81.8811 41.6845V50.8837Z" fill="white"/>
<path d="M72.4361 34.5366C67.1983 35.1283 65.3355 38.8758 65.9272 48.1461H67.3077C67.1105 36.3117 69.0827 36.7062 72.4361 34.5366Z" fill="#B5D9F1"/>
<path d="M74.8028 61.7789C68.8128 61.7789 63.9544 56.9028 63.9544 50.8836H63.1655C63.1655 57.3356 68.3744 62.5683 74.8028 62.5683V61.7789ZM85.6511 50.8836C85.6511 56.9028 80.7922 61.7789 74.8028 61.7789V62.5683C81.2311 62.5683 86.44 57.3356 86.44 50.8836H85.6511ZM85.6511 41.6844V50.8836H86.44V41.6844H85.6511ZM74.8028 30.7889C80.7922 30.7889 85.6511 35.6655 85.6511 41.6844H86.44C86.44 35.2328 81.2311 30 74.8028 30V30.7889ZM63.9544 41.6844C63.9544 35.6655 68.8128 30.7889 74.8028 30.7889V30C68.3744 30 63.1655 35.2328 63.1655 41.6844H63.9544ZM63.9544 50.8836V41.6844H63.1655V50.8836H63.9544ZM74.8028 58.3867C78.9316 58.3867 82.2755 55.0258 82.2755 50.8836H81.4866C81.4866 54.5933 78.4928 57.5978 74.8028 57.5978V58.3867ZM67.3294 50.8836C67.3294 55.0258 70.6739 58.3867 74.8028 58.3867V57.5978C71.1128 57.5978 68.1183 54.5933 68.1183 50.8836H67.3294ZM67.3294 41.6844V50.8836H68.1183V41.6844H67.3294ZM74.8028 34.1814C70.6739 34.1814 67.3294 37.5422 67.3294 41.6844H68.1183C68.1183 37.9748 71.1128 34.9704 74.8028 34.9704V34.1814ZM82.2755 41.6844C82.2755 37.5422 78.9316 34.1814 74.8028 34.1814V34.9704C78.4928 34.9704 81.4866 37.9748 81.4866 41.6844H82.2755ZM82.2755 50.8836V41.6844H81.4866V50.8836H82.2755Z" fill="#264887"/>
<path fill-rule="evenodd" clip-rule="evenodd" d="M59.2211 50.1184C59.2211 49.247 59.9272 48.5405 60.7988 48.5405H89.2011C90.0727 48.5405 90.7788 49.247 90.7788 50.1184V70.6311C90.7788 71.5028 90.0727 72.2089 89.2011 72.2089H60.7988C59.9272 72.2089 59.2211 71.5028 59.2211 70.6311V50.1184Z" fill="white" stroke="#264887" stroke-width="1.25" stroke-linecap="round" stroke-dasharray="92 7 1 4"/>
<path d="M61.9528 68.4618V48.9351H61.2823C60.3617 48.9351 59.6156 49.6813 59.6156 50.6017V70.1479C59.6156 71.0684 60.3617 71.8146 61.2823 71.8146H88.5567C89.7839 71.8146 90.7789 70.8201 90.7789 69.5923V68.4618H61.9528Z" fill="#B5D9F1"/>
<path d="M91.3706 52.3867H58.6295C58.4656 52.3867 58.3334 52.5192 58.3334 52.6826C58.3334 52.8459 58.4656 52.9784 58.6295 52.9784H91.3706C91.5345 52.9784 91.6667 52.8459 91.6667 52.6826C91.6667 52.5192 91.5345 52.3867 91.3706 52.3867Z" fill="#264887" stroke="#264887" stroke-width="1.25"/>
<path d="M91.3706 68.1655H58.6295C58.4656 68.1655 58.3334 68.2983 58.3334 68.4616C58.3334 68.625 58.4656 68.7572 58.6295 68.7572H91.3706C91.5345 68.7572 91.6667 68.625 91.6667 68.4616C91.6667 68.2983 91.5345 68.1655 91.3706 68.1655Z" fill="#264887" stroke="#264887" stroke-width="1.25"/>
<path d="M65.1383 62.21H87.4372" stroke="#90C6EB" stroke-width="1.25" stroke-linecap="round"/>
<path d="M65.1383 65.0918H87.4372" stroke="#90C6EB" stroke-width="1.25" stroke-linecap="round"/>
<path d="M65.1383 59.3289H87.4372" stroke="#90C6EB" stroke-width="1.25" stroke-linecap="round"/>
<path d="M65.1383 56.4473H87.4372" stroke="#90C6EB" stroke-width="1.25" stroke-linecap="round"/>
<path fill-rule="evenodd" clip-rule="evenodd" d="M13.5602 50.8837C13.5602 57.1189 18.5936 62.1739 24.8028 62.1739C31.0118 62.1739 36.0453 57.1189 36.0453 50.8837V41.6845C36.0453 35.4493 31.0118 30.3945 24.8028 30.3945C18.5936 30.3945 13.5602 35.4493 13.5602 41.6845V50.8837ZM31.8813 50.8837C31.8813 54.8096 28.7122 57.9923 24.8028 57.9923C20.8933 57.9923 17.7241 54.8096 17.7241 50.8837V41.6845C17.7241 37.7586 20.8933 34.576 24.8028 34.576C28.7122 34.576 31.8813 37.7586 31.8813 41.6845V50.8837Z" fill="white"/>
<path d="M22.4358 34.5366C17.1982 35.1283 15.3354 38.8758 15.9272 48.1461H17.3076C17.1104 36.3117 19.0828 36.7062 22.4358 34.5366Z" fill="#B5D9F1"/>
<path d="M24.8028 61.7789C18.813 61.7789 13.9546 56.9028 13.9546 50.8836H13.1656C13.1656 57.3356 18.3742 62.5683 24.8028 62.5683V61.7789ZM35.6509 50.8836C35.6509 56.9028 30.7925 61.7789 24.8028 61.7789V62.5683C31.2312 62.5683 36.4398 57.3356 36.4398 50.8836H35.6509ZM35.6509 41.6844V50.8836H36.4398V41.6844H35.6509ZM24.8028 30.7889C30.7925 30.7889 35.6509 35.6655 35.6509 41.6844H36.4398C36.4398 35.2328 31.2312 30 24.8028 30V30.7889ZM13.9546 41.6844C13.9546 35.6655 18.813 30.7889 24.8028 30.7889V30C18.3742 30 13.1656 35.2328 13.1656 41.6844H13.9546ZM13.9546 50.8836V41.6844H13.1656V50.8836H13.9546ZM24.8028 58.3867C28.9317 58.3867 32.2757 55.0258 32.2757 50.8836H31.4868C31.4868 54.5933 28.4928 57.5978 24.8028 57.5978V58.3867ZM17.3296 50.8836C17.3296 55.0258 20.6739 58.3867 24.8028 58.3867V57.5978C21.1128 57.5978 18.1186 54.5933 18.1186 50.8836H17.3296ZM17.3296 41.6844V50.8836H18.1186V41.6844H17.3296ZM24.8028 34.1814C20.6739 34.1814 17.3296 37.5422 17.3296 41.6844H18.1186C18.1186 37.9748 21.1128 34.9704 24.8028 34.9704V34.1814ZM32.2757 41.6844C32.2757 37.5422 28.9317 34.1814 24.8028 34.1814V34.9704C28.4928 34.9704 31.4868 37.9748 31.4868 41.6844H32.2757ZM32.2757 50.8836V41.6844H31.4868V50.8836H32.2757Z" fill="#264887"/>
<path fill-rule="evenodd" clip-rule="evenodd" d="M9.22095 50.1184C9.22095 49.247 9.92739 48.5405 10.7988 48.5405H39.2012C40.0726 48.5405 40.7791 49.247 40.7791 50.1184V70.6311C40.7791 71.5028 40.0726 72.2089 39.2012 72.2089H10.7988C9.92739 72.2089 9.22095 71.5028 9.22095 70.6311V50.1184Z" fill="white" stroke="#264887" stroke-width="1.25" stroke-linecap="round" stroke-dasharray="92 7 1 4"/>
<path d="M11.9526 68.4616V49.1436H10.9999C10.0794 49.1436 9.61536 49.6811 9.61536 50.6015V70.1477C9.61536 71.0682 10.3615 71.8143 11.282 71.8143H38.5568C39.7841 71.8143 40.7791 70.8199 40.7791 69.5921V68.4616H11.9526Z" fill="#B5D9F1"/>
<path d="M41.3709 52.3867H8.62921C8.46582 52.3867 8.33337 52.5192 8.33337 52.6826C8.33337 52.8459 8.46582 52.9784 8.62921 52.9784H41.3709C41.5343 52.9784 41.6667 52.8459 41.6667 52.6826C41.6667 52.5192 41.5343 52.3867 41.3709 52.3867Z" fill="#264887" stroke="#264887" stroke-width="1.25"/>
<path d="M41.3709 68.1655H8.62921C8.46582 68.1655 8.33337 68.2983 8.33337 68.4616C8.33337 68.625 8.46582 68.7572 8.62921 68.7572H41.3709C41.5343 68.7572 41.6667 68.625 41.6667 68.4616C41.6667 68.2983 41.5343 68.1655 41.3709 68.1655Z" fill="#264887" stroke="#264887" stroke-width="1.25"/>
<path d="M15.1381 62.21H37.4371" stroke="#90C6EB" stroke-width="1.25" stroke-linecap="round"/>
<path d="M15.1381 65.0918H37.4371" stroke="#90C6EB" stroke-width="1.25" stroke-linecap="round"/>
<path d="M15.1381 59.3289H37.4371" stroke="#90C6EB" stroke-width="1.25" stroke-linecap="round"/>
<path d="M15.1381 56.4473H37.4371" stroke="#90C6EB" stroke-width="1.25" stroke-linecap="round"/>
<path fill-rule="evenodd" clip-rule="evenodd" d="M33.8889 47.1888C33.8889 55.97 40.9777 63.0889 49.7222 63.0889C58.4667 63.0889 65.5556 55.97 65.5556 47.1888V34.2333C65.5556 25.452 58.4667 18.3333 49.7222 18.3333C40.9777 18.3333 33.8889 25.452 33.8889 34.2333V47.1888ZM59.6911 47.1888C59.6911 52.7178 55.228 57.2 49.7222 57.2C44.2165 57.2 39.7531 52.7178 39.7531 47.1888V34.2333C39.7531 28.7043 44.2165 24.2221 49.7222 24.2221C55.228 24.2221 59.6911 28.7043 59.6911 34.2333V47.1888Z" fill="white"/>
<path d="M46.3889 24.1667C39.0126 25.0001 36.3892 30.2779 37.2226 43.3334H39.1667C38.8889 26.6667 41.6667 27.2223 46.3889 24.1667Z" fill="#B5D9F1"/>
<path d="M49.7223 62.5334C41.2868 62.5334 34.4445 55.6657 34.4445 47.1889H33.3334C33.3334 56.2751 40.6687 63.6445 49.7223 63.6445V62.5334ZM65 47.1889C65 55.6657 58.1578 62.5334 49.7223 62.5334V63.6445C58.7756 63.6445 66.1112 56.2751 66.1112 47.1889H65ZM65 34.2334V47.1889H66.1112V34.2334H65ZM49.7223 18.8889C58.1578 18.8889 65 25.7567 65 34.2334H66.1112C66.1112 25.1474 58.7756 17.7778 49.7223 17.7778V18.8889ZM34.4445 34.2334C34.4445 25.7567 41.2868 18.8889 49.7223 18.8889V17.7778C40.6687 17.7778 33.3334 25.1474 33.3334 34.2334H34.4445ZM34.4445 47.1889V34.2334H33.3334V47.1889H34.4445ZM49.7223 57.7557C55.5371 57.7557 60.2467 53.0226 60.2467 47.1889H59.1356C59.1356 52.4133 54.919 56.6445 49.7223 56.6445V57.7557ZM39.1976 47.1889C39.1976 53.0226 43.9074 57.7557 49.7223 57.7557V56.6445C44.5255 56.6445 40.3087 52.4133 40.3087 47.1889H39.1976ZM39.1976 34.2334V47.1889H40.3087V34.2334H39.1976ZM49.7223 23.6667C43.9074 23.6667 39.1976 28.3998 39.1976 34.2334H40.3087C40.3087 29.0091 44.5255 24.7778 49.7223 24.7778V23.6667ZM60.2467 34.2334C60.2467 28.3998 55.5371 23.6667 49.7223 23.6667V24.7778C54.919 24.7778 59.1356 29.0091 59.1356 34.2334H60.2467ZM60.2467 47.1889V34.2334H59.1356V47.1889H60.2467Z" fill="#264887"/>
<path fill-rule="evenodd" clip-rule="evenodd" d="M27.7778 46.1111C27.7778 44.8839 28.7728 43.8889 30.0001 43.8889H70.0001C71.2273 43.8889 72.2223 44.8839 72.2223 46.1111V75C72.2223 76.2272 71.2273 77.2222 70.0001 77.2222H30.0001C28.7728 77.2222 27.7778 76.2272 27.7778 75V46.1111Z" fill="white" stroke="#264887" stroke-width="1.25" stroke-linecap="round" stroke-dasharray="92 7 1 4"/>
<path d="M31.625 71.9445V44.5H30.0001C29.0796 44.5 28.3334 45.1906 28.3334 46.1111V75C28.3334 75.9206 29.0795 76.6667 30 76.6667H70C71.2273 76.6667 72.2223 75.6717 72.2223 74.4445V71.9445H31.625Z" fill="#B5D9F1"/>
<path d="M73.0556 49.3057H26.9445C26.7144 49.3057 26.5278 49.4922 26.5278 49.7223C26.5278 49.9524 26.7144 50.139 26.9445 50.139H73.0556C73.2856 50.139 73.4723 49.9524 73.4723 49.7223C73.4723 49.4922 73.2856 49.3057 73.0556 49.3057Z" fill="#264887" stroke="#264887" stroke-width="1.25"/>
<path d="M73.0556 71.5278H26.9445C26.7144 71.5278 26.5278 71.7145 26.5278 71.9445C26.5278 72.1745 26.7144 72.3612 26.9445 72.3612H73.0556C73.2856 72.3612 73.4723 72.1745 73.4723 71.9445C73.4723 71.7145 73.2856 71.5278 73.0556 71.5278Z" fill="#264887" stroke="#264887" stroke-width="1.25"/>
<path d="M36.1111 63.1399H67.5155" stroke="#90C6EB" stroke-width="1.25" stroke-linecap="round"/>
<path d="M36.1111 67.1982H67.5155" stroke="#90C6EB" stroke-width="1.25" stroke-linecap="round"/>
<path d="M36.1111 59.0823H67.5155" stroke="#90C6EB" stroke-width="1.25" stroke-linecap="round"/>
<path d="M36.1111 55.0242H67.5155" stroke="#90C6EB" stroke-width="1.25" stroke-linecap="round"/>
<path fill-rule="evenodd" clip-rule="evenodd" d="M56.1111 61.1107C56.1111 64.1796 53.6239 66.6668 50.5563 66.6668C47.4872 66.6668 45 64.1796 45 61.1107C45 58.0429 47.4872 55.5557 50.5563 55.5557C53.6239 55.5557 56.1111 58.0429 56.1111 61.1107Z" fill="white" stroke="#26417E" stroke-width="1.25" stroke-linecap="round" stroke-linejoin="round"/>
<path d="M47.4315 57.2222C46.3889 59.9999 47.0128 64.7222 51.111 66.1111C45.2776 66.3888 43.8887 59.7222 47.4315 57.2222Z" fill="#B5D9F1"/>
<path d="M50.848 63.4501V58.7717C50.848 58.6106 50.7171 58.4795 50.5556 58.4795C50.3941 58.4795 50.2632 58.6106 50.2632 58.7717V63.4501C50.2632 63.6117 50.3941 63.7428 50.5556 63.7428C50.7171 63.7428 50.848 63.6117 50.848 63.4501Z" fill="#E3E3E3" stroke="#D22D27" stroke-width="1.25"/>
<path fill-rule="evenodd" clip-rule="evenodd" d="M57.7778 12.7777C58.6983 12.7777 59.4444 12.0316 59.4444 11.111C59.4444 10.1904 58.6983 9.44434 57.7778 9.44434C56.8572 9.44434 56.1111 10.1904 56.1111 11.111C56.1111 12.0316 56.8572 12.7777 57.7778 12.7777Z" stroke="#C2E0F4" stroke-width="1.25"/>
<path d="M28.3333 16.6667H25V20.0001H28.3333V16.6667Z" stroke="#C2E0F4" stroke-width="1.25" stroke-linecap="round" stroke-linejoin="round"/>
<path d="M74.0028 24.0027L76.5989 26.5987" stroke="#C2E0F4" stroke-width="1.25" stroke-linecap="round"/>
<path d="M76.5072 24.0027L73.9111 26.5987" stroke="#C2E0F4" stroke-width="1.25" stroke-linecap="round"/>
<path d="M21.6666 77.2222H78.8888" stroke="#264887" stroke-width="1.25" stroke-linecap="round" stroke-dasharray="1 6 164 5"/>
</svg>
