<svg width="36" height="36" viewBox="0 0 36 36" fill="none" xmlns="http://www.w3.org/2000/svg">
<rect width="36" height="36" rx="3" fill="#FBEBEB"/>
<rect width="24" height="24" transform="translate(6 6)" fill="#FBEBEB"/>
<path d="M15.75 18H14.75C14.6837 18 14.6201 17.9737 14.5732 17.9268C14.5263 17.8799 14.5 17.8163 14.5 17.75V16.75C14.4997 16.5512 14.4206 16.3606 14.28 16.22C14.1394 16.0794 13.9488 16.0003 13.75 16H12.25C12.0512 16.0003 11.8606 16.0794 11.72 16.22C11.5794 16.3606 11.5003 16.5512 11.5 16.75V17.75C11.5 17.8163 11.4737 17.8799 11.4268 17.9268C11.3799 17.9737 11.3163 18 11.25 18H10.25C10.0512 18.0003 9.86056 18.0794 9.71996 18.22C9.57937 18.3606 9.50026 18.5512 9.5 18.75V20.25C9.50026 20.4488 9.57937 20.6394 9.71996 20.78C9.86056 20.9206 10.0512 20.9997 10.25 21H11.25C11.3163 21 11.3799 21.0263 11.4268 21.0732C11.4737 21.1201 11.5 21.1837 11.5 21.25V22.25C11.5003 22.4488 11.5794 22.6394 11.72 22.78C11.8606 22.9206 12.0512 22.9997 12.25 23H13.75C13.9488 22.9997 14.1394 22.9206 14.28 22.78C14.4206 22.6394 14.4997 22.4488 14.5 22.25V21.25C14.5 21.1837 14.5263 21.1201 14.5732 21.0732C14.6201 21.0263 14.6837 21 14.75 21H15.75C15.9488 20.9997 16.1394 20.9206 16.28 20.78C16.4206 20.6394 16.4997 20.4488 16.5 20.25V18.75C16.4997 18.5512 16.4206 18.3606 16.28 18.22C16.1394 18.0794 15.9488 18.0003 15.75 18Z" fill="#D32D27"/>
<path d="M30 10.5C30 9.96957 29.7893 9.46086 29.4142 9.08579C29.0391 8.71071 28.5304 8.5 28 8.5H8C7.46957 8.5 6.96086 8.71071 6.58579 9.08579C6.21071 9.46086 6 9.96957 6 10.5V25.5C6 26.0304 6.21071 26.5391 6.58579 26.9142C6.96086 27.2893 7.46957 27.5 8 27.5H28C28.5304 27.5 29.0391 27.2893 29.4142 26.9142C29.7893 26.5391 30 26.0304 30 25.5V10.5ZM8.5 25.5C8.36739 25.5 8.24021 25.4473 8.14645 25.3536C8.05268 25.2598 8 25.1326 8 25V14.5C8 14.3674 8.05268 14.2402 8.14645 14.1464C8.24021 14.0527 8.36739 14 8.5 14H27.5C27.6326 14 27.7598 14.0527 27.8536 14.1464C27.9473 14.2402 28 14.3674 28 14.5V25C28 25.1326 27.9473 25.2598 27.8536 25.3536C27.7598 25.4473 27.6326 25.5 27.5 25.5H8.5Z" fill="#D32D27"/>
<path d="M25.25 17.75H20.5C20.3011 17.75 20.1103 17.829 19.9697 17.9697C19.829 18.1103 19.75 18.3011 19.75 18.5C19.75 18.6989 19.829 18.8897 19.9697 19.0303C20.1103 19.171 20.3011 19.25 20.5 19.25H25.25C25.4489 19.25 25.6397 19.171 25.7803 19.0303C25.921 18.8897 26 18.6989 26 18.5C26 18.3011 25.921 18.1103 25.7803 17.9697C25.6397 17.829 25.4489 17.75 25.25 17.75Z" fill="#D32D27"/>
<path d="M24 20.75H20.5C20.3011 20.75 20.1103 20.829 19.9697 20.9697C19.829 21.1103 19.75 21.3011 19.75 21.5C19.75 21.6989 19.829 21.8897 19.9697 22.0303C20.1103 22.171 20.3011 22.25 20.5 22.25H24C24.1989 22.25 24.3897 22.171 24.5303 22.0303C24.671 21.8897 24.75 21.6989 24.75 21.5C24.75 21.3011 24.671 21.1103 24.5303 20.9697C24.3897 20.829 24.1989 20.75 24 20.75Z" fill="#D32D27"/>
</svg>
