<svg width="12" height="12" viewBox="0 0 12 12" fill="none" xmlns="http://www.w3.org/2000/svg">
    <g clip-path="url(#clip0_1726_124982)">
        <path d="M5.99998 9.75C5.83643 9.7502 5.67473 9.71552 5.52565 9.64827C5.37658 9.58102 5.24356 9.48274 5.13548 9.36L0.229978 3.784C0.0749328 3.59923 -0.00166706 3.36113 0.0165578 3.12061C0.0347826 2.88009 0.146386 2.65625 0.327503 2.49695C0.50862 2.33765 0.744876 2.25553 0.985752 2.26815C1.22663 2.28078 1.45301 2.38714 1.61648 2.5645L5.90598 7.4405C5.91771 7.45389 5.93216 7.46461 5.94838 7.47196C5.96459 7.47931 5.98218 7.48311 5.99998 7.48311C6.01778 7.48311 6.03537 7.47931 6.05158 7.47196C6.06779 7.46461 6.08225 7.45389 6.09398 7.4405L10.3835 2.5645C10.4626 2.47021 10.5598 2.39269 10.6693 2.3365C10.7788 2.2803 10.8984 2.24656 11.0211 2.23726C11.1439 2.22796 11.2672 2.24329 11.3839 2.28234C11.5007 2.3214 11.6084 2.38339 11.7008 2.46468C11.7933 2.54597 11.8685 2.64492 11.9221 2.7557C11.9758 2.86648 12.0067 2.98687 12.0132 3.10979C12.0196 3.2327 12.0014 3.35566 11.9596 3.47145C11.9179 3.58723 11.8534 3.6935 11.77 3.784L6.86598 9.358C6.75771 9.48105 6.62449 9.57964 6.47518 9.64722C6.32586 9.71481 6.16388 9.74985 5.99998 9.75Z" fill="#1B283C"/>
    </g>
    <defs>
        <clipPath id="clip0_1726_124982">
            <rect width="12" height="12" fill="white"/>
        </clipPath>
    </defs>
</svg>
