<svg width="14" height="14" viewBox="0 0 14 14" fill="none" xmlns="http://www.w3.org/2000/svg">
<g clip-path="url(#clip0)">
<path d="M10.9547 8.57149L10.5236 8.41632C10.4846 8.40174 10.4268 8.33349 10.3825 8.18299C10.2853 7.80751 10.3017 7.41162 10.4297 7.04549C10.9833 6.43591 11.5241 5.68457 11.5241 3.81616C11.5572 3.4358 11.5095 3.05274 11.3841 2.69212C11.2588 2.3315 11.0585 2.00147 10.7966 1.72371C10.5346 1.44595 10.2169 1.22674 9.86423 1.08047C9.51157 0.934195 9.13195 0.864169 8.75031 0.874989C8.52096 0.87577 8.29249 0.903374 8.06956 0.957239C8.04517 0.963042 8.02269 0.975035 8.00429 0.992059C7.98588 1.00908 7.97218 1.03057 7.9645 1.05443C7.95682 1.07829 7.95542 1.10374 7.96044 1.1283C7.96545 1.15286 7.97672 1.17572 7.99314 1.19466C8.60289 1.93116 8.92477 2.86385 8.89906 3.81966C8.89906 5.73357 8.35948 6.71999 7.73764 7.45441C7.71845 7.47695 7.70664 7.50485 7.70381 7.53432C7.70381 7.56232 7.69914 7.59266 7.69739 7.62182C7.69609 7.65295 7.70479 7.68367 7.72221 7.7095C7.73964 7.73532 7.76488 7.75488 7.79423 7.76532C9.19889 8.26582 11.3753 9.04866 11.3753 11.9601V12.8333C11.3753 12.8759 11.3724 12.9184 11.3666 12.9605C11.364 12.9811 11.3658 13.002 11.372 13.0218C11.3781 13.0416 11.3884 13.0599 11.4021 13.0755C11.4158 13.091 11.4327 13.1035 11.4516 13.112C11.4705 13.1206 11.4911 13.125 11.5118 13.125H13.7086C13.786 13.125 13.8602 13.0943 13.9149 13.0396C13.9696 12.9849 14.0003 12.9107 14.0003 12.8333V11.9583C14.0003 9.65532 12.3827 9.07957 10.9547 8.57149Z" fill="#748193"/>
<path d="M10.5004 11.9583C10.5004 9.65533 8.8828 9.07958 7.4548 8.57149L7.02371 8.41633C6.98463 8.40174 6.92688 8.33349 6.88255 8.18299C6.78533 7.80751 6.80178 7.41162 6.9298 7.04549C7.48338 6.43591 8.02413 5.68458 8.02413 3.81616C8.05727 3.43581 8.00959 3.05274 7.88421 2.69212C7.75883 2.3315 7.5586 2.00148 7.29665 1.72372C7.0347 1.44596 6.71696 1.22675 6.3643 1.08047C6.01164 0.934199 5.63202 0.864174 5.25038 0.874993C4.86858 0.864147 4.4888 0.934215 4.13601 1.08059C3.78321 1.22697 3.46538 1.44634 3.20341 1.7243C2.94143 2.00225 2.74123 2.3325 2.61597 2.69333C2.49072 3.05416 2.44323 3.43742 2.47663 3.81791C2.47663 5.68458 3.01738 6.43766 3.56805 7.04316C3.69825 7.41021 3.71532 7.80789 3.61705 8.18474C3.57271 8.33349 3.51496 8.40174 3.47588 8.41808C3.32888 8.47233 3.18013 8.52541 3.03138 8.57791C1.61038 9.08074 -0.00195312 9.65124 -0.00195312 11.9612V12.8333C-0.00195312 12.9107 0.0287759 12.9849 0.0834741 13.0396C0.138172 13.0943 0.212359 13.125 0.289714 13.125H10.2064C10.2449 13.1253 10.2831 13.118 10.3187 13.1035C10.3544 13.0889 10.3868 13.0675 10.4141 13.0404C10.4415 13.0133 10.4632 12.981 10.478 12.9455C10.4928 12.9099 10.5004 12.8718 10.5004 12.8333V11.9583Z" fill="#748193"/>
</g>
<defs>
<clipPath id="clip0">
<rect width="14" height="14" fill="white"/>
</clipPath>
</defs>
</svg>
