<svg width="36" height="36" viewBox="0 0 36 36" fill="none" xmlns="http://www.w3.org/2000/svg">
<rect width="36" height="36" rx="3" fill="#E7F7F2"/>
<g clip-path="url(#clip0)">
<rect width="24" height="24" transform="translate(6 6)" fill="#E7F7F2"/>
<path d="M30 10.5C30 9.96957 29.7893 9.46086 29.4142 9.08579C29.0391 8.71071 28.5304 8.5 28 8.5H8C7.46957 8.5 6.96086 8.71071 6.58579 9.08579C6.21071 9.46086 6 9.96957 6 10.5V25.5C6 26.0304 6.21071 26.5391 6.58579 26.9142C6.96086 27.2893 7.46957 27.5 8 27.5H11C11.2652 27.5 11.5196 27.3946 11.7071 27.2071C11.8946 27.0196 12 26.7652 12 26.5V25.75C12 25.5511 12.079 25.3603 12.2197 25.2197C12.3603 25.079 12.5511 25 12.75 25C12.9481 25.0026 13.1374 25.0824 13.2775 25.2225C13.4176 25.3626 13.4974 25.5519 13.5 25.75V26.5C13.5 26.7652 13.6054 27.0196 13.7929 27.2071C13.9804 27.3946 14.2348 27.5 14.5 27.5H21.5C21.7652 27.5 22.0196 27.3946 22.2071 27.2071C22.3946 27.0196 22.5 26.7652 22.5 26.5V25.75C22.5 25.5511 22.579 25.3603 22.7197 25.2197C22.8603 25.079 23.0511 25 23.25 25C23.4481 25.0026 23.6374 25.0824 23.7775 25.2225C23.9176 25.3626 23.9974 25.5519 24 25.75V26.5C24 26.7652 24.1054 27.0196 24.2929 27.2071C24.4804 27.3946 24.7348 27.5 25 27.5H28C28.5304 27.5 29.0391 27.2893 29.4142 26.9142C29.7893 26.5391 30 26.0304 30 25.5V10.5Z" fill="#008A63"/>
<path d="M20.25 17.5C20.25 17.6989 20.329 17.8897 20.4697 18.0303C20.6103 18.171 20.8011 18.25 21 18.25H25.783C25.9819 18.25 26.1727 18.171 26.3133 18.0303C26.454 17.8897 26.533 17.6989 26.533 17.5C26.533 17.3011 26.454 17.1103 26.3133 16.9697C26.1727 16.829 25.9819 16.75 25.783 16.75H21C20.8011 16.75 20.6103 16.829 20.4697 16.9697C20.329 17.1103 20.25 17.3011 20.25 17.5Z" fill="white"/>
<path d="M20.25 20.5C20.25 20.6989 20.329 20.8897 20.4697 21.0303C20.6103 21.171 20.8011 21.25 21 21.25H23.609C23.8079 21.25 23.9987 21.171 24.1393 21.0303C24.28 20.8897 24.359 20.6989 24.359 20.5C24.359 20.3011 24.28 20.1103 24.1393 19.9697C23.9987 19.829 23.8079 19.75 23.609 19.75H21C20.8011 19.75 20.6103 19.829 20.4697 19.9697C20.329 20.1103 20.25 20.3011 20.25 20.5Z" fill="white"/>
<path d="M21 15.25H26C26.1989 15.25 26.3897 15.171 26.5303 15.0303C26.671 14.8897 26.75 14.6989 26.75 14.5C26.75 14.3011 26.671 14.1103 26.5303 13.9697C26.3897 13.829 26.1989 13.75 26 13.75H21C20.8011 13.75 20.6103 13.829 20.4697 13.9697C20.329 14.1103 20.25 14.3011 20.25 14.5C20.25 14.6989 20.329 14.8897 20.4697 15.0303C20.6103 15.171 20.8011 15.25 21 15.25Z" fill="white"/>
<path d="M13.83 17C14.9346 17 15.83 16.1046 15.83 15C15.83 13.8954 14.9346 13 13.83 13C12.7254 13 11.83 13.8954 11.83 15C11.83 16.1046 12.7254 17 13.83 17Z" fill="white"/>
<path d="M11.007 21H16.654C16.7361 21.001 16.8171 20.9818 16.89 20.944C16.9629 20.9063 17.0254 20.8512 17.0719 20.7836C17.1185 20.716 17.1477 20.638 17.1569 20.5564C17.1662 20.4749 17.1552 20.3923 17.125 20.316C16.8692 19.6455 16.4188 19.0668 15.8317 18.6541C15.2446 18.2414 14.5475 18.0137 13.83 18C13.1127 18.0138 12.4158 18.2417 11.8289 18.6544C11.242 19.067 10.7918 19.6457 10.536 20.316C10.5058 20.3923 10.4948 20.4749 10.5041 20.5564C10.5134 20.638 10.5425 20.716 10.5891 20.7836C10.6356 20.8512 10.6981 20.9063 10.771 20.944C10.8439 20.9818 10.9249 21.001 11.007 21Z" fill="white"/>
</g>
<defs>
<clipPath id="clip0">
<rect width="24" height="24" fill="white" transform="translate(6 6)"/>
</clipPath>
</defs>
</svg>
