<svg width="36" height="36" viewBox="0 0 36 36" fill="none" xmlns="http://www.w3.org/2000/svg">
<rect width="36" height="36" rx="3" fill="#EBEEEF"/>
<rect width="24" height="24" transform="translate(6 6)" fill="#EBEEEF"/>
<path d="M14 27.443C14.0415 27.4484 14.0838 27.4434 14.1229 27.4283C14.162 27.4133 14.1967 27.3886 14.2238 27.3567C14.2509 27.3248 14.2697 27.2866 14.2782 27.2456C14.2868 27.2046 14.285 27.1621 14.273 27.122C13.9896 26.1843 13.9395 25.1915 14.127 24.23C14.1342 24.1963 14.1343 24.1614 14.1274 24.1276C14.1204 24.0938 14.1066 24.0618 14.0867 24.0336C14.0667 24.0054 14.0412 23.9817 14.0117 23.9638C13.9821 23.946 13.9492 23.9345 13.915 23.93C11.7156 23.7355 9.60426 22.9741 7.787 21.72C7.75034 21.6901 7.70594 21.6712 7.65897 21.6655C7.61199 21.6599 7.56438 21.6676 7.52165 21.688C7.47892 21.7083 7.44283 21.7403 7.41758 21.7803C7.39233 21.8203 7.37895 21.8667 7.379 21.914V23.63C7.375 25.421 10.159 26.929 14 27.443Z" fill="#40526D"/>
<path d="M7.375 19.134C7.375 20.969 10.311 22.509 14.307 22.981C14.3593 22.9873 14.4123 22.9769 14.4583 22.9512C14.5043 22.9255 14.5409 22.8859 14.563 22.838C15.0938 21.6721 15.99 20.7109 17.116 20.1C17.1651 20.0735 17.204 20.0313 17.2264 19.9801C17.2487 19.9289 17.2533 19.8717 17.2394 19.8177C17.2255 19.7636 17.1938 19.7157 17.1495 19.6817C17.1052 19.6477 17.0508 19.6295 16.995 19.63H16.875C13.375 19.63 9.72 18.798 7.783 17.22C7.74633 17.1901 7.70194 17.1712 7.65496 17.1655C7.60799 17.1599 7.56037 17.1676 7.51765 17.188C7.47492 17.2083 7.43883 17.2403 7.41358 17.2803C7.38833 17.3203 7.37495 17.3667 7.375 17.414V19.134Z" fill="#40526D"/>
<path d="M16.876 15.134C13.376 15.134 9.72 14.302 7.783 12.724C7.7464 12.6942 7.70209 12.6753 7.65521 12.6696C7.60833 12.6639 7.56079 12.6716 7.5181 12.6917C7.4754 12.7119 7.4393 12.7438 7.41398 12.7837C7.38865 12.8235 7.37514 12.8698 7.375 12.917V14.634C7.375 16.844 11.63 18.634 16.875 18.634C18.8641 18.6568 20.8445 18.3676 22.744 17.777C22.7787 17.7658 22.8105 17.7471 22.837 17.722L24.751 15.914C25.1024 15.5787 25.5655 15.3856 26.051 15.372C26.0995 15.3692 26.1462 15.3524 26.1854 15.3237C26.2247 15.2949 26.2547 15.2554 26.272 15.21C26.4224 14.4556 26.4561 13.6826 26.372 12.918C26.372 12.8707 26.3587 12.8243 26.3334 12.7843C26.3082 12.7443 26.2721 12.7123 26.2294 12.692C26.1866 12.6716 26.139 12.6639 26.092 12.6695C26.0451 12.6752 26.0007 12.6941 25.964 12.724C24.031 14.3 20.381 15.134 16.876 15.134Z" fill="#40526D"/>
<path d="M16.876 14.134C22.1227 14.134 26.376 12.3431 26.376 10.134C26.376 7.92486 22.1227 6.134 16.876 6.134C11.6293 6.134 7.37601 7.92486 7.37601 10.134C7.37601 12.3431 11.6293 14.134 16.876 14.134Z" fill="#40526D"/>
<path d="M26.125 16.868C25.9972 16.8677 25.8741 16.9164 25.781 17.004L21.543 21.004C21.5107 21.0341 21.4711 21.0553 21.4281 21.0653C21.3851 21.0753 21.3402 21.0738 21.298 21.061C20.3386 20.769 19.3093 20.8059 18.3732 21.1656C17.4372 21.5254 16.6482 22.1876 16.1314 23.047C15.6146 23.9063 15.3996 24.9137 15.5207 25.9092C15.6417 26.9046 16.0918 27.8312 16.7994 28.5417C17.5071 29.2522 18.4318 29.7059 19.4268 29.8309C20.4218 29.9559 21.43 29.745 22.2914 29.2317C23.1529 28.7183 23.8182 27.9319 24.1817 26.9973C24.5452 26.0627 24.5861 25.0335 24.298 24.073C24.2852 24.0295 24.2843 23.9834 24.2954 23.9394C24.3065 23.8955 24.3291 23.8553 24.361 23.823L28.477 19.717C28.5708 19.6235 28.6237 19.4965 28.624 19.364V17.364C28.624 17.2314 28.5713 17.1042 28.4776 17.0104C28.3838 16.9167 28.2566 16.864 28.124 16.864L26.125 16.868ZM18.908 23.977C19.1527 23.7326 19.4643 23.5663 19.8035 23.4989C20.1428 23.4316 20.4943 23.4664 20.8138 23.5988C21.1332 23.7313 21.4063 23.9555 21.5983 24.243C21.7904 24.5306 21.893 24.8687 21.893 25.2145C21.893 25.5603 21.7904 25.8984 21.5983 26.186C21.4063 26.4735 21.1332 26.6977 20.8138 26.8302C20.4943 26.9626 20.1428 26.9974 19.8035 26.9301C19.4643 26.8627 19.1527 26.6964 18.908 26.452C18.581 26.1232 18.3974 25.6783 18.3974 25.2145C18.3974 24.7507 18.581 24.3058 18.908 23.977Z" fill="#40526D"/>
</svg>
