<svg width="16" height="17" viewBox="0 0 16 17" fill="none" xmlns="http://www.w3.org/2000/svg">
    <path d="M7.99992 1.83337C6.68138 1.83337 5.39245 2.22437 4.29612 2.95691C3.19979 3.68945 2.34531 4.73064 1.84072 5.94882C1.33614 7.16699 1.20412 8.50744 1.46135 9.80064C1.71859 11.0938 2.35353 12.2817 3.28588 13.2141C4.21823 14.1464 5.40611 14.7814 6.69932 15.0386C7.99253 15.2958 9.33297 15.1638 10.5511 14.6592C11.7693 14.1547 12.8105 13.3002 13.543 12.2038C14.2756 11.1075 14.6666 9.81858 14.6666 8.50004C14.6647 6.73252 13.9617 5.03794 12.7119 3.78811C11.462 2.53828 9.76744 1.83529 7.99992 1.83337V1.83337ZM8.13881 4.61115C8.30363 4.61115 8.46474 4.66003 8.60178 4.75159C8.73883 4.84316 8.84564 4.97331 8.90871 5.12558C8.97178 5.27785 8.98829 5.44541 8.95613 5.60706C8.92398 5.76871 8.84461 5.9172 8.72807 6.03374C8.61152 6.15028 8.46304 6.22965 8.30138 6.26181C8.13973 6.29396 7.97218 6.27746 7.81991 6.21438C7.66763 6.15131 7.53749 6.0445 7.44592 5.90746C7.35435 5.77042 7.30548 5.6093 7.30548 5.44448C7.30548 5.22347 7.39327 5.01151 7.54955 4.85523C7.70583 4.69895 7.9178 4.61115 8.13881 4.61115ZM9.38881 12.1112H7.16659C7.01925 12.1112 6.87794 12.0526 6.77375 11.9484C6.66956 11.8442 6.61103 11.7029 6.61103 11.5556C6.61103 11.4083 6.66956 11.2669 6.77375 11.1628C6.87794 11.0586 7.01925 11 7.16659 11H7.58325C7.62009 11 7.65542 10.9854 7.68146 10.9594C7.70751 10.9333 7.72214 10.898 7.72214 10.8612V8.36115C7.72214 8.32432 7.70751 8.28899 7.68146 8.26294C7.65542 8.2369 7.62009 8.22226 7.58325 8.22226H7.16659C7.01925 8.22226 6.87794 8.16373 6.77375 8.05954C6.66956 7.95536 6.61103 7.81405 6.61103 7.66671C6.61103 7.51936 6.66956 7.37806 6.77375 7.27387C6.87794 7.16968 7.01925 7.11115 7.16659 7.11115H7.72214C8.01683 7.11115 8.29944 7.22821 8.50782 7.43659C8.71619 7.64496 8.83325 7.92758 8.83325 8.22226V10.8612C8.83325 10.898 8.84789 10.9333 8.87393 10.9594C8.89998 10.9854 8.93531 11 8.97214 11H9.38881C9.53615 11 9.67746 11.0586 9.78165 11.1628C9.88583 11.2669 9.94436 11.4083 9.94436 11.5556C9.94436 11.7029 9.88583 11.8442 9.78165 11.9484C9.67746 12.0526 9.53615 12.1112 9.38881 12.1112Z" fill="#40526D"/>
</svg>
