<svg width="14" height="14" viewBox="0 0 14 14" fill="none" xmlns="http://www.w3.org/2000/svg">
    <path fill-rule="evenodd" clip-rule="evenodd" d="M6.99997 8.23741L3.28766 11.9497C3.12357 12.1138 2.90101 12.206 2.66895 12.206C2.43688 12.206 2.21432 12.1138 2.05023 11.9497C1.88613 11.7856 1.79395 11.5631 1.79395 11.331C1.79395 11.0989 1.88613 10.8764 2.05023 10.7123L5.76254 6.99997L2.05023 3.28766C1.88613 3.12357 1.79395 2.90101 1.79395 2.66895C1.79395 2.43688 1.88613 2.21432 2.05023 2.05023C2.21432 1.88613 2.43688 1.79395 2.66895 1.79395C2.90101 1.79395 3.12357 1.88613 3.28766 2.05023L6.99997 5.76254L10.7123 2.05023C10.8764 1.88613 11.0989 1.79395 11.331 1.79395C11.5631 1.79395 11.7856 1.88613 11.9497 2.05023C12.1138 2.21432 12.206 2.43688 12.206 2.66895C12.206 2.90101 12.1138 3.12357 11.9497 3.28766L8.23741 6.99997L11.9497 10.7123C12.1138 10.8764 12.206 11.0989 12.206 11.331C12.206 11.5631 12.1138 11.7856 11.9497 11.9497C11.7856 12.1138 11.5631 12.206 11.331 12.206C11.0989 12.206 10.8764 12.1138 10.7123 11.9497L6.99997 8.23741Z" fill="#474A86"/>
</svg>
