<svg width="36" height="36" viewBox="0 0 36 36" fill="none" xmlns="http://www.w3.org/2000/svg">
<rect width="36" height="36" rx="3" fill="#EDF2FB"/>
<rect width="24" height="24" transform="translate(6 6)" fill="#EDF2FB"/>
<path d="M10.123 14.3C10.1706 14.3038 10.2161 14.3211 10.2542 14.35C10.2923 14.3788 10.3213 14.4179 10.3378 14.4628C10.3543 14.5076 10.3577 14.5562 10.3474 14.6028C10.3372 14.6495 10.3138 14.6922 10.28 14.726L7.008 18C6.91771 18.0902 6.84609 18.1973 6.79722 18.3151C6.74835 18.433 6.7232 18.5594 6.7232 18.687C6.7232 18.8146 6.74835 18.941 6.79722 19.0588C6.84609 19.1767 6.91771 19.2838 7.008 19.374L8.791 21.158C8.84415 21.2111 8.90858 21.2515 8.97951 21.2763C9.05044 21.3011 9.12604 21.3096 9.20069 21.3011C9.27535 21.2927 9.34714 21.2675 9.41073 21.2275C9.47432 21.1875 9.52808 21.1336 9.568 21.07C9.71947 20.8291 9.8976 20.606 10.099 20.405C10.8283 19.6756 11.8175 19.2659 12.849 19.2659C13.8804 19.2659 14.8697 19.6756 15.599 20.405C16.3283 21.1343 16.7381 22.1235 16.7381 23.155C16.7381 24.1864 16.3283 25.1756 15.599 25.905C15.3977 26.1061 15.1747 26.2842 14.934 26.436C14.8703 26.4759 14.8165 26.5297 14.7765 26.5933C14.7365 26.6569 14.7113 26.7286 14.7029 26.8033C14.6944 26.878 14.7029 26.9536 14.7277 27.0245C14.7524 27.0954 14.7929 27.1598 14.846 27.213L16.63 28.997C16.8123 29.1791 17.0594 29.2814 17.317 29.2814C17.5746 29.2814 17.8217 29.1791 18.004 28.997L21.277 25.724C21.3108 25.6902 21.3535 25.6668 21.4002 25.6566C21.4468 25.6463 21.4954 25.6497 21.5402 25.6662C21.585 25.6827 21.6242 25.7117 21.653 25.7498C21.6819 25.7878 21.6992 25.8334 21.703 25.881C21.7536 26.543 21.9737 27.1808 22.342 27.7332C22.7103 28.2856 23.2145 28.7339 23.8061 29.0352C24.3977 29.3365 25.0569 29.4806 25.7202 29.4536C26.3836 29.4265 27.0288 29.2294 27.594 28.881C28.0946 28.5732 28.5191 28.1559 28.8354 27.6607C29.1518 27.1654 29.3519 26.6048 29.4207 26.0212C29.4895 25.4375 29.4252 24.8458 29.2327 24.2905C29.0401 23.7353 28.7243 23.2308 28.309 22.815C27.6594 22.1652 26.7974 21.7711 25.881 21.705C25.8334 21.7012 25.7879 21.6839 25.7498 21.655C25.7117 21.6262 25.6827 21.587 25.6662 21.5422C25.6497 21.4974 25.6463 21.4488 25.6566 21.4022C25.6668 21.3555 25.6902 21.3128 25.724 21.279L28.992 18C29.0823 17.9098 29.1539 17.8027 29.2028 17.6848C29.2516 17.567 29.2768 17.4406 29.2768 17.313C29.2768 17.1854 29.2516 17.059 29.2028 16.9411C29.1539 16.8233 29.0823 16.7162 28.992 16.626L27.209 14.842C27.1559 14.7889 27.0914 14.7484 27.0205 14.7237C26.9496 14.6989 26.874 14.6904 26.7993 14.6988C26.7246 14.7073 26.6529 14.7325 26.5893 14.7725C26.5257 14.8125 26.4719 14.8663 26.432 14.93C26.2805 15.1727 26.1021 15.3975 25.9 15.6C25.5389 15.9611 25.1101 16.2476 24.6383 16.443C24.1664 16.6385 23.6607 16.7391 23.15 16.7391C22.1185 16.7391 21.1293 16.3293 20.4 15.6C19.6707 14.8706 19.2609 13.8814 19.2609 12.85C19.2609 12.3393 19.3615 11.8335 19.557 11.3617C19.7524 10.8899 20.0389 10.4611 20.4 10.1C20.6013 9.89888 20.8243 9.72079 21.065 9.56899C21.1286 9.52907 21.1825 9.47532 21.2225 9.41173C21.2625 9.34814 21.2877 9.27634 21.2961 9.20169C21.3046 9.12703 21.2961 9.05143 21.2713 8.9805C21.2466 8.90957 21.2061 8.84514 21.153 8.79199L19.374 7.00699C19.1917 6.8249 18.9446 6.72261 18.687 6.72261C18.4294 6.72261 18.1823 6.8249 18 7.00699L14.727 10.28C14.6933 10.3141 14.6505 10.3377 14.6036 10.3482C14.5568 10.3586 14.508 10.3553 14.463 10.3388C14.418 10.3222 14.3787 10.2931 14.3498 10.2548C14.3209 10.2166 14.3036 10.1708 14.3 10.123C14.2494 9.46102 14.0293 8.82319 13.661 8.2708C13.2927 7.71842 12.7885 7.27004 12.1969 6.96876C11.6053 6.66748 10.9461 6.52342 10.2828 6.55043C9.61943 6.57744 8.97416 6.77461 8.409 7.12299C7.90843 7.43129 7.48421 7.84898 7.16819 8.3447C6.85216 8.84042 6.65254 9.4013 6.58431 9.98521C6.51609 10.5691 6.58103 11.1609 6.77426 11.7161C6.96749 12.2714 7.28399 12.7756 7.7 13.191C8.34847 13.8394 9.20844 14.233 10.123 14.3Z" fill="#264887"/>
</svg>
