<svg width="36" height="36" viewBox="0 0 36 36" fill="none" xmlns="http://www.w3.org/2000/svg">
<rect width="36" height="36" rx="3" fill="#ECF5FB"/>
<g clip-path="url(#clip0)">
<rect width="24" height="24" transform="translate(6 6)" fill="#ECF5FB"/>
<path d="M29.888 11.832C29.8546 11.8178 29.8177 11.8139 29.782 11.8209C29.7464 11.8278 29.7136 11.8453 29.688 11.871L19.941 21.616C19.4253 22.1314 18.7261 22.4209 17.997 22.4209C17.2679 22.4209 16.5687 22.1314 16.053 21.616L6.31 11.871C6.28451 11.8451 6.25175 11.8274 6.21605 11.8205C6.18035 11.8135 6.14338 11.8175 6.11 11.832C6.07721 11.8461 6.04929 11.8696 6.02974 11.8995C6.01018 11.9293 5.99984 11.9643 6 12V24C6 24.5304 6.21072 25.0391 6.58579 25.4142C6.96086 25.7893 7.46957 26 8 26H28C28.5304 26 29.0391 25.7893 29.4142 25.4142C29.7893 25.0391 30 24.5304 30 24V12C30.0001 11.964 29.9896 11.9289 29.9696 11.8989C29.9497 11.869 29.9212 11.8457 29.888 11.832Z" fill="#3598DB"/>
<path d="M17.115 20.556C17.3497 20.79 17.6676 20.9214 17.999 20.9214C18.3304 20.9214 18.6483 20.79 18.883 20.556L28.569 10.87C28.6346 10.8044 28.6806 10.7219 28.702 10.6317C28.7233 10.5414 28.7192 10.447 28.69 10.359C28.58 10.03 28.274 10 28 10H7.99999C7.72499 10 7.41699 10.03 7.30899 10.359C7.27979 10.447 7.27564 10.5414 7.29701 10.6317C7.31838 10.7219 7.36442 10.8044 7.42999 10.87L17.115 20.556Z" fill="#3598DB"/>
</g>
<defs>
<clipPath id="clip0">
<rect width="24" height="24" fill="white" transform="translate(6 6)"/>
</clipPath>
</defs>
</svg>
