<svg width="16" height="16" viewBox="0 0 16 16" fill="none" xmlns="http://www.w3.org/2000/svg">
    <g clip-path="url(#clip0_1820_153283)">
        <path d="M15.6096 13.7273L12.513 10.6306C13.4559 9.21922 13.84 7.50753 13.5908 5.82854C13.3415 4.14954 12.4767 2.62329 11.1644 1.54665C9.85215 0.470017 8.18635 -0.0800194 6.49101 0.00353402C4.79567 0.0870875 3.19202 0.798257 1.99199 1.99871C0.791967 3.19916 0.0813646 4.80306 -0.00158949 6.49843C-0.0845435 8.1938 0.466082 9.85941 1.54318 11.1713C2.62028 12.4832 4.14684 13.3475 5.82592 13.5961C7.50501 13.8448 9.21655 13.46 10.6276 12.5166L13.7243 15.6126C13.9765 15.8586 14.3147 15.9963 14.667 15.9963C15.0192 15.9963 15.3575 15.8586 15.6096 15.6126C15.8596 15.3626 16 15.0235 16 14.67C16 14.3164 15.8596 13.9773 15.6096 13.7273ZM6.83365 2.00331C7.78959 2.00331 8.72406 2.28678 9.5189 2.81787C10.3137 3.34897 10.9332 4.10383 11.2991 4.98701C11.6649 5.87018 11.7606 6.842 11.5741 7.77958C11.3876 8.71715 10.9273 9.57837 10.2513 10.2543C9.57537 10.9303 8.71416 11.3906 7.77658 11.5771C6.83901 11.7636 5.86719 11.6679 4.98401 11.3021C4.10083 10.9362 3.34597 10.3167 2.81488 9.5219C2.28378 8.72706 2.00031 7.79259 2.00031 6.83664C2.00172 5.5552 2.5114 4.32664 3.41752 3.42052C4.32364 2.5144 5.5522 2.00472 6.83365 2.00331Z" fill="#40526D"/>
    </g>
    <defs>
        <clipPath id="clip0_1820_153283">
            <rect width="16" height="16" fill="white"/>
        </clipPath>
    </defs>
</svg>
