<svg width="16" height="16" viewBox="0 0 16 16" fill="none" xmlns="http://www.w3.org/2000/svg">
    <g clip-path="url(#icon-calendar_svg__icon-calendar_svg__clip0)">
        <path d="M4.99996 7H4.33329C4.15648 7 3.98691 7.07024 3.86189 7.19526C3.73686 7.32029 3.66663 7.48986 3.66663 7.66667C3.66663 7.84348 3.73686 8.01305 3.86189 8.13807C3.98691 8.2631 4.15648 8.33333 4.33329 8.33333H4.99996C5.17677 8.33333 5.34634 8.2631 5.47136 8.13807C5.59639 8.01305 5.66663 7.84348 5.66663 7.66667C5.66663 7.48986 5.59639 7.32029 5.47136 7.19526C5.34634 7.07024 5.17677 7 4.99996 7Z" fill="#41536B"/>
        <path d="M8.33333 7H7.66667C7.48986 7 7.32029 7.07024 7.19526 7.19526C7.07024 7.32029 7 7.48986 7 7.66667C7 7.84348 7.07024 8.01305 7.19526 8.13807C7.32029 8.2631 7.48986 8.33333 7.66667 8.33333H8.33333C8.51014 8.33333 8.67971 8.2631 8.80474 8.13807C8.92976 8.01305 9 7.84348 9 7.66667C9 7.48986 8.92976 7.32029 8.80474 7.19526C8.67971 7.07024 8.51014 7 8.33333 7Z" fill="#41536B"/>
        <path d="M11.6667 7H11C10.8232 7 10.6537 7.07024 10.5286 7.19526C10.4036 7.32029 10.3334 7.48986 10.3334 7.66667C10.3334 7.84348 10.4036 8.01305 10.5286 8.13807C10.6537 8.2631 10.8232 8.33333 11 8.33333H11.6667C11.8435 8.33333 12.0131 8.2631 12.1381 8.13807C12.2631 8.01305 12.3334 7.84348 12.3334 7.66667C12.3334 7.48986 12.2631 7.32029 12.1381 7.19526C12.0131 7.07024 11.8435 7 11.6667 7Z" fill="#41536B"/>
        <path d="M4.99996 9.66675H4.33329C4.15648 9.66675 3.98691 9.73699 3.86189 9.86201C3.73686 9.98703 3.66663 10.1566 3.66663 10.3334C3.66663 10.5102 3.73686 10.6798 3.86189 10.8048C3.98691 10.9298 4.15648 11.0001 4.33329 11.0001H4.99996C5.17677 11.0001 5.34634 10.9298 5.47136 10.8048C5.59639 10.6798 5.66663 10.5102 5.66663 10.3334C5.66663 10.1566 5.59639 9.98703 5.47136 9.86201C5.34634 9.73699 5.17677 9.66675 4.99996 9.66675Z" fill="#41536B"/>
        <path d="M8.33333 9.66675H7.66667C7.48986 9.66675 7.32029 9.73699 7.19526 9.86201C7.07024 9.98703 7 10.1566 7 10.3334C7 10.5102 7.07024 10.6798 7.19526 10.8048C7.32029 10.9298 7.48986 11.0001 7.66667 11.0001H8.33333C8.51014 11.0001 8.67971 10.9298 8.80474 10.8048C8.92976 10.6798 9 10.5102 9 10.3334C9 10.1566 8.92976 9.98703 8.80474 9.86201C8.67971 9.73699 8.51014 9.66675 8.33333 9.66675Z" fill="#41536B"/>
        <path d="M11.6667 9.66675H11C10.8232 9.66675 10.6537 9.73699 10.5286 9.86201C10.4036 9.98703 10.3334 10.1566 10.3334 10.3334C10.3334 10.5102 10.4036 10.6798 10.5286 10.8048C10.6537 10.9298 10.8232 11.0001 11 11.0001H11.6667C11.8435 11.0001 12.0131 10.9298 12.1381 10.8048C12.2631 10.6798 12.3334 10.5102 12.3334 10.3334C12.3334 10.1566 12.2631 9.98703 12.1381 9.86201C12.0131 9.73699 11.8435 9.66675 11.6667 9.66675Z" fill="#41536B"/>
        <path d="M4.99996 12.3333H4.33329C4.15648 12.3333 3.98691 12.4035 3.86189 12.5285C3.73686 12.6535 3.66663 12.8231 3.66663 12.9999C3.66663 13.1767 3.73686 13.3463 3.86189 13.4713C3.98691 13.5963 4.15648 13.6666 4.33329 13.6666H4.99996C5.17677 13.6666 5.34634 13.5963 5.47136 13.4713C5.59639 13.3463 5.66663 13.1767 5.66663 12.9999C5.66663 12.8231 5.59639 12.6535 5.47136 12.5285C5.34634 12.4035 5.17677 12.3333 4.99996 12.3333Z" fill="#41536B"/>
        <path d="M8.33333 12.3333H7.66667C7.48986 12.3333 7.32029 12.4035 7.19526 12.5285C7.07024 12.6535 7 12.8231 7 12.9999C7 13.1767 7.07024 13.3463 7.19526 13.4713C7.32029 13.5963 7.48986 13.6666 7.66667 13.6666H8.33333C8.51014 13.6666 8.67971 13.5963 8.80474 13.4713C8.92976 13.3463 9 13.1767 9 12.9999C9 12.8231 8.92976 12.6535 8.80474 12.5285C8.67971 12.4035 8.51014 12.3333 8.33333 12.3333Z" fill="#41536B"/>
        <path d="M11.6667 12.3333H11C10.8232 12.3333 10.6537 12.4035 10.5286 12.5285C10.4036 12.6535 10.3334 12.8231 10.3334 12.9999C10.3334 13.1767 10.4036 13.3463 10.5286 13.4713C10.6537 13.5963 10.8232 13.6666 11 13.6666H11.6667C11.8435 13.6666 12.0131 13.5963 12.1381 13.4713C12.2631 13.3463 12.3334 13.1767 12.3334 12.9999C12.3334 12.8231 12.2631 12.6535 12.1381 12.5285C12.0131 12.4035 11.8435 12.3333 11.6667 12.3333Z" fill="#41536B"/>
        <path d="M14.3334 2H12.5C12.4558 2 12.4134 1.98244 12.3822 1.95118C12.3509 1.91993 12.3334 1.87754 12.3334 1.83333V0.666667C12.3334 0.489856 12.2631 0.320286 12.1381 0.195262C12.0131 0.0702379 11.8435 0 11.6667 0C11.4899 0 11.3203 0.0702379 11.1953 0.195262C11.0703 0.320286 11 0.489856 11 0.666667V3.83333C11 3.96594 10.9474 4.09312 10.8536 4.18689C10.7598 4.28065 10.6326 4.33333 10.5 4.33333C10.3674 4.33333 10.2403 4.28065 10.1465 4.18689C10.0527 4.09312 10 3.96594 10 3.83333V2.33333C10 2.24493 9.96492 2.16014 9.90241 2.09763C9.8399 2.03512 9.75511 2 9.66671 2H5.50004C5.45595 2 5.41366 1.98253 5.38242 1.95142C5.35119 1.92031 5.33355 1.87809 5.33337 1.834V0.666667C5.33337 0.489856 5.26314 0.320286 5.13811 0.195262C5.01309 0.0702379 4.84352 0 4.66671 0C4.4899 0 4.32033 0.0702379 4.1953 0.195262C4.07028 0.320286 4.00004 0.489856 4.00004 0.666667V3.83333C4.00004 3.96594 3.94736 4.09312 3.85359 4.18689C3.75983 4.28065 3.63265 4.33333 3.50004 4.33333C3.36743 4.33333 3.24026 4.28065 3.14649 4.18689C3.05272 4.09312 3.00004 3.96594 3.00004 3.83333V2.33333C3.00004 2.24493 2.96492 2.16014 2.90241 2.09763C2.8399 2.03512 2.75511 2 2.66671 2H1.66671C1.31309 2 0.973947 2.14048 0.723898 2.39052C0.47385 2.64057 0.333374 2.97971 0.333374 3.33333V14.6667C0.333374 15.0203 0.47385 15.3594 0.723898 15.6095C0.973947 15.8595 1.31309 16 1.66671 16H14.3334C14.687 16 15.0261 15.8595 15.2762 15.6095C15.5262 15.3594 15.6667 15.0203 15.6667 14.6667V3.33333C15.6667 2.97971 15.5262 2.64057 15.2762 2.39052C15.0261 2.14048 14.687 2 14.3334 2ZM14.3334 14.3333C14.3334 14.4217 14.2983 14.5065 14.2357 14.569C14.1732 14.6315 14.0884 14.6667 14 14.6667H2.00004C1.91164 14.6667 1.82685 14.6315 1.76434 14.569C1.70183 14.5065 1.66671 14.4217 1.66671 14.3333V6.33333C1.66671 6.24493 1.70183 6.16014 1.76434 6.09763C1.82685 6.03512 1.91164 6 2.00004 6H14C14.0884 6 14.1732 6.03512 14.2357 6.09763C14.2983 6.16014 14.3334 6.24493 14.3334 6.33333V14.3333Z" fill="#41536B"/>
    </g>
    <defs>
        <clipPath id="icon-calendar_svg__icon-calendar_svg__clip0">
            <rect width="16" height="16" fill="white"/>
        </clipPath>
    </defs>
</svg>
