<svg width="36" height="36" viewBox="0 0 36 36" fill="none" xmlns="http://www.w3.org/2000/svg">
<rect width="36" height="36" rx="3" fill="#FBEBEB"/>
<rect width="24" height="24" transform="translate(6 6)" fill="#FBEBEB"/>
<g clip-path="url(#clip0)">
<path d="M27.566 18.133H22.431C22.3339 18.1332 22.239 18.1617 22.1579 18.215C22.0767 18.2683 22.0128 18.344 21.974 18.433L20.815 21.039C20.6981 21.3022 20.5078 21.5262 20.267 21.6842C20.0262 21.8422 19.745 21.9275 19.457 21.93H19.442C19.1567 21.9294 18.8775 21.8474 18.6371 21.6936C18.3967 21.5399 18.2052 21.3208 18.085 21.062L15.985 16.573C15.966 16.5329 15.9368 16.4986 15.9003 16.4735C15.8638 16.4484 15.8213 16.4334 15.7771 16.4301C15.7329 16.4267 15.6886 16.4351 15.6487 16.4544C15.6088 16.4737 15.5748 16.5033 15.55 16.54L14.932 17.469C14.7949 17.6746 14.6092 17.8432 14.3913 17.9597C14.1734 18.0762 13.9301 18.1371 13.683 18.137H8.434C8.38493 18.1371 8.33697 18.1516 8.29611 18.1788C8.25524 18.206 8.22328 18.2446 8.20419 18.2898C8.18511 18.335 8.17975 18.3848 8.18878 18.433C8.19782 18.4813 8.22085 18.5258 8.255 18.561L17.255 27.824C17.3525 27.9243 17.4691 28.004 17.5979 28.0584C17.7267 28.1128 17.8652 28.1409 18.005 28.1409C18.1448 28.1409 18.2833 28.1128 18.4121 28.0584C18.5409 28.004 18.6575 27.9243 18.755 27.824L27.755 18.561C27.7892 18.5258 27.8122 18.4813 27.8212 18.433C27.8303 18.3848 27.8249 18.335 27.8058 18.2898C27.7867 18.2446 27.7548 18.206 27.7139 18.1788C27.673 18.1516 27.6251 18.1371 27.576 18.137L27.566 18.133Z" fill="#D32D27"/>
<path d="M29.361 11.166C28.9236 10.3168 28.2926 9.58239 27.5191 9.02197C26.7455 8.46156 25.8511 8.09087 24.9079 7.93981C23.9647 7.78876 22.9992 7.86159 22.0893 8.15241C21.1795 8.44323 20.3507 8.94389 19.67 9.614L18.337 10.829C18.2449 10.913 18.1247 10.9596 18 10.9596C17.8753 10.9596 17.7551 10.913 17.663 10.829L16.33 9.614C15.6493 8.94389 14.8205 8.44323 13.9106 8.15241C13.0008 7.86159 12.0353 7.78876 11.0921 7.93981C10.1489 8.09087 9.25443 8.46156 8.48089 9.02197C7.70735 9.58239 7.07641 10.3168 6.63899 11.166C6.27764 11.8777 6.06447 12.6554 6.01239 13.4519C5.96031 14.2485 6.07039 15.0473 6.33599 15.8C6.37015 15.8977 6.43381 15.9824 6.51818 16.0425C6.60254 16.1025 6.70346 16.1348 6.80699 16.135H13.153C13.2353 16.135 13.3164 16.1146 13.389 16.0757C13.4615 16.0368 13.5234 15.9805 13.569 15.912L14.631 14.318C14.7773 14.095 14.981 13.9156 15.2207 13.7988C15.4604 13.6819 15.7272 13.6319 15.993 13.654C16.2584 13.6741 16.5137 13.7644 16.7326 13.9157C16.9516 14.067 17.1264 14.2738 17.239 14.515L19.2 18.722C19.2199 18.7656 19.2519 18.8027 19.2922 18.8286C19.3326 18.8546 19.3795 18.8683 19.4275 18.8683C19.4755 18.8683 19.5224 18.8546 19.5627 18.8286C19.6031 18.8027 19.6351 18.7656 19.655 18.722L20.409 17.022C20.5269 16.7571 20.719 16.5321 20.9622 16.3741C21.2053 16.2162 21.489 16.1321 21.779 16.132H29.19C29.2936 16.1321 29.3946 16.1 29.4792 16.0401C29.5637 15.9803 29.6276 15.8957 29.662 15.798C29.9276 15.0457 30.0379 14.2473 29.9861 13.4512C29.9344 12.655 29.7217 11.8776 29.361 11.166Z" fill="#D32D27"/>
</g>
<defs>
<clipPath id="clip0">
<rect width="24" height="24" fill="white" transform="translate(6 6)"/>
</clipPath>
</defs>
</svg>
