<svg width="24" height="24" viewBox="0 0 24 24" fill="none" xmlns="http://www.w3.org/2000/svg">
    <g clip-path="url(#clip0_1658_141020)">
        <path d="M13.1501 12.0896C13.1384 12.078 13.1292 12.0642 13.1229 12.0491C13.1166 12.0339 13.1133 12.0176 13.1133 12.0011C13.1133 11.9847 13.1166 11.9684 13.1229 11.9532C13.1292 11.938 13.1384 11.9243 13.1501 11.9126L17.7816 7.28164C17.9222 7.14081 18.0011 6.94989 18.001 6.75086C18.0008 6.55184 17.9216 6.36102 17.7808 6.22039C17.64 6.07976 17.4491 6.00084 17.25 6.00098C17.051 6.00112 16.8602 6.08031 16.7196 6.22114L12.0886 10.8501C12.077 10.8618 12.0632 10.871 12.048 10.8773C12.0328 10.8836 12.0165 10.8869 12.0001 10.8869C11.9836 10.8869 11.9673 10.8836 11.9522 10.8773C11.937 10.871 11.9232 10.8618 11.9116 10.8501L7.28056 6.22114C7.21093 6.15148 7.12826 6.09621 7.03726 6.05849C6.94627 6.02078 6.84874 6.00135 6.75024 6.00133C6.55131 6.00128 6.36051 6.08026 6.21981 6.22089C6.07912 6.36152 6.00005 6.55229 6 6.75122C5.99995 6.95015 6.07893 7.14095 6.21956 7.28164L10.8501 11.9126C10.8617 11.9243 10.8709 11.938 10.8772 11.9532C10.8835 11.9684 10.8868 11.9847 10.8868 12.0011C10.8868 12.0176 10.8835 12.0339 10.8772 12.0491C10.8709 12.0642 10.8617 12.078 10.8501 12.0896L6.21956 16.7211C6.14993 16.7908 6.0947 16.8735 6.05703 16.9645C6.01935 17.0555 5.99998 17.1531 6 17.2516C6.00005 17.4505 6.07912 17.6413 6.21981 17.7819C6.28948 17.8515 6.37218 17.9068 6.46319 17.9444C6.5542 17.9821 6.65174 18.0015 6.75024 18.0015C6.94917 18.0014 7.13993 17.9223 7.28056 17.7816L11.9116 13.1501C11.9232 13.1385 11.937 13.1293 11.9522 13.123C11.9673 13.1167 11.9836 13.1134 12.0001 13.1134C12.0165 13.1134 12.0328 13.1167 12.048 13.123C12.0632 13.1293 12.077 13.1385 12.0886 13.1501L16.7196 17.7816C16.8602 17.9223 17.051 18.0014 17.2499 18.0015C17.4488 18.0015 17.6396 17.9225 17.7803 17.7819C17.921 17.6413 18.0001 17.4505 18.0001 17.2516C18.0002 17.0526 17.9212 16.8618 17.7806 16.7211L13.1501 12.0896Z" fill="#40526D"/>
    </g>
    <defs>
        <clipPath id="clip0_1658_141020">
            <rect width="12" height="12" fill="white" transform="translate(6 6)"/>
        </clipPath>
    </defs>
</svg>
