<svg width="16" height="16" viewBox="0 0 16 16" fill="none" xmlns="http://www.w3.org/2000/svg">
<path d="M15.4671 7.03277C14.6234 6.10793 13.6592 5.30071 12.6005 4.63277L15.2671 1.96943C15.3308 1.90794 15.3816 1.83437 15.4165 1.75304C15.4515 1.6717 15.4699 1.58422 15.4706 1.4957C15.4714 1.40718 15.4545 1.3194 15.421 1.23746C15.3875 1.15553 15.338 1.0811 15.2754 1.0185C15.2128 0.955909 15.1384 0.906407 15.0564 0.872887C14.9745 0.839366 14.8867 0.822498 14.7982 0.823267C14.7097 0.824037 14.6222 0.842427 14.5409 0.877367C14.4595 0.912306 14.386 0.963094 14.3245 1.02677L14.3125 1.03877C14.2896 1.11151 14.2501 1.17793 14.1971 1.23277L1.19713 14.2328C1.1918 14.2374 1.18513 14.2388 1.1798 14.2441C1.12135 14.3865 1.11399 14.5448 1.15898 14.692C1.20397 14.8392 1.29852 14.9664 1.42659 15.0518C1.55466 15.1372 1.70835 15.1757 1.86157 15.1607C2.01479 15.1457 2.15808 15.0781 2.26713 14.9694L5.03113 12.2054C5.93827 12.6015 6.91478 12.8142 7.90447 12.8314H8.10447C10.9418 12.8314 13.7638 10.8421 15.4718 8.96477C15.7091 8.6987 15.8399 8.3544 15.839 7.99787C15.8382 7.64135 15.7057 7.29769 15.4671 7.03277ZM10.8758 8.84677C10.731 9.32014 10.4733 9.75123 10.1249 10.1029C9.77648 10.4545 9.34781 10.7162 8.8758 10.8654C8.19519 11.0822 7.45818 11.037 6.80913 10.7388C6.7849 10.727 6.76383 10.7096 6.7477 10.6881C6.73156 10.6665 6.72083 10.6414 6.71639 10.6148C6.71195 10.5882 6.71394 10.561 6.72219 10.5354C6.73044 10.5097 6.7447 10.4864 6.7638 10.4674L10.4705 6.76143C10.4893 6.74217 10.5126 6.72774 10.5382 6.71935C10.5639 6.71097 10.5911 6.70887 10.6177 6.71326C10.6444 6.71764 10.6695 6.72836 10.6911 6.74452C10.7127 6.76068 10.7301 6.7818 10.7418 6.8061C11.0358 7.44671 11.0835 8.1732 10.8758 8.84677Z" fill="#41536B"/>
<path d="M5.07708 8.93323C5.09752 8.91262 5.11207 8.88691 5.11922 8.85878C5.12637 8.83064 5.12586 8.80111 5.11774 8.77323C5.04361 8.522 5.00413 8.26182 5.00041 7.9999C5.00041 7.20425 5.31648 6.44119 5.87909 5.87858C6.4417 5.31597 7.20476 4.9999 8.00041 4.9999C8.26226 5.00264 8.52249 5.04145 8.77374 5.11523C8.80167 5.12326 8.83125 5.12367 8.85938 5.1164C8.88752 5.10913 8.9132 5.09445 8.93374 5.0739L10.2277 3.77923C10.2482 3.75879 10.2631 3.73345 10.271 3.70563C10.2789 3.6778 10.2795 3.64841 10.2729 3.62027C10.2662 3.59212 10.2524 3.56616 10.2328 3.54486C10.2133 3.52355 10.1886 3.50762 10.1611 3.49857C9.46291 3.27448 8.73365 3.16243 8.00041 3.16657C5.13374 3.1279 2.26708 5.13323 0.542411 7.03257C0.300511 7.29611 0.165907 7.6406 0.165043 7.99833C0.16418 8.35606 0.297119 8.70119 0.537744 8.9659C1.22654 9.72004 1.99503 10.3973 2.82974 10.9859C2.86253 11.0086 2.90221 11.019 2.9419 11.0155C2.9816 11.012 3.01881 10.9947 3.04708 10.9666L5.07708 8.93323Z" fill="#41536B"/>
</svg>
