<svg width="12" height="12" viewBox="0 0 12 12" fill="none" xmlns="http://www.w3.org/2000/svg">
<path d="M11.5595 10L6.88599 1.07502C6.80129 0.913392 6.67398 0.778019 6.51785 0.683567C6.36172 0.589115 6.18272 0.539185 6.00024 0.539185C5.81776 0.539185 5.63876 0.589115 5.48263 0.683567C5.3265 0.778019 5.19919 0.913392 5.11449 1.07502L0.440489 10C0.36065 10.1524 0.321491 10.3229 0.326801 10.4949C0.33211 10.6669 0.381708 10.8346 0.470797 10.9818C0.559887 11.129 0.685454 11.2507 0.835355 11.3352C0.985257 11.4197 1.15442 11.4641 1.32649 11.464H10.6735C10.8456 11.4641 11.0147 11.4197 11.1646 11.3352C11.3145 11.2507 11.4401 11.129 11.5292 10.9818C11.6183 10.8346 11.6679 10.6669 11.6732 10.4949C11.6785 10.3229 11.6393 10.1524 11.5595 10ZM5.49999 4.21152C5.49999 4.07891 5.55267 3.95174 5.64644 3.85797C5.7402 3.7642 5.86738 3.71152 5.99999 3.71152C6.1326 3.71152 6.25977 3.7642 6.35354 3.85797C6.44731 3.95174 6.49999 4.07891 6.49999 4.21152V7.21152C6.49999 7.34413 6.44731 7.47131 6.35354 7.56508C6.25977 7.65884 6.1326 7.71152 5.99999 7.71152C5.86738 7.71152 5.7402 7.65884 5.64644 7.56508C5.55267 7.47131 5.49999 7.34413 5.49999 7.21152V4.21152ZM6.02499 9.96652H6.01099C5.81381 9.96589 5.62451 9.88905 5.48268 9.75206C5.34085 9.61508 5.25747 9.42856 5.24999 9.23152C5.24639 9.13353 5.26235 9.03579 5.29694 8.94404C5.33154 8.85228 5.38407 8.76834 5.45148 8.69711C5.51889 8.62589 5.59981 8.56882 5.68952 8.52922C5.77924 8.48963 5.87594 8.46832 5.97399 8.46652H5.98799C6.18513 8.46676 6.37454 8.54324 6.51657 8.67996C6.6586 8.81668 6.74224 9.00303 6.74999 9.20002C6.75387 9.29824 6.73807 9.39624 6.70353 9.48827C6.66899 9.5803 6.6164 9.66449 6.54886 9.7359C6.48131 9.80732 6.40017 9.8645 6.31021 9.90411C6.22025 9.94371 6.12327 9.96493 6.02499 9.96652Z" fill="#D32D27"/>
</svg>
