<svg width="24" height="24" viewBox="0 0 24 24" fill="none" xmlns="http://www.w3.org/2000/svg">
<path fill-rule="evenodd" clip-rule="evenodd" d="M6 6H11C11.5523 6 12 6.44772 12 7C12 7.55228 11.5523 8 11 8H6V18H16V13C16 12.4477 16.4477 12 17 12C17.5523 12 18 12.4477 18 13V18C18 19.1046 17.1046 20 16 20H6C4.89543 20 4 19.1046 4 18V8C4 6.89543 4.89543 6 6 6ZM18.1213 7.41421L14.7071 10.8284C14.3166 11.219 13.6834 11.219 13.2929 10.8284C12.9024 10.4379 12.9024 9.80474 13.2929 9.41421L16.7071 6H15.1213C14.569 6 14.1213 5.55228 14.1213 5C14.1213 4.44772 14.569 4 15.1213 4H19.1213C19.6736 4 20 4.44772 20 5V9C20 9.55228 19.6736 10 19.1213 10C18.569 10 18.1213 9.55228 18.1213 9V7.41421Z" fill="#25282D" fill-opacity="0.7"/>
</svg>
