<svg width="36" height="36" viewBox="0 0 36 36" fill="none" xmlns="http://www.w3.org/2000/svg">
<rect width="36" height="36" rx="3" fill="#ECF5FB"/>
<g clip-path="url(#clip0)">
<rect width="24" height="24" transform="translate(6 6)" fill="#ECF5FB"/>
<path d="M29 10.5C29 9.96957 28.7893 9.46086 28.4142 9.08579C28.0391 8.71071 27.5304 8.5 27 8.5H25.25C25.1837 8.5 25.1201 8.47366 25.0732 8.42678C25.0263 8.37989 25 8.3163 25 8.25V7C25 6.73478 24.8946 6.48043 24.7071 6.29289C24.5196 6.10536 24.2652 6 24 6C23.7348 6 23.4804 6.10536 23.2929 6.29289C23.1054 6.48043 23 6.73478 23 7V8.25C23 8.3163 22.9737 8.37989 22.9268 8.42678C22.8799 8.47366 22.8163 8.5 22.75 8.5H19.25C19.1837 8.5 19.1201 8.47366 19.0732 8.42678C19.0263 8.37989 19 8.3163 19 8.25V7C19 6.73478 18.8946 6.48043 18.7071 6.29289C18.5196 6.10536 18.2652 6 18 6C17.7348 6 17.4804 6.10536 17.2929 6.29289C17.1054 6.48043 17 6.73478 17 7V8.25C17 8.3163 16.9737 8.37989 16.9268 8.42678C16.8799 8.47366 16.8163 8.5 16.75 8.5H13.25C13.1837 8.5 13.1201 8.47366 13.0732 8.42678C13.0263 8.37989 13 8.3163 13 8.25V7C13 6.73478 12.8946 6.48043 12.7071 6.29289C12.5196 6.10536 12.2652 6 12 6C11.7348 6 11.4804 6.10536 11.2929 6.29289C11.1054 6.48043 11 6.73478 11 7V8.25C11 8.3163 10.9737 8.37989 10.9268 8.42678C10.8799 8.47366 10.8163 8.5 10.75 8.5H9C8.46957 8.5 7.96086 8.71071 7.58579 9.08579C7.21071 9.46086 7 9.96957 7 10.5V28C7 28.5304 7.21071 29.0391 7.58579 29.4142C7.96086 29.7893 8.46957 30 9 30H27C27.5304 30 28.0391 29.7893 28.4142 29.4142C28.7893 29.0391 29 28.5304 29 28V10.5Z" fill="#3598DB"/>
<path d="M24.5 15.5C24.5 15.2348 24.3946 14.9804 24.2071 14.7929C24.0196 14.6054 23.7652 14.5 23.5 14.5H12.5C12.2348 14.5 11.9804 14.6054 11.7929 14.7929C11.6054 14.9804 11.5 15.2348 11.5 15.5C11.5 15.7652 11.6054 16.0196 11.7929 16.2071C11.9804 16.3946 12.2348 16.5 12.5 16.5H23.5C23.7652 16.5 24.0196 16.3946 24.2071 16.2071C24.3946 16.0196 24.5 15.7652 24.5 15.5Z" fill="white"/>
<path d="M24.5 19.5C24.5 19.2348 24.3946 18.9804 24.2071 18.7929C24.0196 18.6054 23.7652 18.5 23.5 18.5H12.5C12.2348 18.5 11.9804 18.6054 11.7929 18.7929C11.6054 18.9804 11.5 19.2348 11.5 19.5C11.5 19.7652 11.6054 20.0196 11.7929 20.2071C11.9804 20.3946 12.2348 20.5 12.5 20.5H23.5C23.7652 20.5 24.0196 20.3946 24.2071 20.2071C24.3946 20.0196 24.5 19.7652 24.5 19.5Z" fill="white"/>
<path d="M20.5 22.5H12.5C12.2348 22.5 11.9804 22.6054 11.7929 22.7929C11.6054 22.9804 11.5 23.2348 11.5 23.5C11.5 23.7652 11.6054 24.0196 11.7929 24.2071C11.9804 24.3946 12.2348 24.5 12.5 24.5H20.5C20.7652 24.5 21.0196 24.3946 21.2071 24.2071C21.3946 24.0196 21.5 23.7652 21.5 23.5C21.5 23.2348 21.3946 22.9804 21.2071 22.7929C21.0196 22.6054 20.7652 22.5 20.5 22.5Z" fill="white"/>
</g>
<defs>
<clipPath id="clip0">
<rect width="24" height="24" fill="white" transform="translate(6 6)"/>
</clipPath>
</defs>
</svg>
