<svg width="16" height="16" viewBox="0 0 16 16" fill="none" xmlns="http://www.w3.org/2000/svg">
<g clip-path="url(#clip0_442_28257)">
<path d="M6.01668 8.61C6.04259 8.58433 6.05936 8.55086 6.06442 8.51473C6.06948 8.4786 6.06254 8.44181 6.04468 8.41C5.86235 8.07996 5.76671 7.70906 5.76671 7.332C5.76671 6.95495 5.86235 6.58405 6.04468 6.254C6.06265 6.22223 6.06965 6.18541 6.06459 6.14926C6.05953 6.1131 6.04269 6.07962 6.01668 6.054L4.97801 5.01867C4.96082 5.00151 4.94009 4.98832 4.91727 4.98002C4.89445 4.97171 4.87009 4.9685 4.8459 4.97059C4.8217 4.97269 4.79826 4.98005 4.7772 4.99215C4.75615 5.00426 4.738 5.02081 4.72401 5.04067C4.25281 5.71233 4 6.51287 4 7.33334C4 8.1538 4.25281 8.95434 4.72401 9.626C4.73791 9.64602 4.75605 9.66272 4.77714 9.67493C4.79822 9.68715 4.82174 9.69457 4.84601 9.69667C4.87038 9.69878 4.89492 9.69558 4.91794 9.68729C4.94096 9.679 4.96191 9.66583 4.97935 9.64867L6.01668 8.61Z" fill="#1B283C"/>
<path d="M7.99994 8.56676C8.68109 8.56676 9.23327 8.01458 9.23327 7.33343C9.23327 6.65228 8.68109 6.1001 7.99994 6.1001C7.31878 6.1001 6.7666 6.65228 6.7666 7.33343C6.7666 8.01458 7.31878 8.56676 7.99994 8.56676Z" fill="#1B283C"/>
<path d="M6.72319 5.34993C6.74887 5.37584 6.78234 5.39261 6.81847 5.39767C6.8546 5.40273 6.89139 5.3958 6.92319 5.37793C7.25324 5.1956 7.62414 5.09997 8.00119 5.09997C8.37825 5.09997 8.74915 5.1956 9.07919 5.37793C9.111 5.3958 9.14779 5.40273 9.18392 5.39767C9.22004 5.39261 9.25351 5.37584 9.27919 5.34993L10.3172 4.31126C10.3343 4.29408 10.3475 4.27334 10.3558 4.25052C10.3641 4.2277 10.3674 4.20334 10.3653 4.17915C10.3632 4.15495 10.3558 4.13151 10.3437 4.11045C10.3316 4.0894 10.315 4.07125 10.2952 4.05726C9.62353 3.58606 8.82299 3.33325 8.00253 3.33325C7.18206 3.33325 6.38152 3.58606 5.70986 4.05726C5.69 4.07125 5.67344 4.0894 5.66134 4.11045C5.64924 4.13151 5.64188 4.15495 5.63978 4.17915C5.63769 4.20334 5.6409 4.2277 5.64921 4.25052C5.65751 4.27334 5.6707 4.29408 5.68786 4.31126L6.72319 5.34993Z" fill="#1B283C"/>
<path d="M9.98323 6.05738C9.95712 6.08294 9.94021 6.11642 9.93515 6.15261C9.93008 6.18879 9.93715 6.22563 9.95523 6.25738C10.1388 6.58956 10.2345 6.96313 10.2332 7.34266C10.232 7.7222 10.1337 8.09512 9.9479 8.42604C9.93232 8.45379 9.92623 8.48588 9.93056 8.51741C9.93489 8.54894 9.94941 8.57819 9.9719 8.60071L11.0212 9.65071C11.0385 9.66806 11.0595 9.68135 11.0825 9.68965C11.1056 9.69795 11.1302 9.70105 11.1546 9.69871C11.1788 9.69655 11.2022 9.68918 11.2232 9.67709C11.2443 9.66501 11.2625 9.6485 11.2766 9.62871C11.7477 8.95691 12.0005 8.15627 12.0005 7.33571C12.0005 6.51515 11.7477 5.71451 11.2766 5.04271C11.2623 5.02341 11.244 5.00744 11.2229 4.99593C11.2018 4.98442 11.1785 4.97763 11.1546 4.97604C11.1302 4.9738 11.1056 4.97694 11.0826 4.98523C11.0595 4.99353 11.0386 5.00678 11.0212 5.02404L9.98323 6.05738Z" fill="#1B283C"/>
<path d="M9.27606 9.31669C9.25033 9.29087 9.21686 9.27417 9.18076 9.26911C9.14466 9.26406 9.1079 9.27093 9.07606 9.28869C8.74626 9.47102 8.37558 9.56666 7.99873 9.56666C7.62188 9.56666 7.2512 9.47102 6.9214 9.28869C6.88959 9.27082 6.8528 9.26389 6.81667 9.26894C6.78054 9.274 6.74707 9.29077 6.7214 9.31669L5.6854 10.3554C5.66816 10.3727 5.65494 10.3937 5.64665 10.4167C5.63836 10.4397 5.6352 10.4643 5.6374 10.4887C5.63954 10.5129 5.64698 10.5364 5.65919 10.5575C5.6714 10.5786 5.68808 10.5968 5.70806 10.6107C6.37963 11.0815 7.1799 11.3341 8.00006 11.3341C8.82023 11.3341 9.6205 11.0815 10.2921 10.6107C10.3112 10.5963 10.3271 10.5779 10.3386 10.5569C10.3501 10.5359 10.357 10.5126 10.3587 10.4887C10.3612 10.4643 10.3582 10.4396 10.3499 10.4166C10.3416 10.3935 10.3282 10.3726 10.3107 10.3554L9.27606 9.31669Z" fill="#1B283C"/>
<path d="M14.3333 9.18284e-07H1.66667C1.23284 -0.00749794 0.813749 0.157366 0.501308 0.458434C0.188868 0.759502 0.00858477 1.17219 0 1.606V13.0607C0.00242901 13.3599 0.0887408 13.6525 0.24913 13.9052C0.409519 14.1578 0.637555 14.3605 0.907333 14.49C0.935158 14.5038 0.958577 14.5251 0.97495 14.5515C0.991323 14.5778 0.999999 14.6083 1 14.6393V15.3333C1 15.5101 1.07024 15.6797 1.19526 15.8047C1.32029 15.9298 1.48986 16 1.66667 16C1.84348 16 2.01305 15.9298 2.13807 15.8047C2.2631 15.6797 2.33333 15.5101 2.33333 15.3333V14.8333C2.33333 14.7891 2.35089 14.7467 2.38215 14.7155C2.4134 14.6842 2.4558 14.6667 2.5 14.6667H13.5C13.5442 14.6667 13.5866 14.6842 13.6179 14.7155C13.6491 14.7467 13.6667 14.7891 13.6667 14.8333V15.3333C13.6667 15.5101 13.7369 15.6797 13.8619 15.8047C13.987 15.9298 14.1565 16 14.3333 16C14.5101 16 14.6797 15.9298 14.8047 15.8047C14.9298 15.6797 15 15.5101 15 15.3333V14.6393C15 14.6083 15.0087 14.5778 15.0251 14.5515C15.0414 14.5251 15.0648 14.5038 15.0927 14.49C15.3624 14.3605 15.5905 14.1578 15.7509 13.9052C15.9113 13.6525 15.9976 13.3599 16 13.0607V1.606C15.9914 1.17219 15.8111 0.759502 15.4987 0.458434C15.1863 0.157366 14.7672 -0.00749794 14.3333 9.18284e-07ZM13.3333 7.33333C13.3333 8.38817 13.0205 9.41931 12.4345 10.2964C11.8485 11.1734 11.0155 11.857 10.041 12.2607C9.06644 12.6644 7.99408 12.77 6.95952 12.5642C5.92495 12.3584 4.97464 11.8505 4.22876 11.1046C3.48288 10.3587 2.97493 9.40838 2.76915 8.37381C2.56336 7.33925 2.66898 6.26689 3.07264 5.29236C3.47631 4.31782 4.1599 3.48486 5.03696 2.89883C5.91402 2.3128 6.94517 2 8 2C9.414 2.00159 10.7696 2.564 11.7695 3.56385C12.7693 4.5637 13.3317 5.91933 13.3333 7.33333Z" fill="#1B283C"/>
</g>
<defs>
<clipPath id="clip0_442_28257">
<rect width="16" height="16" fill="white"/>
</clipPath>
</defs>
</svg>
