<svg width="101" height="100" viewBox="0 0 101 100" fill="none" xmlns="http://www.w3.org/2000/svg">
<path d="M50.5 100C78.1142 100 100.5 77.6142 100.5 50C100.5 22.3858 78.1142 0 50.5 0C22.8858 0 0.5 22.3858 0.5 50C0.5 77.6142 22.8858 100 50.5 100Z" fill="#ECF5FB"/>
<g opacity="0.9">
<g opacity="0.9">
<path opacity="0.9" d="M84.3279 50.3226C84.3279 68.8292 69.3233 83.8279 50.8225 83.8279C32.3129 83.8279 17.3171 68.8293 17.3171 50.3226C17.3171 31.8159 32.3129 16.8172 50.8225 16.8172C69.3233 16.8172 84.3279 31.816 84.3279 50.3226Z" fill="white" stroke="#264887"/>
<path opacity="0.9" d="M84.3279 50.3226C84.3279 68.8292 69.3233 83.8279 50.8225 83.8279C32.3129 83.8279 17.3171 68.8293 17.3171 50.3226C17.3171 31.8159 32.3129 16.8172 50.8225 16.8172C69.3233 16.8172 84.3279 31.816 84.3279 50.3226Z" fill="white" stroke="#264887"/>
<path opacity="0.9" d="M84.8279 50.3226C84.8279 69.1054 69.5994 84.328 50.8225 84.328C32.0368 84.328 16.8171 69.1054 16.8171 50.3226C16.8171 31.5398 32.0368 16.3172 50.8225 16.3172C69.5994 16.3172 84.8279 31.5398 84.8279 50.3226Z" stroke="#264887" stroke-width="2" stroke-linecap="round" stroke-dasharray="190 7 1 5"/>
</g>
<path opacity="0.9" d="M64.5071 38.794C65.1583 38.1862 66.1789 38.2214 66.7867 38.8726C67.3945 39.5238 67.3593 40.5445 66.7081 41.1523L44.5307 61.8512C43.8953 62.4442 42.9043 62.4271 42.2897 61.8126L34.8972 54.4201C34.2673 53.7902 34.2673 52.769 34.8972 52.1391C35.5271 51.5092 36.5483 51.5092 37.1782 52.1391L43.4688 58.4297L64.5071 38.794Z" fill="#00A878"/>
</g>
<path d="M15.984 16.7742C17.4092 16.7742 18.5646 15.6188 18.5646 14.1936C18.5646 12.7683 17.4092 11.6129 15.984 11.6129C14.5587 11.6129 13.4033 12.7683 13.4033 14.1936C13.4033 15.6188 14.5587 16.7742 15.984 16.7742Z" stroke="#B5D9F1" stroke-width="2.22222" stroke-linecap="round" stroke-dasharray="1.11 6.67 182.22 5.56"/>
<path fill-rule="evenodd" clip-rule="evenodd" d="M90.8225 47.0643L94.0159 43.8709L97.2093 47.0643L94.0159 50.2577L90.8225 47.0643Z" stroke="#B5D9F1" stroke-width="2.22222" stroke-linecap="round" stroke-dasharray="1.11 6.67 182.22 5.56"/>
<path d="M76.1453 15.6451L79.8232 19.3231" stroke="#B5D9F1" stroke-width="2.22222" stroke-linecap="round" stroke-dasharray="1.11 6.67 182.22 5.56"/>
<path d="M79.6936 15.6451L76.0156 19.3231" stroke="#B5D9F1" stroke-width="2.22222" stroke-linecap="round" stroke-dasharray="1.11 6.67 182.22 5.56"/>
</svg>
