<svg width="36" height="36" viewBox="0 0 36 36" fill="none" xmlns="http://www.w3.org/2000/svg">
<rect width="36" height="36" rx="3" fill="#E7F7F2"/>
<rect width="24" height="24" transform="translate(6 6)" fill="#E7F7F2"/>
<path d="M28 16.375C28.2652 16.375 28.5196 16.2696 28.7071 16.0821C28.8946 15.8946 29 15.6402 29 15.375V14.375C29 14.1098 28.8946 13.8554 28.7071 13.6679C28.5196 13.4804 28.2652 13.375 28 13.375H25.9C25.8476 13.375 25.7964 13.3584 25.7539 13.3277C25.7114 13.297 25.6796 13.2538 25.663 13.204L24.563 9.904C24.464 9.60471 24.2733 9.34421 24.0178 9.1595C23.7624 8.97478 23.4552 8.87524 23.14 8.875H12.86C12.5453 8.87496 12.2385 8.97392 11.9831 9.15788C11.7277 9.34183 11.5367 9.60146 11.437 9.9L10.337 13.2C10.3204 13.2498 10.2886 13.293 10.2461 13.3237C10.2036 13.3544 10.1524 13.371 10.1 13.371H8C7.73478 13.371 7.48043 13.4764 7.29289 13.6639C7.10536 13.8514 7 14.1058 7 14.371V15.371C7 15.6362 7.10536 15.8906 7.29289 16.0781C7.48043 16.2656 7.73478 16.371 8 16.371H8.689C8.73851 16.3709 8.78693 16.3855 8.82813 16.413C8.86932 16.4405 8.90143 16.4795 8.92039 16.5253C8.93935 16.571 8.9443 16.6213 8.93462 16.6699C8.92494 16.7184 8.90105 16.763 8.866 16.798L7.293 18.375C7.10619 18.563 7.00093 18.817 7 19.082V22.375C7.00052 22.5674 7.05771 22.7553 7.16442 22.9154C7.27113 23.0755 7.42263 23.2005 7.6 23.275C7.64456 23.2944 7.68249 23.3265 7.70913 23.3671C7.73577 23.4078 7.74997 23.4554 7.75 23.504V25.878C7.75106 26.2089 7.88319 26.5259 8.11747 26.7597C8.35174 26.9934 8.66908 27.1247 9 27.125H11C11.3314 27.1247 11.6492 26.993 11.8836 26.7586C12.118 26.5242 12.2497 26.2064 12.25 25.875V23.625C12.25 23.5587 12.2763 23.4951 12.3232 23.4482C12.3701 23.4013 12.4337 23.375 12.5 23.375H23.5C23.5663 23.375 23.6299 23.4013 23.6768 23.4482C23.7237 23.4951 23.75 23.5587 23.75 23.625V25.875C23.7503 26.2064 23.882 26.5242 24.1164 26.7586C24.3508 26.993 24.6686 27.1247 25 27.125H27C27.3314 27.1247 27.6492 26.993 27.8836 26.7586C28.118 26.5242 28.2497 26.2064 28.25 25.875V23.5C28.25 23.4514 28.2642 23.4038 28.2909 23.3631C28.3175 23.3225 28.3554 23.2904 28.4 23.271C28.5774 23.1965 28.7289 23.0714 28.8356 22.9114C28.9423 22.7513 28.9995 22.5634 29 22.371V19.082C28.9991 18.817 28.8938 18.563 28.707 18.375L27.134 16.8C27.0989 16.765 27.0751 16.7204 27.0654 16.6719C27.0557 16.6233 27.0606 16.573 27.0796 16.5273C27.0986 16.4815 27.1307 16.4425 27.1719 16.415C27.2131 16.3875 27.2615 16.3729 27.311 16.373L28 16.375ZM22.6 10.875C22.6524 10.875 22.7036 10.8916 22.7461 10.9223C22.7886 10.953 22.8204 10.9962 22.837 11.046L24 14.546C24.0123 14.5836 24.0155 14.6237 24.0094 14.6628C24.0033 14.7019 23.988 14.739 23.9648 14.7711C23.9416 14.8032 23.9111 14.8293 23.8759 14.8474C23.8406 14.8655 23.8016 14.8749 23.762 14.875H12.235C12.1957 14.8744 12.157 14.8646 12.1221 14.8464C12.0873 14.8281 12.0572 14.8019 12.0343 14.7699C12.0114 14.7379 11.9964 14.7009 11.9905 14.662C11.9845 14.6232 11.9878 14.5834 12 14.546L13.167 11.046C13.1834 10.9969 13.2145 10.954 13.2563 10.9234C13.298 10.8928 13.3482 10.8759 13.4 10.875H22.6ZM12 20.875H9C8.86739 20.875 8.74021 20.8223 8.64645 20.7286C8.55268 20.6348 8.5 20.5076 8.5 20.375V19.375C8.5 19.2424 8.55268 19.1152 8.64645 19.0214C8.74021 18.9277 8.86739 18.875 9 18.875H12C12.1326 18.875 12.2598 18.9277 12.3536 19.0214C12.4473 19.1152 12.5 19.2424 12.5 19.375V20.375C12.5 20.5076 12.4473 20.6348 12.3536 20.7286C12.2598 20.8223 12.1326 20.875 12 20.875ZM23.5 19.375C23.5 19.2424 23.5527 19.1152 23.6464 19.0214C23.7402 18.9277 23.8674 18.875 24 18.875H27C27.1326 18.875 27.2598 18.9277 27.3536 19.0214C27.4473 19.1152 27.5 19.2424 27.5 19.375V20.375C27.5 20.5076 27.4473 20.6348 27.3536 20.7286C27.2598 20.8223 27.1326 20.875 27 20.875H24C23.8674 20.875 23.7402 20.8223 23.6464 20.7286C23.5527 20.6348 23.5 20.5076 23.5 20.375V19.375Z" fill="#008A63"/>
</svg>
