<svg width="15" height="14" viewBox="0 0 15 14" fill="none" xmlns="http://www.w3.org/2000/svg">
<path d="M11.2998 2.86078C11.2253 2.76199 11.1287 2.68181 11.0176 2.62658C10.9065 2.57135 10.784 2.5426 10.6598 2.5426H4.25961C4.13541 2.5426 4.01291 2.57135 3.90182 2.62658C3.79074 2.68181 3.69411 2.76199 3.61959 2.86078L1.83979 5.22116C1.73178 5.36444 1.67555 5.53977 1.6802 5.71877C1.68484 5.89777 1.7501 6.06998 1.8654 6.20753L6.84582 12.1999C6.92091 12.2891 7.01475 12.3608 7.12072 12.41C7.22669 12.4592 7.34222 12.4847 7.45918 12.4847C7.57613 12.4847 7.69166 12.4592 7.79763 12.41C7.9036 12.3608 7.99744 12.2891 8.07253 12.1999L13.053 6.20753C13.1683 6.06998 13.2335 5.89777 13.2382 5.71877C13.2428 5.53977 13.1866 5.36444 13.0786 5.22116L11.2998 2.86078Z" stroke="white" stroke-width="0.75" stroke-linecap="round" stroke-linejoin="round"/>
<path d="M3.89258 2.63123L7.45963 12.4858" stroke="white" stroke-width="0.75" stroke-linecap="round" stroke-linejoin="round"/>
<path d="M11.0065 2.51416L7.43994 12.3688" stroke="white" stroke-width="0.75" stroke-linecap="round" stroke-linejoin="round"/>
<path d="M1.67871 5.72437H13.238" stroke="white" stroke-width="0.75" stroke-linecap="round" stroke-linejoin="round"/>
<path d="M5.05957 5.72442L7.45965 2.5426L9.85972 5.72442" stroke="white" stroke-width="0.75" stroke-linecap="round" stroke-linejoin="round"/>
</svg>
