<svg width="16" height="16" viewBox="0 0 16 16" fill="none" xmlns="http://www.w3.org/2000/svg">
<path d="M15.6209 7.01601C13.8576 5.07601 10.9329 3.02534 7.99961 3.06667C5.06627 3.02467 2.14161 5.07667 0.378275 7.01601C0.136561 7.28625 0.00292969 7.6361 0.00292969 7.99867C0.00292969 8.36124 0.136561 8.7111 0.378275 8.98134C2.12094 10.9007 5.00427 12.9333 7.89227 12.9333H8.09761C10.9956 12.9333 13.8783 10.9007 15.6229 8.98067C15.8643 8.71029 15.9976 8.36042 15.9972 7.99796C15.9968 7.6355 15.8629 7.2859 15.6209 7.01601ZM4.93294 8.00001C4.93294 7.39348 5.1128 6.80057 5.44977 6.29626C5.78674 5.79195 6.26569 5.39889 6.82605 5.16678C7.38641 4.93467 8.00301 4.87394 8.59788 4.99227C9.19276 5.11059 9.73919 5.40267 10.1681 5.83155C10.5969 6.26043 10.889 6.80686 11.0073 7.40173C11.1257 7.99661 11.0649 8.61321 10.8328 9.17357C10.6007 9.73393 10.2077 10.2129 9.70336 10.5498C9.19905 10.8868 8.60614 11.0667 7.99961 11.0667C7.18628 11.0667 6.40626 10.7436 5.83115 10.1685C5.25604 9.59336 4.93294 8.81334 4.93294 8.00001Z" fill="#41536B"/>
<path d="M8.00033 9.33329C8.73671 9.33329 9.33366 8.73634 9.33366 7.99996C9.33366 7.26358 8.73671 6.66663 8.00033 6.66663C7.26395 6.66663 6.66699 7.26358 6.66699 7.99996C6.66699 8.73634 7.26395 9.33329 8.00033 9.33329Z" fill="#41536B"/>
</svg>
