<svg width="16" height="16" viewBox="0 0 16 16" fill="none" xmlns="http://www.w3.org/2000/svg">
<path d="M15.4127 13.3333L9.18134 1.43334C9.06841 1.21783 8.89866 1.03733 8.69049 0.911397C8.48231 0.785461 8.24364 0.718887 8.00034 0.718887C7.75704 0.718887 7.51837 0.785461 7.31019 0.911397C7.10202 1.03733 6.93227 1.21783 6.81934 1.43334L0.587339 13.3333C0.480887 13.5366 0.428675 13.7638 0.435755 13.9931C0.442834 14.2225 0.508964 14.4461 0.62775 14.6423C0.746536 14.8386 0.913959 15.0009 1.11383 15.1136C1.3137 15.2262 1.53925 15.2854 1.76867 15.2853H14.2313C14.4608 15.2854 14.6863 15.2262 14.8862 15.1136C15.0861 15.0009 15.2535 14.8386 15.3723 14.6423C15.491 14.4461 15.5572 14.2225 15.5643 13.9931C15.5713 13.7638 15.5191 13.5366 15.4127 13.3333ZM7.33334 5.61534C7.33334 5.43853 7.40358 5.26896 7.5286 5.14393C7.65363 5.01891 7.8232 4.94867 8.00001 4.94867C8.17682 4.94867 8.34639 5.01891 8.47141 5.14393C8.59644 5.26896 8.66667 5.43853 8.66667 5.61534V9.61534C8.66667 9.79215 8.59644 9.96172 8.47141 10.0867C8.34639 10.2118 8.17682 10.282 8.00001 10.282C7.8232 10.282 7.65363 10.2118 7.5286 10.0867C7.40358 9.96172 7.33334 9.79215 7.33334 9.61534V5.61534ZM8.03334 13.2887H8.01467C7.75177 13.2878 7.49937 13.1854 7.31026 13.0027C7.12115 12.8201 7.00998 12.5714 7.00001 12.3087C6.9952 12.178 7.01648 12.0477 7.06261 11.9254C7.10874 11.803 7.17879 11.6911 7.26866 11.5961C7.35853 11.5012 7.46643 11.4251 7.58605 11.3723C7.70567 11.3195 7.83461 11.2911 7.96534 11.2887H7.98401C8.24686 11.289 8.49941 11.391 8.68878 11.5732C8.87816 11.7555 8.98968 12.004 9.00001 12.2667C9.00518 12.3976 8.98412 12.5283 8.93806 12.651C8.89201 12.7737 8.82189 12.886 8.73183 12.9812C8.64177 13.0764 8.53358 13.1526 8.41363 13.2055C8.29368 13.2583 8.16438 13.2866 8.03334 13.2887Z" fill="currentColor"/>
</svg>
