<svg width="32" height="32" viewBox="0 0 32 32" fill="none" xmlns="http://www.w3.org/2000/svg">
<circle cx="16" cy="16" r="15.5" stroke="#3B70D4"/>
<path d="M12.1797 22H20.0078V20.3281H14.9062V20.1641L17.1641 17.9766C19.2188 16 19.8359 14.9844 19.8359 13.7031V13.6797C19.8359 11.7812 18.2578 10.4453 16.0625 10.4453C13.7109 10.4453 12.0703 11.9141 12.0703 14.0156L12.0781 14.0391L13.9531 14.0469L13.9609 14.0156C13.9609 12.8516 14.7656 12.0625 15.9609 12.0625C17.1328 12.0625 17.8438 12.8125 17.8438 13.8516V13.875C17.8438 14.7422 17.4141 15.3125 15.8828 16.8594L12.1797 20.6406V22Z" fill="#3B70D4"/>
</svg>
