<svg width="24" height="24" viewBox="0 0 24 24" fill="none" xmlns="http://www.w3.org/2000/svg">
    <path d="M4.03438 21.1827L21.0049 4.21218L19.7928 3L2.8222 19.9706L4.03438 21.1827Z" fill="#40526D"/>
    <path d="M12 4.67751C13.4613 4.67751 14.8603 4.94318 16.1518 5.42881L13.9906 7.58995C13.3806 7.32464 12.7074 7.17751 12 7.17751C9.24 7.17751 7 9.41751 7 12.1775C7 12.8849 7.14713 13.5581 7.41244 14.1682L4.55101 17.0296C2.98597 15.7549 1.75262 14.0873 1 12.1775C2.73 7.78751 7 4.67751 12 4.67751Z" fill="#40526D"/>
    <path d="M12 9.17751C12.1286 9.17751 12.2552 9.18555 12.3794 9.20115L9.02364 12.557C9.00804 12.4327 9 12.3061 9 12.1775C9 10.5175 10.34 9.17751 12 9.17751Z" fill="#40526D"/>
    <path d="M14.9246 11.5047L11.3272 15.1021C11.5434 15.1515 11.7686 15.1775 12 15.1775C13.66 15.1775 15 13.8375 15 12.1775C15 11.9461 14.974 11.7209 14.9246 11.5047Z" fill="#40526D"/>
    <path d="M12 17.1775C11.2004 17.1775 10.4445 16.9895 9.77399 16.6553L7.59977 18.8296C8.95952 19.3765 10.4444 19.6775 12 19.6775C17 19.6775 21.27 16.5675 23 12.1775C22.2169 10.1902 20.9132 8.46526 19.257 7.17234L16.4778 9.9515C16.812 10.622 17 11.3779 17 12.1775C17 14.9375 14.76 17.1775 12 17.1775Z" fill="#40526D"/>
</svg>
