<svg id="advanced-feature" width="18" height="20" viewBox="0 0 18 20" fill="none" xmlns="http://www.w3.org/2000/svg">
<path d="M0.542427 10.3093L0.542484 10.3093L0.542418 10.3169C0.524033 12.4231 1.44665 14.0643 2.97619 15.5217C4.46821 16.9434 6.5054 18.1593 8.75 19.4261C10.9946 18.1593 13.0318 16.9434 14.5238 15.5217C16.0533 14.0643 16.976 12.4231 16.9576 10.3169L16.9575 10.3169L16.9576 10.3093L16.9979 4.07878L8.75 0.543984L0.502138 4.07878L0.542427 10.3093Z" stroke="#6F73D2"/>
<path d="M14.3172 5.86396L14.4698 5.92936L14.4687 6.09537L14.4422 10.1951C14.4549 11.7087 13.7798 12.8739 12.7467 13.8583C11.7214 14.8352 10.327 15.6498 8.87256 16.4679L8.75 16.5368L8.62744 16.4679C7.17303 15.6498 5.77862 14.8352 4.75334 13.8583C3.7202 12.8739 3.04515 11.7087 3.05777 10.1951L3.03125 6.09537L3.03018 5.92936L3.18277 5.86396L8.65152 3.52021L8.75 3.47801L8.84848 3.52021L14.3172 5.86396Z" fill="#6F73D2" stroke="#6F73D2" stroke-width="0.5"/>
<path d="M5.52927 10.3675C6.12245 10.3675 6.60173 9.88305 6.60173 9.28744C6.60173 8.69182 6.12245 8.20739 5.52927 8.20739C4.93609 8.20739 4.45681 8.69182 4.45681 9.28744C4.45681 9.88305 4.93609 10.3675 5.52927 10.3675Z" fill="white" stroke="#6F73D2" stroke-width="0.23531"/>
<path d="M8.73264 10.3675C9.32582 10.3675 9.8051 9.88305 9.8051 9.28744C9.8051 8.69182 9.32582 8.20739 8.73264 8.20739C8.13946 8.20739 7.66018 8.69182 7.66018 9.28744C7.66018 9.88305 8.13946 10.3675 8.73264 10.3675Z" fill="white" stroke="#6F73D2" stroke-width="0.23531"/>
<path d="M11.9316 10.3675C12.5248 10.3675 13.0041 9.88305 13.0041 9.28744C13.0041 8.69182 12.5248 8.20739 11.9316 8.20739C11.3384 8.20739 10.8592 8.69182 10.8592 9.28744C10.8592 9.88305 11.3384 10.3675 11.9316 10.3675Z" fill="white" stroke="#6F73D2" stroke-width="0.23531"/>
</svg>