<svg width="28" height="28" viewBox="0 0 28 28" fill="none" xmlns="http://www.w3.org/2000/svg">
<path d="M14 10.3333C15.1966 10.3333 16.1666 9.36328 16.1666 8.16667C16.1666 6.97005 15.1966 6 14 6C12.8034 6 11.8333 6.97005 11.8333 8.16667C11.8333 9.36328 12.8034 10.3333 14 10.3333Z" fill="#40526D"/>
<path d="M14 16.1667C15.1966 16.1667 16.1666 15.1966 16.1666 14C16.1666 12.8034 15.1966 11.8333 14 11.8333C12.8034 11.8333 11.8333 12.8034 11.8333 14C11.8333 15.1966 12.8034 16.1667 14 16.1667Z" fill="#40526D"/>
<path d="M14 22C15.1966 22 16.1666 21.03 16.1666 19.8333C16.1666 18.6367 15.1966 17.6667 14 17.6667C12.8034 17.6667 11.8333 18.6367 11.8333 19.8333C11.8333 21.03 12.8034 22 14 22Z" fill="#40526D"/>
</svg>
