<svg width="16" height="16" viewBox="0 0 16 16" fill="none" xmlns="http://www.w3.org/2000/svg">
<g clip-path="url(#clip0_577_18099)">
<path d="M0 8C0 8.26522 0.105357 8.51957 0.292893 8.70711C0.48043 8.89464 0.734784 9 1 9H6.83333C6.87754 9 6.91993 9.01756 6.95118 9.04882C6.98244 9.08007 7 9.12246 7 9.16667V15C7 15.2652 7.10536 15.5196 7.29289 15.7071C7.48043 15.8946 7.73478 16 8 16C8.26522 16 8.51957 15.8946 8.70711 15.7071C8.89464 15.5196 9 15.2652 9 15V9.16667C9 9.12246 9.01756 9.08007 9.04882 9.04882C9.08007 9.01756 9.12246 9 9.16667 9H15C15.2652 9 15.5196 8.89464 15.7071 8.70711C15.8946 8.51957 16 8.26522 16 8C16 7.73478 15.8946 7.48043 15.7071 7.29289C15.5196 7.10536 15.2652 7 15 7H9.16667C9.12246 7 9.08007 6.98244 9.04882 6.95118C9.01756 6.91993 9 6.87754 9 6.83333V1C9 0.734784 8.89464 0.48043 8.70711 0.292893C8.51957 0.105357 8.26522 0 8 0C7.73478 0 7.48043 0.105357 7.29289 0.292893C7.10536 0.48043 7 0.734784 7 1V6.83333C7 6.87754 6.98244 6.91993 6.95118 6.95118C6.91993 6.98244 6.87754 7 6.83333 7H1C0.734784 7 0.48043 7.10536 0.292893 7.29289C0.105357 7.48043 0 7.73478 0 8Z" fill="#40526D"/>
</g>
<defs>
<clipPath id="clip0_577_18099">
<rect width="16" height="16" fill="white"/>
</clipPath>
</defs>
</svg>
