<svg width="36" height="36" viewBox="0 0 36 36" fill="none" xmlns="http://www.w3.org/2000/svg">
<rect width="36" height="36" rx="3" fill="#EBEEEF"/>
<g clip-path="url(#clip0)">
<rect width="24" height="24" transform="translate(6 6)" fill="#EBEEEF"/>
<path d="M28.5 10.5H7.5C7.10218 10.5 6.72064 10.658 6.43934 10.9393C6.15804 11.2206 6 11.6022 6 12V14.5C6 14.8978 6.15804 15.2794 6.43934 15.5607C6.72064 15.842 7.10218 16 7.5 16H28.5C28.8978 16 29.2794 15.842 29.5607 15.5607C29.842 15.2794 30 14.8978 30 14.5V12C30 11.6022 29.842 11.2206 29.5607 10.9393C29.2794 10.658 28.8978 10.5 28.5 10.5ZM9.25 13.25C9.25 13.0028 9.32331 12.7611 9.46066 12.5555C9.59801 12.35 9.79324 12.1898 10.0216 12.0952C10.2501 12.0005 10.5014 11.9758 10.7439 12.024C10.9863 12.0722 11.2091 12.1913 11.3839 12.3661C11.5587 12.5409 11.6778 12.7637 11.726 13.0061C11.7742 13.2486 11.7495 13.4999 11.6548 13.7284C11.5602 13.9568 11.4 14.152 11.1945 14.2893C10.9889 14.4267 10.7472 14.5 10.5 14.5C10.1686 14.4997 9.85077 14.368 9.61641 14.1336C9.38205 13.8992 9.25026 13.5814 9.25 13.25ZM14.5 14.5C14.2528 14.5 14.0111 14.4267 13.8055 14.2893C13.6 14.152 13.4398 13.9568 13.3452 13.7284C13.2505 13.4999 13.2258 13.2486 13.274 13.0061C13.3222 12.7637 13.4413 12.5409 13.6161 12.3661C13.7909 12.1913 14.0137 12.0722 14.2561 12.024C14.4986 11.9758 14.7499 12.0005 14.9784 12.0952C15.2068 12.1898 15.402 12.35 15.5393 12.5555C15.6767 12.7611 15.75 13.0028 15.75 13.25C15.7495 13.5814 15.6176 13.899 15.3833 14.1333C15.149 14.3676 14.8314 14.4995 14.5 14.5Z" fill="#40526D"/>
<path d="M28.724 8.052L24.829 6.105C24.6898 6.03754 24.5367 6.0033 24.382 6.005H11.618C11.4629 6.00486 11.3098 6.04081 11.171 6.11L7.27101 8.057C7.17213 8.10875 7.0934 8.19209 7.04737 8.29375C7.00133 8.39541 6.99062 8.50955 7.01696 8.618C7.0433 8.72645 7.10516 8.82297 7.19269 8.8922C7.28023 8.96142 7.38841 8.99937 7.50001 9H28.5C28.613 9.00045 28.7227 8.96264 28.8115 8.89272C28.9002 8.82281 28.9626 8.72492 28.9886 8.61499C29.0146 8.50506 29.0026 8.38957 28.9545 8.28734C28.9065 8.18511 28.8252 8.10216 28.724 8.052Z" fill="#40526D"/>
<path d="M28.5 17.5H7.5C7.10218 17.5 6.72064 17.658 6.43934 17.9393C6.15804 18.2206 6 18.6022 6 19V21.5C6 21.8978 6.15804 22.2794 6.43934 22.5607C6.72064 22.842 7.10218 23 7.5 23H28.5C28.8978 23 29.2794 22.842 29.5607 22.5607C29.842 22.2794 30 21.8978 30 21.5V19C30 18.6022 29.842 18.2206 29.5607 17.9393C29.2794 17.658 28.8978 17.5 28.5 17.5ZM9.25 20.25C9.25 20.0028 9.32331 19.7611 9.46066 19.5555C9.59801 19.35 9.79324 19.1898 10.0216 19.0952C10.2501 19.0005 10.5014 18.9758 10.7439 19.024C10.9863 19.0722 11.2091 19.1913 11.3839 19.3661C11.5587 19.5409 11.6778 19.7637 11.726 20.0061C11.7742 20.2486 11.7495 20.4999 11.6548 20.7284C11.5602 20.9568 11.4 21.152 11.1945 21.2893C10.9889 21.4267 10.7472 21.5 10.5 21.5C10.1686 21.4997 9.85077 21.368 9.61641 21.1336C9.38205 20.8992 9.25026 20.5814 9.25 20.25ZM14.5 21.5C14.2528 21.5 14.0111 21.4267 13.8055 21.2893C13.6 21.152 13.4398 20.9568 13.3452 20.7284C13.2505 20.4999 13.2258 20.2486 13.274 20.0061C13.3222 19.7637 13.4413 19.5409 13.6161 19.3661C13.7909 19.1913 14.0137 19.0722 14.2561 19.024C14.4986 18.9758 14.7499 19.0005 14.9784 19.0952C15.2068 19.1898 15.402 19.35 15.5393 19.5555C15.6767 19.7611 15.75 20.0028 15.75 20.25C15.7495 20.5814 15.6176 20.899 15.3833 21.1333C15.149 21.3676 14.8314 21.4995 14.5 21.5Z" fill="#40526D"/>
<path d="M28.5 24.5H7.5C7.10218 24.5 6.72064 24.658 6.43934 24.9393C6.15804 25.2206 6 25.6022 6 26V28.5C6 28.8978 6.15804 29.2794 6.43934 29.5607C6.72064 29.842 7.10218 30 7.5 30H28.5C28.8978 30 29.2794 29.842 29.5607 29.5607C29.842 29.2794 30 28.8978 30 28.5V26C30 25.6022 29.842 25.2206 29.5607 24.9393C29.2794 24.658 28.8978 24.5 28.5 24.5ZM9.25 27.25C9.25 27.0028 9.32331 26.7611 9.46066 26.5555C9.59801 26.35 9.79324 26.1898 10.0216 26.0951C10.2501 26.0005 10.5014 25.9758 10.7439 26.024C10.9863 26.0723 11.2091 26.1913 11.3839 26.3661C11.5587 26.5409 11.6778 26.7637 11.726 27.0061C11.7742 27.2486 11.7495 27.4999 11.6548 27.7284C11.5602 27.9568 11.4 28.152 11.1945 28.2893C10.9889 28.4267 10.7472 28.5 10.5 28.5C10.1686 28.4997 9.85077 28.368 9.61641 28.1336C9.38205 27.8992 9.25026 27.5814 9.25 27.25ZM14.5 28.5C14.2528 28.5 14.0111 28.4267 13.8055 28.2893C13.6 28.152 13.4398 27.9568 13.3452 27.7284C13.2505 27.4999 13.2258 27.2486 13.274 27.0061C13.3222 26.7637 13.4413 26.5409 13.6161 26.3661C13.7909 26.1913 14.0137 26.0723 14.2561 26.024C14.4986 25.9758 14.7499 26.0005 14.9784 26.0951C15.2068 26.1898 15.402 26.35 15.5393 26.5555C15.6767 26.7611 15.75 27.0028 15.75 27.25C15.7495 27.5814 15.6176 27.899 15.3833 28.1333C15.149 28.3676 14.8314 28.4995 14.5 28.5Z" fill="#40526D"/>
</g>
<defs>
<clipPath id="clip0">
<rect width="24" height="24" fill="white" transform="translate(6 6)"/>
</clipPath>
</defs>
</svg>
