<svg width="36" height="36" viewBox="0 0 36 36" fill="none" xmlns="http://www.w3.org/2000/svg">
<rect width="36" height="36" rx="3" fill="#EBEEEF"/>
<rect width="24" height="24" transform="translate(6 6)" fill="#EBEEEF"/>
<g clip-path="url(#clip0)">
<path d="M13.375 29.375C13.375 29.3087 13.3487 29.2451 13.3018 29.1982C13.2549 29.1513 13.1913 29.125 13.125 29.125H11.5C11.3718 29.1252 11.2466 29.0859 11.1415 29.0123C11.0364 28.9388 10.9566 28.8346 10.913 28.714L9.1 23.722C9.08765 23.6879 9.06804 23.657 9.04253 23.6312C9.01701 23.6055 8.98621 23.5856 8.95226 23.5729C8.9183 23.5603 8.882 23.5552 8.84586 23.558C8.80973 23.5607 8.77464 23.5713 8.743 23.589C8.29967 23.8355 7.87398 24.1125 7.469 24.418C7.16457 24.6503 6.91849 24.9504 6.75028 25.2945C6.58208 25.6385 6.49639 26.017 6.5 26.4V29.5C6.5 29.6326 6.55268 29.7598 6.64645 29.8535C6.74022 29.9473 6.86739 30 7 30H13.125C13.1579 30.0001 13.1904 29.9938 13.2208 29.9812C13.2512 29.9687 13.2788 29.9503 13.3021 29.9271C13.3253 29.9038 13.3437 29.8762 13.3562 29.8458C13.3688 29.8154 13.3751 29.7829 13.375 29.75V29.375Z" fill="#40526D"/>
<path d="M11.878 27.711C11.8955 27.7592 11.9275 27.8008 11.9695 27.8302C12.0116 27.8596 12.0617 27.8752 12.113 27.875H14C14.1658 27.875 14.3247 27.9409 14.4419 28.0581C14.5592 28.1753 14.625 28.3342 14.625 28.5V29.358C14.6249 29.4082 14.6399 29.4573 14.6681 29.4989C14.6963 29.5404 14.7363 29.5725 14.783 29.591C14.8296 29.609 14.8805 29.6128 14.9292 29.602C14.978 29.5911 15.0225 29.5661 15.057 29.53L17.064 27.4C17.1077 27.3536 17.1321 27.2923 17.1321 27.2285C17.1321 27.1647 17.1077 27.1034 17.064 27.057L12.528 22.257C12.4969 22.2245 12.4577 22.2009 12.4145 22.1886C12.3713 22.1763 12.3255 22.1758 12.282 22.187C11.6279 22.3586 10.985 22.5704 10.357 22.821C10.2969 22.8451 10.2484 22.8917 10.222 22.9508C10.1955 23.01 10.193 23.0771 10.215 23.138L11.878 27.711Z" fill="#40526D"/>
<path d="M25.087 28.714C25.0434 28.8346 24.9636 28.9388 24.8585 29.0123C24.7534 29.0859 24.6283 29.1252 24.5 29.125H22.875C22.8087 29.125 22.7451 29.1513 22.6982 29.1982C22.6513 29.2451 22.625 29.3087 22.625 29.375V29.75C22.6249 29.7829 22.6312 29.8154 22.6438 29.8458C22.6563 29.8762 22.6747 29.9038 22.6979 29.9271C22.7212 29.9503 22.7488 29.9687 22.7792 29.9812C22.8096 29.9938 22.8421 30.0001 22.875 30H29C29.1326 30 29.2598 29.9473 29.3536 29.8536C29.4473 29.7598 29.5 29.6326 29.5 29.5V26.4C29.5032 26.018 29.4175 25.6406 29.2497 25.2974C29.0819 24.9543 28.8365 24.6549 28.533 24.423C28.1284 24.1175 27.703 23.8405 27.26 23.594C27.2284 23.5763 27.1933 23.5657 27.1571 23.563C27.121 23.5602 27.0847 23.5653 27.0507 23.578C27.0168 23.5906 26.986 23.6105 26.9605 23.6362C26.935 23.662 26.9154 23.6929 26.903 23.727L25.087 28.714Z" fill="#40526D"/>
<path d="M16.848 29.454C16.8147 29.4895 16.7925 29.5341 16.7841 29.5821C16.7757 29.6301 16.7816 29.6795 16.8009 29.7242C16.8202 29.7689 16.8522 29.807 16.8929 29.8338C16.9336 29.8606 16.9813 29.8749 17.03 29.875H21.13C21.1629 29.8751 21.1954 29.8688 21.2258 29.8562C21.2562 29.8437 21.2838 29.8253 21.3071 29.8021C21.3303 29.7788 21.3487 29.7512 21.3612 29.7208C21.3738 29.6904 21.3801 29.6579 21.38 29.625V28.5C21.38 28.3351 21.4452 28.1769 21.5613 28.0598C21.6774 27.9428 21.8351 27.8763 22 27.875H23.887C23.9383 27.8752 23.9884 27.8596 24.0305 27.8302C24.0725 27.8008 24.1045 27.7592 24.122 27.711L25.785 23.139C25.807 23.0781 25.8045 23.0109 25.778 22.9518C25.7516 22.8927 25.7031 22.8461 25.643 22.822C25.0591 22.5899 24.4625 22.3912 23.856 22.227C23.8122 22.2153 23.766 22.2156 23.7224 22.2279C23.6787 22.2402 23.6392 22.2641 23.608 22.297L16.848 29.454Z" fill="#40526D"/>
<path d="M16.76 25.059C16.7399 25.104 16.7336 25.1539 16.7418 25.2025C16.7499 25.251 16.7723 25.2961 16.806 25.332L17.732 26.312C17.7553 26.337 17.7835 26.3569 17.8148 26.3705C17.8461 26.3841 17.8799 26.3911 17.914 26.3911C17.9481 26.3911 17.9819 26.3841 18.0132 26.3705C18.0445 26.3569 18.0727 26.337 18.096 26.312L19.138 25.212C19.1719 25.1762 19.1944 25.1312 19.2028 25.0826C19.2111 25.034 19.205 24.9841 19.185 24.939L18.457 23.3C18.412 23.2181 18.3458 23.1497 18.2653 23.1021C18.1848 23.0545 18.093 23.0294 17.9995 23.0294C17.906 23.0294 17.8142 23.0545 17.7337 23.1021C17.6532 23.1497 17.587 23.2181 17.542 23.3L16.76 25.059Z" fill="#40526D"/>
<path d="M10.814 15.707C10.7785 15.7018 10.7424 15.7042 10.7079 15.714C10.6734 15.7238 10.6414 15.7409 10.614 15.764C10.5865 15.7874 10.5643 15.8165 10.5492 15.8493C10.534 15.8821 10.5261 15.9179 10.526 15.954V17.039C10.5269 17.4384 10.6398 17.8295 10.852 18.1678C11.0641 18.5062 11.3669 18.7782 11.726 18.953C11.7641 18.972 11.7969 19.0002 11.8212 19.0352C11.8454 19.0701 11.8605 19.1107 11.865 19.153C11.8754 19.2838 11.9143 19.4108 11.979 19.525C12.4923 20.4104 13.1943 21.1719 14.0351 21.7554C14.8759 22.3389 15.8349 22.7301 16.8439 22.9012C17.8529 23.0724 18.8872 23.0193 19.8734 22.7456C20.8596 22.472 21.7734 21.9846 22.55 21.318C23.1515 20.8155 23.6634 20.2147 24.064 19.541C24.1291 19.428 24.1684 19.302 24.179 19.172C24.1834 19.1295 24.1985 19.0888 24.223 19.0538C24.2475 19.0188 24.2806 18.9907 24.319 18.972C24.68 18.7972 24.9845 18.5243 25.1977 18.1846C25.411 17.8449 25.5244 17.4521 25.525 17.051V15.963C25.525 15.9269 25.5172 15.8913 25.5022 15.8585C25.4872 15.8257 25.4653 15.7966 25.438 15.773C25.4108 15.7496 25.3788 15.7324 25.3443 15.7225C25.3097 15.7127 25.2735 15.7105 25.238 15.716C22.8524 16.0891 20.4416 16.277 18.027 16.278C15.6115 16.2754 13.1998 16.0845 10.814 15.707ZM21.565 19C21.6059 19.0121 21.643 19.0345 21.6729 19.0651C21.7027 19.0956 21.7242 19.1333 21.7353 19.1745C21.7464 19.2157 21.7468 19.2591 21.7364 19.3005C21.726 19.3419 21.7052 19.3799 21.676 19.411C21.3781 19.7226 21.0421 19.9954 20.676 20.223C19.873 20.7378 18.9377 21.0081 17.9839 21.0008C17.0301 20.9935 16.099 20.709 15.304 20.182C14.9623 19.9613 14.6479 19.7012 14.367 19.407C14.3376 19.3757 14.3168 19.3374 14.3065 19.2957C14.2961 19.254 14.2967 19.2104 14.308 19.169C14.32 19.1281 14.3425 19.091 14.3731 19.0614C14.4038 19.0317 14.4417 19.0106 14.483 19C15.7013 18.5345 16.8463 17.8963 17.883 17.105C17.924 17.0776 17.9722 17.0629 18.0215 17.0629C18.0708 17.0629 18.119 17.0776 18.16 17.105C19.1997 17.8945 20.3461 18.5326 21.565 19Z" fill="#40526D"/>
<path d="M18.025 10.751C19.8702 10.7464 21.7111 10.5737 23.525 10.235C23.5597 10.2287 23.5926 10.2151 23.6216 10.195C23.6506 10.175 23.6751 10.1491 23.6933 10.1189C23.7116 10.0888 23.7232 10.0551 23.7274 10.0201C23.7317 9.98514 23.7285 9.94965 23.718 9.916L22.829 7.029V7.023C22.7663 6.83625 22.6673 6.66368 22.5379 6.51517C22.4084 6.36665 22.251 6.24509 22.0745 6.15743C21.8981 6.06977 21.7061 6.01772 21.5096 6.00426C21.313 5.99081 21.1157 6.0162 20.929 6.079C19.9978 6.42845 19.0211 6.64165 18.029 6.712C17.0369 6.64146 16.0602 6.42827 15.129 6.079C14.9421 6.01548 14.7444 5.98984 14.5475 6.00357C14.3505 6.01731 14.1583 6.07015 13.982 6.159C13.6248 6.33971 13.3535 6.65419 13.227 7.034V7.04L12.336 9.916C12.3255 9.94965 12.3223 9.98514 12.3266 10.0201C12.3308 10.0551 12.3425 10.0888 12.3607 10.1189C12.3789 10.1491 12.4034 10.175 12.4324 10.195C12.4614 10.2151 12.4943 10.2287 12.529 10.235C14.3416 10.573 16.1812 10.7457 18.025 10.751Z" fill="#40526D"/>
<path d="M8.808 14.048C8.85149 14.1578 8.92274 14.2544 9.01477 14.3283C9.10679 14.4023 9.21645 14.4511 9.333 14.47C12.197 15.0238 15.108 15.2984 18.025 15.29C20.942 15.2984 23.853 15.0238 26.717 14.47C26.8279 14.453 26.9327 14.4083 27.0218 14.3402C27.111 14.272 27.1815 14.1826 27.227 14.08C27.2713 13.9548 27.2857 13.821 27.2692 13.6893C27.2527 13.5575 27.2058 13.4314 27.132 13.321L27.1 13.272C27.086 13.2486 27.0762 13.2228 27.071 13.196C26.989 12.796 25.537 11.796 25.092 11.496C25.0591 11.4736 25.0213 11.4595 24.9818 11.4548C24.9423 11.4501 24.9022 11.455 24.865 11.469C22.6227 12.0001 20.3253 12.2632 18.021 12.253C15.6717 12.245 13.3302 11.9835 11.037 11.473C11.0051 11.4656 10.9719 11.4648 10.9397 11.4704C10.9074 11.4761 10.8765 11.4882 10.849 11.506C10.0813 11.9617 9.42282 12.5803 8.92 13.318C8.84632 13.4228 8.79788 13.5432 8.77845 13.6699C8.75902 13.7965 8.76913 13.9259 8.808 14.048Z" fill="#40526D"/>
</g>
<defs>
<clipPath id="clip0">
<rect width="24" height="24" fill="white" transform="translate(6 6)"/>
</clipPath>
</defs>
</svg>
