<svg width="16" height="16" viewBox="0 0 16 16" fill="none" xmlns="http://www.w3.org/2000/svg">
<g clip-path="url(#clip0)">
<path d="M8 0C6.41775 0 4.87104 0.469192 3.55544 1.34824C2.23985 2.22729 1.21447 3.47672 0.608967 4.93853C0.00346629 6.40034 -0.15496 8.00887 0.153721 9.56072C0.462403 11.1126 1.22433 12.538 2.34315 13.6569C3.46197 14.7757 4.88743 15.5376 6.43928 15.8463C7.99113 16.155 9.59966 15.9965 11.0615 15.391C12.5233 14.7855 13.7727 13.7602 14.6518 12.4446C15.5308 11.129 16 9.58225 16 8C15.9977 5.87897 15.1541 3.84547 13.6543 2.34568C12.1545 0.845885 10.121 0.00229405 8 0ZM8 12.6667C7.80222 12.6667 7.60888 12.608 7.44443 12.4981C7.27998 12.3883 7.15181 12.2321 7.07612 12.0493C7.00044 11.8666 6.98063 11.6656 7.01922 11.4716C7.0578 11.2776 7.15304 11.0994 7.2929 10.9596C7.43275 10.8197 7.61093 10.7245 7.80491 10.6859C7.99889 10.6473 8.19996 10.6671 8.38269 10.7428C8.56541 10.8185 8.72159 10.9466 8.83147 11.1111C8.94136 11.2755 9 11.4689 9 11.6667C9 11.9319 8.89465 12.1862 8.70711 12.3738C8.51957 12.5613 8.26522 12.6667 8 12.6667ZM9.06667 8.61333C8.94773 8.66524 8.84653 8.75074 8.77548 8.85933C8.70442 8.96792 8.66661 9.09489 8.66667 9.22467C8.66667 9.40148 8.59643 9.57105 8.47141 9.69607C8.34638 9.82109 8.17682 9.89133 8 9.89133C7.82319 9.89133 7.65362 9.82109 7.5286 9.69607C7.40358 9.57105 7.33334 9.40148 7.33334 9.22467C7.33328 8.83546 7.44678 8.45469 7.65993 8.12904C7.87309 7.8034 8.17662 7.54702 8.53334 7.39133C8.75368 7.29517 8.94392 7.14121 9.08393 6.94577C9.22393 6.75032 9.30849 6.52066 9.32864 6.28109C9.3488 6.04152 9.3038 5.80096 9.19842 5.58487C9.09304 5.36878 8.93119 5.18521 8.73001 5.05358C8.52883 4.92195 8.29581 4.84716 8.0556 4.83714C7.81539 4.82711 7.57694 4.88222 7.3655 4.99663C7.15405 5.11104 6.97747 5.28049 6.85445 5.48705C6.73143 5.69361 6.66655 5.92958 6.66667 6.17C6.66667 6.34681 6.59643 6.51638 6.47141 6.6414C6.34638 6.76643 6.17682 6.83667 6 6.83667C5.82319 6.83667 5.65362 6.76643 5.5286 6.6414C5.40358 6.51638 5.33334 6.34681 5.33334 6.17C5.33333 5.68923 5.4633 5.21739 5.70949 4.80443C5.95568 4.39148 6.30894 4.05276 6.73187 3.82412C7.1548 3.59549 7.63168 3.48545 8.11203 3.50565C8.59238 3.52584 9.05833 3.67553 9.46058 3.93885C9.86283 4.20218 10.1864 4.56936 10.3971 5.00153C10.6077 5.43369 10.6976 5.91477 10.6573 6.39385C10.6169 6.87293 10.4478 7.33218 10.1678 7.72301C9.88776 8.11383 9.50731 8.42102 9.06667 8.61333Z" fill="#3B70D4"/>
</g>
<defs>
<clipPath id="clip0">
<rect width="16" height="16" fill="white"/>
</clipPath>
</defs>
</svg>
