<svg width="12" height="13" viewBox="0 0 12 13" fill="none" xmlns="http://www.w3.org/2000/svg">
    <g clip-path="url(#clip0_1768_157117)">
        <g clip-path="url(#clip1_1768_157117)">
            <path d="M9.74976 6.50002C9.74996 6.66357 9.71528 6.82527 9.64803 6.97435C9.58077 7.12342 9.4825 7.25644 9.35976 7.36452L3.78376 12.27C3.59898 12.4251 3.36088 12.5017 3.12036 12.4834C2.87985 12.4652 2.65601 12.3536 2.4967 12.1725C2.3374 11.9914 2.25528 11.7551 2.26791 11.5142C2.28053 11.2734 2.3869 11.047 2.56426 10.8835L7.44026 6.59402C7.45364 6.58229 7.46437 6.56784 7.47171 6.55162C7.47906 6.53541 7.48286 6.51782 7.48286 6.50002C7.48286 6.48222 7.47906 6.46463 7.47171 6.44842C7.46437 6.43221 7.45364 6.41775 7.44026 6.40602L2.56426 2.11652C2.46997 2.03741 2.39245 1.94024 2.33625 1.83073C2.28006 1.72123 2.24631 1.60159 2.23701 1.47886C2.22772 1.35613 2.24304 1.23277 2.2821 1.11605C2.32115 0.999328 2.38315 0.891588 2.46444 0.799167C2.54573 0.706745 2.64467 0.631507 2.75545 0.577872C2.86624 0.524238 2.98663 0.49329 3.10954 0.486848C3.23246 0.480406 3.35542 0.4986 3.4712 0.54036C3.58699 0.582121 3.69325 0.646604 3.78376 0.730021L9.35776 5.63402C9.4808 5.74229 9.57939 5.87551 9.64698 6.02482C9.71457 6.17414 9.7496 6.33612 9.74976 6.50002Z" fill="#40526D"/>
        </g>
    </g>
    <defs>
        <clipPath id="clip0_1768_157117">
            <rect width="12" height="12" fill="white" transform="translate(0 0.5)"/>
        </clipPath>
        <clipPath id="clip1_1768_157117">
            <rect width="12" height="12" fill="white" transform="translate(0 12.5) rotate(-90)"/>
        </clipPath>
    </defs>
</svg>
