<svg width="40" height="38" viewBox="0 0 40 38" fill="none" xmlns="http://www.w3.org/2000/svg">
<g clip-path="url(#clip0)">
<mask id="path-1-inside-1" fill="white">
<path fill-rule="evenodd" clip-rule="evenodd" d="M39.5976 32.9077L23.1232 1.86381C22.8246 1.30161 22.3759 0.830741 21.8255 0.502207C21.2751 0.173673 20.6441 0 20.0009 0C19.3576 0 18.7267 0.173673 18.1763 0.502207C17.6259 0.830741 17.1771 1.30161 16.8786 1.86381L0.402438 32.9077C0.120999 33.4379 -0.0170371 34.0308 0.00167884 34.629C0.0203947 35.2272 0.195229 35.8106 0.509275 36.3226C0.823321 36.8347 1.26595 37.2581 1.79436 37.5519C2.32278 37.8458 2.91909 38.0001 3.52564 38H36.4744C37.0809 38.0001 37.6772 37.8458 38.2056 37.5519C38.7341 37.2581 39.1767 36.8347 39.4907 36.3226C39.8048 35.8106 39.9796 35.2272 39.9983 34.629C40.017 34.0308 39.879 33.4379 39.5976 32.9077Z"/>
</mask>
<g filter="url(#filter0_i)">
<path fill-rule="evenodd" clip-rule="evenodd" d="M39.5976 32.9077L23.1232 1.86381C22.8246 1.30161 22.3759 0.830741 21.8255 0.502207C21.2751 0.173673 20.6441 0 20.0009 0C19.3576 0 18.7267 0.173673 18.1763 0.502207C17.6259 0.830741 17.1771 1.30161 16.8786 1.86381L0.402438 32.9077C0.120999 33.4379 -0.0170371 34.0308 0.00167884 34.629C0.0203947 35.2272 0.195229 35.8106 0.509275 36.3226C0.823321 36.8347 1.26595 37.2581 1.79436 37.5519C2.32278 37.8458 2.91909 38.0001 3.52564 38H36.4744C37.0809 38.0001 37.6772 37.8458 38.2056 37.5519C38.7341 37.2581 39.1767 36.8347 39.4907 36.3226C39.8048 35.8106 39.9796 35.2272 39.9983 34.629C40.017 34.0308 39.879 33.4379 39.5976 32.9077Z" fill="white"/>
</g>
<path d="M23.1232 1.86381L24.8899 0.926287L24.8896 0.925739L23.1232 1.86381ZM39.5976 32.9077L37.8309 33.8453L37.831 33.8455L39.5976 32.9077ZM21.8255 0.502207L22.8506 -1.2151L22.8506 -1.2151L21.8255 0.502207ZM18.1763 0.502207L19.2014 2.21952L19.2014 2.21951L18.1763 0.502207ZM16.8786 1.86381L15.1122 0.925739L15.112 0.926208L16.8786 1.86381ZM0.402438 32.9077L2.16897 33.8455L2.16905 33.8454L0.402438 32.9077ZM0.00167884 34.629L-1.99734 34.6916L0.00167884 34.629ZM0.509275 36.3226L2.21416 35.277H2.21416L0.509275 36.3226ZM1.79436 37.5519L2.76638 35.804L2.76637 35.804L1.79436 37.5519ZM3.52564 38V36H3.52531L3.52564 38ZM36.4744 38L36.4747 36H36.4744V38ZM38.2056 37.5519L37.2336 35.804L37.2336 35.804L38.2056 37.5519ZM39.4907 36.3226L37.7858 35.277L37.7858 35.277L39.4907 36.3226ZM39.9983 34.629L37.9993 34.5665V34.5665L39.9983 34.629ZM21.3566 2.80133L37.8309 33.8453L41.3642 31.9702L24.8899 0.926287L21.3566 2.80133ZM20.8004 2.21951C21.0394 2.36222 21.2308 2.56459 21.3568 2.80188L24.8896 0.925739C24.4184 0.0386367 23.7123 -0.70074 22.8506 -1.2151L20.8004 2.21951ZM20.0009 2C20.2845 2 20.5611 2.07668 20.8004 2.21952L22.8506 -1.2151C21.9891 -1.72933 21.0037 -2 20.0009 -2V2ZM19.2014 2.21951C19.4407 2.07668 19.7172 2 20.0009 2V-2C18.998 -2 18.0126 -1.72933 17.1512 -1.2151L19.2014 2.21951ZM18.6449 2.80188C18.7709 2.56458 18.9623 2.36222 19.2014 2.21952L17.1512 -1.2151C16.2895 -0.700738 15.5833 0.0386417 15.1122 0.925739L18.6449 2.80188ZM2.16905 33.8454L18.6452 2.80141L15.112 0.926208L-1.36417 31.9701L2.16905 33.8454ZM2.0007 34.5665C1.9929 34.3173 2.05027 34.0691 2.16897 33.8455L-1.36409 31.97C-1.80827 32.8068 -2.02698 33.7443 -1.99734 34.6916L2.0007 34.5665ZM2.21416 35.277C2.0813 35.0603 2.0085 34.8157 2.0007 34.5665L-1.99734 34.6916C-1.96771 35.6388 -1.69084 36.5608 -1.19561 37.3683L2.21416 35.277ZM2.76637 35.804C2.5365 35.6762 2.34713 35.4938 2.21416 35.277L-1.19561 37.3683C-0.700489 38.1755 -0.00459874 38.84 0.822361 39.2998L2.76637 35.804ZM3.52531 36C3.2579 36 2.9964 35.9319 2.76638 35.804L0.822351 39.2998C1.64915 39.7596 2.58028 40.0002 3.52597 40L3.52531 36ZM36.4744 36H3.52564V40H36.4744V36ZM37.2336 35.804C37.0036 35.9319 36.7421 36 36.4747 36L36.474 40C37.4197 40.0002 38.3508 39.7596 39.1777 39.2998L37.2336 35.804ZM37.7858 35.277C37.6529 35.4938 37.4635 35.6762 37.2336 35.804L39.1776 39.2998C40.0046 38.84 40.7005 38.1755 41.1956 37.3683L37.7858 35.277ZM37.9993 34.5665C37.9915 34.8157 37.9187 35.0604 37.7858 35.277L41.1956 37.3683C41.6908 36.5608 41.9677 35.6388 41.9973 34.6916L37.9993 34.5665ZM37.831 33.8455C37.9497 34.0691 38.0071 34.3173 37.9993 34.5665L41.9973 34.6916C42.027 33.7443 41.8083 32.8068 41.3641 31.97L37.831 33.8455Z" fill="#264887" mask="url(#path-1-inside-1)"/>
<rect x="18" y="11.8409" width="4" height="13.8143" rx="2" fill="#D32D27"/>
<ellipse cx="20" cy="29.6021" rx="2" ry="1.97348" fill="#D32D27"/>
</g>
<defs>
<filter id="filter0_i" x="0" y="0" width="40" height="38" filterUnits="userSpaceOnUse" color-interpolation-filters="sRGB">
<feFlood flood-opacity="0" result="BackgroundImageFix"/>
<feBlend mode="normal" in="SourceGraphic" in2="BackgroundImageFix" result="shape"/>
<feColorMatrix in="SourceAlpha" type="matrix" values="0 0 0 0 0 0 0 0 0 0 0 0 0 0 0 0 0 0 127 0" result="hardAlpha"/>
<feOffset dx="2" dy="-3"/>
<feComposite in2="hardAlpha" operator="arithmetic" k2="-1" k3="1"/>
<feColorMatrix type="matrix" values="0 0 0 0 0.709804 0 0 0 0 0.85098 0 0 0 0 0.945098 0 0 0 1 0"/>
<feBlend mode="normal" in2="shape" result="effect1_innerShadow"/>
</filter>
<clipPath id="clip0">
<rect width="40" height="38" fill="white"/>
</clipPath>
</defs>
</svg>
