<svg width="36" height="36" viewBox="0 0 36 36" fill="none" xmlns="http://www.w3.org/2000/svg">
<rect width="36" height="36" rx="3" fill="#ECF5FB"/>
<rect width="24" height="24" transform="translate(6 6)" fill="#ECF5FB"/>
<path d="M28 7.5H8C7.60218 7.5 7.22064 7.65804 6.93934 7.93934C6.65804 8.22064 6.5 8.60218 6.5 9V22.552C6.50139 22.7462 6.54152 22.9381 6.61804 23.1166C6.69457 23.295 6.80595 23.4564 6.94565 23.5913C7.08535 23.7261 7.25057 23.8318 7.43162 23.9019C7.61267 23.9721 7.8059 24.0055 8 24H11V28C11 28.0913 11.0249 28.1809 11.0722 28.259C11.1195 28.3371 11.1872 28.4008 11.2681 28.4431C11.349 28.4855 11.4399 28.5049 11.531 28.4992C11.6221 28.4935 11.71 28.463 11.785 28.411L18.156 24H28C28.3978 24 28.7794 23.842 29.0607 23.5607C29.342 23.2794 29.5 22.8978 29.5 22.5V9C29.5 8.60218 29.342 8.22064 29.0607 7.93934C28.7794 7.65804 28.3978 7.5 28 7.5ZM11.25 18C11.25 17.8011 11.329 17.6103 11.4697 17.4697C11.6103 17.329 11.8011 17.25 12 17.25H24C24.1989 17.25 24.3897 17.329 24.5303 17.4697C24.671 17.6103 24.75 17.8011 24.75 18C24.75 18.1989 24.671 18.3897 24.5303 18.5303C24.3897 18.671 24.1989 18.75 24 18.75H12C11.8011 18.75 11.6103 18.671 11.4697 18.5303C11.329 18.3897 11.25 18.1989 11.25 18ZM24 14.25H12C11.8011 14.25 11.6103 14.171 11.4697 14.0303C11.329 13.8897 11.25 13.6989 11.25 13.5C11.25 13.3011 11.329 13.1103 11.4697 12.9697C11.6103 12.829 11.8011 12.75 12 12.75H24C24.1989 12.75 24.3897 12.829 24.5303 12.9697C24.671 13.1103 24.75 13.3011 24.75 13.5C24.75 13.6989 24.671 13.8897 24.5303 14.0303C24.3897 14.171 24.1989 14.25 24 14.25Z" fill="#3598DB"/>
</svg>
