<svg width="36" height="36" viewBox="0 0 36 36" fill="none" xmlns="http://www.w3.org/2000/svg">
<rect width="36" height="36" rx="3" fill="#E7F7F2"/>
<rect width="24" height="24" transform="translate(6 6)" fill="#E7F7F2"/>
<path d="M10.046 15.917C9.81837 16.1528 9.69247 16.4686 9.69541 16.7964C9.69835 17.1241 9.8299 17.4376 10.0617 17.6693C10.2936 17.901 10.6071 18.0323 10.9349 18.0351C11.2626 18.0379 11.5783 17.9118 11.814 17.684C13.4565 16.0461 15.6814 15.1263 18.001 15.1263C20.3206 15.1263 22.5455 16.0461 24.188 17.684C24.304 17.8002 24.4418 17.8923 24.5935 17.9551C24.7452 18.0179 24.9078 18.0501 25.072 18.05C25.3985 18.0514 25.7123 17.9239 25.9454 17.6953C26.1785 17.4667 26.312 17.1554 26.317 16.829C26.317 16.819 26.317 16.81 26.317 16.8C26.3173 16.6359 26.2852 16.4734 26.2224 16.3219C26.1595 16.1703 26.0673 16.0327 25.951 15.917C23.8396 13.8121 20.9799 12.6302 17.9985 12.6302C15.0172 12.6302 12.1574 13.8121 10.046 15.917Z" fill="#008A63"/>
<path d="M28.784 12.088C25.9216 9.23234 22.0433 7.62862 18 7.62862C13.9567 7.62862 10.0784 9.23234 7.216 12.088C6.98155 12.3225 6.84984 12.6404 6.84984 12.972C6.84984 13.3036 6.98155 13.6216 7.216 13.856C7.45045 14.0905 7.76844 14.2222 8.1 14.2222C8.43157 14.2222 8.74955 14.0905 8.984 13.856C11.3773 11.4688 14.6197 10.1283 18 10.1283C21.3803 10.1283 24.6227 11.4688 27.016 13.856C27.1321 13.9721 27.2699 14.0642 27.4216 14.127C27.5733 14.1898 27.7358 14.2222 27.9 14.2222C28.0642 14.2222 28.2267 14.1898 28.3784 14.127C28.5301 14.0642 28.6679 13.9721 28.784 13.856C28.9001 13.7399 28.9922 13.6021 29.055 13.4504C29.1178 13.2987 29.1502 13.1362 29.1502 12.972C29.1502 12.8078 29.1178 12.6453 29.055 12.4936C28.9922 12.3419 28.9001 12.2041 28.784 12.088Z" fill="#008A63"/>
<path d="M20.383 18.033C19.097 17.5843 17.7106 17.5067 16.3826 17.8093C15.0546 18.1119 13.8386 18.7824 12.874 19.744C12.6992 19.9188 12.5801 20.1414 12.5318 20.3838C12.4836 20.6262 12.5082 20.8775 12.6027 21.1059C12.6972 21.3343 12.8573 21.5296 13.0628 21.667C13.2682 21.8044 13.5098 21.8778 13.757 21.878C13.9213 21.8781 14.0839 21.8457 14.2356 21.7827C14.3873 21.7197 14.5251 21.6274 14.641 21.511C15.5028 20.6554 16.6596 20.1625 17.8736 20.1336C19.0877 20.1048 20.2666 20.5422 21.168 21.356C21.23 21.411 21.299 21.456 21.358 21.511C21.5919 21.7442 21.9087 21.8751 22.239 21.875C22.4862 21.8746 22.7277 21.8009 22.933 21.6634C23.1384 21.5258 23.2984 21.3305 23.3929 21.1021C23.4873 20.8737 23.512 20.6224 23.4638 20.38C23.4156 20.1376 23.2967 19.9149 23.122 19.74C22.3502 18.9707 21.4136 18.387 20.383 18.033Z" fill="#008A63"/>
<path d="M18 28.371C19.3807 28.371 20.5 27.2517 20.5 25.871C20.5 24.4903 19.3807 23.371 18 23.371C16.6193 23.371 15.5 24.4903 15.5 25.871C15.5 27.2517 16.6193 28.371 18 28.371Z" fill="#008A63"/>
</svg>
