<svg width="20" height="20" viewBox="0 0 20 20" fill="none" xmlns="http://www.w3.org/2000/svg">
    <path d="M19.2659 16.6665L11.4767 1.7915C11.3356 1.52212 11.1234 1.2965 10.8632 1.13907C10.6029 0.981655 10.3046 0.898438 10.0005 0.898438C9.69634 0.898438 9.39801 0.981655 9.13779 1.13907C8.87757 1.2965 8.66539 1.52212 8.52422 1.7915L0.73422 16.6665C0.601154 16.9205 0.53589 17.2046 0.544739 17.4913C0.553588 17.7779 0.636251 18.0574 0.784733 18.3028C0.933216 18.5481 1.14249 18.751 1.39233 18.8918C1.64217 19.0326 1.92411 19.1065 2.21089 19.1065H17.7892C18.076 19.1065 18.3579 19.0326 18.6078 18.8918C18.8576 18.751 19.0669 18.5481 19.2154 18.3028C19.3639 18.0574 19.4465 17.7779 19.4554 17.4913C19.4642 17.2046 19.399 16.9205 19.2659 16.6665V16.6665ZM9.16672 7.019C9.16672 6.79799 9.25452 6.58602 9.4108 6.42974C9.56708 6.27346 9.77904 6.18567 10.0001 6.18567C10.2211 6.18567 10.433 6.27346 10.5893 6.42974C10.7456 6.58602 10.8334 6.79799 10.8334 7.019V12.019C10.8334 12.24 10.7456 12.452 10.5893 12.6083C10.433 12.7645 10.2211 12.8523 10.0001 12.8523C9.77904 12.8523 9.56708 12.7645 9.4108 12.6083C9.25452 12.452 9.16672 12.24 9.16672 12.019V7.019ZM10.0417 16.6107H10.0184C9.68975 16.6096 9.37425 16.4815 9.13787 16.2532C8.90149 16.0249 8.76253 15.7141 8.75005 15.3857C8.74405 15.2223 8.77065 15.0595 8.82831 14.9065C8.88597 14.7536 8.97353 14.6137 9.08587 14.495C9.19821 14.3763 9.33309 14.2812 9.48261 14.2152C9.63214 14.1492 9.79331 14.1137 9.95672 14.1107H9.98005C10.3086 14.1111 10.6243 14.2385 10.861 14.4664C11.0977 14.6943 11.2371 15.0049 11.2501 15.3332C11.2565 15.4969 11.2302 15.6602 11.1726 15.8136C11.1151 15.967 11.0274 16.1073 10.9148 16.2263C10.8023 16.3453 10.667 16.4406 10.5171 16.5066C10.3671 16.5726 10.2055 16.608 10.0417 16.6107V16.6107Z" fill="#EDBF0E"/>
</svg>
