<svg width="36" height="36" viewBox="0 0 36 36" fill="none" xmlns="http://www.w3.org/2000/svg">
<rect width="36" height="36" rx="3" fill="#FBEBEB"/>
<g clip-path="url(#clip0)">
<rect width="24" height="24" transform="translate(6 6)" fill="#FBEBEB"/>
<path d="M17.321 22.9C17.2837 22.8887 17.2442 22.8864 17.2058 22.8931C17.1674 22.8999 17.1311 22.9156 17.0999 22.9389C17.0687 22.9623 17.0434 22.9926 17.026 23.0276C17.0087 23.0625 16.9997 23.101 17 23.14V27.25C17 27.9793 17.2897 28.6788 17.8055 29.1945C18.3212 29.7103 19.0207 30 19.75 30C20.4794 30 21.1788 29.7103 21.6945 29.1945C22.2103 28.6788 22.5 27.9793 22.5 27.25C22.5 26.9848 22.3946 26.7304 22.2071 26.5429C22.0196 26.3554 21.7652 26.25 21.5 26.25C21.2348 26.25 20.9804 26.3554 20.7929 26.5429C20.6054 26.7304 20.5 26.9848 20.5 27.25C20.5 27.4489 20.421 27.6397 20.2803 27.7803C20.1397 27.921 19.9489 28 19.75 28C19.5511 28 19.3603 27.921 19.2197 27.7803C19.079 27.6397 19 27.4489 19 27.25V23.14C19.0001 23.1011 18.9911 23.0627 18.9737 23.0279C18.9562 22.9931 18.9309 22.9629 18.8997 22.9396C18.8685 22.9164 18.8323 22.9008 18.7939 22.8941C18.7556 22.8874 18.7163 22.8897 18.679 22.901C18.236 23.033 17.764 23.033 17.321 22.901V22.9Z" fill="#D32D27"/>
<path d="M18 6C17.7348 6 17.4804 6.10536 17.2929 6.29289C17.1054 6.48043 17 6.73478 17 7V7.323C17 7.38491 16.977 7.44462 16.9354 7.49047C16.8938 7.53632 16.8366 7.56503 16.775 7.571C13.7492 7.91801 10.9636 9.38729 8.96864 11.6885C6.97364 13.9898 5.91432 16.9556 6 20V20.5C6 20.7652 6.10535 21.0196 6.29289 21.2071C6.48043 21.3946 6.73478 21.5 7 21.5C7.26521 21.5 7.51957 21.3946 7.7071 21.2071C7.89464 21.0196 8 20.7652 8 20.5C8 19.967 8.7 19.5 9.5 19.5C10.3 19.5 11 19.967 11 20.5C11 20.7652 11.1054 21.0196 11.2929 21.2071C11.4804 21.3946 11.7348 21.5 12 21.5C12.2652 21.5 12.5196 21.3946 12.7071 21.2071C12.8946 21.0196 13 20.7652 13 20.5C13 20.092 13.779 19.5 15 19.5C16.221 19.5 17 20.092 17 20.5C17 20.7652 17.1054 21.0196 17.2929 21.2071C17.4804 21.3946 17.7348 21.5 18 21.5C18.2652 21.5 18.5196 21.3946 18.7071 21.2071C18.8946 21.0196 19 20.7652 19 20.5C19 20.092 19.779 19.5 21 19.5C22.221 19.5 23 20.092 23 20.5C23 20.7652 23.1054 21.0196 23.2929 21.2071C23.4804 21.3946 23.7348 21.5 24 21.5C24.2652 21.5 24.5196 21.3946 24.7071 21.2071C24.8946 21.0196 25 20.7652 25 20.5C25 19.967 25.7 19.5 26.5 19.5C27.3 19.5 28 19.967 28 20.5C28 20.7652 28.1054 21.0196 28.2929 21.2071C28.4804 21.3946 28.7348 21.5 29 21.5C29.2652 21.5 29.5196 21.3946 29.7071 21.2071C29.8946 21.0196 30 20.7652 30 20.5V20C30.0857 16.9556 29.0264 13.9898 27.0314 11.6885C25.0364 9.38729 22.2508 7.91801 19.225 7.571C19.1634 7.56503 19.1062 7.53632 19.0646 7.49047C19.023 7.44462 19 7.38491 19 7.323V7C19 6.73478 18.8946 6.48043 18.7071 6.29289C18.5196 6.10536 18.2652 6 18 6V6Z" fill="#D32D27"/>
</g>
<defs>
<clipPath id="clip0">
<rect width="24" height="24" fill="white" transform="translate(6 6)"/>
</clipPath>
</defs>
</svg>
