<svg width="90" height="67" viewBox="0 0 90 67" fill="none" xmlns="http://www.w3.org/2000/svg">
<path d="M13.6094 11.9375C13.6094 12.1771 13.5781 12.401 13.5156 12.6094C13.4531 12.8073 13.3854 13.0208 13.3125 13.25L13.2344 13.5C13.1615 13.6354 13.0573 13.776 12.9219 13.9219C12.7969 14.0677 12.6823 14.1979 12.5781 14.3125C12.3385 14.5833 12.099 14.8594 11.8594 15.1406C11.6198 15.4115 11.4062 15.7031 11.2188 16.0156H11.1875C11.1562 16.0156 11.125 16.026 11.0938 16.0469C11.0729 16.0677 11.0521 16.0938 11.0312 16.125C11.0104 16.1458 10.9896 16.1667 10.9688 16.1875C10.9479 16.1979 10.9167 16.1979 10.875 16.1875C10.8021 16.3646 10.6823 16.5 10.5156 16.5938C10.3594 16.6771 10.2188 16.7812 10.0938 16.9062C10.0833 16.9896 10.0625 17.0625 10.0312 17.125C10 17.1771 9.98438 17.2396 9.98438 17.3125C9.60938 17.5312 9.25521 17.7812 8.92188 18.0625C8.59896 18.3542 8.28125 18.6406 7.96875 18.9219C7.77083 18.974 7.60938 19.0573 7.48438 19.1719C7.36979 19.2865 7.25 19.4115 7.125 19.5469C6.85417 19.6823 6.58333 19.8281 6.3125 19.9844C6.05208 20.1406 5.81771 20.3333 5.60938 20.5625C5.36979 20.625 5.14062 20.724 4.92188 20.8594C4.71354 20.9948 4.5 21.1302 4.28125 21.2656C4.21875 21.3073 4.15104 21.3385 4.07812 21.3594C4.01562 21.3906 3.94792 21.4219 3.875 21.4531C3.80208 21.4844 3.76562 21.5365 3.76562 21.6094H3.70312C3.61979 21.6094 3.55729 21.6354 3.51562 21.6875C3.48438 21.7396 3.41667 21.7604 3.3125 21.75C3.19792 21.8646 3.06771 21.9531 2.92188 22.0156L2.48438 22.2188C2.33854 22.2917 2.19271 22.3646 2.04688 22.4375C1.91146 22.5208 1.79167 22.625 1.6875 22.75C1.51042 22.7708 1.34896 22.8229 1.20312 22.9062C1.06771 22.9896 0.911458 23.0312 0.734375 23.0312H0.671875C0.609375 22.9583 0.536458 22.8906 0.453125 22.8281C0.380208 22.776 0.307292 22.7188 0.234375 22.6562C0.171875 22.6042 0.114583 22.5365 0.0625 22.4531C0.0208333 22.3802 0 22.2812 0 22.1562V22.0781C0.489583 21.8802 0.901042 21.599 1.23438 21.2344C1.25521 21.2344 1.27083 21.2292 1.28125 21.2188C1.29167 21.2188 1.30729 21.2188 1.32812 21.2188C1.38021 21.2188 1.42708 21.224 1.46875 21.2344C1.51042 21.2552 1.55208 21.2656 1.59375 21.2656C1.61458 21.2656 1.64583 21.2552 1.6875 21.2344C1.91667 21.1615 2.13542 21.0625 2.34375 20.9375C2.5625 20.8125 2.77083 20.6823 2.96875 20.5469C3.17708 20.4219 3.38542 20.2969 3.59375 20.1719C3.80208 20.0573 4.02083 19.9635 4.25 19.8906C4.58333 19.6198 4.92708 19.3594 5.28125 19.1094C5.63542 18.8594 6.01042 18.6354 6.40625 18.4375C6.4375 18.3542 6.47396 18.2865 6.51562 18.2344C6.56771 18.1927 6.58333 18.125 6.5625 18.0312C6.58333 18.0417 6.60938 18.0469 6.64062 18.0469C6.72396 18.0469 6.79167 18.026 6.84375 17.9844C7.01042 17.8698 7.16667 17.75 7.3125 17.625C7.46875 17.4896 7.61979 17.3594 7.76562 17.2344C8.07812 16.9635 8.39583 16.6875 8.71875 16.4062C9.04167 16.125 9.36979 15.8646 9.70312 15.625C9.72396 15.5208 9.76562 15.4427 9.82812 15.3906C9.89062 15.3281 9.92188 15.2396 9.92188 15.125C10.0573 15.0729 10.1615 14.9896 10.2344 14.875C10.3177 14.75 10.4375 14.6667 10.5938 14.625C10.6771 14.4583 10.7656 14.3021 10.8594 14.1562C10.9531 14.0104 11.0885 13.9062 11.2656 13.8438C11.3281 13.6771 11.3958 13.526 11.4688 13.3906C11.5521 13.2552 11.625 13.125 11.6875 13C11.7604 12.8646 11.8229 12.724 11.875 12.5781C11.9271 12.4323 11.9531 12.2552 11.9531 12.0469C11.9531 11.8177 11.8802 11.6615 11.7344 11.5781C11.5885 11.4844 11.4167 11.4219 11.2188 11.3906C11.0208 11.3594 10.8125 11.3333 10.5938 11.3125C10.3854 11.2917 10.2188 11.2396 10.0938 11.1562C10.0312 11.1667 10.0052 11.2083 10.0156 11.2812C10.0365 11.3542 10.026 11.401 9.98438 11.4219H9.82812C9.69271 11.4219 9.55729 11.4427 9.42188 11.4844L9.03125 11.5938C8.90625 11.625 8.77604 11.6562 8.64062 11.6875C8.50521 11.7188 8.36979 11.7292 8.23438 11.7188C8.03646 11.8229 7.85938 11.9167 7.70312 12C7.55729 12.0833 7.40625 12.1615 7.25 12.2344C7.10417 12.3073 6.94271 12.375 6.76562 12.4375C6.59896 12.5 6.40104 12.5573 6.17188 12.6094C6.05729 12.6302 5.98438 12.6667 5.95312 12.7188C5.92188 12.7708 5.86458 12.8229 5.78125 12.875C5.72917 12.8438 5.68229 12.8073 5.64062 12.7656C5.59896 12.7135 5.55208 12.6771 5.5 12.6562C5.44792 12.6667 5.40104 12.6979 5.35938 12.75C5.32812 12.7917 5.29688 12.8385 5.26562 12.8906C5.23438 12.9323 5.20312 12.974 5.17188 13.0156C5.14062 13.0469 5.10417 13.0625 5.0625 13.0625C4.96875 13.0625 4.88021 13.0365 4.79688 12.9844C4.72396 12.9219 4.65625 12.8542 4.59375 12.7812C4.53125 12.7083 4.46875 12.6354 4.40625 12.5625C4.34375 12.4792 4.27604 12.4219 4.20312 12.3906C4.24479 12.2865 4.26562 12.1823 4.26562 12.0781C4.26562 11.9635 4.26042 11.8594 4.25 11.7656C4.375 11.6302 4.48958 11.4948 4.59375 11.3594C4.69792 11.224 4.82812 11.1198 4.98438 11.0469C5.26562 10.7135 5.52604 10.401 5.76562 10.1094C6.00521 9.80729 6.21354 9.5 6.39062 9.1875C6.57812 8.86458 6.72917 8.52604 6.84375 8.17188C6.96875 7.80729 7.04688 7.39583 7.07812 6.9375C7.07812 6.86458 7.09375 6.80729 7.125 6.76562C7.16667 6.72396 7.1875 6.67188 7.1875 6.60938C7.1875 6.50521 7.16667 6.41667 7.125 6.34375C7.09375 6.27083 7.05208 6.20833 7 6.15625C6.95833 6.09375 6.91667 6.03125 6.875 5.96875C6.84375 5.90625 6.83333 5.82292 6.84375 5.71875C6.67708 5.57292 6.48958 5.5 6.28125 5.5C6.19792 5.5 6.10417 5.52083 6 5.5625C5.89583 5.60417 5.78646 5.65104 5.67188 5.70312C5.56771 5.75521 5.46354 5.81771 5.35938 5.89062C5.25521 5.95312 5.17188 6.00521 5.10938 6.04688C5.04688 6.08854 4.98438 6.13542 4.92188 6.1875C4.86979 6.22917 4.81771 6.27083 4.76562 6.3125C4.52604 6.52083 4.29167 6.72396 4.0625 6.92188C3.84375 7.11979 3.63021 7.32812 3.42188 7.54688V7.84375C3.32812 7.86458 3.25 7.90625 3.1875 7.96875C3.13542 8.03125 3.09375 8.10938 3.0625 8.20312C3.03125 8.28646 3.00521 8.38021 2.98438 8.48438C2.96354 8.57812 2.9375 8.66146 2.90625 8.73438L2.92188 8.78125V8.8125C2.92188 8.82292 2.91146 8.82812 2.89062 8.82812C2.88021 8.82812 2.86458 8.82292 2.84375 8.8125C2.82292 8.79167 2.80208 8.78125 2.78125 8.78125H2.75C2.66667 9.02083 2.52604 9.20312 2.32812 9.32812C2.14062 9.45312 1.94792 9.57292 1.75 9.6875C1.55208 9.63542 1.36979 9.55729 1.20312 9.45312C1.04688 9.34896 0.890625 9.23958 0.734375 9.125C0.661458 8.97917 0.625 8.8125 0.625 8.625C0.625 8.4375 0.651042 8.26042 0.703125 8.09375C0.755208 7.91667 0.802083 7.73438 0.84375 7.54688C1 7.42188 1.13021 7.27604 1.23438 7.10938C1.33854 6.94271 1.44271 6.77604 1.54688 6.60938C1.66146 6.44271 1.78125 6.29167 1.90625 6.15625C2.04167 6.01042 2.21354 5.90104 2.42188 5.82812C2.52604 5.66146 2.65625 5.51562 2.8125 5.39062C2.96875 5.25521 3.13021 5.13542 3.29688 5.03125C3.47396 4.91667 3.64583 4.80208 3.8125 4.6875C3.97917 4.57292 4.125 4.44271 4.25 4.29688H4.54688C4.57812 4.19271 4.64062 4.11979 4.73438 4.07812C4.82812 4.02604 4.92188 3.98438 5.01562 3.95312C5.11979 3.91146 5.21354 3.86458 5.29688 3.8125C5.38021 3.75 5.42708 3.65104 5.4375 3.51562C5.47917 3.50521 5.5 3.52604 5.5 3.57812C5.59375 3.54688 5.69792 3.53125 5.8125 3.53125C5.94792 3.53125 6.07812 3.54688 6.20312 3.57812C6.33854 3.60938 6.46875 3.625 6.59375 3.625C6.69792 3.625 6.79688 3.60938 6.89062 3.57812C6.90104 3.64062 6.92708 3.6875 6.96875 3.71875C7.02083 3.73958 7.07812 3.76042 7.14062 3.78125C7.21354 3.79167 7.28125 3.80208 7.34375 3.8125C7.41667 3.8125 7.47396 3.82812 7.51562 3.85938C7.50521 3.96354 7.53646 4.02604 7.60938 4.04688C7.69271 4.05729 7.75521 4.08854 7.79688 4.14062C7.83854 4.19271 7.85938 4.25521 7.85938 4.32812C7.86979 4.40104 7.90625 4.46875 7.96875 4.53125L8.14062 4.71875C8.20312 4.77083 8.26042 4.83333 8.3125 4.90625C8.5 5.16667 8.64583 5.48958 8.75 5.875C8.85417 6.26042 8.90625 6.61458 8.90625 6.9375C8.90625 6.95833 8.89583 7.02083 8.875 7.125C8.85417 7.21875 8.83854 7.27604 8.82812 7.29688C8.71354 7.82812 8.54688 8.32812 8.32812 8.79688C8.10938 9.25521 7.875 9.71875 7.625 10.1875C7.6875 10.1979 7.74479 10.2083 7.79688 10.2188C7.85938 10.2188 7.91667 10.2188 7.96875 10.2188C8.19792 10.2188 8.40625 10.1875 8.59375 10.125C8.79167 10.0625 8.99479 9.98958 9.20312 9.90625C9.30729 9.9375 9.42188 9.95312 9.54688 9.95312C9.72396 9.95312 9.89062 9.9375 10.0469 9.90625C10.2135 9.875 10.3854 9.85938 10.5625 9.85938C10.6562 9.85938 10.7448 9.88021 10.8281 9.92188C10.9219 9.96354 11.026 9.98438 11.1406 9.98438C11.2448 9.98438 11.3229 9.97917 11.375 9.96875C11.5417 10.0521 11.7188 10.1354 11.9062 10.2188C12.1042 10.3021 12.2917 10.3906 12.4688 10.4844C12.6562 10.5781 12.8281 10.6875 12.9844 10.8125C13.151 10.9271 13.2969 11.0625 13.4219 11.2188C13.4427 11.2396 13.4688 11.276 13.5 11.3281C13.5312 11.3698 13.5521 11.401 13.5625 11.4219C13.5833 11.4635 13.5938 11.5469 13.5938 11.6719C13.6042 11.7969 13.6094 11.8854 13.6094 11.9375ZM27.4062 11.2344C27.4062 11.8906 27.3438 12.5312 27.2188 13.1562C27.1042 13.7708 26.9635 14.3906 26.7969 15.0156C26.6823 15.1302 26.5938 15.25 26.5312 15.375C26.4688 15.4896 26.4427 15.6302 26.4531 15.7969C26.3281 15.8281 26.2448 15.9062 26.2031 16.0312C26.1615 16.1458 26.1146 16.2552 26.0625 16.3594C25.8854 16.474 25.7292 16.6094 25.5938 16.7656C25.4688 16.9115 25.3333 17.0573 25.1875 17.2031C25.1458 17.2448 25.1042 17.2917 25.0625 17.3438C25.0312 17.3958 24.9948 17.4375 24.9531 17.4688C24.8594 17.5417 24.7552 17.6094 24.6406 17.6719C24.526 17.724 24.4219 17.7812 24.3281 17.8438C24.1198 17.9792 23.9167 18.1198 23.7188 18.2656C23.5208 18.4219 23.3281 18.5885 23.1406 18.7656C22.6927 18.9427 22.2604 19.1406 21.8438 19.3594C21.4375 19.5885 21.0312 19.8385 20.625 20.1094H20.2344C20.099 20.1927 19.974 20.2604 19.8594 20.3125C19.7448 20.3646 19.6094 20.3906 19.4531 20.3906C19.2448 20.526 19.0156 20.6354 18.7656 20.7188C18.5156 20.8125 18.2604 20.8958 18 20.9688C17.7396 21.0417 17.4792 21.1094 17.2188 21.1719C16.9583 21.2344 16.7135 21.3073 16.4844 21.3906C16.4323 21.3802 16.3802 21.3646 16.3281 21.3438C16.2865 21.3333 16.2396 21.3281 16.1875 21.3281C16.0417 21.3281 15.9062 21.3594 15.7812 21.4219C15.6667 21.4844 15.5417 21.5312 15.4062 21.5625C15.3646 21.5833 15.3177 21.5885 15.2656 21.5781C15.2135 21.5781 15.1667 21.5781 15.125 21.5781C14.8542 21.5781 14.6094 21.5312 14.3906 21.4375C14.1719 21.3542 13.9375 21.2865 13.6875 21.2344C13.625 21.099 13.5365 20.9688 13.4219 20.8438L13.0781 20.4688C12.9635 20.3438 12.8646 20.2135 12.7812 20.0781C12.6875 19.9531 12.6302 19.8125 12.6094 19.6562V19.5C12.6094 19.3854 12.599 19.2708 12.5781 19.1562C12.5573 19.0417 12.5312 18.9271 12.5 18.8125C12.5729 18.625 12.6458 18.4271 12.7188 18.2188C12.7917 18.0104 12.8698 17.8073 12.9531 17.6094C13.0365 17.401 13.1302 17.2031 13.2344 17.0156C13.3385 16.8281 13.4688 16.6667 13.625 16.5312C13.6771 16.3021 13.7604 16.0938 13.875 15.9062C13.9792 15.7083 14.099 15.5208 14.2344 15.3438C14.3594 15.1562 14.4844 14.9688 14.6094 14.7812C14.7344 14.5938 14.8385 14.3906 14.9219 14.1719C14.974 14.1823 15.0052 14.1719 15.0156 14.1406C15.0365 14.1094 15.0521 14.0781 15.0625 14.0469C15.0833 14.0052 15.1042 13.974 15.125 13.9531C15.1458 13.9323 15.1875 13.9323 15.25 13.9531C15.25 13.849 15.2708 13.7656 15.3125 13.7031C15.3542 13.6302 15.3958 13.5625 15.4375 13.5C15.4896 13.4375 15.5312 13.375 15.5625 13.3125C15.6042 13.2396 15.6302 13.1562 15.6406 13.0625C15.7135 13.0312 15.7708 12.9844 15.8125 12.9219C15.8646 12.8594 15.9115 12.7969 15.9531 12.7344C15.9948 12.6615 16.0365 12.5938 16.0781 12.5312C16.1198 12.4688 16.1823 12.4219 16.2656 12.3906C16.2865 12.2552 16.3229 12.1406 16.375 12.0469C16.4375 11.9427 16.5 11.849 16.5625 11.7656C16.6354 11.6823 16.7031 11.599 16.7656 11.5156C16.8385 11.4219 16.8958 11.3177 16.9375 11.2031C17 11.151 17.0729 11.1354 17.1562 11.1562C17.3021 10.8646 17.474 10.5885 17.6719 10.3281C17.8698 10.0677 18.0729 9.8125 18.2812 9.5625C18.4896 9.3125 18.6979 9.0625 18.9062 8.8125C19.1146 8.55208 19.2969 8.28125 19.4531 8C19.599 7.91667 19.7344 7.81771 19.8594 7.70312C19.9948 7.57812 20.1042 7.4375 20.1875 7.28125C19.9792 6.88542 19.7969 6.50521 19.6406 6.14062C19.4844 5.76562 19.4062 5.34375 19.4062 4.875C19.4062 4.80208 19.4115 4.72917 19.4219 4.65625C19.4323 4.58333 19.4427 4.50521 19.4531 4.42188C19.6302 4.18229 19.8021 3.98438 19.9688 3.82812C20.1354 3.66146 20.3802 3.57812 20.7031 3.57812C21.0156 3.57812 21.3177 3.63542 21.6094 3.75C21.9115 3.86458 22.2188 3.92188 22.5312 3.92188C22.6875 4.03646 22.8438 4.14062 23 4.23438C23.1667 4.31771 23.3385 4.40104 23.5156 4.48438L23.7188 4.5625C23.8021 4.58333 23.875 4.60938 23.9375 4.64062C24 4.68229 24.0625 4.72917 24.125 4.78125C24.1979 4.83333 24.2656 4.88542 24.3281 4.9375C24.7448 5.28125 25.1302 5.65625 25.4844 6.0625C25.849 6.45833 26.2083 6.86458 26.5625 7.28125V7.3125C26.5625 7.47917 26.599 7.60938 26.6719 7.70312C26.7448 7.78646 26.8229 7.88542 26.9062 8C26.9062 8.1875 26.9323 8.35417 26.9844 8.5C27.0365 8.64583 27.1042 8.79688 27.1875 8.95312C27.1875 9.09896 27.1875 9.25 27.1875 9.40625C27.1979 9.55208 27.224 9.69792 27.2656 9.84375C27.3073 9.94792 27.3333 10.026 27.3438 10.0781C27.3854 10.224 27.4062 10.4115 27.4062 10.6406V11.2344ZM26.1406 11.2188C26.1406 10.9167 26.1198 10.6406 26.0781 10.3906C26.0469 10.1302 26.0052 9.85417 25.9531 9.5625C25.9115 9.3125 25.8594 9.0625 25.7969 8.8125C25.7448 8.5625 25.6615 8.32292 25.5469 8.09375C25.4427 7.86458 25.3021 7.65625 25.125 7.46875C24.9583 7.28125 24.75 7.11979 24.5 6.98438H24.4531C24.4219 6.98438 24.3854 7.01042 24.3438 7.0625C24.3125 7.10417 24.2396 7.125 24.125 7.125C24.0625 7.125 24 7.11458 23.9375 7.09375C23.8854 7.0625 23.8333 7.05208 23.7812 7.0625H23.7188C23.5938 7.125 23.4844 7.17188 23.3906 7.20312C23.2969 7.23438 23.1771 7.23958 23.0312 7.21875C22.875 7.36458 22.7083 7.5 22.5312 7.625C22.3646 7.73958 22.1771 7.82812 21.9688 7.89062C21.875 8.07812 21.7552 8.24479 21.6094 8.39062C21.4635 8.52604 21.2865 8.61979 21.0781 8.67188C21.0365 8.79688 20.974 8.90625 20.8906 9C20.8177 9.08333 20.7344 9.16146 20.6406 9.23438C20.5469 9.29688 20.4479 9.35938 20.3438 9.42188C20.2396 9.48438 20.1458 9.55208 20.0625 9.625C19.9792 9.70833 19.9115 9.79688 19.8594 9.89062C19.8177 9.97396 19.7552 10.0521 19.6719 10.125C19.5573 10.2292 19.4531 10.3281 19.3594 10.4219C19.276 10.5156 19.1927 10.625 19.1094 10.75C19.0365 10.8646 18.9635 10.9792 18.8906 11.0938C18.8281 11.2083 18.7917 11.3385 18.7812 11.4844C18.4792 11.6615 18.2396 11.8906 18.0625 12.1719L17.5312 13.0156C17.4583 13.1198 17.3854 13.2135 17.3125 13.2969L17.0938 13.5469C17.0625 13.5885 17.0417 13.6354 17.0312 13.6875C17.0312 13.7396 17.0365 13.7917 17.0469 13.8438C16.901 13.9479 16.776 14.0729 16.6719 14.2188C16.5677 14.3542 16.4688 14.5 16.375 14.6562C16.2917 14.8125 16.1979 14.9688 16.0938 15.125C16 15.2708 15.8854 15.401 15.75 15.5156C15.6667 15.724 15.5677 15.9375 15.4531 16.1562C15.349 16.3646 15.2083 16.5417 15.0312 16.6875C14.8542 17.125 14.6823 17.5573 14.5156 17.9844C14.3594 18.4115 14.25 18.8594 14.1875 19.3281C14.2604 19.401 14.3333 19.4635 14.4062 19.5156C14.4792 19.5781 14.5521 19.6458 14.625 19.7188C14.6354 19.7292 14.6562 19.7344 14.6875 19.7344C14.7396 19.7344 14.776 19.7188 14.7969 19.6875C14.8281 19.6562 14.8646 19.6406 14.9062 19.6406C14.9271 19.6406 14.9375 19.6406 14.9375 19.6406L14.9688 19.6562C14.9792 19.7292 15.0104 19.7812 15.0625 19.8125C15.1146 19.8438 15.1771 19.8646 15.25 19.875C15.3229 19.8958 15.3958 19.9115 15.4688 19.9219C15.5417 19.9323 15.599 19.9583 15.6406 20C15.8698 19.9271 16.125 19.8698 16.4062 19.8281C16.6875 19.7969 16.9635 19.7552 17.2344 19.7031C17.5156 19.6615 17.7865 19.599 18.0469 19.5156C18.3073 19.4323 18.5312 19.3125 18.7188 19.1562H18.8906C18.9948 19.1562 19.0677 19.1771 19.1094 19.2188C19.3073 19.0208 19.5052 18.8698 19.7031 18.7656C19.901 18.6615 20.1354 18.6042 20.4062 18.5938C20.8021 18.2292 21.25 17.9375 21.75 17.7188C22.2604 17.4896 22.7448 17.2396 23.2031 16.9688C23.2552 16.9479 23.2812 16.9115 23.2812 16.8594C23.2812 16.7969 23.3073 16.7604 23.3594 16.75C23.4115 16.7396 23.4531 16.7396 23.4844 16.75C23.526 16.75 23.5677 16.75 23.6094 16.75C23.974 16.3958 24.3229 16.0365 24.6562 15.6719C25 15.2969 25.3021 14.8906 25.5625 14.4531C25.5625 14.3802 25.5677 14.3177 25.5781 14.2656C25.599 14.2031 25.6094 14.1458 25.6094 14.0938C25.6094 14.0729 25.6042 14.0521 25.5938 14.0312C25.5833 14 25.5729 13.974 25.5625 13.9531C25.7708 13.5365 25.9167 13.0938 26 12.625C26.0938 12.1458 26.1406 11.6771 26.1406 11.2188ZM22.5312 5.59375C22.3958 5.5 22.2344 5.41667 22.0469 5.34375C21.8594 5.26042 21.6823 5.21875 21.5156 5.21875C21.3385 5.21875 21.2083 5.27083 21.125 5.375C21.0521 5.46875 21.0156 5.59896 21.0156 5.76562C21.0156 5.85938 21.0417 5.9375 21.0938 6C21.1458 6.05208 21.1562 6.15625 21.125 6.3125C21.1562 6.33333 21.1979 6.34375 21.25 6.34375C21.375 6.34375 21.4948 6.31771 21.6094 6.26562C21.724 6.21354 21.8281 6.15104 21.9219 6.07812C22.026 5.99479 22.125 5.91146 22.2188 5.82812C22.3229 5.73438 22.4271 5.65625 22.5312 5.59375ZM42.5312 7.14062C42.4688 7.24479 42.4167 7.36458 42.375 7.5C42.3333 7.625 42.2812 7.75 42.2188 7.875C42.1667 8 42.099 8.11458 42.0156 8.21875C41.9427 8.3125 41.8385 8.38021 41.7031 8.42188V8.53125C41.7031 8.63542 41.6771 8.71354 41.625 8.76562C41.5833 8.81771 41.5729 8.91146 41.5938 9.04688C41.2292 9.43229 40.901 9.84375 40.6094 10.2812C40.3177 10.7083 39.9896 11.1146 39.625 11.5C39.6042 11.4896 39.5729 11.4844 39.5312 11.4844C39.4583 11.4844 39.401 11.5052 39.3594 11.5469C39.3281 11.5781 39.2917 11.5938 39.25 11.5938C39.2188 11.5938 39.1927 11.5833 39.1719 11.5625C39.0052 11.7708 38.849 11.9844 38.7031 12.2031C38.5573 12.4219 38.4062 12.6354 38.25 12.8438C38.0938 13.0521 37.9271 13.2604 37.75 13.4688C37.5833 13.6667 37.401 13.8542 37.2031 14.0312C37.0885 14.3021 36.9427 14.5573 36.7656 14.7969C36.599 15.0365 36.4219 15.2708 36.2344 15.5C36.0469 15.7292 35.8698 15.9635 35.7031 16.2031C35.5365 16.4427 35.4062 16.7031 35.3125 16.9844C35.2604 16.9844 35.2188 17 35.1875 17.0312C35.1667 17.0521 35.1302 17.0625 35.0781 17.0625C34.9635 17.3438 34.8333 17.6094 34.6875 17.8594C34.5521 18.099 34.4167 18.3438 34.2812 18.5938C34.1562 18.8438 34.0469 19.1042 33.9531 19.375C33.8698 19.6458 33.8281 19.9479 33.8281 20.2812V20.4688C33.8281 20.5312 33.8333 20.5885 33.8438 20.6406C33.9479 20.7552 34.0625 20.8646 34.1875 20.9688C34.3125 21.0729 34.375 21.2031 34.375 21.3594C34.375 21.4531 34.3542 21.5469 34.3125 21.6406C34.2708 21.7344 34.25 21.8333 34.25 21.9375C34.0833 21.9479 33.9219 21.974 33.7656 22.0156C33.6094 22.0573 33.4531 22.0833 33.2969 22.0938C33.1198 21.9792 32.9688 21.9062 32.8438 21.875C32.7188 21.8438 32.5521 21.8073 32.3438 21.7656C32.2917 21.6823 32.25 21.5938 32.2188 21.5C32.1875 21.4062 32.1354 21.3281 32.0625 21.2656C32.1146 21.1094 32.1458 20.9479 32.1562 20.7812C32.1667 20.6146 32.1667 20.4479 32.1562 20.2812C32.1562 20.1146 32.1562 19.9479 32.1562 19.7812C32.1667 19.6146 32.1927 19.4531 32.2344 19.2969C32.3177 19.2031 32.3854 19.0938 32.4375 18.9688C32.4896 18.8542 32.5365 18.7292 32.5781 18.5938C32.6198 18.4583 32.6615 18.3281 32.7031 18.2031C32.7448 18.0781 32.7917 17.9583 32.8438 17.8438C32.875 17.8438 32.8958 17.8333 32.9062 17.8125C32.9271 17.7812 32.9427 17.7552 32.9531 17.7344C32.9635 17.7031 32.9792 17.6823 33 17.6719C33.0208 17.651 33.0625 17.6458 33.125 17.6562C33.3125 17.1458 33.5625 16.6719 33.875 16.2344C34.1875 15.7969 34.4792 15.3385 34.75 14.8594C34.8333 14.8177 34.9062 14.7656 34.9688 14.7031C35.0417 14.6406 35.1146 14.5833 35.1875 14.5312C35.2396 14.3958 35.3073 14.2708 35.3906 14.1562L35.6562 13.8125C35.75 13.6979 35.8333 13.5833 35.9062 13.4688C35.9896 13.3542 36.0521 13.224 36.0938 13.0781C36.2083 13.026 36.2969 12.9531 36.3594 12.8594C36.4323 12.7552 36.4948 12.651 36.5469 12.5469C36.6094 12.4427 36.6771 12.3438 36.75 12.25C36.8229 12.1562 36.9219 12.0938 37.0469 12.0625C37.0677 11.8958 37.1146 11.7604 37.1875 11.6562C37.2708 11.5521 37.3594 11.4531 37.4531 11.3594C37.5469 11.2552 37.6302 11.151 37.7031 11.0469C37.776 10.9323 37.8177 10.7865 37.8281 10.6094C37.8594 10.6406 37.8854 10.6562 37.9062 10.6562C37.9271 10.6562 37.9427 10.651 37.9531 10.6406C37.974 10.6198 38.0104 10.6094 38.0625 10.6094C38.1354 10.4635 38.224 10.3229 38.3281 10.1875C38.4323 10.0521 38.5365 9.92188 38.6406 9.79688C38.7448 9.66146 38.8438 9.52604 38.9375 9.39062C39.0312 9.24479 39.1094 9.08854 39.1719 8.92188C39.2552 8.91146 39.3229 8.89062 39.375 8.85938C39.4271 8.81771 39.4896 8.78125 39.5625 8.75V8.64062C39.5625 8.54688 39.5833 8.45833 39.625 8.375C39.6667 8.29167 39.6875 8.20312 39.6875 8.10938C39.6875 8.07812 39.6823 8.05208 39.6719 8.03125C39.6302 7.97917 39.5781 7.94792 39.5156 7.9375C39.4635 7.92708 39.4062 7.92188 39.3438 7.92188C39.2708 7.94271 39.2083 7.97396 39.1562 8.01562C39.1146 8.05729 39.0625 8.09896 39 8.14062H38.3281C38.1615 8.25521 37.9792 8.34375 37.7812 8.40625C37.5833 8.45833 37.3802 8.50521 37.1719 8.54688C36.974 8.58854 36.7812 8.63542 36.5938 8.6875C36.4062 8.73958 36.2396 8.81771 36.0938 8.92188C36.0417 8.85938 35.9531 8.82812 35.8281 8.82812C35.6406 8.82812 35.4531 8.86458 35.2656 8.9375C35.0781 9 34.8906 9.03646 34.7031 9.04688V9.15625C34.7031 9.32292 34.7083 9.48958 34.7188 9.65625C34.7292 9.82292 34.7344 9.98958 34.7344 10.1562C34.7344 10.2396 34.7292 10.3177 34.7188 10.3906C34.7188 10.4635 34.7135 10.5365 34.7031 10.6094C34.6823 10.724 34.651 10.7917 34.6094 10.8125C34.5781 10.8333 34.5469 10.875 34.5156 10.9375C34.4948 11.0104 34.4792 11.0781 34.4688 11.1406C34.4688 11.2031 34.4583 11.2656 34.4375 11.3281C34.3854 11.4844 34.3125 11.6198 34.2188 11.7344C34.125 11.8385 34.0156 11.9375 33.8906 12.0312C33.776 12.125 33.6562 12.2188 33.5312 12.3125C33.4062 12.3958 33.2865 12.4844 33.1719 12.5781C33.1198 12.5781 33.099 12.6094 33.1094 12.6719C33.1198 12.724 33.1042 12.7656 33.0625 12.7969C32.9375 12.901 32.7708 13 32.5625 13.0938C32.3646 13.1875 32.1562 13.276 31.9375 13.3594C31.7188 13.4427 31.5 13.5312 31.2812 13.625C31.0729 13.7188 30.8854 13.8177 30.7188 13.9219C30.6458 13.8385 30.5573 13.7865 30.4531 13.7656C30.3594 13.7448 30.2656 13.7344 30.1719 13.7344C30.0052 13.7344 29.8333 13.7604 29.6562 13.8125C29.6458 13.75 29.6198 13.7031 29.5781 13.6719C29.5365 13.6302 29.4844 13.6042 29.4219 13.5938C29.3698 13.5729 29.3125 13.5573 29.25 13.5469C29.1875 13.5365 29.1302 13.526 29.0781 13.5156C28.8385 13.276 28.6719 12.9792 28.5781 12.625C28.4948 12.2604 28.4531 11.9115 28.4531 11.5781C28.4531 11.2031 28.5 10.8438 28.5938 10.5C28.6771 10.4792 28.7448 10.4323 28.7969 10.3594C28.8594 10.2865 28.9167 10.2188 28.9688 10.1562V9.76562C29.1771 9.63021 29.3177 9.45312 29.3906 9.23438C29.4635 9.01562 29.5521 8.80208 29.6562 8.59375C29.7604 8.38542 29.8854 8.19271 30.0312 8.01562C30.1771 7.83854 30.276 7.63542 30.3281 7.40625C30.4323 7.41667 30.4896 7.38542 30.5 7.3125C30.5208 7.22917 30.5573 7.15104 30.6094 7.07812C30.6719 7.02604 30.724 6.97396 30.7656 6.92188C30.8073 6.85938 30.8646 6.81771 30.9375 6.79688C30.9583 6.66146 31.0052 6.55729 31.0781 6.48438C31.1615 6.40104 31.2292 6.29688 31.2812 6.17188C31.4062 6.13021 31.5312 6.06771 31.6562 5.98438C31.7812 5.90104 31.901 5.81771 32.0156 5.73438C32.1406 5.65104 32.2604 5.57292 32.375 5.5C32.4896 5.42708 32.5938 5.375 32.6875 5.34375C32.7396 5.32292 32.8021 5.3125 32.875 5.3125C32.9479 5.30208 33.0104 5.29688 33.0625 5.29688C33.25 5.29688 33.4271 5.3125 33.5938 5.34375C33.7708 5.375 33.9531 5.39062 34.1406 5.39062C34.1823 5.48438 34.25 5.55208 34.3438 5.59375C34.4479 5.63542 34.5312 5.70312 34.5938 5.79688C34.5938 5.81771 34.5938 5.84375 34.5938 5.875C34.6042 5.90625 34.6094 5.9375 34.6094 5.96875C34.6094 6.01042 34.6042 6.05208 34.5938 6.09375C34.5938 6.13542 34.5938 6.18229 34.5938 6.23438C34.4792 6.33854 34.375 6.41146 34.2812 6.45312C34.1875 6.48438 34.0677 6.48958 33.9219 6.46875C33.9323 6.625 34.0052 6.75 34.1406 6.84375C34.276 6.92708 34.4323 6.98958 34.6094 7.03125C34.7969 7.0625 34.9844 7.08333 35.1719 7.09375C35.3698 7.10417 35.526 7.10938 35.6406 7.10938C35.849 7.10938 36.0677 7.09896 36.2969 7.07812C36.5365 7.04688 36.75 6.98958 36.9375 6.90625C36.9896 6.92708 37.0469 6.94271 37.1094 6.95312C37.1823 6.95312 37.2396 6.97917 37.2812 7.03125C37.3229 7 37.3646 6.96875 37.4062 6.9375C37.4583 6.89583 37.5104 6.875 37.5625 6.875C37.6042 6.875 37.6562 6.88542 37.7188 6.90625C37.8229 6.82292 37.9427 6.76562 38.0781 6.73438C38.224 6.69271 38.3698 6.67188 38.5156 6.67188C38.6719 6.66146 38.8229 6.65625 38.9688 6.65625C39.125 6.65625 39.2708 6.64583 39.4062 6.625C39.5417 6.60417 39.6823 6.56771 39.8281 6.51562L40.2656 6.34375C40.4115 6.28125 40.5521 6.22917 40.6875 6.1875C40.8333 6.13542 40.9688 6.10938 41.0938 6.10938C41.1875 6.10938 41.276 6.11979 41.3594 6.14062C41.4531 6.15104 41.5469 6.15625 41.6406 6.15625C41.6823 6.15625 41.7188 6.15625 41.75 6.15625C41.7812 6.14583 41.8177 6.13542 41.8594 6.125C41.9531 6.20833 42.0365 6.28125 42.1094 6.34375C42.1927 6.40625 42.2656 6.47396 42.3281 6.54688C42.3906 6.61979 42.4375 6.70312 42.4688 6.79688C42.5104 6.89062 42.5312 7.00521 42.5312 7.14062ZM45.9688 15.875C45.9688 16.0417 45.9583 16.2083 45.9375 16.375C45.9167 16.5417 45.9062 16.7083 45.9062 16.875C45.8229 16.9896 45.7604 17.1042 45.7188 17.2188C45.6875 17.3333 45.6354 17.4427 45.5625 17.5469C45.5 17.6406 45.4271 17.724 45.3438 17.7969C45.2604 17.8594 45.1719 17.9271 45.0781 18C44.9948 18.0729 44.9115 18.151 44.8281 18.2344C44.7448 18.3281 44.6771 18.4375 44.625 18.5625C44.3021 18.6562 44.0781 18.8438 43.9531 19.125C43.6302 19.2708 43.3177 19.4323 43.0156 19.6094C42.7135 19.7865 42.4271 19.9792 42.1562 20.1875C41.9792 20.1667 41.8646 20.1719 41.8125 20.2031C41.7708 20.2344 41.7135 20.3229 41.6406 20.4688C41.6094 20.4688 41.5781 20.4635 41.5469 20.4531C41.526 20.4531 41.5 20.4531 41.4688 20.4531C41.3125 20.4531 41.1458 20.4792 40.9688 20.5312C40.8021 20.5938 40.651 20.6667 40.5156 20.75C40.3385 20.75 40.1615 20.7552 39.9844 20.7656C39.8177 20.776 39.6458 20.7812 39.4688 20.7812C39.1875 20.7812 38.9167 20.7448 38.6562 20.6719C38.4062 20.6094 38.1875 20.4635 38 20.2344C37.9167 19.9323 37.8594 19.6302 37.8281 19.3281C37.8073 19.026 37.7865 18.7188 37.7656 18.4062C37.8594 18.1667 37.9688 17.9427 38.0938 17.7344C38.2292 17.526 38.3281 17.3021 38.3906 17.0625C38.4427 17.0417 38.4896 17.0156 38.5312 16.9844C38.5729 16.9427 38.6198 16.9062 38.6719 16.875C38.7135 16.6771 38.7865 16.5104 38.8906 16.375C39.0052 16.2292 39.125 16.099 39.25 15.9844C39.3854 15.8594 39.5104 15.7344 39.625 15.6094C39.75 15.4844 39.849 15.3333 39.9219 15.1562C40.0156 15.1458 40.0885 15.1198 40.1406 15.0781C40.2031 15.0365 40.2917 15.026 40.4062 15.0469C40.4896 15.0156 40.5365 14.9635 40.5469 14.8906C40.5677 14.8177 40.599 14.7552 40.6406 14.7031H40.7031C40.8698 14.7031 41.0104 14.6615 41.125 14.5781C41.2396 14.4844 41.3698 14.4375 41.5156 14.4375C41.5781 14.4375 41.6406 14.4531 41.7031 14.4844C41.8802 14.401 42.0469 14.3073 42.2031 14.2031C42.3594 14.0885 42.5312 13.9948 42.7188 13.9219C42.8021 13.9219 42.8854 13.9219 42.9688 13.9219C43.0625 13.9115 43.1562 13.9062 43.25 13.9062C43.5 13.9062 43.7292 13.9323 43.9375 13.9844C44.1562 14.0365 44.3646 14.1667 44.5625 14.375C44.8542 14.3958 45.0833 14.474 45.25 14.6094C45.4167 14.7448 45.5938 14.9062 45.7812 15.0938C45.8021 15.1771 45.8177 15.276 45.8281 15.3906C45.849 15.4948 45.8958 15.5781 45.9688 15.6406V15.875ZM44.4531 15.7969C44.4531 15.776 44.4479 15.7552 44.4375 15.7344C44.4375 15.7031 44.4375 15.6719 44.4375 15.6406C44.3021 15.5469 44.1615 15.4688 44.0156 15.4062C43.8698 15.3333 43.7135 15.2865 43.5469 15.2656C43.4844 15.349 43.4062 15.4167 43.3125 15.4688C43.2292 15.5104 43.1406 15.5521 43.0469 15.5938C42.9531 15.6354 42.8594 15.6823 42.7656 15.7344C42.6719 15.7865 42.5938 15.8542 42.5312 15.9375V16.0469C42.5312 16.1823 42.4948 16.3333 42.4219 16.5C42.2969 16.5 42.1979 16.5208 42.125 16.5625C42.0625 16.6042 42.0104 16.6615 41.9688 16.7344C41.9271 16.8073 41.8906 16.8854 41.8594 16.9688C41.8281 17.0521 41.7917 17.1354 41.75 17.2188C41.5729 17.1667 41.4167 17.0833 41.2812 16.9688C41.1458 16.8438 40.9896 16.7604 40.8125 16.7188C40.6979 16.8021 40.5938 16.8958 40.5 17C40.4167 17.0938 40.2917 17.151 40.125 17.1719C40.0938 17.3385 40.0469 17.5052 39.9844 17.6719C39.9219 17.8281 39.8594 17.9896 39.7969 18.1562C39.7344 18.3229 39.6771 18.4896 39.625 18.6562C39.5833 18.8229 39.5625 18.9948 39.5625 19.1719V19.2969C39.6458 19.3177 39.7031 19.3542 39.7344 19.4062C39.776 19.4583 39.8385 19.4948 39.9219 19.5156C40.0677 19.4948 40.2083 19.4531 40.3438 19.3906C40.4896 19.3385 40.6302 19.2812 40.7656 19.2188C40.9115 19.1562 41.0521 19.099 41.1875 19.0469C41.3333 19.0052 41.4844 18.974 41.6406 18.9531C41.6615 18.901 41.6875 18.8438 41.7188 18.7812C41.75 18.7292 41.7969 18.6927 41.8594 18.6719C41.9531 18.6719 42.0521 18.6458 42.1562 18.5938C42.2604 18.5521 42.3646 18.4948 42.4688 18.4219C42.5729 18.3594 42.6771 18.2969 42.7812 18.2344C42.8854 18.1719 42.9896 18.1302 43.0938 18.1094C43.1771 17.9635 43.2656 17.8542 43.3594 17.7812C43.4635 17.6979 43.599 17.6562 43.7656 17.6562C43.9531 17.4167 44.1146 17.125 44.25 16.7812C44.3854 16.4375 44.4531 16.1094 44.4531 15.7969ZM33.2969 9.8125V9.76562C33.2031 9.64062 33.1562 9.51042 33.1562 9.375C33.1562 9.32292 33.1562 9.27604 33.1562 9.23438C33.1667 9.19271 33.1719 9.14583 33.1719 9.09375C33.1719 9.05208 33.1562 9.01042 33.125 8.96875C33.0938 8.91667 33.0573 8.86458 33.0156 8.8125C32.9844 8.76042 32.9531 8.69792 32.9219 8.625C32.901 8.55208 32.8958 8.46875 32.9062 8.375C32.8125 8.34375 32.7292 8.29688 32.6562 8.23438C32.5938 8.16146 32.5312 8.08854 32.4688 8.01562C32.4167 7.94271 32.3594 7.88021 32.2969 7.82812C32.2344 7.76562 32.1562 7.73438 32.0625 7.73438C31.9896 7.73438 31.9375 7.73958 31.9062 7.75C31.8021 7.91667 31.6927 8.05729 31.5781 8.17188C31.474 8.27604 31.4115 8.43229 31.3906 8.64062C31.1823 8.75521 31.0469 8.91146 30.9844 9.10938C30.9323 9.30729 30.8802 9.51042 30.8281 9.71875C30.7656 9.73958 30.724 9.77083 30.7031 9.8125C30.6927 9.84375 30.6458 9.84896 30.5625 9.82812C30.5104 10.1094 30.4375 10.3906 30.3438 10.6719C30.25 10.9427 30.2031 11.224 30.2031 11.5156C30.2031 11.9323 30.3958 12.2135 30.7812 12.3594C30.8333 12.3177 30.8802 12.276 30.9219 12.2344C30.9635 12.1927 31.0208 12.1719 31.0938 12.1719C31.1458 12.1719 31.1771 12.1927 31.1875 12.2344C31.2083 12.2656 31.2448 12.2812 31.2969 12.2812H31.3438C31.4375 12.2292 31.5208 12.1771 31.5938 12.125L31.8125 11.9531C31.8854 11.8906 31.9688 11.8438 32.0625 11.8125C32.1562 11.7708 32.2656 11.7448 32.3906 11.7344C32.4635 11.6094 32.5469 11.4896 32.6406 11.375C32.7448 11.2604 32.8385 11.1458 32.9219 11.0312C33.0052 10.9167 33.0781 10.7969 33.1406 10.6719C33.2031 10.5469 33.2344 10.401 33.2344 10.2344C33.2344 10.1823 33.224 10.1354 33.2031 10.0938C33.1823 10.0417 33.1719 9.98958 33.1719 9.9375C33.1719 9.89583 33.1927 9.875 33.2344 9.875C33.276 9.875 33.2969 9.85417 33.2969 9.8125ZM63.7344 8.95312C63.6719 9.04688 63.6354 9.15104 63.625 9.26562C63.6146 9.38021 63.6094 9.48438 63.6094 9.57812C63.6094 9.70312 63.6094 9.82812 63.6094 9.95312C63.6198 10.0677 63.625 10.1823 63.625 10.2969V10.5312C63.6042 10.6042 63.5729 10.6771 63.5312 10.75C63.4896 10.8229 63.4583 10.8958 63.4375 10.9688C63.2917 11.3542 63.2188 11.7396 63.2188 12.125V12.1562C63.1667 12.2812 63.1146 12.3958 63.0625 12.5C63.0208 12.6042 62.9792 12.7083 62.9375 12.8125C62.8958 12.9062 62.8646 13.0104 62.8438 13.125C62.8229 13.2292 62.8177 13.3542 62.8281 13.5C62.6823 13.8646 62.4896 14.1979 62.25 14.5C62.0104 14.7917 61.776 15.0938 61.5469 15.4062C61.3281 15.4896 61.125 15.599 60.9375 15.7344C60.7604 15.8698 60.5885 16.0208 60.4219 16.1875C60.099 16.2917 59.7812 16.4115 59.4688 16.5469C59.1562 16.6823 58.875 16.8646 58.625 17.0938C58.4271 17.1146 58.2292 17.1458 58.0312 17.1875C57.8333 17.2292 57.6406 17.2917 57.4531 17.375H57.2656C57.1719 17.375 57.1042 17.3542 57.0625 17.3125C56.9271 17.3854 56.7865 17.4375 56.6406 17.4688C56.4948 17.4896 56.349 17.5 56.2031 17.5C56.0156 17.5 55.8281 17.4896 55.6406 17.4688C55.4635 17.4375 55.2812 17.4062 55.0938 17.375C54.9896 17.2292 54.8438 17.1198 54.6562 17.0469C54.4688 16.9635 54.3021 16.8854 54.1562 16.8125C53.8542 16.3958 53.6354 15.9948 53.5 15.6094C53.3646 15.2135 53.224 14.7708 53.0781 14.2812C53.099 14.1354 53.1354 13.9948 53.1875 13.8594C53.2396 13.7135 53.2604 13.5573 53.25 13.3906C53.4375 12.849 53.6823 12.3594 53.9844 11.9219C54.2969 11.474 54.651 11.0469 55.0469 10.6406C55.0469 10.5781 55.0573 10.526 55.0781 10.4844C55.1094 10.4427 55.1146 10.3802 55.0938 10.2969C55.1042 10.3073 55.125 10.3125 55.1562 10.3125C55.2396 10.3125 55.2917 10.2917 55.3125 10.25C55.3333 10.1979 55.3385 10.1406 55.3281 10.0781C55.7031 9.83854 56.0417 9.5625 56.3438 9.25C56.6562 8.9375 57.0104 8.67708 57.4062 8.46875C57.4375 8.375 57.4896 8.29688 57.5625 8.23438C57.6354 8.17188 57.6927 8.09896 57.7344 8.01562C58.0677 7.92188 58.3698 7.78125 58.6406 7.59375C58.9115 7.40625 59.1979 7.23958 59.5 7.09375C59.6667 7 59.8229 6.9375 59.9688 6.90625C60.125 6.86458 60.2917 6.82292 60.4688 6.78125C60.5312 6.76042 60.5885 6.74479 60.6406 6.73438C60.6927 6.72396 60.75 6.71875 60.8125 6.71875C61 6.71875 61.1823 6.75521 61.3594 6.82812C61.5365 6.89062 61.7188 6.92188 61.9062 6.92188C61.9583 6.92188 62 6.92188 62.0312 6.92188C62.0729 6.91146 62.1146 6.90104 62.1562 6.89062C62.3333 7.10938 62.5573 7.27604 62.8281 7.39062C62.8906 7.54688 62.9635 7.68229 63.0469 7.79688C63.1406 7.91146 63.2344 8.02604 63.3281 8.14062C63.4219 8.24479 63.5052 8.36458 63.5781 8.5C63.6615 8.625 63.7135 8.77604 63.7344 8.95312ZM62.1719 9.76562C62.1719 9.71354 62.1667 9.66667 62.1562 9.625C62.0521 9.59375 61.9531 9.55208 61.8594 9.5C61.7656 9.44792 61.6615 9.42188 61.5469 9.42188C61.474 9.42188 61.401 9.4375 61.3281 9.46875C61.3177 9.39583 61.2865 9.34375 61.2344 9.3125C61.1927 9.28125 61.1406 9.25521 61.0781 9.23438C61.026 9.20312 60.9688 9.18229 60.9062 9.17188C60.8542 9.15104 60.8073 9.11979 60.7656 9.07812C60.7344 8.99479 60.6979 8.91146 60.6562 8.82812C60.625 8.73438 60.5625 8.66667 60.4688 8.625C60.375 8.71875 60.2656 8.79688 60.1406 8.85938C60.0156 8.91146 59.8854 8.96354 59.75 9.01562C59.625 9.06771 59.5 9.13021 59.375 9.20312C59.2604 9.27604 59.1615 9.36458 59.0781 9.46875H58.7969C58.7344 9.58333 58.6458 9.67188 58.5312 9.73438C58.4167 9.78646 58.3177 9.86458 58.2344 9.96875C58.0677 10.0521 57.9115 10.1562 57.7656 10.2812C57.6302 10.3958 57.4948 10.5208 57.3594 10.6562C57.224 10.7812 57.0885 10.9115 56.9531 11.0469C56.8281 11.1823 56.6927 11.3073 56.5469 11.4219C56.4115 11.7135 56.2604 11.9688 56.0938 12.1875C55.9375 12.3958 55.7865 12.6094 55.6406 12.8281C55.5052 13.0469 55.3854 13.2865 55.2812 13.5469C55.1875 13.7969 55.1406 14.1094 55.1406 14.4844V14.6406C55.1406 14.6927 55.1458 14.7448 55.1562 14.7969C55.2917 14.9427 55.401 15.099 55.4844 15.2656C55.5781 15.4323 55.7292 15.5521 55.9375 15.625C56.1458 15.7083 56.3646 15.7448 56.5938 15.7344C56.8333 15.724 57.0625 15.75 57.2812 15.8125C57.7812 15.7188 58.2604 15.5677 58.7188 15.3594C59.1875 15.1406 59.6302 14.8802 60.0469 14.5781C60.1094 14.526 60.1823 14.474 60.2656 14.4219C60.349 14.3594 60.4167 14.2969 60.4688 14.2344C60.5208 14.1823 60.5625 14.125 60.5938 14.0625C60.6354 14 60.6771 13.9427 60.7188 13.8906C60.8021 13.7552 60.8958 13.6198 61 13.4844C61.1042 13.349 61.2135 13.224 61.3281 13.1094C61.3802 12.8802 61.4479 12.6615 61.5312 12.4531C61.6146 12.2344 61.6979 12.0208 61.7812 11.8125C61.8646 11.6042 61.9323 11.3906 61.9844 11.1719C62.0469 10.9531 62.0781 10.724 62.0781 10.4844C62.0781 10.4323 62.0729 10.375 62.0625 10.3125C62.0625 10.25 62.0573 10.1927 62.0469 10.1406C62.1302 10.026 62.1719 9.90104 62.1719 9.76562ZM77.7188 7.90625C77.7188 7.96875 77.6875 8.02083 77.625 8.0625C77.5729 8.10417 77.5104 8.14583 77.4375 8.1875C77.375 8.22917 77.3073 8.27604 77.2344 8.32812C77.1719 8.38021 77.1302 8.44271 77.1094 8.51562H76.9688C76.9062 8.51562 76.875 8.53646 76.875 8.57812H76.8281C76.7344 8.57812 76.6719 8.55208 76.6406 8.5C76.6094 8.4375 76.5417 8.40625 76.4375 8.40625C76.1771 8.40625 75.9167 8.41146 75.6562 8.42188C75.4062 8.42188 75.151 8.42708 74.8906 8.4375C74.1719 8.4375 73.4635 8.46354 72.7656 8.51562C72.0781 8.55729 71.3958 8.70312 70.7188 8.95312C70.6979 8.96354 70.6719 8.96875 70.6406 8.96875C70.5885 8.96875 70.5573 8.94792 70.5469 8.90625C70.5469 8.86458 70.5208 8.84375 70.4688 8.84375C70.3229 8.84375 70.1875 8.85938 70.0625 8.89062C69.9375 8.92188 69.8021 8.94271 69.6562 8.95312C69.4896 9.09896 69.2969 9.21875 69.0781 9.3125C68.8698 9.40625 68.651 9.5 68.4219 9.59375C68.2031 9.67708 67.9896 9.77083 67.7812 9.875C67.5729 9.96875 67.3906 10.0938 67.2344 10.25C67.2552 10.375 67.2708 10.5 67.2812 10.625C67.3021 10.7396 67.3125 10.8542 67.3125 10.9688C67.3125 11.4167 67.2708 11.8594 67.1875 12.2969C67.1042 12.724 67.0625 13.1562 67.0625 13.5938V13.8281C67.0625 13.901 67.0677 13.9792 67.0781 14.0625C67.099 14.1146 67.1354 14.151 67.1875 14.1719C67.25 14.1823 67.3021 14.2031 67.3438 14.2344C67.4792 14.1406 67.6146 14.0677 67.75 14.0156C67.8958 13.9531 68.0417 13.8958 68.1875 13.8438C68.3438 13.7812 68.4896 13.724 68.625 13.6719C68.7708 13.6094 68.9115 13.5365 69.0469 13.4531H69.4844C69.599 13.3698 69.7344 13.3073 69.8906 13.2656C70.0469 13.224 70.151 13.1302 70.2031 12.9844C70.224 13.0052 70.2448 13.0156 70.2656 13.0156H70.3281C70.4531 13.0156 70.5781 12.9896 70.7031 12.9375C70.8385 12.8854 70.974 12.8333 71.1094 12.7812C71.2448 12.7188 71.3802 12.6615 71.5156 12.6094C71.651 12.5573 71.7917 12.5312 71.9375 12.5312C71.9688 12.5312 71.9948 12.5365 72.0156 12.5469C72.0469 12.5469 72.0781 12.5469 72.1094 12.5469C72.1719 12.4427 72.2604 12.3646 72.375 12.3125C72.4896 12.25 72.6094 12.1979 72.7344 12.1562C72.8594 12.1146 72.9844 12.0729 73.1094 12.0312C73.2448 11.9896 73.3594 11.9375 73.4531 11.875H73.5156C73.5781 11.875 73.625 11.8906 73.6562 11.9219C73.6979 11.9427 73.7448 11.9635 73.7969 11.9844C74.0885 11.7969 74.3854 11.7031 74.6875 11.7031C75 11.6927 75.3229 11.6719 75.6562 11.6406C75.7292 11.7656 75.7917 11.8698 75.8438 11.9531C75.9062 12.026 75.9375 12.1354 75.9375 12.2812C75.9375 12.3542 75.9323 12.4062 75.9219 12.4375C75.8073 12.4792 75.7188 12.5156 75.6562 12.5469L75.4844 12.6406C75.4323 12.6615 75.3698 12.6823 75.2969 12.7031C75.224 12.7135 75.1198 12.7188 74.9844 12.7188C74.901 12.7188 74.8646 12.7448 74.875 12.7969C74.8854 12.8385 74.8594 12.8646 74.7969 12.875C74.651 12.9271 74.5052 12.9688 74.3594 13C74.2135 13.0312 74.0677 13.0729 73.9219 13.125C73.6198 13.2188 73.3177 13.3229 73.0156 13.4375C72.724 13.5417 72.4219 13.625 72.1094 13.6875C71.849 13.8958 71.5677 14.0677 71.2656 14.2031C70.9635 14.3281 70.651 14.4323 70.3281 14.5156C69.9844 14.7656 69.6458 15 69.3125 15.2188C68.9792 15.4271 68.6042 15.6042 68.1875 15.75C68.1354 15.8021 68.0729 15.849 68 15.8906C67.9271 15.9323 67.8802 15.9948 67.8594 16.0781C67.8385 16.0781 67.8125 16.0781 67.7812 16.0781C67.7604 16.0677 67.7344 16.0625 67.7031 16.0625C67.5573 16.0625 67.4427 16.099 67.3594 16.1719C67.2865 16.2344 67.1927 16.276 67.0781 16.2969C67.026 16.4531 67 16.5885 67 16.7031C67 16.849 67.026 16.9792 67.0781 17.0938C67.1302 17.2083 67.1927 17.3177 67.2656 17.4219C67.349 17.526 67.4323 17.6302 67.5156 17.7344C67.6094 17.8281 67.6875 17.9323 67.75 18.0469C67.7292 18.1719 67.6875 18.2708 67.625 18.3438C67.5729 18.4271 67.5104 18.5 67.4375 18.5625C67.3646 18.6354 67.2917 18.7083 67.2188 18.7812C67.1562 18.8542 67.1094 18.9479 67.0781 19.0625C66.8906 19.0938 66.7083 19.1094 66.5312 19.1094C66.4167 19.1094 66.2969 19.0938 66.1719 19.0625C66.0573 19.0417 65.9479 19 65.8438 18.9375C65.6771 18.7083 65.5573 18.4635 65.4844 18.2031C65.4219 17.9427 65.3333 17.6823 65.2188 17.4219L65.2344 17.3125C65.2344 17.0833 65.1927 16.8854 65.1094 16.7188C65.0365 16.5417 64.9219 16.3646 64.7656 16.1875C64.776 16.1667 64.7812 16.1302 64.7812 16.0781C64.7812 15.9427 64.7396 15.8177 64.6562 15.7031C64.6771 15.4635 64.7396 15.276 64.8438 15.1406C64.9583 15.0052 65.0833 14.8542 65.2188 14.6875V14.5C65.2188 14.0521 65.2552 13.6146 65.3281 13.1875C65.4115 12.75 65.4531 12.3125 65.4531 11.875C65.4531 11.6042 65.4323 11.3646 65.3906 11.1562C65.3594 11.1458 65.3177 11.1406 65.2656 11.1406C65.2135 11.1406 65.1719 11.1562 65.1406 11.1875C65.1094 11.2083 65.0833 11.2344 65.0625 11.2656C65.0417 11.2969 65.0156 11.3281 64.9844 11.3594C64.9635 11.3906 64.9271 11.4115 64.875 11.4219C64.6979 11.3906 64.5833 11.3073 64.5312 11.1719C64.4792 11.0365 64.4531 10.8854 64.4531 10.7188C64.4531 10.625 64.4583 10.5312 64.4688 10.4375C64.4792 10.3438 64.4896 10.2448 64.5 10.1406C64.8958 9.70312 65.3698 9.29688 65.9219 8.92188C66.474 8.54688 67.0208 8.24479 67.5625 8.01562C67.5938 8.00521 67.6302 8 67.6719 8C67.7135 8 67.75 8.01042 67.7812 8.03125C67.8125 8.04167 67.849 8.04688 67.8906 8.04688C67.9219 8.04688 67.9479 8.03646 67.9688 8.01562C68.0729 8.01562 68.1458 7.98438 68.1875 7.92188C68.2292 7.85938 68.2865 7.79688 68.3594 7.73438C68.4323 7.78646 68.4948 7.8125 68.5469 7.8125C68.651 7.8125 68.7552 7.76562 68.8594 7.67188C68.9635 7.57812 69.0781 7.52083 69.2031 7.5C69.6823 7.41667 70.151 7.34896 70.6094 7.29688C71.0781 7.24479 71.5417 7.125 72 6.9375C72.1042 6.98958 72.2083 7.02083 72.3125 7.03125C72.4167 7.04167 72.5208 7.04688 72.625 7.04688C72.7396 7.04688 72.8646 7.03646 73 7.01562C73.1458 6.98438 73.2604 6.92188 73.3438 6.82812C73.6771 6.86979 74.0312 6.88542 74.4062 6.875C74.7917 6.86458 75.1719 6.86979 75.5469 6.89062C75.9323 6.91146 76.3021 6.96354 76.6562 7.04688C77.0104 7.13021 77.3229 7.28125 77.5938 7.5C77.6146 7.57292 77.6406 7.64062 77.6719 7.70312C77.7031 7.76562 77.7188 7.83333 77.7188 7.90625ZM89.7031 7.90625C89.7031 7.96875 89.6719 8.02083 89.6094 8.0625C89.5573 8.10417 89.4948 8.14583 89.4219 8.1875C89.3594 8.22917 89.2917 8.27604 89.2188 8.32812C89.1562 8.38021 89.1146 8.44271 89.0938 8.51562H88.9531C88.8906 8.51562 88.8594 8.53646 88.8594 8.57812H88.8125C88.7188 8.57812 88.6562 8.55208 88.625 8.5C88.5938 8.4375 88.526 8.40625 88.4219 8.40625C88.1615 8.40625 87.901 8.41146 87.6406 8.42188C87.3906 8.42188 87.1354 8.42708 86.875 8.4375C86.1562 8.4375 85.4479 8.46354 84.75 8.51562C84.0625 8.55729 83.3802 8.70312 82.7031 8.95312C82.6823 8.96354 82.6562 8.96875 82.625 8.96875C82.5729 8.96875 82.5417 8.94792 82.5312 8.90625C82.5312 8.86458 82.5052 8.84375 82.4531 8.84375C82.3073 8.84375 82.1719 8.85938 82.0469 8.89062C81.9219 8.92188 81.7865 8.94271 81.6406 8.95312C81.474 9.09896 81.2812 9.21875 81.0625 9.3125C80.8542 9.40625 80.6354 9.5 80.4062 9.59375C80.1875 9.67708 79.974 9.77083 79.7656 9.875C79.5573 9.96875 79.375 10.0938 79.2188 10.25C79.2396 10.375 79.2552 10.5 79.2656 10.625C79.2865 10.7396 79.2969 10.8542 79.2969 10.9688C79.2969 11.4167 79.2552 11.8594 79.1719 12.2969C79.0885 12.724 79.0469 13.1562 79.0469 13.5938V13.8281C79.0469 13.901 79.0521 13.9792 79.0625 14.0625C79.0833 14.1146 79.1198 14.151 79.1719 14.1719C79.2344 14.1823 79.2865 14.2031 79.3281 14.2344C79.4635 14.1406 79.599 14.0677 79.7344 14.0156C79.8802 13.9531 80.026 13.8958 80.1719 13.8438C80.3281 13.7812 80.474 13.724 80.6094 13.6719C80.7552 13.6094 80.8958 13.5365 81.0312 13.4531H81.4688C81.5833 13.3698 81.7188 13.3073 81.875 13.2656C82.0312 13.224 82.1354 13.1302 82.1875 12.9844C82.2083 13.0052 82.2292 13.0156 82.25 13.0156H82.3125C82.4375 13.0156 82.5625 12.9896 82.6875 12.9375C82.8229 12.8854 82.9583 12.8333 83.0938 12.7812C83.2292 12.7188 83.3646 12.6615 83.5 12.6094C83.6354 12.5573 83.776 12.5312 83.9219 12.5312C83.9531 12.5312 83.9792 12.5365 84 12.5469C84.0312 12.5469 84.0625 12.5469 84.0938 12.5469C84.1562 12.4427 84.2448 12.3646 84.3594 12.3125C84.474 12.25 84.5938 12.1979 84.7188 12.1562C84.8438 12.1146 84.9688 12.0729 85.0938 12.0312C85.2292 11.9896 85.3438 11.9375 85.4375 11.875H85.5C85.5625 11.875 85.6094 11.8906 85.6406 11.9219C85.6823 11.9427 85.7292 11.9635 85.7812 11.9844C86.0729 11.7969 86.3698 11.7031 86.6719 11.7031C86.9844 11.6927 87.3073 11.6719 87.6406 11.6406C87.7135 11.7656 87.776 11.8698 87.8281 11.9531C87.8906 12.026 87.9219 12.1354 87.9219 12.2812C87.9219 12.3542 87.9167 12.4062 87.9062 12.4375C87.7917 12.4792 87.7031 12.5156 87.6406 12.5469L87.4688 12.6406C87.4167 12.6615 87.3542 12.6823 87.2812 12.7031C87.2083 12.7135 87.1042 12.7188 86.9688 12.7188C86.8854 12.7188 86.849 12.7448 86.8594 12.7969C86.8698 12.8385 86.8438 12.8646 86.7812 12.875C86.6354 12.9271 86.4896 12.9688 86.3438 13C86.1979 13.0312 86.0521 13.0729 85.9062 13.125C85.6042 13.2188 85.3021 13.3229 85 13.4375C84.7083 13.5417 84.4062 13.625 84.0938 13.6875C83.8333 13.8958 83.5521 14.0677 83.25 14.2031C82.9479 14.3281 82.6354 14.4323 82.3125 14.5156C81.9688 14.7656 81.6302 15 81.2969 15.2188C80.9635 15.4271 80.5885 15.6042 80.1719 15.75C80.1198 15.8021 80.0573 15.849 79.9844 15.8906C79.9115 15.9323 79.8646 15.9948 79.8438 16.0781C79.8229 16.0781 79.7969 16.0781 79.7656 16.0781C79.7448 16.0677 79.7188 16.0625 79.6875 16.0625C79.5417 16.0625 79.4271 16.099 79.3438 16.1719C79.2708 16.2344 79.1771 16.276 79.0625 16.2969C79.0104 16.4531 78.9844 16.5885 78.9844 16.7031C78.9844 16.849 79.0104 16.9792 79.0625 17.0938C79.1146 17.2083 79.1771 17.3177 79.25 17.4219C79.3333 17.526 79.4167 17.6302 79.5 17.7344C79.5938 17.8281 79.6719 17.9323 79.7344 18.0469C79.7135 18.1719 79.6719 18.2708 79.6094 18.3438C79.5573 18.4271 79.4948 18.5 79.4219 18.5625C79.349 18.6354 79.276 18.7083 79.2031 18.7812C79.1406 18.8542 79.0938 18.9479 79.0625 19.0625C78.875 19.0938 78.6927 19.1094 78.5156 19.1094C78.401 19.1094 78.2812 19.0938 78.1562 19.0625C78.0417 19.0417 77.9323 19 77.8281 18.9375C77.6615 18.7083 77.5417 18.4635 77.4688 18.2031C77.4062 17.9427 77.3177 17.6823 77.2031 17.4219L77.2188 17.3125C77.2188 17.0833 77.1771 16.8854 77.0938 16.7188C77.0208 16.5417 76.9062 16.3646 76.75 16.1875C76.7604 16.1667 76.7656 16.1302 76.7656 16.0781C76.7656 15.9427 76.724 15.8177 76.6406 15.7031C76.6615 15.4635 76.724 15.276 76.8281 15.1406C76.9427 15.0052 77.0677 14.8542 77.2031 14.6875V14.5C77.2031 14.0521 77.2396 13.6146 77.3125 13.1875C77.3958 12.75 77.4375 12.3125 77.4375 11.875C77.4375 11.6042 77.4167 11.3646 77.375 11.1562C77.3438 11.1458 77.3021 11.1406 77.25 11.1406C77.1979 11.1406 77.1562 11.1562 77.125 11.1875C77.0938 11.2083 77.0677 11.2344 77.0469 11.2656C77.026 11.2969 77 11.3281 76.9688 11.3594C76.9479 11.3906 76.9115 11.4115 76.8594 11.4219C76.6823 11.3906 76.5677 11.3073 76.5156 11.1719C76.4635 11.0365 76.4375 10.8854 76.4375 10.7188C76.4375 10.625 76.4427 10.5312 76.4531 10.4375C76.4635 10.3438 76.474 10.2448 76.4844 10.1406C76.8802 9.70312 77.3542 9.29688 77.9062 8.92188C78.4583 8.54688 79.0052 8.24479 79.5469 8.01562C79.5781 8.00521 79.6146 8 79.6562 8C79.6979 8 79.7344 8.01042 79.7656 8.03125C79.7969 8.04167 79.8333 8.04688 79.875 8.04688C79.9062 8.04688 79.9323 8.03646 79.9531 8.01562C80.0573 8.01562 80.1302 7.98438 80.1719 7.92188C80.2135 7.85938 80.2708 7.79688 80.3438 7.73438C80.4167 7.78646 80.4792 7.8125 80.5312 7.8125C80.6354 7.8125 80.7396 7.76562 80.8438 7.67188C80.9479 7.57812 81.0625 7.52083 81.1875 7.5C81.6667 7.41667 82.1354 7.34896 82.5938 7.29688C83.0625 7.24479 83.526 7.125 83.9844 6.9375C84.0885 6.98958 84.1927 7.02083 84.2969 7.03125C84.401 7.04167 84.5052 7.04688 84.6094 7.04688C84.724 7.04688 84.849 7.03646 84.9844 7.01562C85.1302 6.98438 85.2448 6.92188 85.3281 6.82812C85.6615 6.86979 86.0156 6.88542 86.3906 6.875C86.776 6.86458 87.1562 6.86979 87.5312 6.89062C87.9167 6.91146 88.2865 6.96354 88.6406 7.04688C88.9948 7.13021 89.3073 7.28125 89.5781 7.5C89.599 7.57292 89.625 7.64062 89.6562 7.70312C89.6875 7.76562 89.7031 7.83333 89.7031 7.90625Z" fill="#6F73D2"/>
<g clip-path="url(#clip0)">
<path d="M0.0367627 62.7324C0.937235 60.1387 2.32258 57.6744 3.50023 55.2103C3.63877 54.8861 4.19291 54.8861 4.40071 55.0806C5.57813 56.2478 6.89421 57.4151 7.65626 58.8417H7.72553C16.1761 59.4253 24.3496 52.6812 30.1681 47.753C36.887 42.1114 42.9825 35.2377 45.4069 27.0023C45.5454 25.9648 45.6839 24.8624 45.6839 23.76C45.6839 23.2412 46.4459 23.2412 46.5151 23.76C46.5151 23.9545 46.5151 24.1491 46.5151 24.3436C46.7922 24.3436 47 24.5382 47 24.8624C46.9307 25.5757 46.7229 26.289 46.5844 27.0023C46.0303 44.5756 27.3281 61.5004 9.0416 62.6027C9.66501 63.6403 10.219 64.7425 10.9117 65.7802C11.2582 66.234 10.7039 66.6879 10.219 66.6231C6.75568 66.1693 3.63865 64.6129 0.452365 63.4457C0.17541 63.3809 -0.101658 63.1215 0.0367627 62.7324ZM9.31867 65.3263C8.90296 64.4833 8.626 63.6403 8.14113 62.7973C8.00249 62.4729 8.2104 62.2137 8.4182 62.1488C8.4182 61.9543 8.55674 61.8245 8.76454 61.7597C25.3194 59.1659 38.7572 48.596 43.7444 34.2649C40.4889 39.9065 35.5017 44.8348 30.5837 48.985C26.9818 52.0328 23.1721 54.7563 19.0161 57.0259C15.7605 58.7767 11.6738 60.3979 7.93333 59.2956C8.14113 59.8144 7.30993 60.0737 7.03286 59.6847C6.13239 58.5823 5.23191 57.5448 4.26217 56.5721C3.29255 58.5823 2.25342 60.5924 1.4916 62.6675C4.05437 63.5754 6.61725 64.7427 9.31867 65.3263Z" fill="#6F73D2"/>
</g>
<defs>
<clipPath id="clip0">
<rect width="47" height="44" fill="white" transform="matrix(-1 0 0 1 47 23)"/>
</clipPath>
</defs>
</svg>
