<svg width="36" height="36" viewBox="0 0 36 36" fill="none" xmlns="http://www.w3.org/2000/svg">
<rect width="36" height="36" rx="3" fill="#E7F7F2"/>
<g clip-path="url(#clip0)">
<rect width="24" height="24" transform="translate(6 6)" fill="#E7F7F2"/>
<path d="M14.3 19.5C14.4273 19.5003 14.5498 19.452 14.6427 19.365C14.7356 19.2781 14.7919 19.159 14.8 19.032C14.8519 18.15 14.9797 17.2741 15.182 16.414C15.2062 16.3135 15.1986 16.2081 15.1604 16.1121C15.1222 16.0161 15.0552 15.9343 14.9686 15.878C14.882 15.8216 14.78 15.7935 14.6768 15.7974C14.5735 15.8014 14.4741 15.8372 14.392 15.9C13.4271 16.6464 12.7373 17.6922 12.431 18.873C12.4119 18.9469 12.41 19.0241 12.4254 19.0989C12.4408 19.1736 12.4731 19.2438 12.5198 19.3041C12.5665 19.3645 12.6264 19.4133 12.6949 19.4469C12.7634 19.4805 12.8387 19.498 12.915 19.498L14.3 19.5Z" fill="#008A63"/>
<path d="M20.7 19.032C20.7081 19.159 20.7644 19.2781 20.8573 19.365C20.9502 19.452 21.0728 19.5003 21.2 19.5H22.589C22.6653 19.5 22.7406 19.4825 22.8091 19.4489C22.8776 19.4153 22.9375 19.3665 22.9842 19.3061C23.0309 19.2458 23.0632 19.1756 23.0786 19.1009C23.094 19.0261 23.0921 18.9489 23.073 18.875C22.766 17.6929 22.0748 16.6463 21.108 15.9C21.0261 15.8367 20.9267 15.8004 20.8233 15.7961C20.7199 15.7917 20.6177 15.8196 20.5308 15.8757C20.4439 15.9319 20.3766 16.0137 20.3381 16.1097C20.2997 16.2058 20.2919 16.3114 20.316 16.412C20.5192 17.2726 20.6477 18.1492 20.7 19.032Z" fill="#008A63"/>
<path d="M17.39 14.808C16.7181 16.0933 16.3423 17.5126 16.29 18.962C16.2848 19.0308 16.2938 19.0999 16.3166 19.165C16.3393 19.2301 16.3753 19.2899 16.4223 19.3404C16.4693 19.3909 16.5262 19.4312 16.5895 19.4587C16.6527 19.4861 16.721 19.5002 16.79 19.5H18.72C18.789 19.5002 18.8573 19.4861 18.9205 19.4587C18.9838 19.4312 19.0407 19.3909 19.0877 19.3404C19.1347 19.2899 19.1707 19.2301 19.1934 19.165C19.2162 19.0999 19.2252 19.0308 19.22 18.962C19.1677 17.5126 18.7919 16.0933 18.12 14.808C18.1123 14.7953 18.1016 14.7847 18.0889 14.777C18.0762 14.7694 18.0618 14.7649 18.047 14.764C17.947 14.757 17.857 14.75 17.76 14.75C17.663 14.75 17.568 14.757 17.473 14.764C17.4565 14.7632 17.4401 14.7669 17.4255 14.7746C17.4109 14.7824 17.3986 14.7939 17.39 14.808Z" fill="#008A63"/>
<path d="M14.807 21.465C14.7981 21.3386 14.7416 21.2202 14.6487 21.1339C14.5559 21.0475 14.4338 20.9997 14.307 21H12.915C12.8387 21 12.7634 21.0175 12.6949 21.0511C12.6264 21.0847 12.5665 21.1335 12.5198 21.1939C12.4731 21.2542 12.4408 21.3244 12.4254 21.3991C12.41 21.4739 12.4119 21.5511 12.431 21.625C12.7389 22.8192 13.4386 23.8755 14.418 24.625C14.5002 24.6881 14.5999 24.7241 14.7034 24.728C14.807 24.732 14.9092 24.7037 14.9959 24.647C15.0826 24.5904 15.1496 24.5082 15.1876 24.4118C15.2256 24.3154 15.2327 24.2096 15.208 24.109C14.9994 23.2407 14.8653 22.3561 14.807 21.465Z" fill="#008A63"/>
<path d="M18.1 25.708C18.7544 24.4117 19.1291 22.9924 19.2 21.542C19.2058 21.4729 19.1972 21.4033 19.1747 21.3377C19.1522 21.2721 19.1163 21.2119 19.0693 21.161C19.0223 21.11 18.9651 21.0694 18.9016 21.0417C18.838 21.0139 18.7694 20.9998 18.7 21H16.794C16.7247 20.9998 16.656 21.0139 16.5924 21.0417C16.5289 21.0694 16.4718 21.11 16.4247 21.161C16.3777 21.2119 16.3418 21.2721 16.3193 21.3377C16.2968 21.4033 16.2882 21.4729 16.294 21.542C16.3649 22.9924 16.7396 24.4117 17.394 25.708C17.3983 25.7158 17.4045 25.7224 17.412 25.7271C17.4195 25.7318 17.4281 25.7346 17.437 25.735C17.537 25.742 17.637 25.75 17.744 25.75C17.851 25.75 17.949 25.742 18.051 25.735C18.0609 25.7356 18.0708 25.7334 18.0794 25.7287C18.0881 25.7239 18.0953 25.7167 18.1 25.708Z" fill="#008A63"/>
<path d="M26.8 11.175C26.7109 11.1361 26.635 11.0721 26.5817 10.9907C26.5285 10.9094 26.5 10.8142 26.5 10.717V8C26.5 7.46957 26.2893 6.96086 25.9142 6.58579C25.5391 6.21071 25.0304 6 24.5 6H11.5C10.5717 6 9.6815 6.36875 9.02513 7.02513C8.36875 7.6815 8 8.57174 8 9.5V27C8 27.7956 8.31607 28.5587 8.87868 29.1213C9.44129 29.6839 10.2044 30 11 30H26C26.5304 30 27.0391 29.7893 27.4142 29.4142C27.7893 29.0391 28 28.5304 28 28V13C27.9993 12.612 27.8854 12.2327 27.6723 11.9085C27.4591 11.5843 27.156 11.3294 26.8 11.175ZM10 9.5C10 9.10218 10.158 8.72064 10.4393 8.43934C10.7206 8.15804 11.1022 8 11.5 8H24C24.1326 8 24.2598 8.05268 24.3536 8.14645C24.4473 8.24021 24.5 8.36739 24.5 8.5V10.5C24.5 10.6326 24.4473 10.7598 24.3536 10.8536C24.2598 10.9473 24.1326 11 24 11H11.5C11.1022 11 10.7206 10.842 10.4393 10.5607C10.158 10.2794 10 9.89782 10 9.5ZM17.75 27.25C16.3655 27.25 15.0122 26.8395 13.861 26.0703C12.7099 25.3011 11.8127 24.2079 11.2828 22.9288C10.753 21.6497 10.6144 20.2422 10.8845 18.8844C11.1546 17.5265 11.8213 16.2792 12.8003 15.3003C13.7792 14.3213 15.0265 13.6546 16.3844 13.3845C17.7422 13.1144 19.1497 13.253 20.4288 13.7828C21.7079 14.3127 22.8011 15.2099 23.5703 16.361C24.3395 17.5122 24.75 18.8655 24.75 20.25C24.7479 22.1059 24.0097 23.8851 22.6974 25.1974C21.3851 26.5097 19.6059 27.2479 17.75 27.25Z" fill="#008A63"/>
<path d="M21.191 21C21.0642 20.9997 20.9421 21.0475 20.8493 21.1339C20.7564 21.2202 20.6999 21.3386 20.691 21.465C20.6328 22.3544 20.499 23.2373 20.291 24.104C20.2663 24.2046 20.2734 24.3104 20.3114 24.4068C20.3494 24.5032 20.4164 24.5854 20.5031 24.642C20.5898 24.6987 20.692 24.727 20.7956 24.723C20.8991 24.7191 20.9988 24.6831 21.081 24.62C22.0604 23.8705 22.7601 22.8142 23.068 21.62C23.0862 21.5465 23.0874 21.4699 23.0717 21.3959C23.0559 21.3219 23.0236 21.2524 22.977 21.1927C22.9305 21.133 22.8711 21.0847 22.8032 21.0513C22.7353 21.0179 22.6607 21.0004 22.585 21H21.191Z" fill="#008A63"/>
</g>
<defs>
<clipPath id="clip0">
<rect width="24" height="24" fill="white" transform="translate(6 6)"/>
</clipPath>
</defs>
</svg>
