<svg width="100" height="100" viewBox="0 0 100 100" fill="none" xmlns="http://www.w3.org/2000/svg">
<path fill-rule="evenodd" clip-rule="evenodd" d="M50 100C77.6144 100 100 77.6144 100 50C100 22.3858 77.6144 0 50 0C22.3858 0 0 22.3858 0 50C0 77.6144 22.3858 100 50 100Z" fill="#EBF5FB"/>
<path fill-rule="evenodd" clip-rule="evenodd" d="M33.8889 47.1888C33.8889 55.97 40.9777 63.0889 49.7223 63.0889C58.4667 63.0889 65.5556 55.97 65.5556 47.1888V34.2333C65.5556 25.452 58.4667 18.3333 49.7223 18.3333C40.9777 18.3333 33.8889 25.452 33.8889 34.2333V47.1888ZM59.6911 47.1888C59.6911 52.7178 55.228 57.2 49.7223 57.2C44.2165 57.2 39.7531 52.7178 39.7531 47.1888V34.2333C39.7531 28.7043 44.2165 24.2221 49.7223 24.2221C55.228 24.2221 59.6911 28.7043 59.6911 34.2333V47.1888Z" fill="white"/>
<path d="M46.3889 24.1667C39.0126 25.0001 36.3892 30.2779 37.2226 43.3334H39.1667C38.8889 26.6667 41.6667 27.2223 46.3889 24.1667Z" fill="#B5D9F1"/>
<path d="M49.7223 62.5334C41.2868 62.5334 34.4445 55.6657 34.4445 47.1889H33.3334C33.3334 56.2751 40.6687 63.6445 49.7223 63.6445V62.5334ZM65 47.1889C65 55.6657 58.1578 62.5334 49.7223 62.5334V63.6445C58.7756 63.6445 66.1112 56.2751 66.1112 47.1889H65ZM65 34.2334V47.1889H66.1112V34.2334H65ZM49.7223 18.8889C58.1578 18.8889 65 25.7567 65 34.2334H66.1112C66.1112 25.1474 58.7756 17.7778 49.7223 17.7778V18.8889ZM34.4445 34.2334C34.4445 25.7567 41.2868 18.8889 49.7223 18.8889V17.7778C40.6687 17.7778 33.3334 25.1474 33.3334 34.2334H34.4445ZM34.4445 47.1889V34.2334H33.3334V47.1889H34.4445ZM49.7223 57.7557C55.5371 57.7557 60.2467 53.0225 60.2467 47.1889H59.1356C59.1356 52.4133 54.919 56.6445 49.7223 56.6445V57.7557ZM39.1976 47.1889C39.1976 53.0225 43.9074 57.7557 49.7223 57.7557V56.6445C44.5255 56.6445 40.3087 52.4133 40.3087 47.1889H39.1976ZM39.1976 34.2334V47.1889H40.3087V34.2334H39.1976ZM49.7223 23.6667C43.9074 23.6667 39.1976 28.3998 39.1976 34.2334H40.3087C40.3087 29.0091 44.5255 24.7778 49.7223 24.7778V23.6667ZM60.2467 34.2334C60.2467 28.3998 55.5371 23.6667 49.7223 23.6667V24.7778C54.919 24.7778 59.1356 29.0091 59.1356 34.2334H60.2467ZM60.2467 47.1889V34.2334H59.1356V47.1889H60.2467Z" fill="#264887"/>
<path fill-rule="evenodd" clip-rule="evenodd" d="M27.7778 46.1111C27.7778 44.8839 28.7728 43.8889 30.0001 43.8889H70.0001C71.2273 43.8889 72.2223 44.8839 72.2223 46.1111V75C72.2223 76.2272 71.2273 77.2222 70.0001 77.2222H30.0001C28.7728 77.2222 27.7778 76.2272 27.7778 75V46.1111Z" fill="white" stroke="#264887" stroke-width="1.25" stroke-linecap="round" stroke-dasharray="92 7 1 4"/>
<path d="M31.625 71.9443V44.5122L30.0001 44.5122C29.0796 44.5122 28.3334 45.1905 28.3334 46.111V74.9999C28.3334 75.9205 29.0795 76.6666 30 76.6666H70C71.2273 76.6666 72.2223 75.6716 72.2223 74.4443V71.9443H31.625Z" fill="#B5D9F1"/>
<path d="M73.0556 49.3057H26.9445C26.7144 49.3057 26.5278 49.4922 26.5278 49.7223C26.5278 49.9524 26.7144 50.139 26.9445 50.139H73.0556C73.2856 50.139 73.4723 49.9524 73.4723 49.7223C73.4723 49.4922 73.2856 49.3057 73.0556 49.3057Z" fill="#264887" stroke="#264887" stroke-width="1.25"/>
<path d="M73.0556 71.5278H26.9445C26.7144 71.5278 26.5278 71.7145 26.5278 71.9445C26.5278 72.1745 26.7144 72.3612 26.9445 72.3612H73.0556C73.2856 72.3612 73.4723 72.1745 73.4723 71.9445C73.4723 71.7145 73.2856 71.5278 73.0556 71.5278Z" fill="#264887" stroke="#264887" stroke-width="1.25"/>
<path d="M36.1111 63.1399H67.5155" stroke="#90C6EB" stroke-width="1.25" stroke-linecap="round"/>
<path d="M36.1111 67.1982H67.5155" stroke="#90C6EB" stroke-width="1.25" stroke-linecap="round"/>
<path d="M36.1111 59.0823H67.5155" stroke="#90C6EB" stroke-width="1.25" stroke-linecap="round"/>
<path d="M36.1111 55.0242H67.5155" stroke="#90C6EB" stroke-width="1.25" stroke-linecap="round"/>
<path fill-rule="evenodd" clip-rule="evenodd" d="M56.1111 61.1107C56.1111 64.1796 53.6239 66.6668 50.5563 66.6668C47.4872 66.6668 45 64.1796 45 61.1107C45 58.0429 47.4872 55.5557 50.5563 55.5557C53.6239 55.5557 56.1111 58.0429 56.1111 61.1107Z" fill="white" stroke="#26417E" stroke-width="1.25" stroke-linecap="round" stroke-linejoin="round"/>
<path d="M47.4315 57.2222C46.3889 59.9999 47.0128 64.7222 51.111 66.1111C45.2776 66.3888 43.8887 59.7222 47.4315 57.2222Z" fill="#B5D9F1"/>
<path d="M50.848 63.45V58.7717C50.848 58.6106 50.7171 58.4795 50.5556 58.4795C50.3941 58.4795 50.2632 58.6106 50.2632 58.7717V63.45C50.2632 63.6117 50.3941 63.7428 50.5556 63.7428C50.7171 63.7428 50.848 63.6117 50.848 63.45Z" fill="#E3E3E3" stroke="#D22D27" stroke-width="1.25"/>
<path fill-rule="evenodd" clip-rule="evenodd" d="M80 58.889C80.9206 58.889 81.6667 58.1429 81.6667 57.2223C81.6667 56.3018 80.9206 55.5557 80 55.5557C79.0795 55.5557 78.3334 56.3018 78.3334 57.2223C78.3334 58.1429 79.0795 58.889 80 58.889Z" stroke="#C2E0F4" stroke-width="1.25"/>
<path d="M26.1112 33.8889H22.7778V37.2222H26.1112V33.8889Z" stroke="#C2E0F4" stroke-width="1.25" stroke-linecap="round" stroke-linejoin="round"/>
<path d="M74.0028 24.0027L76.5989 26.5987" stroke="#C2E0F4" stroke-width="1.6" stroke-linecap="round"/>
<path d="M76.5072 24.0027L73.9111 26.5987" stroke="#C2E0F4" stroke-width="1.25" stroke-linecap="round"/>
<path d="M21.6666 77.2222H78.8888" stroke="#264887" stroke-width="1.25" stroke-linecap="round" stroke-dasharray="1 6 164 5"/>
</svg>
