<svg width="125" height="125" viewBox="0 0 125 125" fill="none" xmlns="http://www.w3.org/2000/svg">
<path fill-rule="evenodd" clip-rule="evenodd" d="M62.5 125C97.0178 125 125 97.0178 125 62.5C125 27.9822 97.0178 0 62.5 0C27.9822 0 0 27.9822 0 62.5C0 97.0178 27.9822 125 62.5 125Z" fill="#ECF5FB"/>
<path fill-rule="evenodd" clip-rule="evenodd" d="M27.7778 12.5C28.9284 12.5 29.8611 11.5672 29.8611 10.4166C29.8611 9.26605 28.9284 8.33331 27.7778 8.33331C26.6272 8.33331 25.6945 9.26605 25.6945 10.4166C25.6945 11.5672 26.6272 12.5 27.7778 12.5Z" stroke="#B5D9F1" stroke-width="1.25"/>
<path d="M52.9201 15.4201L56.1651 18.6651" stroke="#B5D9F1" stroke-width="1.25" stroke-linecap="round"/>
<path d="M56.0508 15.4201L52.8057 18.6651" stroke="#B5D9F1" stroke-width="1.25" stroke-linecap="round"/>
<path d="M29.8611 98.6111H98.6111" stroke="#B5D9F1" stroke-width="1.25" stroke-linecap="round" stroke-dasharray="1 6 164 5"/>
<path fill-rule="evenodd" clip-rule="evenodd" d="M67.4813 57.8426C71.5813 60.2048 76.6572 60.2244 80.7841 57.9234L83.4202 60.2586V63.9304H87.0984L88.3244 65.2156V68.8262H91.5539L94.158 71.274H99.359V66.0821L85.9851 52.7314C88.8541 47.6081 88.116 41.0111 83.7537 36.6563C80.6787 33.5867 76.4904 32.3089 72.4861 32.8229" fill="#3598DB" fill-opacity="0.1"/>
<path d="M67.4813 57.8426C71.5813 60.2048 76.6572 60.2244 80.7841 57.9234L83.4202 60.2586V63.9304H87.0984L88.3244 65.2156V68.8262H91.5539L94.158 71.274H99.359V66.0821L85.9851 52.7314C88.8541 47.6081 88.116 41.0111 83.7537 36.6563C80.6787 33.5867 76.4904 32.3089 72.4861 32.8229" stroke="#3598DB" stroke-opacity="0.7" stroke-width="1.25" stroke-linecap="round" stroke-dasharray="169 7"/>
<g filter="url(#filter0_i)">
<path fill-rule="evenodd" clip-rule="evenodd" d="M76.7361 43.4325C76.7361 36.091 70.7497 30.1415 63.3681 30.1415C55.9865 30.1415 50 36.091 50 43.4325C50 49.5149 54.1149 54.6307 59.7222 56.2087V59.1399L57.2917 61.5541L59.7222 63.973V66.3895L57.2917 68.8061L59.7222 71.2226V74.8474L63.3681 78.4722L67.0139 74.8474V56.2087C72.6212 54.6307 76.7361 49.5149 76.7361 43.4325Z" fill="#3598DB" fill-opacity="0.1"/>
</g>
<path fill-rule="evenodd" clip-rule="evenodd" d="M76.7361 43.4325C76.7361 36.091 70.7497 30.1415 63.3681 30.1415C55.9865 30.1415 50 36.091 50 43.4325C50 49.5149 54.1149 54.6307 59.7222 56.2087V59.1399L57.2917 61.5541L59.7222 63.973V66.3895L57.2917 68.8061L59.7222 71.2226V74.8474L63.3681 78.4722L67.0139 74.8474V56.2087C72.6212 54.6307 76.7361 49.5149 76.7361 43.4325Z" stroke="#3598DB" stroke-opacity="0.7" stroke-width="1.25" stroke-linecap="round" stroke-dasharray="181 7 1 4"/>
<path fill-rule="evenodd" clip-rule="evenodd" d="M65.9389 41.9671C65.9389 43.3862 64.7871 44.5379 63.3681 44.5379C61.949 44.5379 60.7973 43.3862 60.7973 41.9671C60.7973 40.5481 61.949 39.3964 63.3681 39.3964C64.7871 39.3964 65.9389 40.5481 65.9389 41.9671Z" stroke="#3598DB" stroke-opacity="0.7" stroke-width="1.25" stroke-linecap="round" stroke-linejoin="round"/>
<path d="M63.368 41.9671V29.7461C63.368 27.1262 65.6715 25 68.5096 25C71.3477 25 73.6512 27.1262 73.6512 29.7461V32.1353" stroke="#3598DB" stroke-opacity="0.5" stroke-width="1.25" stroke-linecap="round" stroke-linejoin="round"/>
<g filter="url(#filter1_i)">
<path fill-rule="evenodd" clip-rule="evenodd" d="M43.1758 73.1204C47.2757 75.4826 52.3516 75.5021 56.4786 73.2011L59.1146 75.5364V79.2082H62.7928L64.0189 80.4933V84.1039H67.2483L69.8525 86.5518H75.0535V81.3599L61.6795 68.0092C64.5485 62.8858 63.8104 56.2888 59.4481 51.9341C56.3731 48.8645 52.1849 47.5867 48.1806 48.1007" fill="#B5D9F1"/>
</g>
<path d="M43.1758 73.1204C47.2757 75.4826 52.3516 75.5021 56.4786 73.2011L59.1146 75.5364V79.2082H62.7928L64.0189 80.4933V84.1039H67.2483L69.8525 86.5518H75.0535V81.3599L61.6795 68.0092C64.5485 62.8858 63.8104 56.2888 59.4481 51.9341C56.3731 48.8645 52.1849 47.5867 48.1806 48.1007" stroke="#264887" stroke-width="1.25" stroke-linecap="round" stroke-dasharray="169 7"/>
<g filter="url(#filter2_i)">
<path fill-rule="evenodd" clip-rule="evenodd" d="M52.4306 58.7102C52.4306 51.3688 46.4441 45.4193 39.0625 45.4193C31.6809 45.4193 25.6945 51.3688 25.6945 58.7102C25.6945 64.7927 29.8094 69.9085 35.4167 71.4865V74.4177L32.9861 76.8318L35.4167 79.2508V81.6673L32.9861 84.0838L35.4167 86.5004V90.1252L39.0625 93.75L42.7083 90.1252V71.4865C48.3156 69.9085 52.4306 64.7927 52.4306 58.7102Z" fill="white"/>
</g>
<path fill-rule="evenodd" clip-rule="evenodd" d="M52.4306 58.7102C52.4306 51.3688 46.4441 45.4193 39.0625 45.4193C31.6809 45.4193 25.6945 51.3688 25.6945 58.7102C25.6945 64.7927 29.8094 69.9085 35.4167 71.4865V74.4177L32.9861 76.8318L35.4167 79.2508V81.6673L32.9861 84.0838L35.4167 86.5004V90.1252L39.0625 93.75L42.7083 90.1252V71.4865C48.3156 69.9085 52.4306 64.7927 52.4306 58.7102Z" stroke="#264887" stroke-width="1.25" stroke-linecap="round" stroke-dasharray="181 7 1 4"/>
<path fill-rule="evenodd" clip-rule="evenodd" d="M41.6333 57.2449C41.6333 58.664 40.4816 59.8157 39.0625 59.8157C37.6435 59.8157 36.4918 58.664 36.4918 57.2449C36.4918 55.8258 37.6435 54.6741 39.0625 54.6741C40.4816 54.6741 41.6333 55.8258 41.6333 57.2449Z" stroke="#264887" stroke-width="1.25" stroke-linecap="round" stroke-linejoin="round"/>
<path d="M39.0625 57.2449V45.0238C39.0625 42.404 41.3659 40.2778 44.2041 40.2778C47.0422 40.2778 49.3456 42.404 49.3456 45.0238V47.4131" stroke="#D32D27" stroke-width="1.25" stroke-linecap="round" stroke-linejoin="round"/>
<path fill-rule="evenodd" clip-rule="evenodd" d="M112.8 24.2366L110.614 23.4838L114.362 10.4751L117.843 11.6737L112.8 24.2366ZM108.43 27.2127C108.643 26.5932 108.969 26.1785 109.407 25.9687C109.844 25.7589 110.365 25.7578 110.968 25.9655C111.563 26.1703 111.962 26.495 112.165 26.9394C112.368 27.3839 112.367 27.9034 112.162 28.4978C111.958 29.0922 111.634 29.5075 111.192 29.7439C110.75 29.9803 110.236 29.9975 109.649 29.7956C109.054 29.5908 108.649 29.264 108.434 28.8152C108.218 28.3664 108.217 27.8322 108.43 27.2127Z" fill="#D75E59"/>
<path fill-rule="evenodd" clip-rule="evenodd" d="M10.6523 28.2693L9.44193 28.8338L5.78029 21.9257L7.70714 21.0272L10.6523 28.2693ZM10.0311 31.2586C9.87117 30.9157 9.84004 30.6129 9.9377 30.3501C10.0354 30.0873 10.2511 29.8781 10.585 29.7224C10.9143 29.5689 11.2103 29.5437 11.4729 29.6469C11.7356 29.7501 11.9436 29.9662 12.0971 30.2953C12.2505 30.6243 12.2828 30.9266 12.1939 31.2022C12.1051 31.4778 11.8983 31.6913 11.5737 31.8426C11.2445 31.9962 10.945 32.023 10.6754 31.923C10.4058 31.823 10.191 31.6016 10.0311 31.2586Z" fill="#D75E59"/>
<path fill-rule="evenodd" clip-rule="evenodd" d="M85.4143 17.3823L84.2463 16.7349L87.6828 9.71208L89.5422 10.7428L85.4143 17.3823ZM82.6311 18.637C82.8146 18.306 83.0413 18.1029 83.3113 18.0274C83.5813 17.952 83.8774 18.0036 84.1996 18.1822C84.5173 18.3583 84.7116 18.5829 84.7825 18.8561C84.8534 19.1293 84.8009 19.4246 84.6249 19.7422C84.4489 20.0597 84.2233 20.2635 83.9481 20.3536C83.6729 20.4437 83.3787 20.4019 83.0654 20.2283C82.7477 20.0521 82.55 19.8256 82.4724 19.5488C82.3948 19.2719 82.4477 18.968 82.6311 18.637Z" fill="#D75E59"/>
<rect x="105.556" y="50.6945" width="4.16666" height="4.16667" stroke="#B5D9F1" stroke-width="1.25" stroke-linecap="round" stroke-linejoin="round"/>
<defs>
<filter id="filter0_i" x="49.375" y="29.5165" width="27.9861" height="49.837" filterUnits="userSpaceOnUse" color-interpolation-filters="sRGB">
<feFlood flood-opacity="0" result="BackgroundImageFix"/>
<feBlend mode="normal" in="SourceGraphic" in2="BackgroundImageFix" result="shape"/>
<feColorMatrix in="SourceAlpha" type="matrix" values="0 0 0 0 0 0 0 0 0 0 0 0 0 0 0 0 0 0 127 0" result="hardAlpha"/>
<feOffset dx="5" dy="-1"/>
<feComposite in2="hardAlpha" operator="arithmetic" k2="-1" k3="1"/>
<feColorMatrix type="matrix" values="0 0 0 0 0.709804 0 0 0 0 0.85098 0 0 0 0 0.945098 0 0 0 1 0"/>
<feBlend mode="normal" in2="shape" result="effect1_innerShadow"/>
</filter>
<filter id="filter1_i" x="42.5507" y="47.3651" width="33.1278" height="39.8117" filterUnits="userSpaceOnUse" color-interpolation-filters="sRGB">
<feFlood flood-opacity="0" result="BackgroundImageFix"/>
<feBlend mode="normal" in="SourceGraphic" in2="BackgroundImageFix" result="shape"/>
<feColorMatrix in="SourceAlpha" type="matrix" values="0 0 0 0 0 0 0 0 0 0 0 0 0 0 0 0 0 0 127 0" result="hardAlpha"/>
<feOffset dx="5" dy="-1"/>
<feComposite in2="hardAlpha" operator="arithmetic" k2="-1" k3="1"/>
<feColorMatrix type="matrix" values="0 0 0 0 0.760784 0 0 0 0 0.878431 0 0 0 0 0.956863 0 0 0 1 0"/>
<feBlend mode="normal" in2="shape" result="effect1_innerShadow"/>
</filter>
<filter id="filter2_i" x="25.0695" y="44.7943" width="27.9861" height="49.837" filterUnits="userSpaceOnUse" color-interpolation-filters="sRGB">
<feFlood flood-opacity="0" result="BackgroundImageFix"/>
<feBlend mode="normal" in="SourceGraphic" in2="BackgroundImageFix" result="shape"/>
<feColorMatrix in="SourceAlpha" type="matrix" values="0 0 0 0 0 0 0 0 0 0 0 0 0 0 0 0 0 0 127 0" result="hardAlpha"/>
<feOffset dx="5" dy="-1"/>
<feComposite in2="hardAlpha" operator="arithmetic" k2="-1" k3="1"/>
<feColorMatrix type="matrix" values="0 0 0 0 0.709804 0 0 0 0 0.85098 0 0 0 0 0.945098 0 0 0 1 0"/>
<feBlend mode="normal" in2="shape" result="effect1_innerShadow"/>
</filter>
</defs>
</svg>
