<svg width="12" height="12" viewBox="0 0 12 12" fill="none" xmlns="http://www.w3.org/2000/svg">
<path d="M7.15 6.08952C7.13836 6.07791 7.12913 6.06412 7.12282 6.04893C7.11652 6.03374 7.11328 6.01746 7.11328 6.00102C7.11328 5.98458 7.11652 5.9683 7.12282 5.95311C7.12913 5.93793 7.13836 5.92413 7.15 5.91252L11.7815 1.28152C11.9221 1.14069 12.0011 0.949764 12.0009 0.750741C12.0008 0.551718 11.9216 0.360903 11.7808 0.220272C11.6399 0.0796407 11.449 0.00071403 11.25 0.00085468C11.0509 0.00099533 10.8601 0.0801918 10.7195 0.221022L6.0885 4.85002C6.07689 4.86166 6.0631 4.8709 6.04791 4.8772C6.03272 4.8835 6.01644 4.88675 6 4.88675C5.98356 4.88675 5.96728 4.8835 5.95209 4.8772C5.93691 4.8709 5.92311 4.86166 5.9115 4.85002L1.2805 0.221022C1.21087 0.151355 1.1282 0.0960867 1.0372 0.0583711C0.94621 0.0206554 0.848679 0.00123144 0.750179 0.00120822C0.55125 0.00116134 0.36045 0.0801407 0.219753 0.220772C0.0790552 0.361403 -1.41302e-05 0.552166 -6.10143e-05 0.751095C-0.000107898 0.950024 0.0788715 1.14082 0.219503 1.28152L4.85 5.91252C4.86164 5.92413 4.87088 5.93793 4.87718 5.95311C4.88348 5.9683 4.88673 5.98458 4.88673 6.00102C4.88673 6.01746 4.88348 6.03374 4.87718 6.04893C4.87088 6.06412 4.86164 6.07791 4.85 6.08952L0.219503 10.721C0.149869 10.7907 0.0946393 10.8734 0.0569665 10.9644C0.0192937 11.0554 -8.42289e-05 11.1529 -6.10143e-05 11.2514C-1.41302e-05 11.4504 0.0790552 11.6411 0.219753 11.7818C0.289419 11.8514 0.372118 11.9066 0.463129 11.9443C0.55414 11.982 0.65168 12.0014 0.750179 12.0013C0.949108 12.0013 1.13987 11.9222 1.2805 11.7815L5.9115 7.15002C5.92311 7.13838 5.93691 7.12915 5.95209 7.12284C5.96728 7.11654 5.98356 7.1133 6 7.1133C6.01644 7.1133 6.03272 7.11654 6.04791 7.12284C6.0631 7.12915 6.07689 7.13838 6.0885 7.15002L10.7195 11.7815C10.8601 11.9222 11.0509 12.0013 11.2498 12.0013C11.4488 12.0014 11.6396 11.9224 11.7803 11.7818C11.9209 11.6411 12 11.4504 12.0001 11.2514C12.0001 11.0525 11.9211 10.8617 11.7805 10.721L7.15 6.08952Z" fill="#40526D"/>
</svg>
