<svg width="20" height="20" viewBox="0 0 20 20" fill="none" xmlns="http://www.w3.org/2000/svg">
<path d="M10 0C8.02219 0 6.08879 0.58649 4.4443 1.6853C2.79981 2.78412 1.51809 4.3459 0.761209 6.17316C0.00433292 8.00043 -0.1937 10.0111 0.192152 11.9509C0.578004 13.8907 1.53041 15.6725 2.92894 17.0711C4.32746 18.4696 6.10929 19.422 8.0491 19.8078C9.98891 20.1937 11.9996 19.9957 13.8268 19.2388C15.6541 18.4819 17.2159 17.2002 18.3147 15.5557C19.4135 13.9112 20 11.9778 20 10C19.997 7.34876 18.9424 4.80698 17.0677 2.93227C15.193 1.05756 12.6512 0.0030248 10 0V0ZM8.92857 5C8.92857 4.71584 9.04146 4.44332 9.24239 4.24238C9.44332 4.04145 9.71584 3.92857 10 3.92857C10.2842 3.92857 10.5567 4.04145 10.7576 4.24238C10.9585 4.44332 11.0714 4.71584 11.0714 5V9.28571C11.0714 9.56987 10.9585 9.84239 10.7576 10.0433C10.5567 10.2443 10.2842 10.3571 10 10.3571C9.71584 10.3571 9.44332 10.2443 9.24239 10.0433C9.04146 9.84239 8.92857 9.56987 8.92857 9.28571V5ZM10 15.7143C9.71746 15.7143 9.44126 15.6305 9.20633 15.4735C8.9714 15.3166 8.7883 15.0934 8.68017 14.8324C8.57205 14.5714 8.54376 14.2841 8.59888 14.007C8.654 13.7299 8.79006 13.4753 8.98985 13.2756C9.18964 13.0758 9.44419 12.9397 9.7213 12.8846C9.99842 12.8295 10.2857 12.8578 10.5467 12.9659C10.8077 13.074 11.0308 13.2571 11.1878 13.492C11.3448 13.727 11.4286 14.0032 11.4286 14.2857C11.4286 14.6646 11.2781 15.028 11.0102 15.2959C10.7422 15.5638 10.3789 15.7143 10 15.7143Z" fill="#ffffff"/>
</svg>
