<svg width="16" height="16" viewBox="0 0 16 16" fill="none" xmlns="http://www.w3.org/2000/svg">
<g clip-path="url(#clip0_577_18827)">
<path d="M13.6567 2.35601C12.1556 0.855767 10.1199 0.0132912 7.99766 0.0139164C5.87537 0.0145415 3.84026 0.858216 2.34002 2.35934C0.839776 3.86047 -0.00269995 5.89608 -0.00207485 8.01837C-0.00144974 10.1407 0.842225 12.1758 2.34335 13.676C3.82211 15.1232 5.79913 15.9488 7.86791 15.9832C9.9367 16.0175 11.94 15.258 13.466 13.8607C14.1348 13.2352 14.6919 12.5002 15.1133 11.6873C15.5162 10.9053 15.7865 10.0618 15.9134 9.19134C15.9705 8.80217 15.9995 8.40936 16 8.01601C16.0029 6.96452 15.7973 5.9229 15.395 4.95139C14.9928 3.97987 14.402 3.09774 13.6567 2.35601ZM3.52802 3.52801C4.59514 2.48299 5.99346 1.84306 7.48185 1.71856C8.97025 1.59407 10.4554 1.9928 11.6813 2.84601C11.7019 2.86099 11.7189 2.88024 11.7313 2.90243C11.7437 2.92463 11.7511 2.94924 11.7531 2.97458C11.755 2.99992 11.7515 3.02539 11.7427 3.04922C11.7339 3.07306 11.72 3.09471 11.702 3.11267L3.11135 11.7073C3.09333 11.7252 3.07167 11.739 3.04785 11.7477C3.02402 11.7565 2.99859 11.76 2.97329 11.7581C2.94798 11.7561 2.9234 11.7487 2.9012 11.7364C2.87901 11.7241 2.85973 11.7071 2.84468 11.6867C1.97454 10.4659 1.56567 8.97601 1.69079 7.48208C1.81592 5.98815 2.46693 4.58705 3.52802 3.52801ZM12.4994 12.504C11.4392 13.5615 10.0392 14.2101 8.54696 14.3349C7.05474 14.4597 5.56645 14.0527 4.34535 13.186C4.32477 13.1711 4.30767 13.1519 4.29523 13.1297C4.28279 13.1075 4.27529 13.0829 4.27327 13.0576C4.27124 13.0322 4.27473 13.0068 4.28349 12.9829C4.29225 12.959 4.30608 12.9374 4.32402 12.9193L12.9153 4.32401C12.9334 4.30613 12.955 4.29235 12.9789 4.2836C13.0027 4.27485 13.0281 4.27134 13.0534 4.2733C13.0787 4.27526 13.1033 4.28265 13.1255 4.29497C13.1477 4.30728 13.167 4.32424 13.182 4.34468C14.0525 5.56537 14.4617 7.0553 14.3368 8.54937C14.2119 10.0434 13.5611 11.4448 12.5 12.504H12.4994Z" fill="#40526D"/>
</g>
<defs>
<clipPath id="clip0_577_18827">
<rect width="16" height="16" fill="white"/>
</clipPath>
</defs>
</svg>
