<svg width="36" height="36" viewBox="0 0 36 36" fill="none" xmlns="http://www.w3.org/2000/svg">
<rect width="36" height="36" rx="3" fill="#E7F7F2"/>
<rect width="24" height="24" transform="translate(6 6)" fill="#E7F7F2"/>
<path d="M9.5 20.734C9.76522 20.734 10.0196 20.6286 10.2071 20.4411C10.3946 20.2536 10.5 19.9992 10.5 19.734V11.418C10.5 11.2411 10.5703 11.0714 10.6954 10.9464C10.8204 10.8213 10.9901 10.751 11.167 10.751H24.833C25.0099 10.751 25.1796 10.8213 25.3046 10.9464C25.4297 11.0714 25.5 11.2411 25.5 11.418V19.734C25.5 19.9992 25.6054 20.2536 25.7929 20.4411C25.9804 20.6286 26.2348 20.734 26.5 20.734C26.7652 20.734 27.0196 20.6286 27.2071 20.4411C27.3946 20.2536 27.5 19.9992 27.5 19.734V11.418C27.4995 10.7108 27.2183 10.0328 26.7183 9.53273C26.2182 9.03269 25.5402 8.75153 24.833 8.751H11.167C10.4598 8.75153 9.78178 9.03269 9.28173 9.53273C8.78169 10.0328 8.50053 10.7108 8.5 11.418V19.734C8.5 19.9992 8.60536 20.2536 8.79289 20.4411C8.98043 20.6286 9.23478 20.734 9.5 20.734Z" fill="#008A63"/>
<path d="M29.894 22.443C29.8472 22.3832 29.7874 22.3348 29.7191 22.3015C29.6509 22.2683 29.5759 22.251 29.5 22.251H21.5C21.3674 22.251 21.2402 22.3037 21.1464 22.3974C21.0527 22.4912 21 22.6184 21 22.751C21 23.461 19.768 24.251 18 24.251C16.232 24.251 15 23.461 15 22.751C15 22.6184 14.9473 22.4912 14.8535 22.3974C14.7598 22.3037 14.6326 22.251 14.5 22.251H6.49998C6.42404 22.251 6.34909 22.2683 6.28083 22.3017C6.21258 22.335 6.15281 22.3834 6.10606 22.4432C6.05931 22.5031 6.02682 22.5728 6.01103 22.6471C5.99525 22.7214 5.9966 22.7983 6.01498 22.872C6.32637 24.1234 7.04778 25.2345 8.06417 26.0282C9.08057 26.8218 10.3334 27.2523 11.623 27.251H24.377C25.6665 27.2523 26.9194 26.8218 27.9358 26.0282C28.9522 25.2345 29.6736 24.1234 29.985 22.872C30.0034 22.7983 30.0048 22.7213 29.989 22.647C29.9733 22.5727 29.9408 22.5029 29.894 22.443Z" fill="#008A63"/>
</svg>
