<svg width="14" height="13" viewBox="0 0 14 13" fill="none" xmlns="http://www.w3.org/2000/svg">
<path fill-rule="evenodd" clip-rule="evenodd" d="M0.333505 0.666667L3.67949 3.04081C3.82764 1.33685 5.25778 0 7.00016 0C8.74255 0 10.1727 1.33685 10.3208 3.04081L13.6668 0.666667L13.6668 2.3015L11.0002 4.19363V6H13.6668V7.33333H11.0002V8C11.0002 8.36059 10.9524 8.71004 10.863 9.04237L13.6668 11.0318L13.6668 12.6667L10.2925 10.2724C9.57065 11.3162 8.36526 12 7.00016 12C5.63506 12 4.42968 11.3162 3.70787 10.2724L0.333505 12.6667L0.333496 11.0318L3.13733 9.04237C3.04788 8.71004 3.00016 8.36059 3.00016 8V7.33333H0.333496V6H3.00016V4.19363L0.333496 2.3015L0.333505 0.666667ZM7.00016 1.33333C8.10473 1.33333 9.00016 2.22876 9.00016 3.33333L5.00016 3.33333C5.00016 2.22876 5.89559 1.33333 7.00016 1.33333ZM4.3335 4.66667V8C4.3335 9.47276 5.5274 10.6667 7.00016 10.6667C8.47292 10.6667 9.66683 9.47276 9.66683 8V4.66667H4.3335Z" fill="#1B283C"/>
</svg>
