<svg width="129" height="125" viewBox="0 0 129 125" fill="none" xmlns="http://www.w3.org/2000/svg">
<path fill-rule="evenodd" clip-rule="evenodd" d="M66 125C100.518 125 128.5 97.0178 128.5 62.5C128.5 27.9822 100.518 0 66 0C31.4822 0 3.5 27.9822 3.5 62.5C3.5 97.0178 31.4822 125 66 125Z" fill="#ECF5FB"/>
<path fill-rule="evenodd" clip-rule="evenodd" d="M3.50002 71.5278C4.65061 71.5278 5.58335 70.595 5.58335 69.4444C5.58335 68.2938 4.65061 67.3611 3.50002 67.3611C2.34943 67.3611 1.41669 68.2938 1.41669 69.4444C1.41669 70.595 2.34943 71.5278 3.50002 71.5278Z" stroke="#B5D9F1" stroke-width="1.25"/>
<path d="M62.6701 10.559L65.9151 13.804" stroke="#B5D9F1" stroke-width="1.25" stroke-linecap="round"/>
<path d="M65.8008 10.559L62.5558 13.804" stroke="#B5D9F1" stroke-width="1.25" stroke-linecap="round"/>
<path d="M33.3611 98.6111H102.111" stroke="#B5D9F1" stroke-width="1.25" stroke-linecap="round" stroke-dasharray="1 6 164 5"/>
<path d="M68.983 43.2432C71.4516 49.1283 70.6628 55.9386 66.8763 61.087L34.0449 50.6108C33.9565 45.1587 36.3007 39.7289 40.8829 36.0626C47.3835 30.8613 56.3493 30.8616 62.7953 35.4822L68.2657 31.1051L72.5135 40.0557L68.983 43.2432Z" fill="#B5D9F1" stroke="#264887" stroke-width="1.25" stroke-linecap="round" stroke-dasharray="169 7"/>
<g filter="url(#filter0_i)">
<path d="M29.0761 62.4469C30.185 52.5388 39.0701 45.3971 48.9242 46.4999C57.0885 47.4135 63.3371 53.7054 64.6129 61.4689L70.8675 62.1689L73.9948 62.5189L67.4521 71.6966L63.5176 71.2563C60.5572 78.5458 53.0723 83.3006 44.908 82.387C35.0539 81.2842 27.9673 72.355 29.0761 62.4469Z" fill="white"/>
</g>
<path d="M29.0761 62.4469C30.185 52.5388 39.0701 45.3971 48.9242 46.4999C57.0885 47.4135 63.3371 53.7054 64.6129 61.4689L70.8675 62.1689L73.9948 62.5189L67.4521 71.6966L63.5176 71.2563C60.5572 78.5458 53.0723 83.3006 44.908 82.387C35.0539 81.2842 27.9673 72.355 29.0761 62.4469Z" stroke="#264887" stroke-width="1.25" stroke-linecap="round" stroke-dasharray="181 7 1 4"/>
<path fill-rule="evenodd" clip-rule="evenodd" d="M45.3354 60.7726C47.2402 60.9858 48.6131 62.7047 48.3999 64.6095C48.1868 66.5143 46.4679 67.8872 44.5631 67.674C42.6583 67.4608 41.2854 65.7419 41.4986 63.8372C41.7117 61.9324 43.4306 60.5595 45.3354 60.7726Z" stroke="#264887" stroke-width="1.25" stroke-linecap="round" stroke-linejoin="round"/>
<path d="M44.9492 64.2233L28.5452 62.3875C25.0287 61.994 22.5208 58.5828 22.9471 54.7732C23.3734 50.9636 26.5734 48.1912 30.0899 48.5848L33.297 48.9437" stroke="#D32D27" stroke-width="1.25" stroke-linecap="round" stroke-linejoin="round"/>
<path fill-rule="evenodd" clip-rule="evenodd" d="M116.3 24.2366L114.114 23.4838L117.862 10.4751L121.343 11.6737L116.3 24.2366ZM111.93 27.2127C112.143 26.5932 112.469 26.1785 112.907 25.9687C113.344 25.7589 113.865 25.7578 114.468 25.9655C115.063 26.1703 115.462 26.495 115.665 26.9394C115.868 27.3839 115.867 27.9034 115.662 28.4978C115.458 29.0922 115.134 29.5075 114.692 29.7439C114.25 29.9803 113.736 29.9975 113.149 29.7956C112.554 29.5908 112.149 29.264 111.934 28.8152C111.718 28.3664 111.717 27.8322 111.93 27.2127Z" fill="#D75E59"/>
<path fill-rule="evenodd" clip-rule="evenodd" d="M14.1523 28.2693L12.9419 28.8338L9.28029 21.9257L11.2071 21.0272L14.1523 28.2693ZM13.5311 31.2586C13.3712 30.9157 13.34 30.6129 13.4377 30.3501C13.5354 30.0873 13.7511 29.8781 14.085 29.7224C14.4143 29.5689 14.7103 29.5437 14.9729 29.6469C15.2356 29.7501 15.4436 29.9662 15.5971 30.2953C15.7505 30.6243 15.7828 30.9266 15.6939 31.2022C15.6051 31.4778 15.3983 31.6913 15.0737 31.8426C14.7445 31.9962 14.445 32.023 14.1754 31.923C13.9058 31.823 13.691 31.6016 13.5311 31.2586Z" fill="#D75E59"/>
<path fill-rule="evenodd" clip-rule="evenodd" d="M88.9143 17.3823L87.7463 16.7349L91.1828 9.71208L93.0422 10.7428L88.9143 17.3823ZM86.1311 18.637C86.3146 18.306 86.5413 18.1029 86.8113 18.0274C87.0813 17.952 87.3774 18.0036 87.6996 18.1822C88.0173 18.3583 88.2116 18.5829 88.2825 18.8561C88.3534 19.1293 88.3009 19.4246 88.1249 19.7422C87.9489 20.0597 87.7233 20.2635 87.4481 20.3536C87.1729 20.4437 86.8787 20.4019 86.5654 20.2283C86.2477 20.0521 86.05 19.8256 85.9724 19.5488C85.8948 19.2719 85.9477 18.968 86.1311 18.637Z" fill="#D75E59"/>
<rect x="112.528" y="68.0555" width="4.16666" height="4.16666" stroke="#B5D9F1" stroke-width="1.25" stroke-linecap="round" stroke-linejoin="round"/>
<path d="M76.5323 75.8931L73.0612 73.989L83.3156 68.3812L88.8336 71.408L99.8694 77.4617L101.794 84.1337L95.1328 86.0964L90.8404 83.7418L86.3999 85.0503L85.1172 80.6023L82.2555 79.0326L77.8122 80.3395L76.5323 75.8931Z" fill="white" stroke="#264887" stroke-width="1.25" stroke-linecap="round" stroke-dasharray="181 7 1 4"/>
<g filter="url(#filter1_i)">
<path d="M77.372 48.5691L75.6766 43.9085L82.8013 36.5888L98.5962 43.9406L100.994 50.5306L94.3921 52.9321L89.9564 51.0275L85.8574 52.5186L84.1902 47.9358L82.0406 46.8707L77.372 48.5691Z" fill="#B5D9F1"/>
</g>
<path d="M77.372 48.5691L75.6766 43.9085L82.8013 36.5888L98.5962 43.9406L100.994 50.5306L94.3921 52.9321L89.9564 51.0275L85.8574 52.5186L84.1902 47.9358L82.0406 46.8707L77.372 48.5691Z" stroke="#264887" stroke-width="1.25" stroke-linecap="round" stroke-dasharray="169 7"/>
<defs>
<filter id="filter0_i" x="28.3369" y="45.7625" width="46.784" height="37.3616" filterUnits="userSpaceOnUse" color-interpolation-filters="sRGB">
<feFlood flood-opacity="0" result="BackgroundImageFix"/>
<feBlend mode="normal" in="SourceGraphic" in2="BackgroundImageFix" result="shape"/>
<feColorMatrix in="SourceAlpha" type="matrix" values="0 0 0 0 0 0 0 0 0 0 0 0 0 0 0 0 0 0 127 0" result="hardAlpha"/>
<feOffset dx="5" dy="-1"/>
<feComposite in2="hardAlpha" operator="arithmetic" k2="-1" k3="1"/>
<feColorMatrix type="matrix" values="0 0 0 0 0.709804 0 0 0 0 0.85098 0 0 0 0 0.945098 0 0 0 1 0"/>
<feBlend mode="normal" in2="shape" result="effect1_innerShadow"/>
</filter>
<filter id="filter1_i" x="74.9552" y="35.835" width="26.8394" height="17.7691" filterUnits="userSpaceOnUse" color-interpolation-filters="sRGB">
<feFlood flood-opacity="0" result="BackgroundImageFix"/>
<feBlend mode="normal" in="SourceGraphic" in2="BackgroundImageFix" result="shape"/>
<feColorMatrix in="SourceAlpha" type="matrix" values="0 0 0 0 0 0 0 0 0 0 0 0 0 0 0 0 0 0 127 0" result="hardAlpha"/>
<feOffset dx="5" dy="-1"/>
<feComposite in2="hardAlpha" operator="arithmetic" k2="-1" k3="1"/>
<feColorMatrix type="matrix" values="0 0 0 0 0.760784 0 0 0 0 0.878431 0 0 0 0 0.956863 0 0 0 1 0"/>
<feBlend mode="normal" in2="shape" result="effect1_innerShadow"/>
</filter>
</defs>
</svg>
