<svg width="24" height="24" viewBox="0 0 24 24" fill="none" xmlns="http://www.w3.org/2000/svg">
    <g clip-path="url(#clip0_176_137)">
        <g clip-path="url(#clip1_176_137)">
            <path d="M4.5 12C4.49959 11.6729 4.56896 11.3495 4.70346 11.0514C4.83796 10.7532 5.03452 10.4872 5.28 10.271L16.432 0.460017C16.8015 0.149927 17.2777 -0.00327309 17.7588 0.0331766C18.2398 0.0696263 18.6875 0.292832 19.0061 0.655067C19.3247 1.0173 19.4889 1.48981 19.4637 1.97156C19.4384 2.45332 19.2257 2.90607 18.871 3.23302L9.119 11.812C9.09223 11.8355 9.07078 11.8644 9.05608 11.8968C9.04139 11.9292 9.03379 11.9644 9.03379 12C9.03379 12.0356 9.04139 12.0708 9.05608 12.1032C9.07078 12.1356 9.09223 12.1646 9.119 12.188L18.871 20.767C19.0596 20.9253 19.2146 21.1196 19.327 21.3386C19.4394 21.5576 19.5069 21.7969 19.5255 22.0423C19.5441 22.2878 19.5134 22.5345 19.4353 22.768C19.3572 23.0014 19.2332 23.2169 19.0706 23.4017C18.9081 23.5866 18.7102 23.737 18.4886 23.8443C18.267 23.9516 18.0263 24.0135 17.7804 24.0264C17.5346 24.0392 17.2887 24.0029 17.0571 23.9193C16.8255 23.8358 16.613 23.7069 16.432 23.54L5.284 13.732C5.03791 13.5155 4.84073 13.249 4.70555 12.9504C4.57038 12.6518 4.50031 12.3278 4.5 12Z" fill="#40526D"/>
        </g>
    </g>
    <defs>
        <clipPath id="clip0_176_137">
            <rect width="24" height="24" fill="white"/>
        </clipPath>
        <clipPath id="clip1_176_137">
            <rect width="24" height="24" fill="white" transform="translate(24) rotate(90)"/>
        </clipPath>
    </defs>
</svg>
