<svg width="88" height="68" viewBox="0 0 88 68" fill="none" xmlns="http://www.w3.org/2000/svg">
<path d="M16.7188 18.9219C16.6562 19.0052 16.5781 19.0625 16.4844 19.0938C16.3906 19.125 16.2969 19.151 16.2031 19.1719C16.1094 19.1927 16.0104 19.2135 15.9062 19.2344C15.8125 19.2656 15.7292 19.3125 15.6562 19.375C15.6354 19.3854 15.6198 19.3958 15.6094 19.4062C15.6094 19.4167 15.599 19.4219 15.5781 19.4219C15.5469 19.4219 15.5156 19.3958 15.4844 19.3438C15.4635 19.3021 15.4271 19.2708 15.375 19.25C15.1042 19.3958 14.8125 19.5208 14.5 19.625C14.1875 19.7396 13.875 19.8542 13.5625 19.9688C13.2604 20.0938 12.9635 20.224 12.6719 20.3594C12.3802 20.5052 12.125 20.6823 11.9062 20.8906C11.7396 20.9115 11.5677 20.9479 11.3906 21C11.224 21.0625 11.099 21.1771 11.0156 21.3438H10.9688C10.9271 21.3438 10.8958 21.3281 10.875 21.2969C10.8542 21.276 10.8229 21.2656 10.7812 21.2656C10.7083 21.2656 10.6615 21.2865 10.6406 21.3281C10.6198 21.3698 10.6042 21.4115 10.5938 21.4531C10.5938 21.5052 10.5885 21.5521 10.5781 21.5938C10.5677 21.6354 10.5365 21.6562 10.4844 21.6562C10.4635 21.6562 10.4427 21.6354 10.4219 21.5938C10.401 21.5625 10.349 21.5521 10.2656 21.5625C9.88021 21.7708 9.47917 21.9792 9.0625 22.1875C8.64583 22.4062 8.28646 22.6823 7.98438 23.0156C7.96354 22.9948 7.9375 22.9844 7.90625 22.9844C7.88542 22.9844 7.86979 22.9844 7.85938 22.9844L7.84375 23C7.82292 23 7.80729 22.9948 7.79688 22.9844C7.78646 22.974 7.77604 22.9688 7.76562 22.9688C7.52604 23.1771 7.27083 23.3646 7 23.5312C6.73958 23.7083 6.47396 23.8802 6.20312 24.0469C5.93229 24.2135 5.66667 24.3802 5.40625 24.5469C5.14583 24.724 4.90104 24.9219 4.67188 25.1406C4.52604 25.151 4.38021 25.1823 4.23438 25.2344C4.08854 25.2865 3.94271 25.3385 3.79688 25.3906C3.66146 25.4427 3.52083 25.4896 3.375 25.5312C3.22917 25.5833 3.08333 25.6094 2.9375 25.6094C2.66667 25.6094 2.44271 25.4896 2.26562 25.25C2.23438 25.2708 2.20312 25.2865 2.17188 25.2969C2.15104 25.3073 2.125 25.3125 2.09375 25.3125C2.01042 25.3125 1.93229 25.276 1.85938 25.2031C1.79688 25.1406 1.70833 25.1198 1.59375 25.1406C1.45833 24.9948 1.35938 24.8073 1.29688 24.5781C1.24479 24.3594 1.17708 24.1562 1.09375 23.9688C1.11458 23.5625 1.18229 23.1667 1.29688 22.7812C1.42188 22.4062 1.5 22.0156 1.53125 21.6094C1.625 21.5156 1.69792 21.4062 1.75 21.2812C1.80208 21.1667 1.84896 21.0417 1.89062 20.9062C1.94271 20.7812 1.99479 20.6562 2.04688 20.5312C2.09896 20.4062 2.17188 20.3021 2.26562 20.2188C2.32812 19.9062 2.43229 19.6094 2.57812 19.3281C2.72396 19.0469 2.82292 18.7448 2.875 18.4219C2.95833 18.3698 3.02604 18.3073 3.07812 18.2344C3.14062 18.1615 3.20833 18.0938 3.28125 18.0312V17.9375C3.28125 17.8542 3.26042 17.7917 3.21875 17.75C3.29167 17.5625 3.36979 17.3854 3.45312 17.2188C3.54688 17.0521 3.63542 16.8854 3.71875 16.7188C3.80208 16.5521 3.875 16.3802 3.9375 16.2031C4 16.026 4.04167 15.8333 4.0625 15.625C4.14583 15.5521 4.20833 15.4635 4.25 15.3594C4.29167 15.2448 4.32812 15.1354 4.35938 15.0312C4.40104 14.9167 4.44271 14.8125 4.48438 14.7188C4.53646 14.625 4.61979 14.5521 4.73438 14.5C4.72396 14.4792 4.71875 14.4531 4.71875 14.4219C4.71875 14.3177 4.74479 14.224 4.79688 14.1406C4.85938 14.0573 4.89062 13.9688 4.89062 13.875C4.89062 13.8229 4.875 13.7708 4.84375 13.7188C5.05208 13.2812 5.25521 12.8542 5.45312 12.4375C5.65104 12.0104 5.80208 11.5573 5.90625 11.0781C6.01042 11.026 6.07292 10.9479 6.09375 10.8438C6.11458 10.7396 6.16146 10.6458 6.23438 10.5625V10.4844C6.23438 10.3073 6.27083 10.1094 6.34375 9.89062C6.42708 9.67188 6.52604 9.48958 6.64062 9.34375C6.69271 8.97917 6.75 8.59896 6.8125 8.20312C6.88542 7.79688 6.99479 7.42708 7.14062 7.09375C7.11979 7.02083 7.08854 6.94792 7.04688 6.875C7.01562 6.80208 6.98958 6.72396 6.96875 6.64062C6.70833 6.78646 6.41146 6.91667 6.07812 7.03125C6.01562 7.05208 5.94792 7.07292 5.875 7.09375C5.80208 7.10417 5.73958 7.125 5.6875 7.15625C5.625 7.17708 5.58854 7.22917 5.57812 7.3125C5.56771 7.38542 5.5625 7.44792 5.5625 7.5C5.4375 7.5 5.33854 7.52604 5.26562 7.57812C5.19271 7.63021 5.11979 7.69271 5.04688 7.76562C4.98438 7.82812 4.91667 7.89062 4.84375 7.95312C4.77083 8.00521 4.67708 8.04167 4.5625 8.0625C4.4375 8.1875 4.33333 8.28646 4.25 8.35938C4.16667 8.42188 4.04688 8.48438 3.89062 8.54688C3.83854 8.56771 3.78646 8.60938 3.73438 8.67188L3.57812 8.85938C3.52604 8.92188 3.47396 8.97396 3.42188 9.01562C3.38021 9.05729 3.33333 9.07292 3.28125 9.0625C3.25 9.15625 3.20312 9.23438 3.14062 9.29688C3.08854 9.35938 3.03125 9.42188 2.96875 9.48438C2.90625 9.53646 2.85417 9.59896 2.8125 9.67188C2.77083 9.74479 2.75521 9.83854 2.76562 9.95312C2.72396 9.99479 2.6875 10.0156 2.65625 10.0156C2.625 10.0156 2.58854 9.99479 2.54688 9.95312C2.52604 10.0781 2.48438 10.1823 2.42188 10.2656C2.36979 10.3385 2.30729 10.4062 2.23438 10.4688C2.16146 10.5312 2.08333 10.5938 2 10.6562C1.91667 10.7188 1.83854 10.7865 1.76562 10.8594C1.67188 10.849 1.58854 10.8281 1.51562 10.7969C1.45312 10.7656 1.38542 10.7344 1.3125 10.7031C1.23958 10.6719 1.16146 10.651 1.07812 10.6406C1.00521 10.6198 0.911458 10.6146 0.796875 10.625C0.807292 10.5625 0.796875 10.5156 0.765625 10.4844C0.734375 10.4531 0.692708 10.4271 0.640625 10.4062C0.640625 10.3229 0.640625 10.2188 0.640625 10.0938C0.651042 9.96875 0.65625 9.84375 0.65625 9.71875C0.666667 9.58333 0.682292 9.45833 0.703125 9.34375C0.723958 9.22917 0.755208 9.13542 0.796875 9.0625C0.859375 8.95833 0.958333 8.86458 1.09375 8.78125C1.23958 8.69792 1.39062 8.61458 1.54688 8.53125C1.71354 8.4375 1.86979 8.34375 2.01562 8.25C2.17188 8.14583 2.29688 8.02083 2.39062 7.875C2.40104 7.88542 2.42188 7.89062 2.45312 7.89062C2.53646 7.89062 2.60417 7.86979 2.65625 7.82812C2.70833 7.73438 2.77604 7.66667 2.85938 7.625C2.95312 7.58333 3.03646 7.52083 3.10938 7.4375C3.14062 7.40625 3.15625 7.36979 3.15625 7.32812C3.16667 7.27604 3.1875 7.23438 3.21875 7.20312C3.25 7.17188 3.30729 7.14062 3.39062 7.10938C3.48438 7.07812 3.55729 7.03646 3.60938 6.98438C3.67188 6.93229 3.71875 6.875 3.75 6.8125C3.79167 6.75 3.83854 6.69271 3.89062 6.64062C3.97396 6.57812 4.0625 6.53125 4.15625 6.5C4.26042 6.46875 4.35938 6.42708 4.45312 6.375C4.54688 6.3125 4.63021 6.23958 4.70312 6.15625C4.78646 6.07292 4.84896 5.97396 4.89062 5.85938C5.09896 5.76562 5.30208 5.67188 5.5 5.57812C5.69792 5.47396 5.89062 5.36458 6.07812 5.25C6.18229 5.1875 6.28125 5.11979 6.375 5.04688C6.46875 4.96354 6.5625 4.88542 6.65625 4.8125C6.76042 4.73958 6.86458 4.67708 6.96875 4.625C7.08333 4.57292 7.20312 4.54688 7.32812 4.54688C7.48438 4.54688 7.60417 4.57812 7.6875 4.64062C7.77083 4.69271 7.84375 4.75521 7.90625 4.82812C7.97917 4.89062 8.05208 4.95833 8.125 5.03125C8.20833 5.10417 8.3125 5.15625 8.4375 5.1875C8.54167 5.35417 8.60938 5.53646 8.64062 5.73438C8.68229 5.92188 8.70833 6.11979 8.71875 6.32812C8.72917 6.52604 8.72917 6.72396 8.71875 6.92188C8.71875 7.11979 8.73438 7.3125 8.76562 7.5C8.70312 7.67708 8.63021 7.84896 8.54688 8.01562C8.46354 8.18229 8.42188 8.35938 8.42188 8.54688C8.42188 8.61979 8.42708 8.68229 8.4375 8.73438H8.25C8.20833 9.07812 8.13021 9.41667 8.01562 9.75C7.90104 10.0729 7.77083 10.3958 7.625 10.7188L7.20312 11.6719C7.06771 11.9844 6.95312 12.3073 6.85938 12.6406C6.83854 12.7344 6.80208 12.7917 6.75 12.8125C6.69792 12.8229 6.66146 12.8646 6.64062 12.9375C6.58854 13.0521 6.54688 13.1771 6.51562 13.3125C6.48438 13.4479 6.44271 13.5781 6.39062 13.7031C6.28646 13.974 6.18229 14.2344 6.07812 14.4844C5.97396 14.7344 5.86458 14.9792 5.75 15.2188V15.375C5.75 15.4271 5.76562 15.4531 5.79688 15.4531C5.46354 15.9115 5.23958 16.4323 5.125 17.0156C5.04167 17.0781 4.97917 17.1562 4.9375 17.25C4.90625 17.3333 4.85417 17.4062 4.78125 17.4688C4.70833 17.7708 4.60938 18.0677 4.48438 18.3594C4.36979 18.6406 4.25 18.9219 4.125 19.2031C4 19.4844 3.88021 19.7656 3.76562 20.0469C3.65104 20.3385 3.5625 20.6354 3.5 20.9375C3.38542 21.0417 3.29167 21.1667 3.21875 21.3125C3.15625 21.4583 3.09896 21.6146 3.04688 21.7812C3.00521 21.9479 2.96354 22.1146 2.92188 22.2812C2.89062 22.4479 2.85417 22.599 2.8125 22.7344L2.65625 23.2969V23.6094C2.65625 23.6615 2.65104 23.7188 2.64062 23.7812C2.63021 23.8438 2.59896 23.8854 2.54688 23.9062C2.56771 23.9792 2.59375 24.0365 2.625 24.0781C2.66667 24.1198 2.67708 24.1771 2.65625 24.25C2.69792 24.3333 2.77083 24.3802 2.875 24.3906C2.98958 24.4115 3.08854 24.4375 3.17188 24.4688C3.25521 24.4479 3.30208 24.401 3.3125 24.3281C3.32292 24.2552 3.34896 24.1927 3.39062 24.1406C3.48438 24.0156 3.625 23.8802 3.8125 23.7344C4.01042 23.5885 4.21875 23.4375 4.4375 23.2812C4.66667 23.125 4.88542 22.974 5.09375 22.8281C5.3125 22.6927 5.48958 22.5677 5.625 22.4531H5.90625C6.28125 22.2135 6.65625 21.9792 7.03125 21.75C7.40625 21.5312 7.79688 21.3333 8.20312 21.1562C8.30729 21.0208 8.43229 20.9167 8.57812 20.8438C8.73438 20.7708 8.89062 20.6979 9.04688 20.625C9.21354 20.5625 9.36979 20.4948 9.51562 20.4219C9.67188 20.349 9.79688 20.2448 9.89062 20.1094C10.0052 20.0885 10.1302 20.0625 10.2656 20.0312C10.401 20 10.5 19.9271 10.5625 19.8125H10.625C10.6562 19.8125 10.6875 19.8177 10.7188 19.8281C10.75 19.849 10.7708 19.8802 10.7812 19.9219C10.8542 19.901 10.8958 19.8542 10.9062 19.7812C10.9271 19.7083 10.9635 19.6458 11.0156 19.5938C11.3177 19.4792 11.625 19.3594 11.9375 19.2344C12.25 19.1094 12.5573 18.9688 12.8594 18.8125C13.0052 18.8125 13.1667 18.7917 13.3438 18.75C13.5312 18.7083 13.6719 18.6146 13.7656 18.4688C13.7865 18.4792 13.8125 18.4844 13.8438 18.4844C13.9583 18.4844 14.0677 18.4688 14.1719 18.4375C14.2865 18.3958 14.401 18.3542 14.5156 18.3125C14.6302 18.2604 14.7448 18.2135 14.8594 18.1719C14.974 18.1302 15.0938 18.1042 15.2188 18.0938H15.25C15.2708 18.0938 15.276 18.0677 15.2656 18.0156C15.2656 17.9531 15.2656 17.9167 15.2656 17.9062C15.2656 17.8646 15.2865 17.849 15.3281 17.8594C15.3594 17.849 15.4115 17.8438 15.4844 17.8438C15.599 17.8438 15.7031 17.8698 15.7969 17.9219C15.901 17.9635 16 18.0156 16.0938 18.0781C16.1875 18.1406 16.2812 18.2083 16.375 18.2812C16.4688 18.3438 16.5677 18.3906 16.6719 18.4219C16.651 18.5052 16.6406 18.5729 16.6406 18.625C16.6406 18.6771 16.6458 18.7292 16.6562 18.7812C16.6771 18.8229 16.6979 18.8698 16.7188 18.9219ZM24.7344 3.35938C24.7135 3.45312 24.6771 3.54167 24.625 3.625C24.5729 3.70833 24.5365 3.80208 24.5156 3.90625C24.3802 3.90625 24.25 3.92708 24.125 3.96875C24 4.01042 23.9219 4.10417 23.8906 4.25H23.8438C23.7917 4.25 23.7552 4.22917 23.7344 4.1875C23.724 4.14583 23.6927 4.125 23.6406 4.125H23.625L23.6094 4.14062C23.401 4.20312 23.1927 4.27083 22.9844 4.34375C22.776 4.41667 22.5677 4.48438 22.3594 4.54688C21.9219 4.69271 21.4844 4.83333 21.0469 4.96875C20.6198 5.10417 20.2031 5.27604 19.7969 5.48438H19.4531C18.8281 5.89062 18.1771 6.24479 17.5 6.54688C16.8333 6.84896 16.1771 7.18229 15.5312 7.54688C15.4583 7.66146 15.375 7.77083 15.2812 7.875C15.1875 7.96875 15.0833 8.06771 14.9688 8.17188C15.0312 8.22396 15.0625 8.30729 15.0625 8.42188C15.0625 8.56771 15.0469 8.70833 15.0156 8.84375C14.9844 8.96875 14.9688 9.09896 14.9688 9.23438C14.9688 9.31771 14.9844 9.38021 15.0156 9.42188C15.0469 9.46354 15.0938 9.51042 15.1562 9.5625C15.1354 9.625 15.1094 9.68229 15.0781 9.73438L14.9844 9.875C14.9531 9.91667 14.9219 9.97396 14.8906 10.0469C14.8698 10.1198 14.8594 10.2188 14.8594 10.3438C14.8594 10.7812 14.8229 11.2083 14.75 11.625C14.6771 12.0417 14.6406 12.4688 14.6406 12.9062C14.6406 13.1667 14.6615 13.401 14.7031 13.6094C14.776 13.5781 14.8438 13.5417 14.9062 13.5C14.9688 13.4583 15.0417 13.4167 15.125 13.375C15.1875 13.3438 15.2448 13.3229 15.2969 13.3125C15.3594 13.3021 15.4219 13.2865 15.4844 13.2656C15.5365 13.2448 15.5573 13.2083 15.5469 13.1562C15.5365 13.1042 15.5521 13.0677 15.5938 13.0469C15.625 13.026 15.6667 13.0156 15.7188 13.0156C15.7812 13.0052 15.8333 12.9896 15.875 12.9688C15.9583 12.9479 16.0312 12.9271 16.0938 12.9062C16.1667 12.875 16.2448 12.849 16.3281 12.8281C16.6615 12.7031 16.9844 12.5625 17.2969 12.4062C17.6198 12.25 17.9635 12.1667 18.3281 12.1562C18.3802 12.0833 18.4479 12.0312 18.5312 12C18.6146 11.9583 18.7031 11.9271 18.7969 11.9062C18.8906 11.875 18.9792 11.849 19.0625 11.8281C19.1562 11.7969 19.2344 11.75 19.2969 11.6875C19.6719 11.6042 20.0521 11.5417 20.4375 11.5C20.8333 11.4583 21.2292 11.4375 21.625 11.4375C21.8333 11.4375 22.0417 11.4531 22.25 11.4844C22.4271 11.5781 22.599 11.6615 22.7656 11.7344C22.9323 11.8073 23.1042 11.8854 23.2812 11.9688C23.4583 12.0729 23.6302 12.1927 23.7969 12.3281C23.974 12.4531 24.1354 12.599 24.2812 12.7656C24.4583 12.9427 24.5729 13.151 24.625 13.3906C24.6875 13.6302 24.7188 13.8698 24.7188 14.1094C24.7188 14.1719 24.7135 14.2604 24.7031 14.375C24.7031 14.4896 24.6927 14.6094 24.6719 14.7344C24.6615 14.8594 24.6458 14.9792 24.625 15.0938C24.6042 15.2083 24.5833 15.2917 24.5625 15.3438C24.5417 15.3854 24.4583 15.5312 24.3125 15.7812C24.1771 16.0312 24.026 16.3021 23.8594 16.5938C23.7031 16.8854 23.5521 17.1562 23.4062 17.4062C23.2708 17.6458 23.1927 17.776 23.1719 17.7969C23.151 17.8177 23.1094 17.8333 23.0469 17.8438C22.9948 17.8542 22.9583 17.8594 22.9375 17.8594C22.9167 17.974 22.875 18.0677 22.8125 18.1406C22.7604 18.2135 22.7031 18.2865 22.6406 18.3594C22.5781 18.4219 22.5156 18.4948 22.4531 18.5781C22.401 18.651 22.375 18.75 22.375 18.875C22.2917 18.8958 22.224 18.9323 22.1719 18.9844C22.1198 19.0365 22.0573 19.0729 21.9844 19.0938C21.8385 19.3438 21.6719 19.5729 21.4844 19.7812C21.2969 20 21.099 20.2083 20.8906 20.4062L20.2812 21.0156C20.0833 21.224 19.901 21.4427 19.7344 21.6719H19.6875C19.6042 21.6615 19.5417 21.6823 19.5 21.7344C19.4688 21.7865 19.4167 21.8177 19.3438 21.8281C19.3125 21.8802 19.2917 21.9375 19.2812 22C19.2812 22.0729 19.2865 22.1354 19.2969 22.1875H19C18.8854 22.3333 18.75 22.4531 18.5938 22.5469C18.4479 22.651 18.2917 22.75 18.125 22.8438C17.9688 22.9375 17.8125 23.0365 17.6562 23.1406C17.5104 23.2448 17.3854 23.375 17.2812 23.5312C17.2708 23.5208 17.25 23.5156 17.2188 23.5156C17.1667 23.5156 17.125 23.5312 17.0938 23.5625C17.0729 23.5938 17.0208 23.599 16.9375 23.5781C16.7812 23.6719 16.6562 23.7969 16.5625 23.9531C16.4688 24.1094 16.3333 24.2292 16.1562 24.3125C15.9583 24.2188 15.7552 24.1198 15.5469 24.0156C15.3385 23.9115 15.1667 23.7656 15.0312 23.5781C15.1042 23.4219 15.1458 23.2708 15.1562 23.125C15.6667 22.8333 16.1719 22.526 16.6719 22.2031C17.1719 21.8906 17.6146 21.5052 18 21.0469C18.0104 21.0573 18.0312 21.0625 18.0625 21.0625C18.0938 21.0625 18.1198 21.0521 18.1406 21.0312C18.1615 21.0208 18.1823 21.0156 18.2031 21.0156C18.224 21.0156 18.2396 21.0208 18.25 21.0312C18.2604 21.0417 18.2708 21.0469 18.2812 21.0469C18.2917 20.9531 18.3229 20.875 18.375 20.8125C18.4375 20.7604 18.5 20.7031 18.5625 20.6406C18.625 20.5885 18.6823 20.5312 18.7344 20.4688C18.7865 20.4167 18.8125 20.349 18.8125 20.2656C18.8125 20.224 18.8021 20.1719 18.7812 20.1094C19.0208 19.9844 19.2292 19.8281 19.4062 19.6406C19.5938 19.4635 19.7708 19.2708 19.9375 19.0625C20.1042 18.8646 20.2708 18.6719 20.4375 18.4844C20.6042 18.2865 20.7969 18.1146 21.0156 17.9688V17.6875C21.1302 17.6562 21.2188 17.6042 21.2812 17.5312C21.3542 17.4479 21.4167 17.3594 21.4688 17.2656C21.5208 17.1719 21.5729 17.0833 21.625 17C21.6875 16.9062 21.7708 16.8385 21.875 16.7969C21.875 16.776 21.8802 16.7552 21.8906 16.7344C21.901 16.7031 21.9062 16.6719 21.9062 16.6406C21.9062 16.6198 21.901 16.599 21.8906 16.5781C21.8802 16.5573 21.875 16.5365 21.875 16.5156H22.0312C22.1875 16.1615 22.3646 15.8229 22.5625 15.5C22.7708 15.1667 22.9323 14.8125 23.0469 14.4375C23.026 14.1771 22.9688 13.9583 22.875 13.7812C22.7812 13.6042 22.6719 13.4115 22.5469 13.2031C22.3802 13.2031 22.2552 13.1667 22.1719 13.0938C22.099 13.0104 22 12.9375 21.875 12.875C21.8125 12.8958 21.7552 12.9062 21.7031 12.9062C21.651 12.9062 21.5938 12.901 21.5312 12.8906C21.4792 12.8802 21.4271 12.875 21.375 12.875C21.2604 12.875 21.1667 12.9115 21.0938 12.9844H21.0469C20.9948 12.9948 20.9531 12.9792 20.9219 12.9375C20.901 12.8854 20.8646 12.8594 20.8125 12.8594C20.8021 12.8594 20.7917 12.8646 20.7812 12.875C20.7708 12.875 20.7604 12.875 20.75 12.875C20.5521 12.8542 20.3594 12.8698 20.1719 12.9219C19.9948 12.974 19.8073 13 19.6094 13C19.5469 13 19.4948 12.9948 19.4531 12.9844C19.3594 13.099 19.2292 13.1771 19.0625 13.2188C18.9062 13.2604 18.7604 13.2917 18.625 13.3125C18.375 13.4896 18.1198 13.6406 17.8594 13.7656C17.6094 13.8802 17.3385 13.9792 17.0469 14.0625C16.8698 14.1979 16.6823 14.3229 16.4844 14.4375C16.2865 14.5417 16.0833 14.651 15.875 14.7656C15.6771 14.8802 15.4896 15.0052 15.3125 15.1406C15.1354 15.276 14.9844 15.4375 14.8594 15.625V15.6719C14.849 15.7552 14.875 15.8177 14.9375 15.8594C15 15.901 15.0312 15.974 15.0312 16.0781C14.9479 16.1719 14.8906 16.2656 14.8594 16.3594C14.8385 16.4427 14.8385 16.5521 14.8594 16.6875L14.6094 16.8125C14.526 16.8542 14.4427 16.9062 14.3594 16.9688C14.2448 16.9271 14.1302 16.8854 14.0156 16.8438C13.9115 16.7917 13.7917 16.7656 13.6562 16.7656C13.5938 16.7656 13.5104 16.776 13.4062 16.7969C13.2812 16.599 13.125 16.4271 12.9375 16.2812C12.75 16.1354 12.5677 15.9896 12.3906 15.8438C12.4115 15.6979 12.4427 15.5469 12.4844 15.3906C12.5365 15.224 12.6406 15.1146 12.7969 15.0625C12.8073 15.0104 12.8125 14.9635 12.8125 14.9219V14.7812C12.8125 14.6562 12.8021 14.5365 12.7812 14.4219C12.7708 14.2969 12.7656 14.1771 12.7656 14.0625C12.7656 13.9583 12.7708 13.8854 12.7812 13.8438C12.8021 13.7917 12.8229 13.7552 12.8438 13.7344C12.8646 13.7135 12.8854 13.6979 12.9062 13.6875C12.9271 13.6667 12.9427 13.6406 12.9531 13.6094C12.9844 13.4531 12.9896 13.2865 12.9688 13.1094C12.9583 12.9323 12.9531 12.7656 12.9531 12.6094C12.9531 12.401 12.9688 12.1979 13 12C13.0417 11.7917 13.125 11.599 13.25 11.4219C13.2396 11.3698 13.2344 11.3229 13.2344 11.2812V11.1406C13.2344 10.7031 13.2656 10.2708 13.3281 9.84375C13.401 9.41667 13.4635 8.98438 13.5156 8.54688C13.4219 8.43229 13.3073 8.33333 13.1719 8.25C13.0469 8.16667 12.9375 8.0625 12.8438 7.9375C12.875 7.63542 12.9635 7.39062 13.1094 7.20312C13.2656 7.01562 13.4583 6.82812 13.6875 6.64062V6.59375C13.6875 6.53125 13.6719 6.46875 13.6406 6.40625C13.6198 6.34375 13.6094 6.27604 13.6094 6.20312C13.6094 6.18229 13.6094 6.16667 13.6094 6.15625C13.6198 6.13542 13.625 6.11458 13.625 6.09375C13.75 6.01042 13.901 5.93229 14.0781 5.85938C14.2552 5.78646 14.4167 5.75 14.5625 5.75C14.6562 5.75 14.7396 5.77083 14.8125 5.8125C15.4375 5.58333 16.0521 5.32292 16.6562 5.03125C16.8542 5.02083 17.0521 4.98958 17.25 4.9375C17.4583 4.88542 17.6354 4.78125 17.7812 4.625C17.8854 4.59375 18 4.56771 18.125 4.54688C18.25 4.51562 18.375 4.47917 18.5 4.4375C18.625 4.39583 18.7396 4.34896 18.8438 4.29688C18.9583 4.23438 19.0521 4.16146 19.125 4.07812C19.1979 4.10938 19.2812 4.125 19.375 4.125C19.5 4.125 19.625 4.09375 19.75 4.03125C19.8854 3.95833 19.9948 3.88021 20.0781 3.79688C20.099 3.79688 20.1198 3.80208 20.1406 3.8125C20.1719 3.8125 20.2031 3.8125 20.2344 3.8125C20.3385 3.8125 20.4271 3.79167 20.5 3.75C20.5833 3.70833 20.6667 3.66146 20.75 3.60938C20.8438 3.54688 20.9375 3.49479 21.0312 3.45312C21.125 3.41146 21.2396 3.39062 21.375 3.39062H21.4688C21.5104 3.39062 21.5469 3.39583 21.5781 3.40625C21.724 3.375 21.8698 3.32292 22.0156 3.25C22.1615 3.17708 22.3073 3.14062 22.4531 3.14062C22.5573 3.14062 22.6406 3.17188 22.7031 3.23438C22.7344 3.18229 22.776 3.13021 22.8281 3.07812C22.8802 3.01562 22.9323 2.97396 22.9844 2.95312C23.026 2.93229 23.0781 2.92188 23.1406 2.92188C23.2031 2.91146 23.2604 2.90104 23.3125 2.89062C23.3646 2.88021 23.4062 2.85938 23.4375 2.82812C23.4792 2.79688 23.5 2.75 23.5 2.6875C23.5417 2.70833 23.5833 2.71875 23.625 2.71875C23.6771 2.71875 23.724 2.70312 23.7656 2.67188C23.8177 2.63021 23.8594 2.59375 23.8906 2.5625C23.9635 2.58333 24.0156 2.61979 24.0469 2.67188C24.0885 2.72396 24.125 2.78125 24.1562 2.84375C24.1979 2.89583 24.2448 2.94271 24.2969 2.98438C24.3594 3.02604 24.4479 3.03646 24.5625 3.01562C24.5833 3.15104 24.6406 3.26562 24.7344 3.35938ZM40.3281 8.14062C40.2656 8.24479 40.2135 8.36458 40.1719 8.5C40.1302 8.625 40.0781 8.75 40.0156 8.875C39.9635 9 39.8958 9.11458 39.8125 9.21875C39.7396 9.3125 39.6354 9.38021 39.5 9.42188V9.53125C39.5 9.63542 39.474 9.71354 39.4219 9.76562C39.3802 9.81771 39.3698 9.91146 39.3906 10.0469C39.026 10.4323 38.6979 10.8438 38.4062 11.2812C38.1146 11.7083 37.7865 12.1146 37.4219 12.5C37.401 12.4896 37.3698 12.4844 37.3281 12.4844C37.2552 12.4844 37.1979 12.5052 37.1562 12.5469C37.125 12.5781 37.0885 12.5938 37.0469 12.5938C37.0156 12.5938 36.9896 12.5833 36.9688 12.5625C36.8021 12.7708 36.6458 12.9844 36.5 13.2031C36.3542 13.4219 36.2031 13.6354 36.0469 13.8438C35.8906 14.0521 35.724 14.2604 35.5469 14.4688C35.3802 14.6667 35.1979 14.8542 35 15.0312C34.8854 15.3021 34.7396 15.5573 34.5625 15.7969C34.3958 16.0365 34.2188 16.2708 34.0312 16.5C33.8438 16.7292 33.6667 16.9635 33.5 17.2031C33.3333 17.4427 33.2031 17.7031 33.1094 17.9844C33.0573 17.9844 33.0156 18 32.9844 18.0312C32.9635 18.0521 32.9271 18.0625 32.875 18.0625C32.7604 18.3438 32.6302 18.6094 32.4844 18.8594C32.349 19.099 32.2135 19.3438 32.0781 19.5938C31.9531 19.8438 31.8438 20.1042 31.75 20.375C31.6667 20.6458 31.625 20.9479 31.625 21.2812V21.4688C31.625 21.5312 31.6302 21.5885 31.6406 21.6406C31.7448 21.7552 31.8594 21.8646 31.9844 21.9688C32.1094 22.0729 32.1719 22.2031 32.1719 22.3594C32.1719 22.4531 32.151 22.5469 32.1094 22.6406C32.0677 22.7344 32.0469 22.8333 32.0469 22.9375C31.8802 22.9479 31.7188 22.974 31.5625 23.0156C31.4062 23.0573 31.25 23.0833 31.0938 23.0938C30.9167 22.9792 30.7656 22.9062 30.6406 22.875C30.5156 22.8438 30.349 22.8073 30.1406 22.7656C30.0885 22.6823 30.0469 22.5938 30.0156 22.5C29.9844 22.4062 29.9323 22.3281 29.8594 22.2656C29.9115 22.1094 29.9427 21.9479 29.9531 21.7812C29.9635 21.6146 29.9635 21.4479 29.9531 21.2812C29.9531 21.1146 29.9531 20.9479 29.9531 20.7812C29.9635 20.6146 29.9896 20.4531 30.0312 20.2969C30.1146 20.2031 30.1823 20.0938 30.2344 19.9688C30.2865 19.8542 30.3333 19.7292 30.375 19.5938C30.4167 19.4583 30.4583 19.3281 30.5 19.2031C30.5417 19.0781 30.5885 18.9583 30.6406 18.8438C30.6719 18.8438 30.6927 18.8333 30.7031 18.8125C30.724 18.7812 30.7396 18.7552 30.75 18.7344C30.7604 18.7031 30.776 18.6823 30.7969 18.6719C30.8177 18.651 30.8594 18.6458 30.9219 18.6562C31.1094 18.1458 31.3594 17.6719 31.6719 17.2344C31.9844 16.7969 32.276 16.3385 32.5469 15.8594C32.6302 15.8177 32.7031 15.7656 32.7656 15.7031C32.8385 15.6406 32.9115 15.5833 32.9844 15.5312C33.0365 15.3958 33.1042 15.2708 33.1875 15.1562L33.4531 14.8125C33.5469 14.6979 33.6302 14.5833 33.7031 14.4688C33.7865 14.3542 33.849 14.224 33.8906 14.0781C34.0052 14.026 34.0938 13.9531 34.1562 13.8594C34.2292 13.7552 34.2917 13.651 34.3438 13.5469C34.4062 13.4427 34.474 13.3438 34.5469 13.25C34.6198 13.1562 34.7188 13.0938 34.8438 13.0625C34.8646 12.8958 34.9115 12.7604 34.9844 12.6562C35.0677 12.5521 35.1562 12.4531 35.25 12.3594C35.3438 12.2552 35.4271 12.151 35.5 12.0469C35.5729 11.9323 35.6146 11.7865 35.625 11.6094C35.6562 11.6406 35.6823 11.6562 35.7031 11.6562C35.724 11.6562 35.7396 11.651 35.75 11.6406C35.7708 11.6198 35.8073 11.6094 35.8594 11.6094C35.9323 11.4635 36.0208 11.3229 36.125 11.1875C36.2292 11.0521 36.3333 10.9219 36.4375 10.7969C36.5417 10.6615 36.6406 10.526 36.7344 10.3906C36.8281 10.2448 36.9062 10.0885 36.9688 9.92188C37.0521 9.91146 37.1198 9.89062 37.1719 9.85938C37.224 9.81771 37.2865 9.78125 37.3594 9.75V9.64062C37.3594 9.54688 37.3802 9.45833 37.4219 9.375C37.4635 9.29167 37.4844 9.20312 37.4844 9.10938C37.4844 9.07812 37.4792 9.05208 37.4688 9.03125C37.4271 8.97917 37.375 8.94792 37.3125 8.9375C37.2604 8.92708 37.2031 8.92188 37.1406 8.92188C37.0677 8.94271 37.0052 8.97396 36.9531 9.01562C36.9115 9.05729 36.8594 9.09896 36.7969 9.14062H36.125C35.9583 9.25521 35.776 9.34375 35.5781 9.40625C35.3802 9.45833 35.1771 9.50521 34.9688 9.54688C34.7708 9.58854 34.5781 9.63542 34.3906 9.6875C34.2031 9.73958 34.0365 9.81771 33.8906 9.92188C33.8385 9.85938 33.75 9.82812 33.625 9.82812C33.4375 9.82812 33.25 9.86458 33.0625 9.9375C32.875 10 32.6875 10.0365 32.5 10.0469V10.1562C32.5 10.3229 32.5052 10.4896 32.5156 10.6562C32.526 10.8229 32.5312 10.9896 32.5312 11.1562C32.5312 11.2396 32.526 11.3177 32.5156 11.3906C32.5156 11.4635 32.5104 11.5365 32.5 11.6094C32.4792 11.724 32.4479 11.7917 32.4062 11.8125C32.375 11.8333 32.3438 11.875 32.3125 11.9375C32.2917 12.0104 32.276 12.0781 32.2656 12.1406C32.2656 12.2031 32.2552 12.2656 32.2344 12.3281C32.1823 12.4844 32.1094 12.6198 32.0156 12.7344C31.9219 12.8385 31.8125 12.9375 31.6875 13.0312C31.5729 13.125 31.4531 13.2188 31.3281 13.3125C31.2031 13.3958 31.0833 13.4844 30.9688 13.5781C30.9167 13.5781 30.8958 13.6094 30.9062 13.6719C30.9167 13.724 30.901 13.7656 30.8594 13.7969C30.7344 13.901 30.5677 14 30.3594 14.0938C30.1615 14.1875 29.9531 14.276 29.7344 14.3594C29.5156 14.4427 29.2969 14.5312 29.0781 14.625C28.8698 14.7188 28.6823 14.8177 28.5156 14.9219C28.4427 14.8385 28.3542 14.7865 28.25 14.7656C28.1562 14.7448 28.0625 14.7344 27.9688 14.7344C27.8021 14.7344 27.6302 14.7604 27.4531 14.8125C27.4427 14.75 27.4167 14.7031 27.375 14.6719C27.3333 14.6302 27.2812 14.6042 27.2188 14.5938C27.1667 14.5729 27.1094 14.5573 27.0469 14.5469C26.9844 14.5365 26.9271 14.526 26.875 14.5156C26.6354 14.276 26.4688 13.9792 26.375 13.625C26.2917 13.2604 26.25 12.9115 26.25 12.5781C26.25 12.2031 26.2969 11.8438 26.3906 11.5C26.474 11.4792 26.5417 11.4323 26.5938 11.3594C26.6562 11.2865 26.7135 11.2188 26.7656 11.1562V10.7656C26.974 10.6302 27.1146 10.4531 27.1875 10.2344C27.2604 10.0156 27.349 9.80208 27.4531 9.59375C27.5573 9.38542 27.6823 9.19271 27.8281 9.01562C27.974 8.83854 28.0729 8.63542 28.125 8.40625C28.2292 8.41667 28.2865 8.38542 28.2969 8.3125C28.3177 8.22917 28.3542 8.15104 28.4062 8.07812C28.4688 8.02604 28.5208 7.97396 28.5625 7.92188C28.6042 7.85938 28.6615 7.81771 28.7344 7.79688C28.7552 7.66146 28.8021 7.55729 28.875 7.48438C28.9583 7.40104 29.026 7.29688 29.0781 7.17188C29.2031 7.13021 29.3281 7.06771 29.4531 6.98438C29.5781 6.90104 29.6979 6.81771 29.8125 6.73438C29.9375 6.65104 30.0573 6.57292 30.1719 6.5C30.2865 6.42708 30.3906 6.375 30.4844 6.34375C30.5365 6.32292 30.599 6.3125 30.6719 6.3125C30.7448 6.30208 30.8073 6.29688 30.8594 6.29688C31.0469 6.29688 31.224 6.3125 31.3906 6.34375C31.5677 6.375 31.75 6.39062 31.9375 6.39062C31.9792 6.48438 32.0469 6.55208 32.1406 6.59375C32.2448 6.63542 32.3281 6.70312 32.3906 6.79688C32.3906 6.81771 32.3906 6.84375 32.3906 6.875C32.401 6.90625 32.4062 6.9375 32.4062 6.96875C32.4062 7.01042 32.401 7.05208 32.3906 7.09375C32.3906 7.13542 32.3906 7.18229 32.3906 7.23438C32.276 7.33854 32.1719 7.41146 32.0781 7.45312C31.9844 7.48438 31.8646 7.48958 31.7188 7.46875C31.7292 7.625 31.8021 7.75 31.9375 7.84375C32.0729 7.92708 32.2292 7.98958 32.4062 8.03125C32.5938 8.0625 32.7812 8.08333 32.9688 8.09375C33.1667 8.10417 33.3229 8.10938 33.4375 8.10938C33.6458 8.10938 33.8646 8.09896 34.0938 8.07812C34.3333 8.04688 34.5469 7.98958 34.7344 7.90625C34.7865 7.92708 34.8438 7.94271 34.9062 7.95312C34.9792 7.95312 35.0365 7.97917 35.0781 8.03125C35.1198 8 35.1615 7.96875 35.2031 7.9375C35.2552 7.89583 35.3073 7.875 35.3594 7.875C35.401 7.875 35.4531 7.88542 35.5156 7.90625C35.6198 7.82292 35.7396 7.76562 35.875 7.73438C36.0208 7.69271 36.1667 7.67188 36.3125 7.67188C36.4688 7.66146 36.6198 7.65625 36.7656 7.65625C36.9219 7.65625 37.0677 7.64583 37.2031 7.625C37.3385 7.60417 37.4792 7.56771 37.625 7.51562L38.0625 7.34375C38.2083 7.28125 38.349 7.22917 38.4844 7.1875C38.6302 7.13542 38.7656 7.10938 38.8906 7.10938C38.9844 7.10938 39.0729 7.11979 39.1562 7.14062C39.25 7.15104 39.3438 7.15625 39.4375 7.15625C39.4792 7.15625 39.5156 7.15625 39.5469 7.15625C39.5781 7.14583 39.6146 7.13542 39.6562 7.125C39.75 7.20833 39.8333 7.28125 39.9062 7.34375C39.9896 7.40625 40.0625 7.47396 40.125 7.54688C40.1875 7.61979 40.2344 7.70312 40.2656 7.79688C40.3073 7.89062 40.3281 8.00521 40.3281 8.14062ZM43.7656 16.875C43.7656 17.0417 43.7552 17.2083 43.7344 17.375C43.7135 17.5417 43.7031 17.7083 43.7031 17.875C43.6198 17.9896 43.5573 18.1042 43.5156 18.2188C43.4844 18.3333 43.4323 18.4427 43.3594 18.5469C43.2969 18.6406 43.224 18.724 43.1406 18.7969C43.0573 18.8594 42.9688 18.9271 42.875 19C42.7917 19.0729 42.7083 19.151 42.625 19.2344C42.5417 19.3281 42.474 19.4375 42.4219 19.5625C42.099 19.6562 41.875 19.8438 41.75 20.125C41.4271 20.2708 41.1146 20.4323 40.8125 20.6094C40.5104 20.7865 40.224 20.9792 39.9531 21.1875C39.776 21.1667 39.6615 21.1719 39.6094 21.2031C39.5677 21.2344 39.5104 21.3229 39.4375 21.4688C39.4062 21.4688 39.375 21.4635 39.3438 21.4531C39.3229 21.4531 39.2969 21.4531 39.2656 21.4531C39.1094 21.4531 38.9427 21.4792 38.7656 21.5312C38.599 21.5938 38.4479 21.6667 38.3125 21.75C38.1354 21.75 37.9583 21.7552 37.7812 21.7656C37.6146 21.776 37.4427 21.7812 37.2656 21.7812C36.9844 21.7812 36.7135 21.7448 36.4531 21.6719C36.2031 21.6094 35.9844 21.4635 35.7969 21.2344C35.7135 20.9323 35.6562 20.6302 35.625 20.3281C35.6042 20.026 35.5833 19.7188 35.5625 19.4062C35.6562 19.1667 35.7656 18.9427 35.8906 18.7344C36.026 18.526 36.125 18.3021 36.1875 18.0625C36.2396 18.0417 36.2865 18.0156 36.3281 17.9844C36.3698 17.9427 36.4167 17.9062 36.4688 17.875C36.5104 17.6771 36.5833 17.5104 36.6875 17.375C36.8021 17.2292 36.9219 17.099 37.0469 16.9844C37.1823 16.8594 37.3073 16.7344 37.4219 16.6094C37.5469 16.4844 37.6458 16.3333 37.7188 16.1562C37.8125 16.1458 37.8854 16.1198 37.9375 16.0781C38 16.0365 38.0885 16.026 38.2031 16.0469C38.2865 16.0156 38.3333 15.9635 38.3438 15.8906C38.3646 15.8177 38.3958 15.7552 38.4375 15.7031H38.5C38.6667 15.7031 38.8073 15.6615 38.9219 15.5781C39.0365 15.4844 39.1667 15.4375 39.3125 15.4375C39.375 15.4375 39.4375 15.4531 39.5 15.4844C39.6771 15.401 39.8438 15.3073 40 15.2031C40.1562 15.0885 40.3281 14.9948 40.5156 14.9219C40.599 14.9219 40.6823 14.9219 40.7656 14.9219C40.8594 14.9115 40.9531 14.9062 41.0469 14.9062C41.2969 14.9062 41.526 14.9323 41.7344 14.9844C41.9531 15.0365 42.1615 15.1667 42.3594 15.375C42.651 15.3958 42.8802 15.474 43.0469 15.6094C43.2135 15.7448 43.3906 15.9062 43.5781 16.0938C43.599 16.1771 43.6146 16.276 43.625 16.3906C43.6458 16.4948 43.6927 16.5781 43.7656 16.6406V16.875ZM42.25 16.7969C42.25 16.776 42.2448 16.7552 42.2344 16.7344C42.2344 16.7031 42.2344 16.6719 42.2344 16.6406C42.099 16.5469 41.9583 16.4688 41.8125 16.4062C41.6667 16.3333 41.5104 16.2865 41.3438 16.2656C41.2812 16.349 41.2031 16.4167 41.1094 16.4688C41.026 16.5104 40.9375 16.5521 40.8438 16.5938C40.75 16.6354 40.6562 16.6823 40.5625 16.7344C40.4688 16.7865 40.3906 16.8542 40.3281 16.9375V17.0469C40.3281 17.1823 40.2917 17.3333 40.2188 17.5C40.0938 17.5 39.9948 17.5208 39.9219 17.5625C39.8594 17.6042 39.8073 17.6615 39.7656 17.7344C39.724 17.8073 39.6875 17.8854 39.6562 17.9688C39.625 18.0521 39.5885 18.1354 39.5469 18.2188C39.3698 18.1667 39.2135 18.0833 39.0781 17.9688C38.9427 17.8438 38.7865 17.7604 38.6094 17.7188C38.4948 17.8021 38.3906 17.8958 38.2969 18C38.2135 18.0938 38.0885 18.151 37.9219 18.1719C37.8906 18.3385 37.8438 18.5052 37.7812 18.6719C37.7188 18.8281 37.6562 18.9896 37.5938 19.1562C37.5312 19.3229 37.474 19.4896 37.4219 19.6562C37.3802 19.8229 37.3594 19.9948 37.3594 20.1719V20.2969C37.4427 20.3177 37.5 20.3542 37.5312 20.4062C37.5729 20.4583 37.6354 20.4948 37.7188 20.5156C37.8646 20.4948 38.0052 20.4531 38.1406 20.3906C38.2865 20.3385 38.4271 20.2812 38.5625 20.2188C38.7083 20.1562 38.849 20.099 38.9844 20.0469C39.1302 20.0052 39.2812 19.974 39.4375 19.9531C39.4583 19.901 39.4844 19.8438 39.5156 19.7812C39.5469 19.7292 39.5938 19.6927 39.6562 19.6719C39.75 19.6719 39.849 19.6458 39.9531 19.5938C40.0573 19.5521 40.1615 19.4948 40.2656 19.4219C40.3698 19.3594 40.474 19.2969 40.5781 19.2344C40.6823 19.1719 40.7865 19.1302 40.8906 19.1094C40.974 18.9635 41.0625 18.8542 41.1562 18.7812C41.2604 18.6979 41.3958 18.6562 41.5625 18.6562C41.75 18.4167 41.9115 18.125 42.0469 17.7812C42.1823 17.4375 42.25 17.1094 42.25 16.7969ZM31.0938 10.8125V10.7656C31 10.6406 30.9531 10.5104 30.9531 10.375C30.9531 10.3229 30.9531 10.276 30.9531 10.2344C30.9635 10.1927 30.9688 10.1458 30.9688 10.0938C30.9688 10.0521 30.9531 10.0104 30.9219 9.96875C30.8906 9.91667 30.8542 9.86458 30.8125 9.8125C30.7812 9.76042 30.75 9.69792 30.7188 9.625C30.6979 9.55208 30.6927 9.46875 30.7031 9.375C30.6094 9.34375 30.526 9.29688 30.4531 9.23438C30.3906 9.16146 30.3281 9.08854 30.2656 9.01562C30.2135 8.94271 30.1562 8.88021 30.0938 8.82812C30.0312 8.76562 29.9531 8.73438 29.8594 8.73438C29.7865 8.73438 29.7344 8.73958 29.7031 8.75C29.599 8.91667 29.4896 9.05729 29.375 9.17188C29.2708 9.27604 29.2083 9.43229 29.1875 9.64062C28.9792 9.75521 28.8438 9.91146 28.7812 10.1094C28.7292 10.3073 28.6771 10.5104 28.625 10.7188C28.5625 10.7396 28.5208 10.7708 28.5 10.8125C28.4896 10.8438 28.4427 10.849 28.3594 10.8281C28.3073 11.1094 28.2344 11.3906 28.1406 11.6719C28.0469 11.9427 28 12.224 28 12.5156C28 12.9323 28.1927 13.2135 28.5781 13.3594C28.6302 13.3177 28.6771 13.276 28.7188 13.2344C28.7604 13.1927 28.8177 13.1719 28.8906 13.1719C28.9427 13.1719 28.974 13.1927 28.9844 13.2344C29.0052 13.2656 29.0417 13.2812 29.0938 13.2812H29.1406C29.2344 13.2292 29.3177 13.1771 29.3906 13.125L29.6094 12.9531C29.6823 12.8906 29.7656 12.8438 29.8594 12.8125C29.9531 12.7708 30.0625 12.7448 30.1875 12.7344C30.2604 12.6094 30.3438 12.4896 30.4375 12.375C30.5417 12.2604 30.6354 12.1458 30.7188 12.0312C30.8021 11.9167 30.875 11.7969 30.9375 11.6719C31 11.5469 31.0312 11.401 31.0312 11.2344C31.0312 11.1823 31.0208 11.1354 31 11.0938C30.9792 11.0417 30.9688 10.9896 30.9688 10.9375C30.9688 10.8958 30.9896 10.875 31.0312 10.875C31.0729 10.875 31.0938 10.8542 31.0938 10.8125ZM61.5312 9.95312C61.4688 10.0469 61.4323 10.151 61.4219 10.2656C61.4115 10.3802 61.4062 10.4844 61.4062 10.5781C61.4062 10.7031 61.4062 10.8281 61.4062 10.9531C61.4167 11.0677 61.4219 11.1823 61.4219 11.2969V11.5312C61.401 11.6042 61.3698 11.6771 61.3281 11.75C61.2865 11.8229 61.2552 11.8958 61.2344 11.9688C61.0885 12.3542 61.0156 12.7396 61.0156 13.125V13.1562C60.9635 13.2812 60.9115 13.3958 60.8594 13.5C60.8177 13.6042 60.776 13.7083 60.7344 13.8125C60.6927 13.9062 60.6615 14.0104 60.6406 14.125C60.6198 14.2292 60.6146 14.3542 60.625 14.5C60.4792 14.8646 60.2865 15.1979 60.0469 15.5C59.8073 15.7917 59.5729 16.0938 59.3438 16.4062C59.125 16.4896 58.9219 16.599 58.7344 16.7344C58.5573 16.8698 58.3854 17.0208 58.2188 17.1875C57.8958 17.2917 57.5781 17.4115 57.2656 17.5469C56.9531 17.6823 56.6719 17.8646 56.4219 18.0938C56.224 18.1146 56.026 18.1458 55.8281 18.1875C55.6302 18.2292 55.4375 18.2917 55.25 18.375H55.0625C54.9688 18.375 54.901 18.3542 54.8594 18.3125C54.724 18.3854 54.5833 18.4375 54.4375 18.4688C54.2917 18.4896 54.1458 18.5 54 18.5C53.8125 18.5 53.625 18.4896 53.4375 18.4688C53.2604 18.4375 53.0781 18.4062 52.8906 18.375C52.7865 18.2292 52.6406 18.1198 52.4531 18.0469C52.2656 17.9635 52.099 17.8854 51.9531 17.8125C51.651 17.3958 51.4323 16.9948 51.2969 16.6094C51.1615 16.2135 51.0208 15.7708 50.875 15.2812C50.8958 15.1354 50.9323 14.9948 50.9844 14.8594C51.0365 14.7135 51.0573 14.5573 51.0469 14.3906C51.2344 13.849 51.4792 13.3594 51.7812 12.9219C52.0938 12.474 52.4479 12.0469 52.8438 11.6406C52.8438 11.5781 52.8542 11.526 52.875 11.4844C52.9062 11.4427 52.9115 11.3802 52.8906 11.2969C52.901 11.3073 52.9219 11.3125 52.9531 11.3125C53.0365 11.3125 53.0885 11.2917 53.1094 11.25C53.1302 11.1979 53.1354 11.1406 53.125 11.0781C53.5 10.8385 53.8385 10.5625 54.1406 10.25C54.4531 9.9375 54.8073 9.67708 55.2031 9.46875C55.2344 9.375 55.2865 9.29688 55.3594 9.23438C55.4323 9.17188 55.4896 9.09896 55.5312 9.01562C55.8646 8.92188 56.1667 8.78125 56.4375 8.59375C56.7083 8.40625 56.9948 8.23958 57.2969 8.09375C57.4635 8 57.6198 7.9375 57.7656 7.90625C57.9219 7.86458 58.0885 7.82292 58.2656 7.78125C58.3281 7.76042 58.3854 7.74479 58.4375 7.73438C58.4896 7.72396 58.5469 7.71875 58.6094 7.71875C58.7969 7.71875 58.9792 7.75521 59.1562 7.82812C59.3333 7.89062 59.5156 7.92188 59.7031 7.92188C59.7552 7.92188 59.7969 7.92188 59.8281 7.92188C59.8698 7.91146 59.9115 7.90104 59.9531 7.89062C60.1302 8.10938 60.3542 8.27604 60.625 8.39062C60.6875 8.54688 60.7604 8.68229 60.8438 8.79688C60.9375 8.91146 61.0312 9.02604 61.125 9.14062C61.2188 9.24479 61.3021 9.36458 61.375 9.5C61.4583 9.625 61.5104 9.77604 61.5312 9.95312ZM59.9688 10.7656C59.9688 10.7135 59.9635 10.6667 59.9531 10.625C59.849 10.5938 59.75 10.5521 59.6562 10.5C59.5625 10.4479 59.4583 10.4219 59.3438 10.4219C59.2708 10.4219 59.1979 10.4375 59.125 10.4688C59.1146 10.3958 59.0833 10.3438 59.0312 10.3125C58.9896 10.2812 58.9375 10.2552 58.875 10.2344C58.8229 10.2031 58.7656 10.1823 58.7031 10.1719C58.651 10.151 58.6042 10.1198 58.5625 10.0781C58.5312 9.99479 58.4948 9.91146 58.4531 9.82812C58.4219 9.73438 58.3594 9.66667 58.2656 9.625C58.1719 9.71875 58.0625 9.79688 57.9375 9.85938C57.8125 9.91146 57.6823 9.96354 57.5469 10.0156C57.4219 10.0677 57.2969 10.1302 57.1719 10.2031C57.0573 10.276 56.9583 10.3646 56.875 10.4688H56.5938C56.5312 10.5833 56.4427 10.6719 56.3281 10.7344C56.2135 10.7865 56.1146 10.8646 56.0312 10.9688C55.8646 11.0521 55.7083 11.1562 55.5625 11.2812C55.4271 11.3958 55.2917 11.5208 55.1562 11.6562C55.0208 11.7812 54.8854 11.9115 54.75 12.0469C54.625 12.1823 54.4896 12.3073 54.3438 12.4219C54.2083 12.7135 54.0573 12.9688 53.8906 13.1875C53.7344 13.3958 53.5833 13.6094 53.4375 13.8281C53.3021 14.0469 53.1823 14.2865 53.0781 14.5469C52.9844 14.7969 52.9375 15.1094 52.9375 15.4844V15.6406C52.9375 15.6927 52.9427 15.7448 52.9531 15.7969C53.0885 15.9427 53.1979 16.099 53.2812 16.2656C53.375 16.4323 53.526 16.5521 53.7344 16.625C53.9427 16.7083 54.1615 16.7448 54.3906 16.7344C54.6302 16.724 54.8594 16.75 55.0781 16.8125C55.5781 16.7188 56.0573 16.5677 56.5156 16.3594C56.9844 16.1406 57.4271 15.8802 57.8438 15.5781C57.9062 15.526 57.9792 15.474 58.0625 15.4219C58.1458 15.3594 58.2135 15.2969 58.2656 15.2344C58.3177 15.1823 58.3594 15.125 58.3906 15.0625C58.4323 15 58.474 14.9427 58.5156 14.8906C58.599 14.7552 58.6927 14.6198 58.7969 14.4844C58.901 14.349 59.0104 14.224 59.125 14.1094C59.1771 13.8802 59.2448 13.6615 59.3281 13.4531C59.4115 13.2344 59.4948 13.0208 59.5781 12.8125C59.6615 12.6042 59.7292 12.3906 59.7812 12.1719C59.8438 11.9531 59.875 11.724 59.875 11.4844C59.875 11.4323 59.8698 11.375 59.8594 11.3125C59.8594 11.25 59.8542 11.1927 59.8438 11.1406C59.9271 11.026 59.9688 10.901 59.9688 10.7656ZM75.5156 8.90625C75.5156 8.96875 75.4844 9.02083 75.4219 9.0625C75.3698 9.10417 75.3073 9.14583 75.2344 9.1875C75.1719 9.22917 75.1042 9.27604 75.0312 9.32812C74.9688 9.38021 74.9271 9.44271 74.9062 9.51562H74.7656C74.7031 9.51562 74.6719 9.53646 74.6719 9.57812H74.625C74.5312 9.57812 74.4688 9.55208 74.4375 9.5C74.4062 9.4375 74.3385 9.40625 74.2344 9.40625C73.974 9.40625 73.7135 9.41146 73.4531 9.42188C73.2031 9.42188 72.9479 9.42708 72.6875 9.4375C71.9688 9.4375 71.2604 9.46354 70.5625 9.51562C69.875 9.55729 69.1927 9.70312 68.5156 9.95312C68.4948 9.96354 68.4688 9.96875 68.4375 9.96875C68.3854 9.96875 68.3542 9.94792 68.3438 9.90625C68.3438 9.86458 68.3177 9.84375 68.2656 9.84375C68.1198 9.84375 67.9844 9.85938 67.8594 9.89062C67.7344 9.92188 67.599 9.94271 67.4531 9.95312C67.2865 10.099 67.0938 10.2188 66.875 10.3125C66.6667 10.4062 66.4479 10.5 66.2188 10.5938C66 10.6771 65.7865 10.7708 65.5781 10.875C65.3698 10.9688 65.1875 11.0938 65.0312 11.25C65.0521 11.375 65.0677 11.5 65.0781 11.625C65.099 11.7396 65.1094 11.8542 65.1094 11.9688C65.1094 12.4167 65.0677 12.8594 64.9844 13.2969C64.901 13.724 64.8594 14.1562 64.8594 14.5938V14.8281C64.8594 14.901 64.8646 14.9792 64.875 15.0625C64.8958 15.1146 64.9323 15.151 64.9844 15.1719C65.0469 15.1823 65.099 15.2031 65.1406 15.2344C65.276 15.1406 65.4115 15.0677 65.5469 15.0156C65.6927 14.9531 65.8385 14.8958 65.9844 14.8438C66.1406 14.7812 66.2865 14.724 66.4219 14.6719C66.5677 14.6094 66.7083 14.5365 66.8438 14.4531H67.2812C67.3958 14.3698 67.5312 14.3073 67.6875 14.2656C67.8438 14.224 67.9479 14.1302 68 13.9844C68.0208 14.0052 68.0417 14.0156 68.0625 14.0156H68.125C68.25 14.0156 68.375 13.9896 68.5 13.9375C68.6354 13.8854 68.7708 13.8333 68.9062 13.7812C69.0417 13.7188 69.1771 13.6615 69.3125 13.6094C69.4479 13.5573 69.5885 13.5312 69.7344 13.5312C69.7656 13.5312 69.7917 13.5365 69.8125 13.5469C69.8438 13.5469 69.875 13.5469 69.9062 13.5469C69.9688 13.4427 70.0573 13.3646 70.1719 13.3125C70.2865 13.25 70.4062 13.1979 70.5312 13.1562C70.6562 13.1146 70.7812 13.0729 70.9062 13.0312C71.0417 12.9896 71.1562 12.9375 71.25 12.875H71.3125C71.375 12.875 71.4219 12.8906 71.4531 12.9219C71.4948 12.9427 71.5417 12.9635 71.5938 12.9844C71.8854 12.7969 72.1823 12.7031 72.4844 12.7031C72.7969 12.6927 73.1198 12.6719 73.4531 12.6406C73.526 12.7656 73.5885 12.8698 73.6406 12.9531C73.7031 13.026 73.7344 13.1354 73.7344 13.2812C73.7344 13.3542 73.7292 13.4062 73.7188 13.4375C73.6042 13.4792 73.5156 13.5156 73.4531 13.5469L73.2812 13.6406C73.2292 13.6615 73.1667 13.6823 73.0938 13.7031C73.0208 13.7135 72.9167 13.7188 72.7812 13.7188C72.6979 13.7188 72.6615 13.7448 72.6719 13.7969C72.6823 13.8385 72.6562 13.8646 72.5938 13.875C72.4479 13.9271 72.3021 13.9688 72.1562 14C72.0104 14.0312 71.8646 14.0729 71.7188 14.125C71.4167 14.2188 71.1146 14.3229 70.8125 14.4375C70.5208 14.5417 70.2188 14.625 69.9062 14.6875C69.6458 14.8958 69.3646 15.0677 69.0625 15.2031C68.7604 15.3281 68.4479 15.4323 68.125 15.5156C67.7812 15.7656 67.4427 16 67.1094 16.2188C66.776 16.4271 66.401 16.6042 65.9844 16.75C65.9323 16.8021 65.8698 16.849 65.7969 16.8906C65.724 16.9323 65.6771 16.9948 65.6562 17.0781C65.6354 17.0781 65.6094 17.0781 65.5781 17.0781C65.5573 17.0677 65.5312 17.0625 65.5 17.0625C65.3542 17.0625 65.2396 17.099 65.1562 17.1719C65.0833 17.2344 64.9896 17.276 64.875 17.2969C64.8229 17.4531 64.7969 17.5885 64.7969 17.7031C64.7969 17.849 64.8229 17.9792 64.875 18.0938C64.9271 18.2083 64.9896 18.3177 65.0625 18.4219C65.1458 18.526 65.2292 18.6302 65.3125 18.7344C65.4062 18.8281 65.4844 18.9323 65.5469 19.0469C65.526 19.1719 65.4844 19.2708 65.4219 19.3438C65.3698 19.4271 65.3073 19.5 65.2344 19.5625C65.1615 19.6354 65.0885 19.7083 65.0156 19.7812C64.9531 19.8542 64.9062 19.9479 64.875 20.0625C64.6875 20.0938 64.5052 20.1094 64.3281 20.1094C64.2135 20.1094 64.0938 20.0938 63.9688 20.0625C63.8542 20.0417 63.7448 20 63.6406 19.9375C63.474 19.7083 63.3542 19.4635 63.2812 19.2031C63.2188 18.9427 63.1302 18.6823 63.0156 18.4219L63.0312 18.3125C63.0312 18.0833 62.9896 17.8854 62.9062 17.7188C62.8333 17.5417 62.7188 17.3646 62.5625 17.1875C62.5729 17.1667 62.5781 17.1302 62.5781 17.0781C62.5781 16.9427 62.5365 16.8177 62.4531 16.7031C62.474 16.4635 62.5365 16.276 62.6406 16.1406C62.7552 16.0052 62.8802 15.8542 63.0156 15.6875V15.5C63.0156 15.0521 63.0521 14.6146 63.125 14.1875C63.2083 13.75 63.25 13.3125 63.25 12.875C63.25 12.6042 63.2292 12.3646 63.1875 12.1562C63.1562 12.1458 63.1146 12.1406 63.0625 12.1406C63.0104 12.1406 62.9688 12.1562 62.9375 12.1875C62.9062 12.2083 62.8802 12.2344 62.8594 12.2656C62.8385 12.2969 62.8125 12.3281 62.7812 12.3594C62.7604 12.3906 62.724 12.4115 62.6719 12.4219C62.4948 12.3906 62.3802 12.3073 62.3281 12.1719C62.276 12.0365 62.25 11.8854 62.25 11.7188C62.25 11.625 62.2552 11.5312 62.2656 11.4375C62.276 11.3438 62.2865 11.2448 62.2969 11.1406C62.6927 10.7031 63.1667 10.2969 63.7188 9.92188C64.2708 9.54688 64.8177 9.24479 65.3594 9.01562C65.3906 9.00521 65.4271 9 65.4688 9C65.5104 9 65.5469 9.01042 65.5781 9.03125C65.6094 9.04167 65.6458 9.04688 65.6875 9.04688C65.7188 9.04688 65.7448 9.03646 65.7656 9.01562C65.8698 9.01562 65.9427 8.98438 65.9844 8.92188C66.026 8.85938 66.0833 8.79688 66.1562 8.73438C66.2292 8.78646 66.2917 8.8125 66.3438 8.8125C66.4479 8.8125 66.5521 8.76562 66.6562 8.67188C66.7604 8.57812 66.875 8.52083 67 8.5C67.4792 8.41667 67.9479 8.34896 68.4062 8.29688C68.875 8.24479 69.3385 8.125 69.7969 7.9375C69.901 7.98958 70.0052 8.02083 70.1094 8.03125C70.2135 8.04167 70.3177 8.04688 70.4219 8.04688C70.5365 8.04688 70.6615 8.03646 70.7969 8.01562C70.9427 7.98438 71.0573 7.92188 71.1406 7.82812C71.474 7.86979 71.8281 7.88542 72.2031 7.875C72.5885 7.86458 72.9688 7.86979 73.3438 7.89062C73.7292 7.91146 74.099 7.96354 74.4531 8.04688C74.8073 8.13021 75.1198 8.28125 75.3906 8.5C75.4115 8.57292 75.4375 8.64062 75.4688 8.70312C75.5 8.76562 75.5156 8.83333 75.5156 8.90625ZM87.5 8.90625C87.5 8.96875 87.4688 9.02083 87.4062 9.0625C87.3542 9.10417 87.2917 9.14583 87.2188 9.1875C87.1562 9.22917 87.0885 9.27604 87.0156 9.32812C86.9531 9.38021 86.9115 9.44271 86.8906 9.51562H86.75C86.6875 9.51562 86.6562 9.53646 86.6562 9.57812H86.6094C86.5156 9.57812 86.4531 9.55208 86.4219 9.5C86.3906 9.4375 86.3229 9.40625 86.2188 9.40625C85.9583 9.40625 85.6979 9.41146 85.4375 9.42188C85.1875 9.42188 84.9323 9.42708 84.6719 9.4375C83.9531 9.4375 83.2448 9.46354 82.5469 9.51562C81.8594 9.55729 81.1771 9.70312 80.5 9.95312C80.4792 9.96354 80.4531 9.96875 80.4219 9.96875C80.3698 9.96875 80.3385 9.94792 80.3281 9.90625C80.3281 9.86458 80.3021 9.84375 80.25 9.84375C80.1042 9.84375 79.9688 9.85938 79.8438 9.89062C79.7188 9.92188 79.5833 9.94271 79.4375 9.95312C79.2708 10.099 79.0781 10.2188 78.8594 10.3125C78.651 10.4062 78.4323 10.5 78.2031 10.5938C77.9844 10.6771 77.7708 10.7708 77.5625 10.875C77.3542 10.9688 77.1719 11.0938 77.0156 11.25C77.0365 11.375 77.0521 11.5 77.0625 11.625C77.0833 11.7396 77.0938 11.8542 77.0938 11.9688C77.0938 12.4167 77.0521 12.8594 76.9688 13.2969C76.8854 13.724 76.8438 14.1562 76.8438 14.5938V14.8281C76.8438 14.901 76.849 14.9792 76.8594 15.0625C76.8802 15.1146 76.9167 15.151 76.9688 15.1719C77.0312 15.1823 77.0833 15.2031 77.125 15.2344C77.2604 15.1406 77.3958 15.0677 77.5312 15.0156C77.6771 14.9531 77.8229 14.8958 77.9688 14.8438C78.125 14.7812 78.2708 14.724 78.4062 14.6719C78.5521 14.6094 78.6927 14.5365 78.8281 14.4531H79.2656C79.3802 14.3698 79.5156 14.3073 79.6719 14.2656C79.8281 14.224 79.9323 14.1302 79.9844 13.9844C80.0052 14.0052 80.026 14.0156 80.0469 14.0156H80.1094C80.2344 14.0156 80.3594 13.9896 80.4844 13.9375C80.6198 13.8854 80.7552 13.8333 80.8906 13.7812C81.026 13.7188 81.1615 13.6615 81.2969 13.6094C81.4323 13.5573 81.5729 13.5312 81.7188 13.5312C81.75 13.5312 81.776 13.5365 81.7969 13.5469C81.8281 13.5469 81.8594 13.5469 81.8906 13.5469C81.9531 13.4427 82.0417 13.3646 82.1562 13.3125C82.2708 13.25 82.3906 13.1979 82.5156 13.1562C82.6406 13.1146 82.7656 13.0729 82.8906 13.0312C83.026 12.9896 83.1406 12.9375 83.2344 12.875H83.2969C83.3594 12.875 83.4062 12.8906 83.4375 12.9219C83.4792 12.9427 83.526 12.9635 83.5781 12.9844C83.8698 12.7969 84.1667 12.7031 84.4688 12.7031C84.7812 12.6927 85.1042 12.6719 85.4375 12.6406C85.5104 12.7656 85.5729 12.8698 85.625 12.9531C85.6875 13.026 85.7188 13.1354 85.7188 13.2812C85.7188 13.3542 85.7135 13.4062 85.7031 13.4375C85.5885 13.4792 85.5 13.5156 85.4375 13.5469L85.2656 13.6406C85.2135 13.6615 85.151 13.6823 85.0781 13.7031C85.0052 13.7135 84.901 13.7188 84.7656 13.7188C84.6823 13.7188 84.6458 13.7448 84.6562 13.7969C84.6667 13.8385 84.6406 13.8646 84.5781 13.875C84.4323 13.9271 84.2865 13.9688 84.1406 14C83.9948 14.0312 83.849 14.0729 83.7031 14.125C83.401 14.2188 83.099 14.3229 82.7969 14.4375C82.5052 14.5417 82.2031 14.625 81.8906 14.6875C81.6302 14.8958 81.349 15.0677 81.0469 15.2031C80.7448 15.3281 80.4323 15.4323 80.1094 15.5156C79.7656 15.7656 79.4271 16 79.0938 16.2188C78.7604 16.4271 78.3854 16.6042 77.9688 16.75C77.9167 16.8021 77.8542 16.849 77.7812 16.8906C77.7083 16.9323 77.6615 16.9948 77.6406 17.0781C77.6198 17.0781 77.5938 17.0781 77.5625 17.0781C77.5417 17.0677 77.5156 17.0625 77.4844 17.0625C77.3385 17.0625 77.224 17.099 77.1406 17.1719C77.0677 17.2344 76.974 17.276 76.8594 17.2969C76.8073 17.4531 76.7812 17.5885 76.7812 17.7031C76.7812 17.849 76.8073 17.9792 76.8594 18.0938C76.9115 18.2083 76.974 18.3177 77.0469 18.4219C77.1302 18.526 77.2135 18.6302 77.2969 18.7344C77.3906 18.8281 77.4688 18.9323 77.5312 19.0469C77.5104 19.1719 77.4688 19.2708 77.4062 19.3438C77.3542 19.4271 77.2917 19.5 77.2188 19.5625C77.1458 19.6354 77.0729 19.7083 77 19.7812C76.9375 19.8542 76.8906 19.9479 76.8594 20.0625C76.6719 20.0938 76.4896 20.1094 76.3125 20.1094C76.1979 20.1094 76.0781 20.0938 75.9531 20.0625C75.8385 20.0417 75.7292 20 75.625 19.9375C75.4583 19.7083 75.3385 19.4635 75.2656 19.2031C75.2031 18.9427 75.1146 18.6823 75 18.4219L75.0156 18.3125C75.0156 18.0833 74.974 17.8854 74.8906 17.7188C74.8177 17.5417 74.7031 17.3646 74.5469 17.1875C74.5573 17.1667 74.5625 17.1302 74.5625 17.0781C74.5625 16.9427 74.5208 16.8177 74.4375 16.7031C74.4583 16.4635 74.5208 16.276 74.625 16.1406C74.7396 16.0052 74.8646 15.8542 75 15.6875V15.5C75 15.0521 75.0365 14.6146 75.1094 14.1875C75.1927 13.75 75.2344 13.3125 75.2344 12.875C75.2344 12.6042 75.2135 12.3646 75.1719 12.1562C75.1406 12.1458 75.099 12.1406 75.0469 12.1406C74.9948 12.1406 74.9531 12.1562 74.9219 12.1875C74.8906 12.2083 74.8646 12.2344 74.8438 12.2656C74.8229 12.2969 74.7969 12.3281 74.7656 12.3594C74.7448 12.3906 74.7083 12.4115 74.6562 12.4219C74.4792 12.3906 74.3646 12.3073 74.3125 12.1719C74.2604 12.0365 74.2344 11.8854 74.2344 11.7188C74.2344 11.625 74.2396 11.5312 74.25 11.4375C74.2604 11.3438 74.2708 11.2448 74.2812 11.1406C74.6771 10.7031 75.151 10.2969 75.7031 9.92188C76.2552 9.54688 76.8021 9.24479 77.3438 9.01562C77.375 9.00521 77.4115 9 77.4531 9C77.4948 9 77.5312 9.01042 77.5625 9.03125C77.5938 9.04167 77.6302 9.04688 77.6719 9.04688C77.7031 9.04688 77.7292 9.03646 77.75 9.01562C77.8542 9.01562 77.9271 8.98438 77.9688 8.92188C78.0104 8.85938 78.0677 8.79688 78.1406 8.73438C78.2135 8.78646 78.276 8.8125 78.3281 8.8125C78.4323 8.8125 78.5365 8.76562 78.6406 8.67188C78.7448 8.57812 78.8594 8.52083 78.9844 8.5C79.4635 8.41667 79.9323 8.34896 80.3906 8.29688C80.8594 8.24479 81.3229 8.125 81.7812 7.9375C81.8854 7.98958 81.9896 8.02083 82.0938 8.03125C82.1979 8.04167 82.3021 8.04688 82.4062 8.04688C82.5208 8.04688 82.6458 8.03646 82.7812 8.01562C82.9271 7.98438 83.0417 7.92188 83.125 7.82812C83.4583 7.86979 83.8125 7.88542 84.1875 7.875C84.5729 7.86458 84.9531 7.86979 85.3281 7.89062C85.7135 7.91146 86.0833 7.96354 86.4375 8.04688C86.7917 8.13021 87.1042 8.28125 87.375 8.5C87.3958 8.57292 87.4219 8.64062 87.4531 8.70312C87.4844 8.76562 87.5 8.83333 87.5 8.90625Z" fill="#6F73D2"/>
<g clip-path="url(#clip0)">
<path d="M0.0367627 63.7324C0.937235 61.1387 2.32258 58.6744 3.50023 56.2103C3.63877 55.8861 4.19291 55.8861 4.40071 56.0806C5.57813 57.2478 6.89421 58.4151 7.65626 59.8417H7.72553C16.1761 60.4253 24.3496 53.6812 30.1681 48.753C36.887 43.1114 42.9825 36.2377 45.4069 28.0023C45.5454 26.9648 45.6839 25.8624 45.6839 24.76C45.6839 24.2412 46.4459 24.2412 46.5151 24.76C46.5151 24.9545 46.5151 25.1491 46.5151 25.3436C46.7922 25.3436 47 25.5382 47 25.8624C46.9307 26.5757 46.7229 27.289 46.5844 28.0023C46.0303 45.5756 27.3281 62.5004 9.0416 63.6027C9.66501 64.6403 10.219 65.7425 10.9117 66.7802C11.2582 67.234 10.7039 67.6879 10.219 67.6231C6.75568 67.1693 3.63865 65.6129 0.452365 64.4457C0.17541 64.3809 -0.101658 64.1215 0.0367627 63.7324ZM9.31867 66.3263C8.90296 65.4833 8.626 64.6403 8.14113 63.7973C8.00249 63.4729 8.2104 63.2137 8.4182 63.1488C8.4182 62.9543 8.55674 62.8245 8.76454 62.7597C25.3194 60.1659 38.7572 49.596 43.7444 35.2649C40.4889 40.9065 35.5017 45.8348 30.5837 49.985C26.9818 53.0328 23.1721 55.7563 19.0161 58.0259C15.7605 59.7767 11.6738 61.3979 7.93333 60.2956C8.14113 60.8144 7.30993 61.0737 7.03286 60.6847C6.13239 59.5823 5.23191 58.5448 4.26217 57.5721C3.29255 59.5823 2.25342 61.5924 1.4916 63.6675C4.05437 64.5754 6.61725 65.7427 9.31867 66.3263Z" fill="#6F73D2"/>
</g>
<defs>
<clipPath id="clip0">
<rect width="47" height="44" fill="white" transform="matrix(-1 0 0 1 47 24)"/>
</clipPath>
</defs>
</svg>
