<svg width="32" height="32" viewBox="0 0 32 32" fill="none" xmlns="http://www.w3.org/2000/svg">
<circle cx="16" cy="16" r="15.5" stroke="#3B70D4"/>
<path d="M16.2578 22.2266C18.7578 22.2266 20.4688 20.8438 20.4688 18.8594V18.8438C20.4688 17.2812 19.3672 16.2969 17.7109 16.1406V16.1016C19.0625 15.8203 20.0703 14.8906 20.0703 13.4922V13.4766C20.0703 11.7109 18.5625 10.5 16.2422 10.5C13.9688 10.5 12.4297 11.7812 12.2578 13.7344L12.25 13.8203H14.125L14.1328 13.7422C14.2344 12.7344 15.0547 12.1016 16.2422 12.1016C17.4453 12.1016 18.1406 12.7109 18.1406 13.7422V13.7578C18.1406 14.7422 17.3125 15.4453 16.0703 15.4453H14.7812V16.9453H16.1094C17.5547 16.9453 18.4297 17.6016 18.4297 18.7891V18.8047C18.4297 19.8516 17.5625 20.5781 16.2578 20.5781C14.9375 20.5781 14.0547 19.8984 13.9453 18.9453L13.9375 18.8594H12.0156L12.0234 18.9531C12.1719 20.8828 13.7891 22.2266 16.2578 22.2266Z" fill="#3B70D4"/>
</svg>
