<svg width="48" height="48" viewBox="0 0 48 48" fill="none" xmlns="http://www.w3.org/2000/svg">
<path d="M30.8256 5.29189C32.2151 4.45212 37.5205 1.33299 41.9416 1.33299C50.2786 1.33299 46.3627 10.5704 46.3627 10.5704L46.6154 10.8104C51.4155 -0.826408 42.1943 0.0133588 42.1943 0.0133588C37.0152 0.0133588 30.4467 4.09222 29.0572 5.05196C27.794 4.93199 26.5308 4.81202 25.1413 4.81202C5.94099 4.81202 3.03568 18.7281 2.65673 22.807C2.53041 23.4068 2.53041 23.7667 2.53041 23.7667C2.53041 23.8867 2.53041 24.0067 2.53041 24.0067C2.53041 23.8867 2.53041 23.7667 2.53041 23.6468C10.2358 13.2097 20.8465 9.01085 20.8465 9.01085V9.73065C5.05677 19.9278 1.26723 35.0436 0.383004 38.0428C-0.627539 41.1619 0.00405007 48 6.6989 48C13.3938 48 19.836 42.9614 19.836 42.9614C19.836 42.9614 21.3518 43.2013 25.2676 43.2013C41.9416 43.2013 46.3627 28.8053 46.3627 28.8053H31.5835C31.5835 28.8053 30.0677 33.604 24.7624 33.604C17.4359 33.604 17.6886 26.406 17.6886 26.406H46.7417C47.247 19.8078 45.3522 15.2491 42.5732 12.13C40.2995 9.01085 36.6363 6.37159 30.8256 5.29189ZM18.9517 42.7215C18.9517 42.7215 9.09894 48.5998 4.5515 44.521C2.15146 40.4421 6.06731 34.6837 6.06731 34.6837C6.06731 34.6837 9.09894 40.5621 18.9517 42.7215ZM17.4359 7.57126C17.4359 7.57126 17.3096 7.57126 17.4359 7.57126V7.57126ZM17.6886 20.4077C17.6886 20.4077 17.5622 14.4094 24.6361 14.4094C31.4572 14.4094 31.5835 20.4077 31.5835 20.4077H17.6886Z" fill="#29B6F6"/>
</svg>
