<svg width="48" height="48" viewBox="0 0 48 48" fill="none" xmlns="http://www.w3.org/2000/svg">
<rect width="48" height="48" rx="2" fill="#3598DB" fill-opacity="0.1"/>
<path d="M33.9999 20.6667H32.9999V17C32.9999 14.6131 32.0517 12.3239 30.3639 10.636C28.6761 8.94821 26.3869 8 23.9999 8C21.613 8 19.3238 8.94821 17.636 10.636C15.9481 12.3239 14.9999 14.6131 14.9999 17V20.6667H13.9999C13.2927 20.6667 12.6144 20.9476 12.1143 21.4477C11.6142 21.9478 11.3333 22.6261 11.3333 23.3333V37.3333C11.3333 38.0406 11.6142 38.7189 12.1143 39.219C12.6144 39.719 13.2927 40 13.9999 40H33.9999C34.7072 40 35.3854 39.719 35.8855 39.219C36.3856 38.7189 36.6666 38.0406 36.6666 37.3333V23.3333C36.6666 22.6261 36.3856 21.9478 35.8855 21.4477C35.3854 20.9476 34.7072 20.6667 33.9999 20.6667ZM23.9999 32.6667C23.4725 32.6667 22.9569 32.5103 22.5184 32.2173C22.0799 31.9242 21.7381 31.5078 21.5362 31.0205C21.3344 30.5332 21.2816 29.997 21.3845 29.4798C21.4874 28.9625 21.7414 28.4873 22.1143 28.1144C22.4872 27.7414 22.9624 27.4875 23.4797 27.3846C23.997 27.2817 24.5331 27.3345 25.0204 27.5363C25.5077 27.7382 25.9242 28.0799 26.2172 28.5185C26.5102 28.957 26.6666 29.4726 26.6666 30C26.6666 30.7072 26.3856 31.3855 25.8855 31.8856C25.3854 32.3857 24.7072 32.6667 23.9999 32.6667ZM29.6666 20C29.6666 20.1768 29.5963 20.3464 29.4713 20.4714C29.3463 20.5964 29.1767 20.6667 28.9999 20.6667H18.9999C18.8231 20.6667 18.6535 20.5964 18.5285 20.4714C18.4035 20.3464 18.3333 20.1768 18.3333 20V17C18.3333 15.4971 18.9303 14.0558 19.993 12.9931C21.0557 11.9304 22.497 11.3333 23.9999 11.3333C25.5028 11.3333 26.9442 11.9304 28.0069 12.9931C29.0696 14.0558 29.6666 15.4971 29.6666 17V20Z" fill="#40526D"/>
</svg>
