<svg width="60" height="40" viewBox="0 0 60 40" fill="none" xmlns="http://www.w3.org/2000/svg">
<path d="M40.3481 7.18994H16.5618C12.9378 7.18994 10 10.1277 10 13.7517V30.9763C10 34.6002 12.9378 37.538 16.5618 37.538H40.3481C43.9721 37.538 46.9099 34.6002 46.9099 30.9763V13.7517C46.9099 10.1277 43.9721 7.18994 40.3481 7.18994Z" fill="white"/>
<path d="M42.4959 37.3812H13.8025C11.475 37.3812 9.58301 35.4891 9.58301 33.1617V11.2195C9.58301 8.89202 11.475 7 13.8025 7H37.4324C37.8982 7 38.2764 7.37797 38.2764 7.84402C38.2764 8.30977 37.8982 8.68774 37.4324 8.68774H13.8025C12.4068 8.68774 11.2707 9.82382 11.2707 11.2195V33.1617C11.2707 34.5574 12.4068 35.6934 13.8025 35.6934H42.4959C43.8919 35.6934 45.0277 34.5574 45.0277 33.1617V12.9076C45.0277 12.4415 45.4057 12.0635 45.8717 12.0635C46.3375 12.0635 46.7154 12.4415 46.7154 12.9076V33.1617C46.7154 35.4891 44.8234 37.3812 42.4959 37.3812Z" fill="#D7DBE0"/>
<path d="M29.681 30.6297C29.465 30.6297 29.249 30.5468 29.0833 30.383L24.0198 25.3195C23.6907 24.9904 23.6907 24.4554 24.0198 24.1263C24.3489 23.7971 24.8842 23.7971 25.2134 24.1263L29.6792 28.5924L34.1453 24.1263C34.4744 23.7971 35.0094 23.7971 35.3386 24.1263C35.6677 24.4554 35.6677 24.9904 35.3386 25.3195L30.275 30.383C30.1131 30.5468 29.8971 30.6297 29.681 30.6297Z" fill="#D7DBE0"/>
<path d="M29.6812 30.6299C29.2151 30.6299 28.8372 30.2516 28.8372 29.7859V26.4101C28.8372 15.7076 37.5447 7 48.2472 7C48.7133 7 49.0913 7.37797 49.0913 7.84402C49.0913 8.30977 48.7133 8.68774 48.2472 8.68774C38.4747 8.68774 30.5249 16.6375 30.5249 26.4101V29.7859C30.5249 30.2516 30.1469 30.6299 29.6812 30.6299Z" fill="#D7DBE0"/>
<path d="M48.1042 2.104L50.4795 4.47932" stroke="#D7DBE0" stroke-linecap="round"/>
<path d="M50.3958 2.104L48.0205 4.47932" stroke="#D7DBE0" stroke-linecap="round"/>
<path d="M2 5H4.5V7.5H2V5Z" stroke="#D7DBE0" stroke-linecap="round" stroke-linejoin="round"/>
<path fill-rule="evenodd" clip-rule="evenodd" d="M54 5.76777L55.7678 4L57.5355 5.76777L55.7678 7.53553L54 5.76777Z" stroke="#D7DBE0" stroke-linecap="round" stroke-linejoin="round"/>
<path fill-rule="evenodd" clip-rule="evenodd" d="M53.25 13.5C53.9404 13.5 54.5 12.9404 54.5 12.25C54.5 11.5596 53.9404 11 53.25 11C52.5596 11 52 11.5596 52 12.25C52 12.9404 52.5596 13.5 53.25 13.5Z" stroke="#D7DBE0"/>
</svg>
