<svg width="36" height="36" viewBox="0 0 36 36" fill="none" xmlns="http://www.w3.org/2000/svg">
    <rect width="36" height="36" rx="3" fill="#D32D27"/>
    <path d="M25.5 15.5H24.75V12.75C24.75 10.9598 24.0388 9.2429 22.773 7.97703C21.5071 6.71116 19.7902 6 18 6C16.2098 6 14.4929 6.71116 13.227 7.97703C11.9612 9.2429 11.25 10.9598 11.25 12.75V15.5H10.5C9.96957 15.5 9.46086 15.7107 9.08579 16.0858C8.71071 16.4609 8.5 16.9696 8.5 17.5V28C8.5 28.5304 8.71071 29.0391 9.08579 29.4142C9.46086 29.7893 9.96957 30 10.5 30H25.5C26.0304 30 26.5391 29.7893 26.9142 29.4142C27.2893 29.0391 27.5 28.5304 27.5 28V17.5C27.5 16.9696 27.2893 16.4609 26.9142 16.0858C26.5391 15.7107 26.0304 15.5 25.5 15.5ZM18 24.5C17.6044 24.5 17.2178 24.3827 16.8889 24.1629C16.56 23.9432 16.3036 23.6308 16.1522 23.2654C16.0009 22.8999 15.9613 22.4978 16.0384 22.1098C16.1156 21.7219 16.3061 21.3655 16.5858 21.0858C16.8655 20.8061 17.2219 20.6156 17.6098 20.5384C17.9978 20.4613 18.3999 20.5009 18.7654 20.6522C19.1308 20.8036 19.4432 21.06 19.6629 21.3889C19.8827 21.7178 20 22.1044 20 22.5C20 23.0304 19.7893 23.5391 19.4142 23.9142C19.0391 24.2893 18.5304 24.5 18 24.5ZM22.25 15C22.25 15.1326 22.1973 15.2598 22.1036 15.3536C22.0098 15.4473 21.8826 15.5 21.75 15.5H14.25C14.1174 15.5 13.9902 15.4473 13.8964 15.3536C13.8027 15.2598 13.75 15.1326 13.75 15V12.75C13.75 11.6228 14.1978 10.5418 14.9948 9.7448C15.7918 8.94777 16.8728 8.5 18 8.5C19.1272 8.5 20.2082 8.94777 21.0052 9.7448C21.8022 10.5418 22.25 11.6228 22.25 12.75V15Z" fill="white"/>
</svg>
