<svg width="60" height="40" viewBox="0 0 60 40" fill="none" xmlns="http://www.w3.org/2000/svg">
<path fill-rule="evenodd" clip-rule="evenodd" d="M53.5 20C54.3284 20 55 19.3284 55 18.5C55 17.6716 54.3284 17 53.5 17C52.6716 17 52 17.6716 52 18.5C52 19.3284 52.6716 20 53.5 20Z" stroke="#D7DBE0"/>
<path d="M46.1025 3.10246L48.4389 5.43889" stroke="#D7DBE0" stroke-linecap="round"/>
<path d="M48.3566 3.10246L46.0201 5.43889" stroke="#D7DBE0" stroke-linecap="round"/>
<rect x="12" y="2" width="3" height="3" stroke="#D7DBE0" stroke-linecap="round" stroke-linejoin="round"/>
<path d="M2.10246 16.1025L4.43888 18.4389" stroke="#D7DBE0" stroke-linecap="round"/>
<path d="M4.35656 16.1025L2.02013 18.4389" stroke="#D7DBE0" stroke-linecap="round"/>
<path d="M30.0277 9.2V9.8923H30.72H37.2C38.8059 9.8923 40.1077 11.1941 40.1077 12.8V19.28V19.9723H40.8H43.68C45.6835 19.9723 47.3077 21.5965 47.3077 23.6C47.3077 25.6035 45.6835 27.2277 43.68 27.2277H40.8H40.1077V27.92V34.4C40.1077 36.0059 38.8059 37.3077 37.2 37.3077H31.4123V35.12C31.4123 32.3518 29.1682 30.1077 26.4 30.1077C23.6318 30.1077 21.3877 32.3518 21.3877 35.12V37.3077H15.6C13.9941 37.3077 12.6923 36.0059 12.6923 34.4V28.6123H14.88C17.6482 28.6123 19.8923 26.3682 19.8923 23.6C19.8923 20.8318 17.6482 18.5877 14.88 18.5877H12.6923V12.8C12.6923 11.1941 13.9941 9.8923 15.6 9.8923H22.08H22.7723V9.2V6.32C22.7723 4.31648 24.3965 2.69231 26.4 2.69231C28.4035 2.69231 30.0277 4.31648 30.0277 6.32V9.2Z" fill="white" stroke="#D7DBE0" stroke-width="1.38461"/>
<path d="M30.095 9.2V9.825H30.72H37.2C38.843 9.825 40.175 11.1569 40.175 12.8V19.28V19.905H40.8H43.68C45.7207 19.905 47.375 21.5593 47.375 23.6C47.375 25.6407 45.7207 27.295 43.68 27.295H40.8H40.175V27.92V34.4C40.175 36.043 38.843 37.375 37.2 37.375H31.345V35.12C31.345 32.3889 29.131 30.175 26.4 30.175C23.6689 30.175 21.455 32.3889 21.455 35.12V37.375H15.6C13.957 37.375 12.625 36.043 12.625 34.4V28.545H14.88C17.611 28.545 19.825 26.331 19.825 23.6C19.825 20.8689 17.611 18.655 14.88 18.655H12.625V12.8C12.625 11.1569 13.957 9.825 15.6 9.825H22.08H22.705V9.2V6.32C22.705 4.27931 24.3593 2.625 26.4 2.625C28.4407 2.625 30.095 4.27931 30.095 6.32V9.2Z" fill="white" stroke="#D7DBE0" stroke-width="1.25"/>
</svg>
