<svg width="48" height="48" viewBox="0 0 48 48" fill="none" xmlns="http://www.w3.org/2000/svg">
<path d="M46.875 24C46.875 30.0668 44.465 35.8852 40.1751 40.1751C35.8852 44.465 30.0668 46.875 24 46.875C17.9332 46.875 12.1148 44.465 7.82493 40.1751C3.53504 35.8852 1.125 30.0668 1.125 24C1.125 17.9332 3.53504 12.1148 7.82493 7.82494C12.1148 3.53504 17.9332 1.125 24 1.125C30.0668 1.125 35.8852 3.53504 40.1751 7.82494C44.465 12.1148 46.875 17.9332 46.875 24V24Z" fill="url(#paint0_linear_1238_80900)" stroke="black" stroke-width="1.125"/>
<path d="M43.0312 24C43.0312 26.4992 42.539 28.974 41.5826 31.2829C40.6262 33.5919 39.2243 35.6899 37.4571 37.4571C35.6899 39.2243 33.5919 40.6262 31.2829 41.5826C28.974 42.539 26.4992 43.0313 24 43.0313C21.5008 43.0313 19.026 42.539 16.7171 41.5826C14.4081 40.6262 12.3101 39.2243 10.5429 37.4571C8.77565 35.6899 7.37382 33.5919 6.41741 31.2829C5.461 28.974 4.96875 26.4992 4.96875 24C4.96875 21.5008 5.461 19.026 6.41741 16.7171C7.37382 14.4081 8.77565 12.3101 10.5429 10.5429C12.3101 8.77566 14.4081 7.37383 16.7171 6.41742C19.026 5.46101 21.5008 4.96875 24 4.96875C26.4992 4.96875 28.974 5.46101 31.2829 6.41742C33.5919 7.37383 35.6899 8.77566 37.4571 10.5429C39.2243 12.3101 40.6262 14.4081 41.5826 16.7171C42.539 19.026 43.0312 21.5008 43.0312 24V24Z" fill="url(#paint1_linear_1238_80900)"/>
<path d="M35.7192 33.4126H12.2817V36.4126H35.7192V33.4126Z" fill="black"/>
<path d="M12.2808 29.6641V32.6641H22.2183V29.6641H12.2808ZM25.7808 29.6641V32.6641H35.7183V29.6641H25.7808Z" fill="black"/>
<path d="M12.2808 25.9141V28.9141H22.2183V25.9141H12.2808ZM25.7808 25.9141V28.9141H35.7183V25.9141H25.7808Z" fill="black"/>
<path d="M35.7192 22.1626H12.2817V25.1626H35.7192V22.1626Z" fill="black"/>
<path d="M23.9995 7.83789C21.8048 7.83789 19.9473 8.86728 18.6206 10.2168C17.2939 11.5663 16.3947 13.2277 15.7261 14.834C14.3889 18.0466 13.9858 21.1797 13.9858 21.1797L13.9565 21.4141H17.5483C17.6358 20.8541 18.0341 18.5514 19.0132 16.1992C19.5716 14.8578 20.3168 13.5742 21.1636 12.7129C22.0103 11.8516 22.8522 11.4004 23.9995 11.4004C25.1469 11.4004 25.9945 11.8516 26.8413 12.7129C27.6881 13.5742 28.4275 14.8578 28.9858 16.1992C29.9649 18.5514 30.3632 20.8541 30.4507 21.4141H34.0425L34.0132 21.1797C34.0132 21.1797 33.616 18.0466 32.2788 14.834C31.6102 13.2277 30.7052 11.5663 29.3784 10.2168C28.0517 8.86728 26.1942 7.83789 23.9995 7.83789Z" fill="black"/>
<defs>
<linearGradient id="paint0_linear_1238_80900" x1="1.49647e-06" y1="-4.41319e-06" x2="48" y2="48" gradientUnits="userSpaceOnUse">
<stop stop-color="white"/>
<stop offset="1" stop-color="#B8CAFF"/>
</linearGradient>
<linearGradient id="paint1_linear_1238_80900" x1="4.96875" y1="4.96874" x2="43.0313" y2="43.0313" gradientUnits="userSpaceOnUse">
<stop stop-color="white"/>
<stop offset="1" stop-color="#2A53C6"/>
</linearGradient>
</defs>
</svg>
