<svg width="48" height="48" viewBox="0 0 48 48" fill="none" xmlns="http://www.w3.org/2000/svg">
<rect width="48" height="48" rx="2" fill="#D32D27"/>
<path fill-rule="evenodd" clip-rule="evenodd" d="M40.5247 15.3444C40.5247 14.6925 41.0531 14.1641 41.705 14.1641V14.1641C42.3569 14.1641 42.8853 14.6925 42.8853 15.3444V32.6559C42.8853 33.3077 42.3569 33.8362 41.705 33.8362V33.8362C41.0531 33.8362 40.5247 33.3077 40.5247 32.6559V15.3444Z" fill="white"/>
<path fill-rule="evenodd" clip-rule="evenodd" d="M8.65573 27.541C10.6114 27.541 12.1967 25.9556 12.1967 24C12.1967 22.0443 10.6114 20.459 8.65573 20.459C6.7001 20.459 5.11475 22.0443 5.11475 24C5.11475 25.9556 6.7001 27.541 8.65573 27.541Z" fill="white"/>
<path fill-rule="evenodd" clip-rule="evenodd" d="M20.459 27.541C22.4146 27.541 23.9999 25.9556 23.9999 24C23.9999 22.0443 22.4146 20.459 20.459 20.459C18.5033 20.459 16.918 22.0443 16.918 24C16.918 25.9556 18.5033 27.541 20.459 27.541Z" fill="white"/>
<path fill-rule="evenodd" clip-rule="evenodd" d="M32.2622 27.541C34.2178 27.541 35.8032 25.9556 35.8032 24C35.8032 22.0443 34.2178 20.459 32.2622 20.459C30.3065 20.459 28.7212 22.0443 28.7212 24C28.7212 25.9556 30.3065 27.541 32.2622 27.541Z" fill="white"/>
</svg>
