<svg width="36" height="36" viewBox="0 0 36 36" fill="none" xmlns="http://www.w3.org/2000/svg">
    <path d="M36 0H0V36H36V0Z" fill="#0084B1"/>
    <path d="M8.47257 5.46759C10.1214 5.46893 11.4813 6.83079 11.4777 8.48784C11.4738 10.2229 10.0339 11.5307 8.45227 11.493C6.84806 11.5255 5.43825 10.1856 5.43857 8.47639C5.43857 6.8187 6.80374 5.46633 8.47257 5.46759Z" fill="white"/>
    <path d="M10.2243 30.5289H6.69164C6.23316 30.5289 5.8615 30.1572 5.8615 29.6988V14.6281C5.8615 14.1696 6.23316 13.798 6.69164 13.798H10.2243C10.6828 13.798 11.0545 14.1696 11.0545 14.6281V29.6988C11.0544 30.1572 10.6828 30.5289 10.2243 30.5289Z" fill="white"/>
    <path d="M30.5615 19.0915C30.5615 15.932 28.0003 13.3707 24.8408 13.3707H23.9347C22.2062 13.3707 20.6791 14.2332 19.7605 15.5514C19.6604 15.6951 19.5676 15.8443 19.4825 15.9984C19.453 15.994 19.4355 15.9917 19.4351 15.9925V14.1426C19.4351 13.9523 19.2809 13.7979 19.0905 13.7979H14.683C14.4927 13.7979 14.3384 13.9522 14.3384 14.1426V30.1844C14.3384 30.3747 14.4926 30.529 14.6829 30.5291L19.1864 30.5302C19.3768 30.5303 19.5311 30.3759 19.5311 30.1855V20.9177C19.5311 19.3157 20.8089 17.9856 22.4108 17.9675C23.2285 17.9582 23.9699 18.2859 24.5042 18.8205C25.0315 19.3475 25.3575 20.0761 25.3575 20.8806V30.1867C25.3575 30.377 25.5118 30.5313 25.702 30.5314L30.2166 30.5325C30.407 30.5326 30.5614 30.3782 30.5614 30.1878V19.0915H30.5615Z" fill="white"/>
</svg>
