<svg width="16" height="16" viewBox="0 0 16 16" fill="none" xmlns="http://www.w3.org/2000/svg">
    <g clip-path="url(#clip0)">
        <path d="M4.00016 1.66665H13.0002C13.177 1.66665 13.3465 1.59641 13.4716 1.47138C13.5966 1.34636 13.6668 1.17679 13.6668 0.99998C13.6668 0.823169 13.5966 0.653599 13.4716 0.528575C13.3465 0.403551 13.177 0.333313 13.0002 0.333313H4.00016C3.82335 0.333313 3.65378 0.403551 3.52876 0.528575C3.40373 0.653599 3.3335 0.823169 3.3335 0.99998C3.3335 1.17679 3.40373 1.34636 3.52876 1.47138C3.65378 1.59641 3.82335 1.66665 4.00016 1.66665Z" fill="#5A6A81"/>
        <path d="M4.00016 5.66665H13.0002C13.177 5.66665 13.3465 5.59641 13.4716 5.47138C13.5966 5.34636 13.6668 5.17679 13.6668 4.99998C13.6668 4.82317 13.5966 4.6536 13.4716 4.52858C13.3465 4.40355 13.177 4.33331 13.0002 4.33331H4.00016C3.82335 4.33331 3.65378 4.40355 3.52876 4.52858C3.40373 4.6536 3.3335 4.82317 3.3335 4.99998C3.3335 5.17679 3.40373 5.34636 3.52876 5.47138C3.65378 5.59641 3.82335 5.66665 4.00016 5.66665Z" fill="#5A6A81"/>
        <path d="M6.66683 8.99998C6.66683 8.82317 6.59659 8.6536 6.47157 8.52858C6.34654 8.40355 6.17697 8.33331 6.00016 8.33331H4.00016C3.82335 8.33331 3.65378 8.40355 3.52876 8.52858C3.40373 8.6536 3.3335 8.82317 3.3335 8.99998C3.3335 9.17679 3.40373 9.34636 3.52876 9.47138C3.65378 9.59641 3.82335 9.66665 4.00016 9.66665H6.00016C6.17697 9.66665 6.34654 9.59641 6.47157 9.47138C6.59659 9.34636 6.66683 9.17679 6.66683 8.99998Z" fill="#5A6A81"/>
        <path d="M1.66683 0.333313H1.00016C0.823352 0.333313 0.653782 0.403551 0.528758 0.528575C0.403734 0.653599 0.333496 0.823169 0.333496 0.99998C0.333496 1.17679 0.403734 1.34636 0.528758 1.47138C0.653782 1.59641 0.823352 1.66665 1.00016 1.66665H1.66683C1.84364 1.66665 2.01321 1.59641 2.13823 1.47138C2.26326 1.34636 2.3335 1.17679 2.3335 0.99998C2.3335 0.823169 2.26326 0.653599 2.13823 0.528575C2.01321 0.403551 1.84364 0.333313 1.66683 0.333313Z" fill="#5A6A81"/>
        <path d="M1.66683 4.33331H1.00016C0.823352 4.33331 0.653782 4.40355 0.528758 4.52858C0.403734 4.6536 0.333496 4.82317 0.333496 4.99998C0.333496 5.17679 0.403734 5.34636 0.528758 5.47138C0.653782 5.59641 0.823352 5.66665 1.00016 5.66665H1.66683C1.84364 5.66665 2.01321 5.59641 2.13823 5.47138C2.26326 5.34636 2.3335 5.17679 2.3335 4.99998C2.3335 4.82317 2.26326 4.6536 2.13823 4.52858C2.01321 4.40355 1.84364 4.33331 1.66683 4.33331Z" fill="#5A6A81"/>
        <path d="M1.66683 8.33331H1.00016C0.823352 8.33331 0.653782 8.40355 0.528758 8.52858C0.403734 8.6536 0.333496 8.82317 0.333496 8.99998C0.333496 9.17679 0.403734 9.34636 0.528758 9.47138C0.653782 9.59641 0.823352 9.66665 1.00016 9.66665H1.66683C1.84364 9.66665 2.01321 9.59641 2.13823 9.47138C2.26326 9.34636 2.3335 9.17679 2.3335 8.99998C2.3335 8.82317 2.26326 8.6536 2.13823 8.52858C2.01321 8.40355 1.84364 8.33331 1.66683 8.33331Z" fill="#5A6A81"/>
        <path d="M11.6668 7.33331C10.8098 7.33331 9.97197 7.58746 9.25936 8.06361C8.54675 8.53976 7.99133 9.21654 7.66335 10.0084C7.33537 10.8002 7.24956 11.6715 7.41676 12.512C7.58396 13.3526 7.99667 14.1247 8.6027 14.7308C9.20873 15.3368 9.98085 15.7495 10.8214 15.9167C11.662 16.0839 12.5333 15.9981 13.3251 15.6701C14.1169 15.3421 14.7937 14.7867 15.2699 14.0741C15.746 13.3615 16.0002 12.5237 16.0002 11.6666C15.9988 10.5178 15.5418 9.41643 14.7294 8.60408C13.917 7.79172 12.8157 7.33472 11.6668 7.33331ZM12.1668 13.3333C12.1668 13.4659 12.1142 13.5931 12.0204 13.6869C11.9266 13.7806 11.7994 13.8333 11.6668 13.8333C11.5342 13.8333 11.407 13.7806 11.3133 13.6869C11.2195 13.5931 11.1668 13.4659 11.1668 13.3333V12.3333C11.1668 12.2891 11.1493 12.2467 11.118 12.2155C11.0868 12.1842 11.0444 12.1666 11.0002 12.1666H10.0002C9.86756 12.1666 9.74038 12.114 9.64661 12.0202C9.55284 11.9264 9.50016 11.7993 9.50016 11.6666C9.50016 11.534 9.55284 11.4069 9.64661 11.3131C9.74038 11.2193 9.86756 11.1666 10.0002 11.1666H11.0002C11.0444 11.1666 11.0868 11.1491 11.118 11.1178C11.1493 11.0866 11.1668 11.0442 11.1668 11V9.99998C11.1668 9.86737 11.2195 9.74019 11.3133 9.64643C11.407 9.55266 11.5342 9.49998 11.6668 9.49998C11.7994 9.49998 11.9266 9.55266 12.0204 9.64643C12.1142 9.74019 12.1668 9.86737 12.1668 9.99998V11C12.1668 11.0442 12.1844 11.0866 12.2156 11.1178C12.2469 11.1491 12.2893 11.1666 12.3335 11.1666H13.3335C13.4661 11.1666 13.5933 11.2193 13.687 11.3131C13.7808 11.4069 13.8335 11.534 13.8335 11.6666C13.8335 11.7993 13.7808 11.9264 13.687 12.0202C13.5933 12.114 13.4661 12.1666 13.3335 12.1666H12.3335C12.2893 12.1666 12.2469 12.1842 12.2156 12.2155C12.1844 12.2467 12.1668 12.2891 12.1668 12.3333V13.3333Z" fill="#5A6A81"/>
    </g>
    <defs>
        <clipPath id="clip0">
            <rect width="16" height="16" fill="white"/>
        </clipPath>
    </defs>
</svg>
