<svg id="loader-stage-7" xmlns="http://www.w3.org/2000/svg" xmlns:xlink="http://www.w3.org/1999/xlink" viewBox="0 0 215 143" shape-rendering="geometricPrecision" text-rendering="geometricPrecision"><style><![CDATA[#loader-stage-7-path7_to {animation: loader-stage-7-path7_to__to 1400ms linear infinite normal forwards}@keyframes loader-stage-7-path7_to__to { 0% {transform: translate(84.426048px,84.999897px)} 17.142857% {transform: translate(84.426048px,67px)} 35.714286% {transform: translate(84.426048px,85px)} 100% {transform: translate(84.426048px,85px)}} #loader-stage-7-path8_to {animation: loader-stage-7-path8_to__to 1400ms linear infinite normal forwards}@keyframes loader-stage-7-path8_to__to { 0% {transform: translate(104.098148px,84.999897px)} 25.714286% {transform: translate(104.098148px,84.999897px)} 44.285714% {transform: translate(104.098148px,67px)} 62.857143% {transform: translate(104.098148px,85px)} 100% {transform: translate(104.098148px,85px)}} #loader-stage-7-path9_to {animation: loader-stage-7-path9_to__to 1400ms linear infinite normal forwards}@keyframes loader-stage-7-path9_to__to { 0% {transform: translate(123.769501px,84.999897px)} 54.285714% {transform: translate(123.769501px,84.999897px)} 71.428571% {transform: translate(123.769501px,67px)} 89.285714% {transform: translate(123.769501px,85px)} 100% {transform: translate(123.769501px,85px)}}]]></style><path id="loader-stage-7-path1" d="M70.2207,134L149.05,134" fill="none" stroke="rgb(38,72,135)" stroke-width="2" stroke-linecap="round" stroke-linejoin="round"/><path id="loader-stage-7-path2" d="M62.3379,134L67.9685,134" fill="none" stroke="rgb(38,72,135)" stroke-width="2" stroke-linecap="round" stroke-linejoin="round"/><path id="loader-stage-7-path3" d="M151.302,134L156.932,134" fill="none" stroke="rgb(38,72,135)" stroke-width="2" stroke-linecap="round" stroke-linejoin="round"/><rect id="loader-stage-7-rect1" width="7.45495" height="7.45496" rx="0" ry="0" transform="matrix(0.707107 -0.707107 0.707107 0.707107 36.99995 59.316548)" fill="none" stroke="rgb(223,102,97)" stroke-width="2" stroke-linecap="round" stroke-linejoin="round"/><path id="loader-stage-7-path4" d="M117.266,9.31062L124.35,16.3939" fill="none" stroke="rgb(223,102,97)" stroke-width="2" stroke-linecap="round"/><path id="loader-stage-7-path5" d="M124.1,9.31062L117.016,16.3939" fill="none" stroke="rgb(223,102,97)" stroke-width="2" stroke-linecap="round"/><rect id="loader-stage-7-rect2" width="7.45493" height="7.45495" rx="0" ry="0" transform="matrix(1 0 0 1 171.009 90.6442)" fill="none" stroke="rgb(223,102,97)" stroke-width="2" stroke-linecap="round" stroke-linejoin="round"/><rect id="loader-stage-7-rect3" width="80" height="80" rx="4" ry="4" transform="matrix(1 0 0 1 70 45)" fill="rgb(211,45,39)" stroke="none" stroke-width="1"/><path id="loader-stage-7-path6" d="M137.541,70.574C137.541,69.4875,138.422,68.6068,139.508,68.6068L139.508,68.6068C140.595,68.6068,141.476,69.4875,141.476,70.574L141.476,99.4264C141.476,100.513,140.595,101.394,139.508,101.394L139.508,101.394C138.422,101.394,137.541,100.513,137.541,99.4264L137.541,70.574Z" clip-rule="evenodd" fill="rgb(255,255,255)" fill-rule="evenodd" stroke="none" stroke-width="1"/><g id="loader-stage-7-path7_to" transform="translate(84.426048,84.999897)"><path id="loader-stage-7-path7" d="M84.4261,90.9015C87.6854,90.9015,90.3277,88.2593,90.3277,84.9999C90.3277,81.7405,87.6854,79.0983,84.4261,79.0983C81.1667,79.0983,78.5244,81.7405,78.5244,84.9999C78.5244,88.2593,81.1667,90.9015,84.4261,90.9015Z" transform="translate(-84.426048,-84.999897)" clip-rule="evenodd" fill="rgb(255,255,255)" fill-rule="evenodd" stroke="none" stroke-width="1"/></g><g id="loader-stage-7-path8_to" transform="translate(104.098148,84.999897)"><path id="loader-stage-7-path8" d="M104.098,90.9015C107.357,90.9015,110,88.2593,110,84.9999C110,81.7405,107.357,79.0983,104.098,79.0983C100.839,79.0983,98.1963,81.7405,98.1963,84.9999C98.1963,88.2593,100.839,90.9015,104.098,90.9015Z" transform="translate(-104.098148,-84.999897)" clip-rule="evenodd" fill="rgb(255,255,255)" fill-rule="evenodd" stroke="none" stroke-width="1"/></g><g id="loader-stage-7-path9_to" transform="translate(123.769501,84.999897)"><path id="loader-stage-7-path9" d="M123.77,90.9015C127.029,90.9015,129.671,88.2593,129.671,84.9999C129.671,81.7405,127.029,79.0983,123.77,79.0983C120.51,79.0983,117.868,81.7405,117.868,84.9999C117.868,88.2593,120.51,90.9015,123.77,90.9015Z" transform="translate(-123.769501,-84.999897)" clip-rule="evenodd" fill="rgb(255,255,255)" fill-rule="evenodd" stroke="none" stroke-width="1"/></g></svg>