<svg width="98" height="16" viewBox="0 0 98 16" fill="none" xmlns="http://www.w3.org/2000/svg">
    <path fill-rule="evenodd" clip-rule="evenodd" d="M96.7289 4.07548C96.7289 3.72448 97.0134 3.43994 97.3644 3.43994C97.7154 3.43994 98 3.72448 98 4.07548V14.3088C98 14.6598 97.7154 14.9444 97.3644 14.9444C97.0134 14.9444 96.7289 14.6598 96.7289 14.3088V4.07548Z" fill="#D32D27"/>
    <path fill-rule="evenodd" clip-rule="evenodd" d="M76.3917 11.621C77.5851 11.621 78.5525 10.6481 78.5525 9.44796C78.5525 8.24781 77.5851 7.2749 76.3917 7.2749C75.1983 7.2749 74.2308 8.24781 74.2308 9.44796C74.2308 10.6481 75.1983 11.621 76.3917 11.621Z" fill="#D32D27"/>
    <path fill-rule="evenodd" clip-rule="evenodd" d="M83.6368 11.621C84.8302 11.621 85.7976 10.6481 85.7976 9.44796C85.7976 8.24781 84.8302 7.2749 83.6368 7.2749C82.4434 7.2749 81.476 8.24781 81.476 9.44796C81.476 10.6481 82.4434 11.621 83.6368 11.621Z" fill="#D32D27"/>
    <path fill-rule="evenodd" clip-rule="evenodd" d="M90.882 11.621C92.0754 11.621 93.0429 10.6481 93.0429 9.44796C93.0429 8.24781 92.0754 7.2749 90.882 7.2749C89.6886 7.2749 88.7212 8.24781 88.7212 9.44796C88.7212 10.6481 89.6886 11.621 90.882 11.621Z" fill="#D32D27"/>
    <path fill-rule="evenodd" clip-rule="evenodd" d="M70.7844 11.5461C70.7934 12.0612 70.7032 12.5136 70.5142 12.9033C70.3248 13.2929 70.0596 13.6164 69.7179 13.8735C69.376 14.1306 68.9714 14.3246 68.5033 14.455C68.0354 14.5855 67.5269 14.6556 66.9785 14.6652C66.665 14.6706 66.3316 14.6601 65.9784 14.6342C65.6252 14.6081 65.2717 14.5659 64.9182 14.5078C64.5642 14.4498 64.2233 14.3687 63.895 14.2647C63.5665 14.1611 63.264 14.0343 62.9878 13.8845C62.7906 13.7849 62.7421 13.6314 62.8429 13.4232L63.2929 12.3335C63.356 12.2165 63.4196 12.1414 63.4844 12.1081C63.549 12.0749 63.6533 12.0891 63.7979 12.1508C64.2706 12.3617 64.7945 12.523 65.3699 12.6355C65.945 12.7481 66.4543 12.8001 66.8972 12.7924C67.4443 12.7829 67.8527 12.6694 68.1226 12.4522C68.3924 12.2349 68.5244 11.9592 68.5185 11.6242C68.512 11.251 68.331 10.958 67.9754 10.7449C67.6199 10.5321 67.0884 10.3032 66.3803 10.0578C65.8426 9.87392 65.3737 9.68887 64.973 9.50264C64.5723 9.3164 64.2397 9.10653 63.975 8.87266C63.7102 8.63916 63.5071 8.3755 63.365 8.08153C63.223 7.78793 63.1488 7.44769 63.142 7.06138C63.1346 6.63644 63.2067 6.24563 63.3577 5.88877C63.5091 5.53191 63.7371 5.22211 64.0415 4.959C64.3459 4.69608 64.7259 4.48668 65.182 4.33043C65.6376 4.17455 66.1649 4.0912 66.7643 4.08076C67.3114 4.07124 67.8593 4.10991 68.4083 4.19695C68.9569 4.28419 69.4871 4.4264 69.9987 4.6234C70.1038 4.67309 70.1669 4.7364 70.1876 4.81332C70.2087 4.89024 70.2068 4.98044 70.1827 5.08391L69.7526 6.19272C69.7153 6.2966 69.6675 6.3554 69.6091 6.36911C69.5506 6.38301 69.469 6.37155 69.3641 6.33474C68.8532 6.1633 68.4044 6.04893 68.0194 5.99105C67.6338 5.93336 67.2196 5.90837 66.7769 5.91608C66.2949 5.92447 65.9448 6.03049 65.727 6.23375C65.5089 6.43758 65.4022 6.66154 65.4065 6.90602C65.4097 7.08648 65.4481 7.24038 65.5222 7.36772C65.5959 7.49524 65.712 7.61246 65.8703 7.71919C66.0287 7.82592 66.2357 7.93493 66.4916 8.0464C66.7478 8.15787 67.0592 8.275 67.4264 8.39723C67.8457 8.5445 68.2554 8.70169 68.6561 8.86842C69.0562 9.03534 69.4116 9.23875 69.7222 9.47789C70.0324 9.71741 70.2849 10.0026 70.4797 10.3342C70.6744 10.6659 70.776 11.0698 70.7844 11.5461Z" fill="#D32D27"/>
    <path fill-rule="evenodd" clip-rule="evenodd" d="M61.7437 12.9033C61.5543 13.2928 61.2891 13.6164 60.9472 13.8735C60.6053 14.1306 60.2009 14.3246 59.7328 14.455C59.2649 14.5855 58.7564 14.6556 58.208 14.6652C57.8945 14.6706 57.5611 14.6601 57.2079 14.6342C56.8547 14.6081 56.5012 14.5659 56.1475 14.5078C55.7939 14.4498 55.4528 14.3687 55.1245 14.2647C54.796 14.1611 54.4935 14.0343 54.2172 13.8845C54.0201 13.7849 53.9716 13.6314 54.0724 13.4232L54.5224 12.3335C54.5855 12.2165 54.6491 12.1414 54.7139 12.1081C54.7785 12.0749 54.8828 12.0891 55.0274 12.1508C55.5001 12.3617 56.024 12.523 56.5994 12.6355C57.1745 12.7481 57.6836 12.8001 58.1267 12.7924C58.6738 12.7829 59.0822 12.6694 59.3521 12.4522C59.6219 12.2349 59.7539 11.9592 59.748 11.6242C59.7415 11.251 59.5605 10.958 59.2049 10.7449C58.8494 10.5321 58.3177 10.3032 57.6098 10.0578C57.0721 9.87392 56.6032 9.68887 56.2025 9.50263C55.8018 9.3164 55.4692 9.10653 55.2045 8.87266C54.9397 8.63915 54.7366 8.3755 54.5947 8.08153C54.4527 7.78792 54.3783 7.44769 54.3715 7.06138C54.3641 6.63644 54.436 6.24563 54.5874 5.88877C54.7388 5.53191 54.9666 5.22211 55.271 4.959C55.5754 4.69608 55.9554 4.48668 56.4113 4.33043C56.8671 4.17455 57.3944 4.0912 57.9938 4.08076C58.5409 4.07124 59.0888 4.10991 59.6376 4.19696C60.1864 4.28419 60.7166 4.4264 61.2282 4.6234C61.3331 4.6731 61.3964 4.7364 61.4171 4.81332C61.438 4.89025 61.4363 4.98044 61.4124 5.08391L60.9821 6.19272C60.945 6.2966 60.8969 6.3554 60.8386 6.36911C60.7803 6.38301 60.6985 6.37155 60.5936 6.33474C60.0825 6.1633 59.6341 6.04893 59.2489 5.99105C58.8633 5.93336 58.4491 5.90837 58.0064 5.91608C57.5242 5.92448 57.1745 6.03049 56.9565 6.23375C56.7384 6.43758 56.6317 6.66154 56.636 6.90602C56.6392 7.08648 56.6776 7.24038 56.7517 7.36772C56.8254 7.49524 56.9415 7.61246 57.0998 7.71919C57.258 7.82592 57.4652 7.93493 57.7212 8.0464C57.9771 8.15787 58.2887 8.275 58.6557 8.39723C59.075 8.5445 59.4849 8.70169 59.8856 8.86842C60.2857 9.03534 60.6413 9.23874 60.9515 9.47789C61.2619 9.71741 61.5144 10.0026 61.7092 10.3342C61.9037 10.6659 62.0057 11.0698 62.0141 11.5461C62.0231 12.0612 61.9327 12.5136 61.7437 12.9033Z" fill="#D32D27"/>
    <path fill-rule="evenodd" clip-rule="evenodd" d="M52.7242 14.0275C52.9717 13.9097 53.0954 13.6936 53.0954 13.3793V7.48673C53.0954 6.3344 52.7795 5.45706 52.1477 4.8547C51.5159 4.25235 50.5225 3.95117 49.1677 3.95117C48.5945 3.95117 47.4396 4.14047 46.8924 4.34999C46.7231 4.41546 46.6645 4.55296 46.7166 4.76247L46.9901 5.88207C47.0162 5.99992 47.0618 6.07194 47.1269 6.09813C47.1921 6.12432 47.2963 6.11777 47.4396 6.07849C47.7653 5.97373 48.3535 5.85645 48.7964 5.85645C49.2133 5.85645 49.552 5.899 49.8125 5.98412C50.0731 6.06924 50.2783 6.19036 50.4281 6.3475C50.5779 6.50463 50.6789 6.68796 50.731 6.89747C50.7831 7.10699 50.8091 7.33614 50.8091 7.58494V7.91886H48.6205C47.8389 7.91886 47.1778 8.01707 46.6371 8.21349C46.0965 8.40991 45.6568 8.66853 45.3181 8.98935C44.9794 9.31017 44.7351 9.68336 44.5853 10.1089C44.4355 10.5345 44.3606 10.9765 44.3606 11.4348C44.3606 11.88 44.4257 12.3023 44.556 12.7017C44.6863 13.1011 44.9175 13.4481 45.2497 13.7427C45.5819 14.0373 46.0313 14.273 46.598 14.4498C47.1647 14.6266 47.878 14.715 48.7378 14.715C49.0504 14.715 49.3794 14.7052 49.7246 14.6855C50.0698 14.6659 50.4183 14.6299 50.7701 14.5775C51.1218 14.5251 51.4638 14.4531 51.796 14.3614C52.1282 14.2698 52.4375 14.1585 52.7242 14.0275ZM48.9137 9.667H50.7896V12.5544C50.6202 12.6198 50.4346 12.6722 50.2327 12.7115C50.0308 12.7508 49.8386 12.7835 49.6562 12.8097C49.4738 12.8359 49.3012 12.8523 49.1384 12.8588C48.9755 12.8654 48.8485 12.8686 48.7573 12.8686C48.132 12.8686 47.6305 12.7573 47.2527 12.5347C46.8749 12.3121 46.686 11.9193 46.686 11.3562C46.686 10.9634 46.7609 10.6556 46.9107 10.433C47.0605 10.2104 47.2494 10.0402 47.4774 9.92234C47.7054 9.80449 47.9464 9.73247 48.2004 9.70628C48.4544 9.68009 48.6922 9.667 48.9137 9.667Z" fill="#D32D27"/>
    <path fill-rule="evenodd" clip-rule="evenodd" d="M38.4666 14.2714C38.4666 14.4652 38.4355 14.5861 38.3737 14.6346C38.3118 14.6832 38.0574 14.7071 37.8652 14.7071H36.5729C36.4215 14.7071 36.3046 14.6794 36.2222 14.6241C36.1399 14.569 36.0986 14.4512 36.0986 14.2714L36.0986 1.95021C36.0986 1.79289 36.134 1.52392 36.1613 1.39736C36.201 1.21257 36.1987 1.14742 36.2964 1.02828C36.4013 0.901221 36.5613 0.814294 36.7768 0.767755C36.9008 0.74099 36.9654 0.767755 37.1261 0.767755H41.0519C41.7391 0.767755 42.3679 0.875035 42.9386 1.0892C43.5089 1.30376 43.9971 1.60782 44.4026 2.00197C44.8079 2.39632 45.1243 2.86654 45.3511 3.41281C45.5779 3.95909 45.6914 4.55733 45.6914 5.20714C45.6914 5.58055 45.6327 6.02666 45.5161 6.54528C45.3992 7.0639 45.1655 7.56513 44.815 8.04918C44.4645 8.53342 43.9729 8.94476 43.3408 9.28339C42.7082 9.62242 41.8765 9.79174 40.8455 9.79174H38.4666L38.4666 14.2714ZM43.2213 4.60554C43.1455 4.32894 43.0151 4.07645 42.8295 3.84826C42.6439 3.62006 42.3863 3.4302 42.0561 3.27787C41.7264 3.12575 41.3069 3.04968 40.7985 3.04968H38.3359V7.65503H40.8397C41.7058 7.65503 42.3379 7.44066 42.7368 7.01194C43.1353 6.58341 43.3348 6.03693 43.3348 5.3731C43.3348 5.13799 43.2967 4.88234 43.2213 4.60554Z" fill="#D32D27"/>
    <path fill-rule="evenodd" clip-rule="evenodd" d="M33.9523 14.2734C33.5091 14.4174 33.066 14.5026 32.6234 14.529C32.1803 14.555 31.835 14.5683 31.5877 14.5683C30.5192 14.5683 29.7634 14.3391 29.3208 13.8802C28.8777 13.4215 28.6564 12.7202 28.6564 11.7766L28.7073 6.19598H27.2689C27.1365 6.19598 27.0683 6.16184 27.0136 6.10335C26.9589 6.04487 26.9308 5.98747 26.9563 5.8916C26.9817 5.79573 27.3379 4.85115 27.3379 4.85115C27.3593 4.81657 27.4552 4.59641 27.4788 4.56463C27.5179 4.51239 27.5749 4.47607 27.7293 4.47607H28.6912V2.5732C28.6912 2.31342 28.8104 2.26665 28.8691 2.21423C28.9277 2.16199 29.0284 2.10956 29.1721 2.05695L30.5715 1.66467C30.6756 1.63846 30.76 1.64838 30.8256 1.69407C30.8905 1.74031 30.9233 1.83506 30.9233 1.97923V4.47607H32.8872C33.0303 4.47607 33.1183 4.50565 33.1509 4.56463C33.1833 4.62343 33.1998 4.69907 33.1998 4.79063L33.1998 5.86175C33.1998 5.97971 33.1833 6.0651 33.1509 6.11734C33.1183 6.16976 33.0303 6.19598 32.8872 6.19598H30.9233V11.4817C30.9233 11.9013 31.021 12.1894 31.2164 12.3467C31.4118 12.504 31.7113 12.5826 32.1153 12.5826C32.1935 12.5826 32.2975 12.5794 32.428 12.5727C32.5581 12.5663 32.6917 12.5564 32.8285 12.5433C32.9653 12.5304 33.1021 12.5137 33.2389 12.4941C33.3757 12.4746 33.4896 12.4583 33.581 12.445C33.7111 12.419 33.7959 12.4222 33.835 12.4547C33.8741 12.4877 33.9 12.55 33.9132 12.6416L34.1282 13.8999C34.1408 13.9785 34.1442 14.0472 34.1378 14.1062C34.1311 14.1654 34.0695 14.2212 33.9523 14.2734Z" fill="#1B283C"/>
    <path fill-rule="evenodd" clip-rule="evenodd" d="M26.6779 11.4182C26.6869 11.9333 26.5968 12.3857 26.4076 12.7754C26.2184 13.1649 25.9532 13.4884 25.6113 13.7456C25.2696 14.0027 24.8649 14.1967 24.3968 14.327C23.9287 14.4576 23.4205 14.5277 22.8721 14.5372C22.5585 14.5427 22.2252 14.5321 21.872 14.5063C21.5188 14.4802 21.1653 14.438 20.8115 14.3799C20.458 14.3218 20.1168 14.2407 19.7885 14.1368C19.46 14.0334 19.1576 13.9064 18.8813 13.7566C18.6841 13.657 18.6356 13.5034 18.7364 13.2952L19.1864 12.2056C19.2494 12.0885 19.3132 12.0135 19.3779 11.9801C19.4425 11.947 19.5468 11.9612 19.6914 12.0229C20.1642 12.2338 20.688 12.3951 21.2635 12.5076C21.8386 12.6201 22.3477 12.6722 22.7907 12.6645C23.3378 12.6549 23.7463 12.5415 24.0161 12.3242C24.2859 12.107 24.4179 11.8313 24.4121 11.4963C24.4055 11.123 24.2245 10.8299 23.869 10.6169C23.5135 10.4042 22.9817 10.1753 22.2738 9.92984C21.7362 9.74599 21.2672 9.56094 20.8666 9.3747C20.4659 9.18847 20.1333 8.9786 19.8686 8.74473C19.6037 8.51122 19.4007 8.24757 19.2585 7.9536C19.1168 7.65999 19.0423 7.31976 19.0356 6.93345C19.0281 6.50851 19.1 6.1177 19.2515 5.76084C19.4029 5.40398 19.6307 5.09418 19.9351 4.83107C20.2395 4.56815 20.6195 4.35875 21.0754 4.2025C21.5311 4.04662 22.0585 3.96327 22.6579 3.95284C23.205 3.94331 23.7529 3.98198 24.3017 4.06903C24.8505 4.15626 25.3807 4.29847 25.8923 4.49547C25.9972 4.54517 26.0603 4.60847 26.0812 4.68539C26.1021 4.76232 26.1003 4.85251 26.0762 4.95598L25.6461 6.06479C25.6088 6.16867 25.5609 6.22747 25.5027 6.24118C25.4443 6.25508 25.3626 6.24362 25.2577 6.20681C24.7465 6.03537 24.2982 5.921 23.913 5.86312C23.5274 5.80543 23.1131 5.78044 22.6704 5.78815C22.1883 5.79655 21.8385 5.90256 21.6206 6.10582C21.4024 6.30965 21.2958 6.53361 21.3001 6.77809C21.3032 6.95855 21.3417 7.11245 21.4157 7.23979C21.4894 7.36731 21.6056 7.48453 21.7638 7.59126C21.9221 7.69799 22.1293 7.807 22.3853 7.91847C22.6412 8.02994 22.9528 8.14707 23.3197 8.2693C23.7391 8.41657 24.1489 8.57376 24.5496 8.74049C24.9498 8.90741 25.3052 9.11081 25.6155 9.34996C25.9257 9.58948 26.1785 9.87472 26.3734 10.2062C26.5678 10.5379 26.6696 10.9419 26.6779 11.4182Z" fill="#1B283C"/>
    <path fill-rule="evenodd" clip-rule="evenodd" d="M17.7599 13.2604C17.7599 13.5752 17.636 13.7912 17.3886 13.9094C17.102 14.0406 16.7927 14.152 16.4605 14.2434C16.1283 14.3355 15.7862 14.4073 15.4344 14.4599C15.0827 14.5121 14.7341 14.5482 14.3888 14.5679C14.0436 14.5876 13.7147 14.5975 13.4021 14.5975C12.5422 14.5975 11.829 14.5089 11.2623 14.332C10.6956 14.1552 10.2461 13.9191 9.91391 13.6242C9.58151 13.3295 9.35017 12.9822 9.22008 12.5822C9.08961 12.1827 9.02466 11.7601 9.02466 11.3142C9.02466 10.8555 9.09948 10.4132 9.24948 9.98728C9.39893 9.5615 9.6433 9.18795 9.98221 8.86646C10.3209 8.54553 10.7605 8.28658 11.3014 8.08998C11.8417 7.89338 12.5031 7.79508 13.2848 7.79508H15.4735V7.46086C15.4735 7.21202 15.4473 6.98246 15.3953 6.77275C15.343 6.56323 15.242 6.37955 15.0925 6.22227C14.9425 6.06499 14.7374 5.94384 14.4769 5.85846C14.2161 5.77345 13.8774 5.73076 13.4607 5.73076C13.0177 5.73076 12.5355 5.77008 12.0146 5.84873C11.4933 5.92737 11.0699 6.01911 10.7444 6.12397C10.6009 6.16329 10.4966 6.17003 10.4317 6.14363C10.3664 6.1176 10.3209 6.04533 10.2949 5.92737L10.0213 4.80674C9.969 4.59722 10.0276 4.4596 10.1972 4.39387C10.7444 4.18435 11.3435 4.03681 11.995 3.95143C12.6464 3.86642 13.2586 3.82373 13.832 3.82373C15.1869 3.82373 16.1802 4.12537 16.8122 4.7281C17.4439 5.33101 17.7599 6.20935 17.7599 7.36256V13.2604ZM15.454 9.54483H13.5779C13.3563 9.54483 13.1188 9.55813 12.8647 9.58415C12.6107 9.61055 12.3693 9.68245 12.1417 9.80041C11.9135 9.91837 11.7246 10.0889 11.575 10.3116C11.425 10.5346 11.3502 10.8424 11.3502 11.2356C11.3502 11.7994 11.5389 12.1924 11.9169 12.4152C12.2947 12.6382 12.7963 12.7494 13.4216 12.7494C13.5126 12.7494 13.6397 12.7463 13.8028 12.7395C13.9654 12.7331 14.138 12.7169 14.3205 12.6905C14.5029 12.6642 14.695 12.6315 14.8969 12.5922C15.0989 12.5528 15.2846 12.5006 15.454 12.4349V9.54483Z" fill="#1B283C"/>
    <path fill-rule="evenodd" clip-rule="evenodd" d="M0.116018 0.584814C0.193096 0.528473 0.31614 0.5 0.484747 0.5H2.06545C2.26215 0.5 2.39544 0.524838 2.46589 0.574313C2.53594 0.62399 2.57127 0.747373 2.57127 0.945272V10.7604C2.57127 11.3115 2.70836 11.7007 2.98235 11.9266C3.25634 12.1528 3.63189 12.2659 4.10982 12.2659L7.80438 12.2659C7.95874 12.2659 8.13613 12.2793 8.24193 12.3685C8.34773 12.4578 8.32365 12.5129 8.39366 12.7416C8.46368 12.9702 8.60405 14.0644 8.60405 14.0644C8.60405 14.1764 8.60405 14.2592 8.5316 14.3343C8.45914 14.4093 8.30839 14.4697 8.18749 14.5034C8.06658 14.5371 7.83393 14.5559 7.49026 14.5559C7.14659 14.5559 3.70937 14.5559 3.70937 14.5559C2.97874 14.5559 2.37436 14.4496 1.89684 14.2378C1.41912 14.0258 1.03975 13.7431 0.758735 13.3895C0.477521 13.0365 0.281013 12.6336 0.168608 12.1811C0.0560019 11.7289 0 11.2554 0 10.7604V0.945272C0 0.761711 0.0385389 0.641558 0.116018 0.584814Z" fill="#1B283C"/>
</svg>
