<svg width="122" height="122" viewBox="0 0 122 122" fill="none" xmlns="http://www.w3.org/2000/svg">
    <rect width="122" height="122" rx="8" fill="#D32D27"/>
    <path fill-rule="evenodd" clip-rule="evenodd" d="M103 38C103 36.8954 103.895 36 105 36H107C108.105 36 109 36.8954 109 38V84C109 85.1046 108.105 86 107 86H105C103.895 86 103 85.1046 103 84V38Z" fill="white"/>
    <path fill-rule="evenodd" clip-rule="evenodd" d="M22 70C26.9706 70 31 65.9706 31 61C31 56.0294 26.9706 52 22 52C17.0294 52 13 56.0294 13 61C13 65.9706 17.0294 70 22 70Z" fill="white"/>
    <path fill-rule="evenodd" clip-rule="evenodd" d="M52 70C56.9706 70 61 65.9706 61 61C61 56.0294 56.9706 52 52 52C47.0294 52 43 56.0294 43 61C43 65.9706 47.0294 70 52 70Z" fill="white"/>
    <path fill-rule="evenodd" clip-rule="evenodd" d="M82 70C86.9706 70 91 65.9706 91 61C91 56.0294 86.9706 52 82 52C77.0294 52 73 56.0294 73 61C73 65.9706 77.0294 70 82 70Z" fill="white"/>
</svg>
