<svg width="48" height="32" viewBox="0 0 48 32" fill="none" xmlns="http://www.w3.org/2000/svg">
    <path d="M47.776 3.66401C47.7092 3.63563 47.6353 3.62789 47.5641 3.64179C47.4928 3.65569 47.4273 3.69059 47.376 3.74201L27.882 23.232C26.8506 24.2628 25.4522 24.8418 23.994 24.8418C22.5358 24.8418 21.1374 24.2628 20.106 23.232L0.620004 3.74201C0.56902 3.69012 0.503509 3.65489 0.432104 3.64096C0.360699 3.62704 0.286751 3.63508 0.220004 3.66401C0.154417 3.69226 0.0985893 3.73918 0.0594709 3.79893C0.0203524 3.85867 -0.000328216 3.9286 3.93912e-06 4.00001V28C3.93912e-06 29.0609 0.421431 30.0783 1.17158 30.8284C1.92172 31.5786 2.93914 32 4 32H44C45.0609 32 46.0783 31.5786 46.8284 30.8284C47.5786 30.0783 48 29.0609 48 28V4.00001C48.0003 3.92809 47.9791 3.85772 47.9392 3.79788C47.8993 3.73803 47.8425 3.69143 47.776 3.66401V3.66401Z" fill="#768498"/>
    <path d="M22.23 21.112C22.6994 21.58 23.3352 21.8428 23.998 21.8428C24.6608 21.8428 25.2966 21.58 25.766 21.112L45.138 1.74C45.2692 1.60885 45.3612 1.44381 45.404 1.26333C45.4467 1.08285 45.4384 0.894036 45.38 0.718C45.16 0.0600004 44.548 0 44 0H4.00002C3.45002 0 2.83402 0.0600004 2.61802 0.718C2.55961 0.894036 2.55131 1.08285 2.59405 1.26333C2.63678 1.44381 2.72887 1.60885 2.86002 1.74L22.23 21.112Z" fill="#768498"/>
</svg>
