<svg width="36" height="36" viewBox="0 0 36 36" fill="none" xmlns="http://www.w3.org/2000/svg">
<path d="M22.7495 10.1814H13.2529V25.8159H22.7495V10.1814Z" fill="#FF5F00"/>
<path d="M14.2313 18C14.2301 16.4946 14.5687 15.0086 15.2214 13.6545C15.8741 12.3004 16.8238 11.1137 17.9987 10.1842C16.5436 9.03145 14.796 8.31465 12.9558 8.11568C11.1157 7.91671 9.25706 8.2436 7.59247 9.05899C5.92788 9.87438 4.52445 11.1454 3.54259 12.7267C2.56073 14.308 2.04004 16.1359 2.04004 18.0014C2.04004 19.8669 2.56073 21.6948 3.54259 23.2761C4.52445 24.8575 5.92788 26.1285 7.59247 26.9439C9.25706 27.7593 11.1157 28.0861 12.9558 27.8872C14.796 27.6882 16.5436 26.9714 17.9987 25.8187C16.8235 24.8889 15.8735 23.7018 15.2208 22.3471C14.5681 20.9925 14.2297 19.506 14.2313 18Z" fill="#EB001B"/>
<path d="M33.0162 24.1616V23.8412H33.1532V23.7749H32.8271V23.8412H32.9559V24.1616H33.0162ZM33.6491 24.1616V23.7749H33.5505L33.4354 24.0511L33.3203 23.7749H33.2217V24.1616H33.2929V23.8688L33.3998 24.1201H33.4738L33.5806 23.8688V24.1616H33.6491Z" fill="#F79E1B"/>
<path d="M33.9591 18.0001C33.9591 19.8657 33.4383 21.6937 32.4563 23.2751C31.4742 24.8565 30.0706 26.1274 28.4058 26.9427C26.741 27.758 24.8822 28.0847 23.0419 27.8854C21.2016 27.6862 19.4541 26.969 17.999 25.8159C19.1734 24.8856 20.1229 23.6986 20.7758 22.3444C21.4286 20.9902 21.7679 19.5043 21.7679 17.9987C21.7679 16.4931 21.4286 15.0071 20.7758 13.6529C20.1229 12.2988 19.1734 11.1117 17.999 10.1814C19.4541 9.02834 21.2016 8.31118 23.0419 8.11193C24.8822 7.91267 26.741 8.23935 28.4058 9.05463C30.0706 9.8699 31.4742 11.1409 32.4563 12.7223C33.4383 14.3036 33.9591 16.1316 33.9591 17.9973V18.0001Z" fill="#F79E1B"/>
</svg>
