<svg width="60" height="40" viewBox="0 0 60 40" fill="none" xmlns="http://www.w3.org/2000/svg">
<path d="M50.5415 3H48.0415V5.66877H50.5415V3Z" stroke="#B5D8FF" stroke-linecap="round" stroke-linejoin="round"/>
<path d="M10.7091 27.8649L9 29.6895L10.7091 31.514L12.4183 29.6895L10.7091 27.8649Z" stroke="#B5D8FF" stroke-linecap="round" stroke-linejoin="round"/>
<path d="M45.5121 13.5078L47.8875 16.0435" stroke="#B5D8FF" stroke-linecap="round" stroke-linejoin="round"/>
<path d="M47.8039 13.5078L45.4285 16.0435" stroke="#B5D8FF" stroke-linecap="round" stroke-linejoin="round"/>
<g filter="url(#filter0_i_3759_3354)">
<path fill-rule="evenodd" clip-rule="evenodd" d="M16.6666 7.22959C16.6666 6.55331 17.2012 6 17.8545 6H41.2565C41.9098 6 42.4444 6.55331 42.4444 7.22959V16.1441C42.4444 25.1816 37.5739 34.8338 29.9713 37.9078C29.7337 38.0307 29.4367 38.0307 29.1991 37.9078C21.7153 34.8338 16.726 25.1816 16.726 16.1441V7.22959H16.6666Z" fill="white"/>
</g>
<path fill-rule="evenodd" clip-rule="evenodd" d="M16.6666 7.22959C16.6666 6.55331 17.2012 6 17.8545 6H41.2565C41.9098 6 42.4444 6.55331 42.4444 7.22959V16.1441C42.4444 25.1816 37.5739 34.8338 29.9713 37.9078C29.7337 38.0307 29.4367 38.0307 29.1991 37.9078C21.7153 34.8338 16.726 25.1816 16.726 16.1441V7.22959H16.6666Z" stroke="#264887" stroke-width="1.25"/>
<path d="M17.8265 8.15766C17.9017 7.83325 18.0667 7.53655 18.3026 7.30147C18.5385 7.06639 18.8357 6.90241 19.1604 6.82827L21.8273 6.21283C21.8763 6.20177 21.9201 6.17437 21.9515 6.13511C21.9829 6.09586 22 6.0471 22 5.99684C22 5.94658 21.9829 5.89781 21.9515 5.85856C21.9201 5.81931 21.8763 5.7919 21.8273 5.78084L19.1604 5.16721C18.8365 5.09269 18.5401 4.92861 18.3051 4.6937C18.07 4.4588 17.9057 4.16253 17.831 3.83872L17.2155 1.17271C17.2045 1.12368 17.1771 1.07987 17.1378 1.04849C17.0986 1.0171 17.0498 1 16.9995 1C16.9493 1 16.9005 1.0171 16.8613 1.04849C16.822 1.07987 16.7946 1.12368 16.7836 1.17271L16.1681 3.83872C16.0936 4.16258 15.9295 4.45896 15.6946 4.69402C15.4597 4.92909 15.1634 5.09337 14.8396 5.16811L12.1727 5.78265C12.1237 5.79371 12.0799 5.82111 12.0485 5.86037C12.0171 5.89962 12 5.94838 12 5.99864C12 6.0489 12.0171 6.09767 12.0485 6.13692C12.0799 6.17617 12.1237 6.20358 12.1727 6.21464L14.8387 6.83008C15.1626 6.90487 15.459 7.06915 15.694 7.30419C15.929 7.53924 16.0933 7.83559 16.1681 8.15947L16.7836 10.8273C16.7946 10.8763 16.822 10.9201 16.8613 10.9515C16.9005 10.9829 16.9493 11 16.9995 11C17.0498 11 17.0986 10.9829 17.1378 10.9515C17.1771 10.9201 17.2045 10.8763 17.2155 10.8273L17.8265 8.15766Z" fill="#D32D27"/>
<path d="M37.0785 34.0104C37.1312 33.7833 37.2467 33.5756 37.4118 33.411C37.5769 33.2465 37.785 33.1317 38.0123 33.0798L39.8791 32.649C39.9134 32.6412 39.9441 32.6221 39.9661 32.5946C39.988 32.5671 40 32.533 40 32.4978C40 32.4626 39.988 32.4285 39.9661 32.401C39.9441 32.3735 39.9134 32.3543 39.8791 32.3466L38.0123 31.917C37.7856 31.8649 37.5781 31.75 37.4136 31.5856C37.249 31.4212 37.134 31.2138 37.0817 30.9871L36.6509 29.1209C36.6431 29.0866 36.624 29.0559 36.5965 29.0339C36.569 29.012 36.5349 29 36.4997 29C36.4645 29 36.4304 29.012 36.4029 29.0339C36.3754 29.0559 36.3562 29.0866 36.3485 29.1209L35.9177 30.9871C35.8655 31.2138 35.7507 31.4213 35.5862 31.5858C35.4218 31.7504 35.2144 31.8654 34.9877 31.9177L33.1209 32.3479C33.0866 32.3556 33.0559 32.3748 33.0339 32.4023C33.012 32.4297 33 32.4639 33 32.4991C33 32.5342 33.012 32.5684 33.0339 32.5958C33.0559 32.6233 33.0866 32.6425 33.1209 32.6502L34.9871 33.0811C35.2138 33.1334 35.4213 33.2484 35.5858 33.4129C35.7503 33.5775 35.8653 33.7849 35.9177 34.0116L36.3485 35.8791C36.3562 35.9134 36.3754 35.9441 36.4029 35.9661C36.4304 35.988 36.4645 36 36.4997 36C36.5349 36 36.569 35.988 36.5965 35.9661C36.624 35.9441 36.6431 35.9134 36.6509 35.8791L37.0785 34.0104Z" fill="#D32D27"/>
<path d="M29.5743 14.7104L30.7105 18.3427C30.8817 18.8903 31.3918 19.2609 31.9655 19.2546L35.7711 19.2127C36.0651 19.2094 36.1878 19.5871 35.948 19.7573L32.8446 21.9602C32.3768 22.2924 32.1819 22.8919 32.3652 23.4356L33.5811 27.042C33.675 27.3206 33.3537 27.554 33.1178 27.3786L30.0636 25.1078C29.6032 24.7655 28.9728 24.7655 28.5123 25.1078L25.4582 27.3786C25.2222 27.554 24.901 27.3206 24.9949 27.042L26.2107 23.4356C26.394 22.8919 26.1992 22.2924 25.7314 21.9602L22.6279 19.7573C22.3882 19.5871 22.5109 19.2094 22.8049 19.2127L26.6105 19.2546C27.1842 19.2609 27.6942 18.8903 27.8655 18.3427L29.0017 14.7104C29.0894 14.4299 29.4865 14.4299 29.5743 14.7104Z" fill="#B5D9F1" stroke="#264887"/>
<defs>
<filter id="filter0_i_3759_3354" x="16.0416" y="5.375" width="27.0278" height="33.25" filterUnits="userSpaceOnUse" color-interpolation-filters="sRGB">
<feFlood flood-opacity="0" result="BackgroundImageFix"/>
<feBlend mode="normal" in="SourceGraphic" in2="BackgroundImageFix" result="shape"/>
<feColorMatrix in="SourceAlpha" type="matrix" values="0 0 0 0 0 0 0 0 0 0 0 0 0 0 0 0 0 0 127 0" result="hardAlpha"/>
<feOffset dx="-3.54" dy="3.54"/>
<feComposite in2="hardAlpha" operator="arithmetic" k2="-1" k3="1"/>
<feColorMatrix type="matrix" values="0 0 0 0 0.709804 0 0 0 0 0.85098 0 0 0 0 0.945098 0 0 0 1 0"/>
<feBlend mode="normal" in2="shape" result="effect1_innerShadow_3759_3354"/>
</filter>
</defs>
</svg>
