<svg width="36" height="36" viewBox="0 0 36 36" fill="none" xmlns="http://www.w3.org/2000/svg">
    <path d="M32.6893 0H3.31065C1.48223 0 0 1.48223 0 3.31065V32.6893C0 34.5178 1.48223 36 3.31065 36H32.6893C34.5178 36 36 34.5178 36 32.6893V3.31065C36 1.48223 34.5178 0 32.6893 0Z" fill="black"/>
    <path fill-rule="evenodd" clip-rule="evenodd" d="M19.9307 5.8067L19.9212 11.2033L19.9117 16.5999L19.4677 15.3471C19.4675 15.3467 19.467 15.3451 19.4668 15.3446L18.8931 27.3589C19.4572 28.9519 19.7594 29.8023 19.7628 29.8057C19.7672 29.8101 20.0887 29.8295 20.4772 29.8488C21.6541 29.9072 23.1126 30.0323 24.219 30.1698C24.4752 30.2016 24.6957 30.2179 24.709 30.206C24.7222 30.1941 24.7295 24.6994 24.725 17.9955L24.7169 5.8067H22.3238H19.9307Z" fill="#B1060F" stroke="black" stroke-width="0.282222"/>
    <path fill-rule="evenodd" clip-rule="evenodd" d="M11.2737 5.79034V17.9915C11.2737 24.7022 11.2802 30.1994 11.2883 30.2074C11.2963 30.2154 11.7119 30.1762 12.2118 30.1202C12.7117 30.0642 13.4026 29.9946 13.7471 29.9655C14.2755 29.9209 15.8531 29.8195 16.0357 29.8184C16.0889 29.818 16.0923 29.5439 16.1 24.6504L16.1081 19.4829L16.4898 20.5629C16.5488 20.7298 16.5673 20.7819 16.6248 20.9445L17.1984 8.93323C17.0769 8.58962 17.1406 8.77 17.0013 8.37621C16.5326 7.05115 16.1349 5.92727 16.1175 5.87868L16.0858 5.79034H13.6798H11.2737Z" fill="#B1060F" stroke="black" stroke-width="0.282222"/>
    <path fill-rule="evenodd" clip-rule="evenodd" d="M11.2737 5.79034V12.6392L16.0984 25.4374C16.0989 25.1442 16.0995 24.9857 16.1 24.6504L16.1081 19.4829L16.4898 20.5629C18.6146 26.5751 19.7561 29.7987 19.7628 29.8054C19.7673 29.8098 20.0887 29.8292 20.4772 29.8485C21.6542 29.9069 23.1127 30.032 24.2191 30.1695C24.4752 30.2013 24.6957 30.2176 24.709 30.2057C24.7181 30.1976 24.7241 27.5034 24.7256 23.7026L19.9235 9.89651L19.9212 11.203L19.9117 16.5996L19.4677 15.3468C19.0339 14.1227 18.7442 13.3041 17.0013 8.37621C16.5326 7.05115 16.1349 5.92727 16.1175 5.87868L16.0858 5.79034H13.6798H11.2737H11.2737Z" fill="url(#paint0_radial)"/>
    <path fill-rule="evenodd" clip-rule="evenodd" d="M11.2739 5.79035L16.1083 19.4891V19.4829L16.49 20.5629C18.6147 26.5751 19.7562 29.7986 19.763 29.8054C19.7674 29.8098 20.0889 29.8292 20.4773 29.8485C21.6543 29.9069 23.1128 30.032 24.2192 30.1695C24.4741 30.2012 24.6934 30.2174 24.7087 30.2059L19.9118 16.5971V16.5996L19.4678 15.3468C19.034 14.1227 18.7443 13.3041 17.0014 8.37621C16.5328 7.05115 16.1351 5.92727 16.1177 5.87868L16.0859 5.79034H13.6799H11.2739V5.79035Z" fill="#E50914"/>
    <path fill-rule="evenodd" clip-rule="evenodd" d="M19.9307 5.8067L19.9212 11.2033L19.9117 16.5999L19.4677 15.3471C19.4675 15.3467 19.467 15.3451 19.4668 15.3446L18.8931 27.3589C19.4572 28.9519 19.7594 29.8023 19.7628 29.8057C19.7672 29.8101 20.0887 29.8295 20.4772 29.8488C21.6541 29.9072 23.1126 30.0323 24.219 30.1698C24.4752 30.2016 24.6957 30.2179 24.709 30.206C24.7222 30.1941 24.7295 24.6994 24.725 17.9955L24.7169 5.8067H22.3238H19.9307Z" fill="#B1060F" stroke="black" stroke-width="0.282222"/>
    <path fill-rule="evenodd" clip-rule="evenodd" d="M11.2737 5.79034V17.9915C11.2737 24.7022 11.2802 30.1994 11.2883 30.2074C11.2963 30.2154 11.7119 30.1762 12.2118 30.1202C12.7117 30.0642 13.4026 29.9946 13.7471 29.9655C14.2755 29.9209 15.8531 29.8195 16.0357 29.8184C16.0889 29.818 16.0923 29.5439 16.1 24.6504L16.1081 19.4829L16.4898 20.5629C16.5488 20.7298 16.5673 20.7819 16.6248 20.9445L17.1984 8.93323C17.0769 8.58962 17.1406 8.77 17.0013 8.37621C16.5326 7.05115 16.1349 5.92727 16.1175 5.87868L16.0858 5.79034H13.6798H11.2737Z" fill="#B1060F" stroke="black" stroke-width="0.282222"/>
    <path fill-rule="evenodd" clip-rule="evenodd" d="M11.2737 5.79034V12.6392L16.0984 25.4374C16.0989 25.1442 16.0995 24.9857 16.1 24.6504L16.1081 19.4829L16.4898 20.5629C18.6146 26.5751 19.7561 29.7987 19.7628 29.8054C19.7673 29.8098 20.0887 29.8292 20.4772 29.8485C21.6542 29.9069 23.1127 30.032 24.2191 30.1695C24.4752 30.2013 24.6957 30.2176 24.709 30.2057C24.7181 30.1976 24.7241 27.5034 24.7256 23.7026L19.9235 9.89651L19.9212 11.203L19.9117 16.5996L19.4677 15.3468C19.0339 14.1227 18.7442 13.3041 17.0013 8.37621C16.5326 7.05115 16.1349 5.92727 16.1175 5.87868L16.0858 5.79034H13.6798H11.2737H11.2737Z" fill="url(#paint1_radial)"/>
    <path fill-rule="evenodd" clip-rule="evenodd" d="M11.2739 5.79035L16.1083 19.4891V19.4829L16.49 20.5629C18.6147 26.5751 19.7562 29.7986 19.763 29.8054C19.7674 29.8098 20.0889 29.8292 20.4773 29.8485C21.6543 29.9069 23.1128 30.032 24.2192 30.1695C24.4741 30.2012 24.6934 30.2174 24.7087 30.2059L19.9118 16.5971V16.5996L19.4678 15.3468C19.034 14.1227 18.7443 13.3041 17.0014 8.37621C16.5328 7.05115 16.1351 5.92727 16.1177 5.87868L16.0859 5.79034H13.6799H11.2739V5.79035Z" fill="#E50914"/>
    <defs>
        <radialGradient id="paint0_radial" cx="0" cy="0" r="1" gradientUnits="userSpaceOnUse" gradientTransform="translate(17.7763 17.858) rotate(-19.0982) scale(3.04896 111.681)">
            <stop/>
            <stop offset="1" stop-opacity="0"/>
        </radialGradient>
        <radialGradient id="paint1_radial" cx="0" cy="0" r="1" gradientUnits="userSpaceOnUse" gradientTransform="translate(17.7763 17.858) rotate(-19.0982) scale(3.04896 111.681)">
            <stop/>
            <stop offset="1" stop-opacity="0"/>
        </radialGradient>
    </defs>
</svg>
