<svg width="148" height="76" viewBox="0 0 148 76" fill="none" xmlns="http://www.w3.org/2000/svg">
<rect width="4.48016" height="4.48016" transform="matrix(0.717792 -0.696257 0.717792 0.696257 122.388 63.4791)" stroke="#BAC0CA" stroke-width="1.79259" stroke-linecap="round" stroke-linejoin="round"/>
<path fill-rule="evenodd" clip-rule="evenodd" d="M16.3154 52.1208C17.5713 52.1208 18.5894 51.1333 18.5894 49.9151C18.5894 48.6969 17.5713 47.7094 16.3154 47.7094C15.0596 47.7094 14.0415 48.6969 14.0415 49.9151C14.0415 51.1333 15.0596 52.1208 16.3154 52.1208Z" stroke="#BAC0CA" stroke-width="1.79259" stroke-linecap="round" stroke-linejoin="round"/>
<path fill-rule="evenodd" clip-rule="evenodd" d="M144.726 37.5241C145.982 37.5241 147 36.5366 147 35.3184C147 34.1002 145.982 33.1127 144.726 33.1127C143.47 33.1127 142.452 34.1002 142.452 35.3184C142.452 36.5366 143.47 37.5241 144.726 37.5241Z" stroke="#BAC0CA" stroke-width="1.79259" stroke-linecap="round" stroke-linejoin="round"/>
<rect x="26.0801" y="8.78491" width="4.54786" height="4.41144" stroke="#BAC0CA" stroke-width="1.79259" stroke-linecap="round" stroke-linejoin="round"/>
<path d="M123.546 6.98929L127.088 10.4249" stroke="#BAC0CA" stroke-width="1.79259" stroke-linecap="round" stroke-linejoin="round"/>
<path d="M126.963 6.98929L123.421 10.4249" stroke="#BAC0CA" stroke-width="1.79259" stroke-linecap="round" stroke-linejoin="round"/>
<path d="M1.15532 22.5591L4.69725 25.9948" stroke="#BAC0CA" stroke-width="1.79259" stroke-linecap="round" stroke-linejoin="round"/>
<path d="M4.57222 22.5591L1.03032 25.9948" stroke="#BAC0CA" stroke-width="1.79259" stroke-linecap="round" stroke-linejoin="round"/>
<path d="M73.9998 74.6429C94.2371 74.6429 110.643 58.2373 110.643 38C110.643 17.7627 94.2371 1.35718 73.9998 1.35718C53.7625 1.35718 37.3569 17.7627 37.3569 38C37.3569 58.2373 53.7625 74.6429 73.9998 74.6429Z" fill="#EBEEEF" stroke="#768498" stroke-width="2"/>
<path d="M62.2544 16.7374C62.3299 16.4102 62.4957 16.1106 62.7332 15.873C62.9706 15.6355 63.2699 15.4694 63.5973 15.3938L66.2946 14.772C66.3446 14.7611 66.3892 14.7335 66.4212 14.6938C66.4534 14.654 66.4709 14.6045 66.4709 14.5533C66.4709 14.5022 66.4534 14.4526 66.4212 14.4129C66.3892 14.3731 66.3446 14.3454 66.2946 14.3345L63.5973 13.7128C63.2699 13.6374 62.9704 13.4715 62.7329 13.234C62.4953 12.9966 62.3293 12.6972 62.2537 12.37L61.6319 9.67628C61.621 9.62635 61.5935 9.58163 61.5536 9.54956C61.5138 9.51749 61.4643 9.5 61.4131 9.5C61.3621 9.5 61.3125 9.51749 61.2728 9.54956C61.2329 9.58163 61.2053 9.62635 61.1945 9.67628L60.5733 12.3736C60.497 12.7001 60.3309 12.9987 60.0936 13.2355C59.8562 13.4724 59.5572 13.6379 59.2305 13.7135L56.5332 14.3345C56.4833 14.3454 56.4385 14.3731 56.4065 14.4129C56.3744 14.4526 56.3569 14.5022 56.3569 14.5533C56.3569 14.6045 56.3744 14.654 56.4065 14.6938C56.4385 14.7335 56.4833 14.7611 56.5332 14.772L59.2305 15.3938C59.5578 15.4694 59.8571 15.6355 60.0946 15.873C60.332 16.1106 60.498 16.4102 60.5733 16.7374L61.1951 19.4347C61.206 19.4846 61.2337 19.5294 61.2735 19.5614C61.3132 19.5935 61.3628 19.611 61.4139 19.611C61.4649 19.611 61.5146 19.5935 61.5544 19.5614C61.5941 19.5294 61.6217 19.4846 61.6326 19.4347L62.2544 16.7374Z" fill="white" stroke="#768498" stroke-linecap="round" stroke-linejoin="round"/>
<path d="M95.5984 57.471L95.6329 57.5304C95.7336 57.7284 95.782 57.9492 95.7731 58.1719C95.7632 58.4187 95.6832 58.6575 95.5426 58.8606C95.4019 59.0636 95.2063 59.2224 94.9789 59.3183C94.7514 59.4141 94.5009 59.4432 94.2576 59.4023L89.524 58.6009L88.9663 58.5065L88.7731 59.0379L87.1263 63.5643L87.1258 63.566C87.042 63.7978 86.8944 64.0011 86.6996 64.1522C86.505 64.3032 86.2713 64.3959 86.0261 64.4193C85.7807 64.4428 85.5338 64.3961 85.314 64.2845C85.0945 64.1732 84.9106 64.001 84.7847 63.7897L80.9888 57.3644C85.0523 55.8489 88.5476 53.1141 90.9961 49.5358L95.5984 57.471Z" fill="#BAC0CA" stroke="#768498"/>
<path d="M56.4077 49.4854C58.848 53.0739 62.3392 55.8206 66.4028 57.3477L62.5967 63.7892C62.471 64.0008 62.2878 64.1732 62.0685 64.285C61.849 64.3968 61.6023 64.4441 61.357 64.4211C61.1117 64.3982 60.878 64.3062 60.6831 64.1557C60.4881 64.0051 60.3399 63.8023 60.2556 63.5707L58.6069 59.0424L58.4135 58.511L57.856 58.6054L53.1241 59.4069C52.8807 59.4479 52.6305 59.419 52.403 59.3233C52.1754 59.2275 51.9799 59.0688 51.839 58.8661C51.6983 58.6632 51.6182 58.4244 51.608 58.1777C51.598 57.9311 51.6582 57.6867 51.7819 57.4731L56.4077 49.4854Z" fill="#BAC0CA" stroke="#768498"/>
<path d="M73.6741 20.3572C70.2491 20.3572 66.901 21.3729 64.0532 23.2756C61.2055 25.1784 58.9859 27.8831 57.6752 31.0474C56.3644 34.2116 56.0215 37.6935 56.6897 41.0527C57.3579 44.4119 59.0072 47.4976 61.429 49.9194C63.8508 52.3412 66.9366 53.9906 70.2956 54.6587C73.6548 55.327 77.1369 54.984 80.301 53.6733C83.4654 52.3625 86.17 50.1429 88.0727 47.2952C89.9756 44.4474 90.9912 41.0993 90.9912 37.6743C90.986 33.0831 89.1598 28.6816 85.9132 25.4351C82.6668 22.1886 78.2653 20.3625 73.6741 20.3572ZM81.3808 45.8905C81.4861 46.1444 81.5092 46.4249 81.4469 46.6927C81.3846 46.9604 81.24 47.2019 81.0335 47.3833C80.8269 47.5648 80.5688 47.6769 80.2953 47.7042C80.0217 47.7313 79.7465 47.6723 79.5083 47.5351L73.9489 44.4068C73.8655 44.3596 73.7711 44.3348 73.6752 44.3348C73.5792 44.3348 73.4851 44.3596 73.4015 44.4068L67.8422 47.5351C67.6039 47.6723 67.3288 47.7313 67.0552 47.7042C66.7816 47.6769 66.5235 47.5648 66.3169 47.3833C66.1103 47.2019 65.9658 46.9604 65.9035 46.6927C65.8412 46.4249 65.8644 46.1444 65.9696 45.8905L68.2309 40.6908C68.2766 40.5874 68.2895 40.4723 68.2679 40.3613C68.2465 40.2503 68.1914 40.1485 68.1102 40.0697L64.0279 36.0477C63.8379 35.8799 63.7047 35.6575 63.6463 35.4109C63.588 35.1643 63.6074 34.9056 63.7018 34.6706C63.7964 34.4355 63.9614 34.2355 64.1742 34.0978C64.387 33.9604 64.6373 33.8921 64.8904 33.9026H69.5537C69.6602 33.9031 69.7646 33.873 69.8546 33.816C69.9444 33.759 70.0161 33.6773 70.061 33.5808L72.492 28.3455C72.6035 28.1282 72.7727 27.9459 72.981 27.8186C73.1895 27.6913 73.4289 27.624 73.673 27.624C73.9172 27.624 74.1566 27.6913 74.3649 27.8186C74.5732 27.9459 74.7424 28.1282 74.8539 28.3455L77.2851 33.5808C77.3298 33.6773 77.4015 33.759 77.4915 33.816C77.5813 33.873 77.6858 33.9031 77.7922 33.9026H82.4533C82.7066 33.892 82.9568 33.96 83.1699 34.0972C83.383 34.2344 83.5484 34.434 83.6435 34.6689C83.7388 34.9037 83.759 35.1623 83.7015 35.4091C83.6441 35.656 83.5116 35.879 83.3226 36.0477L79.2402 40.0697C79.159 40.1485 79.104 40.2503 79.0825 40.3613C79.0609 40.4723 79.0738 40.5874 79.1195 40.6908L81.3808 45.8905Z" fill="white"/>
<path d="M81.3807 45.8905C81.486 46.1444 81.5091 46.4249 81.4468 46.6927C81.3845 46.9605 81.24 47.2019 81.0334 47.3834C80.8269 47.5648 80.5688 47.6769 80.2953 47.7042C80.0217 47.7313 79.7465 47.6723 79.5083 47.5351L73.9489 44.4069C73.8654 44.3596 73.7711 44.3348 73.6751 44.3348C73.5792 44.3348 73.485 44.3596 73.4014 44.4069L67.8421 47.5351C67.6038 47.6723 67.3287 47.7313 67.0551 47.7042C66.7815 47.6769 66.5234 47.5648 66.3169 47.3834C66.1103 47.2019 65.9658 46.9605 65.9035 46.6927C65.8412 46.4249 65.8644 46.1444 65.9696 45.8905L68.2308 40.6909C68.2766 40.5875 68.2895 40.4724 68.2679 40.3614C68.2464 40.2503 68.1913 40.1486 68.1102 40.0697L64.0279 36.0477C63.8379 35.8799 63.7046 35.6575 63.6463 35.4109C63.5879 35.1643 63.6073 34.9056 63.7018 34.6706C63.7964 34.4355 63.9614 34.2355 64.1742 34.0979C64.387 33.9604 64.6373 33.8921 64.8904 33.9026H69.5536C69.6602 33.9031 69.7645 33.873 69.8545 33.816C69.9444 33.759 70.016 33.6773 70.0609 33.5808L72.492 28.3455C72.6034 28.1282 72.7726 27.9459 72.981 27.8186C73.1894 27.6913 73.4288 27.624 73.673 27.624C73.9171 27.624 74.1565 27.6913 74.3648 27.8186C74.5732 27.9459 74.7424 28.1282 74.8538 28.3455L77.285 33.5808C77.3298 33.6773 77.4015 33.759 77.4914 33.816C77.5813 33.873 77.6858 33.9031 77.7922 33.9026H82.4533C82.7065 33.892 82.9568 33.96 83.1699 34.0972C83.3829 34.2344 83.5484 34.434 83.6435 34.669C83.7388 34.9037 83.759 35.1623 83.7015 35.4091C83.644 35.656 83.5116 35.879 83.3225 36.0477L79.2401 40.0697C79.159 40.1486 79.104 40.2503 79.0824 40.3614C79.0608 40.4724 79.0737 40.5875 79.1195 40.6909L81.3807 45.8905Z" fill="white"/>
<path d="M82.0375 45.6306L82.033 45.6199L79.8044 40.4957L83.8179 36.5415C84.1041 36.2812 84.3045 35.94 84.3923 35.563C84.4814 35.1799 84.4501 34.7786 84.3024 34.4141C84.1546 34.0495 83.8979 33.7396 83.5671 33.5266C83.2409 33.3166 82.8583 33.211 82.4707 33.224H77.8974L75.4992 28.0597L75.4936 28.0476L75.4875 28.0356C75.3191 27.7073 75.0634 27.432 74.7485 27.2395C74.4337 27.0472 74.0719 26.9454 73.7029 26.9454C73.3339 26.9454 72.972 27.0472 72.6572 27.2395C72.3423 27.432 72.0866 27.7073 71.9182 28.0356L71.9121 28.0476L71.9065 28.0597L69.5083 33.224H64.9327C64.5447 33.2112 64.162 33.3172 63.8358 33.528C63.5053 33.7416 63.2489 34.0523 63.1022 34.4175C62.9554 34.7825 62.9252 35.1843 63.0159 35.5672C63.1049 35.9436 63.3065 36.2837 63.5932 36.5426L67.6058 40.4957L65.3773 45.6199L65.3727 45.6306C65.2131 46.0155 65.1781 46.4407 65.2726 46.8464C65.3669 47.2522 65.5859 47.6183 65.899 47.8932C66.2121 48.1682 66.6034 48.3381 67.0178 48.3793C67.4312 48.4205 67.8471 48.3316 68.2072 48.125L68.2106 48.1231L73.7052 45.0314L79.1996 48.1231L79.203 48.125C79.5633 48.3316 79.979 48.4205 80.3924 48.3793C80.807 48.3381 81.1981 48.1682 81.5112 47.8932C81.8243 47.6183 82.0433 47.2522 82.1376 46.8464C82.2321 46.4407 82.1971 46.0155 82.0375 45.6306ZM64.46 23.8399C67.1962 22.0117 70.4129 21.0359 73.7035 21.0358C78.1149 21.0409 82.3441 22.7957 85.4633 25.915C88.5827 29.0344 90.3375 33.2636 90.3425 37.6751C90.3424 40.9657 89.3666 44.1822 87.5384 46.9182C85.7102 49.6544 83.1115 51.787 80.0713 53.0464C77.031 54.3057 73.6855 54.6352 70.4579 53.9932C67.2304 53.3512 64.2657 51.7665 61.9387 49.4395C59.6118 47.1126 58.0272 44.1479 57.3851 40.9204C56.7432 37.6928 57.0726 34.3473 58.332 31.307C59.5913 28.2668 61.7239 25.6681 64.46 23.8399Z" fill="#BAC0CA" stroke="#768498"/>
<path fill-rule="evenodd" clip-rule="evenodd" d="M67.9342 52.5709C63.4264 49.7502 60.4284 44.7409 60.4284 39.0314C60.4284 30.2169 67.5739 23.0714 76.3884 23.0714C78.4117 23.0714 80.3472 23.448 82.1285 24.1347C79.6771 22.6009 76.7792 21.7142 73.6744 21.7142C64.8598 21.7142 57.7144 28.8597 57.7144 37.6742C57.7144 44.4652 61.9558 50.2657 67.9342 52.5709Z" fill="white"/>
</svg>
