<svg width="20" height="20" viewBox="0 0 20 20" fill="none" xmlns="http://www.w3.org/2000/svg">
    <g clip-path="url(#clip0)">
        <path d="M4.50557 10.1151C4.45155 10.0174 4.37236 9.93597 4.27623 9.87926C4.18009 9.82255 4.07052 9.79261 3.95891 9.79257H3.59557C3.53599 9.79307 3.47698 9.78079 3.42254 9.75655C3.3681 9.73231 3.3195 9.69667 3.28001 9.65205C3.24052 9.60742 3.21106 9.55484 3.19361 9.49786C3.17617 9.44088 3.17116 9.38082 3.17891 9.32173C3.35275 7.98019 3.9185 6.71973 4.80532 5.69821C5.69215 4.67668 6.86063 3.93949 8.16446 3.57892C9.46828 3.21836 10.8495 3.25046 12.1352 3.6712C13.4209 4.09193 14.5538 4.88262 15.3922 5.94423C15.5309 6.11303 15.7302 6.22067 15.9474 6.24397C16.1645 6.26727 16.3822 6.20438 16.5534 6.06883C16.7247 5.93328 16.8359 5.73591 16.8631 5.51919C16.8903 5.30248 16.8314 5.08374 16.6989 4.91007C15.6408 3.572 14.2062 2.58142 12.58 2.06595C10.9539 1.55048 9.21064 1.53374 7.57488 2.01788C5.93913 2.50201 4.4858 3.46485 3.40215 4.78235C2.3185 6.09984 1.65417 7.71163 1.49474 9.41007C1.48516 9.5138 1.43706 9.61018 1.35994 9.68021C1.28281 9.75024 1.18225 9.78884 1.07807 9.7884H0.624741C0.513239 9.78845 0.40378 9.81832 0.307714 9.87493C0.211649 9.93153 0.132475 10.0128 0.0784047 10.1103C0.024334 10.2078 -0.00266508 10.318 0.000207491 10.4295C0.00308007 10.541 0.0357197 10.6496 0.0947414 10.7442L1.76141 13.4109C1.81769 13.5008 1.8959 13.5749 1.98868 13.6263C2.08146 13.6776 2.18577 13.7046 2.29182 13.7046C2.39788 13.7046 2.50219 13.6776 2.59497 13.6263C2.68775 13.5749 2.76596 13.5008 2.82224 13.4109L4.48891 10.7442C4.54709 10.6502 4.57929 10.5424 4.58222 10.4319C4.58515 10.3214 4.5587 10.212 4.50557 10.1151Z" fill="#828284"/>
        <path d="M19.9052 9.46084L18.2386 6.79418C18.1784 6.70956 18.0989 6.64056 18.0066 6.59295C17.9143 6.54534 17.812 6.52049 17.7082 6.52049C17.6043 6.52049 17.502 6.54534 17.4097 6.59295C17.3175 6.64056 17.2379 6.70956 17.1777 6.79418L15.5111 9.46084C15.4521 9.55544 15.4194 9.66411 15.4165 9.77558C15.4137 9.88704 15.4407 9.99724 15.4947 10.0948C15.5488 10.1923 15.628 10.2735 15.724 10.3302C15.8201 10.3868 15.9296 10.4166 16.0411 10.4167H16.4044C16.464 10.4162 16.523 10.4285 16.5774 10.4527C16.6319 10.4769 16.6805 10.5126 16.72 10.5572C16.7595 10.6018 16.7889 10.6544 16.8064 10.7114C16.8238 10.7684 16.8288 10.8284 16.8211 10.8875C16.6472 12.2291 16.0815 13.4895 15.1947 14.511C14.3078 15.5326 13.1394 16.2698 11.8355 16.6303C10.5317 16.9909 9.15047 16.9588 7.8648 16.538C6.57913 16.1173 5.44615 15.3266 4.60774 14.265C4.46913 14.0962 4.26979 13.9886 4.05262 13.9653C3.83545 13.942 3.61781 14.0049 3.44654 14.1404C3.27527 14.276 3.16407 14.4733 3.13686 14.69C3.10966 14.9068 3.16862 15.1255 3.30107 15.2992C4.35947 16.6374 5.79438 17.628 7.42087 18.1433C9.04737 18.6586 10.7909 18.6749 12.4268 18.1903C14.0627 17.7057 15.516 16.7423 16.5994 15.4242C17.6827 14.1061 18.3465 12.4938 18.5052 10.795C18.5148 10.6913 18.5629 10.5949 18.64 10.5249C18.7172 10.4548 18.8177 10.4162 18.9219 10.4167H19.3777C19.4892 10.4166 19.5987 10.3868 19.6948 10.3302C19.7908 10.2735 19.87 10.1923 19.9241 10.0948C19.9781 9.99724 20.0051 9.88704 20.0023 9.77558C19.9994 9.66411 19.9668 9.55544 19.9077 9.46084H19.9052Z" fill="#828284"/>
        <path d="M12.4758 8.17667C12.4362 8.17104 12.3999 8.15127 12.3737 8.12101C12.3475 8.09075 12.3331 8.05204 12.3332 8.012V7.33333C12.3332 6.71449 12.0873 6.121 11.6498 5.68342C11.2122 5.24583 10.6187 5 9.99984 5C9.381 5 8.78751 5.24583 8.34992 5.68342C7.91234 6.121 7.6665 6.71449 7.6665 7.33333V8.012C7.66658 8.05204 7.65218 8.09075 7.62597 8.12101C7.59975 8.15127 7.56348 8.17104 7.52384 8.17667C7.28576 8.21098 7.06803 8.32996 6.91056 8.5118C6.7531 8.69363 6.66645 8.92613 6.6665 9.16667V12.8333C6.6665 13.0985 6.77186 13.3529 6.9594 13.5404C7.14693 13.728 7.40129 13.8333 7.6665 13.8333H12.3332C12.5984 13.8333 12.8527 13.728 13.0403 13.5404C13.2278 13.3529 13.3332 13.0985 13.3332 12.8333V9.16667C13.3332 8.92613 13.2466 8.69363 13.0891 8.5118C12.9316 8.32996 12.7139 8.21098 12.4758 8.17667ZM10.6665 11.3333C10.6665 11.4652 10.6274 11.5941 10.5542 11.7037C10.4809 11.8133 10.3768 11.8988 10.255 11.9493C10.1331 11.9997 9.9991 12.0129 9.86978 11.9872C9.74046 11.9615 9.62167 11.898 9.52843 11.8047C9.4352 11.7115 9.3717 11.5927 9.34598 11.4634C9.32026 11.3341 9.33346 11.2 9.38392 11.0782C9.43438 10.9564 9.51982 10.8523 9.62946 10.779C9.73909 10.7058 9.86798 10.6667 9.99984 10.6667C10.1766 10.6667 10.3462 10.7369 10.4712 10.8619C10.5963 10.987 10.6665 11.1565 10.6665 11.3333ZM8.99984 7.33333C8.99984 7.06812 9.10519 6.81376 9.29273 6.62623C9.48027 6.43869 9.73462 6.33333 9.99984 6.33333C10.2651 6.33333 10.5194 6.43869 10.7069 6.62623C10.8945 6.81376 10.9998 7.06812 10.9998 7.33333V8C10.9998 8.0442 10.9823 8.0866 10.951 8.11785C10.9198 8.14911 10.8774 8.16667 10.8332 8.16667H9.1665C9.1223 8.16667 9.07991 8.14911 9.04865 8.11785C9.0174 8.0866 8.99984 8.0442 8.99984 8V7.33333Z" fill="#828284"/>
    </g>
    <defs>
        <clipPath id="clip0">
            <rect width="20" height="20" fill="white"/>
        </clipPath>
    </defs>
</svg>
