<svg width="16" height="17" viewBox="0 0 16 17" fill="none" xmlns="http://www.w3.org/2000/svg">
    <rect width="14" height="14" rx="2" fill="#7F7F7F"/>
    <path fill-rule="evenodd" clip-rule="evenodd" d="M11.8197 4.47541C11.8197 4.28528 11.9738 4.13115 12.164 4.13115C12.3541 4.13115 12.5082 4.28528 12.5082 4.47541V9.52459C12.5082 9.71472 12.3541 9.86885 12.164 9.86885C11.9738 9.86885 11.8197 9.71472 11.8197 9.52459V4.47541Z" fill="white"/>
    <path fill-rule="evenodd" clip-rule="evenodd" d="M2.52461 8.03281C3.095 8.03281 3.55739 7.57042 3.55739 7.00003C3.55739 6.42963 3.095 5.96724 2.52461 5.96724C1.95422 5.96724 1.49182 6.42963 1.49182 7.00003C1.49182 7.57042 1.95422 8.03281 2.52461 8.03281Z" fill="white"/>
    <path fill-rule="evenodd" clip-rule="evenodd" d="M5.96724 8.03281C6.53763 8.03281 7.00002 7.57042 7.00002 7.00003C7.00002 6.42963 6.53763 5.96724 5.96724 5.96724C5.39684 5.96724 4.93445 6.42963 4.93445 7.00003C4.93445 7.57042 5.39684 8.03281 5.96724 8.03281Z" fill="white"/>
    <path fill-rule="evenodd" clip-rule="evenodd" d="M9.40974 8.03281C9.98013 8.03281 10.4425 7.57042 10.4425 7.00003C10.4425 6.42963 9.98013 5.96724 9.40974 5.96724C8.83935 5.96724 8.37695 6.42963 8.37695 7.00003C8.37695 7.57042 8.83935 8.03281 9.40974 8.03281Z" fill="white"/>
</svg>
