<svg width="48" height="48" viewBox="0 0 48 48" fill="none" xmlns="http://www.w3.org/2000/svg">
<g clip-path="url(#clip0_1238_80742)">
<path d="M24 0C10.7364 0 0 10.7364 0 24C0 37.2636 10.7364 48 24 48C37.2636 48 48 37.2636 48 24C48 10.7364 37.2636 0 24 0ZM24 42C17.6844 42 12 33.7248 12 24C12 14.2752 17.6844 6 24 6C30.3156 6 36 14.2752 36 24C36 33.7248 30.3156 42 24 42Z" fill="#FF1744"/>
<path d="M39.0771 5.3339C36.4959 3.5663 33.4683 2.3999 30.3159 2.3999C25.5783 2.3999 21.2871 4.7759 18.1167 8.4947C19.8879 6.9239 21.9063 5.9999 24.0003 5.9999C30.3159 5.9999 36.0003 14.2751 36.0003 23.9999C36.0003 33.7247 30.3159 41.9999 24.0003 41.9999C21.9063 41.9999 19.8879 41.0759 18.1167 39.5051C21.2871 43.2239 25.5783 45.5999 30.3159 45.5999C33.4671 45.5999 36.4959 44.4335 39.0759 42.6671C44.5167 38.2691 48.0003 31.5479 48.0003 23.9999C48.0003 16.4531 44.5167 9.7319 39.0771 5.3339Z" fill="#D50000"/>
</g>
<defs>
<clipPath id="clip0_1238_80742">
<rect width="48" height="48" fill="white"/>
</clipPath>
</defs>
</svg>
