<svg width="118" height="80" viewBox="0 0 118 80" fill="none" xmlns="http://www.w3.org/2000/svg">
<path d="M73.1852 -20.1068L18.0605 11.8485C-6.06891 25.8363 -6.00768 60.6976 18.1698 74.6002L73.406 106.361L128.644 138.124C152.822 152.026 182.982 134.542 182.934 106.652L182.822 42.9357L182.711 -20.7802C182.663 -48.6706 152.439 -66.0477 128.312 -52.0599L73.1852 -20.1068Z" fill="#D22630"/>
<mask id="mask0_2110_4920" style="mask-type:alpha" maskUnits="userSpaceOnUse" x="0" y="-57" width="183" height="200">
<path d="M73.1852 -20.1068L18.0605 11.8485C-6.06891 25.8363 -6.00768 60.6976 18.1698 74.6002L73.406 106.361L128.644 138.124C152.822 152.026 182.982 134.542 182.934 106.652L182.822 42.9357L182.711 -20.7802C182.663 -48.6706 152.439 -66.0477 128.312 -52.0599L73.1852 -20.1068Z" fill="#D22630"/>
</mask>
<g mask="url(#mask0_2110_4920)">
<path d="M28 91.25C28 91.6201 27.7989 91.9434 27.5 92.1162V95C27.5 95.2761 27.2762 95.5 27 95.5C26.7238 95.5 26.5 95.2761 26.5 95V92.1162C26.2011 91.9434 26 91.6201 26 91.25C26 90.6978 26.4477 90.25 27 90.25C27.5523 90.25 28 90.6978 28 91.25Z" fill="#74D1EA"/>
<path fill-rule="evenodd" clip-rule="evenodd" d="M20.5 82.5V84.5H17.5C17.2238 84.5 17 84.7239 17 85V100.5C17 100.776 17.2238 101 17.5 101H36.5C36.7762 101 37 100.776 37 100.5V85C37 84.7239 36.7762 84.5 36.5 84.5H33.5V82.5C33.5 78.9102 30.5898 76 27 76C23.4102 76 20.5 78.9102 20.5 82.5ZM27 77C23.9624 77 21.5 79.4624 21.5 82.5V84.5H32.5V82.5C32.5 79.4624 30.0376 77 27 77ZM18 100V85.5H36V100H18Z" fill="#74D1EA"/>
<path d="M28 54.25C28 54.6201 27.7989 54.9434 27.5 55.1162V58C27.5 58.2761 27.2762 58.5 27 58.5C26.7238 58.5 26.5 58.2761 26.5 58V55.1162C26.2011 54.9434 26 54.6201 26 54.25C26 53.6978 26.4477 53.25 27 53.25C27.5523 53.25 28 53.6978 28 54.25Z" fill="#74D1EA"/>
<path fill-rule="evenodd" clip-rule="evenodd" d="M20.5 45.5V47.5H17.5C17.2238 47.5 17 47.7239 17 48V63.5C17 63.7761 17.2238 64 17.5 64H36.5C36.7762 64 37 63.7761 37 63.5V48C37 47.7239 36.7762 47.5 36.5 47.5H33.5V45.5C33.5 41.9102 30.5898 39 27 39C23.4102 39 20.5 41.9102 20.5 45.5ZM27 40C23.9624 40 21.5 42.4624 21.5 45.5V47.5H32.5V45.5C32.5 42.4624 30.0376 40 27 40ZM18 63V48.5H36V63H18Z" fill="#74D1EA"/>
<path d="M28 17.25C28 17.6201 27.7989 17.9434 27.5 18.1162V21C27.5 21.2761 27.2762 21.5 27 21.5C26.7238 21.5 26.5 21.2761 26.5 21V18.1162C26.2011 17.9434 26 17.6201 26 17.25C26 16.6978 26.4477 16.25 27 16.25C27.5523 16.25 28 16.6978 28 17.25Z" fill="#74D1EA"/>
<path fill-rule="evenodd" clip-rule="evenodd" d="M20.5 8.5V10.5H17.5C17.2238 10.5 17 10.7239 17 11V26.5C17 26.7761 17.2238 27 17.5 27H36.5C36.7762 27 37 26.7761 37 26.5V11C37 10.7239 36.7762 10.5 36.5 10.5H33.5V8.5C33.5 4.91016 30.5898 2 27 2C23.4102 2 20.5 4.91016 20.5 8.5ZM27 3C23.9624 3 21.5 5.4624 21.5 8.5V10.5H32.5V8.5C32.5 5.4624 30.0376 3 27 3ZM18 26V11.5H36V26H18Z" fill="#74D1EA"/>
<path d="M124 73.25C124 73.6201 123.799 73.9434 123.5 74.1162V77C123.5 77.2761 123.276 77.5 123 77.5C122.724 77.5 122.5 77.2761 122.5 77V74.1162C122.201 73.9434 122 73.6201 122 73.25C122 72.6978 122.448 72.25 123 72.25C123.552 72.25 124 72.6978 124 73.25Z" fill="#74D1EA"/>
<path fill-rule="evenodd" clip-rule="evenodd" d="M116.5 64.5V66.5H113.5C113.224 66.5 113 66.7239 113 67V82.5C113 82.7761 113.224 83 113.5 83H132.5C132.776 83 133 82.7761 133 82.5V67C133 66.7239 132.776 66.5 132.5 66.5H129.5V64.5C129.5 60.9102 126.59 58 123 58C119.41 58 116.5 60.9102 116.5 64.5ZM123 59C119.962 59 117.5 61.4624 117.5 64.5V66.5H128.5V64.5C128.5 61.4624 126.038 59 123 59ZM114 82V67.5H132V82H114Z" fill="#74D1EA"/>
<path d="M124 36.25C124 36.6201 123.799 36.9434 123.5 37.1162V40C123.5 40.2761 123.276 40.5 123 40.5C122.724 40.5 122.5 40.2761 122.5 40V37.1162C122.201 36.9434 122 36.6201 122 36.25C122 35.6978 122.448 35.25 123 35.25C123.552 35.25 124 35.6978 124 36.25Z" fill="#74D1EA"/>
<path fill-rule="evenodd" clip-rule="evenodd" d="M116.5 27.5V29.5H113.5C113.224 29.5 113 29.7239 113 30V45.5C113 45.7761 113.224 46 113.5 46H132.5C132.776 46 133 45.7761 133 45.5V30C133 29.7239 132.776 29.5 132.5 29.5H129.5V27.5C129.5 23.9102 126.59 21 123 21C119.41 21 116.5 23.9102 116.5 27.5ZM123 22C119.962 22 117.5 24.4624 117.5 27.5V29.5H128.5V27.5C128.5 24.4624 126.038 22 123 22ZM114 45V30.5H132V45H114Z" fill="#74D1EA"/>
<path d="M124 -0.75C124 -0.379883 123.799 -0.0566406 123.5 0.116211V3C123.5 3.27612 123.276 3.5 123 3.5C122.724 3.5 122.5 3.27612 122.5 3V0.116211C122.201 -0.0566406 122 -0.379883 122 -0.75C122 -1.30225 122.448 -1.75 123 -1.75C123.552 -1.75 124 -1.30225 124 -0.75Z" fill="#74D1EA"/>
<path fill-rule="evenodd" clip-rule="evenodd" d="M116.5 -9.5V-7.5H113.5C113.224 -7.5 113 -7.27612 113 -7V8.5C113 8.77612 113.224 9 113.5 9H132.5C132.776 9 133 8.77612 133 8.5V-7C133 -7.27612 132.776 -7.5 132.5 -7.5H129.5V-9.5C129.5 -13.0898 126.59 -16 123 -16C119.41 -16 116.5 -13.0898 116.5 -9.5ZM123 -15C119.962 -15 117.5 -12.5376 117.5 -9.5V-7.5H128.5V-9.5C128.5 -12.5376 126.038 -15 123 -15ZM114 8V-6.5H132V8H114Z" fill="#74D1EA"/>
<path d="M-4 73.25C-4 73.6201 -4.20111 73.9434 -4.5 74.1162V77C-4.5 77.2761 -4.72385 77.5 -5 77.5C-5.27615 77.5 -5.5 77.2761 -5.5 77V74.1162C-5.79889 73.9434 -6 73.6201 -6 73.25C-6 72.6978 -5.55228 72.25 -5 72.25C-4.44772 72.25 -4 72.6978 -4 73.25Z" fill="#74D1EA"/>
<path fill-rule="evenodd" clip-rule="evenodd" d="M-11.5 64.5V66.5H-14.5C-14.7762 66.5 -15 66.7239 -15 67V82.5C-15 82.7761 -14.7762 83 -14.5 83H4.5C4.77615 83 5 82.7761 5 82.5V67C5 66.7239 4.77615 66.5 4.5 66.5H1.5V64.5C1.5 60.9102 -1.41016 58 -5 58C-8.58984 58 -11.5 60.9102 -11.5 64.5ZM-5 59C-8.03757 59 -10.5 61.4624 -10.5 64.5V66.5H0.5V64.5C0.5 61.4624 -1.96243 59 -5 59ZM-14 82V67.5H4V82H-14Z" fill="#74D1EA"/>
<path d="M-4 36.25C-4 36.6201 -4.20111 36.9434 -4.5 37.1162V40C-4.5 40.2761 -4.72385 40.5 -5 40.5C-5.27615 40.5 -5.5 40.2761 -5.5 40V37.1162C-5.79889 36.9434 -6 36.6201 -6 36.25C-6 35.6978 -5.55228 35.25 -5 35.25C-4.44772 35.25 -4 35.6978 -4 36.25Z" fill="#74D1EA"/>
<path fill-rule="evenodd" clip-rule="evenodd" d="M-11.5 27.5V29.5H-14.5C-14.7762 29.5 -15 29.7239 -15 30V45.5C-15 45.7761 -14.7762 46 -14.5 46H4.5C4.77615 46 5 45.7761 5 45.5V30C5 29.7239 4.77615 29.5 4.5 29.5H1.5V27.5C1.5 23.9102 -1.41016 21 -5 21C-8.58984 21 -11.5 23.9102 -11.5 27.5ZM-5 22C-8.03757 22 -10.5 24.4624 -10.5 27.5V29.5H0.5V27.5C0.5 24.4624 -1.96243 22 -5 22ZM-14 45V30.5H4V45H-14Z" fill="#74D1EA"/>
<path d="M-4 -0.75C-4 -0.379883 -4.20111 -0.0566406 -4.5 0.116211V3C-4.5 3.27612 -4.72385 3.5 -5 3.5C-5.27615 3.5 -5.5 3.27612 -5.5 3V0.116211C-5.79889 -0.0566406 -6 -0.379883 -6 -0.75C-6 -1.30225 -5.55228 -1.75 -5 -1.75C-4.44772 -1.75 -4 -1.30225 -4 -0.75Z" fill="#74D1EA"/>
<path fill-rule="evenodd" clip-rule="evenodd" d="M-11.5 -9.5V-7.5H-14.5C-14.7762 -7.5 -15 -7.27612 -15 -7V8.5C-15 8.77612 -14.7762 9 -14.5 9H4.5C4.77615 9 5 8.77612 5 8.5V-7C5 -7.27612 4.77615 -7.5 4.5 -7.5H1.5V-9.5C1.5 -13.0898 -1.41016 -16 -5 -16C-8.58984 -16 -11.5 -13.0898 -11.5 -9.5ZM-5 -15C-8.03757 -15 -10.5 -12.5376 -10.5 -9.5V-7.5H0.5V-9.5C0.5 -12.5376 -1.96243 -15 -5 -15ZM-14 8V-6.5H4V8H-14Z" fill="#74D1EA"/>
<path d="M60 73.25C60 73.6201 59.7989 73.9434 59.5 74.1162V77C59.5 77.2761 59.2762 77.5 59 77.5C58.7238 77.5 58.5 77.2761 58.5 77V74.1162C58.2011 73.9434 58 73.6201 58 73.25C58 72.6978 58.4477 72.25 59 72.25C59.5523 72.25 60 72.6978 60 73.25Z" fill="#74D1EA"/>
<path fill-rule="evenodd" clip-rule="evenodd" d="M52.5 64.5V66.5H49.5C49.2238 66.5 49 66.7239 49 67V82.5C49 82.7761 49.2238 83 49.5 83H68.5C68.7762 83 69 82.7761 69 82.5V67C69 66.7239 68.7762 66.5 68.5 66.5H65.5V64.5C65.5 60.9102 62.5898 58 59 58C55.4102 58 52.5 60.9102 52.5 64.5ZM59 59C55.9624 59 53.5 61.4624 53.5 64.5V66.5H64.5V64.5C64.5 61.4624 62.0376 59 59 59ZM50 82V67.5H68V82H50Z" fill="#74D1EA"/>
<path d="M60 -0.75C60 -0.379883 59.7989 -0.0566406 59.5 0.116211V3C59.5 3.27612 59.2762 3.5 59 3.5C58.7238 3.5 58.5 3.27612 58.5 3V0.116211C58.2011 -0.0566406 58 -0.379883 58 -0.75C58 -1.30225 58.4477 -1.75 59 -1.75C59.5523 -1.75 60 -1.30225 60 -0.75Z" fill="#74D1EA"/>
<path fill-rule="evenodd" clip-rule="evenodd" d="M52.5 -9.5V-7.5H49.5C49.2238 -7.5 49 -7.27612 49 -7V8.5C49 8.77612 49.2238 9 49.5 9H68.5C68.7762 9 69 8.77612 69 8.5V-7C69 -7.27612 68.7762 -7.5 68.5 -7.5H65.5V-9.5C65.5 -13.0898 62.5898 -16 59 -16C55.4102 -16 52.5 -13.0898 52.5 -9.5ZM59 -15C55.9624 -15 53.5 -12.5376 53.5 -9.5V-7.5H64.5V-9.5C64.5 -12.5376 62.0376 -15 59 -15ZM50 8V-6.5H68V8H50Z" fill="#74D1EA"/>
<path d="M92 54.25C92 54.6201 91.7989 54.9434 91.5 55.1162V58C91.5 58.2761 91.2762 58.5 91 58.5C90.7238 58.5 90.5 58.2761 90.5 58V55.1162C90.2011 54.9434 90 54.6201 90 54.25C90 53.6978 90.4477 53.25 91 53.25C91.5523 53.25 92 53.6978 92 54.25Z" fill="#74D1EA"/>
<path fill-rule="evenodd" clip-rule="evenodd" d="M84.5 45.5V47.5H81.5C81.2238 47.5 81 47.7239 81 48V63.5C81 63.7761 81.2238 64 81.5 64H100.5C100.776 64 101 63.7761 101 63.5V48C101 47.7239 100.776 47.5 100.5 47.5H97.5V45.5C97.5 41.9102 94.5898 39 91 39C87.4102 39 84.5 41.9102 84.5 45.5ZM91 40C87.9624 40 85.5 42.4624 85.5 45.5V47.5H96.5V45.5C96.5 42.4624 94.0376 40 91 40ZM82 63V48.5H100V63H82Z" fill="#74D1EA"/>
<path d="M92 91.25C92 91.6201 91.7989 91.9434 91.5 92.1162V95C91.5 95.2761 91.2762 95.5 91 95.5C90.7238 95.5 90.5 95.2761 90.5 95V92.1162C90.2011 91.9434 90 91.6201 90 91.25C90 90.6978 90.4477 90.25 91 90.25C91.5523 90.25 92 90.6978 92 91.25Z" fill="#74D1EA"/>
<path fill-rule="evenodd" clip-rule="evenodd" d="M84.5 82.5V84.5H81.5C81.2238 84.5 81 84.7239 81 85V100.5C81 100.776 81.2238 101 81.5 101H100.5C100.776 101 101 100.776 101 100.5V85C101 84.7239 100.776 84.5 100.5 84.5H97.5V82.5C97.5 78.9102 94.5898 76 91 76C87.4102 76 84.5 78.9102 84.5 82.5ZM91 77C87.9624 77 85.5 79.4624 85.5 82.5V84.5H96.5V82.5C96.5 79.4624 94.0376 77 91 77ZM82 100V85.5H100V100H82Z" fill="#74D1EA"/>
<path d="M92 17.25C92 17.6201 91.7989 17.9434 91.5 18.1162V21C91.5 21.2761 91.2762 21.5 91 21.5C90.7238 21.5 90.5 21.2761 90.5 21V18.1162C90.2011 17.9434 90 17.6201 90 17.25C90 16.6978 90.4477 16.25 91 16.25C91.5523 16.25 92 16.6978 92 17.25Z" fill="#74D1EA"/>
<path fill-rule="evenodd" clip-rule="evenodd" d="M84.5 8.5V10.5H81.5C81.2238 10.5 81 10.7239 81 11V26.5C81 26.7761 81.2238 27 81.5 27H100.5C100.776 27 101 26.7761 101 26.5V11C101 10.7239 100.776 10.5 100.5 10.5H97.5V8.5C97.5 4.91016 94.5898 2 91 2C87.4102 2 84.5 4.91016 84.5 8.5ZM91 3C87.9624 3 85.5 5.4624 85.5 8.5V10.5H96.5V8.5C96.5 5.4624 94.0376 3 91 3ZM82 26V11.5H100V26H82Z" fill="#74D1EA"/>
<path d="M58.0918 38.7285H54.4551V40.5469H58.0918V38.7285Z" fill="#74D1EA"/>
<path d="M63.547 38.7285H59.9103V40.5469H63.547V38.7285Z" fill="#74D1EA"/>
<path d="M67.1816 33.2735V31.4551H65.3632V29.6367H63.5449V27.8184H61.7265V29.6367H56.2735V27.8184H54.4551V29.6367H52.6368V31.4551H50.8184V33.2735H49V38.7286H50.8184V35.0919H52.6368V36.9103V38.7286H54.4551V36.9103H63.5449V38.7286H65.3632V36.9103V35.0919H67.1816V38.7286H69V33.2735H67.1816Z" fill="#74D1EA"/>
<path d="M54.4551 26H52.6367V27.8184H54.4551V26Z" fill="#74D1EA"/>
<path d="M65.3632 26H63.5448V27.8184H65.3632V26Z" fill="#74D1EA"/>
<path d="M56.2735 31.4551H54.4551V33.2735H56.2735V31.4551Z" fill="black"/>
<path d="M63.5448 31.4551H61.7264V33.2735H63.5448V31.4551Z" fill="black"/>
</g>
</svg>
