<svg width="36" height="36" viewBox="0 0 36 36" fill="none" xmlns="http://www.w3.org/2000/svg">
<g clip-path="url(#clip0)">
<g clip-path="url(#clip1)">
<rect y="0.199951" width="36" height="36" rx="3" fill="#FAF4DE"/>
<path d="M6.5 24C6.5 24.5304 6.71071 25.0391 7.08579 25.4142C7.46086 25.7893 7.96957 26 8.5 26H27.5C28.0304 26 28.5391 25.7893 28.9142 25.4142C29.2893 25.0391 29.5 24.5304 29.5 24V15.5C29.5 15.4337 29.4737 15.3701 29.4268 15.3232C29.3799 15.2763 29.3163 15.25 29.25 15.25H6.75C6.6837 15.25 6.62011 15.2763 6.57322 15.3232C6.52634 15.3701 6.5 15.4337 6.5 15.5V24ZM23 21.75H26C26.1989 21.75 26.3897 21.829 26.5303 21.9697C26.671 22.1103 26.75 22.3011 26.75 22.5C26.75 22.6989 26.671 22.8897 26.5303 23.0303C26.3897 23.171 26.1989 23.25 26 23.25H23C22.8011 23.25 22.6103 23.171 22.4697 23.0303C22.329 22.8897 22.25 22.6989 22.25 22.5C22.25 22.3011 22.329 22.1103 22.4697 21.9697C22.6103 21.829 22.8011 21.75 23 21.75ZM10.5 17.75H18.5C18.6989 17.75 18.8897 17.829 19.0303 17.9697C19.171 18.1103 19.25 18.3011 19.25 18.5C19.25 18.6989 19.171 18.8897 19.0303 19.0303C18.8897 19.171 18.6989 19.25 18.5 19.25H10.5C10.3011 19.25 10.1103 19.171 9.96967 19.0303C9.82902 18.8897 9.75 18.6989 9.75 18.5C9.75 18.3011 9.82902 18.1103 9.96967 17.9697C10.1103 17.829 10.3011 17.75 10.5 17.75ZM10.5 21.75H13.5C13.6989 21.75 13.8897 21.829 14.0303 21.9697C14.171 22.1103 14.25 22.3011 14.25 22.5C14.25 22.6989 14.171 22.8897 14.0303 23.0303C13.8897 23.171 13.6989 23.25 13.5 23.25H10.5C10.3011 23.25 10.1103 23.171 9.96967 23.0303C9.82902 22.8897 9.75 22.6989 9.75 22.5C9.75 22.3011 9.82902 22.1103 9.96967 21.9697C10.1103 21.829 10.3011 21.75 10.5 21.75Z" fill="#C79F0C"/>
<path d="M29.5 12C29.5 11.4696 29.2893 10.9609 28.9142 10.5858C28.5391 10.2107 28.0304 10 27.5 10H8.5C7.96957 10 7.46086 10.2107 7.08579 10.5858C6.71071 10.9609 6.5 11.4696 6.5 12V13.5C6.5 13.5663 6.52634 13.6299 6.57322 13.6768C6.62011 13.7237 6.6837 13.75 6.75 13.75H29.25C29.3163 13.75 29.3799 13.7237 29.4268 13.6768C29.4737 13.6299 29.5 13.5663 29.5 13.5V12Z" fill="#C79F0C"/>
</g>
</g>
<defs>
<clipPath id="clip0">
<rect width="36" height="36" fill="white"/>
</clipPath>
<clipPath id="clip1">
<rect width="36" height="36" fill="white" transform="translate(0 0.199951)"/>
</clipPath>
</defs>
</svg>
