<svg width="36" height="36" viewBox="0 0 36 36" fill="none" xmlns="http://www.w3.org/2000/svg">
    <rect x="0.5" y="0.5" width="35" height="35" rx="3.5" fill="white"/>
    <path d="M26.1035 12.2006C26.1442 11.8704 26.1654 11.5342 26.1654 11.193C26.1654 8.325 23.8405 6 20.9725 6H12.2939C11.748 6 11.2819 6.39422 11.1914 6.93253L7.99356 25.9392C7.87881 26.6212 8.40456 27.2427 9.09611 27.2427H12.2701C12.816 27.2427 15.0439 27.2427 13.3813 26.3104C13.3813 26.3104 13.3516 26.3449 13.3574 26.3104C13.5301 25.2837 12.9539 28.8511 12.9539 28.8511C12.8529 29.4522 13.3162 30 13.9257 30H16.7025C17.1836 30 17.5945 29.6525 17.6742 29.178L18.4631 24.4896C18.5991 23.6814 19.2988 23.0896 20.1183 23.0896H20.8478C24.8101 23.0896 28.0222 19.8775 28.0222 15.9152C28.0222 14.382 27.2643 13.0267 26.1035 12.2006Z" fill="#253B80"/>
    <path d="M26.1036 12.2006C25.6071 16.2403 22.1641 19.3683 17.9902 19.3683H15.5684C15.0218 19.3683 14.5498 19.7324 14.4017 20.2471L12.9541 28.851C12.853 29.4521 13.3163 30 13.9259 30H16.7026C17.1838 30 17.5946 29.6525 17.6743 29.178L18.4632 24.4896C18.5992 23.6814 19.2989 23.0896 20.1184 23.0896H20.8479C24.8102 23.0896 28.0223 19.8775 28.0223 15.9152C28.0223 14.382 27.2644 13.0267 26.1036 12.2006Z" fill="#179BD7"/>
    <path d="M15.5684 19.3683H17.9902C22.1641 19.3683 25.6071 16.2403 26.1036 12.2007C25.3589 11.6707 24.4488 11.358 23.465 11.358H17.1439C16.4243 11.358 15.8098 11.8777 15.6903 12.5874L14.4016 20.2471C14.5497 19.7323 15.0218 19.3683 15.5684 19.3683Z" fill="#222D65"/>
    <rect x="0.5" y="0.5" width="35" height="35" rx="3.5" stroke="#EDEFF1"/>
</svg>
