<svg width="60" height="40" viewBox="0 0 60 40" fill="none" xmlns="http://www.w3.org/2000/svg">
<path d="M21.0454 15.839C20.7973 15.9846 20.5858 16.1851 20.4273 16.4252C20.2689 16.6653 20.1676 16.9386 20.1312 17.224C20.0949 17.5093 20.1245 17.7992 20.2177 18.0714C20.311 18.3435 20.4654 18.5907 20.6691 18.7938L30.9695 29.0941C31.1726 29.2979 31.4197 29.4523 31.6919 29.5455C31.964 29.6388 32.2539 29.6684 32.5393 29.632C32.8247 29.5957 33.0979 29.4944 33.338 29.3359C33.5781 29.1774 33.7787 28.966 33.9243 28.7179C35.1443 26.6189 35.5082 24.1303 34.9401 21.7699L43.1285 16.5589C43.3662 16.4077 43.5669 16.2051 43.7158 15.966C43.8647 15.7269 43.958 15.4573 43.9888 15.1773C44.0196 14.8973 43.9872 14.614 43.8938 14.3482C43.8005 14.0824 43.6486 13.841 43.4495 13.6417L36.1215 6.31375C35.9224 6.11456 35.681 5.96265 35.4153 5.86921C35.1496 5.77578 34.8662 5.7432 34.5862 5.7739C34.3062 5.8046 34.0367 5.89778 33.7975 6.04657C33.5584 6.19535 33.3557 6.39595 33.2044 6.63355L27.9934 14.8232C25.6329 14.2551 23.1444 14.619 21.0454 15.839Z" fill="white" stroke="#264887" stroke-width="1.25415" stroke-linecap="round" stroke-linejoin="round"/>
<path fill-rule="evenodd" clip-rule="evenodd" d="M20.1665 16.7407C20.325 16.5006 20.5364 16.3 20.7845 16.1544C22.7026 15.0395 24.946 14.6396 27.1197 15.0124C26.0208 15.2008 24.9541 15.5841 23.9726 16.1546C23.7245 16.3001 23.5131 16.5007 23.3546 16.7408C23.1961 16.9809 23.0948 17.2541 23.0585 17.5395C23.0221 17.8249 23.0517 18.1148 23.145 18.3869C23.2382 18.6591 23.3926 18.9062 23.5964 19.1093L33.6084 29.1214C33.4689 29.3316 33.2883 29.512 33.0772 29.6514C32.8371 29.8098 32.5638 29.9111 32.2784 29.9475C31.9931 29.9838 31.7032 29.9542 31.431 29.861C31.1589 29.7677 30.9117 29.6133 30.7086 29.4096L20.4083 19.1092C20.2045 18.9061 20.0501 18.659 19.9569 18.3868C19.8636 18.1147 19.834 17.8248 19.8704 17.5394C19.9067 17.254 20.008 16.9808 20.1665 16.7407ZM36.1509 6.91942L35.8607 6.62918C35.6615 6.42999 35.4201 6.27808 35.1544 6.18464C34.8887 6.09121 34.6054 6.05863 34.3254 6.08933C34.0454 6.12003 33.7758 6.21321 33.5367 6.362C33.2975 6.51078 33.0948 6.71138 32.9435 6.94898L27.8753 14.9141C28.887 14.8239 29.9154 14.8968 30.9206 15.1387L36.1316 6.9491C36.1379 6.93914 36.1444 6.92925 36.1509 6.91942Z" fill="#B5D9F1"/>
<path d="M25.8163 23.9448L15.7793 33.9818" stroke="#264887" stroke-width="1.25415" stroke-linecap="round" stroke-linejoin="round"/>
<path d="M21.0454 15.839C20.7973 15.9846 20.5858 16.1851 20.4273 16.4252C20.2689 16.6653 20.1676 16.9386 20.1312 17.224C20.0949 17.5093 20.1245 17.7992 20.2177 18.0714C20.311 18.3435 20.4654 18.5907 20.6691 18.7938L30.9695 29.0941C31.1726 29.2979 31.4197 29.4523 31.6919 29.5455C31.964 29.6388 32.2539 29.6684 32.5393 29.632C32.8247 29.5957 33.0979 29.4944 33.338 29.3359C33.5781 29.1774 33.7787 28.966 33.9243 28.7179C35.1443 26.6189 35.5082 24.1303 34.9401 21.7699L43.1285 16.5589C43.3662 16.4077 43.5669 16.2051 43.7158 15.966C43.8647 15.7269 43.958 15.4573 43.9888 15.1773C44.0196 14.8973 43.9872 14.614 43.8938 14.3482C43.8005 14.0824 43.6487 13.841 43.4495 13.6417L36.1215 6.31375C35.9224 6.11456 35.681 5.96265 35.4153 5.86921C35.1496 5.77578 34.8662 5.7432 34.5862 5.7739C34.3062 5.8046 34.0367 5.89778 33.7975 6.04657C33.5584 6.19535 33.3557 6.39595 33.2044 6.63355L27.9934 14.8232C25.633 14.2551 23.1444 14.619 21.0454 15.839V15.839Z" stroke="#264887" stroke-width="1.25415" stroke-linecap="round" stroke-linejoin="round"/>
<rect x="17.6781" y="5.69873" width="2.5" height="2.5" stroke="#B5D9F1" stroke-linecap="round" stroke-linejoin="round"/>
<rect x="4" y="4.09131" width="2.5" height="2.5" transform="rotate(-45 4 4.09131)" stroke="#B5D9F1" stroke-linecap="round" stroke-linejoin="round"/>
<path d="M8.02223 14.9811L10.3976 17.3564" stroke="#B5D9F1" stroke-linecap="round" stroke-linejoin="round"/>
<path d="M10.3138 14.9811L7.93844 17.3564" stroke="#B5D9F1" stroke-linecap="round" stroke-linejoin="round"/>
</svg>
