<svg width="140" height="40" viewBox="0 0 140 40" fill="none" xmlns="http://www.w3.org/2000/svg">
    <path fill-rule="evenodd" clip-rule="evenodd" d="M134.813 40H5.18709C2.32827 40 0 37.7456 0 35V5C0 2.24439 2.32827 0 5.18709 0H134.813C137.669 0 140 2.24439 140 5V35C140 37.7456 137.669 40 134.813 40Z" fill="black"/>
    <path d="M73.7524 13.232C72.8175 13.232 72.0294 12.9153 71.4061 12.2919C70.788 11.6859 70.4429 10.8505 70.4583 9.99761C70.4583 9.08738 70.7777 8.31681 71.4061 7.70584C72.0268 7.08239 72.8149 6.76569 73.7498 6.76569C74.6745 6.76569 75.4626 7.08239 76.0961 7.70584C76.7246 8.33676 77.0439 9.10733 77.0439 9.99761C77.0336 10.9103 76.7143 11.6809 76.0961 12.2894C75.4754 12.9178 74.6873 13.232 73.7524 13.232ZM45.9343 13.232C45.0199 13.232 44.2267 12.9203 43.5777 12.3043C42.9338 11.6909 42.6067 10.9153 42.6067 10.0001C42.6067 9.08489 42.9338 8.30933 43.5777 7.69586C44.2138 7.0799 45.0071 6.76818 45.9343 6.76818C46.3875 6.76818 46.828 6.85546 47.2503 7.03252C47.665 7.20459 48.0024 7.439 48.2522 7.72579L48.314 7.79811L47.6161 8.46145L47.544 8.37915C47.1499 7.92529 46.6219 7.70334 45.924 7.70334C45.3007 7.70334 44.7572 7.91781 44.3091 8.34175C43.8584 8.76818 43.6292 9.32678 43.6292 10.0026C43.6292 10.6784 43.8584 11.237 44.3091 11.6634C44.7572 12.0874 45.3007 12.3018 45.924 12.3018C46.5884 12.3018 47.1473 12.0874 47.5826 11.6634C47.8401 11.4141 47.9998 11.0649 48.0565 10.6235H45.8184V9.69087H49.0172L49.03 9.77566C49.0532 9.93277 49.0764 10.0949 49.0764 10.2445C49.0764 11.1048 48.8085 11.8006 48.278 12.3143C47.6753 12.9228 46.8872 13.232 45.9343 13.232ZM82.9213 13.0999H81.9348L78.9138 8.41905L78.9395 9.26195V13.0974H77.9531V6.90035H79.0786L79.1095 6.94773L81.9503 11.3567L81.9245 10.5163V6.90035H82.9213V13.0999ZM66.3401 13.0999H65.3408V7.83302H63.6075V6.90035H68.0708V7.83302H66.3375V13.0999H66.3401ZM62.7936 13.0999H61.7969V6.90035H62.7936V13.0999ZM57.1918 13.0999H56.1951V7.83302H54.4618V6.90035H58.9252V7.83302H57.1918V13.0999ZM53.8308 13.0899H50.0087V6.90035H53.8308V7.83302H51.008V9.53377H53.5552V10.4565H51.008V12.1572H53.8308V13.0899ZM72.1376 11.651C72.5831 12.0824 73.124 12.2994 73.7524 12.2994C74.3989 12.2994 74.9269 12.0874 75.3673 11.651C75.8051 11.227 76.0266 10.6709 76.0266 10.0001C76.0266 9.32928 75.8051 8.77067 75.3698 8.34923C74.9243 7.91781 74.3808 7.70085 73.755 7.70085C73.1085 7.70085 72.5806 7.91282 72.1427 8.34923C71.7049 8.77317 71.4834 9.32928 71.4834 10.0001C71.4834 10.6709 71.7023 11.2295 72.1376 11.651Z" fill="white"/>
    <path fill-rule="evenodd" clip-rule="evenodd" d="M70.3658 21.7557C67.9319 21.7557 65.9591 23.5438 65.9591 26.0101C65.9591 28.454 67.9448 30.2645 70.3658 30.2645C72.7997 30.2645 74.7725 28.464 74.7725 26.0101C74.7725 23.5438 72.7997 21.7557 70.3658 21.7557ZM70.3658 28.5787C69.0343 28.5787 67.8882 27.5113 67.8882 26.0001C67.8882 24.4664 69.0368 23.4216 70.3658 23.4216C71.6974 23.4216 72.8435 24.4664 72.8435 26.0001C72.846 27.5213 71.6974 28.5787 70.3658 28.5787ZM60.7514 21.7557C58.3175 21.7557 56.3447 23.5438 56.3447 26.0101C56.3447 28.454 58.3304 30.2645 60.7514 30.2645C63.1853 30.2645 65.1581 28.464 65.1581 26.0101C65.1581 23.5438 63.1827 21.7557 60.7514 21.7557ZM60.7514 28.5787C59.4199 28.5787 58.2738 27.5113 58.2738 26.0001C58.2738 24.4664 59.4224 23.4216 60.7514 23.4216C62.0829 23.4216 63.229 24.4664 63.229 26.0001C63.229 27.5213 62.0829 28.5787 60.7514 28.5787ZM49.3109 23.055V24.8555H53.7743C53.6378 25.8654 53.2927 26.6111 52.7647 27.1223C52.1105 27.7557 51.1009 28.444 49.3213 28.444C46.5783 28.444 44.4329 26.2994 44.4329 23.6435C44.4329 20.9876 46.5783 18.843 49.3213 18.843C50.8022 18.843 51.8813 19.4091 52.6823 20.1323L54.001 18.8555C52.8883 17.8231 51.4074 17.0325 49.3316 17.0325C45.5687 17.0325 42.4111 20.0001 42.4111 23.6335C42.4111 27.2769 45.5661 30.2345 49.3316 30.2345C51.3636 30.2345 52.8883 29.5911 54.0937 28.3792C55.3222 27.1896 55.7111 25.5113 55.7111 24.1572C55.7111 23.7358 55.6776 23.3567 55.6081 23.035H49.3084C49.3109 23.0325 49.3109 23.055 49.3109 23.055ZM96.1055 24.4565C95.7372 23.5014 94.6246 21.7457 92.3427 21.7457C90.0814 21.7457 88.2013 23.4689 88.2013 26.0001C88.2013 28.3891 90.0608 30.2545 92.5616 30.2545C94.5705 30.2545 95.7398 29.065 96.2214 28.3667L94.7302 27.3991C94.2357 28.1098 93.5481 28.5762 92.5719 28.5762C91.5855 28.5762 90.8953 28.1423 90.4368 27.2869L96.3116 24.9303C96.3116 24.9328 96.1055 24.4565 96.1055 24.4565ZM90.1149 25.8779C90.0685 24.2345 91.4336 23.3991 92.4097 23.3991C93.1798 23.3991 93.8211 23.7657 94.04 24.2994L90.1149 25.8779ZM85.3425 30.0001H87.2715V17.5014H85.3425V30.0001ZM82.1746 22.7009H82.105C81.6698 22.1996 80.843 21.7457 79.7871 21.7457C77.5953 21.7457 75.5761 23.6136 75.5761 26.0126C75.5761 28.4016 77.585 30.247 79.7871 30.247C80.8301 30.247 81.6698 29.7906 82.105 29.2794H82.1746V29.8904C82.1746 31.5138 81.2783 32.3891 79.8334 32.3891C78.6513 32.3891 77.9172 31.5662 77.6185 30.8779L75.9418 31.5562C76.4234 32.6784 77.7086 34.0674 79.8308 34.0674C82.0922 34.0674 84.0083 32.7782 84.0083 29.6335V22.0001H82.1849V22.7009C82.1874 22.7009 82.1746 22.7009 82.1746 22.7009ZM79.9596 28.5787C78.6281 28.5787 77.5154 27.5014 77.5154 26.0126C77.5154 24.5113 78.6281 23.4241 79.9596 23.4241C81.2783 23.4241 82.3008 24.5238 82.3008 26.0126C82.3136 27.5014 81.2809 28.5787 79.9596 28.5787ZM105.138 17.5014H100.525V30.0001H102.454V25.2669H105.14C107.276 25.2669 109.375 23.7682 109.375 21.3891C109.375 19.0101 107.283 17.5014 105.138 17.5014ZM105.195 23.5213H102.452V19.232H105.195C106.639 19.232 107.456 20.3866 107.456 21.3767C107.456 22.3567 106.629 23.5213 105.195 23.5213ZM117.106 21.7333C115.705 21.7333 114.26 22.3343 113.663 23.6435L115.373 24.3318C115.741 23.6435 116.416 23.4091 117.13 23.4091C118.129 23.4091 119.138 23.9876 119.162 25.0201V25.1522C118.816 24.9627 118.059 24.6734 117.153 24.6734C115.306 24.6734 113.434 25.651 113.434 27.4839C113.434 29.1622 114.948 30.2395 116.635 30.2395C117.93 30.2395 118.644 29.6734 119.089 29.0176H119.159V29.9852H121.019V25.1971C121.019 22.9677 119.308 21.7333 117.106 21.7333ZM116.864 28.5787C116.233 28.5787 115.35 28.2794 115.35 27.5113C115.35 26.5438 116.452 26.1772 117.392 26.1772C118.242 26.1772 118.644 26.3542 119.149 26.5986C119.01 27.7208 118.031 28.5687 116.864 28.5787ZM127.802 22.0001L125.588 27.4216H125.518L123.223 22.0001H121.147L124.591 29.5787L122.628 33.7906H124.637L129.935 22.0001H127.802ZM110.438 30.0001H112.367V17.5014H110.438V30.0001Z" fill="white"/>
    <path fill-rule="evenodd" clip-rule="evenodd" d="M10.776 7.53388C10.4772 7.84561 10.3047 8.32191 10.3047 8.94536V31.0576C10.3047 31.681 10.4772 32.1573 10.7863 32.4566L10.8662 32.5239L23.6613 20.1349V19.8581L10.8558 7.46655L10.776 7.53388Z" fill="url(#paint0_linear)"/>
    <path fill-rule="evenodd" clip-rule="evenodd" d="M27.9185 24.2768L23.6509 20.1447V19.8554L27.9185 15.7232L28.0112 15.7781L33.0592 18.5561C34.5041 19.3442 34.5041 20.6459 33.0592 21.4439L28.0112 24.222L27.9185 24.2768Z" fill="url(#paint1_linear)"/>
    <path fill-rule="evenodd" clip-rule="evenodd" d="M28.0112 24.2221L23.6509 20.0001L10.7759 32.4665C11.2472 32.9552 12.0379 33.0101 12.9213 32.5338L28.0112 24.2221Z" fill="url(#paint2_linear)"/>
    <path fill-rule="evenodd" clip-rule="evenodd" d="M28.0112 15.7781L12.9213 7.47888C12.0379 6.9901 11.2446 7.05743 10.7759 7.54621L23.6509 20.0001L28.0112 15.7781Z" fill="url(#paint3_linear)"/>
    <path opacity="0.2" fill-rule="evenodd" clip-rule="evenodd" d="M27.9185 24.1321L12.9315 32.3765C12.0945 32.8429 11.3476 32.8104 10.866 32.3865L10.7861 32.4638L10.866 32.5311C11.3476 32.9526 12.0945 32.9875 12.9315 32.5212L28.0215 24.2219L27.9185 24.1321Z" fill="black"/>
    <path opacity="0.12" fill-rule="evenodd" clip-rule="evenodd" d="M33.0594 21.2994L27.9058 24.1323L27.9985 24.2221L33.0465 21.444C33.7702 21.045 34.1256 20.5213 34.1256 20.0001C34.0819 20.4789 33.7136 20.9328 33.0594 21.2994Z" fill="black"/>
    <path opacity="0.25" fill-rule="evenodd" clip-rule="evenodd" d="M12.9214 7.62348L33.0594 18.7008C33.7136 19.0574 34.0819 19.5237 34.1385 20C34.1385 19.4788 33.7831 18.9551 33.0594 18.5561L12.9214 7.47884C11.4765 6.67834 10.3047 7.34667 10.3047 8.94517V9.08981C10.3047 7.48881 11.4765 6.83295 12.9214 7.62348Z" fill="white"/>
    <defs>
        <linearGradient id="paint0_linear" x1="22.5136" y1="8.70679" x2="2.1081" y2="14.3221" gradientUnits="userSpaceOnUse">
            <stop stop-color="#00A0FF"/>
            <stop offset="0.00657" stop-color="#00A1FF"/>
            <stop offset="0.2601" stop-color="#00BEFF"/>
            <stop offset="0.5122" stop-color="#00D2FF"/>
            <stop offset="0.7604" stop-color="#00DFFF"/>
            <stop offset="1" stop-color="#00E3FF"/>
        </linearGradient>
        <linearGradient id="paint1_linear" x1="34.9435" y1="20.0001" x2="9.95338" y2="20.0001" gradientUnits="userSpaceOnUse">
            <stop stop-color="#FFE000"/>
            <stop offset="0.4087" stop-color="#FFBD00"/>
            <stop offset="0.7754" stop-color="#FFA500"/>
            <stop offset="1" stop-color="#FF9C00"/>
        </linearGradient>
        <linearGradient id="paint2_linear" x1="25.6403" y1="22.2975" x2="9.95881" y2="49.5559" gradientUnits="userSpaceOnUse">
            <stop stop-color="#FF3A44"/>
            <stop offset="1" stop-color="#C31162"/>
        </linearGradient>
        <linearGradient id="paint3_linear" x1="7.53381" y1="0.178864" x2="14.5298" y2="12.3526" gradientUnits="userSpaceOnUse">
            <stop stop-color="#32A071"/>
            <stop offset="0.0685" stop-color="#2DA771"/>
            <stop offset="0.4762" stop-color="#15CF74"/>
            <stop offset="0.8009" stop-color="#06E775"/>
            <stop offset="1" stop-color="#00F076"/>
        </linearGradient>
    </defs>
</svg>
