<svg width="148" height="76" viewBox="0 0 148 76" fill="none" xmlns="http://www.w3.org/2000/svg">
<rect width="4.48016" height="4.48016" transform="matrix(0.717792 -0.696257 0.717792 0.696257 122.388 63.4792)" stroke="#EDBF0E" stroke-width="1.79259" stroke-linecap="round" stroke-linejoin="round"/>
<path fill-rule="evenodd" clip-rule="evenodd" d="M16.3156 52.1207C17.5715 52.1207 18.5895 51.1331 18.5895 49.915C18.5895 48.6968 17.5715 47.7092 16.3156 47.7092C15.0598 47.7092 14.0417 48.6968 14.0417 49.915C14.0417 51.1331 15.0598 52.1207 16.3156 52.1207Z" stroke="#EDBF0E" stroke-width="1.79259" stroke-linecap="round" stroke-linejoin="round"/>
<path fill-rule="evenodd" clip-rule="evenodd" d="M144.726 37.524C145.982 37.524 147 36.5365 147 35.3183C147 34.1001 145.982 33.1125 144.726 33.1125C143.47 33.1125 142.452 34.1001 142.452 35.3183C142.452 36.5365 143.47 37.524 144.726 37.524Z" stroke="#EDBF0E" stroke-width="1.79259" stroke-linecap="round" stroke-linejoin="round"/>
<rect x="26.0801" y="8.78491" width="4.54786" height="4.41144" stroke="#EDBF0E" stroke-width="1.79259" stroke-linecap="round" stroke-linejoin="round"/>
<path d="M123.547 6.98929L127.088 10.4249" stroke="#EDBF0E" stroke-width="1.79259" stroke-linecap="round" stroke-linejoin="round"/>
<path d="M126.964 6.98929L123.422 10.4249" stroke="#EDBF0E" stroke-width="1.79259" stroke-linecap="round" stroke-linejoin="round"/>
<path d="M1.15532 22.5591L4.69725 25.9948" stroke="#EDBF0E" stroke-width="1.79259" stroke-linecap="round" stroke-linejoin="round"/>
<path d="M4.5724 22.5591L1.03051 25.9948" stroke="#EDBF0E" stroke-width="1.79259" stroke-linecap="round" stroke-linejoin="round"/>
<path d="M74 74.6429C94.2373 74.6429 110.643 58.2373 110.643 38C110.643 17.7627 94.2373 1.35718 74 1.35718C53.7627 1.35718 37.3571 17.7627 37.3571 38C37.3571 58.2373 53.7627 74.6429 74 74.6429Z" fill="#F7DD7B" stroke="#264887" stroke-width="2"/>
<path d="M96.388 25.4473C96.4841 25.0327 96.6948 24.6534 96.996 24.3527C97.2973 24.052 97.6769 23.8419 98.0917 23.7465L101.506 22.9592C101.568 22.9448 101.624 22.9096 101.664 22.8594C101.704 22.8092 101.725 22.747 101.725 22.6829C101.725 22.6188 101.704 22.5566 101.664 22.5064C101.624 22.4562 101.568 22.4211 101.506 22.4066L98.0917 21.6171C97.6774 21.5215 97.2983 21.3115 96.9976 21.0109C96.6969 20.7103 96.4867 20.3313 96.3909 19.9171L95.6036 16.5053C95.5892 16.4429 95.554 16.3872 95.5038 16.3473C95.4536 16.3074 95.3914 16.2856 95.3273 16.2856C95.2632 16.2856 95.201 16.3074 95.1508 16.3473C95.1006 16.3872 95.0655 16.4429 95.051 16.5053L94.2637 19.9171C94.1676 20.3316 93.9569 20.7109 93.6557 21.0115C93.3545 21.312 92.9748 21.5219 92.56 21.6171L89.1483 22.4044C89.0858 22.4189 89.0301 22.4541 88.9902 22.5042C88.9503 22.5544 88.9286 22.6166 88.9286 22.6807C88.9286 22.7448 88.9503 22.807 88.9902 22.8572C89.0301 22.9074 89.0858 22.9426 89.1483 22.957L92.5593 23.7443C92.9737 23.84 93.3528 24.0502 93.6535 24.3509C93.9542 24.6516 94.1644 25.0307 94.2601 25.4451L95.0481 28.859C95.0626 28.9215 95.0977 28.9772 95.1479 29.0171C95.1981 29.057 95.2603 29.0787 95.3244 29.0787C95.3885 29.0787 95.4507 29.057 95.5009 29.0171C95.5511 28.9772 95.5863 28.9215 95.6007 28.859L96.388 25.4473Z" fill="white" stroke="#264887" stroke-linecap="round" stroke-linejoin="round"/>
<path d="M55.4689 22.5025C55.5443 22.1753 55.7102 21.8758 55.9476 21.6382C56.1851 21.4006 56.4845 21.2346 56.8117 21.159L59.509 20.5372C59.559 20.5263 59.6037 20.4987 59.6358 20.4589C59.6678 20.4191 59.6853 20.3696 59.6853 20.3185C59.6853 20.2674 59.6678 20.2178 59.6358 20.178C59.6037 20.1382 59.559 20.1106 59.509 20.0998L56.8117 19.4779C56.4844 19.4025 56.1849 19.2366 55.9474 18.9992C55.7098 18.7618 55.5438 18.4623 55.4682 18.1351L54.8463 15.4414C54.8355 15.3915 54.8079 15.3468 54.7681 15.3147C54.7283 15.2826 54.6787 15.2651 54.6276 15.2651C54.5765 15.2651 54.527 15.2826 54.4872 15.3147C54.4474 15.3468 54.4198 15.3915 54.4089 15.4414L53.7878 18.1387C53.7116 18.4652 53.5453 18.7638 53.308 19.0007C53.0706 19.2375 52.7717 19.4031 52.445 19.4786L49.7477 20.0998C49.6978 20.1106 49.653 20.1382 49.621 20.178C49.5889 20.2178 49.5714 20.2674 49.5714 20.3185C49.5714 20.3696 49.5889 20.4191 49.621 20.4589C49.653 20.4987 49.6978 20.5263 49.7477 20.5372L52.445 21.159C52.7723 21.2346 53.0717 21.4006 53.3091 21.6382C53.5465 21.8758 53.7124 22.1753 53.7878 22.5025L54.4097 25.1999C54.4205 25.2498 54.4481 25.2945 54.4879 25.3266C54.5277 25.3587 54.5773 25.3761 54.6284 25.3761C54.6795 25.3761 54.729 25.3587 54.7688 25.3266C54.8086 25.2945 54.8362 25.2498 54.8471 25.1999L55.4689 22.5025Z" fill="white" stroke="#264887" stroke-linecap="round" stroke-linejoin="round"/>
<path d="M70.5571 13.9166C70.6178 13.6549 70.7509 13.4156 70.9411 13.226C71.1314 13.0363 71.3712 12.904 71.6331 12.8442L73.7844 12.3478C73.8239 12.3389 73.8593 12.3168 73.8846 12.2851C73.9099 12.2534 73.9237 12.2141 73.9237 12.1736C73.9237 12.133 73.9099 12.0937 73.8846 12.062C73.8593 12.0304 73.8239 12.0082 73.7844 11.9993L71.6331 11.5043C71.3718 11.4442 71.1328 11.3119 70.9432 11.1224C70.7535 10.9329 70.621 10.6939 70.5607 10.4327L70.0643 8.28214C70.0554 8.24259 70.0333 8.20725 70.0016 8.18193C69.9699 8.15662 69.9306 8.14282 69.89 8.14282C69.8495 8.14282 69.8102 8.15662 69.7785 8.18193C69.7468 8.20725 69.7247 8.24259 69.7158 8.28214L69.2194 10.4327C69.1592 10.6939 69.0269 10.933 68.8374 11.1226C68.6479 11.3123 68.4089 11.4448 68.1477 11.5051L65.9964 12.0008C65.9569 12.0097 65.9215 12.0318 65.8962 12.0635C65.8709 12.0951 65.8571 12.1345 65.8571 12.175C65.8571 12.2156 65.8709 12.2549 65.8962 12.2866C65.9215 12.3182 65.9569 12.3403 65.9964 12.3493L68.147 12.8457C68.4083 12.906 68.6473 13.0386 68.8369 13.2282C69.0265 13.4178 69.159 13.6568 69.2194 13.9181L69.7158 16.0701C69.7247 16.1096 69.7468 16.145 69.7785 16.1703C69.8102 16.1956 69.8495 16.2094 69.89 16.2094C69.9306 16.2094 69.9699 16.1956 70.0016 16.1703C70.0333 16.145 70.0554 16.1096 70.0643 16.0701L70.5571 13.9166Z" fill="white" stroke="#264887" stroke-linecap="round" stroke-linejoin="round"/>
<path d="M95.5982 57.4709L95.6326 57.5303C95.7333 57.7283 95.7818 57.9491 95.7728 58.1718C95.7629 58.4185 95.683 58.6574 95.5424 58.8604C95.4017 59.0635 95.2061 59.2222 94.9786 59.3182C94.7512 59.414 94.5006 59.4431 94.2573 59.4022L89.5237 58.6008L88.9661 58.5064L88.7728 59.0378L87.1261 63.5642L87.1255 63.5659C87.0418 63.7977 86.8941 64.001 86.6994 64.1521C86.5048 64.3031 86.2711 64.3958 86.0258 64.4192C85.7805 64.4426 85.5336 64.396 85.3137 64.2844C85.0943 64.1731 84.9104 64.0009 84.7845 63.7896L80.9885 57.3643C85.0521 55.8488 88.5474 53.114 90.9958 49.5356L95.5982 57.4709Z" fill="#6CB4E4" stroke="#264887"/>
<path d="M56.4079 49.4854C58.8482 53.0739 62.3395 55.8206 66.403 57.3477L62.5969 63.7892C62.4712 64.0008 62.288 64.1732 62.0687 64.285C61.8493 64.3968 61.6025 64.4441 61.3573 64.4211C61.1119 64.3982 60.8782 64.3062 60.6833 64.1557C60.4883 64.0051 60.3401 63.8023 60.2558 63.5707L58.6072 59.0424L58.4138 58.511L57.8563 58.6054L53.1243 59.4069C52.881 59.4479 52.6307 59.419 52.4033 59.3233C52.1757 59.2275 51.9801 59.0688 51.8392 58.8661C51.6985 58.6632 51.6184 58.4244 51.6083 58.1777C51.5982 57.9311 51.6585 57.6867 51.7821 57.4731L56.4079 49.4854Z" fill="#6CB4E4" stroke="#264887"/>
<path d="M73.6743 20.3572C70.2493 20.3572 66.9012 21.3729 64.0534 23.2756C61.2057 25.1784 58.9861 27.8831 57.6753 31.0474C56.3646 34.2116 56.0217 37.6935 56.6899 41.0527C57.358 44.4119 59.0074 47.4976 61.4292 49.9194C63.851 52.3412 66.9368 53.9906 70.2958 54.6587C73.655 55.327 77.137 54.984 80.3012 53.6733C83.4655 52.3625 86.1702 50.1429 88.0729 47.2952C89.9757 44.4474 90.9914 41.0993 90.9914 37.6743C90.9861 33.0831 89.16 28.6816 85.9134 25.4351C82.667 22.1886 78.2655 20.3625 73.6743 20.3572ZM81.381 45.8905C81.4863 46.1444 81.5093 46.4249 81.4471 46.6927C81.3848 46.9604 81.2402 47.2019 81.0337 47.3833C80.8271 47.5648 80.569 47.6769 80.2955 47.7042C80.0219 47.7313 79.7467 47.6723 79.5085 47.5351L73.9491 44.4068C73.8656 44.3596 73.7713 44.3348 73.6754 44.3348C73.5794 44.3348 73.4852 44.3596 73.4016 44.4068L67.8424 47.5351C67.6041 47.6723 67.329 47.7313 67.0554 47.7042C66.7818 47.6769 66.5236 47.5648 66.3171 47.3833C66.1105 47.2019 65.966 46.9604 65.9037 46.6927C65.8414 46.4249 65.8646 46.1444 65.9698 45.8905L68.2311 40.6908C68.2768 40.5874 68.2897 40.4723 68.2681 40.3613C68.2467 40.2503 68.1916 40.1485 68.1104 40.0697L64.0281 36.0477C63.8381 35.8799 63.7049 35.6575 63.6465 35.4109C63.5881 35.1643 63.6075 34.9056 63.702 34.6706C63.7966 34.4355 63.9616 34.2355 64.1744 34.0978C64.3872 33.9604 64.6375 33.8921 64.8906 33.9026H69.5539C69.6604 33.9031 69.7648 33.873 69.8547 33.816C69.9446 33.759 70.0162 33.6773 70.0612 33.5808L72.4922 28.3455C72.6036 28.1282 72.7729 27.9459 72.9812 27.8186C73.1897 27.6913 73.4291 27.624 73.6732 27.624C73.9174 27.624 74.1568 27.6913 74.3651 27.8186C74.5734 27.9459 74.7426 28.1282 74.8541 28.3455L77.2852 33.5808C77.33 33.6773 77.4017 33.759 77.4917 33.816C77.5815 33.873 77.686 33.9031 77.7924 33.9026H82.4535C82.7068 33.892 82.957 33.96 83.1701 34.0972C83.3832 34.2344 83.5486 34.434 83.6437 34.6689C83.739 34.9037 83.7592 35.1623 83.7017 35.4091C83.6443 35.656 83.5118 35.879 83.3228 36.0477L79.2403 40.0697C79.1592 40.1485 79.1042 40.2503 79.0826 40.3613C79.0611 40.4723 79.074 40.5874 79.1197 40.6908L81.381 45.8905Z" fill="white"/>
<path d="M81.3809 45.8905C81.4862 46.1444 81.5093 46.4249 81.447 46.6927C81.3847 46.9605 81.2402 47.2019 81.0336 47.3834C80.8271 47.5648 80.5689 47.6769 80.2955 47.7042C80.0219 47.7313 79.7466 47.6723 79.5085 47.5351L73.9491 44.4069C73.8656 44.3596 73.7713 44.3348 73.6753 44.3348C73.5794 44.3348 73.4852 44.3596 73.4016 44.4069L67.8423 47.5351C67.604 47.6723 67.3289 47.7313 67.0553 47.7042C66.7817 47.6769 66.5236 47.5648 66.317 47.3834C66.1105 47.2019 65.9659 46.9605 65.9037 46.6927C65.8414 46.4249 65.8646 46.1444 65.9697 45.8905L68.231 40.6909C68.2768 40.5875 68.2896 40.4724 68.2681 40.3614C68.2466 40.2503 68.1915 40.1486 68.1104 40.0697L64.0281 36.0477C63.8381 35.8799 63.7048 35.6575 63.6465 35.4109C63.5881 35.1643 63.6075 34.9056 63.702 34.6706C63.7966 34.4355 63.9616 34.2355 64.1744 34.0979C64.3872 33.9604 64.6374 33.8921 64.8905 33.9026H69.5538C69.6604 33.9031 69.7647 33.873 69.8547 33.816C69.9445 33.759 70.0162 33.6773 70.0611 33.5808L72.4922 28.3455C72.6036 28.1282 72.7728 27.9459 72.9812 27.8186C73.1896 27.6913 73.429 27.624 73.6732 27.624C73.9173 27.624 74.1567 27.6913 74.365 27.8186C74.5734 27.9459 74.7426 28.1282 74.854 28.3455L77.2852 33.5808C77.33 33.6773 77.4016 33.759 77.4916 33.816C77.5815 33.873 77.686 33.9031 77.7924 33.9026H82.4535C82.7067 33.892 82.957 33.96 83.17 34.0972C83.3831 34.2344 83.5485 34.434 83.6437 34.669C83.739 34.9037 83.7592 35.1623 83.7016 35.4091C83.6442 35.656 83.5118 35.879 83.3227 36.0477L79.2403 40.0697C79.1591 40.1486 79.1042 40.2503 79.0826 40.3614C79.061 40.4724 79.0739 40.5875 79.1196 40.6909L81.3809 45.8905Z" fill="white"/>
<path d="M82.0372 45.6305L82.0328 45.6197L79.8042 40.4956L83.8177 36.5414C84.1039 36.2811 84.3042 35.9399 84.392 35.5629C84.4812 35.1798 84.4498 34.7785 84.3022 34.414C84.1544 34.0494 83.8976 33.7395 83.5669 33.5265C83.2406 33.3164 82.858 33.2108 82.4704 33.2239H77.8971L75.4989 28.0595L75.4934 28.0475L75.4873 28.0355C75.3188 27.7072 75.0632 27.4319 74.7483 27.2394C74.4334 27.0471 74.0716 26.9453 73.7026 26.9453C73.3336 26.9453 72.9718 27.0471 72.6569 27.2394C72.3421 27.4319 72.0864 27.7072 71.918 28.0355L71.9119 28.0475L71.9063 28.0595L69.5081 33.2239H64.9325C64.5445 33.2111 64.1618 33.3171 63.8355 33.5279C63.505 33.7415 63.2487 34.0521 63.102 34.4173C62.9551 34.7824 62.925 35.1841 63.0157 35.5671C63.1047 35.9434 63.3062 36.2836 63.593 36.5425L67.6055 40.4956L65.3771 45.6197L65.3725 45.6305C65.2129 46.0154 65.1779 46.4405 65.2723 46.8463C65.3666 47.2521 65.5857 47.6181 65.8988 47.8931C66.2119 48.1681 66.6031 48.338 67.0176 48.3792C67.431 48.4203 67.8468 48.3314 68.207 48.1249L68.2104 48.123L73.7049 45.0313L79.1993 48.123L79.2027 48.1249C79.563 48.3314 79.9787 48.4203 80.3921 48.3792C80.8067 48.338 81.1978 48.1681 81.5109 47.8931C81.824 47.6181 82.0431 47.2521 82.1374 46.8463C82.2318 46.4405 82.1968 46.0154 82.0372 45.6305ZM64.4598 23.8398C67.1959 22.0116 70.4126 21.0358 73.7033 21.0356C78.1147 21.0408 82.3438 22.7956 85.4631 25.9148C88.5825 29.0342 90.3372 33.2635 90.3423 37.675C90.3421 40.9656 89.3663 44.1821 87.5381 46.9181C85.7099 49.6543 83.1113 51.7869 80.071 53.0463C77.0307 54.3056 73.6852 54.6351 70.4577 53.993C67.2301 53.3511 64.2655 51.7664 61.9385 49.4394C59.6115 47.1125 58.0269 44.1478 57.3849 40.9202C56.7429 37.6927 57.0723 34.3472 58.3318 31.3069C59.591 28.2666 61.7237 25.668 64.4598 23.8398Z" fill="#6CB4E4" stroke="#264887"/>
<path fill-rule="evenodd" clip-rule="evenodd" d="M67.9341 52.571C63.4264 49.7503 60.4283 44.741 60.4283 39.0315C60.4283 30.217 67.5738 23.0715 76.3883 23.0715C78.4117 23.0715 80.3471 23.4481 82.1285 24.1348C79.6771 22.601 76.7792 21.7144 73.6743 21.7144C64.8598 21.7144 57.7143 28.8598 57.7143 37.6744C57.7143 44.4654 61.9558 50.2658 67.9341 52.571Z" fill="white"/>
</svg>
