<svg width="56" height="56" viewBox="0 0 56 56" fill="none" xmlns="http://www.w3.org/2000/svg">
<path d="M28 55C42.9117 55 55 42.9117 55 28C55 13.0883 42.9117 1 28 1C13.0883 1 1 13.0883 1 28C1 42.9117 13.0883 55 28 55Z" fill="#F7DD7B" stroke="#264887" stroke-width="2"/>
<path d="M44.4964 18.7507C44.5672 18.4452 44.7225 18.1657 44.9444 17.9441C45.1664 17.7226 45.4461 17.5678 45.7518 17.4975L48.2673 16.9174C48.3133 16.9067 48.3544 16.8808 48.3838 16.8438C48.4132 16.8069 48.4292 16.761 48.4292 16.7138C48.4292 16.6665 48.4132 16.6207 48.3838 16.5837C48.3544 16.5468 48.3133 16.5208 48.2673 16.5102L45.7518 15.9284C45.4465 15.858 45.1672 15.7032 44.9456 15.4818C44.724 15.2603 44.5691 14.981 44.4986 14.6758L43.9184 12.1619C43.9078 12.1159 43.8819 12.0748 43.8449 12.0454C43.8079 12.016 43.7621 12 43.7149 12C43.6676 12 43.6218 12.016 43.5848 12.0454C43.5478 12.0748 43.5219 12.1159 43.5113 12.1619L42.9311 14.6758C42.8603 14.9813 42.7051 15.2607 42.4831 15.4822C42.2612 15.7037 41.9814 15.8583 41.6758 15.9284L39.1619 16.5086C39.1159 16.5192 39.0748 16.5451 39.0454 16.5821C39.016 16.6191 39 16.6649 39 16.7122C39 16.7594 39.016 16.8052 39.0454 16.8422C39.0748 16.8792 39.1159 16.9051 39.1619 16.9157L41.6753 17.4959C41.9806 17.5664 42.26 17.7212 42.4815 17.9428C42.7031 18.1644 42.858 18.4438 42.9285 18.7491L43.5091 21.2646C43.5198 21.3106 43.5457 21.3517 43.5827 21.3811C43.6196 21.4105 43.6655 21.4265 43.7127 21.4265C43.7599 21.4265 43.8058 21.4105 43.8428 21.3811C43.8797 21.3517 43.9056 21.3106 43.9163 21.2646L44.4964 18.7507Z" fill="white" stroke="#264887" stroke-linecap="round" stroke-linejoin="round"/>
<path d="M14.3455 16.5809C14.4011 16.3397 14.5233 16.119 14.6983 15.944C14.8732 15.7689 15.0938 15.6466 15.335 15.5909L17.3225 15.1327C17.3593 15.1247 17.3922 15.1043 17.4158 15.075C17.4395 15.0457 17.4524 15.0092 17.4524 14.9715C17.4524 14.9339 17.4395 14.8974 17.4158 14.8681C17.3922 14.8387 17.3593 14.8184 17.3225 14.8104L15.335 14.3522C15.0938 14.2966 14.8731 14.1744 14.6981 13.9994C14.523 13.8245 14.4007 13.6039 14.345 13.3627L13.8868 11.3779C13.8788 11.3411 13.8585 11.3082 13.8291 11.2846C13.7998 11.2609 13.7633 11.248 13.7256 11.248C13.688 11.248 13.6515 11.2609 13.6222 11.2846C13.5928 11.3082 13.5725 11.3411 13.5645 11.3779L13.1068 13.3654C13.0506 13.606 12.9282 13.826 12.7533 14.0006C12.5784 14.1751 12.3581 14.2971 12.1174 14.3527L10.1299 14.8104C10.0931 14.8184 10.0601 14.8387 10.0365 14.8681C10.0129 14.8974 10 14.9339 10 14.9715C10 15.0092 10.0129 15.0457 10.0365 15.075C10.0601 15.1043 10.0931 15.1247 10.1299 15.1327L12.1174 15.5909C12.3585 15.6466 12.5791 15.7689 12.7541 15.944C12.929 16.119 13.0513 16.3397 13.1068 16.5809L13.565 18.5684C13.573 18.6052 13.5934 18.6381 13.6227 18.6617C13.652 18.6854 13.6885 18.6983 13.7262 18.6983C13.7638 18.6983 13.8004 18.6854 13.8297 18.6617C13.859 18.6381 13.8793 18.6052 13.8873 18.5684L14.3455 16.5809Z" fill="white" stroke="#264887" stroke-linecap="round" stroke-linejoin="round"/>
<path d="M25.4631 10.2544C25.5079 10.0615 25.6059 9.88519 25.7461 9.74547C25.8863 9.60574 26.063 9.50827 26.256 9.46421L27.8411 9.0984C27.8703 9.09183 27.8963 9.07554 27.915 9.05221C27.9336 9.02888 27.9438 8.99989 27.9438 8.97002C27.9438 8.94015 27.9336 8.91116 27.915 8.88783C27.8963 8.8645 27.8703 8.84821 27.8411 8.84164L26.256 8.47691C26.0635 8.43261 25.8873 8.33509 25.7476 8.19546C25.6079 8.05584 25.5102 7.87974 25.4658 7.68728L25.1 6.10266C25.0934 6.07352 25.0772 6.04748 25.0538 6.02882C25.0305 6.01016 25.0015 6 24.9716 6C24.9418 6 24.9128 6.01016 24.8894 6.02882C24.8661 6.04748 24.8498 6.07352 24.8432 6.10266L24.4774 7.68728C24.4331 7.87977 24.3356 8.05593 24.196 8.19565C24.0564 8.33537 23.8803 8.43302 23.6878 8.47744L22.1027 8.84271C22.0735 8.84928 22.0475 8.86557 22.0288 8.8889C22.0102 8.91224 22 8.94122 22 8.97109C22 9.00097 22.0102 9.02995 22.0288 9.05328C22.0475 9.07661 22.0735 9.0929 22.1027 9.09947L23.6873 9.46528C23.8798 9.50973 24.0559 9.60738 24.1956 9.74708C24.3353 9.88679 24.433 10.0629 24.4774 10.2554L24.8432 11.8411C24.8498 11.8703 24.8661 11.8963 24.8894 11.915C24.9128 11.9336 24.9418 11.9438 24.9716 11.9438C25.0015 11.9438 25.0305 11.9336 25.0538 11.915C25.0772 11.8963 25.0934 11.8703 25.1 11.8411L25.4631 10.2544Z" fill="white" stroke="#264887" stroke-linecap="round" stroke-linejoin="round"/>
<path d="M43.9145 42.347L43.9399 42.3908C44.0141 42.5367 44.0498 42.6994 44.0432 42.8635C44.0359 43.0453 43.977 43.2213 43.8734 43.3709C43.7697 43.5205 43.6256 43.6375 43.458 43.7082C43.2904 43.7788 43.1058 43.8002 42.9265 43.7701L39.4386 43.1796L39.0277 43.11L38.8853 43.5016L37.6719 46.8368L37.6715 46.8381C37.6098 47.0089 37.501 47.1587 37.3575 47.27C37.2141 47.3813 37.0419 47.4496 36.8612 47.4668C36.6804 47.4841 36.4985 47.4497 36.3365 47.3675C36.1748 47.2855 36.0393 47.1586 35.9465 47.0029L33.1495 42.2685C36.1437 41.1518 38.7192 39.1367 40.5233 36.5L43.9145 42.347Z" fill="#6CB4E4" stroke="#264887"/>
<path d="M15.0374 36.4629C16.8355 39.1071 19.408 41.131 22.4022 42.2562L19.5977 47.0026C19.5051 47.1585 19.3701 47.2855 19.2085 47.3679C19.0468 47.4503 18.865 47.4851 18.6843 47.4682C18.5035 47.4513 18.3313 47.3835 18.1877 47.2726C18.044 47.1617 17.9348 47.0122 17.8727 46.8416L16.6579 43.5049L16.5154 43.1134L16.1046 43.1829L12.6179 43.7735C12.4386 43.8037 12.2542 43.7824 12.0866 43.7119C11.9189 43.6413 11.7748 43.5244 11.671 43.375C11.5673 43.2255 11.5083 43.0496 11.5008 42.8678C11.4934 42.6861 11.5378 42.506 11.6289 42.3486L15.0374 36.4629Z" fill="#6CB4E4" stroke="#264887"/>
<path d="M27.76 15C25.2363 15 22.7693 15.7484 20.6709 17.1504C18.5726 18.5525 16.9371 20.5454 15.9713 22.877C15.0055 25.2085 14.7528 27.7741 15.2452 30.2493C15.7375 32.7245 16.9528 34.9982 18.7373 36.7827C20.5218 38.5672 22.7955 39.7825 25.2706 40.2748C27.7458 40.7672 30.3115 40.5145 32.643 39.5487C34.9746 38.5829 36.9675 36.9474 38.3695 34.8491C39.7716 32.7507 40.52 30.2837 40.52 27.76C40.5161 24.377 39.1705 21.1338 36.7783 18.7416C34.3862 16.3495 31.143 15.0039 27.76 15ZM33.4386 33.814C33.5162 34.0011 33.5332 34.2078 33.4873 34.4051C33.4414 34.6024 33.3349 34.7803 33.1827 34.914C33.0305 35.0477 32.8403 35.1303 32.6388 35.1504C32.4372 35.1704 32.2344 35.1269 32.0589 35.0258L27.9625 32.7208C27.901 32.686 27.8315 32.6677 27.7608 32.6677C27.6901 32.6677 27.6207 32.686 27.5591 32.7208L23.4628 35.0258C23.2872 35.1269 23.0845 35.1704 22.8829 35.1504C22.6813 35.1303 22.4911 35.0477 22.3389 34.914C22.1867 34.7803 22.0802 34.6024 22.0343 34.4051C21.9884 34.2078 22.0055 34.0011 22.083 33.814L23.7492 29.9827C23.7829 29.9065 23.7924 29.8217 23.7765 29.7399C23.7607 29.6581 23.7201 29.5831 23.6603 29.525L20.6523 26.5614C20.5123 26.4378 20.4141 26.2739 20.3711 26.0922C20.3281 25.9105 20.3424 25.7199 20.412 25.5467C20.4817 25.3735 20.6033 25.2261 20.7601 25.1247C20.9169 25.0234 21.1013 24.9731 21.2878 24.9808H24.7239C24.8024 24.9812 24.8793 24.959 24.9456 24.917C25.0118 24.875 25.0646 24.8148 25.0977 24.7437L26.889 20.8861C26.9711 20.726 27.0958 20.5917 27.2493 20.4979C27.4029 20.4041 27.5793 20.3545 27.7592 20.3545C27.9391 20.3545 28.1155 20.4041 28.269 20.4979C28.4225 20.5917 28.5472 20.726 28.6293 20.8861L30.4207 24.7437C30.4537 24.8148 30.5065 24.875 30.5728 24.917C30.639 24.959 30.716 24.9812 30.7944 24.9808H34.2289C34.4155 24.973 34.5999 25.0231 34.7569 25.1242C34.9139 25.2253 35.0358 25.3724 35.1059 25.5455C35.1761 25.7185 35.191 25.909 35.1486 26.0909C35.1063 26.2728 35.0087 26.4371 34.8694 26.5614L31.8613 29.525C31.8015 29.5831 31.761 29.6581 31.7451 29.7399C31.7292 29.8217 31.7387 29.9065 31.7724 29.9827L33.4386 33.814Z" fill="white"/>
<path d="M33.4386 33.814C33.5162 34.0011 33.5332 34.2078 33.4873 34.4051C33.4414 34.6024 33.3349 34.7803 33.1827 34.914C33.0305 35.0477 32.8403 35.1303 32.6388 35.1504C32.4372 35.1704 32.2344 35.1269 32.0589 35.0258L27.9625 32.7208C27.901 32.686 27.8315 32.6677 27.7608 32.6677C27.6901 32.6677 27.6207 32.686 27.5591 32.7208L23.4628 35.0258C23.2872 35.1269 23.0845 35.1704 22.8829 35.1504C22.6813 35.1303 22.4911 35.0477 22.3389 34.914C22.1867 34.7803 22.0802 34.6024 22.0343 34.4051C21.9884 34.2078 22.0055 34.0011 22.083 33.814L23.7492 29.9827C23.7829 29.9065 23.7924 29.8217 23.7765 29.7399C23.7607 29.6581 23.7201 29.5831 23.6603 29.525L20.6523 26.5614C20.5123 26.4378 20.4141 26.2739 20.3711 26.0922C20.3281 25.9105 20.3424 25.7199 20.412 25.5467C20.4817 25.3735 20.6033 25.2261 20.7601 25.1247C20.9169 25.0234 21.1013 24.9731 21.2878 24.9808H24.7239C24.8024 24.9812 24.8793 24.959 24.9456 24.917C25.0118 24.875 25.0646 24.8148 25.0977 24.7437L26.889 20.8861C26.9711 20.726 27.0958 20.5917 27.2493 20.4979C27.4029 20.4041 27.5793 20.3545 27.7592 20.3545C27.9391 20.3545 28.1155 20.4041 28.269 20.4979C28.4225 20.5917 28.5472 20.726 28.6293 20.8861L30.4207 24.7437C30.4537 24.8148 30.5065 24.875 30.5728 24.917C30.639 24.959 30.716 24.9812 30.7944 24.9808H34.2289C34.4155 24.973 34.5999 25.0231 34.7569 25.1242C34.9139 25.2253 35.0358 25.3724 35.1059 25.5455C35.1761 25.7185 35.191 25.909 35.1486 26.0909C35.1063 26.2728 35.0087 26.4371 34.8694 26.5614L31.8613 29.525C31.8015 29.5831 31.761 29.6581 31.7451 29.7399C31.7292 29.8217 31.7387 29.9065 31.7724 29.9827L33.4386 33.814Z" fill="white"/>
<path d="M33.9222 33.6225L33.9189 33.6146L32.2768 29.8389L35.2341 26.9253C35.445 26.7335 35.5926 26.4821 35.6573 26.2043C35.723 25.922 35.6999 25.6263 35.5911 25.3577C35.4822 25.0891 35.293 24.8607 35.0493 24.7038C34.8089 24.549 34.527 24.4712 34.2414 24.4808H30.8716L29.1045 20.6755L29.1004 20.6666L29.0959 20.6578C28.9718 20.4159 28.7834 20.213 28.5514 20.0712C28.3194 19.9295 28.0528 19.8545 27.7809 19.8545C27.509 19.8545 27.2424 19.9295 27.0104 20.0712C26.7784 20.213 26.59 20.4159 26.4659 20.6578L26.4614 20.6666L26.4573 20.6755L24.6902 24.4808H21.3187C21.0328 24.4714 20.7508 24.5495 20.5104 24.7048C20.2669 24.8622 20.078 25.0911 19.9699 25.3602C19.8617 25.6292 19.8395 25.9252 19.9063 26.2074C19.9719 26.4847 20.1204 26.7353 20.3317 26.9261L23.2883 29.8389L21.6463 33.6146L21.6429 33.6225C21.5253 33.9061 21.4995 34.2194 21.5691 34.5184C21.6386 34.8174 21.8 35.0871 22.0307 35.2897C22.2614 35.4923 22.5497 35.6175 22.8551 35.6479C23.1597 35.6782 23.4661 35.6127 23.7315 35.4605L23.734 35.4591L27.7826 33.181L31.8311 35.4591L31.8336 35.4605C32.0991 35.6127 32.4054 35.6782 32.71 35.6479C33.0155 35.6175 33.3037 35.4923 33.5344 35.2897C33.7651 35.0871 33.9265 34.8174 33.996 34.5184C34.0656 34.2194 34.0398 33.9061 33.9222 33.6225ZM20.9704 17.5662C22.9865 16.2191 25.3567 15.5001 27.7814 15.5C31.0319 15.5038 34.1481 16.7968 36.4465 19.0952C38.745 21.3937 40.038 24.51 40.0417 27.7606C40.0416 30.1852 39.3226 32.5553 37.9755 34.5713C36.6284 36.5874 34.7136 38.1588 32.4734 39.0868C30.2332 40.0147 27.7681 40.2575 25.3899 39.7844C23.0117 39.3114 20.8272 38.1437 19.1126 36.4291C17.398 34.7145 16.2304 32.53 15.7573 30.1518C15.2843 27.7736 15.527 25.3085 16.455 23.0683C17.3829 20.8281 18.9543 18.9133 20.9704 17.5662Z" fill="#6CB4E4" stroke="#264887"/>
<path fill-rule="evenodd" clip-rule="evenodd" d="M23.5304 38.7365C20.2089 36.6581 17.9998 32.967 17.9998 28.76C17.9998 22.2651 23.2649 17 29.7598 17C31.2507 17 32.6768 17.2775 33.9894 17.7835C32.1831 16.6533 30.0478 16 27.76 16C21.2651 16 16 21.2651 16 27.76C16 32.7639 19.1253 37.0379 23.5304 38.7365Z" fill="white"/>
</svg>
