<svg width="220" height="220" viewBox="0 0 220 220" fill="none" xmlns="http://www.w3.org/2000/svg">
    <path fill-rule="evenodd" clip-rule="evenodd" d="M110 220C170.751 220 220 170.751 220 110C220 49.2487 170.751 0 110 0C49.2487 0 0 49.2487 0 110C0 170.751 49.2487 220 110 220Z" fill="#F1F2FA"/>
    <rect width="7.33332" height="7.33332" transform="matrix(0.707106 -0.707108 0.707106 0.707108 187 91.614)" stroke="#CACCEE" stroke-width="1.79259" stroke-linecap="round" stroke-linejoin="round"/>
    <rect x="89.5713" y="27.1855" width="7.33332" height="7.33332" transform="rotate(-45 89.5713 27.1855)" stroke="#CACCEE" stroke-width="1.79259" stroke-linecap="round" stroke-linejoin="round"/>
    <path fill-rule="evenodd" clip-rule="evenodd" d="M22.8737 128.682C24.8987 128.682 26.5404 127.041 26.5404 125.016C26.5404 122.991 24.8987 121.349 22.8737 121.349C20.8487 121.349 19.207 122.991 19.207 125.016C19.207 127.041 20.8487 128.682 22.8737 128.682Z" stroke="#CACCEE" stroke-width="1.79259" stroke-linecap="round" stroke-linejoin="round"/>
    <path d="M120.378 16.663L126.089 22.3742" stroke="#CACCEE" stroke-width="1.79259" stroke-linecap="round" stroke-linejoin="round"/>
    <path d="M125.887 16.663L120.176 22.3742" stroke="#CACCEE" stroke-width="1.79259" stroke-linecap="round" stroke-linejoin="round"/>
    <rect x="145.245" y="54.8" width="25.2348" height="25.2348" stroke="#264887" stroke-width="4"/>
    <rect x="54.8" y="145.245" width="25.2348" height="25.2348" stroke="#264887" stroke-width="4"/>
    <rect x="150.554" y="60.1074" width=    "14.6174" height="14.6174" fill="#264887"/>
    <rect x="60.1089" y="150.554" width="14.6174" height="14.6174" fill="#264887"/>
    <rect x="59.8401" y="61.6" width="14.6174" height="14.6174" fill="#264887"/>
    <rect x="52.8" y="85.6904" width="9.13588" height="5.48153" fill="#264887"/>
    <rect x="65.5906" y="107.616" width="9.13589" height="4.56793" fill="#264887"/>
    <rect x="52.8" y="123.148" width="9.13588" height="17.3582" fill="#264887"/>
    <rect x="57.3682" y="91.171" width="4.56794" height="11.8766" fill="#264887"/>
    <rect x="52.8" y="103.047" width="4.56794" height="4.56794" fill="#264887"/>
    <rect x="61.936" y="103.047" width="4.56794" height="4.56794" fill="#264887"/>
    <rect x="77.467" y="85.6904" width="4.56794" height="4.56794" fill="#264887"/>
    <rect x="82.0352" y="90.2575" width="4.56794" height="4.56794" fill="#264887"/>
    <rect x="90.2571" y="86.6038" width="4.56793" height="8.22229" fill="#264887"/>
    <rect x="93.9116" y="78.3794" width="4.56795" height="20.0989" fill="#264887"/>
    <rect x="98.4795" y="90.2575" width="4.56793" height="8.22229" fill="#264887"/>
    <rect x="85.6892" y="78.3794" width="4.56794" height="8.22229" fill="#264887"/>
    <rect x="90.2571" y="61.936" width="4.56793" height="12.7902" fill="#264887"/>
    <rect x="85.6892" y="53.7152" width="9.13588" height="4.56794" fill="#264887"/>
    <rect x="93.9116" y="57.3689" width="4.56795" height="4.56794" fill="#264887"/>
    <rect x="102.134" y="57.3689" width="4.56795" height="4.56794" fill="#264887"/>
    <rect x="110.356" y="57.3689" width="4.56793" height="4.56794" fill="#264887"/>
    <rect x="123.146" y="66.5031" width="4.56793" height="4.56795" fill="#264887"/>
    <rect x="106.702" y="53.7152" width="4.56793" height="4.56794" fill="#264887"/>
    <rect x="118.578" y="53.7152" width="4.56795" height="4.56794" fill="#264887"/>
    <rect x="118.578" y="58.2823" width="9.13588" height="3.65435" fill="#264887"/>
    <rect x="114.924" y="61.936" width="8.22229" height="4.56794" fill="#264887"/>
    <rect x="98.4795" y="61.936" width="11.8766" height="4.56794" fill="#264887"/>
    <rect x="106.702" y="66.5031" width="12.7902" height="4.56795" fill="#264887"/>
    <rect x="135.023" y="65.5897" width="4.56795" height="4.56795" fill="#264887"/>
    <rect x="135.023" y="78.3794" width="4.56795" height="4.56794" fill="#264887"/>
    <rect x="143.245" y="86.6038" width="4.56793" height="4.56794" fill="#264887"/>
    <rect x="147.813" y="90.2575" width="8.22227" height="9.13589" fill="#264887"/>
    <rect x="143.245" y="98.4783" width="4.56793" height="21.0125" fill="#264887"/>
    <rect x="159.69" y="90.2575" width="4.56793" height="9.13589" fill="#264887"/>
    <rect x="146.9" y="106.701" width="21.9261" height="4.56794" fill="#264887"/>
    <rect x="164.258" y="90.2575" width="4.56793" height="4.56794" fill="#264887"/>
    <rect x="167.912" y="127.713" width="4.56793" height="4.56793" fill="#264887"/>
    <rect x="143.245" y="144.158" width="4.56793" height="4.56795" fill="#264887"/>
    <rect x="135.023" y="160.604" width="4.56795" height="4.56793" fill="#264887"/>
    <rect x="135.023" y="167.911" width="4.56795" height="4.56793" fill="#264887"/>
    <rect x="143.245" y="164.257" width="4.56793" height="8.22227" fill="#264887"/>
    <rect x="139.591" y="152.381" width="4.56796" height="8.22227" fill="#264887"/>
    <rect x="164.258" y="135.936" width="4.56793" height="4.56795" fill="#264887"/>
    <rect x="159.69" y="131.369" width="4.56793" height="9.13588" fill="#264887"/>
    <rect x="135.023" y="135.022" width="21.0125" height="5.48152" fill="#264887"/>
    <rect x="131.369" y="144.158" width="4.56793" height="16.4446" fill="#264887"/>
    <rect x="135.023" y="140.505" width="4.56795" height="16.4446" fill="#264887"/>
    <rect x="151.468" y="98.4783" width="9.13588" height="4.56793" fill="#264887"/>
    <rect x="138.678" y="111.27" width="13.7038" height="4.56795" fill="#264887"/>
    <rect x="138.678" y="114.925" width="4.56793" height="4.56795" fill="#264887"/>
    <rect x="131.369" y="111.27" width="4.56793" height="16.4446" fill="#264887"/>
    <rect x="167.912" y="98.4783" width="4.56793" height="21.9261" fill="#264887"/>
    <rect x="159.69" y="111.27" width="4.56793" height="9.13589" fill="#264887"/>
    <rect x="155.122" y="118.579" width="5.48152" height="4.56792" fill="#264887"/>
    <rect x="151.468" y="114.925" width="5.48152" height="4.56795" fill="#264887"/>
    <rect x="134.109" y="118.579" width="5.48152" height="4.56792" fill="#264887"/>
    <rect x="159.69" y="123.148" width="9.13588" height="4.56793" fill="#264887"/>
    <rect x="147.813" y="160.604" width="8.22227" height="4.56793" fill="#264887"/>
    <rect x="151.468" y="164.257" width="12.7902" height="4.56792" fill="#264887"/>
    <rect x="144.159" y="152.381" width="16.4446" height="4.56792" fill="#264887"/>
    <rect x="167.912" y="147.812" width="4.56793" height="21.0125" fill="#264887"/>
    <rect x="164.258" y="156.036" width="4.56793" height="8.22229" fill="#264887"/>
    <rect x="159.69" y="160.604" width="4.56793" height="3.65434" fill="#264887"/>
    <rect x="152.381" y="123.148" width="3.65434" height="32.8892" fill="#264887"/>
    <rect x="156.036" y="127.713" width="3.65434" height="21.0125" fill="#264887"/>
    <rect x="131.369" y="82.0349" width="4.56793" height="4.56794" fill="#264887"/>
    <rect x="126.801" y="53.7152" width="4.56796" height="4.56794" fill="#264887"/>
    <rect x="135.023" y="98.4783" width="4.56795" height="4.56793" fill="#264887"/>
    <rect x="139.591" y="90.2575" width="4.56796" height="9.13589" fill="#264887"/>
    <rect x="118.578" y="103.047" width="4.56795" height="4.56794" fill="#264887"/>
    <rect x="131.369" y="103.047" width="8.22227" height="4.56794" fill="#264887"/>
    <rect x="118.578" y="78.3794" width="4.56795" height="4.56794" fill="#264887"/>
    <rect x="123.146" y="86.6038" width="8.22229" height="4.56794" fill="#264887"/>
    <rect x="118.578" y="90.2575" width="17.3582" height="4.56794" fill="#264887"/>
    <rect x="114.01" y="98.4783" width="17.3582" height="4.56793" fill="#264887"/>
    <rect x="115.837" y="106.701" width="15.531" height="4.56794" fill="#264887"/>
    <rect x="105.788" y="94.8246" width="4.56795" height="4.56794" fill="#264887"/>
    <rect x="167.912" y="86.6038" width="4.56793" height="4.56794" fill="#264887"/>
    <rect x="61.0225" y="135.936" width="4.56794" height="4.56795" fill="#264887"/>
    <rect x="110.356" y="98.4783" width="4.56793" height="9.13587" fill="#264887"/>
    <rect x="106.702" y="82.0349" width="4.56793" height="4.56794" fill="#264887"/>
    <rect x="110.356" y="73.8105" width="4.56793" height="9.13587" fill="#264887"/>
    <rect x="114.924" y="82.0349" width="4.56793" height="37.4571" fill="#264887"/>
    <rect x="102.134" y="78.3794" width="4.56795" height="4.56794" fill="#264887"/>
    <rect x="98.4795" y="73.8105" width="8.22228" height="4.56794" fill="#264887"/>
    <rect x="126.801" y="70.1568" width="4.56796" height="12.7902" fill="#264887"/>
    <rect x="131.369" y="57.3689" width="4.56793" height="17.3582" fill="#264887"/>
    <rect x="126.801" y="61.936" width="4.56796" height="4.56794" fill="#264887"/>
    <rect x="77.467" y="94.8246" width="4.56794" height="4.56794" fill="#264887"/>
    <rect x="61.936" y="127.713" width="21.0125" height="4.56793" fill="#264887"/>
    <rect x="73.8127" y="123.148" width="4.56794" height="4.56793" fill="#264887"/>
    <rect x="73.8127" y="132.282" width="4.56794" height="4.56793" fill="#264887"/>
    <rect x="82.0352" y="132.282" width="16.4446" height="4.56793" fill="#264887"/>
    <rect x="77.467" y="136.851" width="9.13587" height="4.56793" fill="#264887"/>
    <rect x="85.6892" y="139.59" width="17.3582" height="4.56793" fill="#264887"/>
    <rect x="85.6892" y="156.036" width="12.7902" height="4.56795" fill="#264887"/>
    <rect x="77.467" y="118.579" width="4.56794" height="4.56792" fill="#264887"/>
    <rect x="86.6028" y="118.579" width="4.56794" height="4.56792" fill="#264887"/>
    <rect x="90.2571" y="123.148" width="8.22229" height="9.13588" fill="#264887"/>
    <rect x="82.0352" y="114.925" width="4.56794" height="4.56795" fill="#264887"/>
    <rect x="90.2571" y="114.925" width="4.56793" height="4.56795" fill="#264887"/>
    <rect x="98.4795" y="127.713" width="4.56793" height="4.56793" fill="#264887"/>
    <rect x="93.9116" y="144.158" width="9.13589" height="4.56795" fill="#264887"/>
    <rect x="93.9116" y="135.936" width="4.56795" height="4.56795" fill="#264887"/>
    <rect x="114.924" y="135.022" width="4.56793" height="29.2348" fill="#264887"/>
    <rect x="90.2571" y="147.812" width="4.56793" height="4.56795" fill="#264887"/>
    <rect x="106.702" y="139.59" width="4.56793" height="9.13588" fill="#264887"/>
    <rect x="110.356" y="147.812" width="4.56793" height="4.56795" fill="#264887"/>
    <rect x="126.801" y="164.257" width="4.56796" height="4.56792" fill="#264887"/>
    <rect x="122.233" y="127.713" width="4.56794" height="4.56793" fill="#264887"/>
    <rect x="139.591" y="127.713" width="9.13589" height="12.7902" fill="#264887"/>
    <rect x="106.702" y="119.492" width="4.56793" height="4.56794" fill="#264887"/>
    <rect x="93.9116" y="118.579" width="9.13589" height="4.56792" fill="#264887"/>
    <rect x="98.4795" y="114.01" width="8.22228" height="4.56795" fill="#264887"/>
    <rect x="103.047" y="111.27" width="8.2223" height="4.56795" fill="#264887"/>
    <rect x="98.4795" y="106.701" width="8.22228" height="4.56794" fill="#264887"/>
    <rect x="77.467" y="111.27" width="17.3582" height="4.56795" fill="#264887"/>
    <rect x="82.0352" y="98.4783" width="21.0125" height="4.56793" fill="#264887"/>
    <rect x="77.467" y="103.047" width="17.3582" height="4.56794" fill="#264887"/>
    <rect x="85.6892" y="107.616" width="9.13588" height="4.56793" fill="#264887"/>
    <rect x="73.8127" y="90.2575" width="4.56794" height="12.7902" fill="#264887"/>
    <rect x="64.6765" y="85.6904" width="10.0495" height="5.48153" fill="#264887"/>
    <rect x="131.369" y="127.713" width="4.56793" height="4.56793" fill="#264887"/>
    <rect x="106.702" y="127.713" width="12.7902" height="4.56793" fill="#264887"/>
    <rect x="114.924" y="123.148" width="29.2348" height="4.56793" fill="#264887"/>
    <rect x="102.134" y="132.282" width="9.13589" height="4.56793" fill="#264887"/>
    <rect x="119.492" y="139.59" width="11.8766" height="4.56793" fill="#264887"/>
    <rect x="122.233" y="135.022" width="9.13588" height="4.56793" fill="#264887"/>
    <rect x="123.146" y="147.812" width="4.56793" height="9.13588" fill="#264887"/>
    <rect x="119.492" y="160.604" width="8.22228" height="3.65434" fill="#264887"/>
    <rect x="90.2571" y="160.604" width="4.56793" height="4.56793" fill="#264887"/>
    <rect x="85.6892" y="164.257" width="4.56794" height="8.22227" fill="#264887"/>
    <rect x="90.2571" y="168.826" width="4.56793" height="3.65434" fill="#264887"/>
    <rect x="98.4795" y="168.826" width="12.7902" height="3.65434" fill="#264887"/>
    <rect x="102.134" y="160.604" width="9.13589" height="3.65434" fill="#264887"/>
    <rect x="105.788" y="156.036" width="9.13588" height="4.56795" fill="#264887"/>
    <rect x="93.9116" y="164.257" width="9.13589" height="4.56792" fill="#264887"/>
    <rect x="85.6892" y="151.469" width="4.56794" height="9.13589" fill="#264887"/>
    <rect x="70.1582" y="112.183" width="4.56794" height="3.65436" fill="#264887"/>
    <rect x="65.5906" y="123.148" width="4.56794" height="4.56793" fill="#264887"/>
    <rect x="65.5906" y="119.492" width="8.22229" height="3.65435" fill="#264887"/>
    <rect x="57.3682" y="107.616" width="4.56794" height="4.56793" fill="#264887"/>
    <rect x="52.8" y="112.183" width="4.56794" height="7.3087" fill="#264887"/>
    <rect x="57.3682" y="115.837" width="20.0989" height="3.65435" fill="#264887"/>
    <rect x="54.8" y="56.56" width="25.2348" height="25.2348" stroke="#264887" stroke-width="4"/>
</svg>
