<svg width="15" height="15" viewBox="0 0 15 15" fill="none" xmlns="http://www.w3.org/2000/svg">
    <path d="M7.09375 1.40625C7.09375 1.62969 7.27656 1.8125 7.5 1.8125C9.02344 1.8125 10.4453 2.40156 11.5219 3.47812C12.5984 4.55469 13.1875 5.97656 13.1875 7.5C13.1875 9.00313 12.6188 10.4047 11.5625 11.4812V10.3438C11.5625 10.1203 11.3797 9.9375 11.1562 9.9375C10.9328 9.9375 10.75 10.1203 10.75 10.3438V12.7812H13.1875C13.4109 12.7812 13.5938 12.5984 13.5938 12.375C13.5938 12.1516 13.4109 11.9688 13.1875 11.9688H12.2125C13.3703 10.75 14 9.18594 14 7.5C14 5.77344 13.3297 4.12812 12.0906 2.90937C10.8719 1.67031 9.22656 1 7.5 1C7.27656 1 7.09375 1.18281 7.09375 1.40625Z" fill="#283952" stroke="#283952"/>
    <path d="M2.90937 12.0906C4.12812 13.3094 5.77344 14 7.5 14C7.72344 14 7.90625 13.8172 7.90625 13.5938C7.90625 13.3703 7.72344 13.1875 7.5 13.1875C5.97656 13.1875 4.55469 12.5984 3.47812 11.5219C2.40156 10.4453 1.8125 9.02344 1.8125 7.5C1.8125 5.99688 2.38125 4.59531 3.4375 3.51875V4.65625C3.4375 4.87969 3.62031 5.0625 3.84375 5.0625C4.06719 5.0625 4.25 4.87969 4.25 4.65625V2.21875H1.8125C1.58906 2.21875 1.40625 2.40156 1.40625 2.625C1.40625 2.84844 1.58906 3.03125 1.8125 3.03125H2.7875C1.62969 4.25 1 5.81406 1 7.5C1 9.22656 1.67031 10.8719 2.90937 12.0906Z" fill="#283952" stroke="#283952"/>
</svg>
