<svg width="25" height="24" viewBox="0 0 25 24" fill="none" xmlns="http://www.w3.org/2000/svg">
<path fill-rule="evenodd" clip-rule="evenodd" d="M10.1275 19.6744L10.1281 19.6722C9.92994 19.5905 9.73451 19.5009 9.54233 19.4035C8.09439 18.6696 6.89515 17.5248 6.09476 16.1126C5.29437 14.7003 4.92842 13.0833 5.04271 11.464C5.15701 9.84467 5.74648 8.29509 6.73731 7.00924C6.78088 6.95253 6.83609 6.90582 6.89924 6.87227C6.96239 6.83872 7.032 6.8191 7.10338 6.81474C7.17476 6.81039 7.24624 6.82139 7.313 6.84702C7.37976 6.87264 7.44025 6.91228 7.49038 6.96328L7.79868 7.27158C7.89333 7.36615 8.01156 7.43368 8.14111 7.46716C8.27065 7.50065 8.4068 7.49887 8.53542 7.462C8.66404 7.42514 8.78046 7.35454 8.87261 7.25752C8.96475 7.1605 9.02926 7.0406 9.05945 6.91024L9.90798 3.23329C9.92873 3.11043 9.91978 2.98439 9.88188 2.86569C9.84399 2.747 9.77824 2.63909 9.69013 2.55099C9.60203 2.46288 9.49412 2.39714 9.37543 2.35924C9.25673 2.32134 9.13069 2.31239 9.00783 2.33314L5.33088 3.18167L5.32876 3.17955C5.1984 3.20974 5.0785 3.27425 4.98148 3.36639C4.88446 3.45854 4.81386 3.57496 4.777 3.70358C4.74014 3.83221 4.73835 3.96835 4.77184 4.09789C4.80532 4.22744 4.87285 4.34567 4.96742 4.44032L5.35421 4.82711C5.44298 4.91513 5.49556 5.03321 5.50158 5.15808C5.5076 5.28294 5.46663 5.40554 5.38674 5.50169C4.07995 7.07781 3.27512 9.00917 3.07596 11.0469C2.8768 13.0846 3.29245 15.1352 4.26933 16.9345C5.24622 18.7339 6.73957 20.1994 8.55694 21.1423C8.82353 21.2806 9.09529 21.4067 9.3714 21.5205L9.37047 21.5236C10.3485 21.935 11.3899 22.1943 12.4587 22.287C12.7201 22.3051 12.9782 22.2197 13.1774 22.0494C13.3766 21.879 13.501 21.6373 13.5237 21.3762C13.5464 21.115 13.4658 20.8554 13.299 20.6532C13.1323 20.451 12.8928 20.3223 12.6321 20.2949C11.7652 20.2203 10.9205 20.0095 10.1275 19.6744ZM17.4738 2.95047C16.3778 2.43146 15.1926 2.10821 13.9716 2.00237C13.7102 1.98434 13.452 2.06968 13.2529 2.24003C13.0537 2.41038 12.9293 2.65213 12.9066 2.91325C12.8838 3.17436 12.9645 3.43396 13.1313 3.63618C13.298 3.8384 13.5375 3.96707 13.7981 3.99451C14.6351 4.06651 15.4515 4.26547 16.2205 4.58073L16.2204 4.58083C16.237 4.58761 16.2537 4.59444 16.2702 4.60133C16.4215 4.6645 16.5709 4.73218 16.7182 4.80429L16.7186 4.80337C16.7581 4.82258 16.7974 4.84212 16.8366 4.86198C18.2845 5.5959 19.4838 6.74067 20.2841 8.15296C21.0845 9.56524 21.4505 11.1823 21.3362 12.8015C21.2219 14.4208 20.6324 15.9704 19.6416 17.2563C19.598 17.313 19.5428 17.3597 19.4797 17.3932C19.4165 17.4268 19.3469 17.4464 19.2755 17.4508C19.2041 17.4551 19.1327 17.4441 19.0659 17.4185C18.9991 17.3929 18.9386 17.3532 18.8885 17.3022L18.5802 16.9939C18.4855 16.8993 18.3671 16.8317 18.2374 16.7982C18.1077 16.7648 17.9714 16.7667 17.8427 16.8037C17.7153 16.8409 17.6001 16.9113 17.5088 17.0075C17.4175 17.1038 17.3534 17.2226 17.323 17.3517L16.4745 21.0287C16.4459 21.1527 16.4494 21.282 16.4846 21.4043C16.5197 21.5266 16.5853 21.638 16.6753 21.728C16.7653 21.8179 16.8767 21.8836 16.999 21.9187C17.1213 21.9539 17.2506 21.9573 17.3746 21.9288L21.0516 21.0803C21.1819 21.0501 21.3018 20.9856 21.3988 20.8935C21.4958 20.8013 21.5664 20.6849 21.6033 20.5563C21.6402 20.4276 21.642 20.2915 21.6085 20.162C21.575 20.0324 21.5075 19.9142 21.4129 19.8195L21.0282 19.4349C20.9394 19.3468 20.8869 19.2288 20.8809 19.1039C20.8748 18.979 20.9158 18.8564 20.9957 18.7603C22.3016 17.1838 23.1055 15.2525 23.304 13.215C23.5024 11.1776 23.0862 9.12742 22.109 7.32863C21.1318 5.52984 19.6384 4.06485 17.8212 3.1224C17.7063 3.06283 17.5905 3.00552 17.4738 2.95047Z" fill="#40526D"/>
</svg>
