<svg width="20" height="20" viewBox="0 0 20 20" fill="none" xmlns="http://www.w3.org/2000/svg">
    <circle cx="10" cy="10" r="10" fill="#CACCEE"/>
    <path d="M9.01945 5.87908C9.76404 5.70218 10.5427 5.73096 11.2722 5.96235C12.0017 6.19373 12.6546 6.61902 13.1611 7.19274C13.2893 7.33755 13.4697 7.42551 13.6628 7.43727C13.8558 7.44903 14.0456 7.38363 14.1904 7.25545C14.3352 7.12727 14.4232 6.94682 14.4349 6.75379C14.4467 6.56076 14.3813 6.37097 14.2531 6.22616C13.5721 5.45447 12.6941 4.88234 11.7131 4.57092C10.7321 4.2595 9.6849 4.2205 8.68345 4.45808C7.66714 4.71324 6.73554 5.23053 5.98167 5.95831C5.22779 6.68609 4.678 7.59888 4.3872 8.60558C4.37759 8.63891 4.35637 8.6677 4.32737 8.68675C4.29838 8.70579 4.26352 8.71383 4.22912 8.70941L3.62653 8.63358C3.5731 8.62671 3.5188 8.63505 3.46989 8.65765C3.42098 8.68025 3.37944 8.71618 3.35003 8.76133C3.31984 8.80638 3.30281 8.85896 3.30085 8.91317C3.29889 8.96737 3.31209 9.02104 3.33895 9.06816L4.78328 11.601C4.8058 11.6404 4.8372 11.6739 4.87497 11.6991C4.91274 11.7242 4.95585 11.7401 5.00087 11.7457C5.01291 11.7465 5.02499 11.7465 5.03703 11.7457C5.0761 11.7457 5.11477 11.7378 5.15074 11.7226C5.18671 11.7073 5.21926 11.685 5.24645 11.657L7.2747 9.56108C7.31245 9.52203 7.33855 9.47322 7.35006 9.42014C7.36157 9.36706 7.35803 9.31183 7.33984 9.26065C7.32165 9.20948 7.28953 9.1644 7.2471 9.13049C7.20468 9.09659 7.15363 9.0752 7.0997 9.06874L6.0042 8.93341C5.9827 8.93037 5.96215 8.92258 5.94404 8.91058C5.92594 8.89859 5.91074 8.88271 5.89956 8.86409C5.88838 8.84548 5.8815 8.8246 5.87942 8.80299C5.87734 8.78137 5.88011 8.75957 5.88753 8.73916C6.13361 8.04134 6.54826 7.41513 7.09465 6.91617C7.64103 6.41721 8.30222 6.06096 9.01945 5.87908Z" fill="#474A86"/>
    <path d="M16.6536 11.2245C16.6834 11.1792 16.7 11.1265 16.7016 11.0723C16.7031 11.0181 16.6895 10.9646 16.6623 10.9177L15.204 8.39242C15.1811 8.35323 15.1495 8.3199 15.1115 8.29509C15.0735 8.27028 15.0303 8.25467 14.9852 8.2495C14.9402 8.24359 14.8945 8.2485 14.8518 8.26382C14.8091 8.27914 14.7706 8.30443 14.7396 8.33758L12.7236 10.4457C12.6862 10.4848 12.6604 10.5335 12.6491 10.5865C12.6378 10.6394 12.6414 10.6944 12.6596 10.7453C12.6777 10.7963 12.7097 10.8412 12.7519 10.875C12.7941 10.9089 12.8449 10.9303 12.8986 10.9369L13.9766 11.0658C13.9984 11.0684 14.0194 11.0759 14.0378 11.0877C14.0563 11.0995 14.0719 11.1154 14.0834 11.1341C14.0948 11.1528 14.102 11.1738 14.1043 11.1956C14.1066 11.2174 14.1041 11.2394 14.0968 11.2601C13.851 11.9579 13.4364 12.5841 12.89 13.0828C12.3435 13.5815 11.6822 13.9373 10.9649 14.1184C10.2202 14.295 9.44161 14.266 8.71216 14.0345C7.98271 13.803 7.32982 13.3778 6.82322 12.8042C6.76053 12.7299 6.68363 12.669 6.59705 12.6249C6.51047 12.5808 6.41595 12.5545 6.31905 12.5474C6.22214 12.5404 6.12481 12.5528 6.03276 12.5839C5.94071 12.615 5.8558 12.6641 5.78303 12.7285C5.71025 12.7929 5.65108 12.8712 5.60898 12.9587C5.56689 13.0463 5.54271 13.1414 5.53789 13.2384C5.53306 13.3355 5.54768 13.4325 5.58088 13.5238C5.61408 13.6151 5.6652 13.6989 5.73122 13.7702C6.41252 14.5417 7.2906 15.1137 8.27168 15.425C9.25276 15.7363 10.3 15.7752 11.3015 15.5377C12.3191 15.2828 13.2519 14.7649 14.0063 14.036C14.7608 13.307 15.3104 12.3926 15.6001 11.3843C15.6097 11.3511 15.6309 11.3224 15.6597 11.3033C15.6885 11.2842 15.7232 11.2759 15.7576 11.2799L16.3747 11.354C16.3864 11.3548 16.3981 11.3548 16.4097 11.354C16.4579 11.3542 16.5054 11.3425 16.5479 11.3199C16.5905 11.2973 16.6268 11.2645 16.6536 11.2245Z" fill="#474A86"/>
</svg>
