<svg width="80" height="80" viewBox="0 0 80 80" fill="none" xmlns="http://www.w3.org/2000/svg">
    <path d="M40 80C62.0914 80 80 62.0914 80 40C80 17.9086 62.0914 0 40 0C17.9086 0 0 17.9086 0 40C0 62.0914 17.9086 80 40 80Z" fill="#ECF5FB"/>
    <g opacity="0.9">
        <g opacity="0.9">
            <path opacity="0.9" d="M66.9623 40.258C66.9623 55.0081 55.0034 66.9623 40.258 66.9623C25.5056 66.9623 13.5537 55.0081 13.5537 40.258C13.5537 25.5079 25.5056 13.5537 40.258 13.5537C55.0034 13.5537 66.9623 25.508 66.9623 40.258Z" fill="white" stroke="#264887"/>
            <path opacity="0.9" d="M66.9623 40.258C66.9623 55.0081 55.0034 66.9623 40.258 66.9623C25.5056 66.9623 13.5537 55.0081 13.5537 40.258C13.5537 25.5079 25.5056 13.5537 40.258 13.5537C55.0034 13.5537 66.9623 25.508 66.9623 40.258Z" fill="white" stroke="#264887"/>
            <path opacity="0.9" d="M67.4623 40.258C67.4623 55.2843 55.2795 67.4623 40.258 67.4623C25.2294 67.4623 13.0537 55.2843 13.0537 40.258C13.0537 25.2318 25.2294 13.0537 40.258 13.0537C55.2795 13.0537 67.4623 25.2318 67.4623 40.258Z" stroke="#264887" stroke-width="2" stroke-linecap="round" stroke-dasharray="190 7 1 5"/>
        </g>
        <path opacity="0.9" d="M51.2055 31.035C51.7264 30.5488 52.5429 30.5769 53.0292 31.0979C53.5154 31.6189 53.4873 32.4354 52.9663 32.9216L35.2244 49.4808C34.716 49.9552 33.9232 49.9415 33.4316 49.4499L27.5176 43.5359C27.0137 43.032 27.0137 42.215 27.5176 41.7111C28.0215 41.2072 28.8385 41.2072 29.3424 41.7111L34.3749 46.7436L51.2055 31.035Z" fill="#00A878"/>
    </g>
    <path d="M12.3873 13.4196C13.5275 13.4196 14.4518 12.4952 14.4518 11.355C14.4518 10.2148 13.5275 9.29053 12.3873 9.29053C11.2471 9.29053 10.3228 10.2148 10.3228 11.355C10.3228 12.4952 11.2471 13.4196 12.3873 13.4196Z" stroke="#B5D9F1" stroke-width="2.22222" stroke-linecap="round" stroke-dasharray="1.11 6.67 182.22 5.56"/>
    <path fill-rule="evenodd" clip-rule="evenodd" d="M72.2583 37.6514L74.813 35.0967L77.3677 37.6514L74.813 40.2061L72.2583 37.6514Z" stroke="#B5D9F1" stroke-width="2.22222" stroke-linecap="round" stroke-dasharray="1.11 6.67 182.22 5.56"/>
    <path d="M60.5161 12.5161L63.4585 15.4585" stroke="#B5D9F1" stroke-width="2.22222" stroke-linecap="round" stroke-dasharray="1.11 6.67 182.22 5.56"/>
    <path d="M63.355 12.5161L60.4126 15.4585" stroke="#B5D9F1" stroke-width="2.22222" stroke-linecap="round" stroke-dasharray="1.11 6.67 182.22 5.56"/>
</svg>
