<svg width="148" height="76" viewBox="0 0 148 76" fill="none" xmlns="http://www.w3.org/2000/svg">
<rect width="4.48016" height="4.48016" transform="matrix(0.717792 -0.696257 0.717792 0.696257 122.388 63.4792)" stroke="#73CFB5" stroke-width="1.79259" stroke-linecap="round" stroke-linejoin="round"/>
<path fill-rule="evenodd" clip-rule="evenodd" d="M16.3156 52.1207C17.5715 52.1207 18.5895 51.1331 18.5895 49.915C18.5895 48.6968 17.5715 47.7092 16.3156 47.7092C15.0598 47.7092 14.0417 48.6968 14.0417 49.915C14.0417 51.1331 15.0598 52.1207 16.3156 52.1207Z" stroke="#73CFB5" stroke-width="1.79259" stroke-linecap="round" stroke-linejoin="round"/>
<path fill-rule="evenodd" clip-rule="evenodd" d="M144.726 37.524C145.982 37.524 147 36.5365 147 35.3183C147 34.1001 145.982 33.1125 144.726 33.1125C143.47 33.1125 142.452 34.1001 142.452 35.3183C142.452 36.5365 143.47 37.524 144.726 37.524Z" stroke="#73CFB5" stroke-width="1.79259" stroke-linecap="round" stroke-linejoin="round"/>
<rect x="26.0802" y="8.78491" width="4.54786" height="4.41144" stroke="#73CFB5" stroke-width="1.79259" stroke-linecap="round" stroke-linejoin="round"/>
<path d="M123.547 6.98929L127.088 10.4249" stroke="#73CFB5" stroke-width="1.79259" stroke-linecap="round" stroke-linejoin="round"/>
<path d="M126.964 6.98929L123.422 10.4249" stroke="#73CFB5" stroke-width="1.79259" stroke-linecap="round" stroke-linejoin="round"/>
<path d="M1.15532 22.5591L4.69725 25.9948" stroke="#73CFB5" stroke-width="1.79259" stroke-linecap="round" stroke-linejoin="round"/>
<path d="M4.57242 22.5591L1.03052 25.9948" stroke="#73CFB5" stroke-width="1.79259" stroke-linecap="round" stroke-linejoin="round"/>
<path d="M74 74.6429C94.2373 74.6429 110.643 58.2373 110.643 38C110.643 17.7627 94.2373 1.35718 74 1.35718C53.7627 1.35718 37.3571 17.7627 37.3571 38C37.3571 58.2373 53.7627 74.6429 74 74.6429Z" fill="#A2DFCD" stroke="#264887" stroke-width="2"/>
<path d="M62.2546 16.7374C62.3301 16.4102 62.4959 16.1106 62.7334 15.873C62.9708 15.6355 63.2702 15.4694 63.5975 15.3938L66.2948 14.772C66.3448 14.7611 66.3894 14.7335 66.4214 14.6938C66.4536 14.654 66.4711 14.6045 66.4711 14.5533C66.4711 14.5022 66.4536 14.4526 66.4214 14.4129C66.3894 14.3731 66.3448 14.3454 66.2948 14.3345L63.5975 13.7128C63.2702 13.6374 62.9706 13.4715 62.7331 13.234C62.4955 12.9966 62.3295 12.6972 62.2539 12.37L61.6321 9.67628C61.6212 9.62635 61.5937 9.58163 61.5538 9.54956C61.514 9.51749 61.4645 9.5 61.4133 9.5C61.3623 9.5 61.3128 9.51749 61.273 9.54956C61.2331 9.58163 61.2055 9.62635 61.1947 9.67628L60.5735 12.3736C60.4972 12.7001 60.3311 12.9987 60.0938 13.2355C59.8564 13.4724 59.5574 13.6379 59.2308 13.7135L56.5334 14.3345C56.4835 14.3454 56.4387 14.3731 56.4067 14.4129C56.3747 14.4526 56.3571 14.5022 56.3571 14.5533C56.3571 14.6045 56.3747 14.654 56.4067 14.6938C56.4387 14.7335 56.4835 14.7611 56.5334 14.772L59.2308 15.3938C59.558 15.4694 59.8574 15.6355 60.0949 15.873C60.3322 16.1106 60.4982 16.4102 60.5735 16.7374L61.1954 19.4347C61.2062 19.4846 61.2339 19.5294 61.2737 19.5614C61.3134 19.5935 61.363 19.611 61.4141 19.611C61.4652 19.611 61.5148 19.5935 61.5546 19.5614C61.5944 19.5294 61.6219 19.4846 61.6328 19.4347L62.2546 16.7374Z" fill="white" stroke="#264887" stroke-linecap="round" stroke-linejoin="round"/>
<path d="M95.5982 57.4709L95.6327 57.5303C95.7334 57.7283 95.7819 57.9491 95.7729 58.1718C95.763 58.4185 95.6831 58.6574 95.5425 58.8604C95.4017 59.0635 95.2061 59.2222 94.9787 59.3182C94.7512 59.414 94.5007 59.4431 94.2574 59.4022L89.5238 58.6008L88.9661 58.5064L88.7729 59.0378L87.1261 63.5642L87.1256 63.5659C87.0419 63.7977 86.8942 64.001 86.6994 64.1521C86.5048 64.3031 86.2711 64.3958 86.0259 64.4192C85.7805 64.4426 85.5337 64.396 85.3138 64.2844C85.0943 64.1731 84.9105 64.0009 84.7845 63.7896L80.9886 57.3643C85.0521 55.8488 88.5475 53.114 90.9959 49.5356L95.5982 57.4709Z" fill="#6CB4E4" stroke="#264887"/>
<path d="M56.4079 49.4854C58.8482 53.0739 62.3394 55.8206 66.403 57.3477L62.5969 63.7892C62.4712 64.0008 62.288 64.1732 62.0687 64.285C61.8492 64.3968 61.6025 64.4441 61.3573 64.4211C61.1119 64.3982 60.8782 64.3062 60.6833 64.1557C60.4883 64.0051 60.3401 63.8023 60.2558 63.5707L58.6071 59.0424L58.4138 58.511L57.8562 58.6054L53.1243 59.4069C52.881 59.4479 52.6307 59.419 52.4032 59.3233C52.1756 59.2275 51.9801 59.0688 51.8392 58.8661C51.6985 58.6632 51.6184 58.4244 51.6082 58.1777C51.5982 57.9311 51.6584 57.6867 51.7821 57.4731L56.4079 49.4854Z" fill="#6CB4E4" stroke="#264887"/>
<path d="M73.6743 20.3572C70.2493 20.3572 66.9012 21.3729 64.0534 23.2756C61.2057 25.1784 58.9861 27.8831 57.6753 31.0474C56.3646 34.2116 56.0217 37.6935 56.6899 41.0527C57.358 44.4119 59.0074 47.4976 61.4292 49.9194C63.851 52.3412 66.9368 53.9906 70.2958 54.6587C73.655 55.327 77.137 54.984 80.3012 53.6733C83.4655 52.3625 86.1702 50.1429 88.0729 47.2952C89.9757 44.4474 90.9914 41.0993 90.9914 37.6743C90.9861 33.0831 89.16 28.6816 85.9134 25.4351C82.667 22.1886 78.2655 20.3625 73.6743 20.3572ZM81.381 45.8905C81.4863 46.1444 81.5093 46.4249 81.4471 46.6927C81.3848 46.9604 81.2402 47.2019 81.0337 47.3833C80.8271 47.5648 80.569 47.6769 80.2955 47.7042C80.0219 47.7313 79.7467 47.6723 79.5085 47.5351L73.9491 44.4068C73.8656 44.3596 73.7713 44.3348 73.6754 44.3348C73.5794 44.3348 73.4852 44.3596 73.4016 44.4068L67.8424 47.5351C67.6041 47.6723 67.329 47.7313 67.0554 47.7042C66.7818 47.6769 66.5236 47.5648 66.3171 47.3833C66.1105 47.2019 65.966 46.9604 65.9037 46.6927C65.8414 46.4249 65.8646 46.1444 65.9698 45.8905L68.2311 40.6908C68.2768 40.5874 68.2897 40.4723 68.2681 40.3613C68.2467 40.2503 68.1916 40.1485 68.1104 40.0697L64.0281 36.0477C63.8381 35.8799 63.7049 35.6575 63.6465 35.4109C63.5881 35.1643 63.6075 34.9056 63.702 34.6706C63.7966 34.4355 63.9616 34.2355 64.1744 34.0978C64.3872 33.9604 64.6375 33.8921 64.8906 33.9026H69.5539C69.6604 33.9031 69.7648 33.873 69.8547 33.816C69.9446 33.759 70.0162 33.6773 70.0612 33.5808L72.4922 28.3455C72.6036 28.1282 72.7729 27.9459 72.9812 27.8186C73.1897 27.6913 73.4291 27.624 73.6732 27.624C73.9174 27.624 74.1568 27.6913 74.3651 27.8186C74.5734 27.9459 74.7426 28.1282 74.8541 28.3455L77.2852 33.5808C77.33 33.6773 77.4017 33.759 77.4917 33.816C77.5815 33.873 77.686 33.9031 77.7924 33.9026H82.4535C82.7068 33.892 82.957 33.96 83.1701 34.0972C83.3832 34.2344 83.5486 34.434 83.6437 34.6689C83.739 34.9037 83.7592 35.1623 83.7017 35.4091C83.6443 35.656 83.5118 35.879 83.3228 36.0477L79.2403 40.0697C79.1592 40.1485 79.1042 40.2503 79.0826 40.3613C79.0611 40.4723 79.074 40.5874 79.1197 40.6908L81.381 45.8905Z" fill="white"/>
<path d="M81.3809 45.8905C81.4862 46.1444 81.5093 46.4249 81.447 46.6927C81.3847 46.9605 81.2402 47.2019 81.0336 47.3834C80.8271 47.5648 80.5689 47.6769 80.2955 47.7042C80.0219 47.7313 79.7466 47.6723 79.5085 47.5351L73.9491 44.4069C73.8656 44.3596 73.7713 44.3348 73.6753 44.3348C73.5794 44.3348 73.4852 44.3596 73.4016 44.4069L67.8423 47.5351C67.604 47.6723 67.3289 47.7313 67.0553 47.7042C66.7817 47.6769 66.5236 47.5648 66.317 47.3834C66.1105 47.2019 65.9659 46.9605 65.9037 46.6927C65.8414 46.4249 65.8646 46.1444 65.9697 45.8905L68.231 40.6909C68.2768 40.5875 68.2896 40.4724 68.2681 40.3614C68.2466 40.2503 68.1915 40.1486 68.1104 40.0697L64.0281 36.0477C63.8381 35.8799 63.7048 35.6575 63.6465 35.4109C63.5881 35.1643 63.6075 34.9056 63.702 34.6706C63.7966 34.4355 63.9616 34.2355 64.1744 34.0979C64.3872 33.9604 64.6374 33.8921 64.8905 33.9026H69.5538C69.6604 33.9031 69.7647 33.873 69.8547 33.816C69.9445 33.759 70.0162 33.6773 70.0611 33.5808L72.4922 28.3455C72.6036 28.1282 72.7728 27.9459 72.9812 27.8186C73.1896 27.6913 73.429 27.624 73.6732 27.624C73.9173 27.624 74.1567 27.6913 74.365 27.8186C74.5734 27.9459 74.7426 28.1282 74.854 28.3455L77.2852 33.5808C77.33 33.6773 77.4016 33.759 77.4916 33.816C77.5815 33.873 77.686 33.9031 77.7924 33.9026H82.4535C82.7067 33.892 82.957 33.96 83.17 34.0972C83.3831 34.2344 83.5485 34.434 83.6437 34.669C83.739 34.9037 83.7592 35.1623 83.7016 35.4091C83.6442 35.656 83.5118 35.879 83.3227 36.0477L79.2403 40.0697C79.1591 40.1486 79.1042 40.2503 79.0826 40.3614C79.061 40.4724 79.0739 40.5875 79.1196 40.6909L81.3809 45.8905Z" fill="white"/>
<path d="M82.0373 45.6305L82.0328 45.6197L79.8042 40.4956L83.8177 36.5414C84.1039 36.2811 84.3042 35.9399 84.392 35.5629C84.4812 35.1798 84.4499 34.7785 84.3022 34.414C84.1544 34.0494 83.8976 33.7395 83.5669 33.5265C83.2406 33.3164 82.8581 33.2108 82.4705 33.2239H77.8972L75.499 28.0595L75.4934 28.0475L75.4873 28.0355C75.3189 27.7072 75.0632 27.4319 74.7483 27.2394C74.4335 27.0471 74.0717 26.9453 73.7026 26.9453C73.3336 26.9453 72.9718 27.0471 72.657 27.2394C72.3421 27.4319 72.0864 27.7072 71.918 28.0355L71.9119 28.0475L71.9063 28.0595L69.5081 33.2239H64.9325C64.5445 33.2111 64.1618 33.3171 63.8355 33.5279C63.5051 33.7415 63.2487 34.0521 63.102 34.4173C62.9552 34.7824 62.925 35.1841 63.0157 35.5671C63.1047 35.9434 63.3063 36.2836 63.593 36.5425L67.6055 40.4956L65.3771 45.6197L65.3725 45.6305C65.2129 46.0154 65.1779 46.4405 65.2723 46.8463C65.3667 47.2521 65.5857 47.6181 65.8988 47.8931C66.2119 48.1681 66.6032 48.338 67.0176 48.3792C67.431 48.4203 67.8468 48.3314 68.207 48.1249L68.2104 48.123L73.705 45.0313L79.1993 48.123L79.2027 48.1249C79.5631 48.3314 79.9788 48.4203 80.3921 48.3792C80.8067 48.338 81.1979 48.1681 81.511 47.8931C81.8241 47.6181 82.0431 47.2521 82.1374 46.8463C82.2319 46.4405 82.1969 46.0154 82.0373 45.6305ZM64.4598 23.8398C67.196 22.0116 70.4127 21.0358 73.7033 21.0356C78.1147 21.0408 82.3438 22.7956 85.4631 25.9148C88.5825 29.0342 90.3373 33.2635 90.3423 37.675C90.3422 40.9656 89.3664 44.1821 87.5382 46.9181C85.71 49.6543 83.1113 51.7869 80.071 53.0463C77.0308 54.3056 73.6853 54.6351 70.4577 53.993C67.2302 53.3511 64.2655 51.7664 61.9385 49.4394C59.6116 47.1125 58.027 44.1478 57.3849 40.9202C56.743 37.6927 57.0724 34.3472 58.3318 31.3069C59.5911 28.2666 61.7237 25.668 64.4598 23.8398Z" fill="#6CB4E4" stroke="#264887"/>
<path fill-rule="evenodd" clip-rule="evenodd" d="M67.9341 52.571C63.4264 49.7503 60.4283 44.741 60.4283 39.0315C60.4283 30.217 67.5738 23.0715 76.3883 23.0715C78.4117 23.0715 80.3471 23.4481 82.1285 24.1348C79.6771 22.601 76.7792 21.7144 73.6743 21.7144C64.8598 21.7144 57.7143 28.8598 57.7143 37.6744C57.7143 44.4654 61.9558 50.2658 67.9341 52.571Z" fill="white"/>
</svg>
