<svg width="60" height="40" viewBox="0 0 60 40" fill="none" xmlns="http://www.w3.org/2000/svg">
<path fill-rule="evenodd" clip-rule="evenodd" d="M25.0353 23.7321C27.6234 25.2233 30.8275 25.2356 33.4327 23.7831L35.0967 25.2573V27.5751H37.4185L38.1925 28.3863V30.6655H40.2311L41.875 32.2108H45.1581V28.9333L36.7158 20.5057C38.5268 17.2716 38.0609 13.1072 35.3072 10.3583C33.3661 8.42058 30.7223 7.61398 28.1945 7.93847" fill="white"/>
<path d="M25.0353 23.7321C27.6234 25.2233 30.8275 25.2356 33.4327 23.7831L35.0967 25.2573V27.5751H37.4185L38.1925 28.3863V30.6655H40.2311L41.875 32.2108H45.1581V28.9333L36.7158 20.5057C38.5268 17.2716 38.0609 13.1072 35.3072 10.3583C33.3661 8.42058 30.7223 7.61398 28.1945 7.93847" stroke="#D7DBE0" stroke-width="1.25" stroke-linecap="round" stroke-dasharray="109.7 4.54"/>
<path fill-rule="evenodd" clip-rule="evenodd" d="M30.8772 14.6355C30.8772 10.0012 27.0983 6.24561 22.4386 6.24561C17.779 6.24561 14 10.0012 14 14.6355C14 18.475 16.5976 21.7044 20.1372 22.7005V24.5509L18.6029 26.0748L20.1372 27.6017V29.1272L18.6029 30.6526L20.1372 32.1781V34.4662L22.4386 36.7544L24.7401 34.4662V22.7005C28.2797 21.7044 30.8772 18.475 30.8772 14.6355Z" fill="white" stroke="#D7DBE0" stroke-width="1.25" stroke-linecap="round" stroke-dasharray="117.49 4.54 0.65 2.6"/>
<path fill-rule="evenodd" clip-rule="evenodd" d="M24.0613 13.7107C24.0613 14.6065 23.3343 15.3335 22.4385 15.3335C21.5427 15.3335 20.8157 14.6065 20.8157 13.7107C20.8157 12.8149 21.5427 12.0879 22.4385 12.0879C23.3343 12.0879 24.0613 12.8149 24.0613 13.7107Z" stroke="#D7DBE0" stroke-width="1.29825" stroke-linecap="round" stroke-linejoin="round"/>
<path d="M22.4387 13.7105V5.99595C22.4387 4.34219 23.8928 3 25.6844 3C27.4759 3 28.93 4.34219 28.93 5.99595V7.50419" stroke="#D7DBE0" stroke-width="1.94737" stroke-linecap="round" stroke-linejoin="round"/>
<path fill-rule="evenodd" clip-rule="evenodd" d="M52.3027 26.9209C52.9931 26.9209 53.5527 26.3613 53.5527 25.6709C53.5527 24.9805 52.9931 24.4209 52.3027 24.4209C51.6124 24.4209 51.0527 24.9805 51.0527 25.6709C51.0527 26.3613 51.6124 26.9209 52.3027 26.9209Z" stroke="#D7DBE0"/>
<rect x="4" y="25.3945" width="2.5" height="2.5" stroke="#D7DBE0" stroke-linecap="round" stroke-linejoin="round"/>
<path d="M43.8852 3.34926L46.2601 5.72416" stroke="#D7DBE0" stroke-linecap="round"/>
<path d="M46.1761 3.34926L43.8012 5.72416" stroke="#D7DBE0" stroke-linecap="round"/>
<path d="M36.5623 16.0934C36.4589 16.0161 36.3415 15.9602 36.2169 15.9289C36.0922 15.8976 35.9627 15.8916 35.8358 15.9111C35.7088 15.9307 35.5869 15.9754 35.477 16.0428C35.3671 16.1102 35.2713 16.1989 35.1952 16.3039L30.5595 22.6905L27.6116 20.2963C27.4084 20.1383 27.1522 20.0674 26.8981 20.0988C26.6439 20.1301 26.412 20.2614 26.252 20.4643C26.092 20.6672 26.0167 20.9257 26.0423 21.1843C26.0678 21.4429 26.1921 21.681 26.3885 21.8477L30.1314 24.8869C30.2348 24.969 30.3533 25.0294 30.48 25.0645C30.6067 25.0996 30.739 25.1087 30.8692 25.0913C30.9994 25.074 31.1248 25.0304 31.2383 24.9633C31.3517 24.8961 31.4508 24.8067 31.5298 24.7002L36.7728 17.4819C36.8488 17.3768 36.9037 17.2574 36.9343 17.1307C36.9649 17.004 36.9705 16.8724 36.951 16.7434C36.9315 16.6145 36.8871 16.4907 36.8204 16.3791C36.7537 16.2676 36.666 16.1705 36.5623 16.0934Z" fill="white"/>
</svg>
