<svg width="60" height="40" viewBox="0 0 60 40" fill="none" xmlns="http://www.w3.org/2000/svg">
<path fill-rule="evenodd" clip-rule="evenodd" d="M25.0352 23.7321C27.6233 25.2233 30.8274 25.2356 33.4326 23.7831L35.0966 25.2573V27.5751H37.4184L38.1924 28.3863V30.6655H40.231L41.8748 32.2108H45.158V28.9333L36.7157 20.5057C38.5267 17.2716 38.0608 13.1072 35.3071 10.3583C33.366 8.42058 30.7222 7.61398 28.1944 7.93847" fill="#B5D9F1"/>
<path d="M25.0352 23.7321C27.6233 25.2233 30.8274 25.2356 33.4326 23.7831L35.0966 25.2573V27.5751H37.4184L38.1924 28.3863V30.6655H40.231L41.8748 32.2108H45.158V28.9333L36.7157 20.5057C38.5267 17.2716 38.0608 13.1072 35.3071 10.3583C33.366 8.42058 30.7222 7.61398 28.1944 7.93847" stroke="#264887" stroke-width="1.25" stroke-linecap="round" stroke-dasharray="109.7 4.54"/>
<path fill-rule="evenodd" clip-rule="evenodd" d="M30.8772 14.6355C30.8772 10.0012 27.0982 6.24561 22.4386 6.24561C17.779 6.24561 14 10.0012 14 14.6355C14 18.475 16.5976 21.7044 20.1372 22.7005V24.5509L18.6029 26.0748L20.1372 27.6017V29.1272L18.6029 30.6526L20.1372 32.1781V34.4662L22.4386 36.7544L24.74 34.4662V22.7005C28.2796 21.7044 30.8772 18.475 30.8772 14.6355Z" fill="white"/>
<path d="M23.4386 35.5145L22.1372 34.2206V31.9325L20.6029 30.407L22.1372 28.8816V27.3561L20.6029 25.8292L22.1372 24.3053V22.4549C18.5976 21.4588 16 18.2294 16 14.3899C16 10.0921 19.2501 6.55004 23.4386 6.0583C23.1107 6.0198 22.7769 6 22.4386 6C17.779 6 14 9.75559 14 14.3899C14 18.2294 16.5976 21.4588 20.1372 22.4549V24.3053L18.6029 25.8292L20.1372 27.3561V28.8816L18.6029 30.407L20.1372 31.9325V34.2206L22.4386 36.5088L23.4386 35.5145Z" fill="#B5D9F1"/>
<path fill-rule="evenodd" clip-rule="evenodd" d="M30.8772 14.6355C30.8772 10.0012 27.0982 6.24561 22.4386 6.24561C17.779 6.24561 14 10.0012 14 14.6355C14 18.475 16.5976 21.7044 20.1372 22.7005V24.5509L18.6029 26.0748L20.1372 27.6017V29.1272L18.6029 30.6526L20.1372 32.1781V34.4662L22.4386 36.7544L24.74 34.4662V22.7005C28.2796 21.7044 30.8772 18.475 30.8772 14.6355Z" stroke="#264887" stroke-width="1.25" stroke-linecap="round" stroke-dasharray="117.49 4.54 0.65 2.6"/>
<path fill-rule="evenodd" clip-rule="evenodd" d="M24.0613 13.7107C24.0613 14.6065 23.3343 15.3335 22.4385 15.3335C21.5427 15.3335 20.8157 14.6065 20.8157 13.7107C20.8157 12.8149 21.5427 12.0879 22.4385 12.0879C23.3343 12.0879 24.0613 12.8149 24.0613 13.7107Z" stroke="#264887" stroke-width="1.29825" stroke-linecap="round" stroke-linejoin="round"/>
<path d="M22.4387 13.7105V5.99595C22.4387 4.34219 23.8928 3 25.6843 3C27.4759 3 28.9299 4.34219 28.9299 5.99595V7.50419" stroke="#D7403A" stroke-width="1.94737" stroke-linecap="round" stroke-linejoin="round"/>
<path fill-rule="evenodd" clip-rule="evenodd" d="M52.3027 26.9209C52.9931 26.9209 53.5527 26.3613 53.5527 25.6709C53.5527 24.9805 52.9931 24.4209 52.3027 24.4209C51.6124 24.4209 51.0527 24.9805 51.0527 25.6709C51.0527 26.3613 51.6124 26.9209 52.3027 26.9209Z" stroke="#B5D9F1"/>
<path d="M6.5 25.3945H4V27.8945H6.5V25.3945Z" stroke="#B5D9F1" stroke-linecap="round" stroke-linejoin="round"/>
<path d="M43.8852 3.34912L46.26 5.72402" stroke="#B5D9F1" stroke-linecap="round"/>
<path d="M46.1761 3.34912L43.8012 5.72402" stroke="#B5D9F1" stroke-linecap="round"/>
</svg>
