<svg width="238" height="38" viewBox="0 0 238 38" fill="none" xmlns="http://www.w3.org/2000/svg">
<rect width="238" height="38" fill="#3C4B53"/>
<path d="M68.0938 21.8984C68.0938 22.9141 67.7266 23.7109 66.9922 24.2891C66.2578 24.8672 65.2448 25.1562 63.9531 25.1562C62.6615 25.1562 61.6042 24.9557 60.7812 24.5547V22.7891C61.3021 23.0339 61.8542 23.2266 62.4375 23.3672C63.026 23.5078 63.5729 23.5781 64.0781 23.5781C64.8177 23.5781 65.362 23.4375 65.7109 23.1562C66.0651 22.875 66.2422 22.4974 66.2422 22.0234C66.2422 21.5964 66.0807 21.2344 65.7578 20.9375C65.4349 20.6406 64.7682 20.2891 63.7578 19.8828C62.7161 19.4609 61.9818 18.9792 61.5547 18.4375C61.1276 17.8958 60.9141 17.2448 60.9141 16.4844C60.9141 15.5312 61.2526 14.7812 61.9297 14.2344C62.6068 13.6875 63.5156 13.4141 64.6562 13.4141C65.75 13.4141 66.8385 13.6536 67.9219 14.1328L67.3281 15.6562C66.3125 15.2292 65.4062 15.0156 64.6094 15.0156C64.0052 15.0156 63.5469 15.1484 63.2344 15.4141C62.9219 15.6745 62.7656 16.0208 62.7656 16.4531C62.7656 16.75 62.8281 17.0052 62.9531 17.2188C63.0781 17.4271 63.2839 17.625 63.5703 17.8125C63.8568 18 64.3724 18.2474 65.1172 18.5547C65.9557 18.9036 66.5703 19.2292 66.9609 19.5312C67.3516 19.8333 67.638 20.1745 67.8203 20.5547C68.0026 20.9349 68.0938 21.3828 68.0938 21.8984ZM73.8828 25.1562C72.5391 25.1562 71.487 24.7656 70.7266 23.9844C69.9714 23.1979 69.5938 22.1172 69.5938 20.7422C69.5938 19.3307 69.9453 18.2214 70.6484 17.4141C71.3516 16.6068 72.3177 16.2031 73.5469 16.2031C74.6875 16.2031 75.5885 16.5495 76.25 17.2422C76.9115 17.9349 77.2422 18.888 77.2422 20.1016V21.0938H71.4844C71.5104 21.9323 71.737 22.5781 72.1641 23.0312C72.5911 23.4792 73.1927 23.7031 73.9688 23.7031C74.4792 23.7031 74.9531 23.6562 75.3906 23.5625C75.8333 23.4635 76.3073 23.3021 76.8125 23.0781V24.5703C76.3646 24.7839 75.9115 24.9349 75.4531 25.0234C74.9948 25.112 74.4714 25.1562 73.8828 25.1562ZM73.5469 17.5938C72.9635 17.5938 72.4948 17.7786 72.1406 18.1484C71.7917 18.5182 71.5833 19.0573 71.5156 19.7656H75.4375C75.4271 19.0521 75.2552 18.513 74.9219 18.1484C74.5885 17.7786 74.1302 17.5938 73.5469 17.5938ZM82.8125 25.1562C81.5052 25.1562 80.5104 24.776 79.8281 24.0156C79.151 23.25 78.8125 22.1536 78.8125 20.7266C78.8125 19.2734 79.1667 18.1562 79.875 17.375C80.5885 16.5938 81.6172 16.2031 82.9609 16.2031C83.8724 16.2031 84.6927 16.3724 85.4219 16.7109L84.8672 18.1875C84.0911 17.8854 83.4505 17.7344 82.9453 17.7344C81.4505 17.7344 80.7031 18.7266 80.7031 20.7109C80.7031 21.6797 80.888 22.4089 81.2578 22.8984C81.6328 23.3828 82.1797 23.625 82.8984 23.625C83.7161 23.625 84.4896 23.4219 85.2188 23.0156V24.6172C84.8906 24.8099 84.5391 24.9479 84.1641 25.0312C83.7943 25.1146 83.3438 25.1562 82.8125 25.1562ZM93.3438 25L93.0859 23.8672H92.9922C92.737 24.2682 92.3724 24.5833 91.8984 24.8125C91.4297 25.0417 90.8932 25.1562 90.2891 25.1562C89.2422 25.1562 88.4609 24.8958 87.9453 24.375C87.4297 23.8542 87.1719 23.0651 87.1719 22.0078V16.3594H89.0234V21.6875C89.0234 22.349 89.1589 22.8464 89.4297 23.1797C89.7005 23.5078 90.125 23.6719 90.7031 23.6719C91.474 23.6719 92.0391 23.4427 92.3984 22.9844C92.763 22.5208 92.9453 21.7474 92.9453 20.6641V16.3594H94.7891V25H93.3438ZM101.789 16.2031C102.159 16.2031 102.464 16.2292 102.703 16.2812L102.523 17.9922C102.263 17.9297 101.992 17.8984 101.711 17.8984C100.977 17.8984 100.38 18.138 99.9219 18.6172C99.4688 19.0964 99.2422 19.7188 99.2422 20.4844V25H97.4062V16.3594H98.8438L99.0859 17.8828H99.1797C99.4661 17.3672 99.8385 16.9583 100.297 16.6562C100.76 16.3542 101.258 16.2031 101.789 16.2031ZM106.148 25H104.312V16.3594H106.148V25ZM104.203 14.0703C104.203 13.7422 104.292 13.4896 104.469 13.3125C104.651 13.1354 104.909 13.0469 105.242 13.0469C105.565 13.0469 105.815 13.1354 105.992 13.3125C106.174 13.4896 106.266 13.7422 106.266 14.0703C106.266 14.3828 106.174 14.6302 105.992 14.8125C105.815 14.9896 105.565 15.0781 105.242 15.0781C104.909 15.0781 104.651 14.9896 104.469 14.8125C104.292 14.6302 104.203 14.3828 104.203 14.0703ZM112 23.6719C112.448 23.6719 112.896 23.6016 113.344 23.4609V24.8438C113.141 24.9323 112.878 25.0052 112.555 25.0625C112.237 25.125 111.906 25.1562 111.562 25.1562C109.823 25.1562 108.953 24.2396 108.953 22.4062V17.75H107.773V16.9375L109.039 16.2656L109.664 14.4375H110.797V16.3594H113.258V17.75H110.797V22.375C110.797 22.8177 110.906 23.1458 111.125 23.3594C111.349 23.5677 111.641 23.6719 112 23.6719ZM113.766 16.3594H115.766L117.523 21.2578C117.789 21.9557 117.966 22.612 118.055 23.2266H118.117C118.164 22.9401 118.25 22.5938 118.375 22.1875C118.5 21.776 119.161 19.8333 120.359 16.3594H122.344L118.648 26.1484C117.977 27.9453 116.857 28.8438 115.289 28.8438C114.883 28.8438 114.487 28.7995 114.102 28.7109V27.2578C114.378 27.3203 114.693 27.3516 115.047 27.3516C115.932 27.3516 116.555 26.8385 116.914 25.8125L117.234 25L113.766 16.3594ZM137.297 19.1797C137.297 21.0651 136.773 22.5078 135.727 23.5078C134.68 24.5026 133.172 25 131.203 25H128.008V13.5781H131.539C133.357 13.5781 134.771 14.0677 135.781 15.0469C136.792 16.026 137.297 17.4036 137.297 19.1797ZM135.328 19.2422C135.328 16.5078 134.049 15.1406 131.492 15.1406H129.875V23.4297H131.203C133.953 23.4297 135.328 22.0339 135.328 19.2422ZM144.969 25L144.602 23.7969H144.539C144.122 24.3229 143.703 24.6823 143.281 24.875C142.859 25.0625 142.318 25.1562 141.656 25.1562C140.807 25.1562 140.143 24.9271 139.664 24.4688C139.19 24.0104 138.953 23.362 138.953 22.5234C138.953 21.6328 139.284 20.9609 139.945 20.5078C140.607 20.0547 141.615 19.8073 142.969 19.7656L144.461 19.7188V19.2578C144.461 18.7057 144.331 18.2943 144.07 18.0234C143.815 17.7474 143.417 17.6094 142.875 17.6094C142.432 17.6094 142.008 17.6745 141.602 17.8047C141.195 17.9349 140.805 18.0885 140.43 18.2656L139.836 16.9531C140.305 16.7083 140.818 16.5234 141.375 16.3984C141.932 16.2682 142.458 16.2031 142.953 16.2031C144.052 16.2031 144.88 16.4427 145.438 16.9219C146 17.401 146.281 18.1536 146.281 19.1797V25H144.969ZM142.234 23.75C142.901 23.75 143.435 23.5651 143.836 23.1953C144.242 22.8203 144.445 22.2969 144.445 21.625V20.875L143.336 20.9219C142.471 20.9531 141.841 21.099 141.445 21.3594C141.055 21.6146 140.859 22.0078 140.859 22.5391C140.859 22.9245 140.974 23.224 141.203 23.4375C141.432 23.6458 141.776 23.75 142.234 23.75ZM154.648 22.5391C154.648 23.3828 154.341 24.0312 153.727 24.4844C153.112 24.9323 152.232 25.1562 151.086 25.1562C149.935 25.1562 149.01 24.9818 148.312 24.6328V23.0469C149.328 23.5156 150.273 23.75 151.148 23.75C152.279 23.75 152.844 23.4089 152.844 22.7266C152.844 22.5078 152.781 22.3255 152.656 22.1797C152.531 22.0339 152.326 21.8828 152.039 21.7266C151.753 21.5703 151.354 21.3932 150.844 21.1953C149.849 20.8099 149.174 20.4245 148.82 20.0391C148.471 19.6536 148.297 19.1536 148.297 18.5391C148.297 17.7995 148.594 17.2266 149.188 16.8203C149.786 16.4089 150.599 16.2031 151.625 16.2031C152.641 16.2031 153.602 16.4089 154.508 16.8203L153.914 18.2031C152.982 17.8177 152.198 17.625 151.562 17.625C150.594 17.625 150.109 17.901 150.109 18.4531C150.109 18.724 150.234 18.9531 150.484 19.1406C150.74 19.3281 151.292 19.5859 152.141 19.9141C152.854 20.1901 153.372 20.4427 153.695 20.6719C154.018 20.901 154.258 21.1667 154.414 21.4688C154.57 21.7656 154.648 22.1224 154.648 22.5391ZM164.242 25H162.398V19.6875C162.398 19.0208 162.263 18.5234 161.992 18.1953C161.727 17.8672 161.302 17.7031 160.719 17.7031C159.948 17.7031 159.38 17.9349 159.016 18.3984C158.656 18.8568 158.477 19.6276 158.477 20.7109V25H156.641V12.8438H158.477V15.9297C158.477 16.4245 158.445 16.9531 158.383 17.5156H158.5C158.75 17.099 159.096 16.776 159.539 16.5469C159.987 16.3177 160.508 16.2031 161.102 16.2031C163.195 16.2031 164.242 17.2578 164.242 19.3672V25ZM171.211 16.2031C172.289 16.2031 173.128 16.5938 173.727 17.375C174.331 18.1562 174.633 19.2526 174.633 20.6641C174.633 22.0807 174.328 23.1849 173.719 23.9766C173.109 24.763 172.263 25.1562 171.18 25.1562C170.086 25.1562 169.237 24.763 168.633 23.9766H168.508L168.172 25H166.797V12.8438H168.633V15.7344C168.633 15.9479 168.622 16.2656 168.602 16.6875C168.581 17.1094 168.565 17.3776 168.555 17.4922H168.633C169.216 16.6328 170.076 16.2031 171.211 16.2031ZM170.734 17.7031C169.995 17.7031 169.461 17.9219 169.133 18.3594C168.81 18.7917 168.643 19.5182 168.633 20.5391V20.6641C168.633 21.7161 168.799 22.4792 169.133 22.9531C169.466 23.4219 170.01 23.6562 170.766 23.6562C171.417 23.6562 171.909 23.3984 172.242 22.8828C172.581 22.3672 172.75 21.6224 172.75 20.6484C172.75 18.6849 172.078 17.7031 170.734 17.7031ZM184.43 20.6641C184.43 22.0755 184.068 23.1771 183.344 23.9688C182.62 24.7604 181.612 25.1562 180.32 25.1562C179.513 25.1562 178.799 24.974 178.18 24.6094C177.56 24.2448 177.083 23.7214 176.75 23.0391C176.417 22.3568 176.25 21.5651 176.25 20.6641C176.25 19.263 176.609 18.1693 177.328 17.3828C178.047 16.5964 179.06 16.2031 180.367 16.2031C181.617 16.2031 182.607 16.6068 183.336 17.4141C184.065 18.2161 184.43 19.2995 184.43 20.6641ZM178.141 20.6641C178.141 22.6589 178.878 23.6562 180.352 23.6562C181.81 23.6562 182.539 22.6589 182.539 20.6641C182.539 18.6901 181.805 17.7031 180.336 17.7031C179.565 17.7031 179.005 17.9583 178.656 18.4688C178.312 18.9792 178.141 19.7109 178.141 20.6641ZM191.953 25L191.586 23.7969H191.523C191.107 24.3229 190.688 24.6823 190.266 24.875C189.844 25.0625 189.302 25.1562 188.641 25.1562C187.792 25.1562 187.128 24.9271 186.648 24.4688C186.174 24.0104 185.938 23.362 185.938 22.5234C185.938 21.6328 186.268 20.9609 186.93 20.5078C187.591 20.0547 188.599 19.8073 189.953 19.7656L191.445 19.7188V19.2578C191.445 18.7057 191.315 18.2943 191.055 18.0234C190.799 17.7474 190.401 17.6094 189.859 17.6094C189.417 17.6094 188.992 17.6745 188.586 17.8047C188.18 17.9349 187.789 18.0885 187.414 18.2656L186.82 16.9531C187.289 16.7083 187.802 16.5234 188.359 16.3984C188.917 16.2682 189.443 16.2031 189.938 16.2031C191.036 16.2031 191.865 16.4427 192.422 16.9219C192.984 17.401 193.266 18.1536 193.266 19.1797V25H191.953ZM189.219 23.75C189.885 23.75 190.419 23.5651 190.82 23.1953C191.227 22.8203 191.43 22.2969 191.43 21.625V20.875L190.32 20.9219C189.456 20.9531 188.826 21.099 188.43 21.3594C188.039 21.6146 187.844 22.0078 187.844 22.5391C187.844 22.9245 187.958 23.224 188.188 23.4375C188.417 23.6458 188.76 23.75 189.219 23.75ZM200.211 16.2031C200.581 16.2031 200.885 16.2292 201.125 16.2812L200.945 17.9922C200.685 17.9297 200.414 17.8984 200.133 17.8984C199.398 17.8984 198.802 18.138 198.344 18.6172C197.891 19.0964 197.664 19.7188 197.664 20.4844V25H195.828V16.3594H197.266L197.508 17.8828H197.602C197.888 17.3672 198.26 16.9583 198.719 16.6562C199.182 16.3542 199.68 16.2031 200.211 16.2031ZM205.648 25.1562C204.57 25.1562 203.729 24.7656 203.125 23.9844C202.521 23.2031 202.219 22.1068 202.219 20.6953C202.219 19.2786 202.523 18.1771 203.133 17.3906C203.747 16.599 204.596 16.2031 205.68 16.2031C206.815 16.2031 207.68 16.6224 208.273 17.4609H208.367C208.279 16.8411 208.234 16.3516 208.234 15.9922V12.8438H210.078V25H208.641L208.32 23.8672H208.234C207.646 24.7266 206.784 25.1562 205.648 25.1562ZM206.141 23.6719C206.896 23.6719 207.445 23.4609 207.789 23.0391C208.133 22.612 208.31 21.9219 208.32 20.9688V20.7109C208.32 19.6224 208.143 18.849 207.789 18.3906C207.435 17.9323 206.88 17.7031 206.125 17.7031C205.479 17.7031 204.982 17.9661 204.633 18.4922C204.284 19.013 204.109 19.7578 204.109 20.7266C204.109 21.6849 204.279 22.4167 204.617 22.9219C204.956 23.4219 205.464 23.6719 206.141 23.6719Z" fill="#88959E"/>
<path d="M38 10.5453C37.9975 10.1361 37.8333 9.74441 37.5433 9.45568C37.2532 9.16695 36.8608 9.00459 36.4515 9.00397H20.5509C20.1413 9.00648 19.7493 9.17101 19.4607 9.4616C19.172 9.7522 19.0101 10.1452 19.0103 10.5548L19 16.3665C19.0211 19.0789 19.9612 21.7041 21.6668 23.8134C23.3724 25.9226 25.7427 27.3912 28.3908 27.9794C28.4413 27.9896 28.4928 27.9946 28.5443 27.9945C28.5975 27.9943 28.6506 27.9887 28.7027 27.9778C31.3455 27.3665 33.7029 25.8771 35.3899 23.7529C37.0769 21.6287 37.9936 18.9952 37.9905 16.2826L38 10.5453ZM32.6855 16.5359L30.9122 17.9759C30.8787 18.0033 30.8551 18.0408 30.8449 18.0828C30.8348 18.1249 30.8387 18.1691 30.856 18.2087L31.8432 20.4784C31.8886 20.5885 31.8985 20.7101 31.8714 20.8261C31.8443 20.9421 31.7815 21.0467 31.692 21.1252C31.6024 21.2038 31.4905 21.2523 31.372 21.2641C31.2535 21.2759 31.1342 21.2503 31.031 21.1909L28.5974 19.8221C28.5678 19.8054 28.5344 19.7966 28.5004 19.7966C28.4664 19.7966 28.433 19.8054 28.4034 19.8221L25.9667 21.1909C25.8635 21.2505 25.7442 21.2763 25.6255 21.2646C25.5069 21.2529 25.3949 21.2043 25.3054 21.1257C25.2158 21.047 25.1532 20.9423 25.1262 20.8262C25.0993 20.7101 25.1094 20.5884 25.1552 20.4784L26.1416 18.2118C26.159 18.1722 26.1629 18.128 26.1527 18.086C26.1426 18.044 26.1189 18.0064 26.0854 17.9791L24.3153 16.5359C24.233 16.463 24.1754 16.3664 24.1502 16.2595C24.125 16.1525 24.1334 16.0404 24.1745 15.9384C24.2155 15.8365 24.287 15.7497 24.3792 15.69C24.4715 15.6303 24.5799 15.6006 24.6897 15.6049H26.7338C26.773 15.605 26.8114 15.5933 26.844 15.5714C26.8765 15.5496 26.9019 15.5185 26.9167 15.4822L27.987 12.8697C28.0357 12.7751 28.1094 12.6958 28.2002 12.6404C28.291 12.585 28.3952 12.5557 28.5016 12.5557C28.6079 12.5557 28.7122 12.585 28.803 12.6404C28.8938 12.6958 28.9675 12.7751 29.0162 12.8697L30.0833 15.4822C30.0984 15.5185 30.1239 15.5496 30.1565 15.5714C30.1892 15.5932 30.2277 15.6049 30.267 15.6049H32.3111C32.4207 15.601 32.5288 15.631 32.6208 15.6908C32.7127 15.7506 32.784 15.8373 32.8249 15.939C32.8658 16.0408 32.8744 16.1527 32.8495 16.2595C32.8245 16.3663 32.7673 16.4628 32.6855 16.5359Z" fill="#88959E"/>
</svg>
