<svg width="238" height="152" viewBox="0 0 238 152" fill="none" xmlns="http://www.w3.org/2000/svg">
    <rect x="4" width="230" height="80" fill="#3598DB"/>
    <g filter="url(#filter0_d)">
        <rect x="4" y="80" width="230" height="50" fill="white"/>
    </g>
    <path d="M22.0781 104H24.1768L25.4961 98.8184H25.5371L26.8633 104H28.9893L30.9307 96.6719H28.9619L27.8477 102.106H27.8066L26.501 96.6719H24.5869L23.2881 102.106H23.2471L22.1396 96.6719H20.1299L22.0781 104ZM34.9365 104.15C37.0283 104.15 38.04 102.913 38.2656 101.833L38.2861 101.758H36.4541L36.4404 101.799C36.2969 102.209 35.7979 102.66 34.9775 102.66C33.959 102.66 33.3232 101.977 33.3027 100.808H38.3477V100.192C38.3477 97.9775 37.001 96.5215 34.8545 96.5215C32.708 96.5215 31.334 98.0117 31.334 100.343V100.35C31.334 102.694 32.6943 104.15 34.9365 104.15ZM34.8887 98.0117C35.7158 98.0117 36.3105 98.5381 36.4336 99.5498H33.3232C33.4531 98.5586 34.0684 98.0117 34.8887 98.0117ZM43.7207 104.15C45.5664 104.15 46.708 102.715 46.708 100.336V100.329C46.708 97.9434 45.5664 96.5215 43.7275 96.5215C42.6816 96.5215 41.8682 97.0547 41.4648 97.9434H41.4238V94.1357H39.4277V104H41.4238V102.749H41.4648C41.8613 103.617 42.668 104.15 43.7207 104.15ZM43.0576 102.496C42.0869 102.496 41.4238 101.662 41.4238 100.336V100.329C41.4238 99.0098 42.0938 98.1758 43.0576 98.1758C44.0488 98.1758 44.6777 98.9893 44.6777 100.329V100.336C44.6777 101.669 44.0488 102.496 43.0576 102.496ZM50.748 104.15C52.6348 104.15 53.9541 103.207 53.9541 101.771V101.765C53.9541 100.685 53.3252 100.083 51.7939 99.7617L50.5498 99.4951C49.8115 99.3379 49.5586 99.0918 49.5586 98.7158V98.709C49.5586 98.2373 49.9893 97.9297 50.6797 97.9297C51.418 97.9297 51.8486 98.3262 51.917 98.8525L51.9238 98.9072H53.7627V98.8389C53.7148 97.5537 52.6279 96.5215 50.6797 96.5215C48.8135 96.5215 47.6104 97.4238 47.6104 98.8184V98.8252C47.6104 99.9189 48.3281 100.63 49.75 100.931L50.9941 101.19C51.7119 101.348 51.958 101.573 51.958 101.963V101.97C51.958 102.441 51.5 102.735 50.748 102.735C49.9482 102.735 49.5176 102.4 49.3877 101.826L49.374 101.765H47.4258L47.4326 101.826C47.5898 103.214 48.7178 104.15 50.748 104.15ZM55.9775 95.7285C56.5791 95.7285 57.0439 95.2568 57.0439 94.6895C57.0439 94.1221 56.5791 93.6504 55.9775 93.6504C55.376 93.6504 54.9111 94.1221 54.9111 94.6895C54.9111 95.2568 55.376 95.7285 55.9775 95.7285ZM54.9795 104H56.9756V96.6719H54.9795V104ZM61.2275 104.15C61.6445 104.15 61.9658 104.109 62.1914 104.075V102.612C62.0684 102.626 61.9385 102.646 61.7607 102.646C61.1592 102.646 60.8516 102.414 60.8516 101.73V98.1758H62.1914V96.6719H60.8516V94.8809H58.835V96.6719H57.8164V98.1758H58.835V101.949C58.835 103.521 59.6006 104.15 61.2275 104.15ZM66.5186 104.15C68.6104 104.15 69.6221 102.913 69.8477 101.833L69.8682 101.758H68.0361L68.0225 101.799C67.8789 102.209 67.3799 102.66 66.5596 102.66C65.541 102.66 64.9053 101.977 64.8848 100.808H69.9297V100.192C69.9297 97.9775 68.583 96.5215 66.4365 96.5215C64.29 96.5215 62.916 98.0117 62.916 100.343V100.35C62.916 102.694 64.2764 104.15 66.5186 104.15ZM66.4707 98.0117C67.2979 98.0117 67.8926 98.5381 68.0156 99.5498H64.9053C65.0352 98.5586 65.6504 98.0117 66.4707 98.0117ZM72.001 104.116C72.6162 104.116 73.1084 103.624 73.1084 103.009C73.1084 102.387 72.6162 101.901 72.001 101.901C71.3789 101.901 70.8936 102.387 70.8936 103.009C70.8936 103.624 71.3789 104.116 72.001 104.116ZM77.374 104.15C79.3291 104.15 80.5938 102.934 80.6895 101.334V101.293H78.8301L78.8232 101.354C78.6865 102.093 78.1875 102.585 77.3877 102.585C76.4033 102.585 75.7881 101.771 75.7881 100.336V100.329C75.7881 98.9277 76.4033 98.0869 77.3809 98.0869C78.208 98.0869 78.6934 98.6201 78.8164 99.3174L78.8301 99.3789H80.6826V99.3311C80.6074 97.7451 79.3428 96.5215 77.3535 96.5215C75.1592 96.5215 73.7578 97.9775 73.7578 100.322V100.329C73.7578 102.694 75.1387 104.15 77.374 104.15ZM85.0166 104.15C87.2314 104.15 88.6465 102.729 88.6465 100.336V100.322C88.6465 97.9502 87.2041 96.5215 85.0098 96.5215C82.8223 96.5215 81.3867 97.9639 81.3867 100.322V100.336C81.3867 102.722 82.7881 104.15 85.0166 104.15ZM85.0234 102.585C84.0391 102.585 83.417 101.771 83.417 100.336V100.322C83.417 98.9072 84.0459 98.0869 85.0098 98.0869C85.9805 98.0869 86.6162 98.9072 86.6162 100.322V100.336C86.6162 101.765 85.9941 102.585 85.0234 102.585ZM89.6787 104H91.6748V99.5771C91.6748 98.75 92.1875 98.1758 92.9463 98.1758C93.6846 98.1758 94.1289 98.6406 94.1289 99.4268V104H96.0498V99.543C96.0498 98.7295 96.5488 98.1758 97.3076 98.1758C98.0801 98.1758 98.5039 98.6406 98.5039 99.4883V104H100.5V98.9893C100.5 97.5127 99.5361 96.5215 98.1006 96.5215C97.0273 96.5215 96.1523 97.1094 95.8242 98.0322H95.7832C95.5371 97.0684 94.792 96.5215 93.7666 96.5215C92.7822 96.5215 92.0166 97.0684 91.7158 97.9023H91.6748V96.6719H89.6787V104ZM20.7148 120H21.7344V111.545H20.7148V120ZM24.8926 120.117C25.707 120.117 26.4395 119.678 26.7969 119.01H26.8203V120H27.8398V115.787C27.8398 114.568 26.9375 113.789 25.4961 113.789C24.0605 113.789 23.1875 114.598 23.0996 115.6L23.0938 115.664H24.0781L24.0898 115.611C24.207 115.066 24.6992 114.691 25.4844 114.691C26.334 114.691 26.8203 115.143 26.8203 115.887V116.396L25.0742 116.496C23.6738 116.578 22.8652 117.229 22.8652 118.266V118.277C22.8652 119.385 23.6797 120.117 24.8926 120.117ZM23.9082 118.277V118.266C23.9082 117.697 24.377 117.334 25.1914 117.287L26.8203 117.188V117.686C26.8203 118.57 26.082 119.232 25.1211 119.232C24.3887 119.232 23.9082 118.863 23.9082 118.277ZM31.2969 120.117C32.6562 120.117 33.6641 119.367 33.6641 118.301V118.295C33.6641 117.428 33.2188 116.941 31.9883 116.643L31.0215 116.408C30.3477 116.244 30.0723 115.957 30.0723 115.541V115.535C30.0723 114.996 30.5293 114.639 31.2676 114.639C32.0234 114.639 32.4746 115.031 32.5566 115.623L32.5625 115.664H33.5352L33.5293 115.588C33.4531 114.568 32.6035 113.789 31.2676 113.789C29.9492 113.789 29.0293 114.533 29.0293 115.582V115.588C29.0293 116.467 29.5859 117 30.7344 117.275L31.7012 117.51C32.3926 117.68 32.6211 117.926 32.6211 118.365V118.371C32.6211 118.922 32.1289 119.268 31.3027 119.268C30.4707 119.268 30.0195 118.91 29.8965 118.301L29.8848 118.242H28.8652L28.8711 118.295C28.9941 119.385 29.8613 120.117 31.2969 120.117ZM36.7051 120.117C36.9043 120.117 37.1211 120.094 37.25 120.076V119.25C37.1621 119.256 37.0449 119.273 36.9219 119.273C36.377 119.273 36.0898 119.092 36.0898 118.441V114.75H37.25V113.906H36.0898V112.26H35.0352V113.906H34.1445V114.75H35.0352V118.447C35.0352 119.613 35.5859 120.117 36.7051 120.117ZM38.3457 122.051H39.3652V118.98H39.3887C39.7695 119.684 40.4785 120.117 41.3398 120.117C42.8691 120.117 43.9121 118.881 43.9121 116.959V116.953C43.9121 115.031 42.8809 113.789 41.3223 113.789C40.4492 113.789 39.7695 114.229 39.3887 114.938H39.3652V113.906H38.3457V122.051ZM41.123 119.215C40.0977 119.215 39.3594 118.318 39.3594 116.959V116.953C39.3594 115.588 40.0918 114.691 41.123 114.691C42.2012 114.691 42.8691 115.553 42.8691 116.953V116.959C42.8691 118.348 42.2012 119.215 41.123 119.215ZM46.7246 120.117C47.5391 120.117 48.2715 119.678 48.6289 119.01H48.6523V120H49.6719V115.787C49.6719 114.568 48.7695 113.789 47.3281 113.789C45.8926 113.789 45.0195 114.598 44.9316 115.6L44.9258 115.664H45.9102L45.9219 115.611C46.0391 115.066 46.5312 114.691 47.3164 114.691C48.166 114.691 48.6523 115.143 48.6523 115.887V116.396L46.9062 116.496C45.5059 116.578 44.6973 117.229 44.6973 118.266V118.277C44.6973 119.385 45.5117 120.117 46.7246 120.117ZM45.7402 118.277V118.266C45.7402 117.697 46.209 117.334 47.0234 117.287L48.6523 117.188V117.686C48.6523 118.57 47.9141 119.232 46.9531 119.232C46.2207 119.232 45.7402 118.863 45.7402 118.277ZM53.1289 120.117C54.4883 120.117 55.4961 119.367 55.4961 118.301V118.295C55.4961 117.428 55.0508 116.941 53.8203 116.643L52.8535 116.408C52.1797 116.244 51.9043 115.957 51.9043 115.541V115.535C51.9043 114.996 52.3613 114.639 53.0996 114.639C53.8555 114.639 54.3066 115.031 54.3887 115.623L54.3945 115.664H55.3672L55.3613 115.588C55.2852 114.568 54.4355 113.789 53.0996 113.789C51.7812 113.789 50.8613 114.533 50.8613 115.582V115.588C50.8613 116.467 51.418 117 52.5664 117.275L53.5332 117.51C54.2246 117.68 54.4531 117.926 54.4531 118.365V118.371C54.4531 118.922 53.9609 119.268 53.1348 119.268C52.3027 119.268 51.8516 118.91 51.7285 118.301L51.7168 118.242H50.6973L50.7031 118.295C50.8262 119.385 51.6934 120.117 53.1289 120.117ZM58.7188 120.117C60.0781 120.117 61.0859 119.367 61.0859 118.301V118.295C61.0859 117.428 60.6406 116.941 59.4102 116.643L58.4434 116.408C57.7695 116.244 57.4941 115.957 57.4941 115.541V115.535C57.4941 114.996 57.9512 114.639 58.6895 114.639C59.4453 114.639 59.8965 115.031 59.9785 115.623L59.9844 115.664H60.957L60.9512 115.588C60.875 114.568 60.0254 113.789 58.6895 113.789C57.3711 113.789 56.4512 114.533 56.4512 115.582V115.588C56.4512 116.467 57.0078 117 58.1562 117.275L59.123 117.51C59.8145 117.68 60.043 117.926 60.043 118.365V118.371C60.043 118.922 59.5508 119.268 58.7246 119.268C57.8926 119.268 57.4414 118.91 57.3184 118.301L57.3066 118.242H56.2871L56.293 118.295C56.416 119.385 57.2832 120.117 58.7188 120.117ZM64.2266 120.117C65.1523 120.117 65.7734 119.701 66.1016 119.133H66.125V120H67.1445V113.906H66.125V117.492C66.125 118.529 65.498 119.215 64.5371 119.215C63.5996 119.215 63.1367 118.67 63.1367 117.68V113.906H62.1172V117.861C62.1172 119.25 62.8906 120.117 64.2266 120.117ZM70.6367 120.117C71.9961 120.117 73.0039 119.367 73.0039 118.301V118.295C73.0039 117.428 72.5586 116.941 71.3281 116.643L70.3613 116.408C69.6875 116.244 69.4121 115.957 69.4121 115.541V115.535C69.4121 114.996 69.8691 114.639 70.6074 114.639C71.3633 114.639 71.8145 115.031 71.8965 115.623L71.9023 115.664H72.875L72.8691 115.588C72.793 114.568 71.9434 113.789 70.6074 113.789C69.2891 113.789 68.3691 114.533 68.3691 115.582V115.588C68.3691 116.467 68.9258 117 70.0742 117.275L71.041 117.51C71.7324 117.68 71.9609 117.926 71.9609 118.365V118.371C71.9609 118.922 71.4688 119.268 70.6426 119.268C69.8105 119.268 69.3594 118.91 69.2363 118.301L69.2246 118.242H68.2051L68.2109 118.295C68.334 119.385 69.2012 120.117 70.6367 120.117ZM76.5723 120.117C77.9023 120.117 78.8984 119.32 79.0977 118.312L79.1094 118.254H78.1074L78.0898 118.307C77.9141 118.828 77.3691 119.215 76.5957 119.215C75.5117 119.215 74.8203 118.482 74.7969 117.229H79.1855V116.854C79.1855 115.025 78.1719 113.789 76.5078 113.789C74.8438 113.789 73.7656 115.084 73.7656 116.971V116.977C73.7656 118.893 74.8203 120.117 76.5723 120.117ZM76.502 114.691C77.3926 114.691 78.0488 115.248 78.1484 116.432H74.8145C74.9258 115.295 75.6172 114.691 76.502 114.691ZM80.2168 120H81.2363V116.191C81.2363 115.33 81.752 114.762 82.543 114.762C82.7891 114.762 83.0059 114.791 83.0879 114.82V113.83C83.0059 113.818 82.8535 113.789 82.6777 113.789C81.9629 113.789 81.4004 114.217 81.2012 114.891H81.1777V113.906H80.2168V120ZM88.7715 121.377C89.5273 121.377 90.2363 121.271 90.752 121.09V120.293C90.3711 120.463 89.5684 120.574 88.7832 120.574C86.4629 120.574 84.7227 119.133 84.7227 116.502V116.496C84.7227 114.088 86.3516 112.395 88.6016 112.395C90.916 112.395 92.4922 113.812 92.4922 116.08V116.086C92.4922 117.516 92.0703 118.236 91.4551 118.236C90.9922 118.236 90.6758 117.844 90.6758 117.035V114.182H89.791V114.896H89.7441C89.5215 114.398 88.9531 114.07 88.3262 114.07C87.125 114.07 86.2871 115.061 86.2871 116.496V116.502C86.2871 117.984 87.1074 118.98 88.3262 118.98C89.0762 118.98 89.6797 118.635 89.9551 117.926H90.0078L90.0254 117.979C90.2188 118.564 90.7051 119.033 91.4434 119.033C92.5332 119.033 93.377 118.02 93.377 116.08V116.074C93.377 113.32 91.3965 111.598 88.6777 111.598C85.8301 111.598 83.8379 113.59 83.8379 116.49V116.496C83.8379 119.643 85.918 121.377 88.7715 121.377ZM88.4609 118.154C87.6934 118.154 87.2246 117.533 87.2246 116.508V116.502C87.2246 115.482 87.6875 114.879 88.4727 114.879C89.2637 114.879 89.7793 115.506 89.7793 116.508V116.514C89.7793 117.516 89.2637 118.154 88.4609 118.154ZM96.9277 120.117C98.2578 120.117 99.2539 119.32 99.4531 118.312L99.4648 118.254H98.4629L98.4453 118.307C98.2695 118.828 97.7246 119.215 96.9512 119.215C95.8672 119.215 95.1758 118.482 95.1523 117.229H99.541V116.854C99.541 115.025 98.5273 113.789 96.8633 113.789C95.1992 113.789 94.1211 115.084 94.1211 116.971V116.977C94.1211 118.893 95.1758 120.117 96.9277 120.117ZM96.8574 114.691C97.748 114.691 98.4043 115.248 98.5039 116.432H95.1699C95.2812 115.295 95.9727 114.691 96.8574 114.691ZM100.572 120H101.592V116.18C101.592 115.33 102.178 114.691 102.986 114.691C103.742 114.691 104.234 115.178 104.234 115.916V120H105.254V116.127C105.254 115.295 105.822 114.691 106.631 114.691C107.434 114.691 107.896 115.189 107.896 116.027V120H108.916V115.793C108.916 114.58 108.137 113.789 106.93 113.789C106.074 113.789 105.359 114.229 105.02 114.961H104.996C104.732 114.217 104.117 113.789 103.285 113.789C102.5 113.789 101.891 114.193 101.615 114.797H101.592V113.906H100.572V120ZM111.998 120.117C112.812 120.117 113.545 119.678 113.902 119.01H113.926V120H114.945V115.787C114.945 114.568 114.043 113.789 112.602 113.789C111.166 113.789 110.293 114.598 110.205 115.6L110.199 115.664H111.184L111.195 115.611C111.312 115.066 111.805 114.691 112.59 114.691C113.439 114.691 113.926 115.143 113.926 115.887V116.396L112.18 116.496C110.779 116.578 109.971 117.229 109.971 118.266V118.277C109.971 119.385 110.785 120.117 111.998 120.117ZM111.014 118.277V118.266C111.014 117.697 111.482 117.334 112.297 117.287L113.926 117.188V117.686C113.926 118.57 113.188 119.232 112.227 119.232C111.494 119.232 111.014 118.863 111.014 118.277ZM116.814 112.875C117.172 112.875 117.453 112.588 117.453 112.236C117.453 111.879 117.172 111.598 116.814 111.598C116.463 111.598 116.176 111.879 116.176 112.236C116.176 112.588 116.463 112.875 116.814 112.875ZM116.305 120H117.324V113.906H116.305V120ZM118.766 120H119.785V111.545H118.766V120ZM121.789 120.082C122.164 120.082 122.457 119.789 122.457 119.414C122.457 119.039 122.164 118.746 121.789 118.746C121.414 118.746 121.121 119.039 121.121 119.414C121.121 119.789 121.414 120.082 121.789 120.082ZM125.914 120.117C127.291 120.117 128.293 119.221 128.457 118.061L128.463 118.02H127.461L127.449 118.066C127.279 118.746 126.746 119.215 125.914 119.215C124.859 119.215 124.133 118.377 124.133 116.959V116.953C124.133 115.57 124.842 114.691 125.902 114.691C126.799 114.691 127.291 115.23 127.443 115.84L127.455 115.887H128.451L128.445 115.84C128.316 114.797 127.42 113.789 125.902 113.789C124.209 113.789 123.09 115.02 123.09 116.941V116.947C123.09 118.887 124.186 120.117 125.914 120.117ZM131.926 120.117C133.607 120.117 134.744 118.898 134.744 116.953V116.941C134.744 114.996 133.602 113.789 131.92 113.789C130.238 113.789 129.102 115.002 129.102 116.941V116.953C129.102 118.893 130.232 120.117 131.926 120.117ZM131.932 119.215C130.854 119.215 130.145 118.389 130.145 116.953V116.941C130.145 115.518 130.859 114.691 131.92 114.691C132.998 114.691 133.701 115.512 133.701 116.941V116.953C133.701 118.383 133.004 119.215 131.932 119.215ZM135.775 120H136.795V116.18C136.795 115.33 137.381 114.691 138.189 114.691C138.945 114.691 139.438 115.178 139.438 115.916V120H140.457V116.127C140.457 115.295 141.025 114.691 141.834 114.691C142.637 114.691 143.1 115.189 143.1 116.027V120H144.119V115.793C144.119 114.58 143.34 113.789 142.133 113.789C141.277 113.789 140.562 114.229 140.223 114.961H140.199C139.936 114.217 139.32 113.789 138.488 113.789C137.703 113.789 137.094 114.193 136.818 114.797H136.795V113.906H135.775V120Z" fill="#526278"/>
    <path d="M134 36H132.5V30.5C132.5 26.9196 131.078 23.4858 128.546 20.9541C126.014 18.4223 122.58 17 119 17C115.42 17 111.986 18.4223 109.454 20.9541C106.922 23.4858 105.5 26.9196 105.5 30.5V36H104C102.939 36 101.922 36.4214 101.172 37.1716C100.421 37.9217 100 38.9391 100 40V61C100 62.0609 100.421 63.0783 101.172 63.8284C101.922 64.5786 102.939 65 104 65H134C135.061 65 136.078 64.5786 136.828 63.8284C137.579 63.0783 138 62.0609 138 61V40C138 38.9391 137.579 37.9217 136.828 37.1716C136.078 36.4214 135.061 36 134 36ZM119 54C118.209 54 117.436 53.7654 116.778 53.3259C116.12 52.8864 115.607 52.2616 115.304 51.5307C115.002 50.7998 114.923 49.9956 115.077 49.2196C115.231 48.4437 115.612 47.731 116.172 47.1716C116.731 46.6122 117.444 46.2312 118.22 46.0769C118.996 45.9225 119.8 46.0017 120.531 46.3045C121.262 46.6072 121.886 47.1199 122.326 47.7777C122.765 48.4355 123 49.2089 123 50C123 51.0609 122.579 52.0783 121.828 52.8284C121.078 53.5786 120.061 54 119 54ZM127.5 35C127.5 35.2652 127.395 35.5196 127.207 35.7071C127.02 35.8946 126.765 36 126.5 36H111.5C111.235 36 110.98 35.8946 110.793 35.7071C110.605 35.5196 110.5 35.2652 110.5 35V30.5C110.5 28.2457 111.396 26.0837 112.99 24.4896C114.584 22.8955 116.746 22 119 22C121.254 22 123.416 22.8955 125.01 24.4896C126.604 26.0837 127.5 28.2457 127.5 30.5V35Z" fill="white"/>
    <rect opacity="0.7" x="4" width="230" height="80" fill="#2C405A"/>
    <rect opacity="0.8" x="23.5" y="18.5" width="191" height="45" rx="3.5" fill="#526278" stroke="white"/>
    <path d="M97.957 46H103.945V44.8926H99.1875V36.1357H97.957V46ZM107.192 46.1367C108.143 46.1367 108.997 45.624 109.414 44.8447H109.441V46H110.631V41.085C110.631 39.6631 109.578 38.7539 107.896 38.7539C106.222 38.7539 105.203 39.6973 105.101 40.8662L105.094 40.9414H106.242L106.256 40.8799C106.393 40.2441 106.967 39.8066 107.883 39.8066C108.874 39.8066 109.441 40.333 109.441 41.2012V41.7959L107.404 41.9121C105.771 42.0078 104.827 42.7666 104.827 43.9766V43.9902C104.827 45.2822 105.777 46.1367 107.192 46.1367ZM106.044 43.9902V43.9766C106.044 43.3135 106.591 42.8896 107.541 42.835L109.441 42.7188V43.2998C109.441 44.332 108.58 45.1045 107.459 45.1045C106.604 45.1045 106.044 44.6738 106.044 43.9902ZM114.568 46.1367C115.648 46.1367 116.373 45.6514 116.756 44.9883H116.783V46H117.973V38.8906H116.783V43.0742C116.783 44.2842 116.052 45.084 114.931 45.084C113.837 45.084 113.297 44.4482 113.297 43.293V38.8906H112.107V43.5049C112.107 45.125 113.01 46.1367 114.568 46.1367ZM119.524 46H120.714V41.8164C120.714 40.6064 121.445 39.8066 122.566 39.8066C123.66 39.8066 124.2 40.4424 124.2 41.5977V46H125.39V41.3857C125.39 39.7656 124.487 38.7539 122.929 38.7539C121.849 38.7539 121.124 39.2393 120.741 39.9023H120.714V38.8906H119.524V46ZM129.854 46.1367C131.46 46.1367 132.629 45.0908 132.82 43.7373L132.827 43.6895H131.658L131.645 43.7441C131.446 44.5371 130.824 45.084 129.854 45.084C128.623 45.084 127.775 44.1064 127.775 42.4521V42.4453C127.775 40.832 128.603 39.8066 129.84 39.8066C130.886 39.8066 131.46 40.4355 131.638 41.1465L131.651 41.2012H132.813L132.807 41.1465C132.656 39.9297 131.61 38.7539 129.84 38.7539C127.864 38.7539 126.559 40.1895 126.559 42.4316V42.4385C126.559 44.7012 127.837 46.1367 129.854 46.1367ZM133.982 46H135.172V41.8506C135.172 40.6406 135.903 39.8066 137.004 39.8066C138.111 39.8066 138.768 40.5654 138.768 41.8506V46H139.957V41.6455C139.957 39.9229 138.925 38.7539 137.414 38.7539C136.354 38.7539 135.582 39.2256 135.199 40.0254H135.172V36.1357H133.982V46Z" fill="white"/>
    <rect x="192.5" y="94.5" width="25" height="25" rx="1.5" fill="#EDEFF1" stroke="#DCDFE4"/>
    <path fill-rule="evenodd" clip-rule="evenodd" d="M204.778 107.258C205.708 106.585 206.333 105.328 206.333 103.889C206.333 101.741 204.94 100 203.222 100C201.504 100 200.111 101.741 200.111 103.889C200.111 105.335 200.742 106.596 201.679 107.266L201.667 107.778C197 108.556 197 112.444 197 112.444H203.222H209.444C209.444 112.444 209.444 108.556 204.778 107.778V107.258Z" fill="#41536B"/>
    <mask id="path-10-outside-1" maskUnits="userSpaceOnUse" x="199.111" y="100.556" width="14" height="14" fill="black">
        <rect fill="white" x="199.111" y="100.556" width="14" height="14"/>
        <path fill-rule="evenodd" clip-rule="evenodd" d="M207.889 108.813C208.819 108.141 209.444 106.884 209.444 105.444C209.444 103.297 208.052 101.556 206.333 101.556C204.615 101.556 203.222 103.297 203.222 105.444C203.222 106.89 203.853 108.152 204.79 108.822L204.778 109.333C200.111 110.111 200.111 114 200.111 114H206.333H212.556C212.556 114 212.556 110.111 207.889 109.333V108.813Z"/>
    </mask>
    <path fill-rule="evenodd" clip-rule="evenodd" d="M207.889 108.813C208.819 108.141 209.444 106.884 209.444 105.444C209.444 103.297 208.052 101.556 206.333 101.556C204.615 101.556 203.222 103.297 203.222 105.444C203.222 106.89 203.853 108.152 204.79 108.822L204.778 109.333C200.111 110.111 200.111 114 200.111 114H206.333H212.556C212.556 114 212.556 110.111 207.889 109.333V108.813Z" fill="#41536B"/>
    <path d="M207.889 108.813L207.596 108.408L207.389 108.558V108.813H207.889ZM204.79 108.822L205.29 108.834L205.296 108.569L205.081 108.415L204.79 108.822ZM204.778 109.333L204.86 109.827L205.268 109.759L205.278 109.345L204.778 109.333ZM200.111 114H199.611V114.5H200.111V114ZM212.556 114V114.5H213.056V114H212.556ZM207.889 109.333H207.389V109.757L207.807 109.827L207.889 109.333ZM208.944 105.444C208.944 106.748 208.377 107.843 207.596 108.408L208.182 109.218C209.26 108.438 209.944 107.02 209.944 105.444H208.944ZM206.333 102.056C207.677 102.056 208.944 103.463 208.944 105.444H209.944C209.944 103.13 208.426 101.056 206.333 101.056V102.056ZM203.722 105.444C203.722 103.463 204.99 102.056 206.333 102.056V101.056C204.241 101.056 202.722 103.13 202.722 105.444H203.722ZM205.081 108.415C204.294 107.852 203.722 106.754 203.722 105.444H202.722C202.722 107.027 203.412 108.451 204.499 109.228L205.081 108.415ZM205.278 109.345L205.29 108.834L204.29 108.81L204.278 109.321L205.278 109.345ZM200.111 114C200.611 114 200.611 114 200.611 114.001C200.611 114.001 200.611 114.001 200.611 114.001C200.611 114.001 200.611 114.001 200.611 114.002C200.611 114.002 200.611 114.002 200.611 114.002C200.611 114.002 200.611 114 200.611 113.998C200.611 113.994 200.611 113.987 200.612 113.976C200.613 113.954 200.615 113.92 200.618 113.873C200.626 113.781 200.642 113.644 200.675 113.475C200.74 113.136 200.872 112.677 201.133 112.198C201.646 111.259 202.683 110.189 204.86 109.827L204.696 108.84C202.205 109.255 200.91 110.519 200.255 111.719C199.934 112.309 199.773 112.87 199.693 113.285C199.653 113.493 199.632 113.666 199.622 113.789C199.617 113.851 199.614 113.901 199.613 113.936C199.612 113.954 199.612 113.968 199.611 113.979C199.611 113.985 199.611 113.989 199.611 113.992C199.611 113.994 199.611 113.996 199.611 113.997C199.611 113.998 199.611 113.998 199.611 113.999C199.611 113.999 199.611 113.999 199.611 113.999C199.611 114 199.611 114 200.111 114ZM206.333 113.5H200.111V114.5H206.333V113.5ZM212.556 113.5H206.333V114.5H212.556V113.5ZM207.807 109.827C209.983 110.189 211.021 111.259 211.533 112.198C211.795 112.677 211.926 113.136 211.992 113.475C212.024 113.644 212.04 113.781 212.048 113.873C212.052 113.92 212.054 113.954 212.055 113.976C212.055 113.987 212.055 113.994 212.055 113.998C212.056 114 212.056 114.002 212.056 114.002C212.056 114.002 212.056 114.002 212.056 114.002C212.056 114.001 212.056 114.001 212.056 114.001C212.056 114.001 212.056 114.001 212.056 114.001C212.056 114 212.056 114 212.556 114C213.056 114 213.056 114 213.056 113.999C213.056 113.999 213.056 113.999 213.056 113.999C213.056 113.998 213.056 113.998 213.056 113.997C213.056 113.996 213.056 113.994 213.055 113.992C213.055 113.989 213.055 113.985 213.055 113.979C213.055 113.968 213.055 113.954 213.054 113.936C213.053 113.901 213.05 113.851 213.045 113.789C213.034 113.666 213.014 113.493 212.974 113.285C212.893 112.87 212.733 112.309 212.411 111.719C211.757 110.519 210.461 109.255 207.971 108.84L207.807 109.827ZM207.389 108.813V109.333H208.389V108.813H207.389Z" fill="#EDEFF1" mask="url(#path-10-outside-1)"/>
    <path d="M201.313 150.494L193.613 140.23C193.232 139.722 193.019 139.11 193.001 138.476C192.984 137.842 193.163 137.218 193.515 136.69C193.746 136.343 194.046 136.048 194.395 135.821C194.745 135.594 195.137 135.44 195.548 135.37C195.959 135.3 196.379 135.314 196.785 135.411C197.19 135.509 197.571 135.688 197.905 135.938L201.305 138.494V119C201.305 118.204 201.621 117.441 202.183 116.879C202.746 116.316 203.509 116 204.305 116C205.1 116 205.863 116.316 206.426 116.879C206.988 117.441 207.305 118.204 207.305 119V131L215.653 132.856C217.076 133.172 218.336 133.997 219.197 135.175C220.057 136.352 220.458 137.803 220.326 139.256L219.305 150.5L201.313 150.494Z" fill="white" stroke="#264887" stroke-width="3" stroke-linecap="round" stroke-linejoin="round"/>
    <defs>
        <filter id="filter0_d" x="0" y="77" width="238" height="58" filterUnits="userSpaceOnUse" color-interpolation-filters="sRGB">
            <feFlood flood-opacity="0" result="BackgroundImageFix"/>
            <feColorMatrix in="SourceAlpha" type="matrix" values="0 0 0 0 0 0 0 0 0 0 0 0 0 0 0 0 0 0 127 0"/>
            <feOffset dy="1"/>
            <feGaussianBlur stdDeviation="2"/>
            <feColorMatrix type="matrix" values="0 0 0 0 0 0 0 0 0 0 0 0 0 0 0 0 0 0 0.25 0"/>
            <feBlend mode="normal" in2="BackgroundImageFix" result="effect1_dropShadow"/>
            <feBlend mode="normal" in="SourceGraphic" in2="effect1_dropShadow" result="shape"/>
        </filter>
    </defs>
</svg>
