<svg width="60" height="40" viewBox="0 0 60 40" fill="none" xmlns="http://www.w3.org/2000/svg">
<path d="M10.5771 3.99976L8.47691 5.35596L9.8602 7.48319L11.9604 6.12699L10.5771 3.99976Z" stroke="#B5D9F1" stroke-linecap="round" stroke-linejoin="round"/>
<path d="M1.26671 10.7168L4.57449 11.4489L1.26671 10.7168Z" fill="#B5D9F1"/>
<path d="M1.26671 10.7168L4.57449 11.4489" stroke="#B5D9F1" stroke-linecap="round"/>
<path d="M3.18999 9.47487L2.50924 12.7827L3.18999 9.47487Z" fill="#B5D9F1"/>
<path d="M3.18999 9.47487L2.50924 12.7827" stroke="#B5D9F1" stroke-linecap="round"/>
<path d="M55.6179 32.7617L53.7618 31.0869L52.0943 32.9358L53.9504 34.6106L55.6179 32.7617Z" stroke="#B5D9F1" stroke-linecap="round" stroke-linejoin="round"/>
<path d="M44.6789 24.309C44.6826 24.6355 44.5567 24.9502 44.3286 25.1839C44.1006 25.4176 43.7891 25.5513 43.4626 25.5555L24.5757 25.7978C24.2491 25.8015 23.9345 25.6756 23.7007 25.4475C23.467 25.2195 23.3334 24.908 23.3291 24.5815L23.142 10.0017C23.1382 9.67522 23.2642 9.36054 23.4923 9.12682C23.7203 8.89309 24.0318 8.75943 24.3583 8.75519L27.176 8.71951C27.5173 8.73411 27.8411 8.8741 28.0856 9.11266L29.5778 10.7366C29.8226 10.975 30.1465 11.1149 30.4878 11.1298L43.2765 10.9665C43.4385 10.9642 43.5994 10.994 43.7499 11.054C43.9005 11.1139 44.0377 11.203 44.1538 11.3161C44.2698 11.4292 44.3625 11.564 44.4264 11.7129C44.4903 11.8618 44.5243 12.0219 44.5263 12.1839L44.6789 24.309Z" fill="white"/>
<path d="M44.6446 12.4177C44.6475 12.0911 44.5207 11.7767 44.292 11.5435C44.0633 11.3104 43.7515 11.1774 43.4249 11.174L30.6358 11.0582C30.2936 11.0364 29.9715 10.8891 29.7313 10.6445L28.2764 8.98707C28.0372 8.74322 27.7165 8.5962 27.3756 8.57416L24.5578 8.54834C24.2313 8.54546 23.9169 8.67229 23.6838 8.90098C23.4507 9.12967 23.3179 9.44153 23.3146 9.76806L23.2919 12.2329C23.2952 11.9063 23.4281 11.5944 23.6613 11.3657C23.8945 11.137 24.209 11.0102 24.5356 11.0133L27.353 11.0386C27.6939 11.0608 28.0147 11.2078 28.2542 11.4515L29.7105 13.11C29.9498 13.3538 30.2707 13.5007 30.6117 13.5225L43.3995 13.6372C43.7261 13.6406 44.0379 13.7734 44.2666 14.0065C44.4953 14.2396 44.6221 14.5539 44.6192 14.8804L44.6446 12.4177Z" fill="#B5D9F1"/>
<path d="M44.5326 24.5433C44.5293 24.8699 44.3964 25.1817 44.1634 25.4104C43.9303 25.6391 43.6159 25.7659 43.2894 25.7631L24.4017 25.593C24.0752 25.5897 23.7633 25.4569 23.5346 25.2238C23.3059 24.9907 23.1791 24.6764 23.182 24.3498L23.3131 9.76952C23.3165 9.44299 23.4493 9.13113 23.6824 8.90244C23.9155 8.67375 24.2298 8.54692 24.5563 8.5498L27.3742 8.57562C27.715 8.59766 28.0357 8.74469 28.2749 8.98853L29.7314 10.6447C29.9709 10.8883 30.2917 11.0353 30.6326 11.0576L43.4217 11.1734C43.5838 11.1747 43.744 11.2079 43.8932 11.2712C44.0423 11.3345 44.1776 11.4265 44.2912 11.5421C44.4048 11.6577 44.4944 11.7945 44.5551 11.9448C44.6157 12.095 44.6462 12.2558 44.6447 12.4178L44.5326 24.5433Z" stroke="#264887" stroke-width="1.25" stroke-linecap="round" stroke-linejoin="round"/>
<path d="M50.7715 21.6505C50.4795 21.6496 50.1902 21.7068 49.9202 21.8186L39.8851 25.8961C39.4864 26.0575 39.0606 26.1406 38.6307 26.1407H37.6155C38.1985 26.1293 38.7539 25.8885 39.1622 25.47C39.5706 25.0514 39.7993 24.4886 39.7993 23.9023C39.7993 23.3161 39.5706 22.7532 39.1622 22.3347C38.7539 21.9161 38.1985 21.6753 37.6155 21.6639H33.3113C29.7254 21.6639 30.5641 17.7471 24.2562 17.7471H18.1331V30.0803C19.8695 29.9432 21.6156 30.1527 23.2711 30.6965L25.7381 31.5717C29.1345 32.7765 32.7998 32.9956 36.3143 32.2039C36.9431 32.156 51.0141 26.2088 51.6245 25.9541C52.1008 25.7561 52.4939 25.3982 52.737 24.9413C52.98 24.4844 53.0578 23.9569 52.9572 23.4488C52.8565 22.9407 52.5836 22.4835 52.185 22.155C51.7865 21.8266 51.2869 21.6474 50.7715 21.648V21.6505Z" fill="#B5D9F1"/>
<path d="M23.3163 20.1279C29.625 20.1279 28.7863 24.0447 32.3721 24.0447H36.6755C37.1776 24.0449 37.6649 24.2156 38.0585 24.529C38.4521 24.8424 38.7288 25.2802 38.844 25.7716C39.2428 25.5059 39.5459 25.1183 39.7084 24.666C39.871 24.2137 39.8844 23.7207 39.7466 23.2602C39.6087 22.7997 39.3271 22.396 38.9433 22.1089C38.5594 21.8219 38.0939 21.6667 37.6155 21.6664H33.3113C29.7254 21.6664 30.5641 17.7495 24.2554 17.7495H18.1331V20.1279H23.3163Z" fill="#DAECF8"/>
<path d="M52.9993 23.8878C52.9992 23.5198 52.9088 23.1576 52.7361 22.8331C52.5634 22.5087 52.3138 22.232 52.0094 22.0277C51.705 21.8233 51.3552 21.6976 50.991 21.6616C50.6267 21.6256 50.2592 21.6805 49.9211 21.8213L39.8859 25.8988C39.4873 26.0604 39.0614 26.1435 38.6315 26.1434H27.9433C27.9432 26.6953 28.1567 27.2256 28.5386 27.6221C28.9206 28.0186 29.4409 28.2502 29.9896 28.2679C39.712 28.5857 40.3108 28.1594 49.0087 24.2451C49.3004 24.1232 49.6147 24.0653 49.9305 24.0755C50.2462 24.0856 50.5562 24.1635 50.8395 24.304C51.1229 24.4444 51.3731 24.6442 51.5734 24.8898C51.7737 25.1354 51.9194 25.4212 52.0008 25.7281H52.0468C52.3411 25.521 52.5813 25.2455 52.7472 24.9252C52.913 24.6048 52.9995 24.2489 52.9993 23.8878Z" fill="#DAECF8"/>
<path d="M37.6155 26.1431H28.1524" stroke="#264887" stroke-width="1.25" stroke-miterlimit="10" stroke-linecap="round"/>
<path d="M50.7715 21.6505C50.4795 21.6496 50.1902 21.7068 49.9202 21.8186L39.8851 25.8961C39.4864 26.0575 39.0606 26.1406 38.6307 26.1407H37.6155C38.1985 26.1293 38.7539 25.8885 39.1622 25.47C39.5706 25.0514 39.7993 24.4886 39.7993 23.9023C39.7993 23.3161 39.5706 22.7532 39.1622 22.3347C38.7539 21.9161 38.1985 21.6753 37.6155 21.6639H33.3113C29.7254 21.6639 30.5641 17.7471 24.2562 17.7471H18.1331V30.0803C19.8695 29.9432 21.6156 30.1527 23.2711 30.6965L25.7381 31.5717C29.1345 32.7765 32.7998 32.9956 36.3143 32.2039C36.9431 32.156 51.0141 26.2088 51.6245 25.9541C52.1008 25.7561 52.4939 25.3982 52.737 24.9413C52.98 24.4844 53.0578 23.9569 52.9572 23.4488C52.8565 22.9407 52.5836 22.4835 52.185 22.155C51.7865 21.8266 51.2869 21.6474 50.7715 21.648V21.6505Z" stroke="#264887" stroke-width="1.25" stroke-linecap="round" stroke-linejoin="round"/>
<path d="M13.9569 14.9736H7.83626C7.37441 14.9736 7 15.35 7 15.8143V31.4809C7 31.9453 7.37441 32.3216 7.83626 32.3216H13.9569C14.4187 32.3216 14.7931 31.9453 14.7931 31.4809V15.8143C14.7931 15.35 14.4187 14.9736 13.9569 14.9736Z" fill="white" stroke="#264887" stroke-width="1.25" stroke-linecap="round" stroke-linejoin="round"/>
<path d="M14.7932 31.202H17.297C17.5187 31.202 17.7315 31.1134 17.8883 30.9558C18.0451 30.7981 18.1332 30.5843 18.1332 30.3613V16.9335C18.1332 16.7105 18.0451 16.4967 17.8883 16.339C17.7315 16.1814 17.5187 16.0928 17.297 16.0928H14.7932V31.202Z" fill="white" stroke="#264887" stroke-width="1.25" stroke-linecap="round" stroke-linejoin="round"/>
</svg>
