<svg width="60" height="40" viewBox="0 0 60 40" fill="none" xmlns="http://www.w3.org/2000/svg">
<path d="M10.5771 3.99976L8.47691 5.35596L9.8602 7.48319L11.9604 6.12699L10.5771 3.99976Z" stroke="#D7DBE0" stroke-linecap="round" stroke-linejoin="round"/>
<path d="M1.26671 10.7168L4.57449 11.4489L1.26671 10.7168Z" fill="#D7DBE0"/>
<path d="M1.26671 10.7168L4.57449 11.4489" stroke="#D7DBE0" stroke-linecap="round"/>
<path d="M3.18999 9.47487L2.50924 12.7827L3.18999 9.47487Z" fill="#D7DBE0"/>
<path d="M3.18999 9.47487L2.50924 12.7827" stroke="#D7DBE0" stroke-linecap="round"/>
<path d="M55.6179 32.7617L53.7618 31.0869L52.0943 32.9358L53.9504 34.6106L55.6179 32.7617Z" stroke="#D7DBE0" stroke-linecap="round" stroke-linejoin="round"/>
<path d="M44.6789 24.309C44.6826 24.6355 44.5567 24.9502 44.3286 25.1839C44.1006 25.4176 43.7891 25.5513 43.4626 25.5555L24.5757 25.7978C24.2491 25.8015 23.9345 25.6756 23.7007 25.4475C23.467 25.2195 23.3334 24.908 23.3291 24.5815L23.142 10.0017C23.1382 9.67522 23.2642 9.36054 23.4923 9.12682C23.7203 8.89309 24.0318 8.75943 24.3583 8.75519L27.176 8.71951C27.5173 8.73411 27.8411 8.8741 28.0856 9.11266L29.5778 10.7366C29.8226 10.975 30.1465 11.1149 30.4878 11.1298L43.2765 10.9665C43.4385 10.9642 43.5994 10.994 43.7499 11.054C43.9005 11.1139 44.0377 11.203 44.1538 11.3161C44.2698 11.4292 44.3625 11.564 44.4264 11.7129C44.4903 11.8618 44.5243 12.0219 44.5263 12.1839L44.6789 24.309Z" fill="white"/>
<path d="M44.5326 24.5433C44.5293 24.8699 44.3964 25.1817 44.1634 25.4104C43.9303 25.6391 43.6159 25.7659 43.2894 25.7631L24.4017 25.593C24.0752 25.5897 23.7633 25.4569 23.5346 25.2238C23.3059 24.9907 23.1791 24.6764 23.182 24.3498L23.3131 9.76952C23.3165 9.44299 23.4493 9.13113 23.6824 8.90244C23.9155 8.67375 24.2298 8.54692 24.5563 8.5498L27.3742 8.57562C27.715 8.59766 28.0357 8.74469 28.2749 8.98853L29.7314 10.6447C29.9709 10.8883 30.2917 11.0353 30.6326 11.0576L43.4217 11.1734C43.5838 11.1747 43.744 11.2079 43.8932 11.2712C44.0423 11.3345 44.1776 11.4265 44.2912 11.5421C44.4048 11.6577 44.4944 11.7945 44.5551 11.9448C44.6157 12.095 44.6462 12.2558 44.6447 12.4178L44.5326 24.5433Z" stroke="#D7DBE0" stroke-width="1.25" stroke-linecap="round" stroke-linejoin="round"/>
<path d="M50.7715 21.6505C50.4795 21.6496 50.1902 21.7068 49.9202 21.8186L39.8851 25.8961C39.4864 26.0575 39.0606 26.1406 38.6307 26.1407H37.6155C38.1985 26.1293 38.7539 25.8885 39.1622 25.47C39.5706 25.0514 39.7993 24.4886 39.7993 23.9023C39.7993 23.3161 39.5706 22.7532 39.1622 22.3347C38.7539 21.9161 38.1985 21.6753 37.6155 21.6639H33.3113C29.7254 21.6639 30.5641 17.7471 24.2562 17.7471H18.1331V30.0803C19.8695 29.9432 21.6156 30.1527 23.2711 30.6965L25.7381 31.5717C29.1345 32.7765 32.7998 32.9956 36.3143 32.2039C36.9431 32.156 51.0141 26.2088 51.6245 25.9541C52.1008 25.7561 52.4939 25.3982 52.737 24.9413C52.98 24.4844 53.0578 23.9569 52.9572 23.4488C52.8565 22.9407 52.5836 22.4835 52.185 22.155C51.7865 21.8266 51.2869 21.6474 50.7715 21.648V21.6505Z" fill="white"/>
<path d="M37.6155 26.1431H28.1524" stroke="#D7DBE0" stroke-width="1.25" stroke-miterlimit="10" stroke-linecap="round"/>
<path d="M50.7715 21.6505C50.4795 21.6496 50.1902 21.7068 49.9202 21.8186L39.8851 25.8961C39.4864 26.0575 39.0606 26.1406 38.6307 26.1407H37.6155C38.1985 26.1293 38.7539 25.8885 39.1622 25.47C39.5706 25.0514 39.7993 24.4886 39.7993 23.9023C39.7993 23.3161 39.5706 22.7532 39.1622 22.3347C38.7539 21.9161 38.1985 21.6753 37.6155 21.6639H33.3113C29.7254 21.6639 30.5641 17.7471 24.2562 17.7471H18.1331V30.0803C19.8695 29.9432 21.6156 30.1527 23.2711 30.6965L25.7381 31.5717C29.1345 32.7765 32.7998 32.9956 36.3143 32.2039C36.9431 32.156 51.0141 26.2088 51.6245 25.9541C52.1008 25.7561 52.4939 25.3982 52.737 24.9413C52.98 24.4844 53.0578 23.9569 52.9572 23.4488C52.8565 22.9407 52.5836 22.4835 52.185 22.155C51.7865 21.8266 51.2869 21.6474 50.7715 21.648V21.6505Z" stroke="#D7DBE0" stroke-width="1.25" stroke-linecap="round" stroke-linejoin="round"/>
<path d="M13.9569 14.9736H7.83626C7.37441 14.9736 7 15.35 7 15.8143V31.4809C7 31.9453 7.37441 32.3216 7.83626 32.3216H13.9569C14.4187 32.3216 14.7931 31.9453 14.7931 31.4809V15.8143C14.7931 15.35 14.4187 14.9736 13.9569 14.9736Z" fill="white" stroke="#D7DBE0" stroke-width="1.25" stroke-linecap="round" stroke-linejoin="round"/>
<path d="M14.7932 31.202H17.297C17.5187 31.202 17.7315 31.1134 17.8883 30.9558C18.0451 30.7981 18.1332 30.5843 18.1332 30.3613V16.9335C18.1332 16.7105 18.0451 16.4967 17.8883 16.339C17.7315 16.1814 17.5187 16.0928 17.297 16.0928H14.7932V31.202Z" fill="white" stroke="#D7DBE0" stroke-width="1.25" stroke-linecap="round" stroke-linejoin="round"/>
</svg>
