<svg width="60" height="40" viewBox="0 0 60 40" fill="none" xmlns="http://www.w3.org/2000/svg">
<path d="M3.10025 10.0007L1.00008 11.3569L2.38337 13.4842L4.48354 12.128L3.10025 10.0007Z" stroke="#D7DBE0" stroke-linecap="round" stroke-linejoin="round"/>
<path d="M11.128 11.2876L14.4357 12.0197L11.128 11.2876Z" fill="#B5D9F1"/>
<path d="M11.128 11.2876L14.4357 12.0197" stroke="#D7DBE0" stroke-linecap="round"/>
<path d="M13.0512 10.0457L12.3705 13.3535L13.0512 10.0457Z" fill="#B5D9F1"/>
<path d="M13.0512 10.0457L12.3705 13.3535" stroke="#D7DBE0" stroke-linecap="round"/>
<path d="M54.6179 8.76168L52.7618 7.08691L51.0943 8.93579L52.9504 10.6106L54.6179 8.76168Z" stroke="#D7DBE0" stroke-linecap="round" stroke-linejoin="round"/>
<path fill-rule="evenodd" clip-rule="evenodd" d="M55.25 17.5C55.9404 17.5 56.5 16.9404 56.5 16.25C56.5 15.5596 55.9404 15 55.25 15C54.5596 15 54 15.5596 54 16.25C54 16.9404 54.5596 17.5 55.25 17.5Z" stroke="#D7DBE0"/>
<g clip-path="url(#clip0)">
<path d="M43.5364 13.9834V14.6084H44.1614H44.9454C45.3331 14.6084 45.7055 14.7632 45.9806 15.0398C46.2559 15.3165 46.4111 15.6925 46.4111 16.0852V27.1195C46.4111 27.5122 46.2559 27.8882 45.9806 28.1649C45.7055 28.4415 45.3331 28.5963 44.9454 28.5963H29.2655C28.8779 28.5963 28.5055 28.4415 28.2303 28.1649L27.7872 28.6057L28.2303 28.1649C27.9551 27.8882 27.7999 27.5122 27.7999 27.1195V16.0852C27.7999 15.6925 27.9551 15.3165 28.2303 15.0398C28.5055 14.7632 28.8779 14.6084 29.2655 14.6084H30.0495H30.6745V13.9834V11.0935C30.6745 9.37686 31.3529 7.73122 32.5593 6.5184C33.7656 5.30569 35.401 4.625 37.1055 4.625C38.81 4.625 40.4454 5.30569 41.6517 6.5184C42.8581 7.73122 43.5364 9.37686 43.5364 11.0935V13.9834ZM38.1458 18.8209L37.9055 19.3978L38.1458 18.8209C37.6492 18.614 37.1025 18.5599 36.5751 18.6654C36.0476 18.7708 35.5636 19.0311 35.1841 19.4127C34.8045 19.7942 34.5464 20.28 34.4419 20.8083C34.3374 21.3366 34.391 21.8842 34.5961 22.382C34.8012 22.8799 35.1488 23.306 35.5955 23.606C36.0421 23.906 36.5676 24.0664 37.1055 24.0664C37.8268 24.0664 38.5179 23.7783 39.0269 23.2666C39.5358 22.7549 39.8211 22.0617 39.8211 21.3396C39.8211 20.801 39.6623 20.2743 39.3643 19.826C39.0663 19.3776 38.6424 19.0276 38.1458 18.8209ZM41.8381 14.2703C42.053 14.0543 42.1731 13.762 42.1731 13.458V11.0935C42.1731 9.74426 41.64 8.44963 40.69 7.49458C39.7399 6.53942 38.4506 6.00221 37.1055 6.00221C35.7604 6.00221 34.4711 6.53942 33.521 7.49458C32.571 8.44963 32.0379 9.74426 32.0379 11.0935V13.458C32.0379 13.762 32.158 14.0543 32.3728 14.2703C32.5878 14.4864 32.8801 14.6084 33.1855 14.6084H41.0255C41.3309 14.6084 41.6232 14.4864 41.8381 14.2703Z" fill="white" stroke="#D7DBE0" stroke-width="1.25" stroke-linecap="round"/>
</g>
<path d="M50.7715 24.6168C50.4795 24.6159 50.1902 24.6731 49.9202 24.7849L39.8851 28.8624C39.4864 29.0238 39.0606 29.1069 38.6307 29.107H37.6155C38.1985 29.0957 38.7539 28.8548 39.1622 28.4363C39.5706 28.0177 39.7993 27.4549 39.7993 26.8686C39.7993 26.2824 39.5706 25.7195 39.1622 25.301C38.7539 24.8824 38.1985 24.6416 37.6155 24.6302H33.3113C29.7254 24.6302 30.5641 20.7134 24.2562 20.7134H18.1331V33.0466C19.8695 32.9096 21.6156 33.119 23.2711 33.6628L25.7381 34.538C29.1345 35.7428 32.7998 35.9619 36.3143 35.1702C36.9431 35.1223 51.0141 29.1751 51.6245 28.9204C52.1008 28.7224 52.4939 28.3645 52.737 27.9076C52.98 27.4507 53.0578 26.9233 52.9572 26.4151C52.8565 25.907 52.5836 25.4498 52.185 25.1213C51.7865 24.7929 51.2869 24.6137 50.7715 24.6143V24.6168Z" fill="white"/>
<path d="M37.6155 29.1094H28.1524" stroke="#D7DBE0" stroke-width="1.25" stroke-miterlimit="10" stroke-linecap="round"/>
<path d="M50.7715 24.6168C50.4795 24.6159 50.1902 24.6731 49.9202 24.7849L39.8851 28.8624C39.4864 29.0238 39.0606 29.1069 38.6307 29.107H37.6155C38.1985 29.0957 38.7539 28.8548 39.1622 28.4363C39.5706 28.0177 39.7993 27.4549 39.7993 26.8686C39.7993 26.2824 39.5706 25.7195 39.1622 25.301C38.7539 24.8824 38.1985 24.6416 37.6155 24.6302H33.3113C29.7254 24.6302 30.5641 20.7134 24.2562 20.7134H18.1331V33.0466C19.8695 32.9096 21.6156 33.119 23.2711 33.6628L25.7381 34.538C29.1345 35.7428 32.7998 35.9619 36.3143 35.1702C36.9431 35.1223 51.0141 29.1751 51.6245 28.9204C52.1008 28.7224 52.4939 28.3645 52.737 27.9076C52.98 27.4507 53.0578 26.9233 52.9572 26.4151C52.8565 25.907 52.5836 25.4498 52.185 25.1213C51.7865 24.7929 51.2869 24.6137 50.7715 24.6143V24.6168Z" stroke="#D7DBE0" stroke-width="1.25" stroke-linecap="round" stroke-linejoin="round"/>
<path d="M13.9569 18H7.83626C7.37441 18 7 18.3764 7 18.8407V34.5074C7 34.9717 7.37441 35.3481 7.83626 35.3481H13.9569C14.4187 35.3481 14.7931 34.9717 14.7931 34.5074V18.8407C14.7931 18.3764 14.4187 18 13.9569 18Z" fill="white"/>
<path d="M13.9569 18H7.83626C7.37441 18 7 18.3764 7 18.8407V34.5074C7 34.9717 7.37441 35.3481 7.83626 35.3481H13.9569C14.4187 35.3481 14.7931 34.9717 14.7931 34.5074V18.8407C14.7931 18.3764 14.4187 18 13.9569 18Z" stroke="#D7DBE0" stroke-width="1.25" stroke-linecap="round" stroke-linejoin="round"/>
<path d="M14.7932 34.2279H17.297C17.5188 34.2279 17.7315 34.1393 17.8883 33.9817C18.0451 33.824 18.1332 33.6102 18.1332 33.3872V19.9594C18.1332 19.7364 18.0451 19.5226 17.8883 19.3649C17.7315 19.2073 17.5188 19.1187 17.297 19.1187H14.7932V34.2279Z" fill="white" stroke="#D7DBE0" stroke-width="1.25" stroke-linecap="round" stroke-linejoin="round"/>
<defs>
<clipPath id="clip0">
<rect width="25.0878" height="25.2213" fill="white" transform="translate(24.5616 4)"/>
</clipPath>
</defs>
</svg>
