<svg width="100" height="100" viewBox="0 0 100 100" fill="none" xmlns="http://www.w3.org/2000/svg">
    <path d="M50 100C77.6142 100 100 77.6142 100 50C100 22.3858 77.6142 0 50 0C22.3858 0 0 22.3858 0 50C0 77.6142 22.3858 100 50 100Z" fill="#D0EFE6"/>
    <g opacity="0.9">
        <g opacity="0.9">
            <path opacity="0.9" d="M83.8279 50.3228C83.8279 68.8294 68.8233 83.8281 50.3225 83.8281C31.8129 83.8281 16.8171 68.8294 16.8171 50.3228C16.8171 31.8161 31.8129 16.8174 50.3225 16.8174C68.8233 16.8174 83.8279 31.8162 83.8279 50.3228Z" fill="white" stroke="#264887"/>
            <path opacity="0.9" d="M83.8279 50.3228C83.8279 68.8294 68.8233 83.8281 50.3225 83.8281C31.8129 83.8281 16.8171 68.8294 16.8171 50.3228C16.8171 31.8161 31.8129 16.8174 50.3225 16.8174C68.8233 16.8174 83.8279 31.8162 83.8279 50.3228Z" fill="white" stroke="#264887"/>
            <path opacity="0.9" d="M84.3279 50.3228C84.3279 69.1056 69.0994 84.3281 50.3225 84.3281C31.5368 84.3281 16.3171 69.1056 16.3171 50.3228C16.3171 31.54 31.5368 16.3174 50.3225 16.3174C69.0994 16.3174 84.3279 31.54 84.3279 50.3228Z" stroke="#264887" stroke-width="2" stroke-linecap="round" stroke-dasharray="190 7 1 5"/>
        </g>
        <path opacity="0.9" d="M64.0071 38.7941C64.6583 38.1863 65.6789 38.2215 66.2867 38.8727C66.8945 39.524 66.8593 40.5446 66.2081 41.1524L44.0307 61.8513C43.3953 62.4443 42.4043 62.4273 41.7897 61.8127L34.3972 54.4202C33.7673 53.7903 33.7673 52.7691 34.3972 52.1392C35.0271 51.5093 36.0483 51.5093 36.6782 52.1392L42.9688 58.4298L64.0071 38.7941Z" fill="#00A878"/>
    </g>
    <path d="M15.484 16.7741C16.9092 16.7741 18.0646 15.6187 18.0646 14.1934C18.0646 12.7682 16.9092 11.6128 15.484 11.6128C14.0587 11.6128 12.9033 12.7682 12.9033 14.1934C12.9033 15.6187 14.0587 16.7741 15.484 16.7741Z" stroke="#A2DFCD" stroke-width="2.22222" stroke-linecap="round" stroke-dasharray="1.11 6.67 182.22 5.56"/>
    <path fill-rule="evenodd" clip-rule="evenodd" d="M90.3225 47.0645L93.5159 43.8711L96.7093 47.0644L93.5159 50.2578L90.3225 47.0645Z" stroke="#A2DFCD" stroke-width="2.22222" stroke-linecap="round" stroke-dasharray="1.11 6.67 182.22 5.56"/>
    <path d="M75.6453 15.645L79.3232 19.323" stroke="#A2DFCD" stroke-width="2.22222" stroke-linecap="round" stroke-dasharray="1.11 6.67 182.22 5.56"/>
    <path d="M79.1936 15.645L75.5156 19.323" stroke="#A2DFCD" stroke-width="2.22222" stroke-linecap="round" stroke-dasharray="1.11 6.67 182.22 5.56"/>
</svg>
