<svg width="215" height="143" viewBox="0 0 215 143" fill="none" xmlns="http://www.w3.org/2000/svg">
    <path d="M120.353 114.528V113.988C120.353 108.986 118.361 104.189 114.816 100.651C111.271 97.1142 106.462 95.127 101.448 95.127C96.4338 95.127 91.6252 97.1142 88.0797 100.651C84.5342 104.189 82.5424 108.986 82.5424 113.988V114.528C81.5522 114.546 80.609 114.952 79.9154 115.657C79.2218 116.363 78.8333 117.311 78.8333 118.299C78.8333 119.288 79.2218 120.236 79.9154 120.942C80.609 121.647 81.5522 122.053 82.5424 122.071C82.6224 122.071 82.6968 122.054 82.774 122.048C84.136 131.125 91.9648 136.678 101.448 136.678C110.931 136.678 118.76 131.131 120.122 122.048C120.2 122.048 120.273 122.071 120.353 122.071C120.856 122.081 121.355 121.99 121.822 121.805C122.289 121.62 122.715 121.344 123.074 120.992C123.432 120.641 123.718 120.222 123.912 119.76C124.107 119.297 124.207 118.801 124.207 118.299C124.207 117.798 124.107 117.302 123.912 116.839C123.718 116.377 123.432 115.958 123.074 115.607C122.715 115.255 122.289 114.979 121.822 114.794C121.355 114.609 120.856 114.518 120.353 114.528Z" fill="#B5D9F1" class="kid"/>
    <path d="M90.5769 123.973C91.8819 123.973 92.9398 122.917 92.9398 121.615C92.9398 120.314 91.8819 119.258 90.5769 119.258C89.272 119.258 88.2141 120.314 88.2141 121.615C88.2141 122.917 89.272 123.973 90.5769 123.973Z" fill="#90C6EB" class="kid"/>
    <path d="M112.318 123.959C113.623 123.959 114.681 122.903 114.681 121.601C114.681 120.3 113.623 119.244 112.318 119.244C111.013 119.244 109.956 120.3 109.956 121.601C109.956 122.903 111.013 123.959 112.318 123.959Z" fill="#90C6EB" class="kid"/>
    <path d="M95.7598 126.41C97.2935 127.867 99.33 128.679 101.448 128.679C103.565 128.679 105.602 127.867 107.136 126.41" stroke="#264887" stroke-width="2" stroke-linecap="round" stroke-linejoin="round" class="kid"/>
    <path d="M96.7226 115.485C96.4886 114.925 96.0937 114.446 95.5876 114.11C95.0815 113.773 94.4868 113.594 93.8786 113.594C93.2704 113.594 92.6758 113.773 92.1697 114.11C91.6636 114.446 91.2687 114.925 91.0347 115.485" stroke="#264887" stroke-width="2" stroke-linecap="round" stroke-linejoin="round" class="kid"/>
    <path d="M111.861 115.471C111.627 114.911 111.232 114.432 110.726 114.096C110.22 113.759 109.625 113.58 109.017 113.58C108.409 113.58 107.814 113.759 107.308 114.096C106.802 114.432 106.407 114.911 106.173 115.471" stroke="#264887" stroke-width="2" stroke-linecap="round" stroke-linejoin="round" class="kid"/>
    <path d="M118.919 106.77C114.702 102.965 109.35 100.645 103.684 100.169C102.2 99.976 100.697 99.976 99.2124 100.169C93.5467 100.645 88.1946 102.965 83.978 106.77C85.4107 103.324 87.8349 100.38 90.9444 98.3078C94.054 96.236 97.7092 95.1303 101.448 95.1303C105.188 95.1303 108.843 96.236 111.952 98.3078C115.062 100.38 117.486 103.324 118.919 106.77Z" fill="#90C6EB" class="kid"/>
    <path d="M120.353 114.528V113.988C120.353 108.986 118.361 104.189 114.816 100.651C111.271 97.1142 106.462 95.127 101.448 95.127C96.4338 95.127 91.6252 97.1142 88.0797 100.651C84.5342 104.189 82.5424 108.986 82.5424 113.988V114.528C81.5522 114.546 80.609 114.952 79.9154 115.657C79.2218 116.363 78.8333 117.311 78.8333 118.299C78.8333 119.288 79.2218 120.236 79.9154 120.942C80.609 121.647 81.5522 122.053 82.5424 122.071C82.6224 122.071 82.6968 122.054 82.774 122.048C84.136 131.125 91.9648 136.678 101.448 136.678C110.931 136.678 118.76 131.131 120.122 122.048C120.2 122.048 120.273 122.071 120.353 122.071C120.856 122.081 121.355 121.99 121.822 121.805C122.289 121.62 122.715 121.344 123.074 120.992C123.432 120.641 123.718 120.222 123.912 119.76C124.107 119.297 124.207 118.801 124.207 118.299C124.207 117.798 124.107 117.302 123.912 116.839C123.718 116.377 123.432 115.958 123.074 115.607C122.715 115.255 122.289 114.979 121.822 114.794C121.355 114.609 120.856 114.518 120.353 114.528V114.528Z" stroke="#264887" stroke-width="2" stroke-linecap="round" stroke-linejoin="round" class="kid"/>
    <path d="M101.449 101.316C104.481 101.316 106.94 99.136 106.94 96.4463C106.94 93.7566 104.481 91.5762 101.449 91.5762C98.4165 91.5762 95.9583 93.7566 95.9583 96.4463C95.9583 99.136 98.4165 101.316 101.449 101.316Z" fill="#315CAE" stroke="#264887" stroke-width="2" stroke-linecap="round" stroke-linejoin="round" class="kid"/>
    <path d="M99.6082 90.2768C99.7952 88.6822 99.7399 87.0687 99.4441 85.4906C99.0318 83.2156 97.9513 81.114 96.3396 79.4528C96.2643 79.3786 96.2162 79.2812 96.2032 79.1764C96.1903 79.0716 96.2132 78.9654 96.2682 78.8752C96.3232 78.785 96.4072 78.7159 96.5065 78.6792C96.6057 78.6425 96.7145 78.6403 96.8152 78.673C97.8877 79.0388 98.8406 79.6881 99.5723 80.5517C100.668 81.9488 101.465 83.5546 101.916 85.2705C102.485 86.9543 102.824 88.7065 102.926 90.4803" fill="#614B44" class="kid"/>
    <path d="M99.6082 90.2768C99.7952 88.6822 99.7399 87.0687 99.4441 85.4906C99.0318 83.2156 97.9513 81.114 96.3396 79.4528C96.2643 79.3786 96.2162 79.2812 96.2032 79.1764C96.1903 79.0716 96.2132 78.9654 96.2682 78.8752C96.3232 78.785 96.4072 78.7159 96.5065 78.6792C96.6057 78.6425 96.7145 78.6403 96.8152 78.673C97.8877 79.0388 98.8406 79.6881 99.5723 80.5517C100.668 81.9488 101.465 83.5546 101.916 85.2705C102.485 86.9543 102.824 88.7065 102.926 90.4803" stroke="#264887" stroke-width="2" stroke-linecap="round" stroke-linejoin="round" class="kid"/>
    <path d="M101.447 92.4197C102.656 90.6492 104.271 89.1919 106.158 88.1685C106.486 88.0114 106.846 87.9287 107.21 87.926C107.575 87.9233 107.936 88.0008 108.267 88.153C108.598 88.3052 108.891 88.5283 109.126 88.8065C109.361 89.0847 109.532 89.4111 109.626 89.7625C110.11 91.5006 110.11 93.3374 109.626 95.0754C109.532 95.4269 109.361 95.7533 109.126 96.0314C108.891 96.3096 108.598 96.5327 108.267 96.6849C107.936 96.8371 107.575 96.9146 107.21 96.9119C106.846 96.9093 106.486 96.8265 106.158 96.6695C104.271 95.6464 102.656 94.1896 101.447 92.4197Z" fill="#D7403A" stroke="#264887" stroke-width="2" stroke-linecap="round" stroke-linejoin="round" class="kid"/>
    <path d="M101.449 92.4216C100.239 90.6512 98.6246 89.1938 96.7381 88.1704C96.4092 88.0134 96.0497 87.9306 95.6852 87.9279C95.3206 87.9253 94.9599 88.0028 94.6288 88.155C94.2976 88.3071 94.0042 88.5303 93.7693 88.8084C93.5344 89.0866 93.3638 89.413 93.2697 89.7644C92.7858 91.5025 92.7858 93.3393 93.2697 95.0774C93.3638 95.4288 93.5344 95.7552 93.7693 96.0334C94.0042 96.3115 94.2976 96.5346 94.6288 96.6868C94.9599 96.839 95.3206 96.9165 95.6852 96.9139C96.0497 96.9112 96.4092 96.8284 96.7381 96.6714C98.6245 95.6484 100.239 94.1915 101.449 92.4216Z" fill="#D7403A" stroke="#264887" stroke-width="2" stroke-linecap="round" stroke-linejoin="round" class="kid"/>
    <path d="M101.446 94.8544C102.794 94.8544 103.886 93.7645 103.886 92.4201C103.886 91.0756 102.794 89.9857 101.446 89.9857C100.099 89.9857 99.0061 91.0756 99.0061 92.4201C99.0061 93.7645 100.099 94.8544 101.446 94.8544Z" fill="#D7403A" stroke="#264887" stroke-width="2" stroke-linecap="round" stroke-linejoin="round" class="kid"/>
    <path d="M96.4234 59.9362C96.4114 58.5881 95.932 57.2856 95.0667 56.25C94.2014 55.2145 93.0035 54.5096 91.6764 54.2552V50.4643C91.6764 42.928 88.6756 35.7003 83.3342 30.3713C77.9928 25.0423 70.7483 22.0485 63.1944 22.0485C55.6405 22.0485 48.396 25.0423 43.0546 30.3713C37.7132 35.7003 34.7124 42.928 34.7124 50.4643V54.2552C33.3253 54.5107 32.0786 55.2607 31.2048 56.3655C30.331 57.4702 29.8897 58.8543 29.9632 60.2597C30.0367 61.6651 30.62 62.9958 31.6043 64.0038C32.5885 65.0119 33.9067 65.6284 35.3129 65.7385C36.6496 72.1293 40.1512 77.866 45.2289 81.984C50.3066 86.1019 56.6507 88.3499 63.1944 88.3499C69.7381 88.3499 76.0822 86.1019 81.1599 81.984C86.2376 77.866 89.7392 72.1293 91.0759 65.7385C92.5303 65.6065 93.8834 64.9394 94.8719 63.8668C95.8604 62.7943 96.4134 61.3932 96.4234 59.9362Z" fill="#B5D9F1" stroke="#264887" stroke-width="2" stroke-linecap="round" stroke-linejoin="round" class="mom"/>
    <path d="M47.758 67.0393C49.7243 67.0393 51.3183 65.449 51.3183 63.4873C51.3183 61.5256 49.7243 59.9353 47.758 59.9353C45.7917 59.9353 44.1978 61.5256 44.1978 63.4873C44.1978 65.449 45.7917 67.0393 47.758 67.0393Z" fill="#90C6EB" class="mom"/>
    <path d="M78.6135 67.0393C80.5798 67.0393 82.1737 65.449 82.1737 63.4873C82.1737 61.5256 80.5798 59.9353 78.6135 59.9353C76.6472 59.9353 75.0532 61.5256 75.0532 63.4873C75.0532 65.449 76.6472 67.0393 78.6135 67.0393Z" fill="#90C6EB" class="mom"/>
    <path d="M56.0667 71.9925C58.1754 73.3946 60.653 74.1428 63.1872 74.1428C65.7213 74.1428 68.1989 73.3946 70.3077 71.9925" stroke="#264887" stroke-width="2" stroke-linecap="round" stroke-linejoin="round" class="mom"/>
    <path d="M50.0276 34.4048C50.0276 34.4048 64.2687 27.3008 71.3892 34.4048L85.6266 48.6127C85.6266 48.6127 92.7471 55.7166 102.241 46.2447L97.4977 43.8767L104.618 39.1408C104.618 39.1408 99.8712 39.1408 95.1242 32.0368C90.3772 24.9329 83.2567 10.725 66.6457 10.725C42.9107 10.725 40.5515 24.9329 40.5515 24.9329L50.0276 34.4048Z" fill="#264887" class="mom"/>
    <path d="M66.6428 17.6399C83.2537 17.6399 90.3742 31.8478 95.1212 38.9517C96.12 40.4782 97.3091 41.8719 98.66 43.0993L104.615 39.1408C104.615 39.1408 99.8682 39.1408 95.1212 32.0368C90.3742 24.9329 83.2537 10.725 66.6428 10.725C42.9078 10.725 40.5486 24.9329 40.5486 24.9329L42.7291 27.1118C45.5851 22.9786 52.1015 17.6399 66.6428 17.6399Z" fill="#B5D9F1" class="mom"/>
    <path d="M50.0276 34.4048C50.0276 34.4048 64.2687 27.3008 71.3892 34.4048L85.6266 48.6127C85.6266 48.6127 92.7471 55.7166 102.241 46.2447L97.4977 43.8767L104.618 39.1408C104.618 39.1408 99.8712 39.1408 95.1242 32.0368C90.3772 24.9329 83.2567 10.725 66.6457 10.725C42.9107 10.725 40.5515 24.9329 40.5515 24.9329L50.0276 34.4048Z" fill="#264887" stroke="#264887" stroke-width="2" stroke-linecap="round" stroke-linejoin="round" class="mom"/>
    <path d="M40.5343 24.9395C40.5343 24.9395 28.6667 24.9395 28.6667 39.1474C28.6667 50.9873 34.6255 54.1649 34.6255 54.1649C34.6255 54.1649 40.5342 39.1474 50.0282 34.4115L40.5343 24.9395Z" fill="#264887" class="mom"/>
    <path d="M47.2651 31.6476L40.5343 24.9395C40.5343 24.9395 28.6667 24.9395 28.6667 39.1474C28.6667 40.0889 28.7061 40.9769 28.7776 41.815C32.5201 33.6483 42.6611 31.2161 47.2651 31.6476Z" fill="white" class="mom"/>
    <path d="M40.5343 24.9395C40.5343 24.9395 28.6667 24.9395 28.6667 39.1474C28.6667 50.9873 34.6255 54.1649 34.6255 54.1649C34.6255 54.1649 40.5342 39.1474 50.0282 34.4115L40.5343 24.9395Z" stroke="#264887" stroke-width="2" stroke-linecap="round" stroke-linejoin="round" class="mom"/>
    <path d="M52.5041 57.7648C54.4704 57.7648 56.0644 56.1745 56.0644 54.2128C56.0644 52.2511 54.4704 50.6608 52.5041 50.6608C50.5378 50.6608 48.9438 52.2511 48.9438 54.2128C48.9438 56.1745 50.5378 57.7648 52.5041 57.7648Z" fill="#264887" class="mom"/>
    <path d="M73.8676 57.7632C75.8339 57.7632 77.4279 56.1729 77.4279 54.2112C77.4279 52.2495 75.8339 50.6592 73.8676 50.6592C71.9013 50.6592 70.3074 52.2495 70.3074 54.2112C70.3074 56.1729 71.9013 57.7632 73.8676 57.7632Z" fill="#264887" class="mom"/>
    <path d="M175.584 60.2436C175.572 58.8952 175.093 57.5925 174.228 56.5568C173.362 55.521 172.164 54.8164 170.837 54.5626V50.7717C170.837 43.2353 167.836 36.0077 162.494 30.6787C157.153 25.3497 149.908 22.3559 142.355 22.3559C134.801 22.3559 127.556 25.3497 122.215 30.6787C116.873 36.0077 113.873 43.2353 113.873 50.7717V54.5626C112.488 54.8209 111.245 55.5718 110.374 56.6757C109.503 57.7797 109.063 59.1616 109.137 60.5646C109.21 61.9677 109.792 63.2964 110.773 64.3039C111.755 65.3114 113.069 65.9291 114.473 66.0423C115.81 72.4331 119.311 78.1698 124.389 82.2878C129.467 86.4057 135.811 88.6537 142.355 88.6537C148.898 88.6537 155.242 86.4057 160.32 82.2878C165.398 78.1698 168.899 72.4331 170.236 66.0423C171.69 65.912 173.044 65.2458 174.033 64.1737C175.021 63.1015 175.574 61.7004 175.584 60.2436Z" fill="#B5D9F1" stroke="#264887" stroke-width="2" stroke-linecap="round" stroke-linejoin="round" class="dad"/>
    <path d="M126.918 67.3481C128.885 67.3481 130.479 65.7578 130.479 63.7961C130.479 61.8344 128.885 60.2442 126.918 60.2442C124.952 60.2442 123.358 61.8344 123.358 63.7961C123.358 65.7578 124.952 67.3481 126.918 67.3481Z" fill="#90C6EB" class="dad"/>
    <path d="M157.773 67.3481C159.739 67.3481 161.333 65.7578 161.333 63.7961C161.333 61.8344 159.739 60.2442 157.773 60.2442C155.807 60.2442 154.213 61.8344 154.213 63.7961C154.213 65.7578 155.807 67.3481 157.773 67.3481Z" fill="#90C6EB" class="dad"/>
    <path d="M155.178 55.5082C154.803 55.1325 154.357 54.8345 153.867 54.6311C153.376 54.4277 152.85 54.3229 152.318 54.3229C151.787 54.3229 151.261 54.4277 150.77 54.6311C150.279 54.8345 149.834 55.1325 149.459 55.5082" stroke="#264887" stroke-width="2" stroke-linecap="round" stroke-linejoin="round" class="dad"/>
    <path d="M129.513 55.5082C129.888 55.1325 130.334 54.8345 130.825 54.6311C131.316 54.4277 131.842 54.3229 132.373 54.3229C132.904 54.3229 133.431 54.4277 133.921 54.6311C134.412 54.8345 134.858 55.1325 135.233 55.5082" stroke="#264887" stroke-width="2" stroke-linecap="round" stroke-linejoin="round" class="dad"/>
    <path d="M149.466 72.0655C147.412 73.6026 144.914 74.4335 142.346 74.4335C139.778 74.4335 137.28 73.6026 135.225 72.0655" stroke="#264887" stroke-width="2" stroke-linecap="round" stroke-linejoin="round" class="dad"/>
    <path d="M173.2 35.6901C173.2 29.6444 170.793 23.8463 166.508 19.5713C162.223 15.2964 156.412 12.8947 150.352 12.8947H121.319C120.336 12.8952 119.377 13.2003 118.575 13.7681C117.773 14.3358 117.167 15.1381 116.842 16.0641C116.516 16.99 116.487 17.9939 116.759 18.937C117.03 19.8802 117.588 20.7159 118.356 21.3289L120.812 23.2903C118.082 24.2871 115.725 26.0952 114.058 28.4707C112.391 30.8462 111.494 33.6747 111.489 36.5745V50.7824C111.49 51.4102 111.741 52.0119 112.185 52.4558C112.63 52.8997 113.234 53.1495 113.863 53.1504C118.867 50.1512 126.856 42.8333 127.972 37.0168C128.016 36.8318 128.096 36.6574 128.208 36.5035C128.319 36.3496 128.46 36.2192 128.623 36.1198C128.785 36.0204 128.966 35.954 129.154 35.9243C129.342 35.8946 129.534 35.9023 129.719 35.9469C131.374 36.2103 132.9 36.9972 134.072 38.1915C135.244 39.3858 136 40.9243 136.229 42.5801C136.268 42.7824 136.351 42.9739 136.471 43.1413C136.592 43.3087 136.747 43.448 136.927 43.5497C137.107 43.6514 137.306 43.713 137.512 43.7303C137.718 43.7476 137.925 43.7202 138.12 43.65C141.993 42.7156 145.345 40.3017 147.453 36.9276C147.555 36.6087 147.774 36.3403 148.067 36.1768C148.359 36.0132 148.703 35.9667 149.029 36.0467C161.326 39.9054 157.129 51.3816 170.598 52.6725C170.927 52.7038 171.26 52.6661 171.574 52.5619C171.888 52.4577 172.176 52.2893 172.421 52.0674C172.666 51.8456 172.862 51.5751 172.996 51.2734C173.13 50.9717 173.2 50.6453 173.2 50.3153V35.6901Z" fill="#264887" class="dad"/>
    <path d="M150.352 12.8841H121.32C120.336 12.8846 119.377 13.1898 118.575 13.7575C117.773 14.3252 117.167 15.1275 116.842 16.0535C116.517 16.9794 116.488 17.9833 116.759 18.9265C117.03 19.8696 117.588 20.7054 118.356 21.3183L119.915 22.5593C120.371 22.4242 120.844 22.3558 121.32 22.3561H150.352C156.412 22.3561 162.224 24.7577 166.508 29.0327C170.793 33.3076 173.201 39.1057 173.201 45.1515V35.6902C173.202 32.6958 172.612 29.7304 171.464 26.9635C170.317 24.1966 168.634 21.6824 166.512 19.5645C164.39 17.4467 161.871 15.7666 159.098 14.6204C156.326 13.4741 153.354 12.8841 150.352 12.8841Z" fill="#B5D9F1" class="dad"/>
    <path d="M173.2 35.6901C173.2 29.6444 170.793 23.8463 166.508 19.5713C162.223 15.2964 156.412 12.8947 150.352 12.8947H121.319C120.336 12.8952 119.377 13.2003 118.575 13.7681C117.773 14.3358 117.167 15.1381 116.842 16.0641C116.516 16.99 116.487 17.9939 116.759 18.937C117.03 19.8802 117.588 20.7159 118.356 21.3289L120.812 23.2903C118.082 24.2871 115.725 26.0952 114.058 28.4707C112.391 30.8462 111.494 33.6747 111.489 36.5745V50.7824C111.49 51.4102 111.741 52.0119 112.185 52.4558C112.63 52.8997 113.234 53.1495 113.863 53.1504C118.867 50.1512 126.856 42.8333 127.972 37.0168C128.016 36.8318 128.096 36.6574 128.208 36.5035C128.319 36.3496 128.46 36.2192 128.623 36.1198C128.785 36.0204 128.966 35.954 129.154 35.9243C129.342 35.8946 129.534 35.9023 129.719 35.9469C131.374 36.2103 132.9 36.9972 134.072 38.1915C135.244 39.3858 136 40.9243 136.229 42.5801C136.268 42.7824 136.351 42.9739 136.471 43.1413C136.592 43.3087 136.747 43.448 136.927 43.5497C137.107 43.6514 137.306 43.713 137.512 43.7303C137.718 43.7476 137.925 43.7202 138.12 43.65C141.993 42.7156 145.345 40.3017 147.453 36.9276C147.555 36.6087 147.774 36.3403 148.067 36.1768C148.359 36.0132 148.703 35.9667 149.029 36.0467C161.326 39.9054 157.129 51.3816 170.598 52.6725C170.927 52.7038 171.26 52.6661 171.574 52.5619C171.888 52.4577 172.176 52.2893 172.421 52.0674C172.666 51.8456 172.862 51.5751 172.996 51.2734C173.13 50.9717 173.2 50.6453 173.2 50.3153V35.6901Z" fill="#264887" stroke="#264887" stroke-width="2" stroke-linecap="round" stroke-linejoin="round" class="dad"/>
    <path d="M46.0973 108.582L38.6819 103.153L33.2169 110.702L40.6324 116.13L46.0973 108.582Z" stroke="#CACCEE" stroke-width="2" stroke-linecap="round" stroke-linejoin="round"/>
    <path d="M18.958 11.5221L10.0818 13.8505L12.3716 22.8991L21.2478 20.5707L18.958 11.5221Z" stroke="#CACCEE" stroke-width="2" stroke-linecap="round" stroke-linejoin="round"/>
    <path d="M163.58 113.811L171.752 104.394" stroke="#CACCEE" stroke-width="2" stroke-linecap="round" class="decor"/>
    <path d="M162.95 105.414L172.43 113.412" stroke="#CACCEE" stroke-width="2" stroke-linecap="round" class="decor"/>
    <path fill-rule="evenodd" clip-rule="evenodd" d="M201 60C204.314 60 207 57.3137 207 54C207 50.6863 204.314 48 201 48C197.686 48 195 50.6863 195 54C195 57.3137 197.686 60 201 60Z" stroke="#CACCEE" stroke-width="2"/>
</svg>
