<svg width="24" height="24" viewBox="0 0 24 24" fill="none" xmlns="http://www.w3.org/2000/svg">
<g clip-path="url(#clip0)">
<path d="M9.02502 12.915C9.06389 12.8765 9.08904 12.8263 9.09663 12.7721C9.10422 12.7179 9.09382 12.6627 9.06702 12.615C8.79353 12.1199 8.65007 11.5636 8.65007 10.998C8.65007 10.4324 8.79353 9.87607 9.06702 9.38101C9.09398 9.33334 9.10448 9.27812 9.09689 9.22388C9.08929 9.16965 9.06403 9.11943 9.02502 9.08101L7.46702 7.52801C7.44123 7.50227 7.41014 7.48248 7.37591 7.47003C7.34168 7.45757 7.30514 7.45275 7.26884 7.45589C7.23255 7.45903 7.19738 7.47007 7.1658 7.48823C7.13422 7.50638 7.10699 7.53122 7.08602 7.56101C6.37921 8.5685 6 9.76931 6 11C6 12.2307 6.37921 13.4315 7.08602 14.439C7.10687 14.469 7.13408 14.4941 7.16571 14.5124C7.19733 14.5307 7.23261 14.5419 7.26902 14.545C7.30558 14.5482 7.34239 14.5434 7.37691 14.5309C7.41144 14.5185 7.44286 14.4987 7.46902 14.473L9.02502 12.915Z" fill="#40526D"/>
<path d="M12 12.85C13.0218 12.85 13.85 12.0218 13.85 11C13.85 9.9783 13.0218 9.15002 12 9.15002C10.9783 9.15002 10.15 9.9783 10.15 11C10.15 12.0218 10.9783 12.85 12 12.85Z" fill="#40526D"/>
<path d="M10.085 8.02502C10.1235 8.06389 10.1737 8.08904 10.2279 8.09663C10.2821 8.10422 10.3373 8.09382 10.385 8.06702C10.88 7.79353 11.4364 7.65007 12.002 7.65007C12.5676 7.65007 13.1239 7.79353 13.619 8.06702C13.6667 8.09382 13.7219 8.10422 13.7761 8.09663C13.8303 8.08904 13.8805 8.06389 13.919 8.02502L15.476 6.46702C15.5017 6.44123 15.5215 6.41014 15.534 6.37591C15.5464 6.34168 15.5512 6.30514 15.5481 6.26884C15.5449 6.23255 15.5339 6.19738 15.5158 6.1658C15.4976 6.13422 15.4728 6.10699 15.443 6.08602C14.4355 5.37921 13.2347 5 12.004 5C10.7733 5 9.57246 5.37921 8.56497 6.08602C8.53519 6.10699 8.51035 6.13422 8.49219 6.1658C8.47404 6.19738 8.463 6.23255 8.45986 6.26884C8.45671 6.30514 8.46154 6.34168 8.474 6.37591C8.48645 6.41014 8.50624 6.44123 8.53197 6.46702L10.085 8.02502Z" fill="#40526D"/>
<path d="M14.975 9.08601C14.9358 9.12434 14.9104 9.17457 14.9028 9.22885C14.8952 9.28312 14.9058 9.33839 14.933 9.38601C15.2084 9.88427 15.3519 10.4446 15.35 11.0139C15.3481 11.5832 15.2007 12.1426 14.922 12.639C14.8986 12.6806 14.8895 12.7288 14.896 12.7761C14.9025 12.8233 14.9242 12.8672 14.958 12.901L16.532 14.476C16.5579 14.502 16.5893 14.522 16.6239 14.5344C16.6585 14.5469 16.6954 14.5515 16.732 14.548C16.7683 14.5448 16.8034 14.5337 16.835 14.5156C16.8666 14.4975 16.8939 14.4727 16.915 14.443C17.6217 13.4353 18.0009 12.2343 18.0009 11.0035C18.0009 9.77267 17.6217 8.57171 16.915 7.56401C16.8936 7.53505 16.8661 7.51111 16.8345 7.49384C16.8029 7.47657 16.7679 7.46639 16.732 7.46401C16.6954 7.46064 16.6585 7.46535 16.624 7.47779C16.5894 7.49023 16.558 7.5101 16.532 7.53601L14.975 9.08601Z" fill="#40526D"/>
<path d="M13.914 13.975C13.8754 13.9363 13.8252 13.9112 13.771 13.9037C13.7169 13.8961 13.6617 13.9064 13.614 13.933C13.1193 14.2065 12.5632 14.35 11.998 14.35C11.4327 14.35 10.8767 14.2065 10.382 13.933C10.3343 13.9062 10.2791 13.8958 10.2249 13.9034C10.1707 13.911 10.1205 13.9362 10.082 13.975L8.52797 15.533C8.50212 15.5591 8.48229 15.5905 8.46985 15.6251C8.45742 15.6596 8.45268 15.6965 8.45597 15.733C8.45919 15.7694 8.47035 15.8047 8.48867 15.8363C8.50698 15.8679 8.532 15.8951 8.56197 15.916C9.56932 16.6223 10.7697 17.0011 12 17.0011C13.2302 17.0011 14.4306 16.6223 15.438 15.916C15.4667 15.8944 15.4905 15.8669 15.5078 15.8354C15.525 15.8038 15.5353 15.7689 15.538 15.733C15.5417 15.6964 15.5371 15.6595 15.5247 15.6248C15.5122 15.5902 15.4922 15.5589 15.466 15.533L13.914 13.975Z" fill="#40526D"/>
<path d="M21.5 1.37746e-06H2.5C1.84926 -0.0112469 1.22062 0.236049 0.751963 0.687651C0.283301 1.13925 0.0128771 1.75829 0 2.409V19.591C0.00364352 20.0399 0.133111 20.4788 0.373695 20.8578C0.614278 21.2368 0.956333 21.5407 1.361 21.735C1.40274 21.7557 1.43786 21.7876 1.46242 21.8272C1.48698 21.8668 1.5 21.9124 1.5 21.959V23C1.5 23.2652 1.60536 23.5196 1.79289 23.7071C1.98043 23.8946 2.23478 24 2.5 24C2.76522 24 3.01957 23.8946 3.20711 23.7071C3.39464 23.5196 3.5 23.2652 3.5 23V22.25C3.5 22.1837 3.52634 22.1201 3.57322 22.0732C3.62011 22.0263 3.6837 22 3.75 22H20.25C20.3163 22 20.3799 22.0263 20.4268 22.0732C20.4737 22.1201 20.5 22.1837 20.5 22.25V23C20.5 23.2652 20.6054 23.5196 20.7929 23.7071C20.9804 23.8946 21.2348 24 21.5 24C21.7652 24 22.0196 23.8946 22.2071 23.7071C22.3946 23.5196 22.5 23.2652 22.5 23V21.959C22.5 21.9124 22.513 21.8668 22.5376 21.8272C22.5621 21.7876 22.5973 21.7557 22.639 21.735C23.0437 21.5407 23.3857 21.2368 23.6263 20.8578C23.8669 20.4788 23.9964 20.0399 24 19.591V2.409C23.9871 1.75829 23.7167 1.13925 23.248 0.687651C22.7794 0.236049 22.1507 -0.0112469 21.5 1.37746e-06ZM20 11C20 12.5823 19.5308 14.129 18.6518 15.4446C17.7727 16.7602 16.5233 17.7855 15.0615 18.391C13.5997 18.9965 11.9911 19.155 10.4393 18.8463C8.88743 18.5376 7.46197 17.7757 6.34315 16.6569C5.22433 15.538 4.4624 14.1126 4.15372 12.5607C3.84504 11.0089 4.00346 9.40034 4.60896 7.93853C5.21447 6.47672 6.23984 5.2273 7.55544 4.34824C8.87103 3.46919 10.4177 3 12 3C14.121 3.00238 16.1544 3.846 17.6542 5.34578C19.154 6.84555 19.9976 8.879 20 11Z" fill="#40526D"/>
</g>
<defs>
<clipPath id="clip0">
<rect width="24" height="24" fill="white"/>
</clipPath>
</defs>
</svg>
