<svg width="60" height="40" viewBox="0 0 60 40" fill="none" xmlns="http://www.w3.org/2000/svg">
<path d="M54.5415 1H52.0415V3.66877H54.5415V1Z" stroke="#EDBF0E" stroke-linecap="round" stroke-linejoin="round"/>
<path d="M4.70914 5.86494L3 7.68945L4.70914 9.51397L6.41827 7.68945L4.70914 5.86494Z" stroke="#EDBF0E" stroke-linecap="round" stroke-linejoin="round"/>
<path d="M51.5121 19.5083L53.8875 22.044" stroke="#EDBF0E" stroke-linecap="round" stroke-linejoin="round"/>
<path d="M53.8038 19.5083L51.4284 22.044" stroke="#EDBF0E" stroke-linecap="round" stroke-linejoin="round"/>
<path d="M13.832 37.877H46.6256" stroke="#264887" stroke-width="1.25" stroke-linecap="round" stroke-dasharray="0.68 4.1 112.04 3.42"/>
<path fill-rule="evenodd" clip-rule="evenodd" d="M13.832 6.45009C13.832 4.9408 15.0555 3.71729 16.5648 3.71729H42.4964C44.0057 3.71729 45.2292 4.9408 45.2292 6.45009V32.5082C45.2292 34.0174 44.0057 35.241 42.4964 35.241H42.4183C42.1177 35.9856 41.3881 36.511 40.5358 36.511C39.6835 36.511 38.9539 35.9856 38.6533 35.241H21.0647C20.7641 35.9856 20.0345 36.511 19.1822 36.511C18.3299 36.511 17.6004 35.9856 17.2998 35.241H16.5648C15.0555 35.241 13.832 34.0174 13.832 32.5082V6.45009Z" fill="white"/>
<path d="M42.4807 33.7417H42.0164L41.8426 34.2422C41.748 34.5144 41.5893 34.7501 41.3876 34.923L41.3713 34.9373C41.3652 34.9419 41.3591 34.9466 41.3531 34.9514L41.3462 34.9569C41.3378 34.9636 41.3296 34.9704 41.3215 34.9773C41.3132 34.9828 41.3049 34.9885 41.2967 34.9944C41.0902 35.1429 40.8471 35.2288 40.5846 35.2288C40.3221 35.2288 40.0791 35.1429 39.8726 34.9944C39.8666 34.9901 39.8605 34.9858 39.8544 34.9817C39.8487 34.9771 39.8429 34.9725 39.8371 34.9679L39.8301 34.9624C39.8217 34.9559 39.8133 34.9496 39.8048 34.9436C39.8004 34.9395 39.796 34.9355 39.7915 34.9315C39.7883 34.9286 39.785 34.9258 39.7818 34.923C39.58 34.7501 39.4212 34.5144 39.3267 34.2422L39.1529 33.7417H38.6885H30.4337C30.3523 33.7417 30.2743 33.7581 30.2018 33.7882C30.1294 33.7581 30.0513 33.7417 29.97 33.7417H29.8772C29.7598 33.7417 29.6493 33.7759 29.5526 33.8361C29.4559 33.7759 29.3453 33.7417 29.228 33.7417H20.973H20.5087L20.3349 34.2422C20.2404 34.5144 20.0816 34.7501 19.8799 34.923C19.8743 34.9278 19.8687 34.9327 19.8632 34.9377C19.86 34.9401 19.8568 34.9426 19.8536 34.9451C19.8509 34.9472 19.8482 34.9493 19.8455 34.9514L19.8385 34.9569C19.8301 34.9636 19.8219 34.9704 19.8139 34.9773C19.8055 34.9828 19.7972 34.9885 19.789 34.9944C19.5826 35.1429 19.3394 35.2288 19.0769 35.2288C18.8146 35.2288 18.5714 35.1429 18.3649 34.9944C18.3589 34.9901 18.3528 34.9858 18.3467 34.9817C18.341 34.9771 18.3352 34.9725 18.3294 34.9679L18.3224 34.9624C18.3141 34.9559 18.3056 34.9496 18.2971 34.9436C18.2896 34.9365 18.2819 34.9297 18.2741 34.923C18.0723 34.7501 17.9135 34.5144 17.819 34.2422L17.6452 33.7417H17.181H16.836L16.8263 33.7418L16.8166 33.7417H16.8127L16.7992 33.7419L16.7856 33.7417H16.4406C15.9098 33.7417 15.4273 33.5097 15.0612 33.1272C15.0506 33.1162 15.0399 33.1056 15.0289 33.0955C15.0194 33.0832 15.0094 33.0712 14.9991 33.0595L14.9869 33.0457C14.9727 33.0293 14.958 33.0137 14.9428 32.999C14.9309 32.9807 14.9183 32.9628 14.9048 32.9455C14.5757 32.5198 14.3763 31.9588 14.3763 31.3417V32.5129C14.3763 33.13 14.5757 33.691 14.9048 34.1166C14.9183 34.134 14.9309 34.1519 14.9428 34.1702C14.958 34.1849 14.9727 34.2004 14.9869 34.2169L14.9991 34.2307C15.0094 34.2424 15.0194 34.2544 15.0289 34.2667C15.0399 34.2768 15.0506 34.2874 15.0612 34.2984C15.4273 34.6809 15.9098 34.9129 16.4406 34.9129H16.7856L16.7992 34.913L16.8127 34.9129H16.8166L16.8263 34.913L16.836 34.9129H17.181H17.6452L17.819 35.4134C17.9135 35.6856 18.0723 35.9213 18.2741 36.0942C18.2819 36.1009 18.2896 36.1077 18.2971 36.1147C18.3056 36.1208 18.3141 36.1271 18.3224 36.1336L18.3294 36.1391C18.3352 36.1436 18.341 36.1482 18.3467 36.1529C18.3528 36.157 18.3589 36.1612 18.3649 36.1656C18.5714 36.3141 18.8146 36.4 19.0769 36.4C19.3394 36.4 19.5826 36.3141 19.789 36.1656C19.7924 36.1631 19.7958 36.1607 19.7993 36.1584C19.8041 36.155 19.809 36.1517 19.8139 36.1485C19.8219 36.1416 19.8301 36.1347 19.8385 36.1281L19.8455 36.1226C19.8481 36.1206 19.8506 36.1186 19.8531 36.1166C19.8565 36.114 19.8599 36.1114 19.8632 36.1089C19.8687 36.1039 19.8743 36.099 19.8799 36.0942C20.0816 35.9213 20.2404 35.6856 20.3349 35.4134L20.5087 34.9129H20.973H29.228C29.3453 34.9129 29.4559 34.9471 29.5526 35.0073C29.6493 34.9471 29.7598 34.9129 29.8772 34.9129H29.97C30.0513 34.9129 30.1294 34.9293 30.2018 34.9594C30.2743 34.9293 30.3523 34.9129 30.4337 34.9129H38.6885H39.1529L39.3267 35.4134C39.4212 35.6856 39.58 35.9213 39.7818 36.0942C39.7896 36.1009 39.7973 36.1077 39.8048 36.1148C39.8133 36.1208 39.8217 36.1271 39.8301 36.1336L39.8371 36.1391C39.8394 36.1409 39.8418 36.1428 39.8441 36.1446C39.8476 36.1474 39.851 36.1501 39.8544 36.1529C39.8605 36.157 39.8666 36.1612 39.8726 36.1656C40.0791 36.3141 40.3221 36.4 40.5846 36.4C40.8471 36.4 41.0902 36.3141 41.2967 36.1656C41.3049 36.1597 41.3132 36.154 41.3215 36.1485C41.3296 36.1416 41.3378 36.1347 41.3462 36.1281L41.3531 36.1226C41.3591 36.1178 41.3652 36.1131 41.3713 36.1085L41.3876 36.0942C41.5893 35.9213 41.748 35.6856 41.8426 35.4134L42.0164 34.9129H42.4807H42.5174H42.5203H42.5227H42.5594C43.0902 34.9129 43.5727 34.6809 43.9388 34.2984C43.9538 34.2828 43.9691 34.2681 43.9849 34.2542C43.9975 34.2366 44.0109 34.2195 44.0251 34.2029L44.037 34.1888C44.047 34.1769 44.0572 34.1654 44.0677 34.1544C44.0764 34.1416 44.0856 34.129 44.0952 34.1166C44.4243 33.691 44.6237 33.13 44.6237 32.5129V31.3417C44.6237 31.9588 44.4243 32.5198 44.0952 32.9455C44.0856 32.9578 44.0764 32.9704 44.0677 32.9832C44.0572 32.9943 44.047 33.0057 44.037 33.0176L44.0251 33.0318C44.0109 33.0483 43.9975 33.0655 43.9849 33.0831C43.9691 33.0969 43.9538 33.1116 43.9388 33.1272C43.5727 33.5097 43.0902 33.7417 42.5594 33.7417H42.5227H42.5203H42.5174H42.4807Z" fill="#B5D9F1"/>
<path d="M44.6237 18.2948C44.6237 18.0772 44.6985 17.8799 44.8197 17.7357C44.6985 17.5914 44.6237 17.3941 44.6237 17.1765V18.2948Z" fill="#B5D9F1"/>
<path d="M14.3763 16.218C14.3763 16.4356 14.3015 16.6329 14.1803 16.7771C14.3015 16.9214 14.3763 17.1187 14.3763 17.3363V17.1236C14.3763 16.9782 14.3429 16.8418 14.2845 16.7243C14.3429 16.6067 14.3763 16.4704 14.3763 16.3249V16.218Z" fill="#B5D9F1"/>
<path d="M14.3763 17.4961C14.3763 17.6415 14.3429 17.7779 14.2845 17.8954C14.3429 18.013 14.3763 18.1494 14.3763 18.2948V17.4961Z" fill="#B5D9F1"/>
<path d="M42.4183 35.2411V34.5579H41.9573L41.7848 34.9853L42.4183 35.2411ZM38.6533 35.2411L39.2869 34.9853L39.1143 34.5579H38.6533V35.2411ZM21.0647 35.2411V34.5579H20.6037L20.4312 34.9853L21.0647 35.2411ZM17.2998 35.2411L17.9333 34.9853L17.7607 34.5579H17.2998V35.2411ZM14.2817 3.90922C14.0011 4.16147 13.9781 4.59344 14.2304 4.87404C14.4826 5.15464 14.9146 5.17762 15.1952 4.92536L14.2817 3.90922ZM15.1096 5.00688C15.3753 4.73899 15.3735 4.30641 15.1056 4.0407C14.8377 3.77499 14.4052 3.77675 14.1395 4.04465L15.1096 5.00688ZM14.1198 4.06465C13.8563 4.33471 13.8616 4.76725 14.1316 5.03077C14.4017 5.29429 14.8342 5.28898 15.0977 5.01893L14.1198 4.06465ZM15.04 5.08056C15.2923 4.79997 15.2693 4.368 14.9887 4.11574C14.7081 3.86348 14.2761 3.88645 14.0239 4.16705L15.04 5.08056ZM13.1488 18.5924C13.1488 18.9697 13.4547 19.2756 13.832 19.2756C14.2094 19.2756 14.5152 18.9697 14.5152 18.5924H13.1488ZM14.5152 19.5474C14.5152 19.1701 14.2094 18.8642 13.832 18.8642C13.4547 18.8642 13.1488 19.1701 13.1488 19.5474H14.5152ZM13.1488 19.6839C13.1488 20.0612 13.4547 20.3671 13.832 20.3671C14.2094 20.3671 14.5152 20.0612 14.5152 19.6839H13.1488ZM14.5152 20.366C14.5152 19.9887 14.2094 19.6828 13.832 19.6828C13.4547 19.6828 13.1488 19.9887 13.1488 20.366H14.5152ZM14.0239 34.7914C14.2761 35.072 14.7081 35.095 14.9887 34.8427C15.2693 34.5904 15.2923 34.1585 15.04 33.8779L14.0239 34.7914ZM15.1215 33.9635C14.8536 33.6978 14.4211 33.6996 14.1553 33.9674C13.8896 34.2353 13.8914 34.6679 14.1593 34.9336L15.1215 33.9635ZM14.1793 34.9533C14.4494 35.2168 14.8819 35.2115 15.1454 34.9415C15.4089 34.6714 15.4036 34.2389 15.1336 33.9753L14.1793 34.9533ZM15.1952 34.0331C14.9146 33.7808 14.4826 33.8038 14.2304 34.0844C13.9781 34.365 14.0011 34.797 14.2817 35.0492L15.1952 34.0331ZM16.9073 35.9243C17.2846 35.9243 17.5905 35.6184 17.5905 35.2411C17.5905 34.8637 17.2846 34.5579 16.9073 34.5579V35.9243ZM16.9342 34.5579C16.5569 34.5579 16.251 34.8637 16.251 35.2411C16.251 35.6184 16.5569 35.9243 16.9342 35.9243V34.5579ZM16.9381 35.9243C17.3154 35.9243 17.6213 35.6184 17.6213 35.2411C17.6213 34.8637 17.3154 34.5579 16.9381 34.5579V35.9243ZM16.9573 34.5579C16.58 34.5579 16.2741 34.8637 16.2741 35.2411C16.2741 35.6184 16.58 35.9243 16.9573 35.9243V34.5579ZM17.5747 36.6668C17.8785 36.8906 18.3062 36.8257 18.53 36.5219C18.7537 36.2181 18.6889 35.7905 18.3851 35.5667L17.5747 36.6668ZM18.4331 35.6004C18.1199 35.39 17.6954 35.4734 17.485 35.7866C17.2746 36.0998 17.3579 36.5243 17.6712 36.7347L18.4331 35.6004ZM17.6852 36.744C17.9997 36.9525 18.4236 36.8665 18.6321 36.552C18.8405 36.2375 18.7546 35.8135 18.44 35.6051L17.6852 36.744ZM18.4753 35.6277C18.1545 35.4291 17.7334 35.5282 17.5348 35.849C17.3362 36.1698 17.4353 36.5909 17.7562 36.7895L18.4753 35.6277ZM20.6083 36.7895C20.9292 36.5909 21.0283 36.1698 20.8297 35.849C20.6311 35.5282 20.21 35.4291 19.8892 35.6277L20.6083 36.7895ZM19.9383 35.5957C19.6264 35.8081 19.5457 36.2331 19.7581 36.545C19.9704 36.8569 20.3954 36.9376 20.7073 36.7252L19.9383 35.5957ZM20.7212 36.7157C21.0318 36.5014 21.1098 36.076 20.8956 35.7654C20.6813 35.4548 20.2558 35.3767 19.9453 35.591L20.7212 36.7157ZM19.9794 35.5667C19.6756 35.7905 19.6107 36.2181 19.8345 36.5219C20.0583 36.8257 20.486 36.8906 20.7898 36.6668L19.9794 35.5667ZM29.2605 35.9243C29.6378 35.9243 29.9437 35.6184 29.9437 35.2411C29.9437 34.8637 29.6378 34.5579 29.2605 34.5579V35.9243ZM29.9051 34.5579C29.5278 34.5579 29.2219 34.8637 29.2219 35.2411C29.2219 35.6184 29.5278 35.9243 29.9051 35.9243V34.5579ZM29.9972 35.9243C30.3745 35.9243 30.6804 35.6184 30.6804 35.2411C30.6804 34.8637 30.3745 34.5579 29.9972 34.5579V35.9243ZM30.4576 34.5579C30.0803 34.5579 29.7744 34.8637 29.7744 35.2411C29.7744 35.6184 30.0803 35.9243 30.4576 35.9243V34.5579ZM38.9283 36.6668C39.232 36.8906 39.6597 36.8257 39.8835 36.5219C40.1073 36.2181 40.0425 35.7905 39.7387 35.5667L38.9283 36.6668ZM39.7867 35.6004C39.4734 35.39 39.049 35.4734 38.8386 35.7866C38.6282 36.0998 38.7115 36.5243 39.0247 36.7347L39.7867 35.6004ZM39.0387 36.744C39.3533 36.9525 39.7772 36.8665 39.9857 36.552C40.1941 36.2375 40.1081 35.8135 39.7936 35.6051L39.0387 36.744ZM39.8289 35.6277C39.508 35.4291 39.087 35.5282 38.8884 35.849C38.6898 36.1698 38.7889 36.5909 39.1097 36.7895L39.8289 35.6277ZM41.9619 36.7895C42.2827 36.5909 42.3818 36.1698 42.1833 35.849C41.9847 35.5282 41.5636 35.4291 41.2428 35.6277L41.9619 36.7895ZM41.2919 35.5957C40.98 35.8081 40.8993 36.2331 41.1116 36.545C41.324 36.8569 41.749 36.9376 42.0609 36.7252L41.2919 35.5957ZM42.0748 36.7157C42.3853 36.5014 42.4634 36.076 42.2492 35.7654C42.0349 35.4548 41.6094 35.3767 41.2988 35.591L42.0748 36.7157ZM41.333 35.5667C41.0292 35.7905 40.9643 36.2181 41.1881 36.5219C41.4119 36.8257 41.8396 36.8906 42.1434 36.6668L41.333 35.5667ZM42.4547 35.9243C42.832 35.9243 43.1379 35.6184 43.1379 35.2411C43.1379 34.8637 42.832 34.5579 42.4547 34.5579V35.9243ZM42.4576 34.5579C42.0802 34.5579 41.7743 34.8637 41.7743 35.2411C41.7743 35.6184 42.0802 35.9243 42.4576 35.9243V34.5579ZM42.458 35.9243C42.8353 35.9243 43.1412 35.6184 43.1412 35.2411C43.1412 34.8637 42.8353 34.5579 42.458 34.5579V35.9243ZM42.46 34.5579C42.0827 34.5579 41.7768 34.8637 41.7768 35.2411C41.7768 35.6184 42.0827 35.9243 42.46 35.9243V34.5579ZM44.7795 35.0492C45.0601 34.797 45.0831 34.365 44.8308 34.0844C44.5786 33.8038 44.1466 33.7808 43.866 34.0331L44.7795 35.0492ZM43.9516 33.9516C43.6859 34.2194 43.6877 34.652 43.9556 34.9177C44.2235 35.1834 44.6561 35.1817 44.9218 34.9138L43.9516 33.9516ZM44.9415 34.8938C45.205 34.6237 45.1997 34.1912 44.9296 33.9277C44.6596 33.6642 44.227 33.6695 43.9635 33.9395L44.9415 34.8938ZM44.0212 33.8779C43.769 34.1585 43.7919 34.5904 44.0725 34.8427C44.3531 35.095 44.7851 35.072 45.0374 34.7914L44.0212 33.8779ZM45.9124 20.366C45.9124 19.9887 45.6065 19.6828 45.2292 19.6828C44.8519 19.6828 44.546 19.9887 44.546 20.366H45.9124ZM44.546 19.411C44.546 19.7883 44.8519 20.0942 45.2292 20.0942C45.6065 20.0942 45.9124 19.7883 45.9124 19.411H44.546ZM45.9124 19.2746C45.9124 18.8973 45.6065 18.5914 45.2292 18.5914C44.8519 18.5914 44.546 18.8973 44.546 19.2746H45.9124ZM44.546 18.5924C44.546 18.9697 44.8519 19.2756 45.2292 19.2756C45.6065 19.2756 45.9124 18.9697 45.9124 18.5924H44.546ZM45.0374 4.16705C44.7851 3.88645 44.3531 3.86348 44.0725 4.11574C43.7919 4.368 43.769 4.79997 44.0212 5.08057L45.0374 4.16705ZM43.9397 4.99494C44.2076 5.26065 44.6402 5.25889 44.9059 4.99099C45.1716 4.7231 45.1698 4.29052 44.9019 4.02481L43.9397 4.99494ZM44.8819 4.00513C44.6119 3.74161 44.1793 3.74692 43.9158 4.01697C43.6523 4.28703 43.6576 4.71958 43.9277 4.98309L44.8819 4.00513ZM43.866 4.92536C44.1466 5.17762 44.5786 5.15464 44.8308 4.87404C45.0831 4.59344 45.0601 4.16148 44.7795 3.90922L43.866 4.92536ZM30.4131 3.03418C30.0358 3.03418 29.7299 3.34006 29.7299 3.71739C29.7299 4.09471 30.0358 4.40059 30.4131 4.40059V3.03418ZM29.4627 4.40059C29.8401 4.40059 30.1459 4.09471 30.1459 3.71739C30.1459 3.34006 29.8401 3.03418 29.4627 3.03418V4.40059ZM29.327 3.03418C28.9496 3.03418 28.6438 3.34006 28.6438 3.71739C28.6438 4.09471 28.9496 4.40059 29.327 4.40059V3.03418ZM28.6481 4.40059C29.0254 4.40059 29.3313 4.09471 29.3313 3.71739C29.3313 3.34006 29.0254 3.03418 28.6481 3.03418V4.40059ZM16.5648 3.03418C15.6876 3.03418 14.8863 3.36572 14.2817 3.90922L15.1952 4.92536C15.5587 4.59859 16.0378 4.40059 16.5648 4.40059V3.03418ZM14.1395 4.04465C14.1329 4.05129 14.1263 4.05796 14.1198 4.06465L15.0977 5.01893C15.1017 5.0149 15.1056 5.01088 15.1096 5.00688L14.1395 4.04465ZM14.0239 4.16705C13.4804 4.77161 13.1488 5.57299 13.1488 6.45019H14.5152C14.5152 5.92318 14.7132 5.44405 15.04 5.08056L14.0239 4.16705ZM13.1488 6.45019V18.5924H14.5152V6.45019H13.1488ZM13.1488 19.5474V19.6839H14.5152V19.5474H13.1488ZM13.1488 20.366V32.5083H14.5152V20.366H13.1488ZM13.1488 32.5083C13.1488 33.3854 13.4804 34.1868 14.0239 34.7914L15.04 33.8779C14.7132 33.5144 14.5152 33.0353 14.5152 32.5083H13.1488ZM14.1593 34.9336C14.1659 34.9402 14.1726 34.9468 14.1793 34.9533L15.1336 33.9753C15.1295 33.9714 15.1255 33.9675 15.1215 33.9635L14.1593 34.9336ZM14.2817 35.0492C14.8863 35.5927 15.6876 35.9243 16.5648 35.9243V34.5579C16.0378 34.5579 15.5587 34.3598 15.1952 34.0331L14.2817 35.0492ZM16.5648 35.9243H16.9073V34.5579H16.5648V35.9243ZM16.9342 35.9243H16.9381V34.5579H16.9342V35.9243ZM16.9573 35.9243H17.2998V34.5579H16.9573V35.9243ZM16.6662 35.4968C16.8562 35.9672 17.1734 36.3712 17.5747 36.6668L18.3851 35.5667C18.1848 35.4191 18.0271 35.2178 17.9333 34.9853L16.6662 35.4968ZM17.6712 36.7347C17.6758 36.7378 17.6805 36.7409 17.6852 36.744L18.44 35.6051C18.4377 35.6035 18.4354 35.602 18.4331 35.6004L17.6712 36.7347ZM17.7562 36.7895C18.171 37.0462 18.6603 37.1943 19.1822 37.1943V35.8279C18.9217 35.8279 18.6803 35.7545 18.4753 35.6277L17.7562 36.7895ZM19.1822 37.1943C19.7041 37.1943 20.1935 37.0462 20.6083 36.7895L19.8892 35.6277C19.6842 35.7545 19.4428 35.8279 19.1822 35.8279V37.1943ZM20.7073 36.7252C20.7119 36.7221 20.7166 36.7189 20.7212 36.7157L19.9453 35.591C19.943 35.5926 19.9406 35.5942 19.9383 35.5957L20.7073 36.7252ZM20.7898 36.6668C21.1911 36.3712 21.5083 35.9672 21.6982 35.4968L20.4312 34.9853C20.3373 35.2178 20.1797 35.4191 19.9794 35.5667L20.7898 36.6668ZM21.0647 35.9243H29.2605V34.5579H21.0647V35.9243ZM29.9051 35.9243H29.9972V34.5579H29.9051V35.9243ZM30.4576 35.9243H38.6533V34.5579H30.4576V35.9243ZM38.0198 35.4968C38.2097 35.9672 38.527 36.3712 38.9283 36.6668L39.7387 35.5667C39.5384 35.4191 39.3807 35.2178 39.2869 34.9853L38.0198 35.4968ZM39.0247 36.7347C39.0294 36.7378 39.0341 36.7409 39.0387 36.744L39.7936 35.6051C39.7913 35.6035 39.789 35.602 39.7867 35.6004L39.0247 36.7347ZM39.1097 36.7895C39.5245 37.0462 40.0139 37.1943 40.5358 37.1943V35.8279C40.2752 35.8279 40.0339 35.7545 39.8289 35.6277L39.1097 36.7895ZM40.5358 37.1943C41.0577 37.1943 41.5471 37.0462 41.9619 36.7895L41.2428 35.6277C41.0378 35.7545 40.7964 35.8279 40.5358 35.8279V37.1943ZM42.0609 36.7252C42.0655 36.7221 42.0701 36.7189 42.0748 36.7157L41.2988 35.591C41.2965 35.5926 41.2942 35.5942 41.2919 35.5957L42.0609 36.7252ZM42.1434 36.6668C42.5447 36.3712 42.8619 35.9672 43.0518 35.4968L41.7848 34.9853C41.6909 35.2178 41.5333 35.4191 41.333 35.5667L42.1434 36.6668ZM42.4183 35.9243H42.4547V34.5579H42.4183V35.9243ZM42.4576 35.9243H42.458V34.5579H42.4576V35.9243ZM42.46 35.9243H42.4964V34.5579H42.46V35.9243ZM42.4964 35.9243C43.3736 35.9243 44.175 35.5927 44.7795 35.0492L43.866 34.0331C43.5025 34.3598 43.0234 34.5579 42.4964 34.5579V35.9243ZM44.9218 34.9138C44.9284 34.9071 44.9349 34.9005 44.9415 34.8938L43.9635 33.9395C43.9596 33.9435 43.9556 33.9476 43.9516 33.9516L44.9218 34.9138ZM45.0374 34.7914C45.5809 34.1868 45.9124 33.3854 45.9124 32.5083H44.546C44.546 33.0353 44.348 33.5144 44.0212 33.8779L45.0374 34.7914ZM45.9124 32.5083V20.366H44.546V32.5083H45.9124ZM45.9124 19.411V19.2746H44.546V19.411H45.9124ZM45.9124 18.5924V6.45019H44.546V18.5924H45.9124ZM45.9124 6.45019C45.9124 5.57299 45.5809 4.77161 45.0374 4.16705L44.0212 5.08057C44.348 5.44405 44.546 5.92319 44.546 6.45019H45.9124ZM44.9019 4.02481C44.8953 4.01822 44.8886 4.01166 44.8819 4.00513L43.9277 4.98309C43.9317 4.98703 43.9357 4.99097 43.9397 4.99494L44.9019 4.02481ZM44.7795 3.90922C44.175 3.36572 43.3736 3.03418 42.4964 3.03418V4.40059C43.0234 4.40059 43.5025 4.59859 43.866 4.92536L44.7795 3.90922ZM42.4964 3.03418H30.4131V4.40059H42.4964V3.03418ZM29.4627 3.03418H29.327V4.40059H29.4627V3.03418ZM28.6481 3.03418H16.5648V4.40059H28.6481V3.03418Z" fill="#264887"/>
<path fill-rule="evenodd" clip-rule="evenodd" d="M17.2651 8.22529C17.2651 7.47065 17.8769 6.85889 18.6315 6.85889H40.8536C41.6082 6.85889 42.22 7.47065 42.22 8.22529V30.4293C42.22 31.184 41.6082 31.7957 40.8536 31.7957H18.6315C17.8769 31.7957 17.2651 31.184 17.2651 30.4293V8.22529Z" fill="white"/>
<path d="M20 7H18.3664C17.6118 7 17 7.61182 17 8.36621V30.5703C17 31.3252 17.6118 31.937 18.3664 31.937H40.5883C41.343 31.937 41.9548 31.3252 41.9548 30.5703V28.937H21.3664C20.6118 28.937 20 28.3252 20 27.5703V7Z" fill="#B5D9F1"/>
<path fill-rule="evenodd" clip-rule="evenodd" d="M17.2651 8.22529C17.2651 7.47065 17.8769 6.85889 18.6315 6.85889H40.8536C41.6082 6.85889 42.22 7.47065 42.22 8.22529V30.4293C42.22 31.184 41.6082 31.7957 40.8536 31.7957H18.6315C17.8769 31.7957 17.2651 31.184 17.2651 30.4293V8.22529Z" stroke="#264887" stroke-width="1.25" stroke-linecap="round" stroke-linejoin="round"/>
<path fill-rule="evenodd" clip-rule="evenodd" d="M15.9248 11.2585C15.9248 10.4928 16.5455 9.87207 17.3112 9.87207C18.0769 9.87207 18.6976 10.4928 18.6976 11.2584V14.3351C18.6976 15.1007 18.0769 15.7215 17.3112 15.7215C16.5455 15.7215 15.9248 15.1007 15.9248 14.3351V11.2585Z" fill="white"/>
<path fill-rule="evenodd" clip-rule="evenodd" d="M15.9248 11.2585C15.9248 10.4928 16.5455 9.87207 17.3112 9.87207C18.0769 9.87207 18.6976 10.4928 18.6976 11.2584V14.3351C18.6976 15.1007 18.0769 15.7215 17.3112 15.7215C16.5455 15.7215 15.9248 15.1007 15.9248 14.3351V11.2585Z" stroke="#264887" stroke-width="1.25" stroke-linecap="round" stroke-linejoin="round"/>
<path fill-rule="evenodd" clip-rule="evenodd" d="M15.9248 25.6535C15.9248 24.8878 16.5455 24.2671 17.3112 24.2671C18.0769 24.2671 18.6976 24.8878 18.6976 25.6535V28.7301C18.6976 29.4958 18.0769 30.1165 17.3112 30.1165C16.5455 30.1165 15.9248 29.4958 15.9248 28.7301V25.6535Z" fill="white"/>
<path fill-rule="evenodd" clip-rule="evenodd" d="M15.9248 25.6535C15.9248 24.8878 16.5455 24.2671 17.3112 24.2671C18.0769 24.2671 18.6976 24.8878 18.6976 25.6535V28.7301C18.6976 29.4958 18.0769 30.1165 17.3112 30.1165C16.5455 30.1165 15.9248 29.4958 15.9248 28.7301V25.6535Z" stroke="#264887" stroke-width="1.25" stroke-linecap="round" stroke-linejoin="round"/>
<path d="M29.4928 24.894C32.3354 24.894 34.6405 22.5912 34.6405 19.7495C34.6405 16.9078 32.3354 14.605 29.4928 14.605C26.6501 14.605 24.345 16.9078 24.345 19.7495C24.345 22.5912 26.6501 24.894 29.4928 24.894Z" stroke="#264887" stroke-width="1.25"/>
<path fill-rule="evenodd" clip-rule="evenodd" d="M30.221 14.5202C30.221 14.169 29.9399 13.8882 29.5931 13.8882C29.2439 13.8882 28.9652 14.1712 28.9652 14.5202V17.6391C28.1627 17.9033 27.5832 18.6607 27.5832 19.5538C27.5832 19.7261 27.6048 19.8934 27.6454 20.0531L24.9044 21.9777C24.6195 22.1778 24.55 22.5707 24.7489 22.8555C24.9492 23.1424 25.3399 23.2092 25.6247 23.0093L28.3223 21.1151C28.6685 21.3986 29.1107 21.5687 29.5925 21.5687C30.1278 21.5687 30.6143 21.3587 30.9744 21.0164L33.8118 23.0088C34.0968 23.2088 34.4887 23.1399 34.6876 22.855C34.8879 22.5682 34.8169 22.1772 34.5321 21.9772L31.5724 19.899C31.5917 19.7868 31.6017 19.6715 31.6017 19.5538C31.6017 18.6611 31.0228 17.9041 30.221 17.6395V14.5202Z" fill="#D22D27"/>
<defs>
<clipPath id="clip0">
<rect width="60" height="40" fill="white"/>
</clipPath>
</defs>
</svg>
