<svg width="60" height="40" viewBox="0 0 60 40" fill="none" xmlns="http://www.w3.org/2000/svg">
<rect x="52.0416" y="1" width="2.5" height="2.66877" stroke="#D7DBE0" stroke-linecap="round" stroke-linejoin="round"/>
<rect width="2.5" height="2.5" transform="matrix(0.683654 -0.729807 0.683654 0.729807 3 7.68945)" stroke="#D7DBE0" stroke-linecap="round" stroke-linejoin="round"/>
<path d="M51.5122 19.5082L53.8876 22.0439" stroke="#D7DBE0" stroke-linecap="round" stroke-linejoin="round"/>
<path d="M53.8039 19.5082L51.4285 22.0439" stroke="#D7DBE0" stroke-linecap="round" stroke-linejoin="round"/>
<path d="M13.832 37.877H46.6256" stroke="#D7DBE0" stroke-width="1.25" stroke-linecap="round" stroke-dasharray="0.68 4.1 112.04 3.42"/>
<path fill-rule="evenodd" clip-rule="evenodd" d="M13.832 6.45009C13.832 4.9408 15.0555 3.71729 16.5648 3.71729H42.4964C44.0057 3.71729 45.2292 4.9408 45.2292 6.45009V32.5082C45.2292 34.0174 44.0057 35.241 42.4964 35.241H42.4183C42.1177 35.9856 41.3881 36.511 40.5358 36.511C39.6835 36.511 38.9539 35.9856 38.6533 35.241H21.0647C20.7641 35.9856 20.0345 36.511 19.1822 36.511C18.3299 36.511 17.6003 35.9856 17.2997 35.241H16.5648C15.0555 35.241 13.832 34.0174 13.832 32.5082V6.45009Z" fill="white"/>
<path d="M42.4183 35.241V34.5578H41.9573L41.7847 34.9852L42.4183 35.241ZM38.6533 35.241L39.2868 34.9852L39.1143 34.5578H38.6533V35.241ZM21.0647 35.241V34.5578H20.6037L20.4312 34.9852L21.0647 35.241ZM17.2997 35.241L17.9333 34.9852L17.7607 34.5578H17.2997V35.241ZM14.2817 3.90912C14.0011 4.16137 13.9781 4.59334 14.2304 4.87394C14.4826 5.15454 14.9146 5.17752 15.1952 4.92526L14.2817 3.90912ZM15.1096 5.00678C15.3753 4.73889 15.3735 4.30631 15.1056 4.0406C14.8377 3.77489 14.4051 3.77665 14.1394 4.04455L15.1096 5.00678ZM14.1197 4.06455C13.8562 4.33461 13.8615 4.76715 14.1316 5.03067C14.4016 5.29419 14.8342 5.28888 15.0977 5.01883L14.1197 4.06455ZM15.04 5.08046C15.2922 4.79987 15.2693 4.3679 14.9887 4.11564C14.7081 3.86338 14.2761 3.88635 14.0238 4.16695L15.04 5.08046ZM13.1488 18.5923C13.1488 18.9696 13.4547 19.2755 13.832 19.2755C14.2093 19.2755 14.5152 18.9696 14.5152 18.5923H13.1488ZM14.5152 19.5473C14.5152 19.17 14.2093 18.8641 13.832 18.8641C13.4547 18.8641 13.1488 19.17 13.1488 19.5473H14.5152ZM13.1488 19.6838C13.1488 20.0611 13.4547 20.367 13.832 20.367C14.2093 20.367 14.5152 20.0611 14.5152 19.6838H13.1488ZM14.5152 20.3659C14.5152 19.9886 14.2093 19.6827 13.832 19.6827C13.4547 19.6827 13.1488 19.9886 13.1488 20.3659H14.5152ZM14.0238 34.7913C14.2761 35.0719 14.7081 35.0949 14.9887 34.8426C15.2693 34.5903 15.2922 34.1584 15.04 33.8778L14.0238 34.7913ZM15.1215 33.9634C14.8536 33.6977 14.421 33.6995 14.1553 33.9673C13.8896 34.2352 13.8914 34.6678 14.1593 34.9335L15.1215 33.9634ZM14.1793 34.9532C14.4493 35.2167 14.8819 35.2114 15.1454 34.9414C15.4089 34.6713 15.4036 34.2388 15.1335 33.9752L14.1793 34.9532ZM15.1952 34.033C14.9146 33.7807 14.4826 33.8037 14.2304 34.0843C13.9781 34.3649 14.0011 34.7969 14.2817 35.0491L15.1952 34.033ZM16.9073 35.9242C17.2846 35.9242 17.5905 35.6183 17.5905 35.241C17.5905 34.8636 17.2846 34.5578 16.9073 34.5578V35.9242ZM16.9342 34.5578C16.5569 34.5578 16.251 34.8636 16.251 35.241C16.251 35.6183 16.5569 35.9242 16.9342 35.9242V34.5578ZM16.938 35.9242C17.3154 35.9242 17.6212 35.6183 17.6212 35.241C17.6212 34.8636 17.3154 34.5578 16.938 34.5578V35.9242ZM16.9573 34.5578C16.58 34.5578 16.2741 34.8636 16.2741 35.241C16.2741 35.6183 16.58 35.9242 16.9573 35.9242V34.5578ZM17.5747 36.6667C17.8784 36.8905 18.3061 36.8256 18.5299 36.5218C18.7537 36.218 18.6889 35.7904 18.3851 35.5666L17.5747 36.6667ZM18.433 35.6003C18.1198 35.3899 17.6954 35.4733 17.485 35.7865C17.2746 36.0997 17.3579 36.5242 17.6711 36.7346L18.433 35.6003ZM17.6851 36.7439C17.9997 36.9524 18.4236 36.8664 18.6321 36.5519C18.8405 36.2374 18.7545 35.8134 18.44 35.605L17.6851 36.7439ZM18.4753 35.6276C18.1544 35.429 17.7334 35.5281 17.5348 35.8489C17.3362 36.1697 17.4353 36.5908 17.7561 36.7894L18.4753 35.6276ZM20.6083 36.7894C20.9291 36.5908 21.0282 36.1697 20.8296 35.8489C20.6311 35.5281 20.21 35.429 19.8892 35.6276L20.6083 36.7894ZM19.9383 35.5956C19.6264 35.808 19.5457 36.233 19.758 36.5449C19.9704 36.8568 20.3954 36.9375 20.7073 36.7251L19.9383 35.5956ZM20.7212 36.7156C21.0317 36.5013 21.1098 36.0759 20.8955 35.7653C20.6813 35.4547 20.2558 35.3766 19.9452 35.5909L20.7212 36.7156ZM19.9793 35.5666C19.6756 35.7904 19.6107 36.218 19.8345 36.5218C20.0583 36.8256 20.486 36.8905 20.7898 36.6667L19.9793 35.5666ZM29.2604 35.9242C29.6378 35.9242 29.9436 35.6183 29.9436 35.241C29.9436 34.8636 29.6378 34.5578 29.2604 34.5578V35.9242ZM29.905 34.5578C29.5277 34.5578 29.2218 34.8636 29.2218 35.241C29.2218 35.6183 29.5277 35.9242 29.905 35.9242V34.5578ZM29.9971 35.9242C30.3745 35.9242 30.6803 35.6183 30.6803 35.241C30.6803 34.8636 30.3745 34.5578 29.9971 34.5578V35.9242ZM30.4576 34.5578C30.0802 34.5578 29.7744 34.8636 29.7744 35.241C29.7744 35.6183 30.0802 35.9242 30.4576 35.9242V34.5578ZM38.9282 36.6667C39.232 36.8905 39.6597 36.8256 39.8835 36.5218C40.1073 36.218 40.0424 35.7904 39.7387 35.5666L38.9282 36.6667ZM39.7866 35.6003C39.4734 35.3899 39.0489 35.4733 38.8385 35.7865C38.6281 36.0997 38.7115 36.5242 39.0247 36.7346L39.7866 35.6003ZM39.0387 36.7439C39.3532 36.9524 39.7772 36.8664 39.9856 36.5519C40.1941 36.2374 40.1081 35.8134 39.7936 35.605L39.0387 36.7439ZM39.8288 35.6276C39.508 35.429 39.0869 35.5281 38.8883 35.8489C38.6898 36.1697 38.7889 36.5908 39.1097 36.7894L39.8288 35.6276ZM41.9619 36.7894C42.2827 36.5908 42.3818 36.1697 42.1832 35.8489C41.9846 35.5281 41.5636 35.429 41.2427 35.6276L41.9619 36.7894ZM41.2919 35.5956C40.98 35.808 40.8993 36.233 41.1116 36.5449C41.324 36.8568 41.7489 36.9375 42.0608 36.7251L41.2919 35.5956ZM42.0747 36.7156C42.3853 36.5013 42.4634 36.0759 42.2491 35.7653C42.0349 35.4547 41.6094 35.3766 41.2988 35.5909L42.0747 36.7156ZM41.3329 35.5666C41.0291 35.7904 40.9643 36.218 41.1881 36.5218C41.4119 36.8256 41.8396 36.8905 42.1433 36.6667L41.3329 35.5666ZM42.4547 35.9242C42.832 35.9242 43.1379 35.6183 43.1379 35.241C43.1379 34.8636 42.832 34.5578 42.4547 34.5578V35.9242ZM42.4575 34.5578C42.0802 34.5578 41.7743 34.8636 41.7743 35.241C41.7743 35.6183 42.0802 35.9242 42.4575 35.9242V34.5578ZM42.4579 35.9242C42.8352 35.9242 43.1411 35.6183 43.1411 35.241C43.1411 34.8636 42.8352 34.5578 42.4579 34.5578V35.9242ZM42.46 34.5578C42.0827 34.5578 41.7768 34.8636 41.7768 35.241C41.7768 35.6183 42.0827 35.9242 42.46 35.9242V34.5578ZM44.7795 35.0491C45.0601 34.7969 45.0831 34.3649 44.8308 34.0843C44.5786 33.8037 44.1466 33.7807 43.866 34.033L44.7795 35.0491ZM43.9516 33.9515C43.6859 34.2193 43.6877 34.6519 43.9556 34.9176C44.2235 35.1833 44.656 35.1816 44.9217 34.9137L43.9516 33.9515ZM44.9414 34.8937C45.2049 34.6236 45.1996 34.1911 44.9296 33.9276C44.6595 33.6641 44.227 33.6694 43.9635 33.9394L44.9414 34.8937ZM44.0212 33.8778C43.7689 34.1584 43.7919 34.5903 44.0725 34.8426C44.3531 35.0949 44.7851 35.0719 45.0373 34.7913L44.0212 33.8778ZM45.9124 20.3659C45.9124 19.9886 45.6065 19.6827 45.2292 19.6827C44.8519 19.6827 44.546 19.9886 44.546 20.3659H45.9124ZM44.546 19.4109C44.546 19.7882 44.8519 20.0941 45.2292 20.0941C45.6065 20.0941 45.9124 19.7882 45.9124 19.4109H44.546ZM45.9124 19.2745C45.9124 18.8972 45.6065 18.5913 45.2292 18.5913C44.8519 18.5913 44.546 18.8972 44.546 19.2745H45.9124ZM44.546 18.5923C44.546 18.9696 44.8519 19.2755 45.2292 19.2755C45.6065 19.2755 45.9124 18.9696 45.9124 18.5923H44.546ZM45.0373 4.16695C44.7851 3.88635 44.3531 3.86338 44.0725 4.11564C43.7919 4.3679 43.7689 4.79987 44.0212 5.08047L45.0373 4.16695ZM43.9397 4.99484C44.2076 5.26055 44.6401 5.25879 44.9059 4.99089C45.1716 4.723 45.1698 4.29042 44.9019 4.02471L43.9397 4.99484ZM44.8819 4.00503C44.6118 3.74151 44.1793 3.74682 43.9158 4.01687C43.6523 4.28693 43.6576 4.71948 43.9276 4.98299L44.8819 4.00503ZM43.866 4.92526C44.1466 5.17752 44.5786 5.15454 44.8308 4.87394C45.0831 4.59334 45.0601 4.16138 44.7795 3.90912L43.866 4.92526ZM30.4131 3.03408C30.0358 3.03408 29.7299 3.33996 29.7299 3.71729C29.7299 4.09461 30.0358 4.40049 30.4131 4.40049V3.03408ZM29.4627 4.40049C29.84 4.40049 30.1459 4.09461 30.1459 3.71729C30.1459 3.33996 29.84 3.03408 29.4627 3.03408V4.40049ZM29.3269 3.03408C28.9496 3.03408 28.6437 3.33996 28.6437 3.71729C28.6437 4.09461 28.9496 4.40049 29.3269 4.40049V3.03408ZM28.6481 4.40049C29.0254 4.40049 29.3313 4.09461 29.3313 3.71729C29.3313 3.33996 29.0254 3.03408 28.6481 3.03408V4.40049ZM16.5648 3.03408C15.6876 3.03408 14.8862 3.36562 14.2817 3.90912L15.1952 4.92526C15.5587 4.59849 16.0378 4.40049 16.5648 4.40049V3.03408ZM14.1394 4.04455C14.1328 4.05119 14.1263 4.05786 14.1197 4.06455L15.0977 5.01883C15.1016 5.0148 15.1056 5.01078 15.1096 5.00678L14.1394 4.04455ZM14.0238 4.16695C13.4803 4.77151 13.1488 5.57289 13.1488 6.45009H14.5152C14.5152 5.92308 14.7132 5.44395 15.04 5.08046L14.0238 4.16695ZM13.1488 6.45009V18.5923H14.5152V6.45009H13.1488ZM13.1488 19.5473V19.6838H14.5152V19.5473H13.1488ZM13.1488 20.3659V32.5082H14.5152V20.3659H13.1488ZM13.1488 32.5082C13.1488 33.3853 13.4803 34.1867 14.0238 34.7913L15.04 33.8778C14.7132 33.5143 14.5152 33.0352 14.5152 32.5082H13.1488ZM14.1593 34.9335C14.1659 34.9401 14.1726 34.9467 14.1793 34.9532L15.1335 33.9752C15.1295 33.9713 15.1255 33.9674 15.1215 33.9634L14.1593 34.9335ZM14.2817 35.0491C14.8862 35.5926 15.6876 35.9242 16.5648 35.9242V34.5578C16.0378 34.5578 15.5587 34.3597 15.1952 34.033L14.2817 35.0491ZM16.5648 35.9242H16.9073V34.5578H16.5648V35.9242ZM16.9342 35.9242H16.938V34.5578H16.9342V35.9242ZM16.9573 35.9242H17.2997V34.5578H16.9573V35.9242ZM16.6662 35.4967C16.8561 35.9671 17.1734 36.3711 17.5747 36.6667L18.3851 35.5666C18.1848 35.419 18.0271 35.2177 17.9333 34.9852L16.6662 35.4967ZM17.6711 36.7346C17.6758 36.7377 17.6805 36.7408 17.6851 36.7439L18.44 35.605C18.4377 35.6034 18.4354 35.6019 18.433 35.6003L17.6711 36.7346ZM17.7561 36.7894C18.1709 37.0461 18.6603 37.1942 19.1822 37.1942V35.8278C18.9216 35.8278 18.6803 35.7544 18.4753 35.6276L17.7561 36.7894ZM19.1822 37.1942C19.7041 37.1942 20.1935 37.0461 20.6083 36.7894L19.8892 35.6276C19.6842 35.7544 19.4428 35.8278 19.1822 35.8278V37.1942ZM20.7073 36.7251C20.7119 36.722 20.7165 36.7188 20.7212 36.7156L19.9452 35.5909C19.9429 35.5925 19.9406 35.5941 19.9383 35.5956L20.7073 36.7251ZM20.7898 36.6667C21.1911 36.3711 21.5083 35.9671 21.6982 35.4967L20.4312 34.9852C20.3373 35.2177 20.1797 35.419 19.9793 35.5666L20.7898 36.6667ZM21.0647 35.9242H29.2604V34.5578H21.0647V35.9242ZM29.905 35.9242H29.9971V34.5578H29.905V35.9242ZM30.4576 35.9242H38.6533V34.5578H30.4576V35.9242ZM38.0198 35.4967C38.2097 35.9671 38.5269 36.3711 38.9282 36.6667L39.7387 35.5666C39.5383 35.419 39.3807 35.2177 39.2868 34.9852L38.0198 35.4967ZM39.0247 36.7346C39.0294 36.7377 39.034 36.7408 39.0387 36.7439L39.7936 35.605C39.7913 35.6034 39.7889 35.6019 39.7866 35.6003L39.0247 36.7346ZM39.1097 36.7894C39.5245 37.0461 40.0139 37.1942 40.5358 37.1942V35.8278C40.2752 35.8278 40.0338 35.7544 39.8288 35.6276L39.1097 36.7894ZM40.5358 37.1942C41.0577 37.1942 41.5471 37.0461 41.9619 36.7894L41.2427 35.6276C41.0377 35.7544 40.7964 35.8278 40.5358 35.8278V37.1942ZM42.0608 36.7251C42.0655 36.722 42.0701 36.7188 42.0747 36.7156L41.2988 35.5909C41.2965 35.5925 41.2942 35.5941 41.2919 35.5956L42.0608 36.7251ZM42.1433 36.6667C42.5446 36.3711 42.8619 35.9671 43.0518 35.4967L41.7847 34.9852C41.6909 35.2177 41.5332 35.419 41.3329 35.5666L42.1433 36.6667ZM42.4183 35.9242H42.4547V34.5578H42.4183V35.9242ZM42.4575 35.9242H42.4579V34.5578H42.4575V35.9242ZM42.46 35.9242H42.4964V34.5578H42.46V35.9242ZM42.4964 35.9242C43.3736 35.9242 44.1749 35.5926 44.7795 35.0491L43.866 34.033C43.5025 34.3597 43.0234 34.5578 42.4964 34.5578V35.9242ZM44.9217 34.9137C44.9283 34.907 44.9349 34.9004 44.9414 34.8937L43.9635 33.9394C43.9595 33.9434 43.9556 33.9475 43.9516 33.9515L44.9217 34.9137ZM45.0373 34.7913C45.5808 34.1867 45.9124 33.3853 45.9124 32.5082H44.546C44.546 33.0352 44.348 33.5143 44.0212 33.8778L45.0373 34.7913ZM45.9124 32.5082V20.3659H44.546V32.5082H45.9124ZM45.9124 19.4109V19.2745H44.546V19.4109H45.9124ZM45.9124 18.5923V6.45009H44.546V18.5923H45.9124ZM45.9124 6.45009C45.9124 5.57289 45.5808 4.77151 45.0373 4.16695L44.0212 5.08047C44.348 5.44395 44.546 5.92309 44.546 6.45009H45.9124ZM44.9019 4.02471C44.8953 4.01812 44.8886 4.01156 44.8819 4.00503L43.9276 4.98299C43.9317 4.98693 43.9357 4.99087 43.9397 4.99484L44.9019 4.02471ZM44.7795 3.90912C44.1749 3.36562 43.3736 3.03408 42.4964 3.03408V4.40049C43.0234 4.40049 43.5025 4.59849 43.866 4.92526L44.7795 3.90912ZM42.4964 3.03408H30.4131V4.40049H42.4964V3.03408ZM29.4627 3.03408H29.3269V4.40049H29.4627V3.03408ZM28.6481 3.03408H16.5648V4.40049H28.6481V3.03408Z" fill="#D7DBE0"/>
<path fill-rule="evenodd" clip-rule="evenodd" d="M17.265 8.22529C17.265 7.47065 17.8768 6.85889 18.6314 6.85889H40.8535C41.6081 6.85889 42.2199 7.47065 42.2199 8.22529V30.4293C42.2199 31.184 41.6081 31.7957 40.8535 31.7957H18.6314C17.8768 31.7957 17.265 31.184 17.265 30.4293V8.22529Z" fill="white" stroke="#D7DBE0" stroke-width="1.25" stroke-linecap="round" stroke-linejoin="round"/>
<path fill-rule="evenodd" clip-rule="evenodd" d="M15.9248 11.2585C15.9248 10.4928 16.5455 9.87207 17.3112 9.87207C18.0769 9.87207 18.6976 10.4928 18.6976 11.2584V14.3351C18.6976 15.1007 18.0769 15.7215 17.3112 15.7215C16.5455 15.7215 15.9248 15.1007 15.9248 14.3351V11.2585Z" fill="white" stroke="#D7DBE0" stroke-width="1.25" stroke-linecap="round" stroke-linejoin="round"/>
<path fill-rule="evenodd" clip-rule="evenodd" d="M15.9248 25.6535C15.9248 24.8878 16.5455 24.2671 17.3112 24.2671C18.0769 24.2671 18.6976 24.8878 18.6976 25.6535V28.7301C18.6976 29.4958 18.0769 30.1165 17.3112 30.1165C16.5455 30.1165 15.9248 29.4958 15.9248 28.7301V25.6535Z" fill="white" stroke="#D7DBE0" stroke-width="1.25" stroke-linecap="round" stroke-linejoin="round"/>
<path d="M29.4928 24.894C32.3355 24.894 34.6406 22.5912 34.6406 19.7495C34.6406 16.9078 32.3355 14.605 29.4928 14.605C26.6502 14.605 24.3451 16.9078 24.3451 19.7495C24.3451 22.5912 26.6502 24.894 29.4928 24.894Z" stroke="#D7DBE0" stroke-width="1.25"/>
<path fill-rule="evenodd" clip-rule="evenodd" d="M30.2209 14.5202C30.2209 14.169 29.9398 13.8882 29.593 13.8882C29.2438 13.8882 28.9651 14.1712 28.9651 14.5202V17.6391C28.1626 17.9033 27.5831 18.6607 27.5831 19.5538C27.5831 19.7261 27.6047 19.8934 27.6453 20.0531L24.9043 21.9777C24.6194 22.1778 24.5499 22.5707 24.7488 22.8556C24.9491 23.1424 25.3398 23.2092 25.6246 23.0093L28.3222 21.1151C28.6684 21.3986 29.1106 21.5687 29.5924 21.5687C30.1277 21.5687 30.6142 21.3587 30.9743 21.0164L33.8117 23.0088C34.0967 23.2089 34.4886 23.1399 34.6875 22.8551C34.8878 22.5682 34.8168 22.1772 34.532 21.9772L31.5723 19.899C31.5916 19.7868 31.6016 19.6715 31.6016 19.5538C31.6016 18.6612 31.0227 17.9041 30.2209 17.6395V14.5202Z" fill="#D7DBE0"/>
</svg>
