<svg width="24" height="24" viewBox="0 0 24 24" fill="none" xmlns="http://www.w3.org/2000/svg">
<g clip-path="url(#clip0)">
<path d="M8.49836 7.16803C10.0198 4.41298 13.98 4.41298 15.5014 7.16802L20.5487 16.3076C22.021 18.9735 20.0927 22.2413 17.0472 22.2413H6.9526C3.90714 22.2413 1.97879 18.9735 3.45106 16.3076L8.49836 7.16803Z" fill="white"/>
<path d="M23.1187 20L13.7717 2.15004C13.6023 1.82678 13.3477 1.55604 13.0354 1.36713C12.7231 1.17823 12.3651 1.07837 12.0002 1.07837C11.6352 1.07837 11.2772 1.17823 10.965 1.36713C10.6527 1.55604 10.3981 1.82678 10.2287 2.15004L0.880673 20C0.720994 20.3049 0.642677 20.6458 0.653296 20.9898C0.663915 21.3337 0.76311 21.6691 0.941289 21.9636C1.11947 22.258 1.3706 22.5014 1.67041 22.6704C1.97021 22.8394 2.30854 22.9281 2.65267 22.928H21.3467C21.6908 22.9281 22.0291 22.8394 22.3289 22.6704C22.6287 22.5014 22.8799 22.258 23.0581 21.9636C23.2362 21.6691 23.3354 21.3337 23.346 20.9898C23.3567 20.6458 23.2783 20.3049 23.1187 20ZM10.9997 8.42304C10.9997 8.15783 11.105 7.90347 11.2926 7.71594C11.4801 7.5284 11.7345 7.42304 11.9997 7.42304C12.2649 7.42304 12.5192 7.5284 12.7068 7.71594C12.8943 7.90347 12.9997 8.15783 12.9997 8.42304V14.423C12.9997 14.6883 12.8943 14.9426 12.7068 15.1302C12.5192 15.3177 12.2649 15.423 11.9997 15.423C11.7345 15.423 11.4801 15.3177 11.2926 15.1302C11.105 14.9426 10.9997 14.6883 10.9997 14.423V8.42304ZM12.0497 19.933H12.0217C11.6273 19.9318 11.2487 19.7781 10.9651 19.5041C10.6814 19.2302 10.5146 18.8571 10.4997 18.463C10.4925 18.2671 10.5244 18.0716 10.5936 17.8881C10.6628 17.7046 10.7678 17.5367 10.9027 17.3942C11.0375 17.2518 11.1993 17.1376 11.3787 17.0584C11.5582 16.9793 11.7516 16.9366 11.9477 16.933H11.9757C12.37 16.9335 12.7488 17.0865 13.0328 17.3599C13.3169 17.6334 13.4842 18.0061 13.4997 18.4C13.5074 18.5965 13.4758 18.7925 13.4068 18.9765C13.3377 19.1606 13.2325 19.329 13.0974 19.4718C12.9623 19.6146 12.8 19.729 12.6201 19.8082C12.4402 19.8874 12.2462 19.9299 12.0497 19.933Z" fill="#EDBF0E"/>
</g>
<defs>
<clipPath id="clip0">
<rect width="24" height="24" fill="white"/>
</clipPath>
</defs>
</svg>
