<svg width="151" height="152" viewBox="0 0 151 152" fill="none" xmlns="http://www.w3.org/2000/svg">
<path fill-rule="evenodd" clip-rule="evenodd" d="M30.6298 130.72C20.7818 126.839 19.8944 113.248 29.1543 108.119V108.119L29.1729 120.417C29.174 121.029 29.5004 121.594 30.0305 121.9L78.8486 149.722L30.6298 130.72Z" fill="#333333" fill-opacity="0.2"/>
<path fill-rule="evenodd" clip-rule="evenodd" d="M31.9414 56.8775L93.0152 21.9249C94.1125 21.2969 95.5368 20.9978 96.7691 21.2812C98.5001 21.6798 100.123 22.224 100.119 23.7379L100.212 80.4498L94.8384 83.6216C96.5969 84.4767 150.207 110.545 150.296 110.609L150.425 112.797C150.425 113.741 149.925 114.611 149.108 115.085C139.982 120.365 86.5247 151.238 86.5247 151.238C84.7656 152.254 82.598 152.254 80.8395 151.238L30.0304 121.899C29.5003 121.593 29.1739 121.028 29.1728 120.416L29.0845 61.7876C29.0895 59.7581 30.179 57.886 31.9414 56.8775" fill="#C6C6C6"/>
<path fill-rule="evenodd" clip-rule="evenodd" d="M30.8839 120.223L100.265 80.6743L100.408 24.0873C100.413 22.4524 98.6445 21.4259 97.2247 22.2382L33.2445 58.8543C31.8512 59.6515 30.9908 61.1312 30.9863 62.7345L30.8839 120.223" fill="#666666"/>
<path fill-rule="evenodd" clip-rule="evenodd" d="M97.5538 25.5254L34.0356 61.9486L33.9033 115.222L97.5538 78.7186V25.5254" fill="#03BCFC"/>
<path fill-rule="evenodd" clip-rule="evenodd" d="M30.9239 120.22L100.269 80.2676L149.309 108.584C150.726 109.402 150.725 111.445 149.309 112.262L85.4678 149.12C84.0778 149.923 82.3649 149.923 80.9744 149.12L30.9239 120.22" fill="#F4F4F4"/>
<path fill-rule="evenodd" clip-rule="evenodd" d="M50.1161 121.451C48.7352 122.243 48.0447 122.64 46.6638 123.432C45.2671 122.643 44.5693 122.249 43.1732 121.461C44.5541 120.669 45.2446 120.272 46.6255 119.479C48.0217 120.269 48.72 120.663 50.1161 121.451" fill="#C6C6C6"/>
<path fill-rule="evenodd" clip-rule="evenodd" d="M55.2121 118.526C53.8312 119.318 53.1407 119.715 51.7598 120.507C50.3637 119.718 49.6653 119.324 48.2692 118.536C49.6502 117.743 50.3406 117.347 51.7215 116.555C53.1182 117.343 53.816 117.738 55.2121 118.526" fill="#C6C6C6"/>
<path fill-rule="evenodd" clip-rule="evenodd" d="M60.3088 115.603C58.9279 116.395 58.2374 116.791 56.8559 117.583C55.4598 116.795 54.7615 116.401 53.3654 115.612C54.7468 114.82 55.4373 114.424 56.8182 113.632C58.2144 114.42 58.9127 114.815 60.3088 115.603" fill="#C6C6C6"/>
<path fill-rule="evenodd" clip-rule="evenodd" d="M65.4057 112.681C64.0243 113.473 63.3338 113.869 61.9529 114.661C60.5567 113.873 59.8584 113.478 58.4623 112.69C59.8432 111.897 60.5337 111.501 61.9152 110.709C63.3113 111.497 64.0096 111.891 65.4057 112.681" fill="#C6C6C6"/>
<path fill-rule="evenodd" clip-rule="evenodd" d="M70.5022 109.754C69.1213 110.547 68.4302 110.943 67.0493 111.735C65.6526 110.947 64.9548 110.553 63.5587 109.764C64.9396 108.972 65.6301 108.576 67.011 107.783C68.4077 108.572 69.1061 108.966 70.5022 109.754" fill="#C6C6C6"/>
<path fill-rule="evenodd" clip-rule="evenodd" d="M75.5991 106.831C74.2176 107.624 73.5271 108.02 72.1462 108.813C70.75 108.024 70.0517 107.63 68.6556 106.841C70.0365 106.049 70.7275 105.653 72.1085 104.86C73.5046 105.649 74.2029 106.043 75.5991 106.831" fill="#C6C6C6"/>
<path fill-rule="evenodd" clip-rule="evenodd" d="M80.6955 103.909C79.314 104.701 78.6235 105.098 77.2426 105.89C75.8465 105.101 75.1481 104.707 73.752 103.919C75.1329 103.127 75.8234 102.73 77.2049 101.938C78.601 102.726 79.2988 103.12 80.6955 103.909" fill="#C6C6C6"/>
<path fill-rule="evenodd" clip-rule="evenodd" d="M85.7919 100.984C84.4104 101.776 83.7199 102.173 82.339 102.965C80.9429 102.177 80.2445 101.783 78.8484 100.994C80.2293 100.201 80.9198 99.8054 82.3013 99.0127C83.6974 99.8014 84.3957 100.196 85.7919 100.984" fill="#C6C6C6"/>
<path fill-rule="evenodd" clip-rule="evenodd" d="M90.8885 98.0609C89.5076 98.8535 88.8166 99.2493 87.4357 100.041C86.039 99.2532 85.3412 98.8592 83.9451 98.0704C85.326 97.2783 86.0165 96.882 87.398 96.0898C88.7941 96.878 89.4924 97.2721 90.8885 98.0609" fill="#C6C6C6"/>
<path fill-rule="evenodd" clip-rule="evenodd" d="M95.9847 95.1376C94.6037 95.9297 93.9133 96.326 92.5323 97.1181C91.1362 96.33 90.4379 95.9353 89.0412 95.1466C90.4227 94.3545 91.1132 93.9581 92.4941 93.166C93.8908 93.9548 94.5885 94.3488 95.9847 95.1376" fill="#C6C6C6"/>
<path fill-rule="evenodd" clip-rule="evenodd" d="M101.081 92.2142C99.7 93.0063 99.0101 93.4026 97.6286 94.1953C96.2325 93.406 95.5341 93.0119 94.138 92.2237C95.5195 91.4311 96.21 91.0353 97.5909 90.2432C98.987 91.0313 99.6848 91.426 101.081 92.2142" fill="#C6C6C6"/>
<path fill-rule="evenodd" clip-rule="evenodd" d="M106.177 89.2899C104.796 90.0821 104.105 90.4778 102.724 91.2705C101.328 90.4818 100.631 90.0877 99.2339 89.2989C100.615 88.5068 101.306 88.111 102.687 87.3184C104.082 88.1071 104.781 88.5012 106.177 89.2899" fill="#C6C6C6"/>
<path fill-rule="evenodd" clip-rule="evenodd" d="M55.0159 124.219C53.635 125.011 52.9445 125.407 51.563 126.2C50.1669 125.41 49.4686 125.016 48.0724 124.228C49.4534 123.436 50.1438 123.039 51.5248 122.247C52.9209 123.036 53.6198 123.43 55.0159 124.219" fill="#C6C6C6"/>
<path fill-rule="evenodd" clip-rule="evenodd" d="M60.112 121.293C58.7311 122.085 58.0406 122.481 56.6591 123.273C55.263 122.485 54.5646 122.091 53.1685 121.302C54.5494 120.509 55.2399 120.113 56.6214 119.321C58.0175 120.109 58.7159 120.504 60.112 121.293" fill="#C6C6C6"/>
<path fill-rule="evenodd" clip-rule="evenodd" d="M65.2087 118.37C63.8272 119.162 63.1367 119.558 61.7558 120.351C60.3597 119.562 59.6608 119.168 58.2646 118.379C59.6461 117.587 60.3366 117.191 61.7175 116.398C63.1142 117.187 63.812 117.581 65.2087 118.37" fill="#C6C6C6"/>
<path fill-rule="evenodd" clip-rule="evenodd" d="M70.3054 115.447C68.9239 116.239 68.2335 116.636 66.8525 117.428C65.4559 116.639 64.7575 116.244 63.3614 115.456C64.7423 114.664 65.4328 114.268 66.8143 113.476C68.2104 114.264 68.9087 114.658 70.3054 115.447" fill="#C6C6C6"/>
<path fill-rule="evenodd" clip-rule="evenodd" d="M75.402 112.522C74.0205 113.314 73.33 113.711 71.9485 114.503C70.5524 113.714 69.8541 113.32 68.4579 112.531C69.8389 111.739 70.5293 111.343 71.9108 110.551C73.3069 111.339 74.0053 111.734 75.402 112.522" fill="#C6C6C6"/>
<path fill-rule="evenodd" clip-rule="evenodd" d="M80.4985 109.599C79.117 110.392 78.4265 110.788 77.0456 111.581C75.6489 110.792 74.9506 110.398 73.5544 109.61C74.9359 108.817 75.6264 108.421 77.0073 107.628C78.404 108.417 79.1018 108.811 80.4985 109.599" fill="#C6C6C6"/>
<path fill-rule="evenodd" clip-rule="evenodd" d="M85.5945 106.676C84.2136 107.468 83.5231 107.864 82.1422 108.656C80.7455 107.868 80.0471 107.473 78.651 106.685C80.0319 105.892 80.723 105.496 82.1039 104.704C83.5 105.492 84.1984 105.887 85.5945 106.676" fill="#C6C6C6"/>
<path fill-rule="evenodd" clip-rule="evenodd" d="M90.6917 103.751C89.3102 104.543 88.6198 104.939 87.2388 105.731C85.8421 104.943 85.1438 104.549 83.7477 103.76C85.1286 102.968 85.8196 102.571 87.2006 101.779C88.5967 102.567 89.295 102.962 90.6917 103.751" fill="#C6C6C6"/>
<path fill-rule="evenodd" clip-rule="evenodd" d="M95.7884 100.828C94.4069 101.621 93.7164 102.016 92.3349 102.809C90.9388 102.02 90.2404 101.626 88.8443 100.837C90.2252 100.045 90.9157 99.6491 92.2972 98.8564C93.6939 99.6452 94.3917 100.039 95.7884 100.828" fill="#C6C6C6"/>
<path fill-rule="evenodd" clip-rule="evenodd" d="M100.884 97.9046C99.5033 98.6973 98.8123 99.0936 97.4319 99.8857C96.0352 99.097 95.3369 98.7023 93.9402 97.9142C95.3217 97.122 96.0121 96.7257 97.3931 95.9336C98.7898 96.7218 99.4875 97.1164 100.884 97.9046" fill="#C6C6C6"/>
<path fill-rule="evenodd" clip-rule="evenodd" d="M105.98 94.9804C104.599 95.7725 103.909 96.1688 102.528 96.9609C101.131 96.1722 100.434 95.7781 99.0375 94.9893C100.418 94.1972 101.108 93.8015 102.489 93.0088C103.886 93.7975 104.584 94.1916 105.98 94.9804" fill="#C6C6C6"/>
<path fill-rule="evenodd" clip-rule="evenodd" d="M111.076 92.0565C108.761 93.3844 107.603 94.0489 105.288 95.3768C103.891 94.5886 103.193 94.1945 101.797 93.4058C104.112 92.0773 105.27 91.4134 107.586 90.085C108.982 90.8737 109.68 91.2678 111.076 92.0565" fill="#C6C6C6"/>
<path fill-rule="evenodd" clip-rule="evenodd" d="M62.1969 125.676C59.9033 126.992 58.7564 127.65 56.4628 128.965C55.0666 128.176 54.3683 127.782 52.9722 126.994C55.2653 125.678 56.4121 125.02 58.7058 123.704C60.1019 124.493 60.8003 124.887 62.1969 125.676" fill="#C6C6C6"/>
<path fill-rule="evenodd" clip-rule="evenodd" d="M65.0118 124.06C63.6309 124.853 62.9404 125.249 61.5595 126.041C60.1628 125.252 59.4644 124.858 58.0683 124.069C59.4492 123.277 60.1397 122.881 61.5206 122.089C62.9173 122.877 63.6157 123.271 65.0118 124.06" fill="#C6C6C6"/>
<path fill-rule="evenodd" clip-rule="evenodd" d="M70.1082 121.138C68.7267 121.93 68.0363 122.326 66.6553 123.118C65.2586 122.33 64.5609 121.936 63.1642 121.147C64.5451 120.354 65.2361 119.959 66.6171 119.166C68.0132 119.955 68.7115 120.349 70.1082 121.138" fill="#C6C6C6"/>
<path fill-rule="evenodd" clip-rule="evenodd" d="M75.205 118.213C73.8235 119.006 73.133 119.402 71.7515 120.194C70.3554 119.406 69.657 119.011 68.2609 118.223C69.6419 117.431 70.3323 117.034 71.7138 116.242C73.1099 117.03 73.8083 117.424 75.205 118.213" fill="#C6C6C6"/>
<path fill-rule="evenodd" clip-rule="evenodd" d="M80.3013 115.289C78.9198 116.082 78.2293 116.477 76.8478 117.27C75.4517 116.481 74.7534 116.087 73.3572 115.299C74.7382 114.506 75.4286 114.11 76.8101 113.317C78.2063 114.106 78.9046 114.501 80.3013 115.289" fill="#C6C6C6"/>
<path fill-rule="evenodd" clip-rule="evenodd" d="M85.3982 112.366C84.0167 113.159 83.3263 113.555 81.9453 114.347C80.5486 113.559 79.8503 113.164 78.4536 112.376C79.8351 111.583 80.5256 111.187 81.9071 110.395C83.3032 111.184 84.0015 111.578 85.3982 112.366" fill="#C6C6C6"/>
<path fill-rule="evenodd" clip-rule="evenodd" d="M90.494 109.443C89.1131 110.235 88.4226 110.632 87.0411 111.424C85.645 110.636 84.9467 110.241 83.5505 109.452C84.9315 108.66 85.6219 108.264 87.0034 107.472C88.3995 108.26 89.0979 108.655 90.494 109.443" fill="#C6C6C6"/>
<path fill-rule="evenodd" clip-rule="evenodd" d="M95.5912 106.518C94.2098 107.311 93.5193 107.707 92.1384 108.499C90.7417 107.711 90.0433 107.317 88.6472 106.527C90.0281 105.735 90.7186 105.339 92.1001 104.547C93.4962 105.335 94.1946 105.73 95.5912 106.518" fill="#C6C6C6"/>
<path fill-rule="evenodd" clip-rule="evenodd" d="M100.688 103.595C99.3066 104.387 98.6161 104.783 97.2347 105.576C95.8385 104.787 95.1402 104.392 93.7441 103.604C95.125 102.811 95.8155 102.416 97.197 101.623C98.5931 102.412 99.2914 102.806 100.688 103.595" fill="#C6C6C6"/>
<path fill-rule="evenodd" clip-rule="evenodd" d="M105.784 100.67C104.403 101.463 103.712 101.859 102.331 102.651C100.935 101.862 100.237 101.468 98.8405 100.679C100.221 99.8873 100.912 99.4909 102.293 98.6982C103.69 99.487 104.387 99.8816 105.784 100.67" fill="#C6C6C6"/>
<path fill-rule="evenodd" clip-rule="evenodd" d="M110.88 97.747C109.499 98.5391 108.809 98.9348 107.428 99.7281C106.031 98.9388 105.333 98.5447 103.937 97.756C105.318 96.9638 106.008 96.5675 107.389 95.7754C108.786 96.5641 109.484 96.9582 110.88 97.747" fill="#C6C6C6"/>
<path fill-rule="evenodd" clip-rule="evenodd" d="M115.976 94.8241C114.595 95.6162 113.905 96.012 112.524 96.8041C111.128 96.016 110.429 95.6219 109.033 94.8331C110.413 94.0404 111.104 93.6447 112.485 92.8525C113.882 93.6407 114.58 94.0354 115.976 94.8241" fill="#C6C6C6"/>
<path fill-rule="evenodd" clip-rule="evenodd" d="M64.8154 129.752C63.4345 130.544 62.744 130.94 61.3625 131.732C59.9664 130.944 59.2681 130.55 57.8719 129.761C59.2529 128.969 59.9433 128.572 61.3243 127.78C62.7204 128.568 63.4187 128.963 64.8154 129.752" fill="#C6C6C6"/>
<path fill-rule="evenodd" clip-rule="evenodd" d="M69.9113 126.829C68.5304 127.621 67.8399 128.017 66.459 128.81C65.0623 128.021 64.364 127.627 62.9678 126.838C64.3488 126.046 65.0392 125.65 66.4202 124.857C67.8168 125.646 68.5146 126.04 69.9113 126.829" fill="#C6C6C6"/>
<path fill-rule="evenodd" clip-rule="evenodd" d="M75.0072 123.904C73.6263 124.697 72.9359 125.093 71.5549 125.885C70.1582 125.097 69.4605 124.702 68.0638 123.913C69.4453 123.121 70.1357 122.725 71.5167 121.933C72.9128 122.721 73.6111 123.115 75.0072 123.904" fill="#C6C6C6"/>
<path fill-rule="evenodd" clip-rule="evenodd" d="M80.1045 120.981C78.723 121.773 78.0325 122.17 76.651 122.962C75.2549 122.174 74.5566 121.779 73.1605 120.991C74.5414 120.199 75.2319 119.802 76.6133 119.01C78.0095 119.799 78.7078 120.193 80.1045 120.981" fill="#C6C6C6"/>
<path fill-rule="evenodd" clip-rule="evenodd" d="M85.2008 118.057C83.8198 118.849 83.1294 119.245 81.7479 120.038C80.3517 119.249 79.6534 118.855 78.2573 118.066C79.6382 117.274 80.3292 116.878 81.7102 116.085C83.1063 116.874 83.8046 117.268 85.2008 118.057" fill="#C6C6C6"/>
<path fill-rule="evenodd" clip-rule="evenodd" d="M90.2972 115.132C88.9163 115.925 88.2258 116.321 86.8444 117.113C85.4482 116.325 84.7499 115.93 83.3538 115.142C84.7347 114.349 85.4257 113.953 86.8066 113.161C88.2028 113.949 88.9011 114.344 90.2972 115.132" fill="#C6C6C6"/>
<path fill-rule="evenodd" clip-rule="evenodd" d="M95.3938 112.21C94.0129 113.002 93.3224 113.398 91.9409 114.19C90.5448 113.402 89.8464 113.008 88.4503 112.219C89.8313 111.427 90.5217 111.03 91.9032 110.238C93.2993 111.026 93.9977 111.421 95.3938 112.21" fill="#C6C6C6"/>
<path fill-rule="evenodd" clip-rule="evenodd" d="M100.491 109.285C99.1101 110.077 98.4191 110.474 97.0376 111.266C95.6415 110.477 94.9431 110.083 93.547 109.294C94.9279 108.502 95.6184 108.106 96.9999 107.313C98.396 108.102 99.0943 108.496 100.491 109.285" fill="#C6C6C6"/>
<path fill-rule="evenodd" clip-rule="evenodd" d="M105.587 106.362C104.206 107.155 103.516 107.551 102.135 108.343C100.738 107.554 100.04 107.16 98.6435 106.372C100.024 105.579 100.715 105.183 102.096 104.391C103.493 105.179 104.191 105.573 105.587 106.362" fill="#C6C6C6"/>
<path fill-rule="evenodd" clip-rule="evenodd" d="M110.683 103.437C109.302 104.23 108.611 104.626 107.23 105.419C105.834 104.63 105.136 104.235 103.74 103.447C105.121 102.655 105.811 102.258 107.193 101.466C108.589 102.255 109.287 102.649 110.683 103.437" fill="#C6C6C6"/>
<path fill-rule="evenodd" clip-rule="evenodd" d="M117.982 99.2509C115.72 100.549 114.589 101.197 112.327 102.495C110.931 101.706 110.233 101.312 108.837 100.524C111.098 99.2256 112.229 98.5768 114.491 97.2793C115.887 98.068 116.585 98.4627 117.982 99.2509" fill="#C6C6C6"/>
<path fill-rule="evenodd" clip-rule="evenodd" d="M120.876 97.5907C119.495 98.3828 118.805 98.7786 117.423 99.5707C116.027 98.7825 115.329 98.3885 113.932 97.5991C115.313 96.807 116.004 96.4113 117.385 95.6191C118.782 96.4073 119.48 96.8014 120.876 97.5907" fill="#C6C6C6"/>
<path fill-rule="evenodd" clip-rule="evenodd" d="M70.3921 132.901C69.0112 133.693 68.3207 134.089 66.9398 134.881C65.5436 134.093 64.8453 133.698 63.4486 132.91C64.8301 132.118 65.5206 131.722 66.9015 130.93C68.2976 131.718 68.996 132.112 70.3921 132.901" fill="#C6C6C6"/>
<path fill-rule="evenodd" clip-rule="evenodd" d="M75.488 129.978C74.107 130.771 73.4166 131.166 72.0356 131.959C70.6389 131.17 69.9412 130.776 68.545 129.988C69.926 129.195 70.6164 128.8 71.9974 128.007C73.3935 128.796 74.0918 129.19 75.488 129.978" fill="#C6C6C6"/>
<path fill-rule="evenodd" clip-rule="evenodd" d="M80.5846 127.054C79.2037 127.846 78.5127 128.242 77.1318 129.034C75.7356 128.246 75.0373 127.852 73.6412 127.063C75.0221 126.27 75.7126 125.875 77.0935 125.082C78.4902 125.871 79.1885 126.265 80.5846 127.054" fill="#C6C6C6"/>
<path fill-rule="evenodd" clip-rule="evenodd" d="M111.164 109.511C101.518 115.044 91.8733 120.577 82.2282 126.111C80.8321 125.322 80.1337 124.928 78.7371 124.139C88.3827 118.606 98.0279 113.073 107.673 107.539C109.07 108.328 109.768 108.722 111.164 109.511" fill="#C6C6C6"/>
<path fill-rule="evenodd" clip-rule="evenodd" d="M116.26 106.588C114.879 107.38 114.188 107.776 112.807 108.568C111.411 107.78 110.714 107.386 109.317 106.597C110.698 105.805 111.389 105.408 112.77 104.616C114.166 105.404 114.864 105.799 116.26 106.588" fill="#C6C6C6"/>
<path fill-rule="evenodd" clip-rule="evenodd" d="M121.357 103.664C119.976 104.457 119.285 104.853 117.904 105.645C116.507 104.857 115.81 104.462 114.413 103.674C115.794 102.881 116.485 102.485 117.866 101.693C119.262 102.482 119.96 102.876 121.357 103.664" fill="#C6C6C6"/>
<path fill-rule="evenodd" clip-rule="evenodd" d="M126.452 100.741C125.071 101.534 124.381 101.93 123 102.722C121.604 101.933 120.906 101.539 119.51 100.751C120.891 99.9584 121.581 99.5626 122.962 98.7705C124.359 99.5587 125.056 99.9528 126.452 100.741" fill="#C6C6C6"/>
<path fill-rule="evenodd" clip-rule="evenodd" d="M87.5199 127.53L111.314 113.806L124.91 122.174L101.125 135.903L87.5199 127.53" fill="#C6C6C6"/>
<path fill-rule="evenodd" clip-rule="evenodd" d="M30.8839 120.225L30.9863 62.7362C30.9908 61.1329 31.8512 59.6532 33.2445 58.856L97.2247 22.2399C97.2405 22.2309 97.2562 22.2219 97.272 22.2135C97.5972 22.0381 97.9388 21.96 98.2725 21.96C98.3294 21.96 98.3856 21.9622 98.4419 21.9667C97.7875 22.973 96.6721 24.6556 95.1854 26.883L34.0357 61.9486L33.9034 115.222L36.6023 113.674C35.1949 115.752 33.9721 117.558 32.971 119.035L30.8839 120.225" fill="#999999"/>
<path fill-rule="evenodd" clip-rule="evenodd" d="M34.0093 61.6512L95.1855 26.8818L36.7661 113.316L34.0093 115.059V61.6512Z" fill="#00ACE8"/>
<path d="M28.4886 112.909L28.5231 112.84L28.4886 112.909Z" fill="#EBEBEB"/>
<path d="M49.9297 100.612C49.9221 100.582 49.9053 100.556 49.8818 100.536C49.8583 100.517 49.8292 100.505 49.7986 100.503C49.7537 100.504 49.7101 100.517 49.6724 100.542L28.7216 112.638C28.6391 112.69 28.5707 112.762 28.5226 112.847L27.6901 112.362C27.7342 112.277 27.7994 112.205 27.8794 112.153L48.8302 100.064C48.9172 100.02 49.0132 99.9971 49.1105 99.9971C49.2079 99.9971 49.3039 100.02 49.3908 100.064L49.67 100.221C49.7375 100.265 49.7953 100.323 49.84 100.39C49.8846 100.457 49.9151 100.533 49.9297 100.612V100.612Z" fill="#999999"/>
<g opacity="0.9">
<path d="M28.7213 135.91C28.634 135.952 28.5381 135.974 28.441 135.974C28.3438 135.974 28.248 135.952 28.1606 135.91L27.8815 135.737C27.7991 135.685 27.7305 135.613 27.6815 135.529C27.6325 135.444 27.6046 135.349 27.6 135.252V112.638C27.6036 112.537 27.6347 112.439 27.6898 112.354L28.5247 112.84C28.4719 112.925 28.4434 113.023 28.4422 113.124V135.757C28.4422 135.912 28.5563 136.007 28.7213 135.91Z" fill="#333333"/>
</g>
<path d="M49.7962 100.501C49.7522 100.502 49.7094 100.516 49.6724 100.54L28.7217 112.636C28.6397 112.689 28.5716 112.761 28.523 112.845C28.4745 112.93 28.4469 113.025 28.4426 113.122V135.755C28.4426 135.881 28.5057 135.954 28.5979 135.954C28.6419 135.952 28.6847 135.939 28.7217 135.915L49.6724 123.821C49.754 123.767 49.8218 123.696 49.8703 123.611C49.9188 123.527 49.9466 123.432 49.9515 123.335V100.695C49.9515 100.569 49.8884 100.496 49.7962 100.496V100.501Z" fill="#FFCA00"/>
<path d="M40.1387 58.5416L40.1732 58.4727L40.1387 58.5416Z" fill="#EBEBEB"/>
<path d="M61.5796 26.828C61.572 26.7983 61.5552 26.7718 61.5317 26.7521C61.5082 26.7325 61.4791 26.7208 61.4485 26.7187C61.4036 26.7198 61.36 26.7332 61.3223 26.7576L40.3715 38.8542C40.289 38.9063 40.2206 38.978 40.1725 39.063L39.34 38.5776C39.3841 38.4928 39.4493 38.4209 39.5293 38.3688L60.4801 26.2794C60.5671 26.2357 60.6631 26.2129 60.7604 26.2129C60.8578 26.2129 60.9538 26.2357 61.0407 26.2794L61.3199 26.4372C61.3874 26.4813 61.4452 26.5387 61.4899 26.6059C61.5345 26.6731 61.565 26.7486 61.5796 26.828V26.828Z" fill="#999999"/>
<g opacity="0.9">
<path d="M40.3716 81.5422C40.2842 81.5846 40.1884 81.6067 40.0912 81.6067C39.9941 81.6067 39.8982 81.5846 39.8109 81.5422L39.5318 81.3698C39.4494 81.3174 39.3808 81.2459 39.3318 81.1615C39.2828 81.077 39.2548 80.982 39.2502 80.8844V38.8543C39.2539 38.7532 39.2849 38.6551 39.34 38.5703L40.175 39.0557C40.1222 39.1412 40.0937 39.2393 40.0924 39.3397V81.3892C40.0924 81.5446 40.2065 81.6392 40.3716 81.5422Z" fill="#333333"/>
</g>
<path d="M61.4464 26.7187C61.4024 26.7202 61.3596 26.7336 61.3226 26.7576L50.8473 32.8059L40.3719 38.8542C40.2899 38.9069 40.2218 38.9785 40.1733 39.063C40.1247 39.1474 40.0971 39.2423 40.0928 58.7565V81.3892C40.0928 81.5154 40.1559 81.5882 40.2481 81.5882C40.2921 81.5867 40.3349 81.5733 40.3719 81.5494L61.3226 69.4551C61.4042 69.402 61.472 69.3303 61.5205 69.2459C61.569 69.1616 61.5968 69.0669 61.6017 68.9697V26.9129C61.6017 26.7867 61.5386 26.7139 61.4464 26.7139V26.7187Z" fill="white"/>
<path d="M83.8025 23.252C83.8132 23.2177 83.826 23.1841 83.8407 23.1514V23.1514C83.826 23.1841 83.8133 23.2177 83.8025 23.252V23.252Z" fill="#EBEBEB"/>
<path d="M116.362 4.59176C116.351 4.54243 116.324 4.49819 116.285 4.4661C116.246 4.43402 116.198 4.41595 116.147 4.41481C116.079 4.41734 116.013 4.43898 115.956 4.47726L84.1536 22.8351C84.0292 22.9135 83.9265 23.0221 83.8552 23.1508L82.5888 22.4152C82.6586 22.2925 82.7575 22.1889 82.8768 22.1134L114.676 3.75558C114.808 3.68961 114.953 3.65527 115.101 3.65527C115.249 3.65527 115.394 3.68961 115.526 3.75558L115.953 3.99151C116.058 4.05866 116.149 4.14647 116.219 4.24965C116.289 4.35282 116.338 4.46921 116.362 4.59176V4.59176Z" fill="#999999"/>
<path opacity="0.9" d="M84.1531 46.3208C84.0212 46.3849 83.8764 46.4182 83.7298 46.4182C83.5831 46.4182 83.4384 46.3849 83.3065 46.3208L82.8797 46.0571C82.7574 45.9799 82.655 45.875 82.5808 45.7508C82.5066 45.6266 82.4628 45.4867 82.4529 45.3423V22.8487C82.4587 22.6947 82.5054 22.545 82.5883 22.415L83.8408 23.1506C83.7644 23.2765 83.7214 23.4198 83.7159 23.567V46.0814C83.7298 46.3208 83.9067 46.47 84.1531 46.3208Z" fill="#333333"/>
<path d="M116.143 4.41797C116.076 4.4199 116.012 4.43903 115.955 4.47348L84.1526 22.8348C84.0296 22.9151 83.9272 23.0232 83.8536 23.1503C83.7801 23.2775 83.7375 23.4202 83.7293 23.5669V46.0813C83.7293 46.2721 83.8265 46.3831 83.9652 46.3831C84.0324 46.3809 84.0975 46.3592 84.1526 46.3207L115.955 27.9663C116.077 27.886 116.179 27.7783 116.253 27.6519C116.326 27.5254 116.369 27.3837 116.379 27.2377V4.71983C116.379 4.529 116.281 4.41797 116.143 4.41797V4.41797Z" fill="#2284F7"/>
<path d="M1.84613 91.8634C1.8575 91.8271 1.87099 91.7915 1.88654 91.7568V91.7568C1.87103 91.7915 1.85754 91.8271 1.84613 91.8634V91.8634Z" fill="#EBEBEB"/>
<path d="M36.32 72.1058C36.3085 72.0536 36.2798 72.0067 36.2385 71.9728C36.1972 71.9388 36.1457 71.9197 36.0923 71.9185C36.02 71.9211 35.95 71.944 35.8902 71.9846L2.21737 91.4219C2.08561 91.505 1.97695 91.62 1.90144 91.7563L0.560547 90.9774C0.634428 90.8475 0.739144 90.7377 0.865461 90.6578L34.5346 71.2205C34.6744 71.1506 34.8284 71.1143 34.9846 71.1143C35.1409 71.1143 35.2949 71.1506 35.4347 71.2205L35.8865 71.4703C35.998 71.5414 36.0939 71.6343 36.1684 71.7436C36.243 71.8528 36.2945 71.9761 36.32 72.1058V72.1058Z" fill="#999999"/>
<path opacity="0.9" d="M2.21733 116.288C2.07768 116.356 1.92443 116.391 1.76915 116.391C1.61386 116.391 1.46061 116.356 1.32096 116.288L0.869097 116.009C0.739561 115.927 0.63113 115.816 0.552615 115.685C0.474101 115.553 0.427718 115.405 0.417236 115.252L0.417236 91.4358C0.423347 91.2727 0.472801 91.1142 0.560509 90.9766L1.8867 91.7554C1.80577 91.8887 1.76024 92.0404 1.75445 92.1962V116.035C1.76915 116.288 1.9565 116.446 2.21733 116.288Z" fill="#333333"/>
<path d="M36.0892 71.9219C36.0191 71.9239 35.9507 71.9442 35.8908 71.9807L2.21796 91.4217C2.08771 91.5067 1.97928 91.6212 1.90143 91.7558C1.82357 91.8905 1.77847 92.0415 1.76978 92.1968V116.035C1.76978 116.237 1.87264 116.355 2.01958 116.355C2.09072 116.353 2.15964 116.33 2.21796 116.289L35.8908 96.855C36.0202 96.77 36.128 96.656 36.2058 96.5221C36.2836 96.3882 36.3292 96.2381 36.339 96.0836V72.2415C36.339 72.0394 36.2361 71.9219 36.0892 71.9219V71.9219Z" fill="#E6E6E6"/>
<path d="M56.5428 69.5759C56.551 69.5497 56.5608 69.524 56.572 69.499V69.499C56.5608 69.5241 56.5511 69.5497 56.5428 69.5759V69.5759Z" fill="#EBEBEB"/>
<path d="M81.4063 55.3255C81.398 55.2879 81.3773 55.2541 81.3475 55.2296C81.3177 55.2051 81.2806 55.1913 81.242 55.1904C81.1899 55.1923 81.1395 55.2088 81.0963 55.2381L56.8096 69.2574C56.7145 69.3173 56.6361 69.4003 56.5817 69.4985L55.6146 68.9368C55.6679 68.8431 55.7434 68.7639 55.8345 68.7063L80.1186 54.6869C80.2194 54.6366 80.3305 54.6104 80.4432 54.6104C80.5558 54.6104 80.667 54.6366 80.7677 54.6869L81.0937 54.8671C81.1741 54.9184 81.2432 54.9855 81.297 55.0643C81.3507 55.1431 81.3879 55.2319 81.4063 55.3255V55.3255Z" fill="#914AD8"/>
<path opacity="0.9" d="M56.8106 87.1926C56.7099 87.2416 56.5993 87.2671 56.4873 87.2671C56.3753 87.2671 56.2648 87.2416 56.1641 87.1926L55.8382 86.9913C55.7447 86.9323 55.6665 86.8522 55.6099 86.7574C55.5533 86.6625 55.5198 86.5556 55.5123 86.4454V69.2677C55.5167 69.1501 55.5523 69.0358 55.6156 68.9365L56.5721 69.4983C56.5138 69.5944 56.4809 69.7038 56.4767 69.8162V87.0098C56.4873 87.1926 56.6225 87.3066 56.8106 87.1926Z" fill="#2B0A4C"/>
<path d="M81.2406 55.1934C81.1901 55.1948 81.1408 55.2094 81.0975 55.2358L56.8108 69.2577C56.7169 69.319 56.6387 69.4016 56.5825 69.4987C56.5263 69.5958 56.4938 69.7048 56.4875 69.8168V87.0104C56.4875 87.1562 56.5617 87.2409 56.6677 87.2409C56.719 87.2392 56.7687 87.2227 56.8108 87.1932L81.0975 73.1766C81.1909 73.1152 81.2686 73.033 81.3247 72.9364C81.3808 72.8399 81.4137 72.7316 81.4208 72.6201V55.4239C81.4208 55.2781 81.3466 55.1934 81.2406 55.1934V55.1934Z" fill="#663399"/>
<path d="M92.0782 65.3375L92.1126 65.2686L92.0782 65.3375Z" fill="#EBEBEB"/>
<path d="M113.519 53.0408C113.511 53.0112 113.495 52.9846 113.471 52.965C113.448 52.9454 113.419 52.9337 113.388 52.9316C113.343 52.9327 113.299 52.9461 113.262 52.9705L92.311 65.0671C92.2284 65.1192 92.16 65.1909 92.112 65.2759L91.2795 64.7904C91.3235 64.7057 91.3887 64.6338 91.4688 64.5817L112.42 52.4923C112.507 52.4486 112.603 52.4258 112.7 52.4258C112.797 52.4258 112.893 52.4486 112.98 52.4923L113.259 52.6501C113.327 52.6942 113.385 52.7516 113.429 52.8188C113.474 52.8859 113.504 52.9615 113.519 53.0408V53.0408Z" fill="#999999"/>
<path opacity="0.9" d="M92.311 89.9595C92.2235 90.0015 92.1277 90.0233 92.0307 90.0233C91.9336 90.0233 91.8378 90.0015 91.7504 89.9595L91.4712 89.7872C91.3887 89.7349 91.32 89.6635 91.271 89.579C91.222 89.4945 91.1941 89.3994 91.1897 89.3018V65.0672C91.1934 64.9661 91.2244 64.868 91.2795 64.7832L92.1144 65.2686C92.0617 65.354 92.0331 65.4522 92.0319 65.5526V89.8042C92.0319 89.9595 92.146 90.0663 92.311 89.9595Z" fill="#333333"/>
<path d="M113.386 52.9297C113.342 52.9311 113.299 52.9446 113.262 52.9685L92.3114 65.0652C92.2295 65.1179 92.1613 65.1894 92.1128 65.2739C92.0642 65.3584 92.0366 65.4533 92.0323 65.5506V89.8022C92.0323 89.9284 92.0954 90.0012 92.1876 90.0012C92.2313 89.9995 92.2738 89.987 92.3114 89.9648L113.262 77.8681C113.344 77.815 113.411 77.7433 113.46 77.6589C113.509 77.5746 113.536 77.4799 113.541 77.3827V53.1238C113.541 52.9976 113.478 52.9248 113.386 52.9248V52.9297Z" fill="#CE0707"/>
<path d="M117.969 1.76791L115.535 0.359123C114.871 0.0629508 114.14 -0.0531592 113.417 0.0224577C112.693 0.0980747 112.003 0.362755 111.414 0.789908C109.715 1.90369 108.302 3.40237 107.291 5.16433C106.279 6.9263 105.697 8.90191 105.592 10.9308C105.515 11.6585 105.633 12.3936 105.934 13.0606C106.234 13.7277 106.707 14.3026 107.304 14.7264V14.7264L109.516 15.9955L109.97 15.1106C110.558 14.9778 111.123 14.7581 111.647 14.4586C113.345 13.3417 114.757 11.8406 115.769 10.077C116.78 8.31326 117.362 6.33635 117.468 4.30605C117.468 3.80036 117.409 3.29637 117.293 2.80412L117.969 1.76791Z" fill="#BA68C8"/>
<path d="M117.969 1.76791L115.535 0.359123C114.871 0.0629508 114.14 -0.0531592 113.417 0.0224577C112.693 0.0980747 112.003 0.362755 111.414 0.789908C109.715 1.90369 108.302 3.40237 107.291 5.16433C106.279 6.9263 105.697 8.90191 105.592 10.9308C105.515 11.6585 105.633 12.3936 105.934 13.0606C106.234 13.7277 106.707 14.3026 107.304 14.7264V14.7264L109.516 15.9955L109.97 15.1106C110.558 14.9778 111.123 14.7581 111.647 14.4586C113.345 13.3417 114.757 11.8406 115.769 10.077C116.78 8.31326 117.362 6.33635 117.468 4.30605C117.468 3.80036 117.409 3.29637 117.293 2.80412L117.969 1.76791Z" fill="#E40D0D"/>
<path d="M105.755 8.95117C105.615 9.59791 105.541 10.2571 105.534 10.9188C105.456 11.6464 105.574 12.3816 105.875 13.0486C106.176 13.7157 106.649 14.2906 107.245 14.7144V14.7144L109.457 15.9835L109.97 15.1102C110.558 14.9774 111.123 14.7577 111.646 14.4582C112.219 14.1298 112.754 13.7394 113.241 13.294L105.755 8.95117Z" fill="#CE0707"/>
<path d="M113.694 2.10617C111.995 3.22247 110.582 4.72331 109.571 6.48715C108.56 8.25099 107.978 10.2282 107.873 12.2587C107.873 15.9961 110.493 17.5097 113.694 15.6352C115.393 14.5182 116.805 13.0172 117.817 11.2535C118.828 9.4898 119.41 7.5129 119.516 5.4826C119.562 1.74524 116.954 0.231671 113.694 2.10617Z" fill="#BA68C8"/>
<path d="M113.694 2.10617C111.995 3.22247 110.582 4.72331 109.571 6.48715C108.56 8.25099 107.978 10.2282 107.873 12.2587C107.873 15.9961 110.493 17.5097 113.694 15.6352C115.393 14.5182 116.805 13.0172 117.817 11.2535C118.828 9.4898 119.41 7.5129 119.516 5.4826C119.562 1.74524 116.954 0.231671 113.694 2.10617Z" fill="#FF363B"/>
<path d="M114.627 8.64895L116.141 5.30745C116.279 5.14515 116.355 4.93873 116.355 4.72531C116.355 4.51189 116.279 4.30547 116.141 4.14317C115.826 3.88702 115.524 4.02674 115.337 4.4226L113.696 7.82231L112.112 6.30874C111.926 6.12245 111.623 6.30874 111.437 6.69295C111.344 6.85185 111.295 7.0327 111.295 7.21688C111.295 7.40106 111.344 7.58191 111.437 7.74081L113.02 9.28931L111.437 12.6308C111.251 13.0267 111.169 13.4924 111.437 13.702C111.503 13.7503 111.579 13.7826 111.659 13.7963C111.74 13.8101 111.822 13.8049 111.9 13.7811C111.978 13.7574 112.049 13.7158 112.108 13.6596C112.168 13.6034 112.213 13.5342 112.24 13.4575L113.824 10.1043L115.221 11.4549C115.269 11.4936 115.328 11.5148 115.39 11.5148C115.451 11.5148 115.511 11.4936 115.559 11.4549C115.711 11.3572 115.829 11.2149 115.896 11.0474C115.989 10.8885 116.038 10.7076 116.038 10.5235C116.038 10.3393 115.989 10.1584 115.896 9.99953L114.627 8.64895Z" fill="#FAFAFA"/>
<path d="M52.922 95.6966L50.4887 94.2878C49.8243 93.9917 49.0937 93.8756 48.3702 93.9512C47.6467 94.0268 46.9559 94.2915 46.3671 94.7186C44.668 95.8324 43.2553 97.3311 42.2439 99.093C41.2324 100.855 40.6506 102.831 40.5457 104.86C40.4683 105.587 40.5861 106.322 40.8869 106.989C41.1877 107.656 41.6606 108.231 42.2572 108.655V108.655L44.4693 109.924L44.9234 109.039C45.5115 108.907 46.0766 108.687 46.6 108.387C48.2987 107.27 49.7108 105.769 50.7221 104.006C51.7334 102.242 52.3155 100.265 52.4214 98.2348C52.4212 97.7291 52.3626 97.2251 52.2467 96.7328L52.922 95.6966Z" fill="#BA68C8"/>
<path d="M52.922 95.6966L50.4887 94.2878C49.8243 93.9917 49.0937 93.8756 48.3702 93.9512C47.6467 94.0268 46.9559 94.2915 46.3671 94.7186C44.668 95.8324 43.2553 97.3311 42.2439 99.093C41.2324 100.855 40.6506 102.831 40.5457 104.86C40.4683 105.587 40.5861 106.322 40.8869 106.989C41.1877 107.656 41.6606 108.231 42.2572 108.655V108.655L44.4693 109.924L44.9234 109.039C45.5115 108.907 46.0766 108.687 46.6 108.387C48.2987 107.27 49.7108 105.769 50.7221 104.006C51.7334 102.242 52.3155 100.265 52.4214 98.2348C52.4212 97.7291 52.3626 97.2251 52.2467 96.7328L52.922 95.6966Z" fill="#E40D0D"/>
<path d="M40.7082 102.88C40.5683 103.527 40.4942 104.186 40.487 104.848C40.4097 105.575 40.5275 106.31 40.8282 106.977C41.129 107.644 41.602 108.219 42.1985 108.643V108.643L44.4107 109.912L44.9229 109.039C45.5111 108.906 46.0762 108.686 46.5995 108.387C47.1723 108.059 47.7072 107.668 48.1946 107.223L40.7082 102.88Z" fill="#CE0707"/>
<path d="M48.6478 96.0339C46.9484 97.1502 45.5358 98.651 44.5245 100.415C43.5131 102.179 42.9313 104.156 42.8264 106.186C42.8264 109.924 45.446 111.437 48.6478 109.563C50.3465 108.446 51.7586 106.945 52.7699 105.181C53.7812 103.418 54.3633 101.441 54.4692 99.4103C54.5158 95.673 51.9078 94.1594 48.6478 96.0339Z" fill="#BA68C8"/>
<path d="M48.6478 96.0339C46.9484 97.1502 45.5358 98.651 44.5245 100.415C43.5131 102.179 42.9313 104.156 42.8264 106.186C42.8264 109.924 45.446 111.437 48.6478 109.563C50.3465 108.446 51.7586 106.945 52.7699 105.181C53.7812 103.418 54.3633 101.441 54.4692 99.4103C54.5158 95.673 51.9078 94.1594 48.6478 96.0339Z" fill="#FF363B"/>
<path d="M49.5805 102.577L51.094 99.2352C51.2326 99.0729 51.3087 98.8665 51.3087 98.653C51.3087 98.4396 51.2326 98.2332 51.094 98.0709C50.7797 97.8148 50.477 97.9545 50.2907 98.3503L48.649 101.75L47.0656 100.236C46.8793 100.05 46.5766 100.236 46.3903 100.621C46.2972 100.78 46.2481 100.96 46.2481 101.145C46.2481 101.329 46.2972 101.51 46.3903 101.669L47.9737 103.217L46.3903 106.559C46.204 106.954 46.1225 107.42 46.3903 107.63C46.456 107.678 46.5321 107.71 46.6124 107.724C46.6928 107.738 46.7753 107.733 46.8533 107.709C46.9313 107.685 47.0027 107.643 47.0618 107.587C47.1209 107.531 47.166 107.462 47.1937 107.385L48.7771 104.032L50.1742 105.383C50.222 105.421 50.2816 105.443 50.3431 105.443C50.4045 105.443 50.4642 105.421 50.5119 105.383C50.6639 105.285 50.7818 105.143 50.8495 104.975C50.9426 104.816 50.9917 104.635 50.9917 104.451C50.9917 104.267 50.9426 104.086 50.8495 103.927L49.5805 102.577Z" fill="#FAFAFA"/>
<path d="M37.1468 70.2122L34.7135 68.8035C34.0491 68.5073 33.3184 68.3912 32.595 68.4668C31.8715 68.5424 31.1807 68.8071 30.5919 69.2342C28.8927 70.348 27.4801 71.8467 26.4687 73.6087C25.4572 75.3706 24.8754 77.3462 24.7705 79.3752C24.6931 80.1028 24.8109 80.8379 25.1117 81.505C25.4125 82.172 25.8854 82.747 26.482 83.1708V83.1708L28.6941 84.4398L29.1482 83.555C29.7363 83.4222 30.3014 83.2024 30.8248 82.903C32.5235 81.786 33.9356 80.285 34.9469 78.5213C35.9582 76.7576 36.5403 74.7807 36.6462 72.7504C36.646 72.2447 36.5874 71.7407 36.4715 71.2485L37.1468 70.2122Z" fill="#BA68C8"/>
<path d="M37.1468 70.2122L34.7135 68.8035C34.0491 68.5073 33.3184 68.3912 32.595 68.4668C31.8715 68.5424 31.1807 68.8071 30.5919 69.2342C28.8927 70.348 27.4801 71.8467 26.4687 73.6087C25.4572 75.3706 24.8754 77.3462 24.7705 79.3752C24.6931 80.1028 24.8109 80.8379 25.1117 81.505C25.4125 82.172 25.8854 82.747 26.482 83.1708V83.1708L28.6941 84.4398L29.1482 83.555C29.7363 83.4222 30.3014 83.2024 30.8248 82.903C32.5235 81.786 33.9356 80.285 34.9469 78.5213C35.9582 76.7576 36.5403 74.7807 36.6462 72.7504C36.646 72.2447 36.5874 71.7407 36.4715 71.2485L37.1468 70.2122Z" fill="#E40D0D"/>
<path d="M24.933 77.3955C24.7931 78.0422 24.7189 78.7015 24.7118 79.3632C24.6345 80.0908 24.7522 80.8259 25.053 81.4929C25.3538 82.16 25.8268 82.7349 26.4233 83.1587V83.1587L28.6354 84.4278L29.1477 83.5546C29.7359 83.4218 30.301 83.202 30.8243 82.9026C31.3971 82.5742 31.932 82.1837 32.4194 81.7383L24.933 77.3955Z" fill="#CE0707"/>
<path d="M32.8726 70.5505C31.1732 71.6668 29.7606 73.1676 28.7492 74.9315C27.7379 76.6953 27.1561 78.6726 27.0511 80.7031C27.0511 84.4404 29.6708 85.954 32.8726 84.0795C34.5713 82.9625 35.9834 81.4615 36.9947 79.6978C38.006 77.9341 38.5881 75.9572 38.694 73.9269C38.7406 70.1896 36.1326 68.676 32.8726 70.5505Z" fill="#BA68C8"/>
<path d="M32.8726 70.5505C31.1732 71.6668 29.7606 73.1676 28.7492 74.9315C27.7379 76.6953 27.1561 78.6726 27.0511 80.7031C27.0511 84.4404 29.6708 85.954 32.8726 84.0795C34.5713 82.9625 35.9834 81.4615 36.9947 79.6978C38.006 77.9341 38.5881 75.9572 38.694 73.9269C38.7406 70.1896 36.1326 68.676 32.8726 70.5505Z" fill="#FF363B"/>
<path d="M33.8051 77.0933L35.3187 73.7518C35.4573 73.5895 35.5334 73.3831 35.5334 73.1696C35.5334 72.9562 35.4573 72.7498 35.3187 72.5875C35.0043 72.3314 34.7016 72.4711 34.5153 72.8669L32.8737 76.2666L31.2903 74.7531C31.104 74.5668 30.8013 74.7531 30.615 75.1373C30.5219 75.2962 30.4728 75.477 30.4728 75.6612C30.4728 75.8454 30.5219 76.0262 30.615 76.1851L32.1984 77.7336L30.615 81.0751C30.4287 81.471 30.3472 81.9367 30.615 82.1463C30.6807 82.1946 30.7567 82.2269 30.8371 82.2407C30.9175 82.2544 31 82.2492 31.078 82.2255C31.156 82.2017 31.2274 82.1601 31.2865 82.1039C31.3455 82.0477 31.3907 81.9785 31.4183 81.9018L33.0018 78.5486L34.3989 79.8992C34.4466 79.938 34.5063 79.9591 34.5677 79.9591C34.6292 79.9591 34.6888 79.938 34.7366 79.8992C34.8885 79.8016 35.0065 79.6592 35.0742 79.4917C35.1673 79.3328 35.2164 79.152 35.2164 78.9678C35.2164 78.7836 35.1673 78.6028 35.0742 78.4439L33.8051 77.0933Z" fill="#FAFAFA"/>
<path d="M117.241 50.0677L114.808 48.6589C114.144 48.3628 113.413 48.2466 112.689 48.3223C111.966 48.3979 111.275 48.6626 110.686 49.0897C108.987 50.2035 107.575 51.7022 106.563 53.4641C105.552 55.2261 104.97 57.2017 104.865 59.2306C104.788 59.9583 104.905 60.6934 105.206 61.3604C105.507 62.0275 105.98 62.6024 106.576 63.0262V63.0262L108.789 64.2953L109.243 63.4104C109.831 63.2776 110.396 63.0579 110.919 62.7584C112.618 61.6415 114.03 60.1405 115.041 58.3768C116.053 56.6131 116.635 54.6362 116.741 52.6059C116.74 52.1002 116.682 51.5962 116.566 51.1039L117.241 50.0677Z" fill="#BA68C8"/>
<path d="M117.241 50.0677L114.808 48.6589C114.144 48.3628 113.413 48.2466 112.689 48.3223C111.966 48.3979 111.275 48.6626 110.686 49.0897C108.987 50.2035 107.575 51.7022 106.563 53.4641C105.552 55.2261 104.97 57.2017 104.865 59.2306C104.788 59.9583 104.905 60.6934 105.206 61.3604C105.507 62.0275 105.98 62.6024 106.576 63.0262V63.0262L108.789 64.2953L109.243 63.4104C109.831 63.2776 110.396 63.0579 110.919 62.7584C112.618 61.6415 114.03 60.1405 115.041 58.3768C116.053 56.6131 116.635 54.6362 116.741 52.6059C116.74 52.1002 116.682 51.5962 116.566 51.1039L117.241 50.0677Z" fill="#E40D0D"/>
<path d="M105.026 57.251C104.887 57.8977 104.812 58.557 104.805 59.2186C104.728 59.9463 104.846 60.6814 105.146 61.3484C105.447 62.0155 105.92 62.5904 106.517 63.0142V63.0142L108.729 64.2833L109.241 63.41C109.829 63.2773 110.394 63.0575 110.918 62.758C111.491 62.4296 112.025 62.0392 112.513 61.5938L105.026 57.251Z" fill="#AF0606"/>
<path d="M112.966 50.406C111.267 51.5223 109.854 53.0231 108.843 54.787C107.831 56.5508 107.25 58.528 107.145 60.5586C107.145 64.2959 109.764 65.8095 112.966 63.935C114.665 62.818 116.077 61.317 117.088 59.5533C118.099 57.7896 118.682 55.8127 118.787 53.7824C118.834 50.045 116.226 48.5315 112.966 50.406Z" fill="#BA68C8"/>
<path d="M112.966 50.406C111.267 51.5223 109.854 53.0231 108.843 54.787C107.831 56.5508 107.25 58.528 107.145 60.5586C107.145 64.2959 109.764 65.8095 112.966 63.935C114.665 62.818 116.077 61.317 117.088 59.5533C118.099 57.7896 118.682 55.8127 118.787 53.7824C118.834 50.045 116.226 48.5315 112.966 50.406Z" fill="#FF363B"/>
<path d="M113.899 56.9488L115.412 53.6073C115.551 53.445 115.627 53.2385 115.627 53.0251C115.627 52.8117 115.551 52.6053 115.412 52.443C115.098 52.1868 114.795 52.3265 114.609 52.7224L112.967 56.1221L111.384 54.6085C111.197 54.4223 110.895 54.6085 110.708 54.9928C110.615 55.1517 110.566 55.3325 110.566 55.5167C110.566 55.7009 110.615 55.8817 110.708 56.0406L112.292 57.5891L110.708 60.9306C110.522 61.3265 110.441 61.7922 110.708 62.0018C110.774 62.0501 110.85 62.0824 110.93 62.0961C111.011 62.1099 111.093 62.1047 111.171 62.0809C111.249 62.0572 111.321 62.0156 111.38 61.9594C111.439 61.9032 111.484 61.834 111.512 61.7573L113.095 58.4041L114.492 59.7547C114.54 59.7935 114.6 59.8146 114.661 59.8146C114.723 59.8146 114.782 59.7935 114.83 59.7547C114.982 59.6571 115.1 59.5147 115.168 59.3472C115.261 59.1883 115.31 59.0074 115.31 58.8233C115.31 58.6391 115.261 58.4582 115.168 58.2993L113.899 56.9488Z" fill="#FAFAFA"/>
<path d="M87.6297 49.8255L85.1964 48.4167C84.532 48.1206 83.8014 48.0045 83.0779 48.0801C82.3544 48.1557 81.6636 48.4204 81.0748 48.8475C79.3757 49.9613 77.963 51.46 76.9516 53.222C75.9401 54.9839 75.3583 56.9595 75.2534 58.9885C75.176 59.7161 75.2938 60.4512 75.5946 61.1183C75.8954 61.7853 76.3683 62.3603 76.9649 62.784V62.784L79.177 64.0531L79.6311 63.1682C80.2192 63.0354 80.7843 62.8157 81.3077 62.5162C83.0064 61.3993 84.4185 59.8983 85.4298 58.1346C86.4411 56.3709 87.0232 54.394 87.1291 52.3637C87.1289 51.858 87.0703 51.354 86.9544 50.8617L87.6297 49.8255Z" fill="#BA68C8"/>
<path d="M87.6297 49.8255L85.1964 48.4167C84.532 48.1206 83.8014 48.0045 83.0779 48.0801C82.3544 48.1557 81.6636 48.4204 81.0748 48.8475C79.3757 49.9613 77.963 51.46 76.9516 53.222C75.9401 54.9839 75.3583 56.9595 75.2534 58.9885C75.176 59.7161 75.2938 60.4512 75.5946 61.1183C75.8954 61.7853 76.3683 62.3603 76.9649 62.784V62.784L79.177 64.0531L79.6311 63.1682C80.2192 63.0354 80.7843 62.8157 81.3077 62.5162C83.0064 61.3993 84.4185 59.8983 85.4298 58.1346C86.4411 56.3709 87.0232 54.394 87.1291 52.3637C87.1289 51.858 87.0703 51.354 86.9544 50.8617L87.6297 49.8255Z" fill="#E40D0D"/>
<path d="M75.4154 57.0088C75.2754 57.6555 75.2013 58.3148 75.1942 58.9764C75.1168 59.7041 75.2346 60.4392 75.5354 61.1062C75.8362 61.7733 76.3091 62.3482 76.9057 62.772V62.772L79.1178 64.0411L79.6301 63.1679C80.2182 63.0351 80.7833 62.8153 81.3067 62.5159C81.8795 62.1874 82.4144 61.797 82.9017 61.3516L75.4154 57.0088Z" fill="#CE0707"/>
<path d="M83.3549 50.1638C81.6556 51.2801 80.243 52.7809 79.2316 54.5448C78.2202 56.3086 77.6385 58.2859 77.5335 60.3164C77.5335 64.0537 80.1532 65.5673 83.3549 63.6928C85.0537 62.5758 86.4658 61.0748 87.4771 59.3111C88.4884 57.5474 89.0705 55.5705 89.1764 53.5402C89.2229 49.8029 86.6149 48.2893 83.3549 50.1638Z" fill="#BA68C8"/>
<path d="M83.3549 50.1638C81.6556 51.2801 80.243 52.7809 79.2316 54.5448C78.2202 56.3086 77.6385 58.2859 77.5335 60.3164C77.5335 64.0537 80.1532 65.5673 83.3549 63.6928C85.0537 62.5758 86.4658 61.0748 87.4771 59.3111C88.4884 57.5474 89.0705 55.5705 89.1764 53.5402C89.2229 49.8029 86.6149 48.2893 83.3549 50.1638Z" fill="#FF363B"/>
<path d="M84.2874 56.7066L85.801 53.3651C85.9396 53.2028 86.0157 52.9963 86.0157 52.7829C86.0157 52.5695 85.9396 52.3631 85.801 52.2008C85.4866 51.9446 85.1839 52.0844 84.9976 52.4802L83.356 55.8799L81.7726 54.3664C81.5863 54.1801 81.2836 54.3664 81.0973 54.7506C81.0042 54.9095 80.9551 55.0903 80.9551 55.2745C80.9551 55.4587 81.0042 55.6395 81.0973 55.7984L82.6807 57.3469L81.0973 60.6884C80.911 61.0843 80.8295 61.55 81.0973 61.7596C81.163 61.8079 81.239 61.8402 81.3194 61.8539C81.3998 61.8677 81.4823 61.8625 81.5603 61.8387C81.6383 61.815 81.7097 61.7734 81.7688 61.7172C81.8278 61.661 81.873 61.5918 81.9006 61.5151L83.4841 58.1619L84.8812 59.5125C84.9289 59.5513 84.9885 59.5724 85.05 59.5724C85.1115 59.5724 85.1711 59.5513 85.2189 59.5125C85.3708 59.4149 85.4888 59.2725 85.5565 59.105C85.6496 58.9461 85.6987 58.7653 85.6987 58.5811C85.6987 58.3969 85.6496 58.216 85.5565 58.0571L84.2874 56.7066Z" fill="#FAFAFA"/>
<path d="M66.0288 23.6126L63.5954 22.2038C62.931 21.9077 62.2004 21.7916 61.4769 21.8672C60.7535 21.9428 60.0626 22.2075 59.4738 22.6346C57.7747 23.7484 56.3621 25.2471 55.3506 27.0091C54.3392 28.771 53.7574 30.7466 53.6524 32.7756C53.5751 33.5032 53.6929 34.2383 53.9937 34.9054C54.2944 35.5724 54.7674 36.1474 55.3639 36.5711V36.5711L57.5761 37.8402L58.0301 36.9554C58.6183 36.8226 59.1834 36.6028 59.7067 36.3034C61.4054 35.1864 62.8175 33.6854 63.8288 31.9217C64.8401 30.158 65.4222 28.1811 65.5281 26.1508C65.528 25.6451 65.4693 25.1411 65.3535 24.6489L66.0288 23.6126Z" fill="#BA68C8"/>
<path d="M66.0288 23.6126L63.5954 22.2038C62.931 21.9077 62.2004 21.7916 61.4769 21.8672C60.7535 21.9428 60.0626 22.2075 59.4738 22.6346C57.7747 23.7484 56.3621 25.2471 55.3506 27.0091C54.3392 28.771 53.7574 30.7466 53.6524 32.7756C53.5751 33.5032 53.6929 34.2383 53.9937 34.9054C54.2944 35.5724 54.7674 36.1474 55.3639 36.5711V36.5711L57.5761 37.8402L58.0301 36.9554C58.6183 36.8226 59.1834 36.6028 59.7067 36.3034C61.4054 35.1864 62.8175 33.6854 63.8288 31.9217C64.8401 30.158 65.4222 28.1811 65.5281 26.1508C65.528 25.6451 65.4693 25.1411 65.3535 24.6489L66.0288 23.6126Z" fill="#E40D0D"/>
<path d="M53.8155 30.7959C53.6756 31.4426 53.6015 32.1019 53.5943 32.7635C53.517 33.4912 53.6348 34.2263 53.9355 34.8933C54.2363 35.5604 54.7093 36.1353 55.3058 36.5591V36.5591L57.518 37.8282L58.0302 36.955C58.6184 36.8222 59.1835 36.6024 59.7068 36.303C60.2796 35.9746 60.8145 35.5841 61.3019 35.1387L53.8155 30.7959Z" fill="#CE0707"/>
<path d="M61.7551 23.9509C60.0557 25.0672 58.6431 26.568 57.6318 28.3319C56.6204 30.0957 56.0386 32.073 55.9337 34.1035C55.9337 37.8408 58.5533 39.3544 61.7551 37.4799C63.4538 36.3629 64.8659 34.8619 65.8772 33.0982C66.8885 31.3345 67.4706 29.3576 67.5765 27.3273C67.6231 23.59 65.0151 22.0764 61.7551 23.9509Z" fill="#BA68C8"/>
<path d="M61.7551 23.9509C60.0557 25.0672 58.6431 26.568 57.6318 28.3319C56.6204 30.0957 56.0386 32.073 55.9337 34.1035C55.9337 37.8408 58.5533 39.3544 61.7551 37.4799C63.4538 36.3629 64.8659 34.8619 65.8772 33.0982C66.8885 31.3345 67.4706 29.3576 67.5765 27.3273C67.6231 23.59 65.0151 22.0764 61.7551 23.9509Z" fill="#FF363B"/>
<path d="M62.6876 30.4937L64.2011 27.1522C64.3397 26.9899 64.4159 26.7835 64.4159 26.57C64.4159 26.3566 64.3397 26.1502 64.2011 25.9879C63.8868 25.7318 63.5841 25.8715 63.3978 26.2673L61.7561 29.667L60.1727 28.1535C59.9864 27.9672 59.6837 28.1535 59.4974 28.5377C59.4043 28.6966 59.3552 28.8774 59.3552 29.0616C59.3552 29.2458 59.4043 29.4266 59.4974 29.5855L61.0809 31.134L59.4974 34.4755C59.3111 34.8714 59.2296 35.3371 59.4974 35.5467C59.5631 35.595 59.6392 35.6273 59.7196 35.6411C59.7999 35.6548 59.8824 35.6496 59.9604 35.6259C60.0384 35.6021 60.1098 35.5605 60.1689 35.5043C60.228 35.4481 60.2731 35.3789 60.3008 35.3022L61.8842 31.949L63.2814 33.2996C63.3291 33.3384 63.3887 33.3595 63.4502 33.3595C63.5117 33.3595 63.5713 33.3384 63.619 33.2996C63.771 33.202 63.889 33.0596 63.9566 32.8921C64.0498 32.7332 64.0989 32.5524 64.0989 32.3682C64.0989 32.184 64.0498 32.0032 63.9566 31.8443L62.6876 30.4937Z" fill="#FAFAFA"/>
</svg>
