<svg width="188" height="105" viewBox="0 0 188 105" fill="none" xmlns="http://www.w3.org/2000/svg">
<path d="M188 0H0V105H188V0Z" fill="#E6E6E6"/>
<path d="M107.157 60.6252C114.506 53.3292 114.506 41.4999 107.157 34.2039C99.8092 26.9078 87.8953 26.9078 80.547 34.2039C73.1987 41.4999 73.1987 53.3292 80.547 60.6252C87.8953 67.9213 99.8092 67.9213 107.157 60.6252Z" fill="#E40D0D"/>
<path d="M103.4 47.288L88.3599 36.7104C88.3599 52.651 88.3599 44.829 88.3599 57.8657L103.4 47.288Z" fill="white"/>
<path d="M188 91.0094H0V105H188V91.0094Z" fill="white"/>
<path d="M178.6 97.6873H11.9067V98.9317H178.6V97.6873Z" fill="#B3B3B3"/>
<path d="M65.8001 97.6873H11.9067V98.9317H65.8001V97.6873Z" fill="#333333"/>
<path d="M67.0535 98.3095C67.0535 98.6787 66.9432 99.0396 66.7366 99.3466C66.5301 99.6535 66.2364 99.8928 65.8929 100.034C65.5494 100.175 65.1714 100.212 64.8067 100.14C64.442 100.068 64.107 99.8905 63.8441 99.6294C63.5812 99.3684 63.4021 99.0358 63.3296 98.6737C63.257 98.3116 63.2943 97.9363 63.4366 97.5952C63.5789 97.2541 63.8198 96.9626 64.129 96.7574C64.4381 96.5523 64.8016 96.4429 65.1734 96.4429C65.6721 96.4429 66.1503 96.6395 66.5028 96.9896C66.8554 97.3397 67.0535 97.8144 67.0535 98.3095Z" fill="#333333"/>
</svg>
