<svg width="188" height="105" viewBox="0 0 188 105" fill="none" xmlns="http://www.w3.org/2000/svg">
<rect x="0.000976562" width="188" height="104.498" rx="6" fill="white"/>
<rect x="41.5762" y="34.9163" width="132.825" height="18.488" rx="4" fill="#E6E6E6"/>
<path d="M179.956 8.36276L179.3 7.70349L176.699 10.3172L174.098 7.70349L173.441 8.36276L176.043 10.9765L173.441 13.5901L174.098 14.2494L176.699 11.6357L179.3 14.2494L179.956 13.5901L177.355 10.9765L179.956 8.36276Z" fill="#666666"/>
<rect x="104.826" y="64.9592" width="69.575" height="20.799" rx="4" fill="#10B501"/>
<path d="M137.597 78.1574L134.6 75.1458L133.579 76.1641L137.597 80.2012L146.222 71.5349L145.208 70.5166L137.597 78.1574Z" fill="white"/>
<path fill-rule="evenodd" clip-rule="evenodd" d="M16.084 35.3015H33.7174C34.9297 35.3015 35.9215 36.2981 35.9215 37.5162V50.8045C35.9215 52.0226 34.9297 53.0192 33.7174 53.0192H16.084C14.8718 53.0192 13.8799 52.0226 13.8799 50.8045L13.8909 37.5162C13.8909 36.2981 14.8718 35.3015 16.084 35.3015ZM25.4848 44.9023L33.2766 40.0078C33.5521 39.8306 33.7174 39.5316 33.7174 39.2105C33.7174 38.4686 32.9129 38.0256 32.2847 38.4132L24.9007 43.053L17.5168 38.4132C16.8886 38.0256 16.084 38.4686 16.084 39.2105C16.084 39.5316 16.2494 39.8306 16.5249 40.0078L24.3166 44.9023C24.6693 45.1238 25.1322 45.1238 25.4848 44.9023Z" fill="#2284F7"/>
</svg>
