<svg width="188" height="105" viewBox="0 0 188 105" fill="none" xmlns="http://www.w3.org/2000/svg">
<rect width="188" height="105" rx="6" fill="white"/>
<rect x="105.322" y="66.6997" width="59.7114" height="20.6693" rx="4" fill="#10B501"/>
<path d="M134.6 79.8153L131.607 76.8225L130.588 77.8345L134.6 81.8463L143.212 73.2341L142.2 72.2222L134.6 79.8153Z" fill="white"/>
<rect x="22.6455" y="66.6997" width="59.7114" height="20.6693" rx="4" fill="#999999"/>
<path d="M57.2835 73.0609L56.2814 72.0588L52.3085 76.0317L48.3356 72.0588L47.3335 73.0609L51.3064 77.0338L47.3335 81.0067L48.3356 82.0088L52.3085 78.0359L56.2814 82.0088L57.2835 81.0067L53.3106 77.0338L57.2835 73.0609Z" fill="white"/>
<path d="M179 8.60429L178.396 8L176 10.3957L173.604 8L173 8.60429L175.396 11L173 13.3957L173.604 14L176 11.6043L178.396 14L179 13.3957L176.604 11L179 8.60429Z" fill="#666666"/>
<rect x="22.6455" y="25.3608" width="142.389" height="9.18636" rx="4" fill="#E6E6E6"/>
<rect x="22.6455" y="39.1403" width="87.2705" height="9.18636" rx="4" fill="#E6E6E6"/>
</svg>
