<svg width="188" height="105" viewBox="0 0 188 105" fill="none" xmlns="http://www.w3.org/2000/svg">
<rect width="187" height="105" rx="3" fill="white"/>
<rect x="121.611" y="65.6094" width="41.6875" height="20.5938" rx="3.75" stroke="#666666" stroke-width="0.5"/>
<path d="M141.749 78.7627L139.306 76.3193L138.474 77.1455L141.749 80.4209L148.78 73.3896L147.954 72.5635L141.749 78.7627Z" fill="#666666"/>
<rect x="72.3926" y="65.6094" width="41.6875" height="20.5938" rx="3.75" stroke="#666666" stroke-width="0.5"/>
<path d="M96.9395 73.8403L96.2714 73.1722L93.623 75.8206L90.9747 73.1722L90.3066 73.8403L92.955 76.4886L90.3066 79.137L90.9747 79.8051L93.623 77.1567L96.2714 79.8051L96.9395 79.137L94.2911 76.4886L96.9395 73.8403Z" fill="#666666"/>
<rect x="34" y="26" width="129" height="17" rx="4" fill="#E6E6E6"/>
<path d="M178.125 7.40375L177.596 6.875L175.5 8.97125L173.404 6.875L172.875 7.40375L174.971 9.5L172.875 11.5963L173.404 12.125L175.5 10.0287L177.596 12.125L178.125 11.5963L176.029 9.5L178.125 7.40375Z" fill="#666666"/>
<path fill-rule="evenodd" clip-rule="evenodd" d="M24.5009 33.0625V36.8125L25.4684 37.78C25.9409 38.2525 25.6034 39.0625 24.9359 39.0625H15.0584C14.3909 39.0625 14.0609 38.2525 14.5334 37.78L15.5009 36.8125V33.0625C15.5009 30.7525 16.7234 28.8325 18.8759 28.3225V27.8125C18.8759 27.19 19.3784 26.6875 20.0009 26.6875C20.6234 26.6875 21.1259 27.19 21.1259 27.8125V28.3225C23.2709 28.8325 24.5009 30.76 24.5009 33.0625ZM21.501 39.8125C21.501 40.6375 20.826 41.3125 20.001 41.3125C19.1685 41.3125 18.501 40.6375 18.501 39.8125H21.501Z" fill="#666666"/>
</svg>
