<svg width="296" height="152" viewBox="0 0 296 152" fill="none" xmlns="http://www.w3.org/2000/svg">
<path d="M0 28.9184C0 26.9432 1.87587 25.507 3.78273 26.0224L293.783 104.401C295.091 104.754 296 105.941 296 107.297V149C296 150.657 294.657 152 293 152H2.99999C1.34314 152 0 150.657 0 149V28.9184Z" fill="#03BCFC"/>
<path d="M140.902 146.512C137.893 145.087 137.839 140.825 140.811 139.325L212.735 103.032C215.033 101.873 217.69 101.644 220.152 102.393L250.479 111.624C252.17 112.139 252.411 114.432 250.865 115.287L184.5 152H152.5L140.902 146.512Z" fill="#05A6DE"/>
<g clip-path="url(#clip0)">
<path d="M213.901 124.417H193.411V127.194C193.411 130.449 198.021 133.089 203.66 133.089C209.299 133.089 213.901 130.449 213.901 127.194V124.417Z" fill="#999999"/>
<path d="M203.66 130.358C209.32 130.358 213.909 127.718 213.909 124.462C213.909 121.206 209.32 118.566 203.66 118.566C198 118.566 193.411 121.206 193.411 124.462C193.411 127.718 198 130.358 203.66 130.358Z" fill="#C6C6C6"/>
<path style="mix-blend-mode:color-dodge" d="M203.66 130.328C198.059 130.328 193.511 127.748 193.419 124.546C193.415 124.578 193.415 124.611 193.419 124.644C193.419 127.899 198.029 130.54 203.668 130.54C209.307 130.54 213.909 127.899 213.909 124.644V124.576C213.801 127.748 209.253 130.328 203.66 130.328Z" fill="url(#paint0_radial)"/>
<path d="M207.794 86.2272H199.681V124.204C199.681 125.487 201.501 126.534 203.737 126.534C205.973 126.534 207.794 125.487 207.794 124.204V86.2272Z" fill="url(#paint1_linear)"/>
<path d="M207.794 86.2272H199.681V124.204C199.681 125.487 201.501 126.534 203.737 126.534C205.973 126.534 207.794 125.487 207.794 124.204V86.2272Z" fill="#999999"/>
<path d="M188.694 97.8289L152.485 77.1901V54.677C152.485 41.5198 160.583 35.4647 170.578 41.1632C180.566 46.8692 188.679 62.1586 188.679 75.3083L188.694 97.8289Z" fill="#AF4B03"/>
<path d="M152.485 77.1901L206.948 45.6172L188.679 97.8289L152.485 77.1901Z" fill="#FFAE00"/>
<path d="M170.578 41.1632C160.59 35.4647 152.485 41.5198 152.485 54.677V77.1901L188.694 97.8289V75.3235C188.694 62.1586 180.581 46.8692 170.578 41.1632ZM187.48 95.8485L153.645 76.5299V54.677C153.645 45.8676 157.486 40.1691 163.394 40.1691C165.735 40.2484 168.014 40.934 170.002 42.1572C179.659 47.6659 187.518 62.5456 187.518 75.3235L187.48 95.8485Z" fill="#E56102"/>
<path d="M134.261 107.974C124.988 102.662 126.148 93.4507 136.858 87.3501L154.121 77.5315L187.58 95.5829L187.688 96.6756L170.409 106.54C159.722 112.595 143.527 113.255 134.261 107.974Z" fill="#FF9C00"/>
<path d="M134.261 106.866C124.988 101.555 126.148 92.3429 136.858 86.2423L154.121 76.3857L187.688 95.5298L170.409 105.394C159.722 111.487 143.527 112.147 134.261 106.866Z" fill="#FFDB8F"/>
<g style="mix-blend-mode:multiply" opacity="0.5">
<path d="M170.424 106.494L174.096 104.415L188.602 88.2455C189.693 87.0239 188.84 85.5291 186.704 84.8993L166.122 78.829C163.986 78.1992 161.366 78.6773 160.275 79.8913L142.474 99.7183C141.383 100.94 142.236 102.435 144.372 103.065L164.723 109.051C166.697 108.369 168.605 107.513 170.424 106.494V106.494Z" fill="#999999"/>
</g>
<path d="M159.499 78.958L141.76 98.7774C140.669 99.999 141.514 101.494 143.657 102.124L164.232 108.194C166.375 108.824 168.987 108.346 170.078 107.132L187.856 87.3198C188.947 86.0982 188.095 84.6034 185.959 83.9736L165.377 77.9033C163.241 77.266 160.621 77.744 159.499 78.958Z" fill="url(#paint2_linear)"/>
<path opacity="0.5" d="M187.856 86.5838L170.078 106.365C168.987 107.587 166.375 108.057 164.232 107.427L143.657 101.357C142.351 100.97 141.529 100.265 141.352 99.4982C141.091 100.515 141.975 101.57 143.657 102.07L164.232 108.141C166.375 108.771 168.987 108.293 170.078 107.078L187.856 87.2667C188.054 87.0719 188.198 86.8295 188.272 86.5633C188.346 86.2972 188.348 86.0165 188.279 85.7491C188.215 86.0593 188.069 86.3473 187.856 86.5838V86.5838Z" fill="#C6C6C6"/>
<g style="mix-blend-mode:multiply" opacity="0.5">
<path d="M187.196 85.6353L168.719 90.0666L171.308 94.9835L162.857 96.6073L167.32 107.807C167.32 107.807 161.443 97.9882 160.851 96.9942C152.462 98.6029 142.082 100.591 142.075 100.583L169.034 94.3157C169.034 94.3157 162.296 78.0702 162.319 78.0627L168.096 88.9132C170.048 88.5794 187.157 85.6201 187.196 85.6353Z" fill="#C6C6C6"/>
</g>
<path d="M142.09 100.545L169.049 94.2854L162.319 78.0627L167.912 94.0198L142.09 100.545Z" fill="white"/>
<g style="mix-blend-mode:multiply">
<path d="M142.09 100.545L169.049 94.2854L162.319 78.0627L170.148 94.5586L142.09 100.545Z" fill="#999999"/>
</g>
<path d="M176.632 66.5064L149.05 82.2284C147.36 83.1996 147.368 84.7627 149.05 85.7339L165.43 95.0821C166.383 95.5576 167.436 95.8053 168.503 95.8053C169.571 95.8053 170.624 95.5576 171.576 95.0821L199.158 79.3526C200.848 78.3889 200.84 76.8182 199.158 75.847L182.786 66.514C181.833 66.0337 180.779 65.7827 179.71 65.7814C178.64 65.7801 177.585 66.0285 176.632 66.5064V66.5064Z" fill="#C6C6C6"/>
<path d="M176.01 65.3151L148.428 81.0447C146.73 82.0083 146.746 83.579 148.428 84.5502L164.816 93.8908C165.768 94.3681 166.821 94.6168 167.889 94.6168C168.957 94.6168 170.01 94.3681 170.962 93.8908L198.566 78.1765C200.257 77.2128 200.249 75.6421 198.566 74.6709L182.156 65.3303C181.205 64.8507 180.152 64.5994 179.085 64.5968C178.017 64.5941 176.963 64.8402 176.01 65.3151V65.3151Z" fill="white"/>
<path d="M198.566 77.3722L170.977 93.1017C170.025 93.5789 168.972 93.8277 167.904 93.8277C166.836 93.8277 165.783 93.5789 164.831 93.1017L148.444 83.7459C147.866 83.469 147.421 82.9783 147.207 82.3801C146.984 83.1389 147.383 83.9584 148.421 84.5502L164.808 93.8908C165.76 94.3681 166.813 94.6168 167.881 94.6168C168.949 94.6168 170.002 94.3681 170.954 93.8908L198.566 78.1765C199.58 77.5922 199.972 76.7727 199.757 76.0139C199.556 76.6036 199.129 77.0916 198.566 77.3722V77.3722Z" fill="#E6E6E6"/>
<g style="mix-blend-mode:multiply" opacity="0.5">
<path d="M198.82 76.4844L178.845 77.4784L178.706 82.5623L169.787 82.6306L168.043 94.0123C168.043 94.0123 167.697 83.6625 167.666 82.6306L147.829 82.7747L176.901 81.5227C176.901 81.5227 179.152 64.9358 179.206 64.9358L178.898 76.2568C180.881 76.2872 198.828 76.4693 198.82 76.4844Z" fill="#C6C6C6"/>
</g>
<path d="M147.798 82.7899L176.87 81.5379L179.152 64.9509L175.933 81.0902L147.798 82.7899Z" fill="white"/>
<path d="M147.798 82.7899L176.87 81.5379L179.152 64.9509L177.777 81.9856L147.798 82.7899Z" fill="#C6C6C6"/>
<path d="M221.907 12.1398C217.566 9.66613 213.586 9.40814 210.467 10.9864V10.9257L159.545 39.6607L159.615 39.7897C162.688 38.4695 166.46 38.8185 170.578 41.1631C180.566 46.8692 188.679 62.1586 188.679 75.3083V97.8137L240 68.7904V46.3001C240 33.1352 231.902 17.8458 221.907 12.1398Z" fill="#FFCA00"/>
<path d="M195.685 67.6674C195.635 68.141 195.712 68.6194 195.907 69.0548C196.103 69.4901 196.41 69.8673 196.799 70.1486L197.721 70.7556C198.436 71.1502 197.975 70.2548 199.066 69.6326C200.216 68.8943 201.173 67.8988 201.86 66.7268C202.548 65.5549 202.946 64.2394 203.022 62.887C203.022 61.6578 204.175 61.6502 203.468 61.2405L202.415 60.6183C201.967 60.429 201.477 60.3575 200.992 60.4107C200.508 60.4639 200.045 60.6399 199.65 60.9218C198.498 61.6584 197.538 62.6533 196.849 63.8255C196.16 64.9977 195.762 66.3141 195.685 67.6674V67.6674Z" fill="#666666"/>
<path d="M196.707 68.2896C196.707 70.7632 198.482 71.7648 200.671 70.5204C201.821 69.78 202.778 68.783 203.465 67.6099C204.153 66.4368 204.551 65.1204 204.628 63.7672C204.628 61.2936 202.853 60.292 200.671 61.5364C199.52 62.2755 198.561 63.272 197.872 64.4453C197.184 65.6186 196.784 66.9355 196.707 68.2896V68.2896Z" fill="#999999"/>
<path style="mix-blend-mode:color-dodge" d="M200.426 61.3771C200.836 61.0814 201.321 60.9042 201.827 60.8653C202.333 60.8264 202.84 60.9275 203.291 61.157C202.494 61.0025 201.668 61.1604 200.986 61.5971C199.834 62.3337 198.875 63.3286 198.186 64.5008C197.497 65.673 197.098 66.9894 197.022 68.3427C196.977 68.8092 197.054 69.2793 197.245 69.7083C197.436 70.1373 197.735 70.5109 198.113 70.7936C197.114 70.5508 196.454 69.6023 196.454 68.0999C196.535 66.7502 196.938 65.4383 197.628 64.2705C198.318 63.1026 199.276 62.1115 200.426 61.3771V61.3771Z" fill="url(#paint3_radial)"/>
<path d="M202.523 48.6978H198.812V66.2333C198.812 66.8327 199.65 67.3107 200.687 67.3107C201.724 67.3107 202.523 66.8327 202.523 66.2333V48.6978Z" fill="url(#paint4_linear)"/>
<path d="M202.523 48.6978H198.812V66.2333C198.812 66.8327 199.65 67.3107 200.687 67.3107C201.724 67.3107 202.523 66.8327 202.523 66.2333V48.6978Z" fill="#333333"/>
<path d="M209.976 47.2031L209.991 47.977L198.812 53.5768V46.6036L209.976 40.2375L209.96 40.9204L206.472 45.7234L209.976 47.2031Z" fill="#333333"/>
<path d="M209.976 47.9466L198.812 54.3128V47.3396L209.976 40.9734L206.472 46.4594L209.976 47.9466Z" fill="#333333"/>
<path d="M170.578 41.1632C167.613 39.4711 164.816 38.8261 162.342 39.0841L162.865 40.1995C163.041 40.1995 163.218 40.1995 163.395 40.1995C165.736 40.2787 168.014 40.9643 170.002 42.1875C179.659 47.6963 187.519 62.576 187.519 75.3538V95.8789L188.694 97.8289V75.3235C188.694 62.1586 180.581 46.8692 170.578 41.1632Z" fill="#FF9C00"/>
</g>
<path fill-rule="evenodd" clip-rule="evenodd" d="M67.9761 88.2482L76.6953 93.1201C77.1878 93.3953 78.0142 93.4505 78.9926 93.2734L96.3136 90.1391C97.2921 89.962 98.3425 89.5672 99.2337 89.0415L115.007 79.7377C115.898 79.212 116.557 78.5985 116.839 78.0322L121.829 68.0067C122.111 67.4404 121.993 66.9676 121.5 66.6923L112.782 61.8203C112.289 61.5451 111.463 61.4899 110.485 61.6669L93.1635 64.8013C92.1851 64.9783 91.1348 65.3731 90.2436 65.8987L74.469 75.2028C73.5777 75.7285 72.9186 76.342 72.6367 76.9084L67.647 86.9338C67.3651 87.5002 67.4835 87.973 67.9761 88.2482Z" fill="#333333" fill-opacity="0.2"/>
<path fill-rule="evenodd" clip-rule="evenodd" d="M78.0765 14.0906L65.1462 34.5308C64.4157 35.6855 64.0054 36.9115 64.0054 37.9391V56.1301C64.0054 57.1577 64.4158 57.9027 65.1463 58.2012C65.1463 58.2012 71.367 61.9093 73.2923 62.6959C75.677 63.6702 78.0765 63.4839 78.0765 63.4839C78.8071 63.7824 79.7979 63.6099 80.8311 63.0044L99.1201 52.2857C100.153 51.6802 101.144 50.6912 101.875 49.5364L114.805 29.0976C115.535 27.9428 115.946 26.7167 115.946 25.6891L120.945 13.7595C120.945 13.4592 123.125 10.3306 123.057 10.0827C122.893 9.48221 115.322 5.6383 114.805 5.42702L101.875 0.143089C101.144 -0.155454 100.153 0.0170192 99.12 0.622563L80.8312 11.3412C79.798 11.9467 78.8071 12.9357 78.0765 14.0906Z" fill="#C10000"/>
<path fill-rule="evenodd" clip-rule="evenodd" d="M85.8671 18.4732L72.9368 38.9134C72.2063 40.0682 71.7959 41.2941 71.7959 42.3217V60.5127C71.7959 61.5403 72.2063 62.2853 72.9369 62.5838L85.8671 67.8666C86.5976 68.165 87.5885 67.9926 88.6216 67.387L106.911 56.6683C107.944 56.0628 108.935 55.0739 109.665 53.9191L122.595 33.4802C123.326 32.3254 123.736 31.0993 123.736 30.0717V11.8807C123.736 10.8531 123.326 10.1082 122.596 9.80965L109.665 4.52572C108.935 4.22718 107.944 4.39965 106.911 5.00519L88.6217 15.7238C87.5885 16.3294 86.5976 17.3184 85.8671 18.4732Z" fill="#E40D0D"/>
<path fill-rule="evenodd" clip-rule="evenodd" d="M98.1483 54.478C107.044 49.5426 109.154 40.6888 109.154 40.6888L114.26 24.0438C114.26 24.0438 114.721 22.3542 114.636 22.3852C109.882 24.1866 108.871 27.9019 108.871 27.9019C108.871 27.9019 107.044 33.3844 106.76 33.5417C106.477 33.6989 106.443 33.3871 106.443 33.3871V17.3324C106.443 17.3324 106.532 15.2121 104.273 16.4653C102.014 17.7185 102.129 19.7302 102.129 19.7302L102.133 31.5886C102.133 31.5886 102.162 32.0501 101.739 32.2848C101.363 32.4936 101.384 32.0199 101.384 32.0199V17.7296C101.384 17.7296 101.524 15.3183 99.2396 16.5855C96.9554 17.8528 97.0781 20.1346 97.0781 20.1346L97.057 34.2454C97.057 34.2454 97.0866 34.6631 96.7101 34.872C96.359 35.0668 96.3717 34.6296 96.3717 34.6296V22.8087C96.3717 22.8087 96.4986 20.3326 94.1722 21.6234C91.888 22.8907 92.0107 25.272 92.0107 25.272L91.9896 37.7659C91.9896 37.7659 92.0319 38.1048 91.6723 38.3043C91.2916 38.5155 91.3001 38.1484 91.3001 38.1484L91.2832 30.6104C91.2832 30.6104 91.3043 28.5116 89.384 29.5771C87.3409 30.7106 87.379 32.7765 87.379 32.7765V49.0661C87.3917 49.0551 86.863 60.7393 98.1483 54.478Z" fill="white"/>
<defs>
<radialGradient id="paint0_radial" cx="0" cy="0" r="1" gradientUnits="userSpaceOnUse" gradientTransform="translate(2123.85 1068.9) scale(201.65 58.9845)">
<stop stop-color="white"/>
<stop offset="1"/>
</radialGradient>
<linearGradient id="paint1_linear" x1="1401.79" y1="5205.95" x2="1486.09" y2="5205.95" gradientUnits="userSpaceOnUse">
<stop stop-color="#B9BFEA"/>
<stop offset="0.25" stop-color="#E5E9FF"/>
<stop offset="0.7" stop-color="#AFB6E5"/>
<stop offset="0.95" stop-color="#BAC0EA"/>
<stop offset="1" stop-color="#BDC3EC"/>
</linearGradient>
<linearGradient id="paint2_linear" x1="197.051" y1="106.51" x2="170.075" y2="79.5865" gradientUnits="userSpaceOnUse">
<stop stop-color="white"/>
<stop offset="0.86" stop-color="#F5F6FF"/>
<stop offset="1" stop-color="white"/>
</linearGradient>
<radialGradient id="paint3_radial" cx="0" cy="0" r="1" gradientUnits="userSpaceOnUse" gradientTransform="translate(-32207 780.45) rotate(180) scale(38.3596 55.7431)">
<stop stop-color="white"/>
<stop offset="1"/>
</radialGradient>
<linearGradient id="paint4_linear" x1="198.812" y1="58.0005" x2="202.554" y2="58.0005" gradientUnits="userSpaceOnUse">
<stop stop-color="#3B3ABA"/>
<stop offset="0.14" stop-color="#564BD7"/>
<stop offset="0.23" stop-color="#6152E3"/>
<stop offset="0.4" stop-color="#4528C9"/>
<stop offset="0.48" stop-color="#4221A9"/>
<stop offset="0.57" stop-color="#401B8D"/>
<stop offset="0.63" stop-color="#3F1982"/>
<stop offset="0.87" stop-color="#5E239E"/>
<stop offset="1" stop-color="#491C8B"/>
</linearGradient>
<clipPath id="clip0">
<rect width="112" height="124" fill="white" transform="translate(128 10)"/>
</clipPath>
</defs>
</svg>
