<?xml version="1.0" encoding="UTF-8" standalone="no"?>
<svg viewBox="0 0 50 50"
 xmlns="http://www.w3.org/2000/svg" xmlns:xlink="http://www.w3.org/1999/xlink"  version="1.2" baseProfile="tiny">
<title>Qt SVG Document</title>
<desc>Generated with Qt</desc>
<defs>
</defs>
<g fill="none" stroke="black" stroke-width="1" fill-rule="evenodd" stroke-linecap="square" stroke-linejoin="bevel" >

<g fill="#27ae60" fill-opacity="1" stroke="none" transform="matrix(0.0552956,0,0,-0.0552959,-4.28815,49.1733)"
font-family="Noto Sans" font-size="10" font-weight="400" font-style="normal" 
>
<path vector-effect="none" fill-rule="nonzero" d="M529.669,-14.9514 C779.361,-14.9514 981.78,187.467 981.78,437.161 C981.78,686.857 779.361,889.275 529.669,889.275 C279.969,889.275 77.5495,686.857 77.5495,437.161 C77.5495,187.467 279.969,-14.9514 529.669,-14.9514 "/>
</g>

<g fill="#eff0f1" fill-opacity="1" stroke="none" transform="matrix(0.0578019,0,0,-0.0573117,-0.0281215,49.7527)"
font-family="Noto Sans" font-size="10" font-weight="400" font-style="normal" 
>
<path vector-effect="none" fill-rule="nonzero" d="M317.364,650.001 L584.563,650.001 C620.142,650.001 649.255,620.888 649.255,585.306 L649.255,318.11 L317.364,650.001 M549.688,213.79 L281.435,213.79 C245.852,213.79 216.743,242.899 216.743,278.481 L216.743,546.735 L549.688,213.79"/>
</g>

<g fill="none" stroke="#000000" stroke-opacity="1" stroke-width="1" stroke-linecap="square" stroke-linejoin="bevel" transform="matrix(1,0,0,1,0,0)"
font-family="Noto Sans" font-size="10" font-weight="400" font-style="normal" 
>
</g>
</g>
</svg>
