<svg xmlns="http://www.w3.org/2000/svg" viewBox="0 0 256 256"><circle fill="#8A5FFF" cx="128" cy="128" r="128"/><path fill="#FFF" d="M73.6 195.3c-4.6 0-9.2-1.3-13.2-3.8-7.6-4.7-12.2-12.8-12.2-21.7v-65.4c0-6.2 5-11.2 11.2-11.2s11.2 5 11.2 11.2v65.4c0 1.4.8 2.2 1.4 2.6.7.4 1.7.7 3 .1l63.8-32.7c5.5-2.8 12.3-.6 15.1 4.9 2.8 5.5.6 12.3-4.9 15.1l-63.8 32.7c-3.7 1.8-7.6 2.8-11.6 2.8zm29.3-55.1V74.8c0-1.4.8-2.2 1.4-2.6.7-.4 1.7-.7 3-.1l63.8 32.7c5.5 2.8 12.3.6 15.1-4.9 2.8-5.5.6-12.3-4.9-15.1l-63.8-32.7c-7.9-4.1-17.2-3.7-24.9.9-7.6 4.7-12.2 12.8-12.2 21.7v65.4c0 6.2 5 11.2 11.2 11.2s11.3-4.9 11.3-11.1zm27.3 65.2 63.8-32.7c8.5-4.4 13.8-13 13.8-22.6s-5.3-18.2-13.8-22.6l-63.8-32.7c-5.5-2.8-12.3-.6-15.1 4.9-2.8 5.5-.6 12.3 4.9 15.1l63.8 32.7c1.4.7 1.6 1.8 1.6 2.7s-.3 2-1.6 2.7L120 185.5c-5.5 2.8-7.7 9.6-4.9 15.1 2 3.9 5.9 6.1 10 6.1 1.7 0 3.4-.4 5.1-1.3z"/></svg>