<?xml version="1.0" encoding="UTF-8" standalone="no"?>
<svg viewBox="0 0 50 50"
 xmlns="http://www.w3.org/2000/svg" xmlns:xlink="http://www.w3.org/1999/xlink"  version="1.2" baseProfile="tiny">
<title>Qt SVG Document</title>
<desc>Generated with Qt</desc>
<defs>
</defs>
<g fill="none" stroke="black" stroke-width="1" fill-rule="evenodd" stroke-linecap="square" stroke-linejoin="bevel" >

<g fill="#ff2a2a" fill-opacity="1" stroke="none" transform="matrix(0.0548323,0,0,-0.0548323,-1.26386,49.2991)"
font-family="Noto Sans" font-size="10" font-weight="400" font-style="normal" 
>
<path vector-effect="none" fill-rule="nonzero" d="M478.989,899.088 C730.791,899.088 934.921,694.961 934.921,443.153 C934.921,191.345 730.791,-12.7825 478.989,-12.7825 C227.18,-12.7825 23.0496,191.345 23.0496,443.153 C23.0496,694.961 227.18,899.088 478.989,899.088 "/>
</g>

<g fill="#eff0f1" fill-opacity="1" stroke="none" transform="matrix(0.0548323,0,0,-0.0548323,-1.26386,49.2991)"
font-family="Noto Sans" font-size="10" font-weight="400" font-style="normal" 
>
<path vector-effect="none" fill-rule="nonzero" d="M262.04,280.359 L641.782,660.102 C656.478,674.797 680.521,674.797 695.225,660.102 L695.928,659.392 C710.627,644.696 710.627,620.652 695.932,605.952 L316.189,226.214 C301.49,211.514 277.445,211.514 262.75,226.214 L262.04,226.915 C247.343,241.615 247.343,265.664 262.04,280.359 "/>
</g>

<g fill="#eff0f1" fill-opacity="1" stroke="none" transform="matrix(0.0548323,0,0,-0.0548323,-1.26386,49.2991)"
font-family="Noto Sans" font-size="10" font-weight="400" font-style="normal" 
>
<path vector-effect="none" fill-rule="nonzero" d="M316.193,660.099 L695.932,280.355 C710.627,265.66 710.627,241.611 695.932,226.916 L695.225,226.21 C680.525,211.51 656.482,211.51 641.785,226.21 L262.043,605.949 C247.342,620.649 247.342,644.693 262.043,659.393 L262.749,660.099 C277.448,674.798 301.493,674.798 316.193,660.099 "/>
</g>

<g fill="none" stroke="#000000" stroke-opacity="1" stroke-width="1" stroke-linecap="square" stroke-linejoin="bevel" transform="matrix(1,0,0,1,0,0)"
font-family="Noto Sans" font-size="10" font-weight="400" font-style="normal" 
>
</g>
</g>
</svg>
