<?xml version="1.0" encoding="UTF-8" standalone="no"?>
<svg
   width="22"
   height="22"
   enable-background="new"
   version="1.1"
   id="svg2899"
   sodipodi:docname="edit.svg"
   inkscape:version="1.2 (dc2aedaf03, 2022-05-15)"
   xmlns:inkscape="http://www.inkscape.org/namespaces/inkscape"
   xmlns:sodipodi="http://sodipodi.sourceforge.net/DTD/sodipodi-0.dtd"
   xmlns="http://www.w3.org/2000/svg"
   xmlns:svg="http://www.w3.org/2000/svg">
  <sodipodi:namedview
     id="namedview2901"
     pagecolor="#ffffff"
     bordercolor="#666666"
     borderopacity="1.0"
     inkscape:showpageshadow="2"
     inkscape:pageopacity="0.0"
     inkscape:pagecheckerboard="0"
     inkscape:deskcolor="#d1d1d1"
     showgrid="false"
     inkscape:zoom="3.4034091"
     inkscape:cx="15.719533"
     inkscape:cy="7.1986644"
     inkscape:window-width="1366"
     inkscape:window-height="736"
     inkscape:window-x="0"
     inkscape:window-y="0"
     inkscape:window-maximized="1"
     inkscape:current-layer="svg2899" />
  <defs
     id="defs2887">
    <style
       id="current-color-scheme"
       type="text/css">	.ColorScheme-Text {
            color:#232629;
        }
        .ColorScheme-PositiveText {
            color:#27ae60;
        }
        .ColorScheme-NeutralText {
            color:#f67400;
        }
	.ColorScheme-NegativeText {
            color:#f62233;
        }
        .ColorScheme-Highlight {
            color:#3daee9;
        }</style>
  </defs>
  <g
     id="22-22-edit-delete">
    <rect
       width="22"
       height="22"
       opacity="0"
       id="rect2889" />
    <path
       d="m11 4c-3.863 0-7 3.137-7 7s3.137 7 7 7 7-3.137 7-7-3.137-7-7-7zm0 2c1.0194 0 1.959 0.28763 2.75 0.8125l-6.9375 6.9375c-0.52487-0.79102-0.8125-1.7306-0.8125-2.75 0-2.7593 2.2408-5 5-5zm4.1875 2.25c0.52487 0.79102 0.8125 1.7306 0.8125 2.75 0 2.7592-2.2408 5-5 5-1.0194 0-1.959-0.28763-2.75-0.8125z"
       fill="currentColor"
       id="path2891"
       class="ColorScheme-NegativeText" />
  </g>
  <g
     id="edit-delete">
    <rect
       x="32"
       width="32"
       height="32"
       opacity="0"
       id="rect2894" />
    <path
       d="m48 4a12 12 0 0 0-12 12 12 12 0 0 0 12 12 12 12 0 0 0 12-12 12 12 0 0 0-12-12zm0 2a10 10 0 0 1 6.3262 2.2598l-14.049 14.049a10 10 0 0 1-2.2773-6.3086 10 10 0 0 1 10-10zm7.7402 3.6738a10 10 0 0 1 2.2598 6.3262 10 10 0 0 1-10 10 10 10 0 0 1-6.3086-2.2773l14.049-14.049z"
       fill="currentColor"
       id="path2896"
       class="ColorScheme-NegativeText" />
  </g>
</svg>
