<svg width="127" height="127" viewBox="0 0 127 127" fill="none" xmlns="http://www.w3.org/2000/svg">
<g clip-path="url(#clip0)">
<path d="M28.6104 64.2308C28.2674 63.6106 27.7645 63.0936 27.154 62.7335C26.5436 62.3733 25.8478 62.1832 25.1391 62.183H22.8319C22.4535 62.1862 22.0788 62.1082 21.7331 61.9543C21.3875 61.8003 21.0788 61.574 20.828 61.2907C20.5773 61.0073 20.3902 60.6734 20.2795 60.3116C20.1687 59.9497 20.1369 59.5684 20.1861 59.1932C21.2899 50.6743 24.8825 42.6705 30.5138 36.1838C36.1451 29.6971 43.565 25.0159 51.8443 22.7263C60.1236 20.4367 68.8944 20.6406 77.0584 23.3123C85.2224 25.9839 92.4168 31.0048 97.7407 37.746C98.6209 38.8179 99.8867 39.5014 101.266 39.6494C102.645 39.7973 104.027 39.398 105.114 38.5372C106.202 37.6765 106.908 36.4232 107.081 35.047C107.254 33.6709 106.879 32.2819 106.038 31.1791C99.3188 22.6824 90.2094 16.3922 79.8833 13.119C69.5572 9.84572 58.4876 9.7394 48.1005 12.8137C37.7134 15.8879 28.4848 22.002 21.6037 30.3681C14.7225 38.7342 10.504 48.969 9.49161 59.7541C9.43075 60.4128 9.12535 61.0248 8.6356 61.4695C8.14585 61.9142 7.50729 62.1593 6.84577 62.1565H3.96711C3.25907 62.1568 2.564 62.3465 1.95399 62.7059C1.34397 63.0654 0.841219 63.5815 0.49787 64.2007C0.154521 64.8199 -0.0169233 65.5197 0.00131757 66.2275C0.0195584 66.9353 0.22682 67.6253 0.601608 68.226L11.1849 85.1594C11.5424 85.7301 12.039 86.2007 12.6281 86.5269C13.2173 86.8531 13.8797 87.0242 14.5531 87.0242C15.2265 87.0242 15.8889 86.8531 16.4781 86.5269C17.0672 86.2007 17.5638 85.7301 17.9212 85.1594L28.5046 68.226C28.874 67.629 29.0785 66.9446 29.0971 66.2427C29.1157 65.5409 28.9477 64.8466 28.6104 64.2308Z" fill="#97A1AE"/>
<path d="M126.397 60.077L115.814 43.1436C115.432 42.6063 114.927 42.1682 114.341 41.8658C113.755 41.5635 113.105 41.4058 112.446 41.4058C111.787 41.4058 111.137 41.5635 110.551 41.8658C109.965 42.1682 109.46 42.6063 109.078 43.1436L98.4944 60.077C98.1196 60.6777 97.9124 61.3677 97.8941 62.0755C97.8759 62.7833 98.0473 63.4831 98.3907 64.1023C98.734 64.7216 99.2368 65.2376 99.8468 65.5971C100.457 65.9565 101.152 66.1462 101.86 66.1465H104.167C104.545 66.1433 104.92 66.2213 105.266 66.3752C105.612 66.5292 105.92 66.7554 106.171 67.0388C106.422 67.3222 106.609 67.6561 106.72 68.0179C106.83 68.3797 106.862 68.7611 106.813 69.1363C105.709 77.6551 102.117 85.659 96.4852 92.1457C90.8538 98.6324 83.434 103.314 75.1547 105.603C66.8754 107.893 58.1046 107.689 49.9406 105.017C41.7766 102.346 34.5822 97.3247 29.2582 90.5834C28.378 89.5116 27.1122 88.8281 25.7332 88.6801C24.3542 88.5321 22.9722 88.9315 21.8846 89.7922C20.7971 90.653 20.0909 91.9063 19.9182 93.2824C19.7454 94.6586 20.1199 96.0475 20.9609 97.1504C27.6817 105.648 36.7934 111.938 47.1217 115.21C57.4499 118.482 68.5214 118.586 78.9094 115.509C89.2973 112.432 98.5256 106.314 105.405 97.9442C112.284 89.5744 116.5 79.3361 117.507 68.5489C117.568 67.8902 117.874 67.2782 118.363 66.8335C118.853 66.3888 119.492 66.1437 120.153 66.1465H123.048C123.756 66.1462 124.451 65.9565 125.061 65.5971C125.671 65.2376 126.174 64.7216 126.517 64.1023C126.86 63.4831 127.032 62.7833 127.014 62.0755C126.995 61.3677 126.788 60.6777 126.413 60.077H126.397Z" fill="#97A1AE"/>
<path d="M79.2223 51.9218C78.9706 51.8861 78.7402 51.7606 78.5738 51.5684C78.4073 51.3763 78.3159 51.1304 78.3163 50.8762V46.5667C78.3163 42.637 76.7553 38.8684 73.9766 36.0897C71.198 33.311 67.4293 31.75 63.4997 31.75C59.5701 31.75 55.8014 33.311 53.0227 36.0897C50.244 38.8684 48.683 42.637 48.683 46.5667V50.8762C48.6835 51.1304 48.5921 51.3763 48.4256 51.5684C48.2591 51.7606 48.0288 51.8861 47.7771 51.9218C46.2653 52.1397 44.8827 52.8953 43.8828 54.0499C42.8829 55.2046 42.3327 56.6809 42.333 58.2083V81.4917C42.333 83.1758 43.002 84.7909 44.1929 85.9818C45.3837 87.1726 46.9989 87.8417 48.683 87.8417H78.3163C80.0005 87.8417 81.6156 87.1726 82.8065 85.9818C83.9973 84.7909 84.6663 83.1758 84.6663 81.4917V58.2083C84.6667 56.6809 84.1165 55.2046 83.1166 54.0499C82.1167 52.8953 80.7341 52.1397 79.2223 51.9218ZM67.733 71.9667C67.733 72.8039 67.4847 73.6224 67.0196 74.3186C66.5544 75.0148 65.8932 75.5574 65.1197 75.8778C64.3462 76.1982 63.495 76.282 62.6738 76.1187C61.8526 75.9553 61.0983 75.5521 60.5063 74.9601C59.9142 74.368 59.511 73.6137 59.3477 72.7926C59.1843 71.9714 59.2682 71.1202 59.5886 70.3466C59.909 69.5731 60.4516 68.9119 61.1478 68.4468C61.8439 67.9816 62.6624 67.7333 63.4997 67.7333C64.6224 67.7333 65.6992 68.1793 66.4931 68.9732C67.287 69.7672 67.733 70.8439 67.733 71.9667ZM57.1497 46.5667C57.1497 44.8825 57.8187 43.2674 59.0095 42.0765C60.2004 40.8857 61.8155 40.2167 63.4997 40.2167C65.1838 40.2167 66.7989 40.8857 67.9898 42.0765C69.1807 43.2674 69.8497 44.8825 69.8497 46.5667V50.8C69.8497 51.0807 69.7382 51.3499 69.5397 51.5484C69.3412 51.7468 69.072 51.8583 68.7913 51.8583H58.208C57.9273 51.8583 57.6581 51.7468 57.4597 51.5484C57.2612 51.3499 57.1497 51.0807 57.1497 50.8V46.5667Z" fill="#97A1AE"/>
</g>
<defs>
<clipPath id="clip0">
<rect width="127" height="127" fill="white"/>
</clipPath>
</defs>
</svg>
