<svg width="125" height="125" viewBox="0 0 125 125" fill="none" xmlns="http://www.w3.org/2000/svg">
    <g filter="url(#filter0_i)">
        <path fill-rule="evenodd" clip-rule="evenodd" d="M62.5001 105.556C86.279 105.556 105.556 86.2789 105.556 62.5C105.556 38.7211 86.279 19.4445 62.5001 19.4445C38.7212 19.4445 19.4446 38.7211 19.4446 62.5C19.4446 86.2789 38.7212 105.556 62.5001 105.556Z" fill="white"/>
    </g>
    <path fill-rule="evenodd" clip-rule="evenodd" d="M62.5001 105.556C86.279 105.556 105.556 86.2789 105.556 62.5C105.556 38.7211 86.279 19.4445 62.5001 19.4445C38.7212 19.4445 19.4446 38.7211 19.4446 62.5C19.4446 86.2789 38.7212 105.556 62.5001 105.556Z" stroke="#264887" stroke-width="2"/>
    <path fill-rule="evenodd" clip-rule="evenodd" d="M62.5001 95.8333C80.9096 95.8333 95.8334 80.9094 95.8334 62.5C95.8334 44.0905 80.9096 29.1666 62.5001 29.1666C44.0906 29.1666 29.1667 44.0905 29.1667 62.5C29.1667 80.9094 44.0906 95.8333 62.5001 95.8333Z" fill="white"/>
    <path d="M31.2036 49.4161C33.6457 43.0377 37.988 37.5633 43.6431 33.7336C49.2983 29.9039 55.9933 27.9037 62.8225 28.0036L62.335 61.335L31.2036 49.4161Z" fill="#D32D27"/>
    <path d="M62.5 24.3055V32.3593" stroke="#264887" stroke-width="2" stroke-linecap="round"/>
    <path d="M62.5 90.9722V99.0259" stroke="#264887" stroke-width="2" stroke-linecap="round"/>
    <path d="M100.347 61.4584H92.2935" stroke="#264887" stroke-width="2" stroke-linecap="round"/>
    <path d="M33.6804 61.4584H25.6267" stroke="#264887" stroke-width="2" stroke-linecap="round"/>
    <path d="M95.4968 80.2548L88.522 76.228" stroke="#264887" stroke-width="2" stroke-linecap="round"/>
    <path d="M37.7617 46.9216L30.7869 42.8947" stroke="#264887" stroke-width="2" stroke-linecap="round"/>
    <path d="M81.898 94.108L77.8711 87.1332" stroke="#264887" stroke-width="2" stroke-linecap="round"/>
    <path d="M48.5646 36.373L44.5377 29.3982" stroke="#264887" stroke-width="2" stroke-linecap="round"/>
    <path d="M44.3979 94.455L48.4249 87.4803" stroke="#264887" stroke-width="2" stroke-linecap="round"/>
    <path d="M77.7312 36.7202L81.7581 29.7454" stroke="#264887" stroke-width="2" stroke-linecap="round"/>
    <path d="M30.5449 80.8561L37.5196 76.8293" stroke="#264887" stroke-width="2" stroke-linecap="round"/>
    <path d="M88.2799 47.5229L95.2546 43.496" stroke="#264887" stroke-width="2" stroke-linecap="round"/>
    <path fill-rule="evenodd" clip-rule="evenodd" d="M62.5 66.6667C64.8012 66.6667 66.6667 64.8012 66.6667 62.5C66.6667 60.1989 64.8012 58.3334 62.5 58.3334C60.1989 58.3334 58.3334 60.1989 58.3334 62.5C58.3334 64.8012 60.1989 66.6667 62.5 66.6667Z" fill="white" stroke="#264887" stroke-width="2"/>
    <path fill-rule="evenodd" clip-rule="evenodd" d="M62.5 125C97.0178 125 125 97.0178 125 62.5C125 27.9822 97.0178 0 62.5 0C27.9822 0 0 27.9822 0 62.5C0 97.0178 27.9822 125 62.5 125Z" fill="#ECF5FB"/>
    <path d="M95.139 13.1945H90.9723V17.3611H95.139V13.1945Z" stroke="#B5D9F1" stroke-width="2" stroke-linecap="round" stroke-linejoin="round"/>
    <path fill-rule="evenodd" clip-rule="evenodd" d="M15.9722 19.6129L18.9184 16.6666L21.8647 19.6129L18.9184 22.5592L15.9722 19.6129Z" stroke="#B5D9F1" stroke-width="2" stroke-linecap="round" stroke-linejoin="round"/>
    <path d="M46.5992 15.5839C46.0932 15.8053 45.8625 16.3949 46.0838 16.9009C46.3052 17.4069 46.8948 17.6376 47.4008 17.4162L46.5992 15.5839ZM77.6119 17.4217C78.121 17.636 78.7073 17.3971 78.9216 16.8881C79.136 16.3791 78.8971 15.7927 78.3881 15.5784L77.6119 17.4217ZM47.4008 17.4162C51.2472 15.7334 56.4823 14.7489 61.9487 14.6875C67.4121 14.6261 73.019 15.4879 77.6119 17.4217L78.3881 15.5784C73.481 13.5123 67.5879 12.624 61.9263 12.6876C56.2677 12.7512 50.7528 13.7667 46.5992 15.5839L47.4008 17.4162Z" fill="#B5D9F1"/>
    <path d="M15.8994 78.4008C16.1208 78.9068 16.7104 79.1375 17.2164 78.9162C17.7224 78.6948 17.9531 78.1052 17.7318 77.5992L15.8994 78.4008ZM17.7372 47.3881C17.9515 46.879 17.7126 46.2927 17.2036 46.0784C16.6946 45.864 16.1083 46.1029 15.894 46.6119L17.7372 47.3881ZM17.7318 77.5992C16.0489 73.7528 15.0644 68.5177 15.003 63.0513C14.9417 57.5879 15.8034 51.981 17.7372 47.3881L15.894 46.6119C13.8278 51.519 12.9396 57.4121 13.0032 63.0737C13.0667 68.7323 14.0822 74.2472 15.8994 78.4008L17.7318 77.5992Z" fill="#B5D9F1"/>
    <path d="M7.00349 69.5831C7.04936 70.1334 7.53271 70.5424 8.08308 70.4965C8.63346 70.4507 9.04245 69.9673 8.99658 69.4169L7.00349 69.5831ZM8.99506 55.5995C9.05002 55.05 8.64908 54.5599 8.09954 54.505C7.54999 54.45 7.05995 54.8509 7.00499 55.4005L8.99506 55.5995ZM8.99658 69.4169C8.50065 63.4662 8.50215 60.5283 8.99506 55.5995L7.00499 55.4005C6.49783 60.4717 6.49935 63.5338 7.00349 69.5831L8.99658 69.4169Z" fill="#B5D9F1"/>
    <path d="M117.997 54.9169C117.951 54.3666 117.467 53.9576 116.917 54.0035C116.367 54.0493 115.958 54.5327 116.003 55.0831L117.997 54.9169ZM116.005 68.9005C115.95 69.45 116.351 69.9401 116.9 69.995C117.45 70.05 117.94 69.6491 117.995 69.0995L116.005 68.9005ZM116.003 55.0831C116.499 61.0338 116.498 63.9717 116.005 68.9005L117.995 69.0995C118.502 64.0283 118.501 60.9662 117.997 54.9169L116.003 55.0831Z" fill="#B5D9F1"/>
    <path d="M55.9169 7.37849C55.3666 7.42436 54.9576 7.90771 55.0035 8.45809C55.0493 9.00846 55.5327 9.41745 56.0831 9.37158L55.9169 7.37849ZM69.9005 9.37006C70.45 9.42502 70.9401 9.02408 70.995 8.47454C71.05 7.92499 70.6491 7.43495 70.0995 7.37999L69.9005 9.37006ZM56.0831 9.37158C62.0338 8.87565 64.9717 8.87715 69.9005 9.37006L70.0995 7.37999C65.0283 6.87283 61.9662 6.87435 55.9169 7.37849L56.0831 9.37158Z" fill="#B5D9F1"/>
    <path d="M70.0831 117.997C70.6334 117.951 71.0424 117.467 70.9965 116.917C70.9507 116.367 70.4673 115.958 69.9169 116.003L70.0831 117.997ZM56.0995 116.005C55.55 115.95 55.0599 116.351 55.005 116.9C54.95 117.45 55.3509 117.94 55.9005 117.995L56.0995 116.005ZM69.9169 116.003C63.9662 116.499 61.0283 116.498 56.0995 116.005L55.9005 117.995C60.9717 118.502 64.0338 118.501 70.0831 117.997L69.9169 116.003Z" fill="#B5D9F1"/>
    <path d="M109.916 46.5992C109.695 46.0932 109.105 45.8625 108.599 46.0838C108.093 46.3052 107.862 46.8948 108.084 47.4008L109.916 46.5992ZM108.078 77.6119C107.864 78.121 108.103 78.7073 108.612 78.9216C109.121 79.136 109.707 78.8971 109.922 78.3881L108.078 77.6119ZM108.084 47.4008C109.767 51.2472 110.751 56.4823 110.813 61.9487C110.874 67.4121 110.012 73.019 108.078 77.6119L109.922 78.3881C111.988 73.481 112.876 67.5879 112.812 61.9263C112.749 56.2677 111.733 50.7528 109.916 46.5992L108.084 47.4008Z" fill="#B5D9F1"/>
    <path d="M78.4008 108.916C78.9068 108.695 79.1375 108.105 78.9162 107.599C78.6948 107.093 78.1052 106.862 77.5992 107.084L78.4008 108.916ZM47.3881 107.078C46.879 106.864 46.2927 107.103 46.0784 107.612C45.864 108.121 46.1029 108.707 46.6119 108.922L47.3881 107.078ZM77.5992 107.084C73.7528 108.767 68.5177 109.751 63.0513 109.813C57.5879 109.874 51.981 109.012 47.3881 107.078L46.6119 108.922C51.519 110.988 57.4121 111.876 63.0737 111.812C68.7323 111.749 74.2472 110.733 78.4008 108.916L77.5992 107.084Z" fill="#B5D9F1"/>
    <g filter="url(#filter1_i)">
        <path fill-rule="evenodd" clip-rule="evenodd" d="M62.5001 105.556C86.279 105.556 105.556 86.2789 105.556 62.5C105.556 38.7211 86.279 19.4445 62.5001 19.4445C38.7212 19.4445 19.4446 38.7211 19.4446 62.5C19.4446 86.2789 38.7212 105.556 62.5001 105.556Z" fill="white"/>
    </g>
    <path fill-rule="evenodd" clip-rule="evenodd" d="M62.5001 105.556C86.279 105.556 105.556 86.2789 105.556 62.5C105.556 38.7211 86.279 19.4445 62.5001 19.4445C38.7212 19.4445 19.4446 38.7211 19.4446 62.5C19.4446 86.2789 38.7212 105.556 62.5001 105.556Z" stroke="#264887" stroke-width="2" stroke-linecap="round" stroke-dasharray="100 7 1 4"/>
    <path fill-rule="evenodd" clip-rule="evenodd" d="M62.5001 95.8333C80.9097 95.8333 95.8335 80.9094 95.8335 62.5C95.8335 44.0905 80.9097 29.1666 62.5001 29.1666C44.0906 29.1666 29.1667 44.0905 29.1667 62.5C29.1667 80.9094 44.0906 95.8333 62.5001 95.8333Z" fill="white"/>
    <path d="M31.2036 49.4161C33.6457 43.0377 37.988 37.5633 43.6431 33.7336C49.2983 29.9039 55.9933 27.9037 62.8225 28.0036L62.335 61.335L31.2036 49.4161Z" fill="#D32D27"/>
    <path d="M62.5 24.3055V32.3593" stroke="#264887" stroke-width="2" stroke-linecap="round"/>
    <path d="M62.5 90.9722V99.0259" stroke="#264887" stroke-width="2" stroke-linecap="round"/>
    <path d="M100.347 61.4584H92.2935" stroke="#264887" stroke-width="2" stroke-linecap="round"/>
    <path d="M33.6804 61.4584H25.6267" stroke="#264887" stroke-width="2" stroke-linecap="round"/>
    <path d="M95.4968 80.2548L88.522 76.228" stroke="#264887" stroke-width="2" stroke-linecap="round"/>
    <path d="M81.898 94.108L77.8711 87.1332" stroke="#264887" stroke-width="2" stroke-linecap="round"/>
    <path d="M48.5647 36.373L44.5378 29.3982" stroke="#264887" stroke-width="2" stroke-linecap="round"/>
    <path d="M44.3981 94.455L48.425 87.4803" stroke="#264887" stroke-width="2" stroke-linecap="round"/>
    <path d="M77.7312 36.7202L81.7581 29.7454" stroke="#264887" stroke-width="2" stroke-linecap="round"/>
    <path d="M30.5449 80.8561L37.5196 76.8293" stroke="#264887" stroke-width="2" stroke-linecap="round"/>
    <path d="M88.28 47.5229L95.2547 43.496" stroke="#264887" stroke-width="2" stroke-linecap="round"/>
    <path fill-rule="evenodd" clip-rule="evenodd" d="M62.5001 66.6667C64.8013 66.6667 66.6668 64.8012 66.6668 62.5C66.6668 60.1989 64.8013 58.3334 62.5001 58.3334C60.199 58.3334 58.3335 60.1989 58.3335 62.5C58.3335 64.8012 60.199 66.6667 62.5001 66.6667Z" fill="white" stroke="#264887" stroke-width="2"/>
    <path d="M37.7618 46.9216L30.787 42.8947" stroke="#264887" stroke-width="2" stroke-linecap="round"/>
    <defs>
        <filter id="filter0_i" x="19.4446" y="19.4445" width="86.1115" height="86.1115" filterUnits="userSpaceOnUse" color-interpolation-filters="sRGB">
            <feFlood flood-opacity="0" result="BackgroundImageFix"/>
            <feBlend mode="normal" in="SourceGraphic" in2="BackgroundImageFix" result="shape"/>
            <feColorMatrix in="SourceAlpha" type="matrix" values="0 0 0 0 0 0 0 0 0 0 0 0 0 0 0 0 0 0 127 0" result="hardAlpha"/>
            <feOffset dx="5" dy="-5"/>
            <feComposite in2="hardAlpha" operator="arithmetic" k2="-1" k3="1"/>
            <feColorMatrix type="matrix" values="0 0 0 0 0.819608 0 0 0 0 0.898039 0 0 0 0 0.960784 0 0 0 1 0"/>
            <feBlend mode="normal" in2="shape" result="effect1_innerShadow"/>
        </filter>
        <filter id="filter1_i" x="19.4446" y="19.4445" width="86.1115" height="86.1115" filterUnits="userSpaceOnUse" color-interpolation-filters="sRGB">
            <feFlood flood-opacity="0" result="BackgroundImageFix"/>
            <feBlend mode="normal" in="SourceGraphic" in2="BackgroundImageFix" result="shape"/>
            <feColorMatrix in="SourceAlpha" type="matrix" values="0 0 0 0 0 0 0 0 0 0 0 0 0 0 0 0 0 0 127 0" result="hardAlpha"/>
            <feOffset dx="5" dy="-5"/>
            <feComposite in2="hardAlpha" operator="arithmetic" k2="-1" k3="1"/>
            <feColorMatrix type="matrix" values="0 0 0 0 0.760784 0 0 0 0 0.878431 0 0 0 0 0.956863 0 0 0 1 0"/>
            <feBlend mode="normal" in2="shape" result="effect1_innerShadow"/>
        </filter>
    </defs>
</svg>
