<?xml version="1.0" encoding="UTF-8" standalone="no"?>
<svg
   id="svg"
   width="100%"
   height="100%"
   version="1.1"
   viewBox="0 0 22 22"
   sodipodi:docname="konv_message.svg"
   inkscape:version="1.2 (dc2aedaf03, 2022-05-15)"
   xmlns:inkscape="http://www.inkscape.org/namespaces/inkscape"
   xmlns:sodipodi="http://sodipodi.sourceforge.net/DTD/sodipodi-0.dtd"
   xmlns="http://www.w3.org/2000/svg"
   xmlns:svg="http://www.w3.org/2000/svg">
  <sodipodi:namedview
     id="namedview3527"
     pagecolor="#ffffff"
     bordercolor="#666666"
     borderopacity="1.0"
     inkscape:showpageshadow="2"
     inkscape:pageopacity="0.0"
     inkscape:pagecheckerboard="0"
     inkscape:deskcolor="#d1d1d1"
     showgrid="false"
     inkscape:zoom="6.6022727"
     inkscape:cx="-16.20654"
     inkscape:cy="4.9225473"
     inkscape:window-width="1366"
     inkscape:window-height="736"
     inkscape:window-x="0"
     inkscape:window-y="0"
     inkscape:window-maximized="1"
     inkscape:current-layer="konv_message" />
  <defs
     id="defs81">
    <style
       id="current-color-scheme"
       type="text/css">
   .ColorScheme-Text { color:#363636; } .ColorScheme-Highlight { color:#5294e2; } .ColorScheme-ButtonBackground { color:#363636; }
  </style>
  </defs>
  <g
     id="konv_message">
    <rect
       id="rect3009"
       width="22"
       height="22"
       x="0"
       y="0"
       style="fill:currentColor;fill-opacity:1;stroke:none;opacity:0.001" />
    <path
       id="path4178"
       class="ColorScheme-Text"
       d="M 11.017578,3 C 7.1248216,3 3.8883398,5.5954035 3.1835938,9.0273438 3.0634423,9.545177 3.0016182,10.07352 3,10.603516 c 0.0025,1.892347 0.7736439,3.69109 2.1171875,5.0625 A 3,3 0 0 1 7,15 a 3,3 0 0 1 3,3 3,3 0 0 1 -0.00195,0.03711 c 0.326073,0.03968 0.65412,0.06614 0.984375,0.06641 3.834528,-0.0024 7.123954,-2.56687 7.835937,-6.107422 C 18.935165,11.490386 19,10.965932 19,10.427734 19,6.3250493 15.425632,3 11.017578,3 Z"
       style="opacity:1;fill:currentColor;fill-opacity:1" />
    <circle
       id="path4138"
       class="ColorScheme-Highlight"
       cx="7"
       cy="18"
       r="2"
       style="fill:currentColor" />
  </g>
</svg>
