<svg width="48" height="48" viewBox="0 0 48 48" fill="none" xmlns="http://www.w3.org/2000/svg">
    <circle cx="24" cy="24" r="24" fill="#E4E5F6"/>
    <g clip-path="url(#clip0)">
        <path d="M35.4071 27.6848L34.5401 27.3258C33.7871 25.1721 33.7871 22.8266 34.5401 20.6728L35.4071 20.3138C35.5236 20.2656 35.6294 20.1948 35.7186 20.1057C35.8077 20.0165 35.8784 19.9107 35.9267 19.7942C35.9749 19.6777 35.9997 19.5528 35.9997 19.4267C35.9997 19.3007 35.9749 19.1758 35.9266 19.0593C35.8783 18.9428 35.8076 18.837 35.7185 18.7479C35.6293 18.6587 35.5234 18.588 35.4069 18.5398C35.2905 18.4915 35.1656 18.4667 35.0395 18.4667C34.9134 18.4667 34.7886 18.4916 34.6721 18.5398L33.8061 18.8988C31.7514 17.9093 30.0928 16.2525 29.1011 14.1988L29.4601 13.3318C29.5581 13.0966 29.5586 12.832 29.4616 12.5964C29.3645 12.3608 29.1779 12.1733 28.9426 12.0753C28.7074 11.9773 28.4428 11.9768 28.2072 12.0738C27.9715 12.1709 27.7841 12.3576 27.6861 12.5928L27.3271 13.4598C25.1734 14.2128 22.8278 14.2128 20.6741 13.4598L20.3141 12.5928C20.2682 12.4731 20.1988 12.3638 20.1099 12.2713C20.021 12.1789 19.9145 12.1052 19.7967 12.0545C19.6789 12.0039 19.5521 11.9774 19.4239 11.9766C19.2957 11.9758 19.1686 12.0006 19.0501 12.0497C18.9317 12.0989 18.8242 12.1712 18.7342 12.2625C18.6442 12.3538 18.5733 12.4622 18.5259 12.5814C18.4784 12.7005 18.4553 12.8279 18.458 12.9561C18.4606 13.0843 18.4888 13.2107 18.5411 13.3278L18.9001 14.1948C17.9097 16.2477 16.253 17.9044 14.2001 18.8948L13.3281 18.5398C13.2116 18.4916 13.0868 18.4667 12.9607 18.4667C12.8346 18.4667 12.7098 18.4915 12.5933 18.5398C12.4768 18.588 12.3709 18.6587 12.2818 18.7479C12.1926 18.837 12.1219 18.9428 12.0736 19.0593C12.0253 19.1758 12.0005 19.3007 12.0005 19.4267C12.0005 19.5528 12.0253 19.6777 12.0735 19.7942C12.1218 19.9107 12.1925 20.0165 12.2816 20.1057C12.3708 20.1948 12.4766 20.2656 12.5931 20.3138L13.4611 20.6728C14.2131 22.8267 14.2131 25.1719 13.4611 27.3258L12.5931 27.6848C12.3579 27.7823 12.171 27.9692 12.0735 28.2045C11.9761 28.4397 11.9761 28.7041 12.0736 28.9393C12.1711 29.1746 12.358 29.3615 12.5933 29.4589C12.8285 29.5563 13.0929 29.5563 13.3281 29.4588L14.1951 29.0998C16.2495 30.0898 17.908 31.7465 18.9001 33.7998L18.5411 34.6668C18.4927 34.7833 18.4678 34.9082 18.4677 35.0343C18.4676 35.1604 18.4924 35.2853 18.5406 35.4019C18.5888 35.5184 18.6595 35.6243 18.7486 35.7135C18.8377 35.8027 18.9436 35.8735 19.0601 35.9218C19.1762 35.9714 19.3009 35.9979 19.4271 35.9998C19.6171 35.9999 19.8028 35.9436 19.9607 35.8381C20.1186 35.7325 20.2416 35.5824 20.3141 35.4068L20.6731 34.5398C22.8272 33.7868 25.173 33.7868 27.3271 34.5398L27.6861 35.4068C27.7587 35.5823 27.8817 35.7323 28.0396 35.8379C28.1975 35.9435 28.3832 35.9998 28.5731 35.9998C28.6993 35.9995 28.8243 35.9747 28.9411 35.9268C29.1762 35.8291 29.363 35.642 29.4603 35.4067C29.5576 35.1714 29.5575 34.9071 29.4601 34.6718L29.1011 33.8048C30.0927 31.7511 31.7513 30.0942 33.8061 29.1048L34.6721 29.4638C34.7886 29.5121 34.9134 29.5369 35.0395 29.5369C35.1656 29.5369 35.2905 29.5121 35.4069 29.4639C35.5234 29.4156 35.6293 29.3449 35.7185 29.2558C35.8076 29.1666 35.8783 29.0608 35.9266 28.9443C35.9749 28.8278 35.9997 28.703 35.9997 28.5769C35.9997 28.4508 35.9749 28.326 35.9267 28.2095C35.8784 28.093 35.8077 27.9871 35.7186 27.898C35.6294 27.8088 35.5236 27.7381 35.4071 27.6898V27.6848ZM32.8331 26.6188L31.1801 25.9338C30.7874 24.6741 30.7874 23.3246 31.1801 22.0648L32.8331 21.3798C32.43 23.1029 32.43 24.8957 32.8331 26.6188ZM27.0331 19.1888C27.5273 19.873 28.1279 20.4737 28.8121 20.9678L25.7751 22.2258L27.0331 19.1888ZM24.0001 21.4908L22.7421 18.4538C23.5753 18.5888 24.4249 18.5888 25.2581 18.4538L24.0001 21.4908ZM22.2261 22.2258L19.1891 20.9678C19.8735 20.4739 20.4742 19.8732 20.9681 19.1888L22.2261 22.2258ZM21.4911 23.9998L18.4541 25.2568C18.5891 24.4236 18.5891 23.5741 18.4541 22.7408L21.4911 23.9998ZM22.2271 25.7728L20.9681 28.8108C20.4736 28.1263 19.8726 27.5253 19.1881 27.0308L22.2271 25.7728ZM24.0001 26.5088L25.2581 29.5458C24.4252 29.4071 23.575 29.4071 22.7421 29.5458L24.0001 26.5088ZM25.7741 25.7728L28.8121 27.0318C28.1274 27.5257 27.5264 28.1264 27.0321 28.8108L25.7741 25.7728ZM26.5091 23.9998L29.5471 22.7408C29.4126 23.5744 29.4126 24.4242 29.5471 25.2578L26.5091 23.9998ZM32.1001 19.6058L30.4461 20.2908C29.2769 19.6786 28.3223 18.7241 27.7101 17.5548L28.3941 15.8998C29.3277 17.4039 30.596 18.6722 32.1001 19.6058ZM26.6201 15.1668L25.9351 16.8198C24.6753 17.2149 23.3249 17.2149 22.0651 16.8198L21.3811 15.1668C23.1042 15.5699 24.897 15.5699 26.6201 15.1668ZM19.6071 15.8998L20.2921 17.5528C19.6799 18.7226 18.7254 19.6777 17.5561 20.2908L15.9001 19.6058C17.4046 18.6723 18.6732 17.4041 19.6071 15.8998ZM15.1671 21.3798L16.8211 22.0648C17.2138 23.3246 17.2138 24.6741 16.8211 25.9338L15.1671 26.6188C15.5702 24.8957 15.5702 23.1029 15.1671 21.3798ZM15.9001 28.3928L17.5531 27.7078C18.7222 28.321 19.6769 29.2757 20.2901 30.4448L19.6071 32.0998C18.6733 30.5952 17.4047 29.3266 15.9001 28.3928ZM21.3781 32.8328L22.0631 31.1798C23.3229 30.7848 24.6733 30.7848 25.9331 31.1798L26.6181 32.8328C24.8953 32.4301 23.1029 32.4301 21.3801 32.8328H21.3781ZM28.3921 32.0978L27.7071 30.4448C28.3195 29.2753 29.2744 28.3207 30.4441 27.7088L32.0961 28.3928C30.5931 29.3269 29.3262 30.5956 28.3941 32.0998L28.3921 32.0978Z" fill="#474A86"/>
        <circle cx="21" cy="31" r="2" fill="#D32D27"/>
    </g>
    <defs>
        <clipPath id="clip0">
            <rect width="24" height="24" fill="white" transform="translate(12 12)"/>
        </clipPath>
    </defs>
</svg>
