<svg width="48" height="48" viewBox="0 0 48 48" fill="none" xmlns="http://www.w3.org/2000/svg">
    <circle cx="24" cy="24" r="24" fill="#E4E5F6"/>
    <path d="M17.006 26.0272C17.0449 26.015 17.0801 25.9932 17.1084 25.9638C17.1367 25.9345 17.1572 25.8985 17.168 25.8592C17.1794 25.82 17.1809 25.7787 17.1726 25.7387C17.1642 25.6988 17.1461 25.6615 17.12 25.6302C16.0478 24.328 15.4736 22.6869 15.5 21.0002V20.0002C15.498 18.4769 15.9082 16.9814 16.687 15.6722C16.71 15.6315 16.7211 15.5851 16.7192 15.5384C16.7172 15.4916 16.7023 15.4464 16.676 15.4077C16.6497 15.369 16.6131 15.3385 16.5703 15.3195C16.5275 15.3005 16.4803 15.2938 16.434 15.3002C15.5492 15.4357 14.7419 15.8831 14.158 16.5616C13.5742 17.2402 13.2521 18.1051 13.25 19.0002V27.3742C13.25 27.419 13.262 27.4629 13.2848 27.5015C13.3076 27.54 13.3404 27.5717 13.3796 27.5933C13.4188 27.6148 13.4632 27.6255 13.5079 27.624C13.5527 27.6226 13.5962 27.6092 13.634 27.5852C14.6884 26.9269 15.8213 26.4035 17.006 26.0272Z" fill="#474A86"/>
    <path d="M32.4999 19.9999V20.9999C32.5263 22.6865 31.9521 24.3276 30.8799 25.6299C30.8532 25.6612 30.8347 25.6987 30.826 25.7389C30.8173 25.7791 30.8186 25.8208 30.8299 25.8604C30.8412 25.8999 30.862 25.9361 30.8906 25.9657C30.9192 25.9953 30.9547 26.0173 30.9939 26.0299C32.1785 26.4059 33.3114 26.929 34.3659 27.5869C34.4036 27.6112 34.4472 27.6249 34.4921 27.6265C34.537 27.6281 34.5814 27.6175 34.6208 27.5959C34.6601 27.5743 34.6929 27.5424 34.7156 27.5037C34.7384 27.4649 34.7502 27.4208 34.7499 27.3759V18.9999C34.7463 18.1088 34.4251 17.2482 33.8438 16.5727C33.2626 15.8973 32.4595 15.4513 31.5789 15.3149C31.5319 15.3071 31.4837 15.3129 31.4399 15.3316C31.3961 15.3502 31.3586 15.381 31.3317 15.4203C31.3048 15.4596 31.2897 15.5057 31.2881 15.5533C31.2866 15.6009 31.2986 15.6479 31.3229 15.6889C32.0951 16.9942 32.5016 18.4833 32.4999 19.9999Z" fill="#474A86"/>
    <path d="M34.5331 28.9174C33.1361 27.8967 31.5557 27.1545 29.8781 26.7314C29.8413 26.7214 29.8026 26.72 29.7652 26.7272C29.7277 26.7345 29.6925 26.7503 29.6621 26.7734C28.0117 27.9473 26.0247 28.5533 24.0001 28.5004C21.9753 28.5535 19.9881 27.947 18.3381 26.7724C18.3075 26.7497 18.2722 26.7342 18.2348 26.7271C18.1974 26.72 18.1588 26.7215 18.1221 26.7314C16.4441 27.1543 14.8633 27.8965 13.4661 28.9174C13.163 29.1496 12.918 29.4491 12.7503 29.7922C12.5827 30.1352 12.497 30.5126 12.5001 30.8944V35.0004C12.5001 35.133 12.5528 35.2602 12.6465 35.3539C12.7403 35.4477 12.8675 35.5004 13.0001 35.5004H35.0001C35.1327 35.5004 35.2599 35.4477 35.3536 35.3539C35.4474 35.2602 35.5001 35.133 35.5001 35.0004V30.8944C35.5032 30.5125 35.4174 30.135 35.2496 29.7919C35.0817 29.4488 34.8365 29.1494 34.5331 28.9174ZM32.2501 31.0004C32.2501 31.1993 32.1711 31.3901 32.0304 31.5307C31.8898 31.6714 31.699 31.7504 31.5001 31.7504H29.5001C29.3012 31.7504 29.1104 31.6714 28.9697 31.5307C28.8291 31.3901 28.7501 31.1993 28.7501 31.0004C28.7501 30.8015 28.8291 30.6107 28.9697 30.4701C29.1104 30.3294 29.3012 30.2504 29.5001 30.2504H31.5001C31.699 30.2504 31.8898 30.3294 32.0304 30.4701C32.1711 30.6107 32.2501 30.8015 32.2501 31.0004ZM19.2501 31.0004C19.2501 31.1993 19.1711 31.3901 19.0304 31.5307C18.8898 31.6714 18.699 31.7504 18.5001 31.7504H16.5001C16.3012 31.7504 16.1104 31.6714 15.9697 31.5307C15.8291 31.3901 15.7501 31.1993 15.7501 31.0004C15.7501 30.8015 15.8291 30.6107 15.9697 30.4701C16.1104 30.3294 16.3012 30.2504 16.5001 30.2504H18.5001C18.699 30.2504 18.8898 30.3294 19.0304 30.4701C19.1711 30.6107 19.2501 30.8015 19.2501 31.0004ZM20.5001 31.0004C20.5001 30.8678 20.5528 30.7406 20.6465 30.6468C20.7403 30.5531 20.8675 30.5004 21.0001 30.5004H27.0001C27.1327 30.5004 27.2599 30.5531 27.3536 30.6468C27.4474 30.7406 27.5001 30.8678 27.5001 31.0004V34.2504C27.5001 34.3167 27.4737 34.3803 27.4269 34.4272C27.38 34.474 27.3164 34.5004 27.2501 34.5004H20.7501C20.6838 34.5004 20.6202 34.474 20.5733 34.4272C20.5264 34.3803 20.5001 34.3167 20.5001 34.2504V31.0004Z" fill="#474A86"/>
    <path d="M24 27.5C27.733 27.5 31.5 25.49 31.5 21V20C31.5 18.0109 30.7098 16.1032 29.3033 14.6967C27.8968 13.2902 25.9891 12.5 24 12.5C22.0109 12.5 20.1032 13.2902 18.6967 14.6967C17.2902 16.1032 16.5 18.0109 16.5 20V21C16.5 25.49 20.267 27.5 24 27.5ZM24 14.5C25.4454 14.4869 26.8367 15.0485 27.8682 16.0611C28.8996 17.0738 29.4865 18.4546 29.5 19.9C29.5 22.882 27.038 23.5 24 23.5C20.962 23.5 18.5 22.882 18.5 19.9C18.5135 18.4546 19.1004 17.0738 20.1318 16.0611C21.1633 15.0485 22.5546 14.4869 24 14.5Z" fill="#474A86"/>
</svg>
