<svg width="48" height="48" viewBox="0 0 48 48" fill="none" xmlns="http://www.w3.org/2000/svg">
    <circle cx="24" cy="24" r="24" fill="#E4E5F6"/>
    <path d="M21.5 15.5H25.5C25.6326 15.5 25.7598 15.4473 25.8536 15.3536C25.9473 15.2598 26 15.1326 26 15V14.5C26 13.837 25.7366 13.2011 25.2678 12.7322C24.7989 12.2634 24.163 12 23.5 12C22.837 12 22.2011 12.2634 21.7322 12.7322C21.2634 13.2011 21 13.837 21 14.5V15C21 15.1326 21.0527 15.2598 21.1464 15.3536C21.2402 15.4473 21.3674 15.5 21.5 15.5Z" fill="#D32D27"/>
    <path d="M17 33.5C18.1046 33.5 19 32.6046 19 31.5C19 30.3954 18.1046 29.5 17 29.5C15.8954 29.5 15 30.3954 15 31.5C15 32.6046 15.8954 33.5 17 33.5Z" fill="#474A86"/>
    <path d="M35 17H21.5C21.3674 17 21.2402 17.0527 21.1465 17.1464C21.0527 17.2402 21 17.3674 21 17.5V18C21 18.1326 20.9473 18.2598 20.8536 18.3536C20.7598 18.4473 20.6326 18.5 20.5 18.5H17.589C17.218 18.504 16.8552 18.6095 16.5398 18.805C16.2245 19.0004 15.9686 19.2785 15.8 19.609L13.585 24.609C13.5704 24.6567 13.5597 24.7056 13.553 24.755L12.733 25.575C12.5 25.8068 12.3152 26.0825 12.1894 26.3861C12.0636 26.6898 11.9992 27.0153 12 27.344V31C12 31.2652 12.1054 31.5196 12.2929 31.7071C12.4804 31.8946 12.7348 32 13 32C13.1326 32 13.2598 31.9473 13.3536 31.8536C13.4473 31.7598 13.5 31.6326 13.5 31.5C13.5 30.5717 13.8688 29.6815 14.5251 29.0251C15.1815 28.3687 16.0717 28 17 28C17.9283 28 18.8185 28.3687 19.4749 29.0251C20.1313 29.6815 20.5 30.5717 20.5 31.5V31.511C20.5 31.6436 20.5527 31.7708 20.6465 31.8646C20.7402 31.9583 20.8674 32.011 21 32.011L27 31.996C27.1326 31.996 27.2598 31.9433 27.3536 31.8496C27.4473 31.7558 27.5 31.6286 27.5 31.496C27.5 30.5677 27.8688 29.6775 28.5251 29.0211C29.1815 28.3647 30.0718 27.996 31 27.996C31.9283 27.996 32.8185 28.3647 33.4749 29.0211C34.1313 29.6775 34.5 30.5677 34.5 31.496C34.5 31.6286 34.5527 31.7558 34.6465 31.8496C34.7402 31.9433 34.8674 31.996 35 31.996C35.2652 31.996 35.5196 31.8906 35.7071 31.7031C35.8947 31.5156 36 31.2612 36 30.996V17.996C35.9989 17.7315 35.8931 17.4781 35.7057 17.2915C35.5183 17.1048 35.2645 17 35 17ZM21 23.516C21 23.6486 20.9473 23.7758 20.8536 23.8696C20.7598 23.9633 20.6326 24.016 20.5 24.016H16.8C16.717 24.016 16.6353 23.9953 16.5623 23.9558C16.4893 23.9163 16.4273 23.8592 16.3819 23.7898C16.3364 23.7203 16.309 23.6406 16.302 23.5579C16.2951 23.4752 16.3088 23.3921 16.342 23.316L17.454 20.8C17.4929 20.7109 17.5569 20.635 17.6383 20.5817C17.7196 20.5285 17.8148 20.5001 17.912 20.5H20.5C20.6326 20.5 20.7598 20.5527 20.8536 20.6464C20.9473 20.7402 21 20.8674 21 21V23.516ZM31.5 24C31.5 24.1326 31.4473 24.2598 31.3536 24.3536C31.2598 24.4473 31.1326 24.5 31 24.5H30C29.8674 24.5 29.7402 24.5527 29.6465 24.6464C29.5527 24.7402 29.5 24.8674 29.5 25V26C29.5 26.1326 29.4473 26.2598 29.3536 26.3536C29.2598 26.4473 29.1326 26.5 29 26.5H28C27.8674 26.5 27.7402 26.4473 27.6465 26.3536C27.5527 26.2598 27.5 26.1326 27.5 26V25C27.5 24.8674 27.4473 24.7402 27.3536 24.6464C27.2598 24.5527 27.1326 24.5 27 24.5H26C25.8674 24.5 25.7402 24.4473 25.6465 24.3536C25.5527 24.2598 25.5 24.1326 25.5 24V23C25.5 22.8674 25.5527 22.7402 25.6465 22.6464C25.7402 22.5527 25.8674 22.5 26 22.5H27C27.1326 22.5 27.2598 22.4473 27.3536 22.3536C27.4473 22.2598 27.5 22.1326 27.5 22V21C27.5 20.8674 27.5527 20.7402 27.6465 20.6464C27.7402 20.5527 27.8674 20.5 28 20.5H29C29.1326 20.5 29.2598 20.5527 29.3536 20.6464C29.4473 20.7402 29.5 20.8674 29.5 21V22C29.5 22.1326 29.5527 22.2598 29.6465 22.3536C29.7402 22.4473 29.8674 22.5 30 22.5H31C31.1326 22.5 31.2598 22.5527 31.3536 22.6464C31.4473 22.7402 31.5 22.8674 31.5 23V24Z" fill="#474A86"/>
    <path d="M31 33.5C32.1046 33.5 33 32.6046 33 31.5C33 30.3954 32.1046 29.5 31 29.5C29.8954 29.5 29 30.3954 29 31.5C29 32.6046 29.8954 33.5 31 33.5Z" fill="#474A86"/>
</svg>
