<svg width="120" height="120" viewBox="0 0 120 120" fill="none" xmlns="http://www.w3.org/2000/svg">
    <path d="M114.29 71.25H112.5V99.375H114.29V71.25Z" fill="#9699DE"/>
    <path d="M20.54 35.625H18.75V65.625H20.54V35.625Z" fill="#9699DE"/>
    <path d="M84.25 8H43V9.79H84.25V8Z" fill="#9699DE"/>
    <path d="M88.665 8H86.875V9.79H88.665V8Z" fill="#9699DE"/>
    <rect x="28.895" y="16.895" width="63.21" height="67.21" rx="3.105" fill="#9699DE" stroke="#1C315F" stroke-width="1.79"/>
    <rect x="24.895" y="16.895" width="71.21" height="10.21" rx="3.105" fill="#264887" stroke="#1C315F" stroke-width="1.79"/>
    <path d="M52.895 16.895H68.105V32C68.105 33.7148 66.7148 35.105 65 35.105H56C54.2852 35.105 52.895 33.7148 52.895 32V16.895Z" fill="#7C7FD6" stroke="#1C315F" stroke-width="1.79"/>
    <path d="M52.895 16.895H68.105V27.105H52.895V16.895Z" fill="#9699DE" stroke="#1C315F" stroke-width="1.79"/>
    <g filter="url(#filter0_i)">
        <path d="M33 84C31.3431 84 30 82.6568 30 81V22C30 20.3431 31.3432 18.9999 33 18.9999L52.5315 19H61.6141L91 19.0393V81C91 82.6568 89.6568 84 88 84H33Z" fill="white"/>
    </g>
    <path d="M61.6154 18H61.6141H52.5315L33 17.9999C30.7909 17.9999 29 19.7908 29 22V81C29 83.2091 30.7909 85 33 85H88C90.2091 85 92 83.2091 92 81V19.0393V18.0406L91.0013 18.0393L61.6154 18Z" stroke="#1C315F" stroke-width="2"/>
    <rect x="24.895" y="16.895" width="71.21" height="10.21" rx="3.105" fill="#7C7FD6" stroke="#1C315F" stroke-width="1.79"/>
    <path d="M52.895 16.895H68.105V32C68.105 33.7148 66.7148 35.105 65 35.105H56C54.2852 35.105 52.895 33.7148 52.895 32V16.895Z" fill="#7C7FD6" stroke="#1C315F" stroke-width="1.79"/>
    <path d="M52.895 16.895H68.105V27.105H52.895V16.895Z" fill="#9699DE" stroke="#1C315F" stroke-width="1.79"/>
    <g filter="url(#filter1_i)">
        <path d="M48 112C46.3431 112 45 110.657 45 109V50C45 48.3431 46.3432 46.9999 48 46.9999L66.7928 47H75.5775L104 47.0393V109C104 110.657 102.657 112 101 112H48Z" fill="white"/>
    </g>
    <path d="M75.5789 46H75.5775H66.7928L48 45.9999C45.7909 45.9999 44 47.7908 44 50V109C44 111.209 45.7909 113 48 113H101C103.209 113 105 111.209 105 109V47.0393V46.0406L104.001 46.0393L75.5789 46Z" stroke="#1C315F" stroke-width="2"/>
    <rect x="38.895" y="45.895" width="71.21" height="10.21" rx="3.105" fill="#7C7FD6" stroke="#1C315F" stroke-width="1.79"/>
    <path d="M66.895 45.895H82.105V61C82.105 62.7148 80.7148 64.105 79 64.105H70C68.2852 64.105 66.895 62.7148 66.895 61V45.895Z" fill="#7C7FD6" stroke="#1C315F" stroke-width="1.79"/>
    <path d="M66.895 45.895H82.105V56.105H66.895V45.895Z" fill="#9699DE" stroke="#1C315F" stroke-width="1.79"/>
    <g filter="url(#filter2_i)">
        <path d="M18 112C16.3431 112 15 110.657 15 109V76C15 74.3431 16.3431 73 18 73L34.2072 73H41.9497L67 73.0236V109C67 110.657 65.6568 112 64 112H18Z" fill="white"/>
    </g>
    <path d="M41.9506 72H41.9497H34.2072L18 72C15.7909 72 14 73.7908 14 76V109C14 111.209 15.7909 113 18 113H64C66.2091 113 68 111.209 68 109V73.0236V72.0245L67.0009 72.0236L41.9506 72Z" stroke="#1C315F" stroke-width="2"/>
    <rect x="7.895" y="71.895" width="65.21" height="10.21" rx="3.105" fill="#9699DE" stroke="#1C315F" stroke-width="1.79"/>
    <path d="M33.895 71.895H49.105V87C49.105 88.7148 47.7148 90.105 46 90.105H37C35.2852 90.105 33.895 88.7148 33.895 87V71.895Z" fill="#7C7FD6" stroke="#1C315F" stroke-width="1.79"/>
    <path d="M33.895 71.895H49.105V82.105H33.895V71.895Z" fill="#7C7FD6" stroke="#1C315F" stroke-width="1.79"/>
    <mask id="path-24-inside-1" fill="white">
        <path d="M59.29 104H57.5V105.79H59.29V104Z"/>
    </mask>
    <path d="M59.29 104H57.5V105.79H59.29V104Z" fill="black"/>
    <path d="M57.5 104V96H49.5V104H57.5ZM59.29 104H67.29V96H59.29V104ZM59.29 105.79V113.79H67.29V105.79H59.29ZM57.5 105.79H49.5V113.79H57.5V105.79ZM57.5 112H59.29V96H57.5V112ZM51.29 104V105.79H67.29V104H51.29ZM59.29 97.79H57.5V113.79H59.29V97.79ZM65.5 105.79V104H49.5V105.79H65.5Z" fill="#D32D27" mask="url(#path-24-inside-1)"/>
    <mask id="path-26-inside-2" fill="white">
        <path d="M51.79 104H50V105.79H51.79V104Z"/>
    </mask>
    <path d="M51.79 104H50V105.79H51.79V104Z" fill="black"/>
    <path d="M50 104V96H42V104H50ZM51.79 104H59.79V96H51.79V104ZM51.79 105.79V113.79H59.79V105.79H51.79ZM50 105.79H42V113.79H50V105.79ZM50 112H51.79V96H50V112ZM43.79 104V105.79H59.79V104H43.79ZM51.79 97.79H50V113.79H51.79V97.79ZM58 105.79V104H42V105.79H58Z" fill="#D32D27" mask="url(#path-26-inside-2)"/>
    <mask id="path-28-inside-3" fill="white">
        <path d="M96.79 104H95V105.79H96.79V104Z"/>
    </mask>
    <path d="M96.79 104H95V105.79H96.79V104Z" fill="#D32D27"/>
    <path d="M95 104V96H87V104H95ZM96.79 104H104.79V96H96.79V104ZM96.79 105.79V113.79H104.79V105.79H96.79ZM95 105.79H87V113.79H95V105.79ZM95 112H96.79V96H95V112ZM88.79 104V105.79H104.79V104H88.79ZM96.79 97.79H95V113.79H96.79V97.79ZM103 105.79V104H87V105.79H103Z" fill="#D32D27" mask="url(#path-28-inside-3)"/>
    <mask id="path-30-inside-4" fill="white">
        <path d="M89.29 104H87.5V105.79H89.29V104Z"/>
    </mask>
    <path d="M89.29 104H87.5V105.79H89.29V104Z" fill="#D32D27"/>
    <path d="M87.5 104V96H79.5V104H87.5ZM89.29 104H97.29V96H89.29V104ZM89.29 105.79V113.79H97.29V105.79H89.29ZM87.5 105.79H79.5V113.79H87.5V105.79ZM87.5 112H89.29V96H87.5V112ZM81.29 104V105.79H97.29V104H81.29ZM89.29 97.79H87.5V113.79H89.29V97.79ZM95.5 105.79V104H79.5V105.79H95.5Z" fill="#D32D27" mask="url(#path-30-inside-4)"/>
    <defs>
        <filter id="filter0_i" x="28" y="17" width="65" height="69" filterUnits="userSpaceOnUse" color-interpolation-filters="sRGB">
            <feFlood flood-opacity="0" result="BackgroundImageFix"/>
            <feBlend mode="normal" in="SourceGraphic" in2="BackgroundImageFix" result="shape"/>
            <feColorMatrix in="SourceAlpha" type="matrix" values="0 0 0 0 0 0 0 0 0 0 0 0 0 0 0 0 0 0 127 0" result="hardAlpha"/>
            <feOffset dx="-6" dy="-6"/>
            <feComposite in2="hardAlpha" operator="arithmetic" k2="-1" k3="1"/>
            <feColorMatrix type="matrix" values="0 0 0 0 0.792157 0 0 0 0 0.8 0 0 0 0 0.933333 0 0 0 1 0"/>
            <feBlend mode="normal" in2="shape" result="effect1_innerShadow"/>
        </filter>
        <filter id="filter1_i" x="43" y="45" width="63" height="69.0001" filterUnits="userSpaceOnUse" color-interpolation-filters="sRGB">
            <feFlood flood-opacity="0" result="BackgroundImageFix"/>
            <feBlend mode="normal" in="SourceGraphic" in2="BackgroundImageFix" result="shape"/>
            <feColorMatrix in="SourceAlpha" type="matrix" values="0 0 0 0 0 0 0 0 0 0 0 0 0 0 0 0 0 0 127 0" result="hardAlpha"/>
            <feOffset dx="-6" dy="-6"/>
            <feComposite in2="hardAlpha" operator="arithmetic" k2="-1" k3="1"/>
            <feColorMatrix type="matrix" values="0 0 0 0 0.792157 0 0 0 0 0.8 0 0 0 0 0.933333 0 0 0 1 0"/>
            <feBlend mode="normal" in2="shape" result="effect1_innerShadow"/>
        </filter>
        <filter id="filter2_i" x="13" y="71" width="56" height="43" filterUnits="userSpaceOnUse" color-interpolation-filters="sRGB">
            <feFlood flood-opacity="0" result="BackgroundImageFix"/>
            <feBlend mode="normal" in="SourceGraphic" in2="BackgroundImageFix" result="shape"/>
            <feColorMatrix in="SourceAlpha" type="matrix" values="0 0 0 0 0 0 0 0 0 0 0 0 0 0 0 0 0 0 127 0" result="hardAlpha"/>
            <feOffset dx="-6" dy="-6"/>
            <feComposite in2="hardAlpha" operator="arithmetic" k2="-1" k3="1"/>
            <feColorMatrix type="matrix" values="0 0 0 0 0.792157 0 0 0 0 0.8 0 0 0 0 0.933333 0 0 0 1 0"/>
            <feBlend mode="normal" in2="shape" result="effect1_innerShadow"/>
        </filter>
    </defs>
</svg>
