<svg width="48" height="48" viewBox="0 0 48 48" fill="none" xmlns="http://www.w3.org/2000/svg">
    <circle cx="24" cy="24" r="24" fill="#E4E5F6"/>
    <path d="M25 27.0101V30.5001C25 30.7654 24.8946 31.0197 24.7071 31.2072C24.5196 31.3948 24.2652 31.5001 24 31.5001H17C16.7348 31.5001 16.4804 31.3948 16.2929 31.2072C16.1054 31.0197 16 30.7654 16 30.5001V19.5001C16 19.2349 16.1054 18.9806 16.2929 18.793C16.4804 18.6055 16.7348 18.5001 17 18.5001H22.26C22.3242 18.4994 22.3855 18.4739 22.4314 18.429C22.4772 18.3841 22.5039 18.3233 22.506 18.2591C22.5206 17.5881 22.7439 16.9383 23.145 16.4001C23.1745 16.3634 23.1929 16.319 23.1979 16.2722C23.2029 16.2254 23.1944 16.1781 23.1733 16.136C23.1522 16.0939 23.1195 16.0587 23.0791 16.0346C23.0386 16.0105 22.9921 15.9986 22.945 16.0001H16.5C15.837 16.0001 15.2011 16.2635 14.7322 16.7324C14.2634 17.2012 14 17.8371 14 18.5001V33.5001C14 33.8284 14.0647 34.1535 14.1903 34.4568C14.3159 34.7602 14.5001 35.0358 14.7322 35.2679C14.9644 35.5 15.24 35.6842 15.5433 35.8098C15.8466 35.9355 16.1717 36.0001 16.5 36.0001H24.5C24.8283 36.0001 25.1534 35.9355 25.4567 35.8098C25.76 35.6842 26.0356 35.5 26.2678 35.2679C26.4999 35.0358 26.6841 34.7602 26.8097 34.4568C26.9353 34.1535 27 33.8284 27 33.5001V27.0001C27.0004 26.9673 26.9942 26.9347 26.9819 26.9042C26.9695 26.8738 26.9512 26.8461 26.928 26.8228C26.9048 26.7995 26.8772 26.7811 26.8468 26.7686C26.8164 26.7562 26.7839 26.7499 26.751 26.7501C26.368 26.7501 25.638 26.7631 25.251 26.7571C25.2177 26.7566 25.1847 26.7628 25.1538 26.7753C25.123 26.7879 25.095 26.8065 25.0716 26.8301C25.0481 26.8538 25.0297 26.8819 25.0174 26.9128C25.0051 26.9438 24.9992 26.9769 25 27.0101Z" fill="#474A86"/>
    <path d="M32.5 16.75V15.5C32.5 14.5717 32.1313 13.6815 31.4749 13.0251C30.8185 12.3687 29.9283 12 29 12C28.0717 12 27.1815 12.3687 26.5251 13.0251C25.8687 13.6815 25.5 14.5717 25.5 15.5V16.75C25.1022 16.75 24.7206 16.908 24.4393 17.1893C24.158 17.4706 24 17.8522 24 18.25V23.75C24 24.1478 24.158 24.5294 24.4393 24.8107C24.7206 25.092 25.1022 25.25 25.5 25.25H32.5C32.8978 25.25 33.2794 25.092 33.5607 24.8107C33.842 24.5294 34 24.1478 34 23.75V18.25C34 17.8522 33.842 17.4706 33.5607 17.1893C33.2794 16.908 32.8978 16.75 32.5 16.75ZM27.5 15.5C27.5 15.1022 27.658 14.7206 27.9393 14.4393C28.2206 14.158 28.6022 14 29 14C29.3978 14 29.7794 14.158 30.0607 14.4393C30.342 14.7206 30.5 15.1022 30.5 15.5V16.75H27.5V15.5ZM30 21.5C30 21.6978 29.9414 21.8911 29.8315 22.0556C29.7216 22.22 29.5654 22.3482 29.3827 22.4239C29.2 22.4996 28.9989 22.5194 28.8049 22.4808C28.6109 22.4422 28.4327 22.347 28.2929 22.2071C28.153 22.0673 28.0578 21.8891 28.0192 21.6951C27.9806 21.5011 28.0004 21.3 28.0761 21.1173C28.1518 20.9346 28.28 20.7784 28.4444 20.6685C28.6089 20.5586 28.8022 20.5 29 20.5C29.2652 20.5 29.5196 20.6054 29.7071 20.7929C29.8946 20.9804 30 21.2348 30 21.5Z" fill="#D32D27"/>
</svg>
