<svg width="48" height="48" viewBox="0 0 48 48" fill="none" xmlns="http://www.w3.org/2000/svg">
    <circle cx="24" cy="24" r="24" fill="#E4E5F6"/>
    <path d="M30.8569 25.959C30.2013 25.9595 29.5525 26.0924 28.9495 26.3499C28.3465 26.6073 27.8016 26.9839 27.3476 27.457L21.972 24.7675C22.0181 24.5144 22.0439 24.258 22.0493 24.0008C22.044 23.7436 22.0181 23.4873 21.972 23.2342L27.3476 20.5446C28.1379 21.3572 29.1862 21.8696 30.3126 21.9939C31.4391 22.1182 32.5738 21.8467 33.5221 21.2259C34.4705 20.6052 35.1736 19.6738 35.511 18.5913C35.8483 17.5088 35.7989 16.3427 35.3713 15.2926C34.9436 14.2426 34.1642 13.374 33.1668 12.8358C32.1693 12.2975 31.0158 12.123 29.9038 12.3422C28.7919 12.5614 27.7908 13.1606 27.0719 14.0372C26.3531 14.9139 25.9614 16.0133 25.9638 17.1472C25.9691 17.4047 25.995 17.6614 26.0411 17.9148L20.6655 20.6024C19.9885 19.8999 19.1172 19.4159 18.1632 19.2124C17.2093 19.009 16.2164 19.0954 15.3119 19.4606C14.4074 19.8258 13.6326 20.4531 13.0871 21.262C12.5415 22.0709 12.25 23.0245 12.25 24.0003C12.25 24.9762 12.5415 25.9298 13.0871 26.7387C13.6326 27.5476 14.4074 28.1749 15.3119 28.5401C16.2164 28.9053 17.2093 28.9917 18.1632 28.7883C19.1172 28.5848 19.9885 28.1008 20.6655 27.3983L26.0411 30.0869C25.9949 30.3403 25.9691 30.597 25.9638 30.8545C25.9638 31.8227 26.2508 32.7692 26.7884 33.5743C27.3261 34.3794 28.0903 35.0068 28.9844 35.3774C29.8785 35.7479 30.8623 35.8448 31.8115 35.6559C32.7607 35.467 33.6325 35.0008 34.3168 34.3161C35.0012 33.6315 35.4672 32.7592 35.656 31.8096C35.8448 30.8599 35.7479 29.8756 35.3775 28.9811C35.0072 28.0866 34.38 27.322 33.5754 26.7841C32.7707 26.2461 31.8247 25.959 30.8569 25.959Z" fill="#D32D27"/>
    <path d="M21.4348 23.9996C21.4348 26.3288 19.5466 28.217 17.2174 28.217C14.8882 28.217 13 26.3288 13 23.9996C13 21.6704 14.8882 19.7822 17.2174 19.7822C19.5466 19.7822 21.4348 21.6704 21.4348 23.9996Z" fill="white" stroke="#474A86" stroke-width="2"/>
    <path d="M35 17.2174C35 19.5466 33.1118 21.4348 30.7826 21.4348C28.4534 21.4348 26.5652 19.5466 26.5652 17.2174C26.5652 14.8882 28.4534 13 30.7826 13C33.1118 13 35 14.8882 35 17.2174Z" fill="white" stroke="#474A86" stroke-width="2"/>
    <circle cx="30.7826" cy="30.7828" r="4.21739" fill="white" stroke="#474A86" stroke-width="2"/>
    <path d="M21.4348 23.9996C21.4348 26.3288 19.5466 28.217 17.2174 28.217C14.8882 28.217 13 26.3288 13 23.9996C13 21.6704 14.8882 19.7822 17.2174 19.7822C19.5466 19.7822 21.4348 21.6704 21.4348 23.9996Z" stroke="#474A86" stroke-width="2"/>
    <path d="M35 17.2174C35 19.5466 33.1118 21.4348 30.7826 21.4348C28.4534 21.4348 26.5652 19.5466 26.5652 17.2174C26.5652 14.8882 28.4534 13 30.7826 13C33.1118 13 35 14.8882 35 17.2174Z" stroke="#474A86" stroke-width="2"/>
    <circle cx="30.7826" cy="30.7828" r="4.21739" stroke="#474A86" stroke-width="2"/>
</svg>
