<svg width="20" height="20" viewBox="0 0 20 20" fill="none" xmlns="http://www.w3.org/2000/svg">
    <g clip-path="url(#clip0)">
        <path d="M10.8333 9.99992C10.8333 10.1104 10.8772 10.2164 10.9554 10.2945C11.0335 10.3727 11.1395 10.4166 11.25 10.4166H18.3333C18.7199 10.4159 19.0904 10.2621 19.3638 9.98872C19.6371 9.71537 19.791 9.34482 19.7916 8.95825V7.29159C19.7912 6.90495 19.6374 6.53427 19.364 6.26088C19.0906 5.98748 18.72 5.83369 18.3333 5.83325H11.25C11.1395 5.83325 11.0335 5.87715 10.9554 5.95529C10.8772 6.03343 10.8333 6.13941 10.8333 6.24992V9.99992Z" fill="white"/>
        <path d="M3.12498 10.4166H9.16665C9.27715 10.4166 9.38313 10.3727 9.46127 10.2945C9.53941 10.2164 9.58331 10.1104 9.58331 9.99992V6.24992C9.58331 6.13941 9.53941 6.03343 9.46127 5.95529C9.38313 5.87715 9.27715 5.83325 9.16665 5.83325H1.66665C1.28001 5.83369 0.909331 5.98748 0.635936 6.26088C0.362541 6.53427 0.208754 6.90495 0.208313 7.29159V8.95825C0.208974 9.34482 0.362832 9.71537 0.636179 9.98872C0.909526 10.2621 1.28008 10.4159 1.66665 10.4166H3.12498Z" fill="white"/>
        <path d="M9.58333 12.0833C9.58333 11.9728 9.53943 11.8668 9.46129 11.7887C9.38315 11.7105 9.27717 11.6666 9.16667 11.6666H2.29167C2.18116 11.6666 2.07518 11.7105 1.99704 11.7887C1.9189 11.8668 1.875 11.9728 1.875 12.0833V18.5416C1.87566 18.9282 2.02952 19.2987 2.30287 19.5721C2.57621 19.8454 2.94676 19.9993 3.33333 20H9.16667C9.27717 20 9.38315 19.9561 9.46129 19.8779C9.53943 19.7998 9.58333 19.6938 9.58333 19.5833V12.0833Z" fill="white"/>
        <path d="M11.25 11.6666C11.1395 11.6666 11.0335 11.7105 10.9554 11.7887C10.8772 11.8668 10.8333 11.9728 10.8333 12.0833V19.5833C10.8333 19.6938 10.8772 19.7998 10.9554 19.8779C11.0335 19.9561 11.1395 20 11.25 20H16.6666C17.0532 19.9993 17.4238 19.8454 17.6971 19.5721C17.9705 19.2987 18.1243 18.9282 18.125 18.5416V12.0833C18.125 11.9728 18.0811 11.8668 18.0029 11.7887C17.9248 11.7105 17.8188 11.6666 17.7083 11.6666H11.25Z" fill="white"/>
        <path d="M10.8691 5.58913C10.9704 5.6901 11.096 5.7633 11.2338 5.80168C11.3716 5.84007 11.5169 5.84234 11.6558 5.8083C12.6416 5.56747 15.0141 4.92997 15.7391 4.20497C16.2012 3.74227 16.4605 3.11499 16.46 2.46111C16.4595 1.80724 16.1993 1.18033 15.7366 0.718299C15.2739 0.25627 14.6467 -0.00303168 13.9928 -0.00256284C13.3389 -0.002094 12.712 0.258107 12.25 0.720799C11.6191 1.35163 11.0175 3.28497 10.6466 4.80413C10.6165 4.94319 10.621 5.08753 10.6598 5.22442C10.6986 5.36132 10.7705 5.48657 10.8691 5.58913ZM13.4308 1.89913C13.5042 1.82211 13.5922 1.76054 13.6897 1.71804C13.7872 1.67555 13.8922 1.65299 13.9986 1.65169C14.1049 1.6504 14.2105 1.67039 14.309 1.71049C14.4075 1.7506 14.497 1.81 14.5722 1.88522C14.6474 1.96043 14.7068 2.04992 14.7469 2.14844C14.787 2.24696 14.807 2.3525 14.8057 2.45886C14.8044 2.56521 14.7819 2.67024 14.7394 2.76775C14.6969 2.86525 14.6353 2.95328 14.5583 3.02663C13.9626 3.37178 13.3221 3.63313 12.655 3.8033C12.8241 3.13571 13.0852 2.49485 13.4308 1.89913Z" fill="white"/>
        <path d="M9.76751 4.80082C9.39751 3.28665 8.79584 1.35249 8.16668 0.72082C7.70465 0.258349 7.07783 -0.00164028 6.4241 -0.00195284C5.77038 -0.0022654 5.14331 0.257124 4.68084 0.719153C4.21837 1.18118 3.95838 1.808 3.95807 2.46172C3.95776 3.11545 4.21715 3.74252 4.67918 4.20499C5.40251 4.92999 7.77501 5.56749 8.76251 5.80832C8.90142 5.84237 9.04675 5.84009 9.18453 5.8017C9.3223 5.76332 9.44788 5.69012 9.54918 5.58915C9.64759 5.48584 9.71901 5.35985 9.7571 5.22234C9.79518 5.08483 9.79876 4.94004 9.76751 4.80082ZM5.85834 3.02665C5.78431 2.95268 5.72557 2.86484 5.68549 2.76816C5.6454 2.67148 5.62475 2.56786 5.62471 2.4632C5.62467 2.35854 5.64524 2.2549 5.68526 2.15819C5.72528 2.06148 5.78395 1.9736 5.85793 1.89957C5.9319 1.82554 6.01974 1.7668 6.11642 1.72671C6.2131 1.68663 6.31672 1.66597 6.42138 1.66594C6.63275 1.66586 6.83549 1.74975 6.98501 1.89915C7.33094 2.49469 7.59207 3.1356 7.76084 3.80332C7.09369 3.63403 6.45337 3.37263 5.85834 3.02665Z" fill="white"/>
    </g>
    <defs>
        <clipPath id="clip0">
            <rect width="20" height="20" fill="white"/>
        </clipPath>
    </defs>
</svg>
