<svg width="16" height="16" viewBox="0 0 16 16" fill="none" xmlns="http://www.w3.org/2000/svg">
<g clip-path="url(#clip0)">
    <path d="M9.53336 8.11932C9.51783 8.10384 9.50552 8.08545 9.49712 8.0652C9.48872 8.04495 9.48439 8.02324 9.48439 8.00132C9.48439 7.9794 9.48872 7.95769 9.49712 7.93744C9.50552 7.9172 9.51783 7.8988 9.53336 7.88332L15.7087 1.70865C15.8962 1.52088 16.0014 1.26631 16.0012 1.00095C16.0011 0.735584 15.8955 0.481163 15.7077 0.293655C15.5199 0.106147 15.2653 0.000911349 15 0.00109888C14.7346 0.00128642 14.4802 0.106882 14.2927 0.294655L8.11802 6.46666C8.10254 6.48218 8.08415 6.49449 8.0639 6.50289C8.04365 6.5113 8.02194 6.51562 8.00002 6.51562C7.9781 6.51562 7.95639 6.5113 7.93614 6.50289C7.9159 6.49449 7.8975 6.48218 7.88202 6.46666L1.70736 0.294655C1.61451 0.201767 1.50428 0.128075 1.38296 0.0777874C1.26163 0.0274998 1.13159 0.00160123 1.00026 0.00157027C0.73502 0.00150776 0.48062 0.106814 0.293024 0.294322C0.105427 0.48183 1.50478e-06 0.73618 -6.10073e-05 1.00142C-0.000123519 1.26666 0.105182 1.52106 0.29269 1.70865L6.46669 7.88332C6.48221 7.8988 6.49452 7.9172 6.50293 7.93744C6.51133 7.95769 6.51565 7.9794 6.51565 8.00132C6.51565 8.02324 6.51133 8.04495 6.50293 8.0652C6.49452 8.08545 6.48221 8.10384 6.46669 8.11932L0.29269 14.2947C0.199846 14.3875 0.126206 14.4978 0.0759757 14.6192C0.0257453 14.7405 -9.19602e-05 14.8706 -6.10073e-05 15.0019C1.50478e-06 15.2671 0.105427 15.5215 0.293024 15.709C0.385912 15.8018 0.496178 15.8755 0.617526 15.9257C0.738873 15.9759 0.868926 16.0018 1.00026 16.0017C1.2655 16.0017 1.51985 15.8963 1.70736 15.7087L7.88202 9.53332C7.8975 9.5178 7.9159 9.50549 7.93614 9.49708C7.95639 9.48868 7.9781 9.48436 8.00002 9.48436C8.02194 9.48436 8.04365 9.48868 8.0639 9.49708C8.08415 9.50549 8.10254 9.5178 8.11802 9.53332L14.2927 15.7087C14.4802 15.8963 14.7345 16.0017 14.9998 16.0017C15.265 16.0018 15.5194 15.8965 15.707 15.709C15.8946 15.5215 16 15.2671 16.0001 15.0019C16.0002 14.7367 15.8949 14.4823 15.7074 14.2947L9.53336 8.11932Z" fill="#41536B"/>
</g>
<defs>
    <clipPath id="clip0">
        <rect width="16" height="16" fill="white"/>
    </clipPath>
</defs>
</svg>
