<svg width="180" height="120" viewBox="0 0 180 120" fill="none" xmlns="http://www.w3.org/2000/svg">
  <g clip-path="url(#clip0_89_15207)">
    <path d="M28 115H118" stroke="#264887" stroke-width="2" stroke-linecap="round" stroke-dasharray="1 6 164 5"/>
    <g filter="url(#filter0_i_89_15207)">
      <path fill-rule="evenodd" clip-rule="evenodd" d="M27 24C27 21.7909 28.7909 20 31 20H113C115.209 20 117 21.7909 117 24V106.363C117 108.572 115.209 110.363 113 110.363H108.943C108.081 112.495 105.99 114 103.548 114C101.106 114 99.0159 112.495 98.1535 110.363H47.7318C46.8693 112.495 44.7789 114 42.337 114C39.8951 114 37.8046 112.495 36.9422 110.363H31C28.7909 110.363 27 108.572 27 106.363V24Z" fill="white"/>
    </g>
    <path d="M108.943 110.363V109.363H108.269L108.016 109.988L108.943 110.363ZM98.1535 110.363L99.0806 109.988L98.8278 109.363H98.1535V110.363ZM47.7318 110.363V109.363H47.0575L46.8047 109.988L47.7318 110.363ZM36.9422 110.363L37.8692 109.988L37.6164 109.363H36.9422V110.363ZM27.6582 20.2808C27.2475 20.65 27.2138 21.2823 27.5831 21.693C27.9523 22.1037 28.5846 22.1373 28.9953 21.7681L27.6582 20.2808ZM28.87 21.8874C29.2589 21.4953 29.2563 20.8622 28.8642 20.4732C28.4721 20.0843 27.8389 20.0869 27.45 20.479L28.87 21.8874ZM27.4212 20.5083C27.0355 20.9036 27.0432 21.5367 27.4385 21.9224C27.8338 22.3081 28.4669 22.3003 28.8526 21.9051L27.4212 20.5083ZM28.7681 21.9953C29.1373 21.5846 29.1037 20.9523 28.693 20.5831C28.2823 20.2138 27.65 20.2475 27.2808 20.6582L28.7681 21.9953ZM26 62.3784C26 62.9307 26.4477 63.3784 27 63.3784C27.5523 63.3784 28 62.9307 28 62.3784H26ZM28 65.3969C28 64.8446 27.5523 64.3969 27 64.3969C26.4477 64.3969 26 64.8446 26 65.3969H28ZM26 65.8281C26 66.3804 26.4477 66.8281 27 66.8281C27.5523 66.8281 28 66.3804 28 65.8281H26ZM28 67.9842C28 67.4319 27.5523 66.9842 27 66.9842C26.4477 66.9842 26 67.4319 26 67.9842H28ZM27.2808 109.704C27.65 110.115 28.2823 110.149 28.693 109.78C29.1037 109.41 29.1373 108.778 28.7681 108.367L27.2808 109.704ZM28.8874 108.493C28.4953 108.104 27.8622 108.106 27.4732 108.498C27.0843 108.891 27.0869 109.524 27.479 109.913L28.8874 108.493ZM27.5083 109.941C27.9036 110.327 28.5367 110.319 28.9224 109.924C29.3081 109.529 29.3003 108.896 28.9051 108.51L27.5083 109.941ZM28.9953 108.594C28.5846 108.225 27.9523 108.259 27.5831 108.67C27.2138 109.08 27.2475 109.713 27.6582 110.082L28.9953 108.594ZM33.7689 111.363C34.3211 111.363 34.7689 110.915 34.7689 110.363C34.7689 109.81 34.3211 109.363 33.7689 109.363V111.363ZM33.9866 109.363C33.4344 109.363 32.9866 109.81 32.9866 110.363C32.9866 110.915 33.4344 111.363 33.9866 111.363V109.363ZM34.0177 111.363C34.57 111.363 35.0177 110.915 35.0177 110.363C35.0177 109.81 34.57 109.363 34.0177 109.363V111.363ZM34.1733 109.363C33.621 109.363 33.1733 109.81 33.1733 110.363C33.1733 110.915 33.621 111.363 34.1733 111.363V109.363ZM38.2991 113.676C38.7438 114.003 39.3698 113.908 39.6973 113.463C40.0247 113.019 39.9296 112.393 39.4848 112.065L38.2991 113.676ZM39.6563 112.186C39.1977 111.878 38.5765 112 38.2686 112.459C37.9608 112.917 38.083 113.539 38.5415 113.846L39.6563 112.186ZM38.5768 113.87C39.0372 114.175 39.6577 114.049 39.9627 113.588C40.2676 113.128 40.1416 112.507 39.6812 112.202L38.5768 113.87ZM39.8073 112.283C39.3376 111.993 38.7213 112.138 38.4307 112.608C38.1402 113.077 38.2854 113.694 38.7551 113.984L39.8073 112.283ZM45.9188 113.984C46.3885 113.694 46.5337 113.077 46.2432 112.608C45.9527 112.138 45.3364 111.993 44.8667 112.283L45.9188 113.984ZM45.0425 112.169C44.5858 112.48 44.4675 113.102 44.7782 113.558C45.0888 114.015 45.7109 114.133 46.1675 113.823L45.0425 112.169ZM46.2024 113.799C46.6571 113.485 46.7716 112.863 46.4581 112.408C46.1446 111.953 45.5219 111.839 45.0672 112.152L46.2024 113.799ZM45.1891 112.065C44.7444 112.393 44.6493 113.019 44.9767 113.463C45.3041 113.908 45.9301 114.003 46.3748 113.676L45.1891 112.065ZM71.2267 111.363C71.779 111.363 72.2267 110.915 72.2267 110.363C72.2267 109.81 71.779 109.363 71.2267 109.363V111.363ZM73.0746 109.363C72.5223 109.363 72.0746 109.81 72.0746 110.363C72.0746 110.915 72.5223 111.363 73.0746 111.363V109.363ZM73.3386 111.363C73.8909 111.363 74.3386 110.915 74.3386 110.363C74.3386 109.81 73.8909 109.363 73.3386 109.363V111.363ZM74.6585 109.363C74.1063 109.363 73.6585 109.81 73.6585 110.363C73.6585 110.915 74.1063 111.363 74.6585 111.363V109.363ZM99.5104 113.676C99.9552 114.003 100.581 113.908 100.909 113.463C101.236 113.019 101.141 112.393 100.696 112.065L99.5104 113.676ZM100.868 112.186C100.409 111.878 99.7878 112 99.4799 112.459C99.1721 112.917 99.2943 113.539 99.7528 113.846L100.868 112.186ZM99.7881 113.87C100.249 114.175 100.869 114.049 101.174 113.588C101.479 113.128 101.353 112.507 100.893 112.202L99.7881 113.87ZM101.019 112.283C100.549 111.993 99.9326 112.138 99.6421 112.608C99.3515 113.077 99.4967 113.694 99.9664 113.984L101.019 112.283ZM107.13 113.984C107.6 113.694 107.745 113.077 107.455 112.608C107.164 112.138 106.548 111.993 106.078 112.283L107.13 113.984ZM106.254 112.169C105.797 112.48 105.679 113.102 105.99 113.558C106.3 114.015 106.922 114.133 107.379 113.823L106.254 112.169ZM107.414 113.799C107.868 113.485 107.983 112.863 107.669 112.408C107.356 111.953 106.733 111.839 106.278 112.152L107.414 113.799ZM106.4 112.065C105.956 112.393 105.861 113.019 106.188 113.463C106.515 113.908 107.141 114.003 107.586 113.676L106.4 112.065ZM110.833 111.363C111.386 111.363 111.833 110.915 111.833 110.363C111.833 109.81 111.386 109.363 110.833 109.363V111.363ZM110.982 109.363C110.43 109.363 109.982 109.81 109.982 110.363C109.982 110.915 110.43 111.363 110.982 111.363V109.363ZM111.003 111.363C111.556 111.363 112.003 110.915 112.003 110.363C112.003 109.81 111.556 109.363 111.003 109.363V111.363ZM111.11 109.363C110.557 109.363 110.11 109.81 110.11 110.363C110.11 110.915 110.557 111.363 111.11 111.363V109.363ZM116.342 110.082C116.753 109.713 116.786 109.08 116.417 108.67C116.048 108.259 115.415 108.225 115.005 108.594L116.342 110.082ZM115.13 108.475C114.741 108.867 114.744 109.5 115.136 109.889C115.528 110.278 116.161 110.276 116.55 109.884L115.13 108.475ZM116.579 109.854C116.965 109.459 116.957 108.826 116.561 108.44C116.166 108.054 115.533 108.062 115.147 108.458L116.579 109.854ZM115.232 108.367C114.863 108.778 114.896 109.41 115.307 109.78C115.718 110.149 116.35 110.115 116.719 109.704L115.232 108.367ZM118 67.9842C118 67.4319 117.552 66.9842 117 66.9842C116.448 66.9842 116 67.4319 116 67.9842H118ZM116 64.9657C116 65.518 116.448 65.9657 117 65.9657C117.552 65.9657 118 65.518 118 64.9657H116ZM118 64.5345C118 63.9822 117.552 63.5345 117 63.5345C116.448 63.5345 116 63.9822 116 64.5345H118ZM116 62.3784C116 62.9307 116.448 63.3784 117 63.3784C117.552 63.3784 118 62.9307 118 62.3784H116ZM116.719 20.6582C116.35 20.2475 115.718 20.2138 115.307 20.5831C114.896 20.9523 114.863 21.5846 115.232 21.9953L116.719 20.6582ZM115.113 21.87C115.505 22.2589 116.138 22.2563 116.527 21.8642C116.916 21.4721 116.913 20.8389 116.521 20.45L115.113 21.87ZM116.492 20.4212C116.096 20.0355 115.463 20.0432 115.078 20.4385C114.692 20.8338 114.7 21.4669 115.095 21.8526L116.492 20.4212ZM115.005 21.7681C115.415 22.1373 116.048 22.1037 116.417 21.693C116.786 21.2823 116.753 20.65 116.342 20.2808L115.005 21.7681ZM74.7906 19C74.2383 19 73.7906 19.4477 73.7906 20C73.7906 20.5523 74.2383 21 74.7906 21V19ZM71.7853 21C72.3376 21 72.7853 20.5523 72.7853 20C72.7853 19.4477 72.3376 19 71.7853 19V21ZM71.356 19C70.8037 19 70.356 19.4477 70.356 20C70.356 20.5523 70.8037 21 71.356 21V19ZM69.2094 21C69.7617 21 70.2094 20.5523 70.2094 20C70.2094 19.4477 69.7617 19 69.2094 19V21ZM31 19C29.716 19 28.5431 19.4853 27.6582 20.2808L28.9953 21.7681C29.5273 21.2898 30.2286 21 31 21V19ZM27.45 20.479C27.4403 20.4887 27.4307 20.4985 27.4212 20.5083L28.8526 21.9051C28.8584 21.8992 28.8642 21.8933 28.87 21.8874L27.45 20.479ZM27.2808 20.6582C26.4853 21.5431 26 22.716 26 24H28C28 23.2286 28.2898 22.5273 28.7681 21.9953L27.2808 20.6582ZM26 24V62.3784H28V24H26ZM26 65.3969V65.8281H28V65.3969H26ZM26 67.9842V106.363H28V67.9842H26ZM26 106.363C26 107.647 26.4853 108.82 27.2808 109.704L28.7681 108.367C28.2898 107.835 28 107.134 28 106.363H26ZM27.479 109.913C27.4887 109.922 27.4985 109.932 27.5083 109.941L28.9051 108.51C28.8992 108.504 28.8933 108.498 28.8874 108.493L27.479 109.913ZM27.6582 110.082C28.5431 110.877 29.716 111.363 31 111.363V109.363C30.2286 109.363 29.5273 109.073 28.9953 108.594L27.6582 110.082ZM31 111.363H33.7689V109.363H31V111.363ZM33.9866 111.363H34.0177V109.363H33.9866V111.363ZM34.1733 111.363H36.9422V109.363H34.1733V111.363ZM36.0151 110.737C36.4925 111.918 37.29 112.933 38.2991 113.676L39.4848 112.065C38.7698 111.539 38.2059 110.82 37.8692 109.988L36.0151 110.737ZM38.5415 113.846C38.5532 113.854 38.565 113.862 38.5768 113.87L39.6812 112.202C39.6729 112.197 39.6646 112.191 39.6563 112.186L38.5415 113.846ZM38.7551 113.984C39.7966 114.628 41.0249 115 42.337 115V113C41.4072 113 40.5418 112.738 39.8073 112.283L38.7551 113.984ZM42.337 115C43.649 115 44.8773 114.628 45.9188 113.984L44.8667 112.283C44.1322 112.738 43.2667 113 42.337 113V115ZM46.1675 113.823C46.1792 113.815 46.1908 113.807 46.2024 113.799L45.0672 112.152C45.059 112.158 45.0507 112.163 45.0425 112.169L46.1675 113.823ZM46.3748 113.676C47.3839 112.933 48.1814 111.918 48.6588 110.737L46.8047 109.988C46.468 110.82 45.9042 111.539 45.1891 112.065L46.3748 113.676ZM47.7318 111.363H71.2267V109.363H47.7318V111.363ZM73.0746 111.363H73.3386V109.363H73.0746V111.363ZM74.6585 111.363H98.1535V109.363H74.6585V111.363ZM97.2264 110.737C97.7039 111.918 98.5013 112.933 99.5104 113.676L100.696 112.065C99.9811 111.539 99.4173 110.82 99.0806 109.988L97.2264 110.737ZM99.7528 113.846C99.7646 113.854 99.7763 113.862 99.7881 113.87L100.893 112.202C100.884 112.197 100.876 112.191 100.868 112.186L99.7528 113.846ZM99.9664 113.984C101.008 114.628 102.236 115 103.548 115V113C102.619 113 101.753 112.738 101.019 112.283L99.9664 113.984ZM103.548 115C104.86 115 106.089 114.628 107.13 113.984L106.078 112.283C105.343 112.738 104.478 113 103.548 113V115ZM107.379 113.823C107.39 113.815 107.402 113.807 107.414 113.799L106.278 112.152C106.27 112.158 106.262 112.163 106.254 112.169L107.379 113.823ZM107.586 113.676C108.595 112.933 109.393 111.918 109.87 110.737L108.016 109.988C107.679 110.82 107.115 111.539 106.4 112.065L107.586 113.676ZM108.943 111.363H110.833V109.363H108.943V111.363ZM110.982 111.363H111.003V109.363H110.982V111.363ZM111.11 111.363H113V109.363H111.11V111.363ZM113 111.363C114.284 111.363 115.457 110.877 116.342 110.082L115.005 108.594C114.473 109.073 113.771 109.363 113 109.363V111.363ZM116.55 109.884C116.56 109.874 116.569 109.864 116.579 109.854L115.147 108.458C115.142 108.463 115.136 108.469 115.13 108.475L116.55 109.884ZM116.719 109.704C117.515 108.82 118 107.647 118 106.363H116C116 107.134 115.71 107.835 115.232 108.367L116.719 109.704ZM118 106.363V67.9842H116V106.363H118ZM118 64.9657V64.5345H116V64.9657H118ZM118 62.3784V24H116V62.3784H118ZM118 24C118 22.716 117.515 21.5431 116.719 20.6582L115.232 21.9953C115.71 22.5273 116 23.2286 116 24H118ZM116.521 20.45C116.511 20.4403 116.502 20.4307 116.492 20.4212L115.095 21.8526C115.101 21.8584 115.107 21.8642 115.113 21.87L116.521 20.45ZM116.342 20.2808C115.457 19.4853 114.284 19 113 19V21C113.771 21 114.473 21.2898 115.005 21.7681L116.342 20.2808ZM113 19H74.7906V21H113V19ZM71.7853 19H71.356V21H71.7853V19ZM69.2094 19H31V21H69.2094V19Z" fill="#264887"/>
    <path fill-rule="evenodd" clip-rule="evenodd" d="M100.653 48.9172C100.122 46.9153 101.315 44.8621 103.317 44.3314L163.729 28.3141C165.731 27.7833 167.784 28.9759 168.315 30.9778L171.347 42.4122C171.878 44.4141 170.685 46.4672 168.683 46.998L108.27 63.0152C106.268 63.546 104.215 62.3534 103.685 60.3515L100.653 48.9172Z" fill="white" stroke="#264887" stroke-width="2" stroke-linecap="round" stroke-dasharray="190 6 1 4"/>
    <path fill-rule="evenodd" clip-rule="evenodd" d="M105.464 50.7231C105.11 49.3885 105.905 48.0197 107.24 47.6659L111.66 46.494C112.994 46.1402 114.363 46.9352 114.717 48.2698L116.067 53.3626C116.421 54.6972 115.626 56.066 114.291 56.4198L109.871 57.5917C108.537 57.9455 107.168 57.1505 106.814 55.8159L105.464 50.7231Z" fill="#D32D27"/>
    <g style="mix-blend-mode:multiply">
      <path fill-rule="evenodd" clip-rule="evenodd" d="M117.587 47.422C117.331 46.4546 117.907 45.4624 118.875 45.2059L161.636 33.8685C162.604 33.6121 163.596 34.1884 163.852 35.1557C164.109 36.1231 163.532 37.1153 162.565 37.3718L119.803 48.7092C118.836 48.9657 117.844 48.3893 117.587 47.422Z" fill="#B5D9F1"/>
    </g>
    <g style="mix-blend-mode:multiply">
      <path fill-rule="evenodd" clip-rule="evenodd" d="M119.136 53.2605C118.879 52.2931 119.456 51.301 120.423 51.0445L144.1 44.7669C145.068 44.5104 146.06 45.0867 146.316 46.0541C146.573 47.0215 145.997 48.0137 145.029 48.2701L121.352 54.5477C120.384 54.8042 119.392 54.2279 119.136 53.2605Z" fill="#B5D9F1"/>
    </g>
    <g filter="url(#filter1_i_89_15207)">
      <rect x="110.323" y="55.4932" width="52.0246" height="35.0166" rx="4" fill="#B5D9F1"/>
    </g>
    <rect x="110.323" y="55.4932" width="52.0246" height="35.0166" rx="4" stroke="#264887" stroke-width="2"/>
    <rect x="110.322" y="63.9968" width="52.0246" height="6.50308" fill="#264887"/>
    <g filter="url(#filter2_d_89_15207)">
      <g filter="url(#filter3_i_89_15207)">
        <rect x="155.661" y="78.66" width="52.0246" height="35.0166" rx="4" transform="rotate(164 155.661 78.66)" fill="white"/>
      </g>
      <rect x="155.661" y="78.66" width="52.0246" height="35.0166" rx="4" transform="rotate(164 155.661 78.66)" stroke="#264887" stroke-width="2" stroke-linecap="round" stroke-dasharray="181 7 1 4"/>
      <rect x="130.54" y="54.9982" width="12.5059" height="6.50308" rx="3.25154" transform="rotate(-16 130.54 54.9982)" fill="#B5D9F1"/>
      <rect x="121.767" y="78.8509" width="26.5125" height="1.00047" rx="0.500237" transform="rotate(-16 121.767 78.8509)" fill="#B5D9F1" stroke="#B5D9F1" stroke-width="2"/>
      <rect x="107.885" y="77.6254" width="6.50308" height="1.00047" rx="0.500237" transform="rotate(-16 107.885 77.6254)" stroke="#D22D27" stroke-width="2"/>
      <rect x="118.462" y="74.592" width="6.50308" height="1.00047" rx="0.500237" transform="rotate(-16 118.462 74.592)" stroke="#D22D27" stroke-width="2"/>
      <rect x="129.043" y="71.5585" width="6.50308" height="1.00047" rx="0.500237" transform="rotate(-16 129.043 71.5585)" stroke="#D22D27" stroke-width="2"/>
      <rect x="139.62" y="68.525" width="6.50308" height="1.00047" rx="0.500237" transform="rotate(-16 139.62 68.525)" stroke="#D22D27" stroke-width="2"/>
      <rect x="109.265" y="82.4368" width="8.00378" height="1.00047" rx="0.500237" transform="rotate(-16 109.265 82.4368)" fill="#B5D9F1" stroke="#B5D9F1" stroke-width="2"/>
    </g>
    <g filter="url(#filter4_i_89_15207)">
      <path fill-rule="evenodd" clip-rule="evenodd" d="M36.8413 31C36.8413 29.8954 37.7367 29 38.8413 29H106.374C107.479 29 108.374 29.8954 108.374 31V98.4815C108.374 99.586 107.479 100.481 106.374 100.481H38.8413C37.7367 100.481 36.8413 99.586 36.8413 98.4815V31Z" fill="white"/>
    </g>
    <path fill-rule="evenodd" clip-rule="evenodd" d="M36.8413 31C36.8413 29.8954 37.7367 29 38.8413 29H106.374C107.479 29 108.374 29.8954 108.374 31V98.4815C108.374 99.586 107.479 100.481 106.374 100.481H38.8413C37.7367 100.481 36.8413 99.586 36.8413 98.4815V31Z" stroke="#264887" stroke-width="2" stroke-linecap="round" stroke-linejoin="round"/>
    <g filter="url(#filter5_i_89_15207)">
      <path fill-rule="evenodd" clip-rule="evenodd" d="M33 41.6108C33 39.416 34.7792 37.6368 36.9741 37.6368C39.1689 37.6368 40.9481 39.416 40.9481 41.6108V50.43C40.9481 52.6248 39.1689 54.404 36.9741 54.404C34.7792 54.404 33 52.6248 33 50.43V41.6108Z" fill="white"/>
    </g>
    <path fill-rule="evenodd" clip-rule="evenodd" d="M33 41.6108C33 39.416 34.7792 37.6368 36.9741 37.6368C39.1689 37.6368 40.9481 39.416 40.9481 41.6108V50.43C40.9481 52.6248 39.1689 54.404 36.9741 54.404C34.7792 54.404 33 52.6248 33 50.43V41.6108Z" stroke="#264887" stroke-width="2" stroke-linecap="round" stroke-linejoin="round"/>
    <g filter="url(#filter6_i_89_15207)">
      <path fill-rule="evenodd" clip-rule="evenodd" d="M33 82.8755C33 80.6807 34.7792 78.9015 36.9741 78.9015C39.1689 78.9015 40.9481 80.6807 40.9481 82.8755V91.6947C40.9481 93.8895 39.1689 95.6687 36.9741 95.6687C34.7792 95.6687 33 93.8895 33 91.6947V82.8755Z" fill="white"/>
    </g>
    <path fill-rule="evenodd" clip-rule="evenodd" d="M33 82.8755C33 80.6807 34.7792 78.9015 36.9741 78.9015C39.1689 78.9015 40.9481 80.6807 40.9481 82.8755V91.6947C40.9481 93.8895 39.1689 95.6687 36.9741 95.6687C34.7792 95.6687 33 93.8895 33 91.6947V82.8755Z" stroke="#264887" stroke-width="2" stroke-linecap="round" stroke-linejoin="round"/>
    <path d="M71.8937 79.9015C79.6055 79.9015 85.8583 73.6542 85.8583 65.9463C85.8583 58.2384 79.6055 51.9911 71.8937 51.9911C64.182 51.9911 57.9292 58.2384 57.9292 65.9463C57.9292 73.6542 64.182 79.9015 71.8937 79.9015Z" stroke="#264887" stroke-width="2"/>
    <path fill-rule="evenodd" clip-rule="evenodd" d="M73.9794 50.9642C73.9794 49.9574 73.1735 49.1525 72.1795 49.1525C71.1786 49.1525 70.3797 49.9637 70.3797 50.9642V59.9085C68.0802 60.6664 66.42 62.8371 66.42 65.3966C66.42 65.8889 66.4815 66.3669 66.5971 66.8232L58.7395 72.3406C57.9228 72.9141 57.7237 74.0403 58.2939 74.8569C58.868 75.6791 59.9879 75.8707 60.8042 75.2975L68.5351 69.8691C69.5279 70.6836 70.7968 71.1722 72.1795 71.1722C73.715 71.1722 75.1102 70.5697 76.1427 69.5874L84.2748 75.2975C85.0915 75.871 86.215 75.6734 86.7851 74.8569C87.3592 74.0346 87.1557 72.9137 86.3395 72.3406L77.8553 66.3832C77.9104 66.0626 77.939 65.733 77.939 65.3966C77.939 62.8371 76.2788 60.6664 73.9794 59.9085V50.9642Z" fill="#D22D27"/>
    <path d="M137.625 6H130.125V14.0063H137.625V6Z" stroke="#E78C89" stroke-width="2" stroke-linecap="round" stroke-linejoin="round"/>
    <path d="M10.1274 4.59481L5 10.0684L10.1274 15.5419L15.2548 10.0684L10.1274 4.59481Z" stroke="#E78C89" stroke-width="2" stroke-linecap="round" stroke-linejoin="round"/>
    <path d="M132.537 102.525L139.663 110.132" stroke="#E78C89" stroke-width="2" stroke-linecap="round" stroke-linejoin="round"/>
    <path d="M139.411 102.525L132.285 110.132" stroke="#E78C89" stroke-width="2" stroke-linecap="round" stroke-linejoin="round"/>
  </g>
  <defs>
    <filter id="filter0_i_89_15207" x="26" y="19" width="92" height="96" filterUnits="userSpaceOnUse" color-interpolation-filters="sRGB">
      <feFlood flood-opacity="0" result="BackgroundImageFix"/>
      <feBlend mode="normal" in="SourceGraphic" in2="BackgroundImageFix" result="shape"/>
      <feColorMatrix in="SourceAlpha" type="matrix" values="0 0 0 0 0 0 0 0 0 0 0 0 0 0 0 0 0 0 127 0" result="hardAlpha"/>
      <feOffset dy="-4"/>
      <feComposite in2="hardAlpha" operator="arithmetic" k2="-1" k3="1"/>
      <feColorMatrix type="matrix" values="0 0 0 0 0.760784 0 0 0 0 0.878431 0 0 0 0 0.956863 0 0 0 1 0"/>
      <feBlend mode="normal" in2="shape" result="effect1_innerShadow_89_15207"/>
    </filter>
    <filter id="filter1_i_89_15207" x="109.323" y="54.4932" width="54.0244" height="37.0165" filterUnits="userSpaceOnUse" color-interpolation-filters="sRGB">
      <feFlood flood-opacity="0" result="BackgroundImageFix"/>
      <feBlend mode="normal" in="SourceGraphic" in2="BackgroundImageFix" result="shape"/>
      <feColorMatrix in="SourceAlpha" type="matrix" values="0 0 0 0 0 0 0 0 0 0 0 0 0 0 0 0 0 0 127 0" result="hardAlpha"/>
      <feOffset dx="6" dy="-7"/>
      <feComposite in2="hardAlpha" operator="arithmetic" k2="-1" k3="1"/>
      <feColorMatrix type="matrix" values="0 0 0 0 0.423529 0 0 0 0 0.705882 0 0 0 0 0.894118 0 0 0 1 0"/>
      <feBlend mode="normal" in2="shape" result="effect1_innerShadow_89_15207"/>
    </filter>
    <filter id="filter2_d_89_15207" x="95.9468" y="44.9465" width="63.7681" height="52.1069" filterUnits="userSpaceOnUse" color-interpolation-filters="sRGB">
      <feFlood flood-opacity="0" result="BackgroundImageFix"/>
      <feColorMatrix in="SourceAlpha" type="matrix" values="0 0 0 0 0 0 0 0 0 0 0 0 0 0 0 0 0 0 127 0" result="hardAlpha"/>
      <feOffset dx="4" dy="4"/>
      <feColorMatrix type="matrix" values="0 0 0 0 0 0 0 0 0 0 0 0 0 0 0 0 0 0 0.1 0"/>
      <feBlend mode="normal" in2="BackgroundImageFix" result="effect1_dropShadow_89_15207"/>
      <feBlend mode="normal" in="SourceGraphic" in2="effect1_dropShadow_89_15207" result="shape"/>
    </filter>
    <filter id="filter3_i_89_15207" x="95.9468" y="44.9465" width="59.7681" height="48.1069" filterUnits="userSpaceOnUse" color-interpolation-filters="sRGB">
      <feFlood flood-opacity="0" result="BackgroundImageFix"/>
      <feBlend mode="normal" in="SourceGraphic" in2="BackgroundImageFix" result="shape"/>
      <feColorMatrix in="SourceAlpha" type="matrix" values="0 0 0 0 0 0 0 0 0 0 0 0 0 0 0 0 0 0 127 0" result="hardAlpha"/>
      <feOffset dx="-7" dy="7"/>
      <feComposite in2="hardAlpha" operator="arithmetic" k2="-1" k3="1"/>
      <feColorMatrix type="matrix" values="0 0 0 0 0.709804 0 0 0 0 0.85098 0 0 0 0 0.945098 0 0 0 1 0"/>
      <feBlend mode="normal" in2="shape" result="effect1_innerShadow_89_15207"/>
    </filter>
    <filter id="filter4_i_89_15207" x="35.8413" y="28" width="73.5332" height="73.4814" filterUnits="userSpaceOnUse" color-interpolation-filters="sRGB">
      <feFlood flood-opacity="0" result="BackgroundImageFix"/>
      <feBlend mode="normal" in="SourceGraphic" in2="BackgroundImageFix" result="shape"/>
      <feColorMatrix in="SourceAlpha" type="matrix" values="0 0 0 0 0 0 0 0 0 0 0 0 0 0 0 0 0 0 127 0" result="hardAlpha"/>
      <feOffset dx="6" dy="-6"/>
      <feComposite in2="hardAlpha" operator="arithmetic" k2="-1" k3="1"/>
      <feColorMatrix type="matrix" values="0 0 0 0 0.709804 0 0 0 0 0.85098 0 0 0 0 0.945098 0 0 0 1 0"/>
      <feBlend mode="normal" in2="shape" result="effect1_innerShadow_89_15207"/>
    </filter>
    <filter id="filter5_i_89_15207" x="32" y="36.6368" width="9.94824" height="18.7673" filterUnits="userSpaceOnUse" color-interpolation-filters="sRGB">
      <feFlood flood-opacity="0" result="BackgroundImageFix"/>
      <feBlend mode="normal" in="SourceGraphic" in2="BackgroundImageFix" result="shape"/>
      <feColorMatrix in="SourceAlpha" type="matrix" values="0 0 0 0 0 0 0 0 0 0 0 0 0 0 0 0 0 0 127 0" result="hardAlpha"/>
      <feOffset dx="3" dy="-4"/>
      <feComposite in2="hardAlpha" operator="arithmetic" k2="-1" k3="1"/>
      <feColorMatrix type="matrix" values="0 0 0 0 0.709804 0 0 0 0 0.85098 0 0 0 0 0.945098 0 0 0 1 0"/>
      <feBlend mode="normal" in2="shape" result="effect1_innerShadow_89_15207"/>
    </filter>
    <filter id="filter6_i_89_15207" x="32" y="77.9015" width="9.94824" height="18.7673" filterUnits="userSpaceOnUse" color-interpolation-filters="sRGB">
      <feFlood flood-opacity="0" result="BackgroundImageFix"/>
      <feBlend mode="normal" in="SourceGraphic" in2="BackgroundImageFix" result="shape"/>
      <feColorMatrix in="SourceAlpha" type="matrix" values="0 0 0 0 0 0 0 0 0 0 0 0 0 0 0 0 0 0 127 0" result="hardAlpha"/>
      <feOffset dx="3" dy="-4"/>
      <feComposite in2="hardAlpha" operator="arithmetic" k2="-1" k3="1"/>
      <feColorMatrix type="matrix" values="0 0 0 0 0.709804 0 0 0 0 0.85098 0 0 0 0 0.945098 0 0 0 1 0"/>
      <feBlend mode="normal" in2="shape" result="effect1_innerShadow_89_15207"/>
    </filter>
    <clipPath id="clip0_89_15207">
      <rect width="180" height="120" fill="white"/>
    </clipPath>
  </defs>
</svg>
