<svg width="125" height="125" viewBox="0 0 125 125" fill="none" xmlns="http://www.w3.org/2000/svg">
<path fill-rule="evenodd" clip-rule="evenodd" d="M62.5 125C97.0178 125 125 97.0178 125 62.5C125 27.9822 97.0178 0 62.5 0C27.9822 0 0 27.9822 0 62.5C0 97.0178 27.9822 125 62.5 125Z" fill="#F1F2FA"/>
<path d="M37.5 100H86.8056" stroke="#9699DE" stroke-width="2" stroke-linecap="round" stroke-dasharray="1 6 164 5"/>
<path fill-rule="evenodd" clip-rule="evenodd" d="M13.8889 45.1393C15.0395 45.1393 15.9722 44.2066 15.9722 43.056C15.9722 41.9054 15.0395 40.9727 13.8889 40.9727C12.7383 40.9727 11.8055 41.9054 11.8055 43.056C11.8055 44.2066 12.7383 45.1393 13.8889 45.1393Z" stroke="#9699DE" stroke-width="2"/>
<rect x="26.9148" y="22.917" width="4.16667" height="4.16667" transform="rotate(-45 26.9148 22.917)" stroke="#9699DE" stroke-width="2" stroke-linecap="round" stroke-linejoin="round"/>
<path d="M105.003 37.6423L108.248 40.8873" stroke="#9699DE" stroke-width="1.6" stroke-linecap="round"/>
<path d="M108.134 37.6423L104.889 40.8873" stroke="#9699DE" stroke-width="1.6" stroke-linecap="round"/>
<g filter="url(#filter0_i)">
<path d="M99.9931 50.9141H77.8857L62.52 93.5908C63.2733 93.462 63.9636 93.0898 64.4852 92.5313L99.1016 53.1926C99.6584 52.5621 99.9742 51.755 99.9931 50.9141V50.9141Z" fill="white" stroke="#1C315F" stroke-width="2" stroke-linecap="round" stroke-linejoin="round"/>
<path d="M77.886 50.9142H99.9934V50.88C100.006 50.039 99.7205 49.2207 99.1874 48.5701L87.171 33.8794C86.5033 33.0627 85.6629 32.4042 84.7102 31.9512L77.8746 50.9142H77.886Z" fill="white" stroke="#1C315F" stroke-width="2" stroke-linecap="round" stroke-linejoin="round"/>
<path d="M84.7101 31.9449C83.7501 31.4877 82.7002 31.2503 81.6369 31.25H61.7967L77.8859 50.9023L84.7101 31.9449Z" fill="white" stroke="#1C315F" stroke-width="2" stroke-linecap="round" stroke-linejoin="round"/>
<path d="M61.7974 31.25L45.7082 50.9079H77.8866L61.7974 31.25Z" fill="white" stroke="#1C315F" stroke-width="2" stroke-linecap="round" stroke-linejoin="round"/>
<path d="M45.7082 50.9141L61.0711 93.5965C61.3043 93.673 61.5448 93.7245 61.7889 93.7503H61.8059C62.049 93.7245 62.2887 93.673 62.5208 93.5965L77.8866 50.9141H45.7082Z" fill="white" stroke="#1C315F" stroke-width="2" stroke-linecap="round" stroke-linejoin="round"/>
<path d="M23.6118 50.9141H45.7191L61.082 93.5965C60.3289 93.4671 59.6388 93.095 59.1168 92.537L24.489 53.1926C23.9371 52.5602 23.6265 51.7532 23.6118 50.9141V50.9141Z" fill="white" stroke="#1C315F" stroke-width="2" stroke-linecap="round" stroke-linejoin="round"/>
<path d="M45.7076 50.913H23.6116V50.8789C23.5967 50.038 23.8814 49.2192 24.4148 48.569L36.4283 33.8725C37.096 33.0559 37.9364 32.3973 38.8891 31.9443L45.7247 50.9073L45.7076 50.913Z" fill="white" stroke="#1C315F" stroke-width="2" stroke-linecap="round" stroke-linejoin="round"/>
<path d="M38.8803 31.9443C39.8413 31.4913 40.8911 31.2578 41.9535 31.2608H61.7965L45.7073 50.913L38.8803 31.9443Z" fill="white" stroke="#1C315F" stroke-width="2" stroke-linecap="round" stroke-linejoin="round"/>
</g>
<path d="M99.9931 50.9141H77.8857L62.52 93.5908C63.2733 93.462 63.9636 93.0898 64.4852 92.5313L99.1016 53.1926C99.6584 52.5621 99.9742 51.755 99.9931 50.9141V50.9141Z" stroke="#1C315F" stroke-width="2" stroke-linecap="round" stroke-linejoin="round"/>
<path d="M77.886 50.9142H99.9934V50.88C100.006 50.039 99.7205 49.2207 99.1874 48.5701L87.171 33.8794C86.5033 33.0627 85.6629 32.4042 84.7102 31.9512L77.8746 50.9142H77.886Z" stroke="#1C315F" stroke-width="2" stroke-linecap="round" stroke-linejoin="round"/>
<path d="M84.7101 31.9449C83.7501 31.4877 82.7002 31.2503 81.6369 31.25H61.7967L77.8859 50.9023L84.7101 31.9449Z" stroke="#1C315F" stroke-width="2" stroke-linecap="round" stroke-linejoin="round"/>
<path d="M61.7974 31.25L45.7082 50.9079H77.8866L61.7974 31.25Z" stroke="#1C315F" stroke-width="2" stroke-linecap="round" stroke-linejoin="round"/>
<path d="M45.7082 50.9141L61.0711 93.5965C61.3043 93.673 61.5448 93.7245 61.7889 93.7503H61.8059C62.049 93.7245 62.2887 93.673 62.5208 93.5965L77.8866 50.9141H45.7082Z" stroke="#1C315F" stroke-width="2" stroke-linecap="round" stroke-linejoin="round"/>
<path d="M23.6118 50.9141H45.7191L61.082 93.5965C60.3289 93.4671 59.6388 93.095 59.1168 92.537L24.489 53.1926C23.9371 52.5602 23.6265 51.7532 23.6118 50.9141V50.9141Z" stroke="#1C315F" stroke-width="2" stroke-linecap="round" stroke-linejoin="round" stroke-dasharray="110 7 1 5"/>
<path d="M45.7076 50.913H23.6116V50.8789C23.5967 50.038 23.8814 49.2192 24.4148 48.569L36.4283 33.8725C37.096 33.0559 37.9364 32.3973 38.8891 31.9443L45.7247 50.9073L45.7076 50.913Z" stroke="#1C315F" stroke-width="2" stroke-linecap="round" stroke-linejoin="round"/>
<path d="M38.8803 31.9443C39.8413 31.4913 40.8911 31.2578 41.9535 31.2608H61.7965L45.7073 50.913L38.8803 31.9443Z" stroke="#1C315F" stroke-width="2" stroke-linecap="round" stroke-linejoin="round"/>
<defs>
<filter id="filter0_i" x="22.6111" y="30.25" width="78.3827" height="64.5003" filterUnits="userSpaceOnUse" color-interpolation-filters="sRGB">
<feFlood flood-opacity="0" result="BackgroundImageFix"/>
<feBlend mode="normal" in="SourceGraphic" in2="BackgroundImageFix" result="shape"/>
<feColorMatrix in="SourceAlpha" type="matrix" values="0 0 0 0 0 0 0 0 0 0 0 0 0 0 0 0 0 0 127 0" result="hardAlpha"/>
<feOffset dx="8" dy="4"/>
<feComposite in2="hardAlpha" operator="arithmetic" k2="-1" k3="1"/>
<feColorMatrix type="matrix" values="0 0 0 0 0.792157 0 0 0 0 0.8 0 0 0 0 0.933333 0 0 0 1 0"/>
<feBlend mode="normal" in2="shape" result="effect1_innerShadow"/>
</filter>
</defs>
</svg>
