<svg width="32" height="32" viewBox="0 0 32 32" fill="none" xmlns="http://www.w3.org/2000/svg">
    <rect opacity="0.01" width="32" height="32" fill="white"/>
    <g clip-path="url(#clip0)">
        <path d="M17.5334 16.1192C17.5179 16.1037 17.5056 16.0853 17.4972 16.0651C17.4888 16.0448 17.4845 16.0231 17.4845 16.0012C17.4845 15.9793 17.4888 15.9576 17.4972 15.9373C17.5056 15.9171 17.5179 15.8987 17.5334 15.8832L23.7087 9.70853C23.8963 9.52076 24.0015 9.26619 24.0013 9.00083C24.0011 8.73546 23.8955 8.48104 23.7078 8.29353C23.52 8.10602 23.2654 8.00079 23 8.00098C22.7347 8.00116 22.4803 8.10676 22.2927 8.29453L16.1181 14.4665C16.1026 14.4821 16.0842 14.4944 16.064 14.5028C16.0437 14.5112 16.022 14.5155 16.0001 14.5155C15.9782 14.5155 15.9565 14.5112 15.9362 14.5028C15.916 14.4944 15.8976 14.4821 15.8821 14.4665L9.70742 8.29453C9.61457 8.20164 9.50434 8.12795 9.38302 8.07767C9.26169 8.02738 9.13165 8.00148 9.00032 8.00145C8.73508 8.00139 8.48068 8.10669 8.29308 8.2942C8.10549 8.48171 8.00006 8.73606 8 9.0013C7.99994 9.26654 8.10524 9.52094 8.29275 9.70853L14.4668 15.8832C14.4823 15.8987 14.4946 15.9171 14.503 15.9373C14.5114 15.9576 14.5157 15.9793 14.5157 16.0012C14.5157 16.0231 14.5114 16.0448 14.503 16.0651C14.4946 16.0853 14.4823 16.1037 14.4668 16.1192L8.29275 22.2945C8.19991 22.3874 8.12627 22.4977 8.07604 22.619C8.02581 22.7404 7.99997 22.8704 8 23.0018C8.00006 23.267 8.10549 23.5214 8.29308 23.7089C8.38597 23.8017 8.49624 23.8754 8.61759 23.9256C8.73893 23.9758 8.86899 24.0016 9.00032 24.0016C9.26556 24.0016 9.51991 23.8961 9.70742 23.7085L15.8821 17.5332C15.8976 17.5177 15.916 17.5054 15.9362 17.497C15.9565 17.4886 15.9782 17.4842 16.0001 17.4842C16.022 17.4842 16.0437 17.4886 16.064 17.497C16.0842 17.5054 16.1026 17.5177 16.1181 17.5332L22.2927 23.7085C22.4803 23.8961 22.7346 24.0016 22.9998 24.0016C23.2651 24.0017 23.5195 23.8964 23.7071 23.7089C23.8947 23.5214 24.0001 23.267 24.0002 23.0018C24.0002 22.7365 23.8949 22.4821 23.7074 22.2945L17.5334 16.1192Z" fill="#526278"/>
    </g>
    <defs>
        <clipPath id="clip0">
            <rect width="16" height="16" fill="white" transform="translate(8 8)"/>
        </clipPath>
    </defs>
</svg>
