<svg width="298" height="78" viewBox="0 0 298 78" fill="none" xmlns="http://www.w3.org/2000/svg">
<g clip-path="url(#clip0)">
<path fill-rule="evenodd" clip-rule="evenodd" d="M23.5725 0C21.9812 0 20.455 0.632213 19.3297 1.75754L1.75717 19.3316C0.632068 20.4568 0 21.9829 0 23.5741V48.4295C0 50.0208 0.632141 51.5469 1.75736 52.6721L19.3297 70.2445C20.455 71.3697 21.9811 72.0018 23.5724 72.0018H48.4276C50.0189 72.0018 51.545 71.3697 52.6702 70.2445L70.2426 52.6721C71.3679 51.5469 72 50.0207 72 48.4295V23.5741C72 21.9829 71.3679 20.4568 70.2428 19.3316L52.6703 1.75754C51.545 0.632213 50.0188 0 48.4275 0H23.5725Z" fill="#E40D0D"/>
<path fill-rule="evenodd" clip-rule="evenodd" d="M34.442 62.1C46.3699 62.1 49.2002 51.159 49.2002 51.159L56.0461 31.4889C56.0461 31.4889 56.6644 29.4471 56.5509 29.4244C50.1758 28.2333 48.8202 32.7254 48.8202 32.7254C48.8202 32.7254 46.3699 39.0892 45.9899 39.0892C45.6099 39.0892 45.5645 38.6185 45.5645 38.6185V15.7552C45.5645 15.7552 45.6836 12.8058 42.6549 12.8058C39.6261 12.8058 39.7792 15.7609 39.7792 15.7609L39.7849 32.6517C39.7849 32.6517 39.8246 33.3323 39.2574 33.3323C38.7526 33.3323 38.781 32.6744 38.781 32.6744V12.3237C38.781 12.3237 38.9681 9 35.9053 9C32.8425 9 33.007 12.3464 33.007 12.3464L32.9787 32.4248C32.9787 32.4248 33.0184 33.043 32.5136 33.043C32.0428 33.043 32.0598 32.4305 32.0598 32.4305V15.5964C32.0598 15.5964 32.23 12.1706 29.1105 12.1706C26.0476 12.1706 26.2121 15.6588 26.2121 15.6588L26.1838 33.4344C26.1838 33.4344 26.2405 33.9505 25.7584 33.9505C25.2479 33.9505 25.2593 33.4344 25.2593 33.4344L25.2366 22.6862C25.2366 22.6862 25.2649 19.7142 22.6899 19.7142C19.9504 19.7142 20.0014 22.6862 20.0014 22.6862V45.8841C20.0185 45.8785 19.3095 62.1 34.442 62.1Z" fill="white"/>
</g>
<path d="M105.023 17.8688H111.048L127.905 57.0002H119.946L116.298 48.0464H99.3304L95.7931 57.0002H88L105.023 17.8688ZM113.867 42.0772L107.842 26.1594L101.707 42.0772H113.867Z" fill="black"/>
<path d="M152.649 53.0208H152.538C151.58 54.642 150.29 55.8211 148.669 56.5581C147.048 57.295 145.298 57.6635 143.418 57.6635C141.355 57.6635 139.513 57.3134 137.891 56.6133C136.307 55.8764 134.944 54.8815 133.801 53.6287C132.659 52.3759 131.793 50.9021 131.204 49.2071C130.614 47.5121 130.319 45.6882 130.319 43.7353C130.319 41.7824 130.633 39.9585 131.259 38.2636C131.885 36.5686 132.751 35.0947 133.857 33.8419C134.999 32.5891 136.362 31.6127 137.947 30.9126C139.531 30.1757 141.263 29.8072 143.142 29.8072C144.395 29.8072 145.5 29.9362 146.458 30.1941C147.416 30.452 148.264 30.7836 149.001 31.189C149.738 31.5943 150.364 32.0364 150.88 32.5154C151.396 32.9576 151.82 33.3998 152.151 33.8419H152.317V15.2158H158.949V57.0002H152.649V53.0208ZM136.952 43.7353C136.952 44.767 137.118 45.7619 137.449 46.7199C137.818 47.6779 138.334 48.5254 138.997 49.2624C139.697 49.9993 140.526 50.5889 141.484 51.031C142.442 51.4732 143.529 51.6943 144.745 51.6943C145.961 51.6943 147.048 51.4732 148.006 51.031C148.964 50.5889 149.775 49.9993 150.438 49.2624C151.138 48.5254 151.654 47.6779 151.985 46.7199C152.354 45.7619 152.538 44.767 152.538 43.7353C152.538 42.7036 152.354 41.7088 151.985 40.7507C151.654 39.7927 151.138 38.9452 150.438 38.2083C149.775 37.4714 148.964 36.8818 148.006 36.4396C147.048 35.9975 145.961 35.7764 144.745 35.7764C143.529 35.7764 142.442 35.9975 141.484 36.4396C140.526 36.8818 139.697 37.4714 138.997 38.2083C138.334 38.9452 137.818 39.7927 137.449 40.7507C137.118 41.7088 136.952 42.7036 136.952 43.7353Z" fill="black"/>
<path d="M167.565 17.8688H179.504C181.125 17.8688 182.709 18.0346 184.257 18.3662C185.804 18.6979 187.186 19.2506 188.402 20.0243C189.618 20.7613 190.594 21.7377 191.331 22.9537C192.105 24.1696 192.492 25.6803 192.492 27.4858C192.492 29.7703 191.866 31.668 190.613 33.1787C189.397 34.6526 187.739 35.7027 185.639 36.3291V36.4396C186.891 36.5502 188.052 36.8818 189.121 37.4345C190.226 37.9504 191.166 38.632 191.939 39.4795C192.75 40.327 193.376 41.3219 193.819 42.4641C194.261 43.5695 194.482 44.767 194.482 46.0567C194.482 48.2307 194.021 50.0177 193.1 51.4179C192.216 52.8181 191.037 53.9419 189.563 54.7894C188.126 55.6 186.486 56.1712 184.644 56.5028C182.838 56.8344 181.033 57.0002 179.227 57.0002H167.565V17.8688ZM172.208 34.4499H178.619C179.725 34.4499 180.793 34.3762 181.825 34.2288C182.893 34.0814 183.851 33.7867 184.699 33.3445C185.546 32.8655 186.228 32.2207 186.744 31.41C187.26 30.5626 187.518 29.4572 187.518 28.0938C187.518 26.8779 187.278 25.9014 186.799 25.1645C186.32 24.3907 185.675 23.7827 184.865 23.3406C184.091 22.8984 183.188 22.6036 182.157 22.4562C181.162 22.272 180.148 22.1799 179.117 22.1799H172.208V34.4499ZM172.208 52.6891H180.056C181.199 52.6891 182.322 52.5786 183.428 52.3575C184.57 52.0996 185.583 51.7127 186.468 51.1968C187.389 50.6441 188.126 49.944 188.678 49.0966C189.231 48.2122 189.507 47.1437 189.507 45.8909C189.507 44.5275 189.231 43.3853 188.678 42.4641C188.163 41.5429 187.462 40.806 186.578 40.2533C185.731 39.7006 184.736 39.3137 183.594 39.0926C182.488 38.8715 181.346 38.761 180.167 38.761H172.208V52.6891Z" fill="black"/>
<path d="M201.992 15.2158H206.303V57.0002H201.992V15.2158Z" fill="black"/>
<path d="M213.391 44.067C213.391 42.0404 213.741 40.198 214.441 38.5399C215.141 36.8818 216.099 35.4632 217.315 34.2841C218.531 33.0681 219.986 32.1286 221.681 31.4653C223.376 30.8021 225.219 30.4704 227.208 30.4704C229.198 30.4704 231.04 30.8021 232.735 31.4653C234.43 32.1286 235.886 33.0681 237.102 34.2841C238.318 35.4632 239.276 36.8818 239.976 38.5399C240.676 40.198 241.026 42.0404 241.026 44.067C241.026 46.0935 240.676 47.9359 239.976 49.594C239.276 51.2521 238.318 52.6891 237.102 53.9051C235.886 55.0842 234.43 56.0053 232.735 56.6686C231.04 57.3318 229.198 57.6635 227.208 57.6635C225.219 57.6635 223.376 57.3318 221.681 56.6686C219.986 56.0053 218.531 55.0842 217.315 53.9051C216.099 52.6891 215.141 51.2521 214.441 49.594C213.741 47.9359 213.391 46.0935 213.391 44.067ZM218.033 44.067C218.033 45.4303 218.236 46.7015 218.641 47.8806C219.084 49.0229 219.71 50.0362 220.521 50.9205C221.331 51.768 222.289 52.4496 223.395 52.9655C224.537 53.4445 225.808 53.684 227.208 53.684C228.609 53.684 229.861 53.4445 230.967 52.9655C232.109 52.4496 233.085 51.768 233.896 50.9205C234.707 50.0362 235.315 49.0229 235.72 47.8806C236.162 46.7015 236.383 45.4303 236.383 44.067C236.383 42.7036 236.162 41.4508 235.72 40.3086C235.315 39.1295 234.707 38.1162 233.896 37.2687C233.085 36.3844 232.109 35.7027 230.967 35.2237C229.861 34.7078 228.609 34.4499 227.208 34.4499C225.808 34.4499 224.537 34.7078 223.395 35.2237C222.289 35.7027 221.331 36.3844 220.521 37.2687C219.71 38.1162 219.084 39.1295 218.641 40.3086C218.236 41.4508 218.033 42.7036 218.033 44.067Z" fill="black"/>
<path d="M266.105 37.6003C265.184 36.4949 264.189 35.7027 263.12 35.2237C262.052 34.7078 260.873 34.4499 259.583 34.4499C258.146 34.4499 256.875 34.7078 255.769 35.2237C254.664 35.7027 253.743 36.3844 253.006 37.2687C252.306 38.153 251.771 39.1847 251.403 40.3638C251.034 41.5061 250.85 42.7405 250.85 44.067C250.85 45.3934 251.053 46.6462 251.458 47.8253C251.9 48.9676 252.49 49.9809 253.227 50.8652C254.001 51.7495 254.922 52.4496 255.99 52.9655C257.059 53.4445 258.256 53.684 259.583 53.684C262.42 53.684 264.613 52.6154 266.16 50.4783L269.366 53.5182C268.113 54.9552 266.639 56.0053 264.944 56.6686C263.249 57.3318 261.462 57.6635 259.583 57.6635C257.593 57.6635 255.769 57.3318 254.111 56.6686C252.453 56.0053 251.034 55.0658 249.855 53.8498C248.713 52.6339 247.81 51.1968 247.147 49.5387C246.521 47.8806 246.208 46.0567 246.208 44.067C246.208 42.1141 246.521 40.3086 247.147 38.6505C247.81 36.9923 248.732 35.5553 249.911 34.3394C251.09 33.1234 252.49 32.1838 254.111 31.5206C255.769 30.8205 257.593 30.4704 259.583 30.4704C261.499 30.4704 263.304 30.8021 264.999 31.4653C266.731 32.1286 268.242 33.1603 269.532 34.5604L266.105 37.6003Z" fill="black"/>
<path d="M274.363 15.2158H278.675V42.5194L290.447 31.1337H296.582L284.091 42.9063L297.853 57.0002H291.497L278.675 43.4037V57.0002H274.363V15.2158Z" fill="black"/>
<defs>
<clipPath id="clip0">
<rect width="72" height="72" fill="white"/>
</clipPath>
</defs>
</svg>
